<?xml version="1.0" encoding="UTF-8"?><svg id="Layer_2" xmlns="http://www.w3.org/2000/svg" viewBox="0 0 33.32 31.76"><defs><style>.cls-1{fill:#bb0021;}.cls-2{fill:#393939;}</style></defs><g id="_1952839001536669570"><path id="Path_6670" class="cls-2" d="m33.32,6.95C33.31,3.1,30.18,0,26.34,0c-3.78,0-6.86,3.03-6.95,6.8-1.26-.35-2.56-.53-3.87-.53-1.66,0-3.32.28-4.88.85l-4.67-3.45c-.26-.19-.62-.13-.81.13-.1.14-.13.32-.09.49l1.39,5.25c-1.54,1.31-2.68,3.02-3.3,4.94H.59c-.32,0-.58.24-.59.56,0,.05,0,.09.01.14l1.07,4.89c.06.27.3.46.57.45h1.5c.95,2.8,2.95,5.13,5.57,6.51v4.13c0,.32.26.57.57.57h2.36c.25,0,.47-.16.55-.4l.91-2.8c1.59.27,3.22.27,4.81,0l.91,2.82c.08.24.3.4.55.4h2.36c.32,0,.57-.26.57-.57h0v-4.14c3.43-1.76,5.71-5.17,6.03-9.02,1.55-.27,2.68-1.62,2.68-3.19,0-.32-.26-.57-.57-.57-.32,0-.57.26-.57.57,0,.94-.63,1.76-1.54,2.01-.07-1.05-.31-2.08-.7-3.06,3.29-.62,5.68-3.49,5.68-6.84Zm-6.97-5.82c3.22,0,5.83,2.6,5.83,5.81s-2.6,5.83-5.81,5.83c-1.28,0-2.52-.42-3.53-1.19-.11-.1-.24-.21-.36-.3-2.4-2.13-2.62-5.8-.49-8.2,1.11-1.25,2.7-1.96,4.36-1.95Zm.86,16.38c-.12,3.75-2.34,7.11-5.74,8.68-.16.09-.28.25-.3.43v3.98h-1.37l-.94-2.87s-.02-.05-.04-.07c-.11-.23-.37-.36-.63-.31-1.77.36-3.59.36-5.35,0-.29-.06-.58.1-.67.39l-.94,2.87h-1.37v-3.9s0-.05,0-.08c-.02-.19-.13-.35-.3-.44-2.63-1.27-4.6-3.58-5.43-6.38-.07-.26-.31-.43-.57-.42h-1.45l-.82-3.75h2.3c.27,0,.5-.17.57-.42.55-1.97,1.71-3.72,3.31-5.01.16-.14.23-.36.19-.57l-1.06-4.03,3.6,2.65c.08.06.18.09.28.1.09.02.18,0,.26-.03,1.52-.6,3.13-.9,4.77-.91,1.34,0,2.67.19,3.95.57.1.62.28,1.23.53,1.8-1.05-.44-2.15-.72-3.28-.83-.32-.04-.6.19-.64.5-.04.32.19.6.5.64,0,0,.02,0,.02,0,1.84.17,3.6.86,5.08,1.98.14.13.29.25.45.37,1.26,1.07,2.1,2.56,2.35,4.2.04.29.28.5.57.5h.08c.31-.04.53-.33.49-.64-.14-1.02-.48-1.99-1.01-2.87.56.15,1.14.23,1.72.23h.08c.51,1.14.78,2.37.78,3.62h0Z"/><g id="Layer_26"><path id="Path_2347" class="cls-1" d="m29.17,5.52h-1.21c-.06-.44-.27-.85-.61-1.15h1.82c.13,0,.23-.1.23-.23,0-.13-.1-.23-.23-.23h-4.63c-.13,0-.23.1-.23.23,0,.13.1.23.23.23h1.6c.67,0,1.25.48,1.36,1.15h-2.96c-.13,0-.23.1-.23.23s.1.23.23.23h2.96c-.11.66-.68,1.15-1.35,1.15h-1.6c-.13,0-.23.1-.23.23,0,.06.02.12.07.16l3.2,3.21c.09.09.24.08.32-.01.08-.09.08-.22,0-.31l-2.82-2.82h1.05c.92,0,1.7-.69,1.82-1.6h1.21c.13,0,.23-.1.23-.23,0-.13-.1-.23-.23-.23h0Z"/><path id="Path_2347_-_Outline" class="cls-1" d="m24.53,3.77h4.64c.21,0,.38.17.38.38,0,.21-.17.38-.38.38h-1.47c.19.25.33.54.39.85h1.09c.21,0,.38.17.38.38,0,.21-.17.38-.38.38h-1.08c-.18.93-1,1.6-1.94,1.6h-.69l2.57,2.57c.15.15.15.39,0,.54-.15.15-.39.15-.54,0h0l-3.21-3.21c-.15-.15-.15-.39,0-.54.07-.07.17-.11.27-.11h1.6c.53,0,1-.34,1.16-.85h-2.76c-.21,0-.38-.17-.38-.38,0-.21.17-.38.38-.38h2.77c-.16-.5-.63-.85-1.16-.85h-1.6c-.21,0-.38-.17-.38-.38,0-.21.17-.38.38-.38h0Zm4.64.46s.08-.04.08-.08c0-.04-.04-.08-.08-.08h-4.64s-.08.04-.08.08.04.08.08.08h1.6c.74,0,1.38.54,1.5,1.27l.03.17h-3.13s-.08.04-.08.08c0,.04.04.08.08.08h3.14l-.03.17c-.12.73-.76,1.27-1.5,1.27h-1.6s-.08.04-.08.08c0,.02,0,.04.02.06l3.2,3.21s.08.03.11,0c.03-.03.03-.08,0-.11l-3.07-3.07h1.41c.85,0,1.56-.63,1.67-1.47l.02-.13h1.35s.08-.04.08-.08c0-.04-.04-.08-.08-.08h-1.34l-.02-.13c-.05-.41-.25-.78-.56-1.05l-.3-.26h2.22Z"/></g></g></svg>