<svg xmlns="http://www.w3.org/2000/svg" width="18.54" height="18.54" viewBox="0 0 18.54 18.54">
  <path id="_10900188291655473166_2_" data-name="10900188291655473166 (2)" d="M8.139,8.139h.009M13.4,13.4h.009m.868-6.139L7.262,14.278M8.577,8.139A.438.438,0,1,1,8.139,7.7.438.438,0,0,1,8.577,8.139ZM13.839,13.4a.438.438,0,1,1-.438-.438A.439.439,0,0,1,13.839,13.4Zm5.7-2.631A8.77,8.77,0,1,1,10.77,2,8.77,8.77,0,0,1,19.54,10.77Z" transform="translate(-1.5 -1.5)" fill="none" stroke="#f7a600" stroke-linecap="round" stroke-linejoin="round" stroke-width="1"/>
</svg>
