<svg xmlns="http://www.w3.org/2000/svg" width="35.407" height="38.095" viewBox="0 0 35.407 38.095">
  <path id="_134954835116345278834481" data-name="134954835116345278834481" d="M38.8,36.767l-.5-2.526a7.744,7.744,0,0,0-5.321-5.888L27.208,26.58A7.851,7.851,0,0,0,29.5,22.587l.371-1.675a3.445,3.445,0,0,0,2.255-5.936l.487-1.941a7.812,7.812,0,0,0-.4-4.93l-.31-.724A6.091,6.091,0,0,0,26.668,3.7a7.492,7.492,0,0,0-6.69-1.753l-4.226.979a7.789,7.789,0,0,0-5.387,4.5l-.293.681a7.81,7.81,0,0,0-.4,4.932l.487,1.939a3.445,3.445,0,0,0,2.255,5.938l.37,1.681a7.837,7.837,0,0,0,2.294,3.989L9.316,28.356a7.744,7.744,0,0,0-5.321,5.888l-.5,2.524a2.583,2.583,0,0,0,2.531,3.09H36.268a2.583,2.583,0,0,0,2.531-3.09ZM21.806,33.409a.861.861,0,0,1-1.324,0l-.775-.933a8.671,8.671,0,0,1-1.867-4.008l1.02.635a4.245,4.245,0,0,0,4.564,0l1.026-.637a8.672,8.672,0,0,1-1.867,4.008Zm-7.1-1.287a6.93,6.93,0,0,1,1.184-2.489l.335-.445a10.388,10.388,0,0,0,2.1,4.319l-2.875-.319a.861.861,0,0,1-.741-1.065Zm12.745.7a.847.847,0,0,1-.612.364l-2.875.319a10.388,10.388,0,0,0,2.1-4.319l.335.445a6.93,6.93,0,0,1,1.184,2.489.851.851,0,0,1-.126.7Zm-15.8-24.04.292-.679a6.059,6.059,0,0,1,4.192-3.5l4.226-.981A5.77,5.77,0,0,1,25.7,5.159a.861.861,0,0,0,.609.252,4.369,4.369,0,0,1,4.014,2.647l.31.723a6.074,6.074,0,0,1,.309,3.835l-.379,1.511a3.409,3.409,0,0,0-.809-.105.872.872,0,0,0-.609.252l-.647.647-.2-.822a7.835,7.835,0,0,0-1.072-2.4L26.168,10.1a.861.861,0,0,0-1.194-.24,11.953,11.953,0,0,1-5.282,1.928l-2.295.25a4.343,4.343,0,0,0-3.434,2.49,4.008,4.008,0,0,0-.158.407l-.661-.661a.9.9,0,0,0-.609-.256,3.413,3.413,0,0,0-.809.105l-.378-1.51a6.069,6.069,0,0,1,.308-3.836Zm2.814,13.434-.535-2.42a.861.861,0,0,0-1.041-.653,1.549,1.549,0,0,1-.359.046,1.722,1.722,0,0,1-1.722-1.722,1.7,1.7,0,0,1,.782-1.444,1.73,1.73,0,0,1,.629-.233l1.424,1.424a.861.861,0,0,0,1.443-.4l.285-1.119a2.735,2.735,0,0,1,.153-.452,2.609,2.609,0,0,1,2.058-1.493l2.292-.25a13.688,13.688,0,0,0,5.313-1.754l.6.9a6.063,6.063,0,0,1,.834,1.867l.57,2.3a.861.861,0,0,0,1.444.4l1.424-1.424a1.731,1.731,0,0,1,.629.233,1.7,1.7,0,0,1,.782,1.444,1.722,1.722,0,0,1-1.722,1.722,1.549,1.549,0,0,1-.359-.046.861.861,0,0,0-1.041.653l-.534,2.415a6.011,6.011,0,0,1-2.688,3.807l-2.623,1.63a2.546,2.546,0,0,1-2.737,0l-2.615-1.627a6.007,6.007,0,0,1-2.69-3.806ZM5.358,37.82a.861.861,0,0,1-.179-.715l.5-2.525A6.028,6.028,0,0,1,9.822,30l4.736-1.458-.047.062a8.645,8.645,0,0,0-1.478,3.1A2.583,2.583,0,0,0,15.255,34.9l5.029.567v2.67H6.023a.855.855,0,0,1-.665-.315Zm31.574,0a.855.855,0,0,1-.665.315H22.006v-2.67l5.026-.558a2.583,2.583,0,0,0,2.221-3.194,8.644,8.644,0,0,0-1.477-3.11l-.047-.062L32.466,30a6.028,6.028,0,0,1,4.139,4.58l.5,2.525a.861.861,0,0,1-.177.715Z" transform="translate(-3.442 -1.762)" fill="#c91429"/>
</svg>
