<svg xmlns="http://www.w3.org/2000/svg" width="14.721" height="14.72" viewBox="0 0 14.721 14.72">
  <g id="_18826530651641180048" data-name="18826530651641180048" transform="translate(0 0)">
    <path id="Path_9033" data-name="Path 9033" d="M47.816,57.4a.736.736,0,0,1-.559-.257l-4.416-5.152a.736.736,0,0,1,1.118-.958l3.121,3.641V43.417a.736.736,0,0,1,1.472,0V56.664a.736.736,0,0,1-.736.736Z" transform="translate(-42.664 -42.68)" fill="#f7a600"/>
    <path id="Path_9034" data-name="Path 9034" d="M299.4,57.394a.736.736,0,0,1-.736-.736V43.411a.736.736,0,0,1,1.295-.479l4.416,5.152a.736.736,0,1,1-1.118.958L300.139,45.4V56.658a.736.736,0,0,1-.736.736Z" transform="translate(-289.835 -42.674)" fill="#f7a600"/>
  </g>
</svg>
