<?xml version="1.0" encoding="UTF-8"?><svg id="Layer_2" xmlns="http://www.w3.org/2000/svg" viewBox="0 0 27.34 30.93"><defs><style>.cls-1{fill:#fff;}.cls-2{fill:#bb0021;}.cls-3{fill:#393939;}</style></defs><g id="_1952839001536669570"><path id="_169585954816291291743835" class="cls-1" d="m24.48,30.68h-15.48c-1.44,0-2.61-1.17-2.61-2.61v-7.28c0-.28.23-.51.51-.51.28,0,.51.23.51.51v7.28c0,.88.72,1.59,1.59,1.59h15.48c.88,0,1.59-.72,1.59-1.59V2.86c0-.88-.72-1.59-1.59-1.59h-15.48c-.88,0-1.59.72-1.59,1.59v7.27c0,.28-.23.51-.51.51-.28,0-.51-.23-.51-.51V2.86c0-1.44,1.17-2.61,2.61-2.61h15.48c1.44,0,2.61,1.17,2.61,2.61v25.21c0,1.44-1.17,2.61-2.61,2.61h0Z"/><path class="cls-3" d="m24.48,30.93h-15.48c-1.58,0-2.86-1.28-2.86-2.86v-7.28c0-.42.34-.76.76-.76.42,0,.76.34.76.76h0v7.28c0,.74.6,1.34,1.34,1.34h15.48c.74,0,1.34-.6,1.34-1.34V2.86c0-.74-.6-1.34-1.34-1.34h-15.48c-.74,0-1.34.6-1.34,1.34v7.27c0,.42-.34.76-.76.76-.42,0-.76-.34-.76-.76V2.86c0-1.58,1.28-2.86,2.86-2.86h15.48c1.58,0,2.86,1.28,2.86,2.86v25.21c0,1.58-1.28,2.86-2.86,2.86Z"/><path id="_169585954816291291743835-2" class="cls-1" d="m15.48,15.46c0-.28-.23-.51-.51-.51H.76c-.28,0-.51.23-.51.51,0,.28.23.51.51.51h14.22c.28,0,.51-.23.51-.51Zm-.15,4.7l2.86-2.86c1.02-1.02,1.02-2.67,0-3.69,0,0,0,0,0,0l-2.86-2.86c-.2-.2-.52-.2-.72,0s-.2.52,0,.72c0,0,0,0,0,0l2.86,2.86c.62.62.62,1.63,0,2.25l-2.86,2.86c-.2.2-.2.52,0,.72.2.2.52.2.71,0h0Z"/><path class="cls-2" d="m14.97,10.36c.2,0,.39.08.53.22l2.86,2.86c1.12,1.12,1.12,2.93,0,4.04h0s-2.86,2.86-2.86,2.86c-.3.3-.78.3-1.07,0-.3-.3-.3-.78,0-1.07l2.86-2.86c.52-.53.52-1.37,0-1.9l-2.86-2.86c-.3-.3-.3-.78,0-1.07.14-.14.33-.22.53-.22h0Z"/><path class="cls-2" d="m.76,14.7h14.22c.42,0,.76.34.76.76,0,.42-.34.76-.76.76H.76C.34,16.22,0,15.88,0,15.46c0-.42.34-.76.76-.76h0Z"/></g></svg>