<svg xmlns="http://www.w3.org/2000/svg" width="37.3" height="40.176" viewBox="0 0 37.3 40.176">
  <g id="_2387603261561032646" data-name="2387603261561032646" transform="translate(0.5 0.5)">
    <path id="Path_9979" data-name="Path 9979" d="M17.77,0h-.009A17.755,17.755,0,0,0,3.382,28.179l-2.214,6.6L8,32.6A17.763,17.763,0,1,0,17.77,0Z" transform="translate(1.268 4.144)" fill="#2e2e2e"/>
    <path id="Path_9389" data-name="Path 9389" d="M17.77,0h-.009A17.755,17.755,0,0,0,3.382,28.179l-2.214,6.6L8,32.6A17.763,17.763,0,1,0,17.77,0Z" transform="translate(0.384 0.384)" fill="#4caf50"/>
    <path id="Path_9389_-_Outline" data-name="Path 9389 - Outline" d="M18.145-.5h.009a18.65,18.65,0,1,1-9.9,34.449L.159,36.536l2.626-7.829A18.45,18.45,0,0,1-.5,18.15,18.669,18.669,0,0,1,18.145-.5Zm.009,35.532a16.882,16.882,0,0,0,0-33.764h-.009A16.9,16.9,0,0,0,1.268,18.15a16.7,16.7,0,0,0,3.213,9.893l.269.369-1.8,5.378,5.57-1.781.354.234A16.76,16.76,0,0,0,18.154,35.032Z" transform="translate(0 0)" fill="#fff"/>
    <path id="Path_9390" data-name="Path 9390" d="M127.928,134.05c-.429,1.21-2.13,2.214-3.487,2.507-.928.2-2.141.355-6.223-1.337-5.221-2.163-8.583-7.468-8.845-7.813a10.146,10.146,0,0,1-2.11-5.359,5.672,5.672,0,0,1,1.817-4.324,2.581,2.581,0,0,1,1.817-.637c.22,0,.417.011.6.02.522.022.784.053,1.128.877.429,1.033,1.472,3.582,1.6,3.844a1.058,1.058,0,0,1,.076.962,3.07,3.07,0,0,1-.575.815c-.262.3-.511.533-.773.857-.24.282-.511.584-.209,1.106a15.768,15.768,0,0,0,2.883,3.582,13.062,13.062,0,0,0,4.166,2.569,1.123,1.123,0,0,0,1.253-.2,21.473,21.473,0,0,0,1.388-1.839.992.992,0,0,1,1.275-.386c.48.167,3.018,1.421,3.54,1.681s.866.386.993.606A4.424,4.424,0,0,1,127.928,134.05Z" transform="translate(-99.436 -108.578)" fill="#fafafa"/>
  </g>
</svg>
