<?xml version="1.0" encoding="UTF-8"?><svg id="Layer_2" xmlns="http://www.w3.org/2000/svg" viewBox="0 0 33.07 31.73"><defs><style>.cls-1{fill:#bb0021;}.cls-2{fill:#393939;}</style></defs><g id="_1952839001536669570"><path id="Path_6682" class="cls-2" d="m19.77,27.51h-1.3v-.03l-.08-1.51c-.1-1.36-.06-2.73.13-4.09l.09-.65c.13-1.01.65-1.93,1.44-2.56l4.72-3.76c.27-.23.67-.21.93.04l.03.03.03.04c.84,1.1.95,2.58.29,3.79l-.07.12-.14.24-2.9,2.31-.81-1.02,2.72-2.17.02-.03.04-.07c.31-.56.36-1.23.13-1.83l-4.17,3.32c-.53.42-.88,1.04-.96,1.71h0s-.09.66-.09.66c-.17,1.27-.21,2.55-.12,3.82h0s.08,1.58.08,1.58v.05Z"/><path id="Path_6683" class="cls-2" d="m25.49,27.49l-1.3-.06.07-1.45c0-.17.07-.34.17-.48.02-.03,2.23-2.98,3.34-4.72.85-1.33,1.65-2.69,2.38-4.06.52-2.3,1.03-4.59,1.55-6.88-.31.09-.61.22-.88.41-.52.42-.91.99-1.11,1.63v.03c-.09.2-.14.41-.17.62v.06s-1.62,4.81-1.62,4.81l-.31.28-.08.06s-.09.08-.13.11h-.02s-.64.55-.64.55c-.29.24-.56.46-.79.65l-.05.05-.85-.99.06-.05c.23-.19.51-.42.8-.66l.63-.52c.06-.05.11-.1.16-.14l.06-.05.03-.03,1.46-4.39c.04-.28.12-.55.21-.81.28-.88.82-1.66,1.54-2.24l.03-.02c.49-.35,2.04-1.16,2.76-.35l.02.02.02.02c.18.24.25.55.2.84v.03c-.55,2.44-1.1,4.88-1.65,7.33l-.02.08-.04.08c-.76,1.42-1.59,2.84-2.47,4.22-1.01,1.59-2.9,4.14-3.32,4.69l-.06,1.31Z"/><path id="Path_6685" class="cls-2" d="m14.61,27.51h-1.3v-.08l.08-1.53c.09-1.28.05-2.56-.12-3.83l-.09-.66c-.08-.68-.43-1.29-.96-1.72l-4.17-3.32c-.23.6-.18,1.26.12,1.83l.06.1,2.72,2.17-.81,1.02-2.89-2.31-.17-.27-.05-.09c-.66-1.21-.54-2.7.3-3.8l.02-.03.03-.03c.25-.26.66-.28.93-.05l4.72,3.76c.8.64,1.31,1.56,1.44,2.57l.09.66c.18,1.36.23,2.73.13,4.09l-.08,1.53Z"/><path id="Path_6686" class="cls-2" d="m8.89,27.51h-1.3v-.03l-.07-1.29c-.41-.55-2.3-3.1-3.32-4.7-.89-1.39-1.72-2.81-2.47-4.22l-.04-.08L.02,9.75c-.05-.3.02-.6.2-.84l.03-.04c.71-.81,2.28,0,2.77.35l.03.03c.72.58,1.26,1.36,1.54,2.24.1.26.17.53.21.81l1.47,4.39.03.03.21.17,1.49,1.24-.82,1.01-.06-.05-1.69-1.41-.28-.26-1.61-4.8v-.06c-.04-.21-.1-.42-.17-.62v-.03c-.21-.64-.6-1.2-1.12-1.63-.27-.18-.57-.32-.88-.41l1.55,6.88c.72,1.36,1.52,2.72,2.37,4.06,1.11,1.74,3.32,4.69,3.34,4.72.1.14.16.3.17.47l.08,1.52Z"/><path id="Ellipse_101" class="cls-2" d="m16.41,0c4.43,0,8.02,3.59,8.02,8.02s-3.59,8.03-8.03,8.03-8.02-3.59-8.02-8.02C8.39,3.59,11.98,0,16.41,0Zm0,14.75c3.71,0,6.72-3.01,6.72-6.72s-3.01-6.72-6.72-6.72-6.73,3.01-6.73,6.72c0,0,0,0,0,0,0,3.71,3.01,6.72,6.73,6.73h0Z"/><path id="Path_6693" class="cls-2" d="m15.3,31.73c-.36,0-.65-.29-.65-.65h0v-2.97h-7.73v2.97c0,.36-.29.65-.65.65-.36,0-.65-.29-.65-.65h0v-3.43c0-.46.38-.84.84-.84h8.64c.46,0,.84.38.84.84v3.43c0,.36-.29.65-.65.65,0,0,0,0,0,0Z"/><path id="Path_6695" class="cls-2" d="m17.77,31.73c-.36,0-.65-.29-.65-.65h0v-3.43c0-.46.38-.84.84-.84h8.64c.46,0,.84.38.84.84v3.43c0,.36-.29.65-.65.65s-.65-.29-.65-.65v-2.97h-7.72v2.97c0,.36-.29.65-.65.65,0,0,0,0,0,0Z"/><g id="Layer_26"><path id="Path_2347" class="cls-1" d="m19.12,6.28h-1.42c-.07-.52-.32-1-.71-1.34h2.13c.15,0,.27-.12.27-.27,0-.15-.12-.27-.27-.27h-5.42c-.15,0-.27.12-.27.27,0,.15.12.27.27.27h1.88c.78,0,1.45.57,1.58,1.34h-3.46c-.15,0-.27.12-.27.27,0,.15.12.27.27.27h3.46c-.13.77-.8,1.34-1.58,1.34h-1.88c-.15,0-.27.12-.27.27,0,.07.03.14.08.19l3.75,3.75c.11.1.28.09.38-.02.09-.1.09-.26,0-.36l-3.3-3.3h1.23c1.08,0,1.99-.8,2.13-1.88h1.42c.15,0,.27-.12.27-.27,0-.15-.12-.27-.27-.27h0,0Z"/><path id="Path_2347_-_Outline" class="cls-1" d="m13.7,4.3h5.42c.2,0,.37.16.37.37,0,.2-.16.37-.37.37h-1.89c.29.32.48.71.55,1.14h1.33c.2,0,.37.16.37.37s-.16.37-.37.37h-1.33c-.18,1.08-1.12,1.87-2.21,1.88h-.99l3.13,3.13c.14.15.13.38-.02.52-.14.13-.36.13-.5,0l-3.76-3.75c-.14-.14-.14-.38,0-.52.07-.07.16-.11.26-.11h1.88c.69,0,1.3-.47,1.46-1.14h-3.34c-.2,0-.37-.16-.37-.37s.16-.37.37-.37h3.34c-.17-.67-.77-1.14-1.46-1.14h-1.88c-.2,0-.37-.16-.37-.37s.16-.37.37-.37h0Zm5.42.54c.09,0,.17-.08.17-.17,0-.09-.08-.17-.17-.17h-5.42c-.09,0-.17.08-.17.17,0,.09.08.17.17.17h1.88c.83,0,1.55.6,1.68,1.42l.02.12h-3.58c-.09,0-.17.08-.17.17s.08.17.17.17h3.58l-.02.12c-.14.82-.85,1.43-1.68,1.42h-1.88c-.09,0-.17.07-.17.17,0,.04.02.09.05.12l3.75,3.75c.07.06.17.05.23,0,.06-.06.07-.16,0-.23l-3.46-3.47h1.47c1.03,0,1.9-.77,2.03-1.79v-.09h1.52c.09,0,.17-.08.17-.17s-.08-.17-.17-.17h-1.51v-.09c-.07-.49-.31-.95-.69-1.28l-.2-.17h2.4Z"/></g></g></svg>