<svg xmlns="http://www.w3.org/2000/svg" xmlns:xlink="http://www.w3.org/1999/xlink" width="85.438" height="85.438" viewBox="0 0 85.438 85.438">
  <defs>
    <filter id="Path_7270" x="0" y="0" width="85.438" height="85.438" filterUnits="userSpaceOnUse">
      <feOffset dy="7" input="SourceAlpha"/>
      <feGaussianBlur stdDeviation="4.5" result="blur"/>
      <feFlood flood-opacity="0.161"/>
      <feComposite operator="in" in2="blur"/>
      <feComposite in="SourceGraphic"/>
    </filter>
  </defs>
  <g id="Group_1470" data-name="Group 1470" transform="translate(-901.075 -2652.01)">
    <g transform="matrix(1, 0, 0, 1, 901.08, 2652.01)" filter="url(#Path_7270)">
      <g id="Path_7270-2" data-name="Path 7270" transform="translate(13.5 6.5)" fill="#44583f">
        <path d="M 29.21875 57.9375 C 25.34152030944824 57.9375 21.58053970336914 57.17824935913086 18.04026985168457 55.68083953857422 C 14.62051963806152 54.23440933227539 11.54916954040527 52.16360855102539 8.911529541015625 49.52597045898438 C 6.273890018463135 46.88832855224609 4.203090190887451 43.81697845458984 2.756659984588623 40.3972282409668 C 1.259250044822693 36.85696029663086 0.5 33.09598159790039 0.5 29.21875 C 0.5 25.34152030944824 1.259250044822693 21.58053970336914 2.756659984588623 18.04026985168457 C 4.203090190887451 14.62051963806152 6.273890018463135 11.54916954040527 8.911529541015625 8.911529541015625 C 11.54916954040527 6.273890018463135 14.62051963806152 4.203090190887451 18.04026985168457 2.756659984588623 C 21.58053970336914 1.259250044822693 25.34152030944824 0.5 29.21875 0.5 C 33.09598159790039 0.5 36.85696029663086 1.259250044822693 40.3972282409668 2.756659984588623 C 43.81697845458984 4.203090190887451 46.88832855224609 6.273890018463135 49.52597045898438 8.911529541015625 C 52.16360855102539 11.54916954040527 54.23440933227539 14.62051963806152 55.68083953857422 18.04026985168457 C 57.17824935913086 21.58053970336914 57.9375 25.34152030944824 57.9375 29.21875 C 57.9375 33.09598159790039 57.17824935913086 36.85696029663086 55.68083953857422 40.3972282409668 C 54.23440933227539 43.81697845458984 52.16360855102539 46.88832855224609 49.52597045898438 49.52597045898438 C 46.88832855224609 52.16360855102539 43.81697845458984 54.23440933227539 40.3972282409668 55.68083953857422 C 36.85696029663086 57.17824935913086 33.09598159790039 57.9375 29.21875 57.9375 Z" stroke="none"/>
        <path d="M 29.21875 1 C 25.40879821777344 1 21.71334838867188 1.745960235595703 18.23505020141602 3.217159271240234 C 14.87490081787109 4.638378143310547 11.85696029663086 6.673198699951172 9.265079498291016 9.265079498291016 C 6.673198699951172 11.85696029663086 4.638378143310547 14.87490081787109 3.217159271240234 18.23505020141602 C 1.745960235595703 21.71334838867188 1 25.40879821777344 1 29.21875 C 1 33.02870178222656 1.745960235595703 36.72415161132812 3.217159271240234 40.20244979858398 C 4.638378143310547 43.56259918212891 6.673198699951172 46.58053970336914 9.265079498291016 49.17242050170898 C 11.85696029663086 51.76430130004883 14.87490081787109 53.79911804199219 18.23505020141602 55.22034072875977 C 21.71334838867188 56.6915397644043 25.40879821777344 57.4375 29.21875 57.4375 C 33.02870178222656 57.4375 36.72415161132812 56.6915397644043 40.20244979858398 55.22034072875977 C 43.56259918212891 53.79911804199219 46.58053970336914 51.76430130004883 49.17242050170898 49.17242050170898 C 51.76430130004883 46.58053970336914 53.79911804199219 43.56259918212891 55.22034072875977 40.20244979858398 C 56.6915397644043 36.72415161132812 57.4375 33.02870178222656 57.4375 29.21875 C 57.4375 25.40879821777344 56.6915397644043 21.71334838867188 55.22034072875977 18.23505020141602 C 53.79911804199219 14.87490081787109 51.76430130004883 11.85696029663086 49.17242050170898 9.265079498291016 C 46.58053970336914 6.673198699951172 43.56259918212891 4.638378143310547 40.20244979858398 3.217159271240234 C 36.72415161132812 1.745960235595703 33.02870178222656 1 29.21875 1 M 29.21875 0 C 45.35581970214844 0 58.4375 13.08168029785156 58.4375 29.21875 C 58.4375 45.35581970214844 45.35581970214844 58.4375 29.21875 58.4375 C 13.08168029785156 58.4375 0 45.35581970214844 0 29.21875 C 0 13.08168029785156 13.08168029785156 0 29.21875 0 Z" stroke="none" fill="#fff"/>
      </g>
    </g>
    <g id="Icon" transform="translate(925.201 2706.543) rotate(-90)">
      <path id="Path_5852" data-name="Path 5852" d="M10.781,24.54l2.38-2.38a1.188,1.188,0,0,0,0-1.682l-2.38-2.38A1.189,1.189,0,0,0,9.1,19.781l1.537,1.539L9.1,22.859a1.189,1.189,0,0,0,1.682,1.682Z" transform="translate(4.321 9.522)" fill="#fff" fill-rule="evenodd"/>
      <path id="Path_5853" data-name="Path 5853" d="M14.911,14.859,13.373,13.32l1.537-1.539A1.189,1.189,0,0,0,13.229,10.1l-2.38,2.38a1.188,1.188,0,0,0,0,1.682l2.38,2.38a1.189,1.189,0,1,0,1.682-1.682Z" transform="translate(5.348 4.829)" fill="#fff" fill-rule="evenodd"/>
      <path id="Path_5854" data-name="Path 5854" d="M25.529,10.786a5.156,5.156,0,0,1-5.156,5.156h-3.93a1.19,1.19,0,0,0,0,2.38h3.93a7.537,7.537,0,0,0,7.536-7.536h0A7.535,7.535,0,0,0,20.373,3.25H12.44a1.19,1.19,0,0,0,0,2.38h7.933a5.157,5.157,0,0,1,5.156,5.156Z" transform="translate(5.787 1.016)" fill="#fff" fill-rule="evenodd"/>
      <path id="Path_5855" data-name="Path 5855" d="M13,11.25H9.786a7.536,7.536,0,1,0,0,15.073,1.19,1.19,0,1,0,0-2.38,5.156,5.156,0,0,1,0-10.313H13a1.19,1.19,0,1,0,0-2.38Z" transform="translate(0.508 5.709)" fill="#fff" fill-rule="evenodd"/>
    </g>
  </g>
</svg>
