<svg xmlns="http://www.w3.org/2000/svg" xmlns:xlink="http://www.w3.org/1999/xlink" width="85.438" height="85.438" viewBox="0 0 85.438 85.438">
  <defs>
    <filter id="Ellipse_65" x="0" y="0" width="85.438" height="85.438" filterUnits="userSpaceOnUse">
      <feOffset dy="7" input="SourceAlpha"/>
      <feGaussianBlur stdDeviation="4.5" result="blur"/>
      <feFlood flood-opacity="0.161"/>
      <feComposite operator="in" in2="blur"/>
      <feComposite in="SourceGraphic"/>
    </filter>
  </defs>
  <g id="Group_1474" data-name="Group 1474" transform="translate(-535.5 -2782.602)">
    <g transform="matrix(1, 0, 0, 1, 535.5, 2782.6)" filter="url(#Ellipse_65)">
      <g id="Ellipse_65-2" data-name="Ellipse 65" transform="translate(13.5 6.5)" fill="#c4a166" stroke="#fff" stroke-width="1">
        <circle cx="29.219" cy="29.219" r="29.219" stroke="none"/>
        <circle cx="29.219" cy="29.219" r="28.719" fill="none"/>
      </g>
    </g>
    <path id="noun-pension-4462563" d="M125.555,70.453A16.224,16.224,0,0,0,130.54,79.7a1.223,1.223,0,0,0,.33.353c.036.026.078.036.115.059a16.372,16.372,0,0,0,21.307,0c.038-.023.079-.032.115-.059a1.223,1.223,0,0,0,.33-.353,16.226,16.226,0,0,0,4.985-9.245,1.255,1.255,0,1,0-2.475-.414,13.746,13.746,0,0,1-3.43,7.028L147.842,71.5h.071a5.02,5.02,0,0,0,0-10.04h-7.376l-1.56-6.237a5.02,5.02,0,1,0-9.738,2.435l2.51,10.04a5,5,0,0,0,3.781,3.669l-4.071,5.7a13.745,13.745,0,0,1-3.43-7.028,1.255,1.255,0,0,0-2.475.414Zm24.393,8.313a13.829,13.829,0,0,1-16.619,0l5.189-7.265h6.24ZM134.184,67.094l-2.51-10.04a2.51,2.51,0,1,1,4.869-1.222l1.8,7.187a1.255,1.255,0,0,0,1.217.951h8.354a2.51,2.51,0,1,1,0,5.02H136.619a2.51,2.51,0,0,1-2.435-1.9Z" transform="translate(437.689 2751.759)" fill="#fafafa" stroke="#c4a166" stroke-width="0.5"/>
  </g>
</svg>
