<svg xmlns="http://www.w3.org/2000/svg" xmlns:xlink="http://www.w3.org/1999/xlink" width="85.438" height="85.438" viewBox="0 0 85.438 85.438">
  <defs>
    <filter id="Ellipse_64" x="0" y="0" width="85.438" height="85.438" filterUnits="userSpaceOnUse">
      <feOffset dy="7" input="SourceAlpha"/>
      <feGaussianBlur stdDeviation="4.5" result="blur"/>
      <feFlood flood-opacity="0.161"/>
      <feComposite operator="in" in2="blur"/>
      <feComposite in="SourceGraphic"/>
    </filter>
  </defs>
  <g id="Group_1476" data-name="Group 1476" transform="translate(-901.075 -2782.602)">
    <g transform="matrix(1, 0, 0, 1, 901.08, 2782.6)" filter="url(#Ellipse_64)">
      <g id="Ellipse_64-2" data-name="Ellipse 64" transform="translate(13.5 6.5)" fill="#99a26f" stroke="#fff" stroke-width="1">
        <circle cx="29.219" cy="29.219" r="29.219" stroke="none"/>
        <circle cx="29.219" cy="29.219" r="28.719" fill="none"/>
      </g>
    </g>
    <g id="noun-withdraw-1118536" transform="translate(667.29 2594.797)">
      <path id="Path_7483" data-name="Path 7483" d="M291.6,212.8h-30.2a1.006,1.006,0,0,0-1.007,1.007V227.9a1.007,1.007,0,0,0,1.007,1.007h7.164l.9,7.171a1.006,1.006,0,0,0,1,.881H283.55a1.006,1.006,0,0,0,1.007-1.007v-7.046H291.6a1.006,1.006,0,0,0,1.007-1.007V213.806A1.006,1.006,0,0,0,291.6,212.8Zm-13.086,8.111a3.506,3.506,0,0,0-1.007,2.458v3.523h-3.02V214.813h4.026Zm-16.105,5.981V214.813h12.079v12.079Zm20.132,8.053H271.353l-.755-6.04h7.919a1.006,1.006,0,0,0,1.007-1.007v-4.53a1.51,1.51,0,1,1,3.019,0Zm8.052-8.053h-6.04v-3.523a3.43,3.43,0,0,0-4.027-3.472v-5.084H290.6Z" fill="#fff"/>
      <g id="Layer_26" data-name="Layer 26" transform="translate(266.907 216.485)">
        <path id="Path_2347" data-name="Path 2347" d="M16.015,4.057H14.461a2.351,2.351,0,0,0-.78-1.47h2.335a.294.294,0,1,0,0-.588H10.072a.294.294,0,1,0,0,.588H12.13a1.763,1.763,0,0,1,1.737,1.47H10.072a.294.294,0,1,0,0,.588h3.794a1.763,1.763,0,0,1-1.737,1.47H10.072a.294.294,0,0,0-.207.5l4.115,4.115a.294.294,0,0,0,.416-.414L10.782,6.7H12.13a2.351,2.351,0,0,0,2.331-2.057h1.555a.294.294,0,1,0,0-.588Z" transform="translate(-9.779 -2)" fill="#fff" stroke="#fff" stroke-width="0.5"/>
      </g>
    </g>
  </g>
</svg>
