<svg xmlns="http://www.w3.org/2000/svg" width="44" height="44" viewBox="0 0 44 44">
  <g id="Group_1981" data-name="Group 1981" transform="translate(-727 -1592)">
    <g id="Ellipse_124" data-name="Ellipse 124" transform="translate(727 1592)" fill="#c3a165" stroke="#c4a166" stroke-width="2">
      <circle cx="22" cy="22" r="22" stroke="none"/>
      <circle cx="22" cy="22" r="21" fill="none"/>
    </g>
    <g id="Target" transform="translate(738.839 1604.687)">
      <path id="Path_7097" data-name="Path 7097" d="M21.44,8.1l-.3.3a2.81,2.81,0,0,1-1.588.8,7.821,7.821,0,0,1,.565,2.943A7.974,7.974,0,1,1,12.14,4.174a7.821,7.821,0,0,1,2.943.565,2.81,2.81,0,0,1,.8-1.588l.3-.3A10.16,10.16,0,1,0,21.44,8.1Z" transform="translate(-1.968 -1.999)" fill="#fff"/>
      <path id="Path_7098" data-name="Path 7098" d="M19.147,11.537l-1.761,1.754a2.935,2.935,0,0,1,.043.507A3.624,3.624,0,1,1,13.8,10.175a2.935,2.935,0,0,1,.507.043l1.761-1.761A5.9,5.9,0,0,0,13.8,8a5.792,5.792,0,1,0,5.342,3.537Z" transform="translate(-3.632 -3.65)" fill="#fff"/>
      <path id="Path_7099" data-name="Path 7099" d="M25.609,4.924a1.092,1.092,0,0,0-.586-.8l-.784-.391-.391-.784a1.087,1.087,0,0,0-1.74-.283L20.5,4.271A1.44,1.44,0,0,0,20.074,5.3v1.15a1.421,1.421,0,0,0,.054.37l-4.916,4.916a.725.725,0,1,0,1.025,1.025l4.916-4.916a1.421,1.421,0,0,0,.37.054h1.15A1.44,1.44,0,0,0,23.7,7.471l1.606-1.6a1.087,1.087,0,0,0,.3-.942Z" transform="translate(-5.553 -2.096)" fill="#fff"/>
    </g>
  </g>
</svg>
