<svg xmlns="http://www.w3.org/2000/svg" xmlns:xlink="http://www.w3.org/1999/xlink" width="413.709" height="402.688" viewBox="0 0 413.709 402.688">
  <defs>
    <clipPath id="clip-path">
      <rect id="Rectangle_1185" data-name="Rectangle 1185" width="341.086" height="325.499" fill="none"/>
    </clipPath>
  </defs>
  <g id="Group_1579" data-name="Group 1579" transform="matrix(0.966, 0.259, -0.259, 0.966, 84.245, 0)">
    <g id="Group_1578" data-name="Group 1578" clip-path="url(#clip-path)">
      <path id="Path_6816" data-name="Path 6816" d="M341.127,227.165c.029,8.449-.144,17.124-.454,25.754a64.993,64.993,0,0,1-3.239,10.088c-12.127,29.586-40.466,43.579-58.581,52.52-37.815,18.672-92.01,26.425-146.228,20.034l-84.28-22.784A225.2,225.2,0,0,1,12.9,292.858q-6.363-4.4-12.351-9.272a234.484,234.484,0,0,0,36.679-25.894c26.947-23.54,87.823-42.071,118.936-44.15s39.244-1.929,70.183-36.037c26.887-29.64,80.3-26.63,93.842-25.333,1.826,7.513,3.723,14.439,5.6,20.88q1.369,4.71,2.724,9.1c.235.772.47,1.528.7,2.285,5.24,16.9,9.9,30.341,11.912,42.733" transform="translate(-0.044 -12.266)" fill="#fff"/>
      <path id="Path_6817" data-name="Path 6817" d="M.5,284.043a.5.5,0,0,1-.25-.933,231.2,231.2,0,0,0,36.6-25.837c27.472-24,88.967-42.251,119.233-44.273l1.935-.129c29.759-1.974,37.758-2.5,67.91-35.745,11.522-12.7,29.091-20.921,52.221-24.427a180.213,180.213,0,0,1,42.037-1.069.5.5,0,0,1,.449.545.492.492,0,0,1-.545.45c-15.235-1.46-67-3.959-93.423,25.171-30.424,33.54-39.271,34.127-68.584,36.071l-1.935.129c-30.128,2.013-91.324,20.165-118.641,44.029A232.205,232.205,0,0,1,.749,283.976a.493.493,0,0,1-.249.067" transform="translate(0 -12.223)"/>
      <path id="Path_6818" data-name="Path 6818" d="M80.373,291.212a.5.5,0,0,1-.429-.755c.066-.11,6.606-11.158,7.568-17.969.985-6.979,28.575-4.858,33.686-4.4,1.7-15.13,24.186-21.541,25.153-21.809.16-.051,17.855-5.8,20.734-14.668,3.1-9.546,20.169-5.739,20.894-5.573a.5.5,0,1,1-.224.974c-.169-.039-16.9-3.773-19.72,4.907-3.037,9.358-20.651,15.078-21.4,15.317-.251.07-23.291,6.641-24.491,21.434a.5.5,0,0,1-.545.458c-8.95-.839-32.344-1.844-33.1,3.5-.991,7.01-7.425,17.881-7.7,18.34a.5.5,0,0,1-.43.244" transform="translate(-6.471 -18.239)"/>
      <path id="Path_6819" data-name="Path 6819" d="M137.39,326.171a.5.5,0,0,1-.429-.755c.066-.11,6.6-11.158,7.567-17.969.987-6.979,28.576-4.858,33.686-4.4,1.7-15.13,24.186-21.541,25.153-21.809,0,0,1.809-.582,4.331-1.644a.5.5,0,1,1,.389.921c-2.568,1.082-4.416,1.674-4.434,1.681-.251.07-23.291,6.641-24.491,21.434a.5.5,0,0,1-.545.458c-8.95-.839-32.344-1.844-33.1,3.5-.991,7.01-7.424,17.881-7.7,18.34a.5.5,0,0,1-.43.244" transform="translate(-11.09 -22.647)"/>
      <path id="Path_6820" data-name="Path 6820" d="M162.23,93.306s-19.278,28.784-21.439,41.171c-2.346,13.443,31.825,26.281,43.646,31.407a3.884,3.884,0,0,1,1.93,5.287c-1.165,2.349-.825,4.984.19,5.021,3.224.12,14.092-8.572,13.835-11.24-.4-4.193-35.536-22.835-36.166-28.812s27.524-32.023,23.056-45.446-25.053,2.612-25.053,2.612" transform="translate(-11.396 -6.913)" fill="#ab1b2d"/>
      <path id="Path_6821" data-name="Path 6821" d="M162.23,93.306s-19.278,28.784-21.439,41.171c-2.346,13.443,31.825,26.281,43.646,31.407a3.884,3.884,0,0,1,1.93,5.287c-1.165,2.349-.825,4.984.19,5.021,3.224.12,14.092-8.572,13.835-11.24-.4-4.193-35.536-22.835-36.166-28.812s27.524-32.023,23.056-45.446S162.23,93.306,162.23,93.306Z" transform="translate(-11.396 -6.913)" fill="none" stroke="#000" stroke-width="1"/>
      <path id="Path_6822" data-name="Path 6822" d="M203.722,169.377a79.741,79.741,0,0,1,5.519,7.776,4.341,4.341,0,0,1-1.075,5.658,170.177,170.177,0,0,1-27.237,16.761,3.058,3.058,0,0,1-3.652-.977c-4.517-5.088,3.211-12.22,11.634-22.711a2.838,2.838,0,0,1,2.879-.983l1,.243a6.873,6.873,0,0,0,6.589-2.407l2.44-3.319a1.2,1.2,0,0,1,1.9-.04" transform="translate(-14.253 -13.685)" fill="#fff"/>
      <path id="Path_6823" data-name="Path 6823" d="M179.726,200.279a3.8,3.8,0,0,1-2.868-1.4c-4.048-4.559.8-10.355,7.513-18.376,1.327-1.588,2.7-3.228,4.105-4.977a3.351,3.351,0,0,1,3.386-1.158l1,.244a6.409,6.409,0,0,0,6.068-2.217l2.44-3.319a1.689,1.689,0,0,1,1.337-.695,1.665,1.665,0,0,1,1.356.64,80.729,80.729,0,0,1,5.554,7.827,4.839,4.839,0,0,1-1.2,6.312A169.575,169.575,0,0,1,181.1,199.981a3.25,3.25,0,0,1-1.372.3m11.358-25a2.351,2.351,0,0,0-1.83.877c-1.411,1.757-2.786,3.4-4.117,4.991-6.391,7.64-11.008,13.159-7.532,17.073a2.547,2.547,0,0,0,3.064.859,168.2,168.2,0,0,0,27.144-16.7,3.839,3.839,0,0,0,.954-5.007,79.647,79.647,0,0,0-5.481-7.722.716.716,0,0,0-.556-.261.694.694,0,0,0-.55.287l-2.44,3.319a7.4,7.4,0,0,1-7.108,2.6l-1-.244a2.275,2.275,0,0,0-.543-.065" transform="translate(-14.208 -13.641)"/>
      <path id="Path_6824" data-name="Path 6824" d="M209,177.389s.186.3.274.448a4.343,4.343,0,0,1-1.075,5.66,170.19,170.19,0,0,1-27.236,16.76,3.058,3.058,0,0,1-3.652-.978,8.949,8.949,0,0,1-.926-1.481l.747-.393a245.825,245.825,0,0,0,30.555-19.055Z" transform="translate(-14.289 -14.371)" fill="#fff"/>
      <path id="Path_6825" data-name="Path 6825" d="M179.763,200.965a3.807,3.807,0,0,1-2.868-1.4,9.341,9.341,0,0,1-1-1.589.5.5,0,0,1,.214-.666l.747-.393A246.061,246.061,0,0,0,207.35,177.9l1.314-.96a.5.5,0,0,1,.72.142l.277.452a4.841,4.841,0,0,1-1.2,6.313,169.506,169.506,0,0,1-27.329,16.817,3.223,3.223,0,0,1-1.372.3m-2.742-3a6.153,6.153,0,0,0,.621.942,2.548,2.548,0,0,0,3.065.858,168.327,168.327,0,0,0,27.143-16.7,3.841,3.841,0,0,0,.965-4.991l-.877.641A247.06,247.06,0,0,1,177.323,197.8Z" transform="translate(-14.245 -14.327)"/>
      <path id="Path_6826" data-name="Path 6826" d="M169.068,220.508l-18.237,6.763Z" transform="translate(-12.219 -17.864)"/>
      <path id="Path_6827" data-name="Path 6827" d="M150.787,227.726a.5.5,0,0,1-.174-.969L168.851,220a.5.5,0,1,1,.347.936l-18.237,6.762a.5.5,0,0,1-.174.031" transform="translate(-12.175 -17.82)"/>
      <path id="Path_6828" data-name="Path 6828" d="M191.069,197.579l3.215,2.116-12.068,18.028A1.924,1.924,0,1,1,179,215.607Z" transform="translate(-14.476 -16.006)" fill="#fff"/>
      <path id="Path_6829" data-name="Path 6829" d="M184.213,199.8l12.866-6.941,2.4,4.478-12.866,6.941Z" transform="translate(-14.923 -15.624)" fill="#fff"/>
      <path id="Path_6830" data-name="Path 6830" d="M186.573,204.729a.51.51,0,0,1-.143-.02.5.5,0,0,1-.3-.243l-2.4-4.478a.5.5,0,0,1,.2-.675l12.866-6.941a.5.5,0,0,1,.677.2l2.4,4.478a.5.5,0,0,1-.2.676l-12.866,6.94a.5.5,0,0,1-.237.06m-1.728-4.774,1.932,3.6,11.985-6.467-1.932-3.6Z" transform="translate(-14.879 -15.58)"/>
      <path id="Path_6831" data-name="Path 6831" d="M75.649,179.469A42.684,42.684,0,1,0,127.068,210.9a42.7,42.7,0,0,0-51.419-31.435m18.5,76.547a36.068,36.068,0,1,1,26.5-43.554,35.982,35.982,0,0,1-26.5,43.554" transform="translate(-3.49 -14.441)" fill="#fff"/>
      <path id="Path_6832" data-name="Path 6832" d="M85.558,264.119a43.144,43.144,0,0,1-41.8-33.036,43.245,43.245,0,0,1,31.727-52.145l.119.485-.119-.485a43.08,43.08,0,0,1,52.023,31.8,43.186,43.186,0,0,1-41.953,53.378m.153-85.413a42.22,42.22,0,0,0-21.951,78.25,41.73,41.73,0,0,0,31.787,4.96,42.227,42.227,0,0,0,11.964-77.047,41.751,41.751,0,0,0-21.8-6.163M85.57,257.5a36.531,36.531,0,0,1-35.393-27.973,36.618,36.618,0,0,1,26.866-44.156A36.481,36.481,0,0,1,121.1,212.3,36.568,36.568,0,0,1,85.57,257.5m.13-72.173A35.6,35.6,0,0,0,67.191,251.3a35.184,35.184,0,0,0,26.8,4.182l.119.486-.119-.486a35.6,35.6,0,0,0,10.088-64.963,35.2,35.2,0,0,0-18.381-5.2" transform="translate(-3.447 -14.396)"/>
      <path id="Path_6833" data-name="Path 6833" d="M96.064,264.582A45.1,45.1,0,1,1,129.2,210.123a45.042,45.042,0,0,1-33.134,54.459M76.005,181.6a40.27,40.27,0,1,0,48.51,29.657A40.326,40.326,0,0,0,76.005,181.6" transform="translate(-3.278 -14.229)" fill="#ab1b2d"/>
      <path id="Path_6834" data-name="Path 6834" d="M96.064,264.582A45.1,45.1,0,1,1,129.2,210.123,45.042,45.042,0,0,1,96.064,264.582ZM76.005,181.6a40.27,40.27,0,1,0,48.51,29.657A40.326,40.326,0,0,0,76.005,181.6Z" transform="translate(-3.278 -14.229)" fill="none" stroke="#000" stroke-width="1"/>
      <path id="Path_6835" data-name="Path 6835" d="M230.281,141.908A42.684,42.684,0,1,0,281.7,173.343a42.7,42.7,0,0,0-51.419-31.435m18.5,76.547a36.068,36.068,0,1,1,26.5-43.554,35.982,35.982,0,0,1-26.5,43.554" transform="translate(-16.017 -11.398)" fill="#fff"/>
      <path id="Path_6836" data-name="Path 6836" d="M240.19,226.558a43.147,43.147,0,0,1-41.8-33.036,43.245,43.245,0,0,1,31.727-52.145l.119.485-.119-.485a43.08,43.08,0,0,1,52.023,31.8,43.186,43.186,0,0,1-41.953,53.378m.153-85.413a42.22,42.22,0,0,0-21.951,78.25,41.731,41.731,0,0,0,31.787,4.96,42.227,42.227,0,0,0,11.964-77.047,41.75,41.75,0,0,0-21.8-6.163m-.142,78.792a36.535,36.535,0,0,1-35.394-27.973,36.619,36.619,0,0,1,26.867-44.156,36.483,36.483,0,0,1,44.053,26.931,36.568,36.568,0,0,1-35.525,45.2m.13-72.173a35.6,35.6,0,0,0-18.508,65.978,35.185,35.185,0,0,0,26.8,4.181,35.6,35.6,0,0,0,10.087-64.963,35.2,35.2,0,0,0-18.38-5.2" transform="translate(-15.974 -11.353)"/>
      <path id="Path_6837" data-name="Path 6837" d="M250.7,227.021a45.1,45.1,0,1,1,33.134-54.459A45.041,45.041,0,0,1,250.7,227.021m-20.059-82.978a40.27,40.27,0,1,0,48.51,29.657,40.326,40.326,0,0,0-48.51-29.657" transform="translate(-15.805 -11.186)" fill="#ab1b2d"/>
      <path id="Path_6838" data-name="Path 6838" d="M250.7,227.021a45.1,45.1,0,1,1,33.134-54.459A45.041,45.041,0,0,1,250.7,227.021Zm-20.059-82.978a40.27,40.27,0,1,0,48.51,29.657A40.326,40.326,0,0,0,230.637,144.043Z" transform="translate(-15.805 -11.186)" fill="none" stroke="#000" stroke-width="1"/>
      <path id="Path_6839" data-name="Path 6839" d="M274.952,198.63a.491.491,0,0,1-.168-.029l-17.756-6.323a.5.5,0,1,1,.335-.942l17.757,6.324a.5.5,0,0,1-.168.97" transform="translate(-20.795 -15.498)"/>
      <path id="Path_6840" data-name="Path 6840" d="M251.448,184.45a8.354,8.354,0,1,1-10.086-6.166,8.374,8.374,0,0,1,10.086,6.166" transform="translate(-19.036 -14.424)" fill="#fff"/>
      <path id="Path_6841" data-name="Path 6841" d="M243.27,195.255a8.863,8.863,0,0,1-8.589-6.787,8.883,8.883,0,0,1,6.518-10.713,8.85,8.85,0,0,1,10.69,6.534,8.871,8.871,0,0,1-8.619,10.965M243.3,178.5a7.871,7.871,0,0,0-7.647,9.731A7.853,7.853,0,1,0,243.3,178.5" transform="translate(-18.992 -14.38)"/>
      <path id="Path_6842" data-name="Path 6842" d="M70.707,251.9a.492.492,0,0,1-.276-.084.5.5,0,0,1-.14-.692L81.16,234.735a.5.5,0,1,1,.833.552l-10.87,16.385a.5.5,0,0,1-.416.223" transform="translate(-5.688 -18.998)"/>
      <path id="Path_6843" data-name="Path 6843" d="M80,214.292a.5.5,0,0,1-.378-.174L66.283,198.667a.5.5,0,1,1,.756-.652l13.334,15.451a.5.5,0,0,1-.051.7.494.494,0,0,1-.326.121" transform="translate(-5.36 -16.027)"/>
      <path id="Path_6844" data-name="Path 6844" d="M170.88,207.951l-5.951,2.8,2.61,5.55,66.98-31.662a3.81,3.81,0,0,0,1.037-6.161l-51.729-50.749,1.1-12.994-6.09-.607L177.721,127.3l-75.54,4.77.385,6.123,74.631-4.714-5.369,63.288-67.413-54.526-3.843,4.775L171.2,204.142Zm56.094-26.388-49.7,23.378,5.879-69.305,44.246,43.4a1.563,1.563,0,0,1-.427,2.53" transform="translate(-8.148 -9.246)" fill="#fff"/>
      <path id="Path_6845" data-name="Path 6845" d="M167.495,216.756a.5.5,0,0,1-.452-.288l-2.611-5.549a.5.5,0,0,1,.24-.664l5.691-2.678.276-3.258-70.425-56.962a.5.5,0,0,1-.075-.7l3.844-4.775a.5.5,0,0,1,.335-.184.51.51,0,0,1,.368.108l66.681,53.934,5.24-61.772-74.052,4.676a.487.487,0,0,1-.362-.123.5.5,0,0,1-.169-.344l-.385-6.123a.5.5,0,0,1,.468-.53l75.11-4.743,1.081-12.74a.5.5,0,0,1,.547-.455l6.091.607a.5.5,0,0,1,.448.539l-1.083,12.76,51.562,50.585a4.313,4.313,0,0,1,1.23,3.794,4.25,4.25,0,0,1-2.4,3.175l-66.98,31.662a.5.5,0,0,1-.214.049m-1.946-5.81,2.185,4.645,66.527-31.449a3.31,3.31,0,0,0,.9-5.352l-51.729-50.749a.5.5,0,0,1-.147-.4l1.06-12.5-5.1-.508-1.074,12.665a.5.5,0,0,1-.466.456l-75.042,4.739.323,5.126,74.132-4.681a.493.493,0,0,1,.389.149.5.5,0,0,1,.141.391l-5.369,63.288a.5.5,0,0,1-.812.346L104.446,142.9l-3.216,4,70.243,56.816a.5.5,0,0,1,.184.431l-.323,3.809a.5.5,0,0,1-.285.41Zm5.287-3.039h0Zm6.4-2.51a.5.5,0,0,1-.5-.542l5.878-69.306a.5.5,0,0,1,.848-.314l44.246,43.4a2.063,2.063,0,0,1-.565,3.339l-49.7,23.378a.5.5,0,0,1-.213.048m6.287-68.705L177.8,204.077l48.914-23.01a1.064,1.064,0,0,0,.29-1.72Zm43.41,44.827h0Z" transform="translate(-8.103 -9.202)"/>
      <path id="Path_6846" data-name="Path 6846" d="M178.69,110.547l-8.751.72a2.179,2.179,0,0,1-2.348-1.99,4.3,4.3,0,0,1,3.713-4.631l12.412-1.652a74.506,74.506,0,0,0,9.441-1.884l4.844-1.3a5.4,5.4,0,0,1,6.647,3.959,3.137,3.137,0,0,1-1.594,3.519l-12.619,6.59-6.09-.607a6.194,6.194,0,0,0-5.655-2.728" transform="translate(-13.576 -8.071)" fill="#fff"/>
      <path id="Path_6847" data-name="Path 6847" d="M190.392,114.336l-.05,0-6.091-.607a.5.5,0,0,1-.366-.219,5.694,5.694,0,0,0-5.2-2.509l-8.751.721a2.68,2.68,0,0,1-2.887-2.445,4.793,4.793,0,0,1,4.144-5.169l12.412-1.651a74.333,74.333,0,0,0,9.378-1.872l4.843-1.3a5.9,5.9,0,0,1,7.263,4.324,3.629,3.629,0,0,1-1.849,4.079l-12.619,6.59a.5.5,0,0,1-.231.057m-5.813-1.581,5.713.569,12.486-6.521a2.632,2.632,0,0,0,1.34-2.958,4.9,4.9,0,0,0-6.032-3.593l-4.844,1.3a75.281,75.281,0,0,1-9.5,1.9L171.326,105.1a3.8,3.8,0,0,0-3.28,4.093,1.681,1.681,0,0,0,1.809,1.535l8.752-.72a6.7,6.7,0,0,1,5.973,2.751" transform="translate(-13.532 -8.027)"/>
      <path id="Path_6848" data-name="Path 6848" d="M89.7,219.233l-5.039-2.089s10.863-18.157,9.241-40.2l2.388-56.589,6.207-1.839-2.745,67.37C99.425,200.79,89.7,219.233,89.7,219.233" transform="translate(-6.858 -9.601)" fill="#fff"/>
      <path id="Path_6849" data-name="Path 6849" d="M89.652,219.689a.5.5,0,0,1-.191-.039l-5.038-2.089a.5.5,0,0,1-.238-.718c.108-.181,10.763-18.285,9.172-39.91,0-.019,0-.039,0-.058l2.389-56.589a.5.5,0,0,1,.357-.458l6.207-1.839a.5.5,0,0,1,.641.5L100.2,185.86c-.323,14.843-10.012,33.377-10.111,33.562a.5.5,0,0,1-.442.266m-4.325-2.834,4.09,1.7c1.41-2.783,9.5-19.316,9.788-32.722l2.717-66.682-5.194,1.538-2.373,56.2c1.457,19.916-7.318,36.874-9.028,39.966" transform="translate(-6.814 -9.557)"/>
      <path id="Path_6850" data-name="Path 6850" d="M93.023,223.351A4.543,4.543,0,1,1,87.54,220a4.554,4.554,0,0,1,5.484,3.352" transform="translate(-6.81 -17.812)" fill="#fff"/>
      <path id="Path_6851" data-name="Path 6851" d="M88.555,229.435a5.048,5.048,0,0,1-4.89-3.865,5.058,5.058,0,0,1,3.712-6.1,5.041,5.041,0,0,1,6.087,3.721,5.053,5.053,0,0,1-4.909,6.245m.017-9.11a4.057,4.057,0,0,0-2.108,7.518,4,4,0,0,0,3.053.476,4.057,4.057,0,0,0,1.149-7.4,4.011,4.011,0,0,0-2.093-.592" transform="translate(-6.766 -17.768)"/>
      <path id="Path_6852" data-name="Path 6852" d="M190.773,212.25a11.756,11.756,0,1,1-15-7.175,11.789,11.789,0,0,1,15,7.175" transform="translate(-13.605 -16.559)" fill="#ab1b2d"/>
      <path id="Path_6853" data-name="Path 6853" d="M190.773,212.25a11.756,11.756,0,1,1-15-7.175A11.789,11.789,0,0,1,190.773,212.25Z" transform="translate(-13.605 -16.559)" fill="none" stroke="#000" stroke-width="1"/>
      <path id="Path_6854" data-name="Path 6854" d="M191.338,198.57a.5.5,0,0,1-.185-.964l37.47-14.89a.5.5,0,1,1,.369.928l-37.469,14.89a.485.485,0,0,1-.185.036" transform="translate(-15.46 -14.799)"/>
      <path id="Path_6855" data-name="Path 6855" d="M186.278,224.923a.5.5,0,0,1-.236-.94l56.571-30.29c4.069-2.249,5.647-6.013,4.216-10.066a7.84,7.84,0,0,0-9.645-4.918.5.5,0,0,1-.288-.958,8.838,8.838,0,0,1,10.875,5.543c1.583,4.485-.21,8.8-4.682,11.276l-56.577,30.293a.5.5,0,0,1-.235.06" transform="translate(-15.05 -14.37)"/>
      <path id="Path_6856" data-name="Path 6856" d="M153.941,229.088l-13.991,4.219-1.462-4.87,13.992-4.219Z" transform="translate(-11.219 -18.164)" fill="#fff"/>
      <path id="Path_6857" data-name="Path 6857" d="M139.905,233.763a.494.494,0,0,1-.235-.06.505.505,0,0,1-.244-.3l-1.461-4.869a.5.5,0,0,1,.335-.622l13.991-4.22a.5.5,0,0,1,.623.335l1.462,4.87a.5.5,0,0,1-.335.621l-13.991,4.22a.518.518,0,0,1-.145.021m-.839-5.035,1.174,3.912,13.035-3.931L152.1,224.8Z" transform="translate(-11.175 -18.12)"/>
      <path id="Path_6858" data-name="Path 6858" d="M69.984,126.589l34.631-8.412,1.317,5.446L72.5,131.743c-.057.014-.113.032-.169.049q-1.294-.431-2.579-.9a2.249,2.249,0,0,1,.175-4.286l.054-.014" transform="translate(-5.531 -9.574)" fill="#fff"/>
      <path id="Path_6859" data-name="Path 6859" d="M72.29,132.247a.487.487,0,0,1-.158-.026c-.833-.277-1.706-.583-2.592-.907a2.727,2.727,0,0,1-1.809-2.761,2.649,2.649,0,0,1,2.034-2.479l.057-.015,34.631-8.411a.5.5,0,0,1,.6.368l1.317,5.446a.5.5,0,0,1-.368.6l-33.58,8.164a.528.528,0,0,1-.136.018m-2.232-5.216-.051.013a1.651,1.651,0,0,0-1.277,1.564,1.75,1.75,0,0,0,1.154,1.768c.825.3,1.638.587,2.416.848l.043-.011,32.942-8-1.082-4.475Z" transform="translate(-5.487 -9.53)"/>
      <path id="Path_6860" data-name="Path 6860" d="M152.424,192.075a8.263,8.263,0,0,1-1.249-3.434c-1.218-8.532-.555-15.864.984-19.978a55.708,55.708,0,0,0,2.488-32.078,6.064,6.064,0,0,1,2.006-6.062c7.228-6.013,25.276-22.078,32.234-37.936,8.793-20.039-18.6-30.918-18.6-30.918s-34.25,59.494-35.837,66.66,6.994,53.6,6.272,60.45a41.4,41.4,0,0,1-4.368,14.034s5.153-2.647,9.081-4.117c4.513-1.689,7.775-5.646,6.986-6.62" transform="translate(-10.876 -4.996)" fill="#fff"/>
      <path id="Path_6861" data-name="Path 6861" d="M136.313,203.269a.5.5,0,0,1-.437-.743,41.271,41.271,0,0,0,4.307-13.845c.316-2.995-1.225-14.016-2.857-25.686-2.116-15.124-4.3-30.763-3.406-34.82,1.585-7.158,34.491-64.37,35.892-66.8a.5.5,0,0,1,.617-.215c.6.239,14.817,5.991,19.323,16.965a18.1,18.1,0,0,1-.451,14.619c-6.978,15.9-24.963,31.955-32.372,38.119a5.533,5.533,0,0,0-1.839,5.562,56.144,56.144,0,0,1-2.506,32.369c-1.32,3.529-2.266,10.566-.959,19.732a7.783,7.783,0,0,0,1.143,3.19h0a1.245,1.245,0,0,1,.161,1.169c-.5,1.832-3.646,4.843-7.359,6.233-3.857,1.443-8.978,4.067-9.027,4.093a.5.5,0,0,1-.23.056M170.458,62.256c-2.943,5.123-34.075,59.425-35.561,66.137-.859,3.88,1.413,20.129,3.419,34.464,1.713,12.241,3.191,22.813,2.862,25.929a41.45,41.45,0,0,1-3.736,12.859c1.807-.89,5.09-2.456,7.777-3.462,3.5-1.31,6.132-3.968,6.687-5.383a.794.794,0,0,0,.085-.458,8.794,8.794,0,0,1-1.355-3.676c-1.117-7.824-.729-15.573,1.012-20.223a55.122,55.122,0,0,0,2.468-31.789,6.527,6.527,0,0,1,2.173-6.56c7.355-6.119,25.2-22.045,32.1-37.752a17.146,17.146,0,0,0,.444-13.838c-3.938-9.588-16.021-15.228-18.371-16.249" transform="translate(-10.832 -4.952)"/>
      <path id="Path_6862" data-name="Path 6862" d="M134.454,128.329c1.586-7.165,35.836-66.661,35.836-66.661s27.392,10.88,18.6,30.919c-6.959,15.858-25.006,31.922-32.234,37.936a6.06,6.06,0,0,0-2.005,6.061,52.981,52.981,0,0,1,.9,18.247c-6.007-.918-12.336.386-18.5,2.234-1.77-12.813-3.351-25.3-2.589-28.737" transform="translate(-10.876 -4.996)" fill="#ab1b2d"/>
      <path id="Path_6863" data-name="Path 6863" d="M134.454,128.329c1.586-7.165,35.836-66.661,35.836-66.661s27.392,10.88,18.6,30.919c-6.959,15.858-25.006,31.922-32.234,37.936a6.06,6.06,0,0,0-2.005,6.061,52.981,52.981,0,0,1,.9,18.247c-6.007-.918-12.336.386-18.5,2.234C135.273,144.253,133.692,131.767,134.454,128.329Z" transform="translate(-10.876 -4.996)" fill="none" stroke="#000" stroke-width="1"/>
      <path id="Path_6864" data-name="Path 6864" d="M137,157.521a.5.5,0,0,1-.494-.432c-2.072-15-3.3-25.654-2.582-28.913,1.585-7.158,34.491-64.37,35.891-66.8a.5.5,0,0,1,.618-.215c.6.239,14.817,5.991,19.323,16.965a18.107,18.107,0,0,1-.451,14.619c-6.979,15.9-24.964,31.956-32.373,38.119a5.533,5.533,0,0,0-1.838,5.562A53.336,53.336,0,0,1,156,154.846a.5.5,0,0,1-.572.435c-6.387-.976-13.127.674-18.286,2.219a.506.506,0,0,1-.143.021m33.46-95.265c-2.944,5.123-34.075,59.425-35.561,66.136-.72,3.248.77,15.308,2.516,27.985,5.042-1.483,11.457-2.972,17.651-2.157a52.152,52.152,0,0,0-.947-17.566,6.529,6.529,0,0,1,2.173-6.56c7.354-6.118,25.2-22.044,32.1-37.752a17.138,17.138,0,0,0,.442-13.838c-3.937-9.588-16.019-15.228-18.37-16.249M134.41,128.285h0Z" transform="translate(-10.832 -4.952)"/>
      <path id="Path_6865" data-name="Path 6865" d="M140.078,124.118l1.291,4.4a1.932,1.932,0,0,1,.069.746l-1.87,18.1a1.942,1.942,0,0,1-.762,1.351L136.3,150.6a1.933,1.933,0,0,1-3.082-1.34l-1.779-16.344a1.942,1.942,0,0,1,.269-1.215l4.864-8.041a1.932,1.932,0,0,1,3.508.458" transform="translate(-10.647 -9.942)" fill="#fff"/>
      <path id="Path_6866" data-name="Path 6866" d="M135.1,151.447a2.439,2.439,0,0,1-.972-.2,2.41,2.41,0,0,1-1.453-1.973L130.9,132.927a2.449,2.449,0,0,1,.338-1.528l4.865-8.041a2.431,2.431,0,0,1,4.414.576l1.291,4.4a2.436,2.436,0,0,1,.086.939l-1.87,18.1a2.446,2.446,0,0,1-.958,1.7l-2.508,1.887a2.413,2.413,0,0,1-1.455.492m3.065-28.265a1.39,1.39,0,0,0-1.21.693l-4.865,8.041a1.452,1.452,0,0,0-.2.9l1.778,16.343a1.434,1.434,0,0,0,2.286,1l2.508-1.887a1.441,1.441,0,0,0,.565-1l1.87-18.1a1.447,1.447,0,0,0-.051-.554l-1.291-4.4a1.421,1.421,0,0,0-1.191-1.02,1.651,1.651,0,0,0-.2-.013" transform="translate(-10.603 -9.898)"/>
      <path id="Path_6867" data-name="Path 6867" d="M152.381,204.921l-.769-5.087c-3.539,1.17-7.056,1.9-10.451.138l-1.524,10.971c6.023,1.005,9.127-.881,12.744-6.022" transform="translate(-11.312 -16.189)"/>
      <path id="Path_6868" data-name="Path 6868" d="M142.526,211.669a18.391,18.391,0,0,1-3.016-.277.5.5,0,0,1-.413-.561l1.525-10.972a.5.5,0,0,1,.725-.374c3.083,1.6,6.253,1.091,10.064-.169a.5.5,0,0,1,.651.4l.769,5.087a.5.5,0,0,1-.085.362c-3.244,4.611-6.066,6.5-10.219,6.5m-2.371-1.187c5.167.754,8.074-.691,11.657-5.729l-.651-4.305c-3.135.991-6.437,1.612-9.644.224Z" transform="translate(-11.268 -16.145)"/>
      <path id="Path_6869" data-name="Path 6869" d="M152.921,205.048A86.647,86.647,0,0,1,156.6,214.7a4.7,4.7,0,0,1-2.66,5.644,184.216,184.216,0,0,1-33.1,10.17,3.316,3.316,0,0,1-3.565-2.02c-3.509-6.854,8.672-13.385,20.989-22.8l2.971,2.609a5.246,5.246,0,0,0,5.788-.561l3.9-3.175a1.3,1.3,0,0,1,2,.476" transform="translate(-9.451 -16.549)" fill="#fff"/>
      <path id="Path_6870" data-name="Path 6870" d="M120.278,231.02a3.925,3.925,0,0,1-3.494-2.34c-3.027-5.912,4.545-11.369,14.133-18.277,2.274-1.639,4.623-3.332,7-5.145a.5.5,0,0,1,.633.021l2.927,2.57a4.738,4.738,0,0,0,5.188-.534l3.9-3.175a1.794,1.794,0,0,1,2.774.66,87.208,87.208,0,0,1,3.705,9.716,5.2,5.2,0,0,1-2.941,6.245,183.3,183.3,0,0,1-33.208,10.2,3.239,3.239,0,0,1-.61.057M138.2,206.3c-2.273,1.728-4.519,3.347-6.694,4.914-9.2,6.628-16.463,11.863-13.828,17.011a2.8,2.8,0,0,0,3.027,1.756,182.149,182.149,0,0,0,33-10.137,4.2,4.2,0,0,0,2.379-5.043,86.3,86.3,0,0,0-3.66-9.594.8.8,0,0,0-1.231-.292l-3.9,3.175a5.734,5.734,0,0,1-6.34.614.56.56,0,0,1-.095-.065Z" transform="translate(-9.406 -16.505)"/>
      <path id="Path_6871" data-name="Path 6871" d="M156.44,215.029s.113.368.166.545a4.7,4.7,0,0,1-2.66,5.644,184.1,184.1,0,0,1-33.1,10.17,3.317,3.317,0,0,1-3.566-2.019,9.718,9.718,0,0,1-.57-1.807l.889-.209A265.86,265.86,0,0,0,154.8,215.679Z" transform="translate(-9.455 -17.42)" fill="#fff"/>
      <path id="Path_6872" data-name="Path 6872" d="M120.283,231.891a3.925,3.925,0,0,1-3.494-2.339,10.023,10.023,0,0,1-.614-1.929.5.5,0,0,1,.374-.592l.89-.209a266.482,266.482,0,0,0,37.136-11.652l1.638-.65a.5.5,0,0,1,.662.317l.168.549a5.2,5.2,0,0,1-2.941,6.245,183.307,183.307,0,0,1-33.209,10.2,3.317,3.317,0,0,1-.61.056m-3.016-4a6.86,6.86,0,0,0,.412,1.207,2.8,2.8,0,0,0,3.026,1.757,182.093,182.093,0,0,0,33-10.138,4.2,4.2,0,0,0,2.38-5.042l-.007-.024-1.135.45a267.346,267.346,0,0,1-37.276,11.7Z" transform="translate(-9.411 -17.376)"/>
      <path id="Path_6873" data-name="Path 6873" d="M138.031,217.2a.49.49,0,0,1-.242-.063l-6.113-3.4a.5.5,0,0,1,.485-.874l6.112,3.4a.5.5,0,0,1-.243.936" transform="translate(-10.647 -17.24)"/>
      <path id="Path_6874" data-name="Path 6874" d="M133.214,219.25a.5.5,0,0,1-.25-.068l-4.926-2.86a.5.5,0,1,1,.5-.864l4.926,2.86a.5.5,0,0,1-.251.932" transform="translate(-10.352 -17.449)"/>
      <path id="Path_6875" data-name="Path 6875" d="M98.838,47.442A4.181,4.181,0,0,1,93.693,45.9L89.3,39.254a1.786,1.786,0,0,0-1.971-.717l-4.276,1.225a2.109,2.109,0,0,1-2.38-.929l-3.317-5.426a.03.03,0,0,0-.024-.015l-2.373-.248a.874.874,0,0,1-.779-.942l.4-4.845c.077-.943-1.186-5.564-.3-5.882,0,0,12.59-11.2,19.426-6.891A6.227,6.227,0,0,1,96.5,19.953l-.03,2.713a11.756,11.756,0,0,0,4.91,9.944l6.8,4.742a2.171,2.171,0,0,1,.17,3.43c-2.459,2.1-6.571,5.392-9.512,6.66" transform="translate(-5.992 -1.102)" fill="#fff"/>
      <path id="Path_6876" data-name="Path 6876" d="M97.139,48.24a4.679,4.679,0,0,1-3.907-2.106l-4.39-6.649a1.281,1.281,0,0,0-1.416-.512L83.151,40.2a2.618,2.618,0,0,1-2.945-1.149l-3.2-5.228L74.867,33.6a1.382,1.382,0,0,1-1.226-1.48l.4-4.845a12.542,12.542,0,0,0-.236-1.758c-.429-2.508-.634-4.093.163-4.508,1.06-.931,13.063-11.241,19.967-6.888a6.749,6.749,0,0,1,3.025,5.794l-.031,2.714a11.487,11.487,0,0,0,2.941,7.97,11.713,11.713,0,0,0,1.763,1.562l6.794,4.737a2.671,2.671,0,0,1,.208,4.22c-2.795,2.384-6.736,5.487-9.637,6.739a4.68,4.68,0,0,1-1.854.384M87.783,37.923a2.28,2.28,0,0,1,1.89,1.006l4.394,6.653a3.677,3.677,0,0,0,4.53,1.355c2.934-1.265,7.14-4.667,9.386-6.581a1.671,1.671,0,0,0-.132-2.64l-6.8-4.742a12.618,12.618,0,0,1-1.919-1.7,12.479,12.479,0,0,1-3.205-8.659l.03-2.714A5.744,5.744,0,0,0,93.4,14.964C86.957,10.9,74.694,21.7,74.571,21.8a.484.484,0,0,1-.091.065,12.135,12.135,0,0,0,.307,3.477,10.584,10.584,0,0,1,.247,2.008l-.4,4.845a.376.376,0,0,0,.333.4l2.373.247a.563.563,0,0,1,.393.244l3.321,5.434a1.616,1.616,0,0,0,1.817.709l4.276-1.225a2.308,2.308,0,0,1,.632-.089M74.407,21.9h0" transform="translate(-5.948 -1.057)"/>
      <path id="Path_6877" data-name="Path 6877" d="M87.693,23.191c-.188-2.642.914-3.979.188-5.052a2.433,2.433,0,0,0-1.532-.858c-2.042-.49-3.823,1.062-7.652,3.563-4.755,3.106-5.281,3.5-6.411,3.521-2.876.046-5.534-2.415-6.674-4.872-.32-.689-1.916-4.391.456-7.623A8.143,8.143,0,0,1,73.986,8.89a3.873,3.873,0,0,1,.723-2.926c1.838-2.153,6.411-.922,8.011-.491a16.342,16.342,0,0,1,6.967,3.948,5.732,5.732,0,0,1,3.828-2.229c3.157-.263,5.246,2.862,5.438,3.159,2.249,3.477.507,8.044-.809,11.493a15.861,15.861,0,0,1-2.271,4.305l-.784-.088a1.511,1.511,0,0,1-1.32-1.749l.009-.059a6.177,6.177,0,0,0-.131-2.717,2.144,2.144,0,0,0-1.128-1.571c-.938-.3-1.965.581-2.113.707a3.6,3.6,0,0,0-1.145,2.793c0,.554-1.507.6-1.57-.277" transform="translate(-5.249 -0.383)"/>
      <path id="Path_6878" data-name="Path 6878" d="M101.627,32c4.141-9.574,5.519-20.7,2.239-26.358C99.352-.743,87.745-.3,78.568,2.4c-9.272,3.431-15.5,10.26-22.66,14.4l9.991-.777,1.586,4.556c3.194.982,6.226-.142,9.292-.822,1.6,2.728,3.789,10.636,4.192,13.7-2.165,2.229-5.212,1.057-7.312,4.318.008,3.372,2.114,5.349,4.953,8.708,12.931-5.031,21-9.452,23.017-14.5" transform="translate(-4.529 -0.043)" fill="#fff"/>
      <path id="Path_6879" data-name="Path 6879" d="M78.566,46.949a.5.5,0,0,1-.381-.177c-.345-.407-.677-.794-1-1.165-2.36-2.74-4.067-4.718-4.074-7.865a.5.5,0,0,1,.08-.272,6.783,6.783,0,0,1,4.4-2.9,6.541,6.541,0,0,0,2.8-1.329c-.46-3.091-2.436-10.143-3.917-12.953-.407.095-.815.2-1.222.3-2.552.631-5.191,1.285-7.961.432a.5.5,0,0,1-.325-.313L65.51,16.511l-9.607.747a.514.514,0,0,1-.516-.35.5.5,0,0,1,.227-.581,77.988,77.988,0,0,0,7.775-5.4c4.464-3.37,9.079-6.856,14.962-9.033,8.973-2.646,21.107-3.329,25.878,3.417,3.187,5.494,2.279,16.514-2.184,26.839-1.9,4.737-8.867,9.155-23.3,14.769a.5.5,0,0,1-.181.034m-4.452-9.061c.06,2.692,1.567,4.441,3.829,7.066.25.29.508.589.772.9,13.929-5.444,20.635-9.663,22.4-14.086l.006-.013c4.349-10.055,5.28-20.708,2.264-25.91C98.948-.431,87.292.3,78.665,2.839,72.953,4.954,68.4,8.394,63.991,11.721c-2.07,1.563-4.051,3.059-6.1,4.381l7.922-.617a.512.512,0,0,1,.511.334l1.5,4.312c2.42.664,4.737.09,7.187-.516.536-.132,1.072-.266,1.609-.384a.5.5,0,0,1,.54.235C78.782,22.228,81,30.146,81.42,33.357a.5.5,0,0,1-.137.414,7.07,7.07,0,0,1-3.411,1.76,5.85,5.85,0,0,0-3.758,2.358" transform="translate(-4.485 0)"/>
      <path id="Path_6880" data-name="Path 6880" d="M66.737,16.894a.5.5,0,0,1-.3-.9L80.722,5.178a.5.5,0,1,1,.6.8L67.038,16.793a.5.5,0,0,1-.3.1" transform="translate(-5.366 -0.411)"/>
      <path id="Path_6881" data-name="Path 6881" d="M80.652,23.992c11.649-1.585,25.422-3.036,27.907-5.2l-1.168,4.789c-5.978,2.151-15.138,3.537-25.286,4.686Z" transform="translate(-6.534 -1.523)"/>
      <path id="Path_6882" data-name="Path 6882" d="M75.785,37.961a.5.5,0,0,1-.335-.13c-3.844-3.489-5.681-8.264-5.461-14.189a.5.5,0,0,1,1,.038c-.212,5.7,1.467,10.083,5.133,13.412a.5.5,0,0,1-.335.869" transform="translate(-5.669 -1.876)"/>
      <path id="Path_6883" data-name="Path 6883" d="M76.482,39.356a.5.5,0,0,1-.185-.965l19.964-7.957a.5.5,0,0,1,.369.928L76.667,39.321a.486.486,0,0,1-.185.036" transform="translate(-6.155 -2.463)"/>
      <path id="Path_6884" data-name="Path 6884" d="M104.49,49.969c4.189-2.517,6.746,2.513,8.306,7.152,2.265,6.737,2.338,27.689,1.923,31.325-.547,4.776-11.559,18.4-22.005,29.779a8.178,8.178,0,0,1-5.4,7.958c-5.913,2.5-11.855-2.222-12.705-4.731s10.582-8.9,10.582-8.9S99.825,90.6,99.56,80.748c-.165-6.136-1.994-12.677-1.944-20.451.024-3.719-1.647-7.308,1.061-9.85.822-.772,4.817.119,5.813-.479" transform="translate(-6.041 -3.994)" fill="#fff"/>
      <path id="Path_6885" data-name="Path 6885" d="M83.781,127.351a10.952,10.952,0,0,1-4.454-1c-2.8-1.256-4.749-3.357-5.233-4.782-.9-2.66,7.824-7.818,10.706-9.435,1.065-1.617,14.465-22.168,14.216-31.415a74.542,74.542,0,0,0-.875-8.324,80.227,80.227,0,0,1-1.07-12.144,23.526,23.526,0,0,0-.251-3.085c-.332-2.643-.646-5.14,1.47-7.126.588-.552,1.9-.5,3.417-.43a7.341,7.341,0,0,0,2.48-.112,4.161,4.161,0,0,1,3.7-.514c2.053.755,3.8,3.351,5.342,7.935,2.283,6.789,2.376,27.775,1.945,31.541-.57,4.984-11.708,18.687-21.994,29.908a8.773,8.773,0,0,1-5.709,8.232,9.4,9.4,0,0,1-3.686.753M100.37,50.571a2.874,2.874,0,0,0-1.394.2c-1.746,1.638-1.476,3.785-1.163,6.272a24.264,24.264,0,0,1,.259,3.216,79.3,79.3,0,0,0,1.06,12,75.447,75.447,0,0,1,.884,8.438c.267,9.9-13.848,31.193-14.449,32.095a.5.5,0,0,1-.172.159c-5.324,2.976-10.8,7-10.353,8.3.4,1.191,2.186,3.065,4.7,4.192a9.069,9.069,0,0,0,7.341.24c5.487-2.32,5.112-7.244,5.093-7.453a.505.505,0,0,1,.131-.384c9.75-10.624,21.33-24.724,21.877-29.5.425-3.723.345-24.436-1.9-31.108-1.419-4.219-3.013-6.68-4.74-7.315a3.172,3.172,0,0,0-2.835.432,6.449,6.449,0,0,1-3.038.254c-.371-.016-.845-.036-1.295-.036m4.076-.646h0Z" transform="translate(-5.997 -3.95)"/>
      <path id="Path_6886" data-name="Path 6886" d="M104.552,32.419c9.168-1.333,39.983-2.584,74.1,31.976C170.908,72.6,162.689,80.357,149.9,83.7L117.1,69.538c.028,3.1,1.049,21.979-1.315,21.818-6.1-.414-14.39-9.708-14.39-9.708s-2.736-18.706-4.561-27.014a26.172,26.172,0,0,1,3.22-19.207,6.326,6.326,0,0,1,4.5-3.008" transform="translate(-7.795 -2.585)" fill="#fff"/>
      <path id="Path_6887" data-name="Path 6887" d="M115.77,91.814a.453.453,0,0,1-.062,0c-6.233-.423-14.384-9.488-14.729-9.873a.508.508,0,0,1-.121-.261C100.83,81.491,98.1,62.893,96.3,54.7a26.743,26.743,0,0,1,3.281-19.573,6.8,6.8,0,0,1,4.854-3.244l.072.494-.072-.494c8.782-1.278,40.118-2.738,74.531,32.12a.5.5,0,0,1,.007.693c-7.523,7.97-15.958,16.037-28.99,19.447a.492.492,0,0,1-.324-.025L117.572,70.262c.012.419.028.935.047,1.526.3,9.376.373,18.256-1.155,19.73a.983.983,0,0,1-.694.3M101.824,81.382c.95,1.037,8.474,9.061,13.95,9.432.638-.338,1.333-3.914.846-18.995-.034-1.046-.06-1.858-.064-2.319a.5.5,0,0,1,.7-.464l32.643,14.1c12.493-3.317,20.711-11.056,28.019-18.771-33.95-34.174-64.7-32.747-73.336-31.489a5.806,5.806,0,0,0-4.142,2.771,25.746,25.746,0,0,0-3.16,18.841c1.721,7.835,4.281,25.1,4.546,26.9" transform="translate(-7.751 -2.542)"/>
      <path id="Path_6888" data-name="Path 6888" d="M118.831,74.349a.5.5,0,0,1-.5-.458c-.874-10.273-.974-13.713-.975-13.747a.5.5,0,1,1,1-.027c0,.033.1,3.455.971,13.689a.5.5,0,0,1-.455.54l-.043,0" transform="translate(-9.507 -4.831)"/>
      <path id="Path_6889" data-name="Path 6889" d="M93.239,122.49A11.59,11.59,0,0,1,85.8,117.7c-4.913,3.033-10.078,6.128-10.681,8.085,1.956,4.956,5.407,7.879,13.254,4.828,2.687-1.183,3.78-4.646,4.864-8.123" transform="translate(-6.086 -9.535)" fill="#ab1b2d"/>
      <path id="Path_6890" data-name="Path 6890" d="M82.693,132.309c-3.771,0-6.391-2.1-8.081-6.386a.5.5,0,0,1-.012-.331c.628-2.034,5.241-4.877,10.125-7.888l.771-.475a.5.5,0,0,1,.665.13,11.058,11.058,0,0,0,7.126,4.595.5.5,0,0,1,.385.64c-1.1,3.516-2.23,7.151-5.14,8.432a16.387,16.387,0,0,1-5.84,1.284m-7.08-6.576c2.274,5.593,6.034,6.9,12.537,4.37,2.342-1.032,3.422-4.149,4.4-7.281a11.92,11.92,0,0,1-6.92-4.5l-.385.237c-4.172,2.571-8.886,5.476-9.637,7.177" transform="translate(-6.042 -9.491)"/>
      <path id="Path_6891" data-name="Path 6891" d="M158.128,157.363a.442.442,0,0,1-.06,0,.5.5,0,0,1-.437-.555,43.222,43.222,0,0,0-.624-16.22.5.5,0,0,1,.973-.23,44.156,44.156,0,0,1,.643,16.568.5.5,0,0,1-.5.441" transform="translate(-12.718 -11.339)" fill="#fff"/>
    </g>
  </g>
</svg>
