<svg xmlns="http://www.w3.org/2000/svg" width="23.192" height="23.176" viewBox="0 0 23.192 23.176">
  <path id="Call_-_Outline" data-name="Call - Outline" d="M18.722,22.679h-.246l-.036,0a22.019,22.019,0,0,1-12.469-5.64l-.022-.021-.78-.781A22.019,22.019,0,0,1-.5,3.738a2.488,2.488,0,0,1,1.591-2.6L5.011-.376a1.8,1.8,0,0,1,2.23.822L9.991,5.5a1.8,1.8,0,0,1-.3,2.128l-.007.007L7.43,9.848a25.324,25.324,0,0,0,2.263,2.785,23.132,23.132,0,0,0,2.668,2.153l2.181-2.29a1.806,1.806,0,0,1,2.14-.32l5.06,2.753a1.815,1.815,0,0,1,.822,2.224L21.042,21.08a2.5,2.5,0,0,1-2.319,1.6ZM7.488,15.407a19.667,19.667,0,0,0,11.194,5.061l.033,0a.274.274,0,0,0,.254-.176l0-.007,1.4-3.579-4.486-2.435-2.252,2.292a1.789,1.789,0,0,1-2.288.233A25.3,25.3,0,0,1,8.1,14.207l-.029-.029A27.528,27.528,0,0,1,5.388,10.82a1.794,1.794,0,0,1,.225-2.3L7.9,6.28,5.462,1.806l-3.579,1.4a.273.273,0,0,0-.174.285A19.8,19.8,0,0,0,6.767,14.7Z" transform="translate(0.512 0.497)" fill="#fff"/>
</svg>
