<svg xmlns="http://www.w3.org/2000/svg" width="42" height="42" viewBox="0 0 42 42">
  <g id="Group_1997" data-name="Group 1997" transform="translate(-215.601 -1177)">
    <rect id="Rectangle_1743" data-name="Rectangle 1743" width="42" height="42" transform="translate(215.601 1177)" fill="#99a26f"/>
    <g id="_14291991451579780443" data-name="14291991451579780443" transform="translate(222.823 1182.978)">
      <path id="Path_8314" data-name="Path 8314" d="M13.777,15.94a.406.406,0,0,1-.165-.036l-8.358-3.74a.445.445,0,0,1,.015-.81l8.36-3.324a.4.4,0,0,1,.3,0l8.359,3.323a.445.445,0,0,1,.016.812l-8.359,3.742a.41.41,0,0,1-.164.035ZM6.537,11.785l7.22,3.231,7.261-3.231L13.777,8.906Z" transform="translate(0)" fill="#fff" stroke="#fff" stroke-width="0.6"/>
      <path id="Path_8315" data-name="Path 8315" d="M5.254,19.894a.448.448,0,0,1-.22-.575.42.42,0,0,1,.386-.266.4.4,0,0,1,.165.036l8.173,3.657,8.214-3.657a.393.393,0,0,1,.166-.036.416.416,0,0,1,.384.266.447.447,0,0,1-.22.575l-8.523,3.814Z" transform="translate(0 -4.585)" fill="#fff" stroke="#fff" stroke-width="0.6"/>
      <path id="Path_8316" data-name="Path 8316" d="M5.254,24.885a.446.446,0,0,1-.22-.574.42.42,0,0,1,.386-.266.407.407,0,0,1,.165.036l8.173,3.657,8.214-3.657a.408.408,0,0,1,.549.23.446.446,0,0,1-.219.574L13.778,28.7Z" transform="translate(0 -6.656)" fill="#fff" stroke="#fff" stroke-width="0.6"/>
    </g>
  </g>
</svg>
