<svg xmlns="http://www.w3.org/2000/svg" width="42" height="42" viewBox="0 0 42 42">
  <g id="Group_1967" data-name="Group 1967" transform="translate(-215.601 -1177)">
    <rect id="Rectangle_1743" data-name="Rectangle 1743" width="42" height="42" transform="translate(215.601 1177)" fill="#99a26f"/>
    <path id="_19591380801560146799" data-name="19591380801560146799" d="M7.368,10.152l6.2-6.2a1.145,1.145,0,0,0-1.619-1.619L6.559,7.7,4.45,5.614A1.145,1.145,0,0,0,2.831,7.233L5.75,10.152a1.14,1.14,0,0,0,1.619,0ZM20.74,6.561h-6.27a1.14,1.14,0,1,0,0,2.28h6.27a1.14,1.14,0,0,1,1.14,1.14V21.061l-1.79-1.653a1.14,1.14,0,0,0-.775-.308H9.341a1.14,1.14,0,0,1-1.14-1.14v-3.99a1.14,1.14,0,1,0-2.28,0v3.99a3.42,3.42,0,0,0,3.42,3.42h9.53l3.42,3.112a1.14,1.14,0,0,0,.775.308,1.254,1.254,0,0,0,.456-.091,1.14,1.14,0,0,0,.684-1.049V9.981a3.42,3.42,0,0,0-3.466-3.42Z" transform="translate(223.249 1184.602)" fill="#f9f9f9"/>
  </g>
</svg>
