<svg xmlns="http://www.w3.org/2000/svg" xmlns:xlink="http://www.w3.org/1999/xlink" width="80.922" height="80.922" viewBox="0 0 80.922 80.922">
  <defs>
    <filter id="Rectangle_1607" x="0" y="0" width="80.922" height="80.922" filterUnits="userSpaceOnUse">
      <feOffset input="SourceAlpha"/>
      <feGaussianBlur stdDeviation="2" result="blur"/>
      <feFlood flood-opacity="0.11"/>
      <feComposite operator="in" in2="blur"/>
      <feComposite in="SourceGraphic"/>
    </filter>
  </defs>
  <g id="corpus" transform="translate(-655.137 -2487.863)">
    <g transform="matrix(1, 0, 0, 1, 655.14, 2487.86)" filter="url(#Rectangle_1607)">
      <g id="Rectangle_1607-2" data-name="Rectangle 1607" transform="translate(6 6)" fill="#fff" stroke="#585858" stroke-width="2">
        <rect width="68.922" height="68.922" rx="18" stroke="none"/>
        <rect x="1" y="1" width="66.922" height="66.922" rx="17" fill="none"/>
      </g>
    </g>
    <g id="Group_2309" data-name="Group 2309" transform="translate(677.208 2511.03)">
      <path id="noun-salary-2279793" d="M105.8,0H73.7a3.6,3.6,0,0,0-3.7,3.7v27.18a3.6,3.6,0,0,0,3.7,3.7h32.1a3.6,3.6,0,0,0,3.7-3.7V3.708A3.6,3.6,0,0,0,105.8,0ZM72.469,3.723A1.134,1.134,0,0,1,73.7,2.473h1.008a3.7,3.7,0,0,1-2.242,2.242Zm0,21.2a3.7,3.7,0,0,1,2.242,2.242h-.993a1.134,1.134,0,0,1-1.25-1.235Zm34.57,5.931a1.134,1.134,0,0,1-1.235,1.25H73.719a1.134,1.134,0,0,1-1.25-1.235V29.427a3.968,3.968,0,0,0,1.235.209h32.1a4.017,4.017,0,0,0,1.235-.2Zm0-4.939a1.134,1.134,0,0,1-1.235,1.25H104.8a3.7,3.7,0,0,1,2.242-2.242Zm0-3.564a6.193,6.193,0,0,0-4.814,4.814H77.283a6.193,6.193,0,0,0-4.814-4.814V7.288a6.193,6.193,0,0,0,4.814-4.814h24.943a6.192,6.192,0,0,0,4.814,4.814Zm0-17.636A3.7,3.7,0,0,1,104.8,2.474h.993a1.134,1.134,0,0,1,1.25,1.235Z" transform="translate(-70 -0.004)" fill="#585858" stroke="#fff" stroke-width="0.5"/>
      <path id="Path_7491" data-name="Path 7491" d="M59.666,80.16H56.693a4.49,4.49,0,0,0-1.486-2.809h4.459a.562.562,0,1,0,0-1.124H48.307a.562.562,0,0,0,0,1.124h3.933a3.379,3.379,0,0,1,3.32,2.809H48.307a.562.562,0,0,0,0,1.124h7.255a3.379,3.379,0,0,1-3.32,2.809H48.307a.562.562,0,0,0-.4.961l7.866,7.866a.562.562,0,0,0,.795-.792l-6.9-6.912h2.575A4.5,4.5,0,0,0,56.7,81.283h2.973a.562.562,0,0,0,0-1.124h-.009Z" transform="translate(-34.236 -68.919)" fill="#585858" stroke="#585858" stroke-width="0.5"/>
    </g>
  </g>
</svg>
