<svg xmlns="http://www.w3.org/2000/svg" xmlns:xlink="http://www.w3.org/1999/xlink" width="106" height="106" viewBox="0 0 106 106">
  <defs>
    <filter id="Path_7271" x="0" y="0" width="106" height="106" filterUnits="userSpaceOnUse">
      <feOffset dy="7" input="SourceAlpha"/>
      <feGaussianBlur stdDeviation="4.5" result="blur"/>
      <feFlood flood-opacity="0.161"/>
      <feComposite operator="in" in2="blur"/>
      <feComposite in="SourceGraphic"/>
    </filter>
  </defs>
  <g id="Group_1652" data-name="Group 1652" transform="translate(-914.5 -1492.976)">
    <g transform="matrix(1, 0, 0, 1, 914.5, 1492.98)" filter="url(#Path_7271)">
      <g id="Path_7271-2" data-name="Path 7271" transform="translate(13.5 6.5)" fill="#f7a600">
        <path d="M 39.5 78.5 C 34.23480987548828 78.5 29.12738990783691 77.46891784667969 24.31958961486816 75.43538665771484 C 19.67555999755859 73.47113037109375 15.50469017028809 70.65901947021484 11.92282962799072 67.07717132568359 C 8.34097957611084 63.49531173706055 5.528870105743408 59.32444000244141 3.564610004425049 54.6804084777832 C 1.531080007553101 49.87260818481445 0.5 44.76519012451172 0.5 39.5 C 0.5 34.23480987548828 1.531080007553101 29.12738990783691 3.564610004425049 24.31958961486816 C 5.528870105743408 19.67555999755859 8.34097957611084 15.50469017028809 11.92282962799072 11.92282962799072 C 15.50469017028809 8.34097957611084 19.67555999755859 5.528870105743408 24.31958961486816 3.564610004425049 C 29.12738990783691 1.531080007553101 34.23480987548828 0.5 39.5 0.5 C 44.76519012451172 0.5 49.87260818481445 1.531080007553101 54.6804084777832 3.564610004425049 C 59.32444000244141 5.528870105743408 63.49531173706055 8.34097957611084 67.07717132568359 11.92282962799072 C 70.65901947021484 15.50469017028809 73.47113037109375 19.67555999755859 75.43538665771484 24.31958961486816 C 77.46891784667969 29.12738990783691 78.5 34.23480987548828 78.5 39.5 C 78.5 44.76519012451172 77.46891784667969 49.87260818481445 75.43538665771484 54.6804084777832 C 73.47113037109375 59.32444000244141 70.65901947021484 63.49531173706055 67.07717132568359 67.07717132568359 C 63.49531173706055 70.65901947021484 59.32444000244141 73.47113037109375 54.6804084777832 75.43538665771484 C 49.87260818481445 77.46891784667969 44.76519012451172 78.5 39.5 78.5 Z" stroke="none"/>
        <path d="M 39.5 1 C 34.30208969116211 1 29.26020050048828 2.017791748046875 24.51436614990234 4.025108337402344 C 19.929931640625 5.964164733886719 15.8124885559082 8.740287780761719 12.27639007568359 12.27639007568359 C 8.740287780761719 15.8124885559082 5.964164733886719 19.929931640625 4.025108337402344 24.51436614990234 C 2.017791748046875 29.26020050048828 1 34.30208969116211 1 39.5 C 1 44.69791030883789 2.017791748046875 49.73979949951172 4.025108337402344 54.48563385009766 C 5.964164733886719 59.070068359375 8.740287780761719 63.1875114440918 12.27639007568359 66.72360992431641 C 15.8124885559082 70.25971221923828 19.929931640625 73.03583526611328 24.51436614990234 74.97489166259766 C 29.26020050048828 76.98220825195312 34.30208969116211 78 39.5 78 C 44.69791030883789 78 49.73979949951172 76.98220825195312 54.48563385009766 74.97489166259766 C 59.070068359375 73.03583526611328 63.1875114440918 70.25971221923828 66.72360992431641 66.72360992431641 C 70.25971221923828 63.1875114440918 73.03583526611328 59.070068359375 74.97489166259766 54.48563385009766 C 76.98220825195312 49.73979949951172 78 44.69791030883789 78 39.5 C 78 34.30208969116211 76.98220825195312 29.26020050048828 74.97489166259766 24.51436614990234 C 73.03583526611328 19.929931640625 70.25971221923828 15.8124885559082 66.72360992431641 12.27639007568359 C 63.1875114440918 8.740287780761719 59.070068359375 5.964164733886719 54.48563385009766 4.025108337402344 C 49.73979949951172 2.017791748046875 44.69791030883789 1 39.5 1 M 39.5 0 C 61.31524658203125 0 79 17.68475723266602 79 39.5 C 79 61.31524658203125 61.31524658203125 79 39.5 79 C 17.68475723266602 79 0 61.31524658203125 0 39.5 C 0 17.68475723266602 17.68475723266602 0 39.5 0 Z" stroke="none" fill="#fff"/>
      </g>
    </g>
    <path id="_1164941671543238939" data-name="1164941671543238939" d="M51.05,24.75A25.139,25.139,0,0,0,1,24.75ZM39.675,40.675a6.825,6.825,0,0,1-13.65,0V24.75" transform="translate(941.475 1515.976)" fill="none" stroke="#fff" stroke-linecap="round" stroke-linejoin="round" stroke-width="3"/>
  </g>
</svg>
