<svg xmlns="http://www.w3.org/2000/svg" width="40.992" height="40.992" viewBox="0 0 40.992 40.992">
  <g id="Group_1676" data-name="Group 1676" transform="translate(0.5 0.5)">
    <path id="noun-salary-2279793" d="M106.243,0H73.749A3.644,3.644,0,0,0,70,3.753V36.247A3.644,3.644,0,0,0,73.749,40h32.494a3.644,3.644,0,0,0,3.749-3.749V3.753A3.644,3.644,0,0,0,106.243,0ZM72.5,3.768A1.148,1.148,0,0,1,73.749,2.5h1.02a3.745,3.745,0,0,1-2.27,2.27Zm0,21.461a3.745,3.745,0,0,1,2.27,2.27h-1a1.148,1.148,0,0,1-1.265-1.25Zm34.993,11a1.148,1.148,0,0,1-1.25,1.265H73.764a1.148,1.148,0,0,1-1.265-1.25V34.786a4.016,4.016,0,0,0,1.25.211h32.494a4.066,4.066,0,0,0,1.25-.2Zm0-5a1.148,1.148,0,0,1-1.25,1.265H73.764a1.148,1.148,0,0,1-1.265-1.25V29.787a4.016,4.016,0,0,0,1.25.211h32.494a4.066,4.066,0,0,0,1.25-.2Zm0-5a1.148,1.148,0,0,1-1.25,1.265h-1.02a3.745,3.745,0,0,1,2.27-2.27Zm0-3.608A6.269,6.269,0,0,0,102.62,27.5H77.373A6.269,6.269,0,0,0,72.5,22.626V7.377A6.269,6.269,0,0,0,77.373,2.5h25.248a6.268,6.268,0,0,0,4.873,4.873Zm0-17.852a3.745,3.745,0,0,1-2.27-2.27h1a1.148,1.148,0,0,1,1.265,1.25Z" transform="translate(-70 -0.004)" fill="#c91429" stroke="#fff" stroke-width="1"/>
    <path id="Path_7491" data-name="Path 7491" d="M57.01,79.284H54.7A3.49,3.49,0,0,0,53.545,77.1H57.01a.437.437,0,0,0,0-.874H48.182a.437.437,0,0,0,0,.874h3.057a2.626,2.626,0,0,1,2.581,2.184H48.182a.437.437,0,0,0,0,.874H53.82a2.626,2.626,0,0,1-2.581,2.184H48.182a.437.437,0,0,0-.308.747L53.988,89.2a.437.437,0,0,0,.618-.615l-5.367-5.372h2a3.494,3.494,0,0,0,3.466-3.057h2.311a.437.437,0,0,0,0-.874H57.01Z" transform="translate(-32.603 -66.439)" fill="#c91429" stroke="#c91429" stroke-width="0.8"/>
  </g>
</svg>
