<svg xmlns="http://www.w3.org/2000/svg" xmlns:xlink="http://www.w3.org/1999/xlink" width="74.116" height="74.116" viewBox="0 0 74.116 74.116">
  <defs>
    <filter id="Path_904" x="0" y="0" width="74.116" height="74.116" filterUnits="userSpaceOnUse">
      <feOffset dy="7" input="SourceAlpha"/>
      <feGaussianBlur stdDeviation="4.5" result="blur"/>
      <feFlood flood-opacity="0.161"/>
      <feComposite operator="in" in2="blur"/>
      <feComposite in="SourceGraphic"/>
    </filter>
  </defs>
  <g id="Group_1544" data-name="Group 1544" transform="translate(-585.384 -2253.873)">
    <g id="Group_1356" data-name="Group 1356" transform="translate(430.884 271.688)">
      <g transform="matrix(1, 0, 0, 1, 154.5, 1982.19)" filter="url(#Path_904)">
        <g id="Path_904-2" data-name="Path 904" transform="translate(13.5 6.5)" fill="#c4a166">
          <path d="M 23.5579833984375 46.61596298217773 C 20.44495391845703 46.61596298217773 17.42531394958496 46.00638198852539 14.58293342590332 44.80415344238281 C 11.8372631072998 43.6428337097168 9.371293067932129 41.98020172119141 7.253533363342285 39.86243438720703 C 5.135763168334961 37.74467468261719 3.473133325576782 35.27870178222656 2.311813354492188 32.53303527832031 C 1.109583377838135 29.69065284729004 0.5000033974647522 26.67101287841797 0.5000033974647522 23.5579833984375 C 0.5000033974647522 20.44495391845703 1.109583377838135 17.42531394958496 2.311813354492188 14.58293342590332 C 3.473133325576782 11.8372631072998 5.135763168334961 9.371293067932129 7.253533363342285 7.253533363342285 C 9.371293067932129 5.135763168334961 11.8372631072998 3.473133325576782 14.58293342590332 2.311813354492188 C 17.42531394958496 1.109583377838135 20.44495391845703 0.5000033974647522 23.5579833984375 0.5000033974647522 C 26.67101287841797 0.5000033974647522 29.69065284729004 1.109583377838135 32.53303527832031 2.311813354492188 C 35.27870178222656 3.473133325576782 37.74467468261719 5.135763168334961 39.86243438720703 7.253533363342285 C 41.98020172119141 9.371293067932129 43.6428337097168 11.8372631072998 44.80415344238281 14.58293342590332 C 46.00638198852539 17.42531394958496 46.61596298217773 20.44495391845703 46.61596298217773 23.5579833984375 C 46.61596298217773 26.67101287841797 46.00638198852539 29.69065284729004 44.80415344238281 32.53303527832031 C 43.6428337097168 35.27870178222656 41.98020172119141 37.74467468261719 39.86243438720703 39.86243438720703 C 37.74467468261719 41.98020172119141 35.27870178222656 43.6428337097168 32.53303527832031 44.80415344238281 C 29.69065284729004 46.00638198852539 26.67101287841797 46.61596298217773 23.5579833984375 46.61596298217773 Z" stroke="none"/>
          <path d="M 23.5579833984375 1.000003814697266 C 20.51223373413086 1.000003814697266 17.5581226348877 1.596294403076172 14.77770233154297 2.772312164306641 C 12.09164428710938 3.908424377441406 9.679092407226562 5.535072326660156 7.607082366943359 7.607082366943359 C 5.535072326660156 9.679092407226562 3.908424377441406 12.09164428710938 2.772312164306641 14.77770233154297 C 1.596294403076172 17.5581226348877 1.000003814697266 20.51223373413086 1.000003814697266 23.5579833984375 C 1.000003814697266 26.60373306274414 1.596294403076172 29.5578441619873 2.772312164306641 32.33826446533203 C 3.908424377441406 35.02432250976562 5.535072326660156 37.43687438964844 7.607082366943359 39.50888442993164 C 9.679092407226562 41.58089447021484 12.09164428710938 43.20754241943359 14.77770233154297 44.34365463256836 C 17.5581226348877 45.51967239379883 20.51223373413086 46.11596298217773 23.5579833984375 46.11596298217773 C 26.60373306274414 46.11596298217773 29.5578441619873 45.51967239379883 32.33826446533203 44.34365463256836 C 35.02432250976562 43.20754241943359 37.43687438964844 41.58089447021484 39.50888442993164 39.50888442993164 C 41.58089447021484 37.43687438964844 43.20754241943359 35.02432250976562 44.34365463256836 32.33826446533203 C 45.51967239379883 29.5578441619873 46.11596298217773 26.60373306274414 46.11596298217773 23.5579833984375 C 46.11596298217773 20.51223373413086 45.51967239379883 17.5581226348877 44.34365463256836 14.77770233154297 C 43.20754241943359 12.09164428710938 41.58089447021484 9.679092407226562 39.50888442993164 7.607082366943359 C 37.43687438964844 5.535072326660156 35.02432250976562 3.908424377441406 32.33826446533203 2.772312164306641 C 29.5578441619873 1.596294403076172 26.60373306274414 1.000003814697266 23.5579833984375 1.000003814697266 M 23.5579833984375 3.814697265625e-06 C 36.56869506835938 3.814697265625e-06 47.11596298217773 10.54727172851562 47.11596298217773 23.5579833984375 C 47.11596298217773 36.56869506835938 36.56869506835938 47.11596298217773 23.5579833984375 47.11596298217773 C 10.54727172851562 47.11596298217773 3.814697265625e-06 36.56869506835938 3.814697265625e-06 23.5579833984375 C 3.814697265625e-06 10.54727172851562 10.54727172851562 3.814697265625e-06 23.5579833984375 3.814697265625e-06 Z" stroke="none" fill="#fff"/>
        </g>
      </g>
      <g id="Group_1685" data-name="Group 1685" transform="translate(179.514 2000.2)">
        <path id="noun-salary-2279793" d="M91.83,0H72.258A2.195,2.195,0,0,0,70,2.262V18.834a2.195,2.195,0,0,0,2.258,2.258H91.83a2.195,2.195,0,0,0,2.258-2.258V2.262A2.195,2.195,0,0,0,91.83,0ZM71.505,2.271a.692.692,0,0,1,.753-.762h.614a2.256,2.256,0,0,1-1.367,1.367Zm0,12.926a2.256,2.256,0,0,1,1.367,1.367h-.605a.691.691,0,0,1-.762-.753Zm21.077,3.616a.691.691,0,0,1-.753.762H72.267a.691.691,0,0,1-.762-.753v-.88a2.419,2.419,0,0,0,.753.127H91.83a2.449,2.449,0,0,0,.753-.122Zm0-3.011a.691.691,0,0,1-.753.762h-.614A2.256,2.256,0,0,1,92.582,15.2Zm0-2.173a3.776,3.776,0,0,0-2.935,2.935H74.441a3.776,3.776,0,0,0-2.935-2.935V4.445A3.776,3.776,0,0,0,74.441,1.51H89.648a3.775,3.775,0,0,0,2.935,2.935Zm0-10.753A2.256,2.256,0,0,1,91.215,1.51h.605a.692.692,0,0,1,.762.753Z" transform="translate(-70 1.996)" fill="#fff" stroke="#c4a166" stroke-width="0.2"/>
        <path id="Path_7491" data-name="Path 7491" d="M55.013,78.625H53.2a2.738,2.738,0,0,0-.906-1.713h2.719a.343.343,0,1,0,0-.685H48.088a.343.343,0,0,0,0,.685h2.4a2.06,2.06,0,0,1,2.024,1.713H48.088a.343.343,0,0,0,0,.685H52.51a2.06,2.06,0,0,1-2.024,1.713h-2.4a.343.343,0,0,0-.241.586l4.8,4.8a.343.343,0,0,0,.484-.483l-4.21-4.214h1.57a2.74,2.74,0,0,0,2.719-2.4h1.812a.343.343,0,0,0,0-.685h-.006Z" transform="translate(-39.509 -69.771)" fill="#fff" stroke="#fff" stroke-width="0.2"/>
      </g>
    </g>
  </g>
</svg>
