<svg xmlns="http://www.w3.org/2000/svg" xmlns:xlink="http://www.w3.org/1999/xlink" width="96.31" height="96.31" viewBox="0 0 96.31 96.31">
  <defs>
    <filter id="Path_9812" x="0" y="0" width="96.31" height="96.31" filterUnits="userSpaceOnUse">
      <feOffset input="SourceAlpha"/>
      <feGaussianBlur stdDeviation="2" result="blur"/>
      <feFlood flood-opacity="0.11"/>
      <feComposite operator="in" in2="blur"/>
      <feComposite in="SourceGraphic"/>
    </filter>
  </defs>
  <g id="digital" transform="translate(-655.137 -2487.863)">
    <g transform="matrix(1, 0, 0, 1, 655.14, 2487.86)" filter="url(#Path_9812)">
      <g id="Path_9812-2" data-name="Path 9812" transform="translate(6 6)" fill="#99a26f">
        <path d="M 62.29118347167969 83.30989837646484 L 22.01871299743652 83.30989837646484 C 19.18076133728027 83.30989837646484 16.42823219299316 82.75431060791016 13.83758449554443 81.65856170654297 C 11.33480834960938 80.5999755859375 9.086878776550293 79.08430480957031 7.15623140335083 77.15366363525391 C 5.22559642791748 75.2230224609375 3.709925651550293 72.97509002685547 2.651337385177612 70.47231292724609 C 1.55558443069458 67.88166809082031 0.9999962449073792 65.12913513183594 0.9999962449073792 62.29118347167969 L 0.9999962449073792 22.01871299743652 C 0.9999962449073792 19.18076133728027 1.55558443069458 16.42823219299316 2.651337385177612 13.83758449554443 C 3.709925651550293 11.33480834960938 5.22559642791748 9.086878776550293 7.15623140335083 7.15623140335083 C 9.086878776550293 5.22559642791748 11.33480834960938 3.709925651550293 13.83758449554443 2.651337385177612 C 16.42823219299316 1.55558443069458 19.18076133728027 0.9999962449073792 22.01871299743652 0.9999962449073792 L 62.29118347167969 0.9999962449073792 C 65.12913513183594 0.9999962449073792 67.88166809082031 1.55558443069458 70.47231292724609 2.651337385177612 C 72.97509002685547 3.709925651550293 75.2230224609375 5.22559642791748 77.15366363525391 7.15623140335083 C 79.08430480957031 9.086878776550293 80.5999755859375 11.33480834960938 81.65856170654297 13.83758449554443 C 82.75431060791016 16.42823219299316 83.30989837646484 19.18076133728027 83.30989837646484 22.01871299743652 L 83.30989837646484 62.29118347167969 C 83.30989837646484 65.12913513183594 82.75431060791016 67.88166809082031 81.65856170654297 70.47231292724609 C 80.5999755859375 72.97509002685547 79.08430480957031 75.2230224609375 77.15366363525391 77.15366363525391 C 75.2230224609375 79.08430480957031 72.97509002685547 80.5999755859375 70.47231292724609 81.65856170654297 C 67.88166809082031 82.75431060791016 65.12913513183594 83.30989837646484 62.29118347167969 83.30989837646484 Z" stroke="none"/>
        <path d="M 22.01871109008789 2 C 19.31532287597656 2 16.69386291503906 2.529014587402344 14.22713470458984 3.572349548339844 C 11.84355926513672 4.580513000488281 9.702476501464844 6.024208068847656 7.863349914550781 7.863349914550781 C 6.024208068847656 9.702476501464844 4.580513000488281 11.84355926513672 3.572349548339844 14.22713470458984 C 2.529014587402344 16.69386291503906 2 19.31532287597656 2 22.01871109008789 L 2 62.29117584228516 C 2 64.99456024169922 2.529014587402344 67.61603546142578 3.572349548339844 70.08274841308594 C 4.580513000488281 72.46633911132812 6.024208068847656 74.607421875 7.863349914550781 76.44654846191406 C 9.702476501464844 78.28569030761719 11.84355926513672 79.72938537597656 14.22713470458984 80.737548828125 C 16.69386291503906 81.7808837890625 19.31532287597656 82.30989837646484 22.01871109008789 82.30989837646484 L 62.29117584228516 82.30989837646484 C 64.99456024169922 82.30989837646484 67.61603546142578 81.7808837890625 70.08274841308594 80.737548828125 C 72.46633911132812 79.72938537597656 74.607421875 78.28569030761719 76.44654846191406 76.44654846191406 C 78.28569030761719 74.607421875 79.72938537597656 72.46633911132812 80.737548828125 70.08274841308594 C 81.7808837890625 67.61603546142578 82.30989837646484 64.99456024169922 82.30989837646484 62.29117584228516 L 82.30989837646484 22.01871109008789 C 82.30989837646484 19.31532287597656 81.7808837890625 16.69386291503906 80.737548828125 14.22713470458984 C 79.72938537597656 11.84355926513672 78.28569030761719 9.702476501464844 76.44654846191406 7.863349914550781 C 74.607421875 6.024208068847656 72.46633911132812 4.580513000488281 70.08274841308594 3.572349548339844 C 67.61603546142578 2.529014587402344 64.99456024169922 2 62.29117584228516 2 L 22.01871109008789 2 M 22.01871109008789 0 L 62.29117584228516 0 C 74.45178985595703 0 84.30989837646484 9.858108520507812 84.30989837646484 22.01871109008789 L 84.30989837646484 62.29117584228516 C 84.30989837646484 74.45178985595703 74.45178985595703 84.30989837646484 62.29117584228516 84.30989837646484 L 22.01871109008789 84.30989837646484 C 9.858108520507812 84.30989837646484 0 74.45178985595703 0 62.29117584228516 L 0 22.01871109008789 C 0 9.858108520507812 9.858108520507812 0 22.01871109008789 0 Z" stroke="none" fill="#fff"/>
      </g>
    </g>
    <g id="Group_2308" data-name="Group 2308" transform="translate(684.214 2515.711)">
      <g id="_7715973141596026806" data-name="7715973141596026806" transform="translate(0)">
        <line id="Line_370" data-name="Line 370" x2="16.642" transform="translate(0.331 17.274)" fill="none" stroke="#fff" stroke-linecap="round" stroke-linejoin="round" stroke-width="2"/>
        <path id="Path_7765" data-name="Path 7765" d="M26.079,16.626C25.262,8.859,21.991,3,18.176,3,13.679,3,10,10.9,10,20.714s3.679,17.714,8.176,17.714" transform="translate(-0.462 -3)" fill="none" stroke="#fff" stroke-linecap="round" stroke-linejoin="round" stroke-width="2"/>
        <path id="Path_7766" data-name="Path 7766" d="M38.292,22.077c0-.409.136-.954.136-1.363A17.714,17.714,0,1,0,20.714,38.429a14.066,14.066,0,0,0,4.088-.545" transform="translate(-3 -3)" fill="none" stroke="#fff" stroke-linecap="round" stroke-linejoin="round" stroke-width="2"/>
      </g>
      <g id="Page-1" transform="translate(20.926 35.429) rotate(-90)">
        <g id="Dribbble-Light-Preview">
          <g id="icons">
            <path id="mouse___window-_5_" data-name="mouse_↑_window-[#5]" d="M.624,6.106,17.228,0,11.121,16.6l-4-4L2.495,17.229,0,14.733l4.624-4.624Z" fill="none" stroke="#fff" stroke-linecap="round" stroke-linejoin="round" stroke-width="1.5" fill-rule="evenodd"/>
          </g>
        </g>
      </g>
    </g>
  </g>
</svg>
