<svg xmlns="http://www.w3.org/2000/svg" width="11.629" height="11.566" viewBox="0 0 11.629 11.566">
  <g id="Double_Chevron_Right" transform="translate(-10.485 -9.943)">
    <path id="Path_6965" data-name="Path 6965" d="M20.733,12.8,16.181,8.186a.655.655,0,0,0-.933,0,.67.67,0,0,0,0,.942l4.087,4.146L15.248,17.42a.67.67,0,0,0,0,.942.655.655,0,0,0,.933,0l4.551-4.617A.688.688,0,0,0,20.733,12.8Z" transform="translate(0.618 2.451)" fill="#c91429" stroke="#c91429" stroke-width="1"/>
    <path id="Path_6966" data-name="Path 6966" d="M13.733,12.8,9.182,8.186a.655.655,0,0,0-.933,0,.67.67,0,0,0,0,.942l4.087,4.146L8.248,17.42a.67.67,0,0,0,0,.942.655.655,0,0,0,.933,0l4.551-4.617A.688.688,0,0,0,13.733,12.8Z" transform="translate(3 2.451)" fill="#c91429" stroke="#c91429" stroke-width="1"/>
  </g>
</svg>
