<svg xmlns="http://www.w3.org/2000/svg" width="12.338" height="12.338" viewBox="0 0 12.338 12.338">
  <path id="_89730444616344783164478" data-name="89730444616344783164478" d="M13.009,16.34c-.076,0-.151,0-.227-.009a6.57,6.57,0,0,1-3.443-1.3A20.152,20.152,0,0,1,5.308,11a6.568,6.568,0,0,1-1.3-3.443,2.941,2.941,0,0,1,.854-2.308l.773-.774a1.628,1.628,0,0,1,2.3,0l.7.7a1.627,1.627,0,0,1,0,2.3l-.4.4a1.013,1.013,0,0,0-.126,1.275,11.04,11.04,0,0,0,3.078,3.077,1.014,1.014,0,0,0,1.275-.126l.4-.4a1.627,1.627,0,0,1,2.3,0l.7.7a1.627,1.627,0,0,1,0,2.3l-.775.773a2.941,2.941,0,0,1-2.081.864ZM6.789,4.618a1.007,1.007,0,0,0-.714.3L5.3,5.688a2.326,2.326,0,0,0-.675,1.825A5.956,5.956,0,0,0,5.8,10.633a19.547,19.547,0,0,0,3.908,3.908,5.953,5.953,0,0,0,3.12,1.175,2.333,2.333,0,0,0,1.825-.675l.774-.774a1.01,1.01,0,0,0,0-1.428l-.7-.7a1.033,1.033,0,0,0-1.428,0l-.4.4a1.631,1.631,0,0,1-2.053.2A11.651,11.651,0,0,1,7.6,9.5a1.631,1.631,0,0,1,.2-2.053l.4-.4a1.01,1.01,0,0,0,0-1.428l-.7-.7a1.008,1.008,0,0,0-.714-.3Z" transform="translate(-4.003 -4.002)" fill="#fff"/>
</svg>
