<svg xmlns="http://www.w3.org/2000/svg" width="11.651" height="11.681" viewBox="0 0 11.651 11.681">
  <path id="_10886806321581426690" data-name="10886806321581426690" d="M11.543,3.927,7.427,1.246a1.571,1.571,0,0,0-1.7,0L1.608,3.927A1.247,1.247,0,0,0,1,4.972v7.177H5.562V9.326H7.589v2.823h4.562V4.972a1.247,1.247,0,0,0-.608-1.044Zm-.405,7.208H8.6V8.312H4.548v2.823H2.014V4.972a.248.248,0,0,1,.132-.2L6.261,2.093a.578.578,0,0,1,.6,0l4.116,2.681a.248.248,0,0,1,.132.2Z" transform="translate(-0.75 -0.718)" fill="#fff" stroke="#b73432" stroke-width="0.5"/>
</svg>
