<svg id="about" xmlns="http://www.w3.org/2000/svg" width="9.429" height="11" viewBox="0 0 9.429 11">
  <path id="Path_2368" data-name="Path 2368" d="M11.75,7.5A2.75,2.75,0,1,0,9,4.75,2.75,2.75,0,0,0,11.75,7.5Zm0-4.714A1.964,1.964,0,1,1,9.786,4.75,1.964,1.964,0,0,1,11.75,2.786Z" transform="translate(-7.036 -2)" fill="#fff"/>
  <path id="Path_2369" data-name="Path 2369" d="M9.107,18H8.321A4.321,4.321,0,0,0,4,22.321a.393.393,0,0,0,.393.393h8.643a.393.393,0,0,0,.393-.393A4.321,4.321,0,0,0,9.107,18Zm-4.3,3.929a3.536,3.536,0,0,1,3.512-3.143h.786a3.536,3.536,0,0,1,3.512,3.143Z" transform="translate(-4 -11.714)" fill="#fff"/>
</svg>
