<svg id="Group_2061" data-name="Group 2061" xmlns="http://www.w3.org/2000/svg" width="55.085" height="55.085" viewBox="0 0 55.085 55.085">
  <circle id="Ellipse_118" data-name="Ellipse 118" cx="27.542" cy="27.542" r="27.542" transform="translate(0)" fill="#44583f"/>
  <g id="_98175601116276482383764_1_" data-name="98175601116276482383764 (1)" transform="translate(14.478 18.051)">
    <path id="Path_7850" data-name="Path 7850" d="M26.98,10.75H4.648a1.9,1.9,0,0,0-1.9,1.9V27.834a1.9,1.9,0,0,0,1.9,1.9H26.98a1.9,1.9,0,0,0,1.9-1.9V12.648a1.9,1.9,0,0,0-1.9-1.9Zm.782,17.084a.786.786,0,0,1-.782.782H4.648a.786.786,0,0,1-.782-.782V12.648a.786.786,0,0,1,.782-.782H26.98a.786.786,0,0,1,.782.782Z" transform="translate(-2.75 -10.75)" fill="#fff" stroke="#fff" stroke-width="0.5"/>
    <path id="Path_7851" data-name="Path 7851" d="M15.619,25.053a3.015,3.015,0,1,0-3.912,0,5.1,5.1,0,0,0-3.126,4.7.558.558,0,0,0,1.117,0,3.979,3.979,0,0,1,7.959,0,.558.558,0,0,0,1.117,0,5.105,5.105,0,0,0-3.153-4.7Zm-3.854-2.291a1.9,1.9,0,1,1,.147.73,1.9,1.9,0,0,1-.147-.73Z" transform="translate(-5.976 -15.727)" fill="#fff" stroke="#fff" stroke-width="0.5"/>
    <path id="Path_7852" data-name="Path 7852" d="M35.018,19.827h2.157a.558.558,0,0,0,0-1.117H35.018a.558.558,0,0,0,0,1.117Z" transform="translate(-20.297 -15.155)" fill="#fff" stroke="#fff" stroke-width="0.5"/>
    <path id="Path_7853" data-name="Path 7853" d="M42.821,25.61h-7.8a.558.558,0,1,0,0,1.117h7.8a.558.558,0,0,0,0-1.117Z" transform="translate(-20.297 -18.973)" fill="#fff" stroke="#fff" stroke-width="0.5"/>
    <path id="Path_7854" data-name="Path 7854" d="M42.821,32.5h-7.8a.558.558,0,1,0,0,1.117h7.8a.558.558,0,0,0,0-1.117Z" transform="translate(-20.297 -22.786)" fill="#fff" stroke="#fff" stroke-width="0.5"/>
    <path id="Path_7855" data-name="Path 7855" d="M42.821,39.39h-7.8a.558.558,0,1,0,0,1.117h7.8a.558.558,0,0,0,0-1.117Z" transform="translate(-20.297 -26.598)" fill="#fff" stroke="#fff" stroke-width="0.5"/>
    <path id="Path_7856" data-name="Path 7856" d="M49.937,46.29H47.878a.558.558,0,0,0,0,1.117h2.059a.558.558,0,0,0,0-1.117Z" transform="translate(-27.414 -30.417)" fill="#fff" stroke="#fff" stroke-width="0.5"/>
  </g>
</svg>
