<svg xmlns="http://www.w3.org/2000/svg" width="27.638" height="18.924" viewBox="0 0 27.638 18.924">
  <g id="Group_2070" data-name="Group 2070" transform="translate(-189.294 -848.848)">
    <g id="_156112210016366332165370" data-name="156112210016366332165370" transform="translate(186.494 839.37)">
      <path id="Path_8996" data-name="Path 8996" d="M27.665,13.17H25.317a.47.47,0,0,0,0,.939h2.348A1.634,1.634,0,0,1,29.3,15.743v9.191a1.634,1.634,0,0,1-1.634,1.634H12.538a1.634,1.634,0,0,1-1.583-1.221L8.2,14.734a2.08,2.08,0,0,0-2.01-1.564H3.47a.47.47,0,0,0,0,.939H6.193a1.141,1.141,0,0,1,1.1.859l2.747,10.614a2.573,2.573,0,0,0,2.489,1.925H27.665a2.574,2.574,0,0,0,2.574-2.574V15.743a2.574,2.574,0,0,0-2.574-2.574Z" transform="translate(0 -3.27)" fill="#c91429" stroke="#c9142a" stroke-width="0.4"/>
      <path id="Path_8997" data-name="Path 8997" d="M28.771,45.92a1.465,1.465,0,1,0,1.026.424,1.461,1.461,0,0,0-1.026-.424Zm0,1.987a.521.521,0,1,1,.2-.041.521.521,0,0,1-.2.041Z" transform="translate(-12.893 -20.64)" fill="#c91429" stroke="#c9142a" stroke-width="0.4"/>
      <path id="Path_8998" data-name="Path 8998" d="M48.841,45.92a1.465,1.465,0,1,0,1.026.424A1.461,1.461,0,0,0,48.841,45.92Zm0,1.987a.521.521,0,1,1,.2-.041.521.521,0,0,1-.2.041Z" transform="translate(-23.538 -20.64)" fill="#c91429" stroke="#c9142a" stroke-width="0.4"/>
    </g>
    <path id="Path_9000" data-name="Path 9000" d="M23.331,41.511h0l0-.015-2.091-.023a3.205,3.205,0,0,0-.835-1.73l2.8.031a.494.494,0,0,0,.044-.988L15.4,38.7a.494.494,0,0,0-.484.505.5.5,0,0,0,.475.483l2.709.029a2.212,2.212,0,0,1,2.137,1.744l-4.868-.053a.495.495,0,0,0-.007.989l4.864.053a2.209,2.209,0,0,1-2.174,1.7l-2.709-.03a.495.495,0,0,0-.358.841l5.362,5.48a.5.5,0,0,0,.7-.033.5.5,0,0,0,0-.661l-4.524-4.626,1.515.016a3.208,3.208,0,0,0,3.191-2.673l1.951.021a.495.495,0,0,0,.387-.828.5.5,0,0,0-.237-.144" transform="translate(185.502 810.148)" fill="#c91429"/>
  </g>
</svg>
