<svg xmlns="http://www.w3.org/2000/svg" xmlns:xlink="http://www.w3.org/1999/xlink" width="79" height="79" viewBox="0 0 79 79">
  <defs>
    <filter id="Path_904" x="0" y="0" width="79" height="79" filterUnits="userSpaceOnUse">
      <feOffset dy="7" input="SourceAlpha"/>
      <feGaussianBlur stdDeviation="4.5" result="blur"/>
      <feFlood flood-opacity="0.161"/>
      <feComposite operator="in" in2="blur"/>
      <feComposite in="SourceGraphic"/>
    </filter>
  </defs>
  <g id="Group_2056" data-name="Group 2056" transform="translate(-171.692 -2295.12)">
    <g id="Group_1546" data-name="Group 1546" transform="translate(185.192 2301.62)">
      <g id="Group_1355" data-name="Group 1355" transform="translate(0)">
        <g transform="matrix(1, 0, 0, 1, -13.5, -6.5)" filter="url(#Path_904)">
          <g id="Path_904-2" data-name="Path 904" transform="translate(13.5 6.5)" fill="#f7a600">
            <path d="M 25.999755859375 51.49951553344727 C 22.55708503723145 51.49951553344727 19.21766662597656 50.82537460327148 16.07425498962402 49.49582672119141 C 13.03782558441162 48.21151733398438 10.31072616577148 46.37282562255859 7.968705654144287 44.03080749511719 C 5.62669563293457 41.68878555297852 3.7879958152771 38.96168518066406 2.503695964813232 35.92525482177734 C 1.174145817756653 32.78183746337891 0.500005841255188 29.44241523742676 0.500005841255188 25.999755859375 C 0.500005841255188 22.55708503723145 1.174145817756653 19.21766662597656 2.503695964813232 16.07425498962402 C 3.7879958152771 13.03782558441162 5.62669563293457 10.31072616577148 7.968705654144287 7.968705654144287 C 10.31072616577148 5.62669563293457 13.03782558441162 3.7879958152771 16.07425498962402 2.503695964813232 C 19.21766662597656 1.174145817756653 22.55708503723145 0.500005841255188 25.999755859375 0.500005841255188 C 29.44241523742676 0.500005841255188 32.78183746337891 1.174145817756653 35.92525482177734 2.503695964813232 C 38.96168518066406 3.7879958152771 41.68878555297852 5.62669563293457 44.03080749511719 7.968705654144287 C 46.37282562255859 10.31072616577148 48.21151733398438 13.03782558441162 49.49582672119141 16.07425498962402 C 50.82537460327148 19.21766662597656 51.49951553344727 22.55708503723145 51.49951553344727 25.999755859375 C 51.49951553344727 29.44241523742676 50.82537460327148 32.78183746337891 49.49582672119141 35.92525482177734 C 48.21151733398438 38.96168518066406 46.3728141784668 41.68878555297852 44.03080749511719 44.03080749511719 C 41.68878555297852 46.3728141784668 38.96168518066406 48.21151733398438 35.92525482177734 49.49582672119141 C 32.78183746337891 50.82537460327148 29.44241523742676 51.49951553344727 25.999755859375 51.49951553344727 Z" stroke="none"/>
            <path d="M 25.999755859375 0.9999961853027344 C 22.62436676025391 0.9999961853027344 19.3504753112793 1.660846710205078 16.26902770996094 2.964187622070312 C 13.29219436645508 4.223285675048828 10.61851501464844 6.025997161865234 8.322254180908203 8.322254180908203 C 6.025997161865234 10.61851501464844 4.223285675048828 13.29219436645508 2.964187622070312 16.26902770996094 C 1.660846710205078 19.3504753112793 0.9999961853027344 22.62436676025391 0.9999961853027344 25.999755859375 C 0.9999961853027344 29.37513542175293 1.660846710205078 32.64902496337891 2.964187622070312 35.73047637939453 C 4.223285675048828 38.70730590820312 6.025997161865234 41.38098526000977 8.322254180908203 43.67724609375 C 10.61851501464844 45.97350692749023 13.29219436645508 47.77621459960938 16.26902770996094 49.03531646728516 C 19.3504753112793 50.33865737915039 22.62436676025391 50.99950408935547 25.999755859375 50.99950408935547 C 29.37513542175293 50.99950408935547 32.64902496337891 50.33865737915039 35.73047637939453 49.03531646728516 C 38.70730590820312 47.77621459960938 41.38098526000977 45.97350692749023 43.67724609375 43.67724609375 C 45.97350692749023 41.38098526000977 47.77621459960938 38.70730590820312 49.03531646728516 35.73047637939453 C 50.33865737915039 32.64902496337891 50.99950408935547 29.37513542175293 50.99950408935547 25.999755859375 C 50.99950408935547 22.62436676025391 50.33865737915039 19.3504753112793 49.03531646728516 16.26902770996094 C 47.77621459960938 13.29219436645508 45.97350692749023 10.61851501464844 43.67724609375 8.322254180908203 C 41.38098526000977 6.025997161865234 38.70730590820312 4.223285675048828 35.73047637939453 2.964187622070312 C 32.64902496337891 1.660846710205078 29.37513542175293 0.9999961853027344 25.999755859375 0.9999961853027344 M 25.999755859375 -3.814697265625e-06 C 40.35901641845703 -3.814697265625e-06 51.99950408935547 11.64048767089844 51.99950408935547 25.999755859375 C 51.99950408935547 40.35901641845703 40.35901641845703 51.99950408935547 25.999755859375 51.99950408935547 C 11.64048767089844 51.99950408935547 -3.814697265625e-06 40.35901641845703 -3.814697265625e-06 25.999755859375 C -3.814697265625e-06 11.64048767089844 11.64048767089844 -3.814697265625e-06 25.999755859375 -3.814697265625e-06 Z" stroke="none" fill="#fff"/>
          </g>
        </g>
      </g>
    </g>
    <g id="_15887309171543238915" data-name="15887309171543238915" transform="translate(199.539 2317.689)">
      <path id="Path_2349" data-name="Path 2349" d="M23.622,4v6.622H17" transform="translate(0.658 -2.899)" fill="none" stroke="#fff" stroke-linecap="round" stroke-linejoin="round" stroke-width="2"/>
      <path id="Path_2350" data-name="Path 2350" d="M1,20.622V14H7.622" transform="translate(-1 -1.862)" fill="none" stroke="#fff" stroke-linecap="round" stroke-linejoin="round" stroke-width="2"/>
      <path id="Path_2351" data-name="Path 2351" d="M3.77,9.622A9.933,9.933,0,0,1,20.159,5.913l5.121,4.812M1,15.14l5.121,4.812A9.933,9.933,0,0,0,22.51,16.244" transform="translate(-1 -3.002)" fill="none" stroke="#fff" stroke-linecap="round" stroke-linejoin="round" stroke-width="2"/>
    </g>
  </g>
</svg>
