<svg xmlns="http://www.w3.org/2000/svg" width="42" height="42" viewBox="0 0 42 42">
  <g id="Group_1967" data-name="Group 1967" transform="translate(-215.601 -1177)">
    <rect id="Rectangle_1743" data-name="Rectangle 1743" width="42" height="42" transform="translate(215.601 1177)" fill="#99a26f"/>
    <g id="layer1" transform="translate(226.134 1185.754)">
      <g id="g1398" transform="translate(-0.001 1.047)">
        <g id="g1373" transform="translate(0.003 3.139)">
          <path id="path865" d="M126.565,6.525a.717.717,0,0,0-.717.717v9.325a.717.717,0,0,0,.717.715h21.514a.717.717,0,0,0,.717-.715V7.243a.717.717,0,0,0-.717-.717Zm.717,1.435h20.079v7.89H127.282Z" transform="translate(-125.848 -0.31)" fill="#fff" fill-rule="evenodd"/>
          <path id="path869" d="M141.644,1.94A.717.717,0,0,0,141.35,2L137.459,3.6a.717.717,0,0,0,.548,1.326l3.639-1.5c3.008.484,5.509,2.582,5.717,5.5a.717.717,0,1,0,1.429-.1c-.266-3.729-3.446-6.357-7.067-6.874a.717.717,0,0,0-.082-.008Zm-7.626,3.147a.717.717,0,0,0-.291.053l-7.435,3.07a.717.717,0,0,0,.545,1.326l7.438-3.07a.717.717,0,0,0-.257-1.379Z" transform="translate(-125.847 -1.939)" fill="#fff" fill-rule="evenodd"/>
          <path id="path873" d="M126.565,9.967a.716.716,0,1,0,0,1.432h21.514a.716.716,0,1,0,0-1.432Z" transform="translate(-125.848 0.912)" fill="#fff" fill-rule="evenodd"/>
        </g>
        <path id="path877" d="M133.75,2.869a2.689,2.689,0,1,0,2.689,2.689A2.7,2.7,0,0,0,133.75,2.869Zm0,1.432A1.256,1.256,0,1,1,132.5,5.558,1.246,1.246,0,0,1,133.75,4.3Z" transform="translate(-123.993 -0.023)" fill="#fff" fill-rule="evenodd"/>
        <path id="path881" d="M134.787.77a.717.717,0,0,0-.426.156,5.036,5.036,0,0,0-1.691,3.279.717.717,0,0,0,1.408.27,3.486,3.486,0,0,1,1.178-2.43A.716.716,0,0,0,134.787.77Z" transform="translate(-123.426 -0.769)" fill="#fff" fill-rule="evenodd"/>
      </g>
    </g>
  </g>
</svg>
