<svg xmlns="http://www.w3.org/2000/svg" xmlns:xlink="http://www.w3.org/1999/xlink" width="46.666" height="46.666" viewBox="0 0 46.666 46.666">
  <defs>
    <linearGradient id="linear-gradient" x1="0.5" x2="0.5" y2="1" gradientUnits="objectBoundingBox">
      <stop offset="0" stop-color="#aa262d"/>
      <stop offset="1" stop-color="#8d1218"/>
    </linearGradient>
    <filter id="Path_9358" x="0" y="0" width="46.666" height="46.666" filterUnits="userSpaceOnUse">
      <feOffset dy="3" input="SourceAlpha"/>
      <feGaussianBlur stdDeviation="1.5" result="blur"/>
      <feFlood flood-opacity="0.224"/>
      <feComposite operator="in" in2="blur"/>
      <feComposite in="SourceGraphic"/>
    </filter>
  </defs>
  <g id="Group_2374" data-name="Group 2374" transform="translate(-260.885 -625.667)">
    <g transform="matrix(1, 0, 0, 1, 260.88, 625.67)" filter="url(#Path_9358)">
      <path id="Path_9358-2" data-name="Path 9358" d="M18.833,0A18.833,18.833,0,1,1,0,18.833,18.833,18.833,0,0,1,18.833,0Z" transform="translate(4.5 1.5)" fill="url(#linear-gradient)"/>
    </g>
    <path id="noun-pension-4462563" d="M125.551,64.625a11.278,11.278,0,0,0,3.465,6.426.85.85,0,0,0,.229.245c.025.018.054.025.08.041a11.38,11.38,0,0,0,14.811,0c.026-.016.055-.023.08-.041a.851.851,0,0,0,.229-.245,11.279,11.279,0,0,0,3.465-6.426.872.872,0,1,0-1.72-.288,9.555,9.555,0,0,1-2.384,4.885l-2.763-3.869h.05a3.489,3.489,0,0,0,0-6.979h-5.127l-1.084-4.336a3.489,3.489,0,1,0-6.769,1.692l1.745,6.979a3.475,3.475,0,0,0,2.628,2.551l-2.83,3.961a9.554,9.554,0,0,1-2.384-4.885.872.872,0,0,0-1.72.288ZM142.507,70.4a9.613,9.613,0,0,1-11.552,0l3.607-5.05H138.9ZM131.549,62.29,129.8,55.312a1.745,1.745,0,1,1,3.385-.85l1.25,5a.872.872,0,0,0,.846.661h5.807a1.745,1.745,0,1,1,0,3.489h-7.851a1.745,1.745,0,0,1-1.692-1.322Z" transform="translate(149.101 583.293)" fill="#fafafa"/>
  </g>
</svg>
