<svg id="Group_2064" data-name="Group 2064" xmlns="http://www.w3.org/2000/svg" width="55.085" height="55.085" viewBox="0 0 55.085 55.085">
  <circle id="Ellipse_117" data-name="Ellipse 117" cx="27.542" cy="27.542" r="27.542" transform="translate(0)" fill="#c7222a"/>
  <g id="india-map-country" transform="translate(6.864 5.629)" fill="none" stroke-linecap="round" stroke-linejoin="round">
    <path d="M37.376,11.542l-1.857.23L32.4,14.261l.209,1.116-2.772.454-1.144-.524-.209-1.2-1.123.027.265,2.061-2.853.067-3.884-1.2-3.353-1.839.953-1.871L16.072,9.717l-.2-1.582.649.4.7-.439-.8-1.5,1.5-1.368.316-1.107L17.041,3.7l-2.2.387L12.574,2l-2.506.175L9.267,3.2l1.8,1.345L10.623,5l-.445.1-.028,2.1,1.588.97L7.286,14.218,5.4,14.037,4.2,15.66l1.846,3.066-1.421.659-1.577-.269-.762.705,1.29,1.347-.124,1.191,2.2,1.893.046-.035,2.116-.638.269,1.12.042,3.317,2.856,8.492.695,1.336.943,3.119.755.865,1.34-.1.255-.833,2.251-2.577v-.238l-.046-1.191.053-.17.624-2.073-.064-.039.025-.06.039.1-.025-.12-.319-2.066.28-.918,5.047-3.668.9-1.191.556-.879,1.531-.393,1.322-2.314.843-.518,1.237.333-1.081-4.82L28.1,16.3l1.527.294.248,1.031.727.365,2.576.035-.255.666.223,1.156.556,2.1.929-1.407-.188-1.251.9.1L36,17.188l.61-1.74,1.8-1.138.663-.985Z" stroke="none"/>
    <path d="M 12.5735969543457 2 L 10.06794738769531 2.1751708984375 L 9.267368316650391 3.19635009765625 L 11.0692081451416 4.541439056396484 L 10.62286758422852 5.002079010009766 L 10.17777824401855 5.098068237304688 L 10.14930725097656 7.201419830322266 L 11.73770713806152 8.17156982421875 L 7.286148071289062 14.21789932250977 L 5.397186279296875 14.03711891174316 L 4.202857971191406 15.66036987304688 L 6.049346923828125 18.72592926025391 L 4.628036499023438 19.38523864746094 L 3.050838470458984 19.11578941345215 L 2.288997650146484 19.82115936279297 L 3.579006195068359 21.16794967651367 L 3.45501708984375 22.35870933532715 L 5.659477233886719 24.25124931335449 L 5.705528259277344 24.21576881408691 L 7.821315765380859 23.57793045043945 L 8.090766906738281 24.69773864746094 L 8.133247375488281 28.01501083374023 L 10.98970794677734 36.50679016113281 L 11.68449783325195 37.84299850463867 L 12.62711715698242 40.96176910400391 L 13.38210678100586 41.82659912109375 L 14.72174835205078 41.72375869750977 L 14.97688674926758 40.8909797668457 L 17.22739791870117 38.31438827514648 L 17.22739791870117 38.07682800292969 L 17.18134689331055 36.88607788085938 L 17.23454666137695 36.71603012084961 L 17.85824775695801 34.64255905151367 L 17.79461669921875 34.60366821289062 L 17.8193473815918 34.54346084594727 L 17.85824775695801 34.64255905151367 L 17.8335075378418 34.52214813232422 L 17.51458740234375 32.45582962036133 L 17.79461669921875 31.53796005249023 L 22.84138679504395 27.86970901489258 L 23.73795700073242 26.67895889282227 L 24.29443740844727 25.80012893676758 L 25.8254280090332 25.40667915344238 L 27.14748764038086 23.09237861633301 L 27.99084854125977 22.57480049133301 L 29.22779846191406 22.90802955627441 L 28.14688873291016 18.08807945251465 L 28.09725761413574 16.29837036132812 L 29.62466812133789 16.59239959716797 L 29.87280654907227 17.62384986877441 L 30.5994873046875 17.98882865905762 L 33.17591857910156 18.02429008483887 L 32.9207878112793 18.69044876098633 L 33.14402770996094 19.84605026245117 L 33.70050811767578 21.94409942626953 L 34.62912750244141 20.53694915771484 L 34.44119644165039 19.28598976135254 L 35.34133911132812 19.38166046142578 L 35.99707794189453 17.18778038024902 L 36.60676574707031 15.44770050048828 L 38.40705871582031 14.31015014648438 L 39.06979751586914 13.32476043701172 L 37.37576675415039 11.54204940795898 L 35.51853942871094 11.7724494934082 L 32.39634704589844 14.26051902770996 L 32.60543823242188 15.37676048278809 L 29.8337574005127 15.83041000366211 L 28.68952751159668 15.30596923828125 L 28.48027801513672 14.11055946350098 L 27.35688781738281 14.13777923583984 L 27.6222972869873 16.19911956787109 L 24.7693977355957 16.2664794921875 L 20.88490676879883 15.06840896606445 L 17.53231811523438 13.22908020019531 L 18.48551750183105 11.35770034790039 L 16.07195663452148 9.716869354248047 L 15.87375831604004 8.134849548339844 L 16.52280807495117 8.530158996582031 L 17.21961784362793 8.091449737548828 L 16.41950798034668 6.594367980957031 L 17.91657829284668 5.226421356201172 L 18.23255729675293 4.119831085205078 L 17.04101753234863 3.703990936279297 L 14.84511756896973 4.090740203857422 L 12.5735969543457 2 M 12.57370567321777 -3.814697265625e-06 C 13.07375335693359 -3.814697265625e-06 13.55763244628906 0.1875114440917969 13.92803764343262 0.5284385681152344 L 15.47202491760254 1.949546813964844 L 16.69410705566406 1.734310150146484 C 17.03085708618164 1.674995422363281 17.37718772888184 1.703006744384766 17.70002746582031 1.815681457519531 L 18.89156723022461 2.231517791748047 C 19.89219665527344 2.580738067626953 20.44668769836426 3.649879455566406 20.15568733215332 4.668968200683594 L 19.83970832824707 5.775558471679688 C 19.73796844482422 6.131870269775391 19.53923797607422 6.452911376953125 19.26568794250488 6.702869415283203 L 18.91598892211914 7.022407531738281 L 18.98350715637207 7.148738861083984 C 19.34251594543457 7.820487976074219 19.28039932250977 8.610691070556641 18.87981224060059 9.207340240478516 L 19.60995674133301 9.703720092773438 C 20.44307708740234 10.27011108398438 20.72488784790039 11.36775970458984 20.26764678955078 12.26543998718262 L 20.19475555419922 12.40854644775391 L 21.66867637634277 13.21718215942383 L 25.04769897460938 14.25935363769531 L 25.36014175415039 14.25197601318359 C 25.33067512512207 13.73740577697754 25.50114440917969 13.22912979125977 25.83919715881348 12.83523941040039 C 26.20814895629883 12.40534973144531 26.74209785461426 12.15209007263184 27.30843734741211 12.13837051391602 L 28.43182754516602 12.11114883422852 C 29.40067672729492 12.08761405944824 30.24364471435547 12.7614917755127 30.43869781494141 13.70478248596191 L 30.47692489624023 13.69852638244629 C 30.5907096862793 13.31002235412598 30.8217658996582 12.95792198181152 31.14991760253906 12.69641876220703 L 34.2721061706543 10.20835113525391 C 34.56037902832031 9.978630065917969 34.90651702880859 9.833038330078125 35.27231597900391 9.78765869140625 L 37.12954711914062 9.557258605957031 C 37.75917816162109 9.479171752929688 38.3885383605957 9.704429626464844 38.82557678222656 10.16436004638672 L 40.51960754394531 11.94706916809082 C 41.16525650024414 12.62650871276855 41.25244903564453 13.66318893432617 40.72936630249023 14.4409294128418 L 40.06662750244141 15.42631912231445 C 39.91158676147461 15.65682983398438 39.71023941040039 15.85251998901367 39.47539901733398 16.00090980529785 L 38.26393127441406 16.76639938354492 L 37.89995574951172 17.80520629882812 L 37.257568359375 19.95440864562988 C 37.13687896728516 20.35820388793945 36.89776611328125 20.69923973083496 36.58672332763672 20.94661140441895 C 36.53550338745117 21.19133377075195 36.43843078613281 21.42635726928711 36.29839706420898 21.6385498046875 L 35.36977767944336 23.04570007324219 C 34.9356689453125 23.70351982116699 34.15569305419922 24.04504203796387 33.37786865234375 23.91790008544922 C 32.60003662109375 23.7907600402832 31.96940803527832 23.21864891052246 31.76734733581543 22.45683860778809 L 31.21086883544922 20.35878944396973 C 31.19917678833008 20.31468963623047 31.18898773193359 20.27019882202148 31.18033790588379 20.22539901733398 L 31.13610076904297 19.99640464782715 L 30.6229362487793 19.98934173583984 L 31.17932891845703 22.47037887573242 C 31.33256721496582 23.15373039245605 31.11722755432129 23.8674488067627 30.61160659790039 24.35199928283691 C 30.10599899291992 24.8365592956543 29.38376045227051 25.02135276794434 28.70754623413086 24.83917999267578 L 28.48689842224121 24.77973747253418 L 27.56203842163086 26.39872932434082 C 27.29382705688477 26.86824989318848 26.84693717956543 27.20915031433105 26.32323837280273 27.34374046325684 L 25.56006240844727 27.53986740112305 L 25.42769622802734 27.74890899658203 C 25.39883804321289 27.79448890686035 25.36814880371094 27.8388786315918 25.33569717407227 27.8819694519043 L 24.43912696838379 29.07271957397461 C 24.31984710693359 29.23112869262695 24.17768669128418 29.37091827392578 24.01728820800781 29.48751068115234 L 19.5781364440918 32.714111328125 L 19.80255317687988 34.16812896728516 L 19.81420135498047 34.22482299804688 C 19.83177375793457 34.30697631835938 19.8442268371582 34.39046096801758 19.85134506225586 34.47467041015625 C 19.87400817871094 34.74078369140625 19.8426570892334 35.00253295898438 19.76493835449219 35.24705123901367 L 19.1929931640625 37.14846038818359 L 19.22590827941895 37.99953842163086 C 19.22689819335938 38.02529144287109 19.22739791870117 38.05105972290039 19.22739791870117 38.07682800292969 L 19.22739791870117 38.31438827514648 C 19.22739791870117 38.7982292175293 19.05199813842773 39.26567077636719 18.73370742797852 39.63006973266602 L 16.76408767700195 41.88507080078125 L 16.63401794433594 42.30961990356445 C 16.39303779602051 43.09616088867188 15.69503784179688 43.65493011474609 14.87482833862305 43.71788787841797 L 13.53518676757812 43.82072830200195 C 12.90582466125488 43.86904907226562 12.29057884216309 43.61740875244141 11.87545776367188 43.14189910888672 L 11.12046813964844 42.27706909179688 C 10.93378829956055 42.06322860717773 10.79476737976074 41.81211090087891 10.71264839172363 41.54039764404297 L 9.823978424072266 38.60013198852539 L 9.215255737304688 37.42945098876953 C 9.167556762695312 37.33771896362305 9.127048492431641 37.242431640625 9.094078063964844 37.14443969726562 L 6.237617492675781 28.65266036987305 C 6.171237945556641 28.4553108215332 6.136077880859375 28.24880981445312 6.133407592773438 28.04061889648438 L 6.109836578369141 26.20004463195801 C 5.50555419921875 26.33943748474121 4.851860046386719 26.19383430480957 4.356708526611328 25.76873970031738 L 2.152248382568359 23.87619972229004 C 1.654346466064453 23.44874954223633 1.397808074951172 22.80426025390625 1.465778350830078 22.15157890319824 L 1.493816375732422 21.8823184967041 L 0.8446693420410156 21.20459938049316 C 0.4736976623535156 20.81729888916016 0.2738075256347656 20.2972297668457 0.2898979187011719 19.76116943359375 C 0.3059883117675781 19.2251091003418 0.5366859436035156 18.71796035766602 0.9302177429199219 18.35359954833984 L 1.692058563232422 17.64822959899902 C 1.991279602050781 17.37119102478027 2.36383056640625 17.19575309753418 2.757720947265625 17.13737297058105 L 2.489639282226562 16.69229888916016 C 2.0728759765625 16.00038909912109 2.113227844238281 15.12569999694824 2.5919189453125 14.47509956359863 L 3.786247253417969 12.85185050964355 C 4.203227996826172 12.28511810302734 4.887344360351562 11.97920036315918 5.587726593017578 12.04621887207031 L 6.347885131835938 12.11896896362305 L 8.849342346191406 8.721366882324219 C 8.402015686035156 8.338855743408203 8.141376495361328 7.773639678955078 8.149486541748047 7.174350738525391 L 8.177959442138672 5.070999145507812 C 8.178794860839844 5.009059906005859 8.182472229003906 4.94769287109375 8.188869476318359 4.887062072753906 L 8.070945739746094 4.799030303955078 C 7.639328002929688 4.476818084716797 7.355918884277344 3.994140625 7.284847259521484 3.460220336914062 C 7.213787078857422 2.926300048828125 7.361087799072266 2.386287689208984 7.693397521972656 1.962398529052734 L 8.493976593017578 0.9412193298339844 C 8.842987060546875 0.4960479736328125 9.364177703857422 0.2194900512695312 9.928466796875 0.1800384521484375 L 12.43411827087402 0.004871368408203125 C 12.48070907592773 0.001613616943359375 12.52731132507324 -3.814697265625e-06 12.57370567321777 -3.814697265625e-06 Z" stroke="none" fill="#fff"/>
  </g>
</svg>
