<svg xmlns="http://www.w3.org/2000/svg" xmlns:xlink="http://www.w3.org/1999/xlink" width="247.729" height="282.608" viewBox="0 0 247.729 282.608">
  <defs>
    <clipPath id="clip-path">
      <rect id="Rectangle_1792" data-name="Rectangle 1792" width="243.42" height="282.608" fill="none"/>
    </clipPath>
    <clipPath id="clip-path-2">
      <rect id="Rectangle_1796" data-name="Rectangle 1796" width="59.109" height="63.74" fill="#c7222a"/>
    </clipPath>
  </defs>
  <g id="Group_1983" data-name="Group 1983" transform="translate(-991.29 -488.392)">
    <g id="Group_1970" data-name="Group 1970" transform="translate(991.29 488.392)">
      <g id="Group_1969" data-name="Group 1969" clip-path="url(#clip-path)">
        <path id="Path_8137" data-name="Path 8137" d="M263.776,217.6c-.625-2.181-52.812-67.825-61.01-77.524a16.029,16.029,0,0,0-3.631-3.3c-.915-.56-6.234-1.233-6.661-.283-4.652,10.333-3.921,47.427.66,57.605,5.131,11.4,41.676,42.985,43.542,42.729,9.929-1.362,29.746-10.664,27.1-19.23" transform="translate(-21.041 -15.117)" fill="#fff"/>
        <path id="Path_8138" data-name="Path 8138" d="M263.776,217.6c-.625-2.181-52.812-67.825-61.01-77.524a16.029,16.029,0,0,0-3.631-3.3c-.915-.56-6.234-1.233-6.661-.283-4.652,10.333-3.921,47.427.66,57.605,5.131,11.4,41.676,42.985,43.542,42.729C246.6,235.472,266.421,226.17,263.776,217.6Z" transform="translate(-21.041 -15.117)" fill="none" stroke="#000" stroke-width="1"/>
        <path id="Path_8139" data-name="Path 8139" d="M98.423,134.579V43.612a25.468,25.468,0,0,1,25.393-25.393h28.74a25.468,25.468,0,0,1,25.393,25.393v90.967c0,13.966-79.526,13.966-79.526,0" transform="translate(-10.939 -2.025)" fill="#fff"/>
        <path id="Path_8140" data-name="Path 8140" d="M98.423,134.579V43.612a25.468,25.468,0,0,1,25.393-25.393h28.74a25.468,25.468,0,0,1,25.393,25.393v90.967C177.949,148.545,98.423,148.545,98.423,134.579Z" transform="translate(-10.939 -2.025)" fill="none" stroke="#000" stroke-width="1"/>
        <path id="Path_8141" data-name="Path 8141" d="M168.93,138.075c0,9.731-18.054,48.274-27.644,48.274S114.5,147.806,114.5,138.075s12.185-8.01,27.215-8.01,27.214-1.722,27.214,8.01" transform="translate(-12.726 -14.442)" fill="#fff"/>
        <path id="Path_8142" data-name="Path 8142" d="M168.93,138.075c0,9.731-18.054,48.274-27.644,48.274S114.5,147.806,114.5,138.075s12.185-8.01,27.215-8.01S168.93,128.344,168.93,138.075Z" transform="translate(-12.726 -14.442)" fill="none" stroke="#000" stroke-width="1"/>
        <path id="Path_8143" data-name="Path 8143" d="M142.447,152.473h0c-10.154,0-22.246-7.607-22.246-18.462l8.514-32.077c0-10.776,27.465-10.776,27.465,0l8.513,32.077c0,10.855-12.091,18.462-22.245,18.462" transform="translate(-13.359 -10.431)" fill="#fff"/>
        <path id="Path_8144" data-name="Path 8144" d="M142.447,152.473h0c-10.154,0-22.246-7.607-22.246-18.462l8.514-32.077c0-10.776,27.465-10.776,27.465,0l8.513,32.077C164.692,144.866,152.6,152.473,142.447,152.473Z" transform="translate(-13.359 -10.431)" fill="none" stroke="#000" stroke-width="1"/>
        <path id="Path_8145" data-name="Path 8145" d="M102.58,255.912c.347,1.827-11.927,25.012-11.457,26.838,0,0,35.443,5.367,48.024,5.367s47.737-5.367,47.737-5.367c.469-1.827-11.8-25.013-11.457-26.84,0,0,4.228-39.757,5.341-46.482,1.184-7.151,10.295-27.451,6.45-47.313,0,0,2.431-17.162,1.3-24.992-8.754-9.454-19.119-11.871-31.283-15.836l1.679,16.313c-2.444,11.441-19.551,24.7-19.551,24.7s-17.495-13.794-20.112-25.382l1.524-15.629c-12.163,3.965-22.529,6.382-31.283,15.836-1.132,7.83,1.3,24.992,1.3,24.992-3.91,16.561,5.266,40.162,6.45,47.313,1.114,6.725,5.341,46.482,5.341,46.482" transform="translate(-9.912 -13.48)" fill="#fff"/>
        <path id="Path_8146" data-name="Path 8146" d="M102.58,255.912c.347,1.827-11.927,25.012-11.457,26.838,0,0,35.443,5.367,48.024,5.367s47.737-5.367,47.737-5.367c.469-1.827-11.8-25.013-11.457-26.84,0,0,4.228-39.757,5.341-46.482,1.184-7.151,10.295-27.451,6.45-47.313,0,0,2.431-17.162,1.3-24.992-8.754-9.454-19.119-11.871-31.283-15.836l1.679,16.313c-2.444,11.441-19.551,24.7-19.551,24.7s-17.495-13.794-20.112-25.382l1.524-15.629c-12.163,3.965-22.529,6.382-31.283,15.836-1.132,7.83,1.3,24.992,1.3,24.992-3.91,16.561,5.266,40.162,6.45,47.313C98.352,216.155,102.58,255.912,102.58,255.912Z" transform="translate(-9.912 -13.48)" fill="none" stroke="#000" stroke-width="1"/>
        <path id="Path_8147" data-name="Path 8147" d="M174.885,88.361a42.106,42.106,0,0,0,9.655-4.1,14.817,14.817,0,0,0,6.492-7.988c.986-3.365.135-7.376-2.6-9.575s-6.852-1.531-9.332.948c-1.192,1.193-6.274,21.389-4.219,20.712" transform="translate(-19.383 -7.265)" fill="#fff"/>
        <path id="Path_8148" data-name="Path 8148" d="M174.885,88.361a42.106,42.106,0,0,0,9.655-4.1,14.817,14.817,0,0,0,6.492-7.988c.986-3.365.135-7.376-2.6-9.575s-6.852-1.531-9.332.948C177.912,68.842,172.83,89.038,174.885,88.361Z" transform="translate(-19.383 -7.265)" fill="none" stroke="#000" stroke-width="1"/>
        <path id="Path_8149" data-name="Path 8149" d="M111.964,88.361a42.105,42.105,0,0,1-9.655-4.1,14.817,14.817,0,0,1-6.492-7.988c-.986-3.365-.135-7.376,2.6-9.575s6.852-1.531,9.332.948c1.192,1.193,6.274,21.389,4.219,20.712" transform="translate(-10.605 -7.265)" fill="#fff"/>
        <path id="Path_8150" data-name="Path 8150" d="M111.964,88.361a42.105,42.105,0,0,1-9.655-4.1,14.817,14.817,0,0,1-6.492-7.988c-.986-3.365-.135-7.376,2.6-9.575s6.852-1.531,9.332.948C108.937,68.842,114.019,89.038,111.964,88.361Z" transform="translate(-10.605 -7.265)" fill="none" stroke="#000" stroke-width="1"/>
        <path id="Path_8151" data-name="Path 8151" d="M143.389,9.954c-.575-.028-6.04-.028-6.615,0-17.622.852-34.251,3.82-31.675,31.433,0,0,2.759,31.7,4.3,37.837.78,3.113,2.837,6.058,4.644,8.649a60.811,60.811,0,0,0,9.546,10.82c4.425,3.9,9.706,7.275,15.716,7.275a22.462,22.462,0,0,0,13.938-4.6A53.943,53.943,0,0,0,164.112,90.6a42.32,42.32,0,0,0,6.21-10.051,10.638,10.638,0,0,0,.444-1.322c1.538-6.136,4.3-37.837,4.3-37.837,2.576-27.612-14.052-30.581-31.675-31.433" transform="translate(-11.651 -1.104)" fill="#fff"/>
        <path id="Path_8152" data-name="Path 8152" d="M143.389,9.954c-.575-.028-6.04-.028-6.615,0-17.622.852-34.251,3.82-31.675,31.433,0,0,2.759,31.7,4.3,37.837.78,3.113,2.837,6.058,4.644,8.649a60.811,60.811,0,0,0,9.546,10.82c4.425,3.9,9.706,7.275,15.716,7.275a22.462,22.462,0,0,0,13.938-4.6A53.943,53.943,0,0,0,164.112,90.6a42.32,42.32,0,0,0,6.21-10.051,10.638,10.638,0,0,0,.444-1.322c1.538-6.136,4.3-37.837,4.3-37.837C177.64,13.775,161.012,10.806,143.389,9.954Z" transform="translate(-11.651 -1.104)" fill="none" stroke="#000" stroke-width="1"/>
        <path id="Path_8153" data-name="Path 8153" d="M98.994,58.83a9.38,9.38,0,0,0,9.9.24,25.29,25.29,0,0,0,8.21-7.74c3.878-5.536,7.353-11.391,11.86-16.428s10.262-9.293,16.913-10.495a18.316,18.316,0,0,1,15.058,3.858q1.323,6.652,2.644,13.3c.693,3.486,2.966,10.217,5.056,13.091s5.719,4.736,9.052,3.5c0,0,7.306-43.406-16.132-46.05,0,0-3.616-6.015-14.365-9.577C133.083-2.144,102.238-.485,97.379,26.29,93.728,46.4,98.994,58.83,98.994,58.83" transform="translate(-10.679 -0.055)" fill="#fff"/>
        <path id="Path_8154" data-name="Path 8154" d="M98.994,58.83a9.38,9.38,0,0,0,9.9.24,25.29,25.29,0,0,0,8.21-7.74c3.878-5.536,7.353-11.391,11.86-16.428s10.262-9.293,16.913-10.495a18.316,18.316,0,0,1,15.058,3.858q1.323,6.652,2.644,13.3c.693,3.486,2.966,10.217,5.056,13.091s5.719,4.736,9.052,3.5c0,0,7.306-43.406-16.132-46.05,0,0-3.616-6.015-14.365-9.577C133.083-2.144,102.238-.485,97.379,26.29,93.728,46.4,98.994,58.83,98.994,58.83Z" transform="translate(-10.679 -0.055)" fill="none" stroke="#000" stroke-width="1"/>
        <path id="Path_8155" data-name="Path 8155" d="M12.947,215.514c.625-2.181,57.125-68.834,65.322-78.534a16.028,16.028,0,0,1,3.631-3.3c.916-.56,6.234-1.232,6.662-.282,4.652,10.332,3.921,47.426-.66,57.6-5.131,11.4-41.677,42.985-43.542,42.729-9.929-1.362-34.06-9.654-31.414-18.221" transform="translate(-1.417 -14.773)" fill="#fff"/>
        <path id="Path_8156" data-name="Path 8156" d="M12.947,215.514c.625-2.181,57.125-68.834,65.322-78.534a16.028,16.028,0,0,1,3.631-3.3c.916-.56,6.234-1.232,6.662-.282,4.652,10.332,3.921,47.426-.66,57.6-5.131,11.4-41.677,42.985-43.542,42.729C34.432,232.373,10.3,224.081,12.947,215.514Z" transform="translate(-1.417 -14.773)" fill="none" stroke="#000" stroke-width="1"/>
        <path id="Path_8157" data-name="Path 8157" d="M80.094,289.908l49.2,5.693a5.239,5.239,0,0,0,5.634-3.747l3.05-10.535,3.329,10.649a5.24,5.24,0,0,0,5.606,3.641l48.974-5.7c.456-1.484-17.037-35.436-17.037-53.386a101.964,101.964,0,0,1,4.567-26.468c2.651-8.81,9.213-18.717,9.925-28.168.547-7.26-3.107-14.252-4.9-20.271,0,0,.776-17.359-.37-25.278-8.854-9.562-19.687-11.083-31.85-15.049L157.9,137.6c-2.443,11.44-13.464,94.1-20.95,94.1s-16.095-83.192-18.713-94.781l1.525-15.628c-12.163,3.965-23,5.486-31.85,15.048-1.146,7.92-.37,25.278-.37,25.278-1.752,6.178-5.41,13.194-4.885,20.421.7,9.611,7.274,19.593,9.969,28.474,3.908,12.873,5.016,23.422,5.016,27.173,0,20.092-18.012,50.717-17.549,52.224" transform="translate(-8.901 -13.48)" fill="#99a26f"/>
        <path id="Path_8158" data-name="Path 8158" d="M80.094,289.908l49.2,5.693a5.239,5.239,0,0,0,5.634-3.747l3.05-10.535,3.329,10.649a5.24,5.24,0,0,0,5.606,3.641l48.974-5.7c.456-1.484-17.037-35.436-17.037-53.386a101.964,101.964,0,0,1,4.567-26.468c2.651-8.81,9.213-18.717,9.925-28.168.547-7.26-3.107-14.252-4.9-20.271,0,0,.776-17.359-.37-25.278-8.854-9.562-19.687-11.083-31.85-15.049L157.9,137.6c-2.443,11.44-13.464,94.1-20.95,94.1s-16.095-83.192-18.713-94.781l1.525-15.628c-12.163,3.965-23,5.486-31.85,15.048-1.146,7.92-.37,25.278-.37,25.278-1.752,6.178-5.41,13.194-4.885,20.421.7,9.611,7.274,19.593,9.969,28.474,3.908,12.873,5.016,23.422,5.016,27.173C97.643,257.775,79.631,288.4,80.094,289.908Z" transform="translate(-8.901 -13.48)" fill="none" stroke="#000" stroke-width="1"/>
        <path id="Path_8159" data-name="Path 8159" d="M148.159,160.381c5.768-3.83,12.469-7.965,19.06-5.845,5.14,1.653,3.54,6.591,5.914,11.19-1.448-10.873,1.847-21.746.122-32.619-.472-2.976-.972-6.033-2.506-8.627s-4.359-4.657-7.36-4.381c0,0,1.609,14.781.626,17.947s-17.855,23.663-15.856,22.336" transform="translate(-16.448 -13.345)" fill="#fff"/>
        <path id="Path_8160" data-name="Path 8160" d="M148.159,160.381c5.768-3.83,12.469-7.965,19.06-5.845,5.14,1.653,3.54,6.591,5.914,11.19-1.448-10.873,1.847-21.746.122-32.619-.472-2.976-.972-6.033-2.506-8.627s-4.359-4.657-7.36-4.381c0,0,1.609,14.781.626,17.947S146.16,161.708,148.159,160.381Z" transform="translate(-16.448 -13.345)" fill="none" stroke="#000" stroke-width="1"/>
        <path id="Path_8161" data-name="Path 8161" d="M139.352,159.94c-5.768-3.83-12.72-7.954-19.311-5.834-5.14,1.654-3.54,6.591-5.914,11.191,1.448-10.873-1.847-21.747-.122-32.619.472-2.977.972-6.034,2.506-8.628s4.359-4.657,7.361-4.381c0,0-1.61,14.781-.627,17.948s18.105,23.652,16.106,22.325" transform="translate(-12.613 -13.297)" fill="#fff"/>
        <path id="Path_8162" data-name="Path 8162" d="M139.352,159.94c-5.768-3.83-12.72-7.954-19.311-5.834-5.14,1.654-3.54,6.591-5.914,11.191,1.448-10.873-1.847-21.747-.122-32.619.472-2.977.972-6.034,2.506-8.628s4.359-4.657,7.361-4.381c0,0-1.61,14.781-.627,17.948S141.351,161.267,139.352,159.94Z" transform="translate(-12.613 -13.297)" fill="none" stroke="#000" stroke-width="1"/>
        <path id="Path_8163" data-name="Path 8163" d="M261.882,230.693c.769,6.034-4.538,17.087-9.253,17.661-9.431,1.148-78.544,10.3-78.544,10.3a14.556,14.556,0,0,1-1.892-3.829,9.492,9.492,0,0,1,.287-6.715c15.653-5.893,36.059-13.856,52.276-20.041" transform="translate(-19.085 -25.347)" fill="#fff"/>
        <path id="Path_8164" data-name="Path 8164" d="M261.882,230.693c.769,6.034-4.538,17.087-9.253,17.661-9.431,1.148-78.544,10.3-78.544,10.3a14.556,14.556,0,0,1-1.892-3.829,9.492,9.492,0,0,1,.287-6.715c15.653-5.893,36.059-13.856,52.276-20.041" transform="translate(-19.085 -25.347)" fill="none" stroke="#000" stroke-width="1"/>
        <path id="Path_8165" data-name="Path 8165" d="M188.39,52.453a44.822,44.822,0,0,0-1.843-9.537,43.045,43.045,0,0,0-10.363-17.967l2.44-2.44a46.524,46.524,0,0,1,11.26,19.519,47.291,47.291,0,0,1,1.954,10.261Z" transform="translate(-19.581 -2.502)" fill="#99a26f"/>
        <path id="Path_8166" data-name="Path 8166" d="M188.39,52.453a44.822,44.822,0,0,0-1.843-9.537,43.045,43.045,0,0,0-10.363-17.967l2.44-2.44a46.524,46.524,0,0,1,11.26,19.519,47.291,47.291,0,0,1,1.954,10.261Z" transform="translate(-19.581 -2.502)" fill="none" stroke="#000" stroke-width="1"/>
        <path id="Path_8167" data-name="Path 8167" d="M188.488,67.9c0,9.475.191,17.086-3.053,17.086S181.8,77.3,181.8,67.828s.394-17.157,3.638-17.157,3.053,7.753,3.053,17.228" transform="translate(-20.205 -5.632)" fill="#99a26f"/>
        <path id="Path_8168" data-name="Path 8168" d="M188.488,67.9c0,9.475.191,17.086-3.053,17.086S181.8,77.3,181.8,67.828s.394-17.157,3.638-17.157S188.488,58.424,188.488,67.9Z" transform="translate(-20.205 -5.632)" fill="none" stroke="#000" stroke-width="1"/>
        <path id="Path_8169" data-name="Path 8169" d="M193.21,82.894h0a2.225,2.225,0,0,0,2.225-2.225V58.1a2.224,2.224,0,0,0-2.225-2.224Z" transform="translate(-21.473 -6.21)" fill="#fff"/>
        <path id="Path_8170" data-name="Path 8170" d="M193.21,82.894h0a2.225,2.225,0,0,0,2.225-2.225V58.1a2.224,2.224,0,0,0-2.225-2.224Z" transform="translate(-21.473 -6.21)" fill="none" stroke="#000" stroke-width="1"/>
        <rect id="Rectangle_1788" data-name="Rectangle 1788" width="6.019" height="28.351" transform="translate(166.985 49.142)" fill="#99a26f"/>
        <rect id="Rectangle_1789" data-name="Rectangle 1789" width="6.019" height="28.351" transform="translate(166.985 49.142)" fill="none" stroke="#000" stroke-width="1"/>
        <path id="Path_8171" data-name="Path 8171" d="M97.991,52.453a44.851,44.851,0,0,1,1.843-9.537A43.057,43.057,0,0,1,110.2,24.949l-2.44-2.44A46.514,46.514,0,0,0,96.5,42.028a47.225,47.225,0,0,0-1.954,10.261Z" transform="translate(-10.508 -2.502)" fill="#99a26f"/>
        <path id="Path_8172" data-name="Path 8172" d="M97.991,52.453a44.851,44.851,0,0,1,1.843-9.537A43.057,43.057,0,0,1,110.2,24.949l-2.44-2.44A46.514,46.514,0,0,0,96.5,42.028a47.225,47.225,0,0,0-1.954,10.261Z" transform="translate(-10.508 -2.502)" fill="none" stroke="#000" stroke-width="1"/>
        <path id="Path_8173" data-name="Path 8173" d="M124.313,99.146h0l-9.2-.04h-.154c-5.935,0-8.631-1.209-10.319-2.265A11.77,11.77,0,0,1,99.4,85.132a.474.474,0,0,1,.935.161,10.8,10.8,0,0,0,4.805,10.745c3.016,1.888,6.735,2.133,9.969,2.12l9.2.039a.475.475,0,0,1,0,.949" transform="translate(-11.03 -9.418)" fill="#ab1b2d"/>
        <path id="Path_8174" data-name="Path 8174" d="M124.313,99.146h0l-9.2-.04h-.154c-5.935,0-8.631-1.209-10.319-2.265A11.77,11.77,0,0,1,99.4,85.132a.474.474,0,0,1,.935.161,10.8,10.8,0,0,0,4.805,10.745c3.016,1.888,6.735,2.133,9.969,2.12l9.2.039a.475.475,0,0,1,0,.949Z" transform="translate(-11.03 -9.418)" fill="none" stroke="#000" stroke-width="1"/>
        <path id="Path_8175" data-name="Path 8175" d="M130.048,100.236c0,1.488-1.986,2.694-4.435,2.694s-4.435-1.206-4.435-2.694,1.986-2.694,4.435-2.694,4.435,1.206,4.435,2.694" transform="translate(-13.468 -10.841)" fill="#99a26f"/>
        <path id="Path_8176" data-name="Path 8176" d="M130.048,100.236c0,1.488-1.986,2.694-4.435,2.694s-4.435-1.206-4.435-2.694,1.986-2.694,4.435-2.694S130.048,98.748,130.048,100.236Z" transform="translate(-13.468 -10.841)" fill="none" stroke="#000" stroke-width="1"/>
        <path id="Path_8177" data-name="Path 8177" d="M99.653,67.9c0,9.475-.191,17.086,3.053,17.086s3.638-7.682,3.638-17.157-.394-17.157-3.638-17.157S99.653,58.424,99.653,67.9" transform="translate(-11.075 -5.632)" fill="#99a26f"/>
        <path id="Path_8178" data-name="Path 8178" d="M99.653,67.9c0,9.475-.191,17.086,3.053,17.086s3.638-7.682,3.638-17.157-.394-17.157-3.638-17.157S99.653,58.424,99.653,67.9Z" transform="translate(-11.075 -5.632)" fill="none" stroke="#000" stroke-width="1"/>
        <path id="Path_8179" data-name="Path 8179" d="M95.49,82.894h0a2.225,2.225,0,0,1-2.225-2.225V58.1a2.225,2.225,0,0,1,2.225-2.225Z" transform="translate(-10.365 -6.21)" fill="#fff"/>
        <path id="Path_8180" data-name="Path 8180" d="M95.49,82.894h0a2.225,2.225,0,0,1-2.225-2.225V58.1a2.225,2.225,0,0,1,2.225-2.225Z" transform="translate(-10.365 -6.21)" fill="none" stroke="#000" stroke-width="1"/>
        <rect id="Rectangle_1790" data-name="Rectangle 1790" width="6.019" height="28.351" transform="translate(83.857 49.142)" fill="#99a26f"/>
        <rect id="Rectangle_1791" data-name="Rectangle 1791" width="6.019" height="28.351" transform="translate(83.857 49.142)" fill="none" stroke="#000" stroke-width="1"/>
        <path id="Path_8181" data-name="Path 8181" d="M175.063,25.387a43.026,43.026,0,0,0-70.617.126l4.894,2.013a37.848,37.848,0,0,1,60.823-.124Z" transform="translate(-11.608 -0.779)" fill="#99a26f"/>
        <path id="Path_8182" data-name="Path 8182" d="M175.063,25.387a43.026,43.026,0,0,0-70.617.126l4.894,2.013a37.848,37.848,0,0,1,60.823-.124Z" transform="translate(-11.608 -0.779)" fill="none" stroke="#000" stroke-width="1"/>
        <path id="Path_8183" data-name="Path 8183" d="M167.622,254.634a16.162,16.162,0,0,0,3.773-4.866s1.545-8.322,2.122-8.276c1.084.084,17.825,10.113,17.34,12.077s-19.277,6.418-23.235,1.065" transform="translate(-18.629 -26.839)" fill="#fff"/>
        <path id="Path_8184" data-name="Path 8184" d="M167.622,254.634a16.162,16.162,0,0,0,3.773-4.866s1.545-8.322,2.122-8.276c1.084.084,17.825,10.113,17.34,12.077S171.58,259.987,167.622,254.634Z" transform="translate(-18.629 -26.839)" fill="none" stroke="#000" stroke-width="1"/>
        <path id="Path_8185" data-name="Path 8185" d="M175.221,250.769c-3.121.423-6.362,1.449-7.579,3.964a6.168,6.168,0,0,0,.932,6.537,11.776,11.776,0,0,0,10.64,1.318,11.2,11.2,0,0,0,8.576.647,5.979,5.979,0,0,0,2.972-1.994,2.8,2.8,0,0,0,.167-3.176,15.912,15.912,0,0,0-15.708-7.3" transform="translate(-18.57 -27.852)" fill="#fff"/>
        <path id="Path_8186" data-name="Path 8186" d="M175.221,250.769c-3.121.423-6.362,1.449-7.579,3.964a6.168,6.168,0,0,0,.932,6.537,11.776,11.776,0,0,0,10.64,1.318,11.2,11.2,0,0,0,8.576.647,5.979,5.979,0,0,0,2.972-1.994,2.8,2.8,0,0,0,.167-3.176A15.912,15.912,0,0,0,175.221,250.769Z" transform="translate(-18.57 -27.852)" fill="none" stroke="#000" stroke-width="1"/>
        <path id="Path_8187" data-name="Path 8187" d="M169.573,252.166a33.332,33.332,0,0,1-5.708,2.341,41.087,41.087,0,0,1-8.392.6c-1.457-.113-3.352,4.172,2.965,5.6s8.265-.641,12.115.592,2.046-8.9-.98-9.133" transform="translate(-17.118 -28.025)" fill="#fff"/>
        <path id="Path_8188" data-name="Path 8188" d="M169.573,252.166a33.332,33.332,0,0,1-5.708,2.341,41.087,41.087,0,0,1-8.392.6c-1.457-.113-3.352,4.172,2.965,5.6s8.265-.641,12.115.592S172.6,252.4,169.573,252.166Z" transform="translate(-17.118 -28.025)" fill="none" stroke="#000" stroke-width="1"/>
        <path id="Path_8189" data-name="Path 8189" d="M180.755,245.543s.127,5.789.071,6.507-.656,4.717-.812,6.728,3.045,3.56,4.74-1.509c1.179-3.789,1.446-4.752,1.575-6.411s.228-6.628-.8-7.833-5.187-1.431-4.771,2.518" transform="translate(-20.006 -26.924)" fill="#fff"/>
        <path id="Path_8190" data-name="Path 8190" d="M180.755,245.543s.127,5.789.071,6.507-.656,4.717-.812,6.728,3.045,3.56,4.74-1.509c1.179-3.789,1.446-4.752,1.575-6.411s.228-6.628-.8-7.833S180.339,241.594,180.755,245.543Z" transform="translate(-20.006 -26.924)" fill="none" stroke="#000" stroke-width="1"/>
        <path id="Path_8191" data-name="Path 8191" d="M186.39,250.735s-.106,5.168-.19,5.8-.844,4.163-1.082,5.945,2.9,3.364,4.79-1.047c1.327-3.3,1.633-4.145,1.828-5.615s.492-5.894-.486-7.032-5.115-1.6-4.86,1.945" transform="translate(-20.572 -27.558)" fill="#fff"/>
        <path id="Path_8192" data-name="Path 8192" d="M186.39,250.735s-.106,5.168-.19,5.8-.844,4.163-1.082,5.945,2.9,3.364,4.79-1.047c1.327-3.3,1.633-4.145,1.828-5.615s.492-5.894-.486-7.032S186.135,247.189,186.39,250.735Z" transform="translate(-20.572 -27.558)" fill="none" stroke="#000" stroke-width="1"/>
        <path id="Path_8193" data-name="Path 8193" d="M191.413,253.909s-.016,4.238-.084,4.759-.727,3.4-.921,4.859,2.778,2.807,4.488-.781c1.195-2.689,1.468-3.373,1.628-4.577s.368-4.827-.572-5.777-4.837-1.4-4.539,1.516" transform="translate(-21.161 -27.971)" fill="#fff"/>
        <path id="Path_8194" data-name="Path 8194" d="M191.413,253.909s-.016,4.238-.084,4.759-.727,3.4-.921,4.859,2.778,2.807,4.488-.781c1.195-2.689,1.468-3.373,1.628-4.577s.368-4.827-.572-5.777S191.115,251,191.413,253.909Z" transform="translate(-21.161 -27.971)" fill="none" stroke="#000" stroke-width="1"/>
        <path id="Path_8195" data-name="Path 8195" d="M173.5,241.035s.085,6.064.026,6.823-1,4.628-1.166,6.754,3.857,4.508,5.649-.852c1.245-4.006,1.529-5.024,1.665-6.778s.241-7.009-.848-8.281-5.763-1.841-5.325,2.335" transform="translate(-19.155 -26.425)" fill="#fff"/>
        <path id="Path_8196" data-name="Path 8196" d="M173.5,241.035s.085,6.064.026,6.823-1,4.628-1.166,6.754,3.857,4.508,5.649-.852c1.245-4.006,1.529-5.024,1.665-6.778s.241-7.009-.848-8.281S173.058,236.86,173.5,241.035Z" transform="translate(-19.155 -26.425)" fill="none" stroke="#000" stroke-width="1"/>
        <path id="Path_8197" data-name="Path 8197" d="M39.181,219.926c-17.144-2.125-25.8,4.635-26.392,9.293-.768,6.034,8.851,16.078,13.567,16.652,9.43,1.147,78.544,10.3,78.544,10.3a14.556,14.556,0,0,0,1.892-3.829,9.492,9.492,0,0,0-.287-6.715c-21.108-7.946-50.859-19.657-67.324-25.7" transform="translate(-1.416 -24.398)" fill="#fff"/>
        <path id="Path_8198" data-name="Path 8198" d="M39.181,219.926c-17.144-2.125-25.8,4.635-26.392,9.293-.768,6.034,8.851,16.078,13.567,16.652,9.43,1.147,78.544,10.3,78.544,10.3a14.556,14.556,0,0,0,1.892-3.829,9.492,9.492,0,0,0-.287-6.715C85.4,237.675,55.646,225.965,39.181,219.926Z" transform="translate(-1.416 -24.398)" fill="none" stroke="#000" stroke-width="1"/>
        <path id="Path_8199" data-name="Path 8199" d="M120.274,252.907a16.161,16.161,0,0,1-3.773-4.866s-1.546-8.322-2.122-8.276c-1.084.084-17.825,10.113-17.34,12.077s19.277,6.418,23.235,1.065" transform="translate(-10.784 -26.647)" fill="#fff"/>
        <path id="Path_8200" data-name="Path 8200" d="M120.274,252.907a16.161,16.161,0,0,1-3.773-4.866s-1.546-8.322-2.122-8.276c-1.084.084-17.825,10.113-17.34,12.077S116.315,258.26,120.274,252.907Z" transform="translate(-10.784 -26.647)" fill="none" stroke="#000" stroke-width="1"/>
        <path id="Path_8201" data-name="Path 8201" d="M112.546,249.043c3.122.423,6.362,1.449,7.579,3.964a6.166,6.166,0,0,1-.932,6.537,11.775,11.775,0,0,1-10.64,1.318,11.2,11.2,0,0,1-8.576.647,5.978,5.978,0,0,1-2.972-1.994,2.8,2.8,0,0,1-.167-3.176,15.912,15.912,0,0,1,15.708-7.3" transform="translate(-10.716 -27.66)" fill="#fff"/>
        <path id="Path_8202" data-name="Path 8202" d="M112.546,249.043c3.122.423,6.362,1.449,7.579,3.964a6.166,6.166,0,0,1-.932,6.537,11.775,11.775,0,0,1-10.64,1.318,11.2,11.2,0,0,1-8.576.647,5.978,5.978,0,0,1-2.972-1.994,2.8,2.8,0,0,1-.167-3.176A15.912,15.912,0,0,1,112.546,249.043Z" transform="translate(-10.716 -27.66)" fill="none" stroke="#000" stroke-width="1"/>
        <path id="Path_8203" data-name="Path 8203" d="M118.889,250.439a33.332,33.332,0,0,0,5.708,2.341,41.091,41.091,0,0,0,8.392.6c1.457-.113,3.352,4.172-2.965,5.6s-8.265-.641-12.115.592-2.046-8.9.98-9.133" transform="translate(-12.861 -27.834)" fill="#fff"/>
        <path id="Path_8204" data-name="Path 8204" d="M118.889,250.439a33.332,33.332,0,0,0,5.708,2.341,41.091,41.091,0,0,0,8.392.6c1.457-.113,3.352,4.172-2.965,5.6s-8.265-.641-12.115.592S115.862,250.675,118.889,250.439Z" transform="translate(-12.861 -27.834)" fill="none" stroke="#000" stroke-width="1"/>
        <path id="Path_8205" data-name="Path 8205" d="M109.247,243.816s-.127,5.789-.071,6.507.656,4.717.812,6.728-3.045,3.56-4.74-1.509c-1.179-3.789-1.446-4.752-1.575-6.411s-.228-6.628.8-7.833,5.187-1.431,4.771,2.518" transform="translate(-11.513 -26.732)" fill="#fff"/>
        <path id="Path_8206" data-name="Path 8206" d="M109.247,243.816s-.127,5.789-.071,6.507.656,4.717.812,6.728-3.045,3.56-4.74-1.509c-1.179-3.789-1.446-4.752-1.575-6.411s-.228-6.628.8-7.833S109.662,239.867,109.247,243.816Z" transform="translate(-11.513 -26.732)" fill="none" stroke="#000" stroke-width="1"/>
        <path id="Path_8207" data-name="Path 8207" d="M103.557,249.009s.106,5.168.19,5.8.844,4.163,1.082,5.945-2.9,3.364-4.79-1.047c-1.327-3.3-1.633-4.145-1.828-5.615s-.492-5.894.486-7.032,5.115-1.6,4.86,1.945" transform="translate(-10.893 -27.366)" fill="#fff"/>
        <path id="Path_8208" data-name="Path 8208" d="M103.557,249.009s.106,5.168.19,5.8.844,4.163,1.082,5.945-2.9,3.364-4.79-1.047c-1.327-3.3-1.633-4.145-1.828-5.615s-.492-5.894.486-7.032S103.813,245.463,103.557,249.009Z" transform="translate(-10.893 -27.366)" fill="none" stroke="#000" stroke-width="1"/>
        <path id="Path_8209" data-name="Path 8209" d="M98.606,252.183s.016,4.238.084,4.759.727,3.4.921,4.859-2.778,2.807-4.488-.781c-1.195-2.689-1.468-3.373-1.628-4.577s-.368-4.827.572-5.777,4.837-1.4,4.539,1.516" transform="translate(-10.375 -27.779)" fill="#fff"/>
        <path id="Path_8210" data-name="Path 8210" d="M98.606,252.183s.016,4.238.084,4.759.727,3.4.921,4.859-2.778,2.807-4.488-.781c-1.195-2.689-1.468-3.373-1.628-4.577s-.368-4.827.572-5.777S98.9,249.27,98.606,252.183Z" transform="translate(-10.375 -27.779)" fill="none" stroke="#000" stroke-width="1"/>
        <path id="Path_8211" data-name="Path 8211" d="M116.381,239.309s-.085,6.064-.026,6.823,1,4.628,1.166,6.754-3.857,4.508-5.649-.852c-1.245-4.006-1.529-5.024-1.665-6.778s-.241-7.009.848-8.282,5.763-1.841,5.325,2.335" transform="translate(-12.239 -26.233)" fill="#fff"/>
        <path id="Path_8212" data-name="Path 8212" d="M116.381,239.309s-.085,6.064-.026,6.823,1,4.628,1.166,6.754-3.857,4.508-5.649-.852c-1.245-4.006-1.529-5.024-1.665-6.778s-.241-7.009.848-8.282S116.819,235.133,116.381,239.309Z" transform="translate(-12.239 -26.233)" fill="none" stroke="#000" stroke-width="1"/>
        <path id="Path_8213" data-name="Path 8213" d="M5.178,162.507H118.654a7.809,7.809,0,0,1,7.192,5.86l18.238,80.284a4.541,4.541,0,0,1-4.529,5.86H26.079a7.807,7.807,0,0,1-7.191-5.86L.649,168.367a4.541,4.541,0,0,1,4.529-5.86" transform="translate(-0.056 -18.061)" fill="#fff"/>
        <path id="Path_8214" data-name="Path 8214" d="M5.178,162.507H118.654a7.809,7.809,0,0,1,7.192,5.86l18.238,80.284a4.541,4.541,0,0,1-4.529,5.86H26.079a7.807,7.807,0,0,1-7.191-5.86L.649,168.367A4.541,4.541,0,0,1,5.178,162.507Z" transform="translate(-0.056 -18.061)" fill="none" stroke="#000" stroke-width="1"/>
        <path id="Path_8215" data-name="Path 8215" d="M181.356,270.552H23.914a2.269,2.269,0,1,1,0-4.538H181.356a2.269,2.269,0,1,1,0,4.538" transform="translate(-2.406 -29.564)" fill="#fff"/>
        <path id="Path_8216" data-name="Path 8216" d="M181.356,270.552H23.914a2.269,2.269,0,1,1,0-4.538H181.356a2.269,2.269,0,1,1,0,4.538Z" transform="translate(-2.406 -29.564)" fill="none" stroke="#000" stroke-width="1"/>
        <path id="Path_8217" data-name="Path 8217" d="M147.748,270.552H23.914a2.269,2.269,0,1,1,0-4.538H147.748a2.269,2.269,0,1,1,0,4.538" transform="translate(-2.406 -29.564)" fill="#fff"/>
        <path id="Path_8218" data-name="Path 8218" d="M147.748,270.552H23.914a2.269,2.269,0,1,1,0-4.538H147.748a2.269,2.269,0,1,1,0,4.538Z" transform="translate(-2.406 -29.564)" fill="none" stroke="#000" stroke-width="1"/>
      </g>
    </g>
    <g id="Group_1976" data-name="Group 1976" transform="translate(1179.91 554.5)">
      <g id="Group_1975" data-name="Group 1975" clip-path="url(#clip-path-2)">
        <path id="Path_8307" data-name="Path 8307" d="M65.05,8.125l-6.734,6.262a1.373,1.373,0,0,0-.457-.083,1.565,1.565,0,0,0-.744.2l-4.078-3.21a.651.651,0,0,0-.89.138.609.609,0,0,0,.047.875l4.1,3.226a1.551,1.551,0,0,0-.048.234,1.292,1.292,0,0,0,1.309,1.462,1.662,1.662,0,0,0,1.614-1.462,1.394,1.394,0,0,0-.043-.507L65.857,9a.6.6,0,1,0-.807-.873m5.263,7.813.4-.049c.046-.006.089,0,.135,0a1.877,1.877,0,0,1,.2-.042l2.444-.3A13.946,13.946,0,0,0,59.352,0,17.948,17.948,0,0,0,41.94,15.766a15.41,15.41,0,0,0,.046,3.614A5.454,5.454,0,0,1,45.7,21.064a11.909,11.909,0,0,1-.627-5.3A14.382,14.382,0,0,1,59.025,3.132,11.184,11.184,0,0,1,70.339,15.766c-.006.058-.02.114-.027.172" transform="translate(-26.834)" fill="#c7222a"/>
        <path id="Path_8308" data-name="Path 8308" d="M10.594,83.266,17.4,73.038l.518-.777A34.784,34.784,0,0,0,19.8,69.133a7.124,7.124,0,0,0,.762-2.617,2.809,2.809,0,0,0-.281-1.8,1.216,1.216,0,0,0-1.268-.475,2.261,2.261,0,0,0-1.81,1.217,7.361,7.361,0,0,0-.735,2.814l-.107,1.158L11.812,70l.115-1.252a10.805,10.805,0,0,1,2.132-5.851A7.554,7.554,0,0,1,19.3,60.18q3.165-.4,4.663,1.131t1.206,4.72a9.751,9.751,0,0,1-1.014,3.577,39.759,39.759,0,0,1-2.522,4.106l-.381.573L15.876,82.2l7.235-.908-.351,3.817L10.28,86.676Z" transform="translate(-6.591 -38.53)" fill="#c7222a"/>
        <path id="Path_8309" data-name="Path 8309" d="M55.422,74.815l-7.416.932.345-3.755,7.8-16.446,5.4-.678L60.1,70.608l2.382-.3-.337,3.661-2.382.3-.546,5.946-4.341.545Zm.336-3.661.989-10.765L52.02,71.623Z" transform="translate(-30.778 -35.177)" fill="#c7222a"/>
        <path id="Path_8310" data-name="Path 8310" d="M96.174,50.795l2.683-.337L89.2,76.725l-2.653.333Z" transform="translate(-55.489 -32.349)" fill="#c7222a"/>
        <path id="Path_8311" data-name="Path 8311" d="M126.591,50.693l-6.632.833.339-3.693,11.184-1.4-.29,3.161L124,72.423l-4.522.568Z" transform="translate(-76.599 -29.766)" fill="#c7222a"/>
      </g>
    </g>
  </g>
</svg>
