<svg id="Group_2007" data-name="Group 2007" xmlns="http://www.w3.org/2000/svg" xmlns:xlink="http://www.w3.org/1999/xlink" width="143.15" height="150.746" viewBox="0 0 143.15 150.746">
  <defs>
    <clipPath id="clip-path">
      <rect id="Rectangle_1727" data-name="Rectangle 1727" width="143.15" height="150.746" fill="none"/>
    </clipPath>
    <clipPath id="clip-path-3">
      <rect id="Rectangle_1721" data-name="Rectangle 1721" width="14.079" height="11.704" fill="none"/>
    </clipPath>
    <clipPath id="clip-path-4">
      <rect id="Rectangle_1722" data-name="Rectangle 1722" width="9.443" height="13.713" fill="none"/>
    </clipPath>
    <clipPath id="clip-path-5">
      <rect id="Rectangle_1723" data-name="Rectangle 1723" width="5.902" height="9.1" fill="none"/>
    </clipPath>
    <clipPath id="clip-path-6">
      <rect id="Rectangle_1724" data-name="Rectangle 1724" width="2.087" height="20.247" fill="none"/>
    </clipPath>
    <clipPath id="clip-path-7">
      <rect id="Rectangle_1725" data-name="Rectangle 1725" width="20.484" height="5.004" fill="none"/>
    </clipPath>
  </defs>
  <g id="Group_1835" data-name="Group 1835" clip-path="url(#clip-path)">
    <g id="Group_1834" data-name="Group 1834">
      <g id="Group_1833" data-name="Group 1833" clip-path="url(#clip-path)">
        <path id="Path_7974" data-name="Path 7974" d="M78.979,113.286c.169-.871.274-1.656.359-2.491a24.555,24.555,0,0,0,.126-2.508,14.361,14.361,0,0,0-.229-2.606,6.223,6.223,0,0,0-1.163-2.747,3.562,3.562,0,0,0-2.27-1.31,4.259,4.259,0,0,0-.822-.037A4.958,4.958,0,0,0,72.2,102.7a7.684,7.684,0,0,0-1.775,2.033,7.046,7.046,0,0,0-.974,2.512,3.054,3.054,0,0,0,.126,1.6,1.768,1.768,0,0,0,.64.811,1.856,1.856,0,0,0,.932.308,1.724,1.724,0,0,0,.98-.236,2.045,2.045,0,0,0,.634-.626,3.666,3.666,0,0,0,.5-1.336,7.376,7.376,0,0,0-.023-2.543,6.074,6.074,0,0,0-.9-2.363,2.844,2.844,0,0,0-.977-.916,2.081,2.081,0,0,0-1.337-.222,4.07,4.07,0,0,0-2.129,1.25,13.448,13.448,0,0,0-2.512,4,13.318,13.318,0,0,1,2.77-3.72,3.517,3.517,0,0,1,1.936-.952,1.653,1.653,0,0,1,1.569.993,5.2,5.2,0,0,1,.559,2.068,6.251,6.251,0,0,1-.18,2.13,2.377,2.377,0,0,1-.39.825.587.587,0,0,1-.213.174.268.268,0,0,1-.153,0c-.072-.018-.155-.056-.163-.08a.306.306,0,0,1-.046-.119,1.627,1.627,0,0,1,.054-.722,5.861,5.861,0,0,1,2.335-3.131,2.692,2.692,0,0,1,1.566-.488,1.819,1.819,0,0,1,.347.054,1.062,1.062,0,0,1,.661.491,3.836,3.836,0,0,1,.468,1.611,11.628,11.628,0,0,1,0,2.08,21.348,21.348,0,0,1-.3,2.171c-.133.715-.3,1.474-.49,2.129Z" transform="translate(-15.569 -24.188)" fill="#ffc727"/>
        <g id="Group_1820" data-name="Group 1820" transform="translate(49.816 77.393)" style="mix-blend-mode: multiply;isolation: isolate">
          <g id="Group_1819" data-name="Group 1819">
            <g id="Group_1818" data-name="Group 1818" clip-path="url(#clip-path-3)">
              <path id="Path_7975" data-name="Path 7975" d="M78.979,113.286c.169-.871.274-1.656.359-2.491a24.555,24.555,0,0,0,.126-2.508,14.361,14.361,0,0,0-.229-2.606,6.223,6.223,0,0,0-1.163-2.747,3.562,3.562,0,0,0-2.27-1.31,4.259,4.259,0,0,0-.822-.037A4.958,4.958,0,0,0,72.2,102.7a7.684,7.684,0,0,0-1.775,2.033,7.046,7.046,0,0,0-.974,2.512,3.054,3.054,0,0,0,.126,1.6,1.768,1.768,0,0,0,.64.811,1.856,1.856,0,0,0,.932.308,1.724,1.724,0,0,0,.98-.236,2.045,2.045,0,0,0,.634-.626,3.666,3.666,0,0,0,.5-1.336,7.376,7.376,0,0,0-.023-2.543,6.074,6.074,0,0,0-.9-2.363,2.844,2.844,0,0,0-.977-.916,2.081,2.081,0,0,0-1.337-.222,4.07,4.07,0,0,0-2.129,1.25,13.448,13.448,0,0,0-2.512,4,13.318,13.318,0,0,1,2.77-3.72,3.517,3.517,0,0,1,1.936-.952,1.653,1.653,0,0,1,1.569.993,5.2,5.2,0,0,1,.559,2.068,6.251,6.251,0,0,1-.18,2.13,2.377,2.377,0,0,1-.39.825.587.587,0,0,1-.213.174.268.268,0,0,1-.153,0c-.072-.018-.155-.056-.163-.08a.306.306,0,0,1-.046-.119,1.627,1.627,0,0,1,.054-.722,5.861,5.861,0,0,1,2.335-3.131,2.692,2.692,0,0,1,1.566-.488,1.819,1.819,0,0,1,.347.054,1.062,1.062,0,0,1,.661.491,3.836,3.836,0,0,1,.468,1.611,11.628,11.628,0,0,1,0,2.08,21.348,21.348,0,0,1-.3,2.171c-.133.715-.3,1.474-.49,2.129Z" transform="translate(-65.384 -101.581)" fill="#ab1b2d"/>
            </g>
          </g>
        </g>
        <path id="Path_7976" data-name="Path 7976" d="M86.653,167.147c2.27,3.208,1.809,13,3.182,14.373s15.461,1.227,16.41.421.5-4.268,1.565-4.837c.416-.222-21.156-9.957-21.156-9.957" transform="translate(-20.633 -39.8)" fill="#ffc727"/>
        <path id="Path_7977" data-name="Path 7977" d="M86.653,167.147c2.27,3.208,1.809,13,3.182,14.373s15.461,1.227,16.41.421.5-4.268,1.565-4.837c.416-.222-21.156-9.957-21.156-9.957" transform="translate(-20.633 -39.8)" fill="#fff"/>
        <path id="Path_7978" data-name="Path 7978" d="M98.753,182.655c-4.191,0-8.74-.356-9.538-1.155-.67-.669-.912-2.609-1.253-5.719s-.766-7-1.971-8.7l-.809-1.144,1.278.576c21.364,9.641,21.375,9.967,21.385,10.282l.008.237-.215.121c-.382.2-.528,1.294-.645,2.17a4.333,4.333,0,0,1-.853,2.621c-.537.457-3.834.713-7.387.713M87.18,167.673c.885,2.041,1.229,5.191,1.54,8.025.254,2.335.518,4.75,1.033,5.264.405.406,3.083.865,8,.916,4.137.037,7.486-.239,7.9-.52a4.413,4.413,0,0,0,.586-2.138,5.723,5.723,0,0,1,.626-2.364c-2.005-1.115-12.228-5.812-19.683-9.183" transform="translate(-20.283 -39.511)"/>
        <path id="Path_7979" data-name="Path 7979" d="M159.292,167.353c-2.835,4.094-1.3,12.844-2.676,14.217s-15.461,1.227-16.41.421-.515-4.455-1.076-5.149c-.3-.367,20.161-9.489,20.161-9.489" transform="translate(-33.128 -39.849)" fill="#ffc727"/>
        <path id="Path_7980" data-name="Path 7980" d="M159.292,167.353c-2.835,4.094-1.3,12.844-2.676,14.217s-15.461,1.227-16.41.421-.515-4.455-1.076-5.149c-.3-.367,20.161-9.489,20.161-9.489" transform="translate(-33.128 -39.849)" fill="#fff"/>
        <path id="Path_7981" data-name="Path 7981" d="M147.218,182.711c-3.553,0-6.849-.256-7.387-.712-.662-.563-.756-1.971-.847-3.332a6.056,6.056,0,0,0-.277-1.867l-.118-.146.042-.2c.056-.235.173-.724,20.378-9.733l1.244-.555-.776,1.12c-1.6,2.314-1.758,6.239-1.883,9.394-.1,2.44-.165,4.2-.837,4.874-.8.8-5.348,1.155-9.539,1.155m-7.741-6.061a8.088,8.088,0,0,1,.267,1.964c.069,1.034.163,2.449.58,2.8.405.275,3.735.554,7.892.515,4.92-.051,7.6-.51,8-.916.46-.46.536-2.357.615-4.366.112-2.833.248-6.27,1.422-8.759-7.246,3.241-17.2,7.788-18.778,8.757" transform="translate(-32.999 -39.566)"/>
        <path id="Path_7982" data-name="Path 7982" d="M112.64,89.438c-28.336,0-39.179,22.181-39.179,35.16,0,12.807,8.236,34.571,39.179,34.571s41.209-18.438,41.209-34.866S141.265,89.438,112.64,89.438" transform="translate(-17.492 -21.296)" fill="#ffc727"/>
        <path id="Path_7983" data-name="Path 7983" d="M112.64,89.438c-28.336,0-39.179,22.181-39.179,35.16,0,12.807,8.236,34.571,39.179,34.571s41.209-18.438,41.209-34.866S141.265,89.438,112.64,89.438" transform="translate(-17.492 -21.296)" fill="#fff"/>
        <path id="Path_7984" data-name="Path 7984" d="M112.521,159.431c-31.228,0-39.561-21.97-39.561-34.952,0-11.6,9.671-35.541,39.561-35.541,28.575,0,41.59,18.27,41.59,35.246,0,17.04-10.925,35.246-41.59,35.246m0-69.731c-29.315,0-38.8,23.432-38.8,34.779,0,12.7,8.172,34.19,38.8,34.19,19.737,0,40.828-9.059,40.828-34.485,0-16.609-12.777-34.485-40.828-34.485" transform="translate(-17.373 -21.177)"/>
        <path id="Path_7985" data-name="Path 7985" d="M135.379,88.778s12.939-9.925,26.956-8.743c4.827.408-3.187,10.865-3.333,19.033Z" transform="translate(-32.235 -19.034)" fill="#ffc727"/>
        <path id="Path_7986" data-name="Path 7986" d="M135.379,88.778s12.939-9.925,26.956-8.743c4.827.408-3.187,10.865-3.333,19.033Z" transform="translate(-32.235 -19.034)" fill="#fff"/>
        <path id="Path_7987" data-name="Path 7987" d="M159.14,99.525,134.4,88.751l.512-.393c.131-.1,13.228-10.008,27.221-8.82a1.929,1.929,0,0,1,1.584.844c.862,1.386-.226,4.155-1.6,7.662-1.362,3.465-2.9,7.392-2.966,10.912ZM135.911,88.577l22.5,9.8c.2-3.5,1.684-7.268,3-10.611,1.2-3.045,2.325-5.92,1.665-6.981a1.205,1.205,0,0,0-1-.488c-12.126-1.019-23.593,6.472-26.16,8.28" transform="translate(-32.003 -18.915)"/>
        <g id="Group_1823" data-name="Group 1823" transform="translate(121.36 64.49)" style="mix-blend-mode: multiply;isolation: isolate">
          <g id="Group_1822" data-name="Group 1822">
            <g id="Group_1821" data-name="Group 1821" clip-path="url(#clip-path-4)">
              <path id="Path_7988" data-name="Path 7988" d="M159.291,96.191c-.081.517,4.385,2.43,4.846,2.136s.928-6.729,4.572-13.584c.537-1.01-8.554,5.92-9.418,11.448" transform="translate(-159.289 -84.645)" fill="#ab1b2d"/>
            </g>
          </g>
        </g>
        <g id="Group_1826" data-name="Group 1826" transform="translate(120.627 93.511)" style="mix-blend-mode: multiply;isolation: isolate">
          <g id="Group_1825" data-name="Group 1825">
            <g id="Group_1824" data-name="Group 1824" clip-path="url(#clip-path-5)">
              <path id="Path_7989" data-name="Path 7989" d="M161.869,130.751a2.3,2.3,0,0,0,1.857-1.621,3.424,3.424,0,0,1-1.508,2.568c-.062.041-.03.16.051.134,2.476-.932,2.209-4.427,1.339-6.656-.046-.123-.092-.247-.149-.366-.555-1.292-1.524-2.229-2.739-2.053-4,.576-2.558,8.529,1.149,7.994" transform="translate(-158.326 -122.736)" fill="#ab1b2d"/>
            </g>
          </g>
        </g>
        <path id="Path_7990" data-name="Path 7990" d="M174.693,118.389c.619,1.861,6.238.352,7.655,1.528,2.229,1.85,1.612,24.8-.427,26.654-1.144,1.038-7.516-.056-9.307,1.205s2.078-29.387,2.078-29.387" transform="translate(-40.989 -28.19)" fill="#ffc727"/>
        <path id="Path_7991" data-name="Path 7991" d="M174.693,118.389c.619,1.861,6.238.352,7.655,1.528,2.229,1.85,1.612,24.8-.427,26.654-1.144,1.038-7.516-.056-9.307,1.205s2.078-29.387,2.078-29.387" transform="translate(-40.989 -28.19)" fill="#fff"/>
        <path id="Path_7992" data-name="Path 7992" d="M172.405,147.66a.49.49,0,0,1-.258-.073c-1.373-.826.7-19.013,2.061-29.78l.21-1.664.53,1.591c.257.773,2.1.766,3.732.759,1.581-.01,3.07-.014,3.806.6,1.112.923,1.443,5.572,1.526,9.309.146,6.643-.446,16.566-1.941,17.92-.621.564-2.069.6-4.381.616-1.931.012-4.121.026-4.962.619a.568.568,0,0,1-.322.107m2.453-28.916c-1.277,10.253-2.913,25.857-2.341,28.046,1.11-.592,3.17-.6,5.167-.618,1.611-.011,3.438-.022,3.873-.418,1.026-.93,1.863-9.519,1.691-17.34-.127-5.79-.754-8.326-1.251-8.739-.521-.433-2.011-.427-3.316-.421a8.174,8.174,0,0,1-3.824-.51" transform="translate(-40.883 -27.655)"/>
        <g id="Group_1829" data-name="Group 1829" transform="translate(139.571 94.372)" style="mix-blend-mode: multiply;isolation: isolate">
          <g id="Group_1828" data-name="Group 1828">
            <g id="Group_1827" data-name="Group 1827" clip-path="url(#clip-path-6)">
              <path id="Path_7993" data-name="Path 7993" d="M185.278,133.99c0,5.591-.468,10.124-1.043,10.124s-1.044-4.533-1.044-10.124.466-10.124,1.044-10.124,1.043,4.533,1.043,10.124" transform="translate(-183.191 -123.866)" fill="#ab1b2d"/>
            </g>
          </g>
        </g>
        <g id="Group_1832" data-name="Group 1832" transform="translate(83.102 70.493)" style="mix-blend-mode: multiply;isolation: isolate">
          <g id="Group_1831" data-name="Group 1831">
            <g id="Group_1830" data-name="Group 1830" clip-path="url(#clip-path-7)">
              <path id="Path_7994" data-name="Path 7994" d="M110.136,97.527c.1-.031,9.646-3.137,18.537-.707l.885-3.24c-9.893-2.705-20.056.618-20.484.761l1.064,3.185-.532-1.592Z" transform="translate(-109.074 -92.524)" fill="#ab1b2d"/>
            </g>
          </g>
        </g>
        <path id="Path_7995" data-name="Path 7995" d="M89.481,151.983c-12.764-14.665-4.954-31.7-4.6-32.426a2.1,2.1,0,0,0-3.768-1.849,35.406,35.406,0,0,0-3.01,12.228c-.615,9.326,2.471,17.893,9.772,23.723,2.2,1.758,3.246.21,1.605-1.675" transform="translate(-18.579 -27.749)" fill="#fff"/>
        <path id="Path_7996" data-name="Path 7996" d="M85.77,111.244a2.282,2.282,0,1,0,2.282-2.282,2.282,2.282,0,0,0-2.282,2.282" transform="translate(-20.423 -25.945)" fill="#fff"/>
        <path id="Path_7997" data-name="Path 7997" d="M128.849,63.389a11.217,11.217,0,1,1-12.4-9.867,11.2,11.2,0,0,1,12.4,9.867" transform="translate(-25.355 -12.727)" fill="#e2a327"/>
        <path id="Path_7998" data-name="Path 7998" d="M117.636,75.959a11.407,11.407,0,0,1-11.322-10.1A11.381,11.381,0,0,1,116.368,53.28a11.409,11.409,0,0,1,12.606,10.03A11.381,11.381,0,0,1,118.92,75.887a11.619,11.619,0,0,1-1.285.072m.017-22.38a11.065,11.065,0,0,0-8.633,4.144,10.912,10.912,0,0,0-2.337,8.094,11.04,11.04,0,0,0,19.587,5.63,10.915,10.915,0,0,0,2.337-8.094,11.039,11.039,0,0,0-10.954-9.774" transform="translate(-25.297 -12.67)"/>
        <path id="Path_7999" data-name="Path 7999" d="M127.619,64.154a9.413,9.413,0,1,1-10.407-8.28,9.4,9.4,0,0,1,10.407,8.28" transform="translate(-25.919 -13.29)" fill="#e2a327"/>
        <path id="Path_8000" data-name="Path 8000" d="M132.221,72.947a.188.188,0,0,1-.082-.019.185.185,0,0,1-.083-.248,9.161,9.161,0,0,0,.821-2.491.185.185,0,1,1,.364.064,9.522,9.522,0,0,1-.854,2.591.185.185,0,0,1-.166.1" transform="translate(-31.439 -16.676)"/>
        <path id="Path_8001" data-name="Path 8001" d="M110.425,60.668a.185.185,0,0,1-.16-.277,9.613,9.613,0,0,1,16.448-.36.185.185,0,1,1-.312.2,9.243,9.243,0,0,0-15.815.346.186.186,0,0,1-.161.093" transform="translate(-26.25 -13.232)"/>
        <path id="Path_8002" data-name="Path 8002" d="M118.2,76.519a9.577,9.577,0,0,1-8.841-13.292.185.185,0,0,1,.341.144,9.209,9.209,0,0,0,9.54,12.72.185.185,0,1,1,.041.367,9.59,9.59,0,0,1-1.081.061" transform="translate(-25.861 -15.028)"/>
        <path id="Path_8003" data-name="Path 8003" d="M122.728,62.664l-2.115.53a3.3,3.3,0,0,0-1.563-1.733l3.177-.8a.413.413,0,1,0-.173-.807l-.027.007-8.086,2.028a.413.413,0,0,0,.2.8l2.8-.7a2.474,2.474,0,0,1,2.865,1.407l-5.163,1.294a.413.413,0,0,0,.2.8l5.163-1.294a2.473,2.473,0,0,1-1.861,2.592l-2.8.7a.412.412,0,0,0-.11.754l7,4.194a.412.412,0,0,0,.424-.706l-6.151-3.686,1.834-.459a3.3,3.3,0,0,0,2.469-3.594l2.116-.531a.412.412,0,1,0-.174-.806l-.027.006Z" transform="translate(-27.059 -14.251)"/>
        <path id="Path_8004" data-name="Path 8004" d="M122.391,72.566a.524.524,0,0,1-.243-.06l-7.009-4.2a.528.528,0,0,1,.142-.965l2.8-.7a2.354,2.354,0,0,0,1.782-2.337l-5.028,1.261a.527.527,0,0,1-.26-1.021l5.032-1.262a2.356,2.356,0,0,0-2.674-1.219l-2.8.7a.531.531,0,0,1-.62-.369.526.526,0,0,1,.361-.651l8.12-2.037a.527.527,0,1,1,.222,1.03l-2.9.726a3.417,3.417,0,0,1,1.328,1.557l2.161-.542V62.5h0a.527.527,0,0,1,.108,1.042l-2.015.506a3.418,3.418,0,0,1-2.566,3.617l-1.566.393,5.914,3.544a.53.53,0,0,1,.174.683.521.521,0,0,1-.309.258.536.536,0,0,1-.158.024m-2.318-8.548.011.135a2.581,2.581,0,0,1-1.947,2.712l-2.8.7a.3.3,0,0,0-.183.136.3.3,0,0,0,.1.41l7,4.194a.287.287,0,0,0,.221.017.3.3,0,0,0,.08-.53l-6.381-3.824,2.1-.527a3.189,3.189,0,0,0,2.384-3.47l-.012-.1,2.214-.555a.3.3,0,0,0,.191-.13.3.3,0,0,0,.041-.225.3.3,0,0,0-.354-.229l-.151.05v-.013l-2.086.523-.037-.094a3.185,3.185,0,0,0-1.509-1.674l-.27-.139,3.471-.87a.3.3,0,1,0-.122-.584l-8.11,2.034a.3.3,0,0,0-.2.367.3.3,0,0,0,.349.21l2.8-.7a2.581,2.581,0,0,1,3,1.472l.055.124-5.3,1.327a.3.3,0,0,0,.15.578Z" transform="translate(-27.024 -14.215)"/>
        <path id="Path_8005" data-name="Path 8005" d="M98.627,63.279c.746-.526,2.438-1.686,2.526-1.428a1.139,1.139,0,0,1-.23.83,7.314,7.314,0,0,1,4.52-.161,1.842,1.842,0,0,1,1.209.8.812.812,0,0,1-.283,1.268c-1.253.78-.89.313-2.633,1.448s-3.876,1.426-5.152.629l-1.711-.285-.212-2.814s.975-.117,1.966-.282" transform="translate(-23.016 -14.719)" fill="#fff"/>
        <path id="Path_8006" data-name="Path 8006" d="M100.23,67.37a3.766,3.766,0,0,1-1.908-.466l-1.933-.323-.264-3.475.362-.043s.914-.108,1.864-.265c2.291-1.611,2.549-1.528,2.757-1.461l.181.058.1.213a.854.854,0,0,1,.037.348,8.534,8.534,0,0,1,3.965.07,2.226,2.226,0,0,1,1.457.965,1.186,1.186,0,0,1-.4,1.8,6.76,6.76,0,0,1-1.088.576,8.544,8.544,0,0,0-1.539.867,6.741,6.741,0,0,1-3.586,1.139M97.1,65.928l1.555.29c1.12.7,3.113.437,4.742-.625a9.219,9.219,0,0,1,1.657-.931,5.976,5.976,0,0,0,.984-.522.567.567,0,0,0,.287-.319.606.606,0,0,0-.124-.418,1.463,1.463,0,0,0-.959-.629,6.955,6.955,0,0,0-4.316.145l-1.045.39.588-.949.038-.064c-.359.2-.933.568-1.791,1.173l-.071.051-.085.014c-.626.105-1.246.19-1.622.239Z" transform="translate(-22.889 -14.598)"/>
        <path id="Path_8007" data-name="Path 8007" d="M40.392,29.94s4.033,4.785,9.17,2.784a15.567,15.567,0,0,0,1.122-4.643c0-.242,0-.478.008-.7.027-2.219.1-3.464.1-3.464h-.005c-.234-.1-7.853-3.226-7.846-2.966.13,6-2.551,8.99-2.551,8.99" transform="translate(-9.618 -4.985)" fill="#fff"/>
        <path id="Path_8008" data-name="Path 8008" d="M46.877,33.481c-4.008,0-6.9-3.364-6.932-3.4l-.213-.252.219-.247c.027-.029,2.58-2.969,2.455-8.728l0-.206.176-.126c.142-.1.436-.3,8.2,2.938l.25.1-.011.272c0,.011-.075,1.263-.1,3.444l-.008.7a15.746,15.746,0,0,1-1.15,4.787l-.062.15-.152.059a7.285,7.285,0,0,1-2.667.511m-6.139-3.668c.862.888,4.266,4,8.377,2.505a14.634,14.634,0,0,0,1.031-4.349l.008-.7c.02-1.621.066-2.735.089-3.215-1.623-.663-5.755-2.325-7.071-2.748a14.24,14.24,0,0,1-2.434,8.51m9.732-5.669,0,.005Z" transform="translate(-9.46 -4.875)"/>
        <path id="Path_8009" data-name="Path 8009" d="M52.689,20.133s-8.567,2.014-9.741-3.341S39.881,8.09,45.3,6.578s6.934.3,7.761,1.989,1.825,10.9-.375,11.565" transform="translate(-9.917 -1.431)" fill="#fff"/>
        <path id="Path_8010" data-name="Path 8010" d="M49.1,20.768a8.772,8.772,0,0,1-4.6-1.08,4.472,4.472,0,0,1-2.041-2.933c-.178-.814-.373-1.579-.556-2.3C40.871,10.4,40.128,7.473,45.08,6.09c5.536-1.544,7.254.242,8.206,2.19.714,1.461,1.586,8.391.441,11.013a1.76,1.76,0,0,1-1.048,1.083l-.023.006a17.1,17.1,0,0,1-3.554.385m-.375-14.5a13.08,13.08,0,0,0-3.442.558c-4.235,1.182-3.671,3.406-2.645,7.444.184.728.381,1.5.561,2.323a3.739,3.739,0,0,0,1.7,2.452c2.653,1.673,7.294.664,7.566.6a1.089,1.089,0,0,0,.558-.657c1.026-2.348.21-9.069-.427-10.373a3.8,3.8,0,0,0-3.874-2.35" transform="translate(-9.798 -1.311)"/>
        <path id="Path_8011" data-name="Path 8011" d="M41.878,16.94c-.117.075-1.96.642-5.452-6.315a6.057,6.057,0,0,1,.356-5.54C38.059,3,42.589,1.357,46.353.643s4.667,1.4,5.554,3.532a11.5,11.5,0,0,0,3.617,4.074c-3.246,1.813-7.155-.78-8.51-.354s-1.832,2.561-1.934,3.245-.258,1.253-1.961.642-.77,2.414-.5,2.992c0,0,.232,1.54-.745,2.166" transform="translate(-8.553 -0.119)" fill="#fff"/>
        <path id="Path_8012" data-name="Path 8012" d="M41.536,17.242a1.552,1.552,0,0,1-.406-.059c-1.006-.278-2.718-1.632-5.166-6.507a6.418,6.418,0,0,1,.372-5.911c1.407-2.3,6.173-3.924,9.826-4.618,4.087-.775,5.091,1.635,5.976,3.76a11.171,11.171,0,0,0,3.481,3.907l.507.347-.536.3c-2.238,1.253-4.733.545-6.555.03a5.061,5.061,0,0,0-2.027-.352c-1.024.322-1.532,2-1.671,2.937a1.374,1.374,0,0,1-.552,1.071c-.4.242-1,.2-1.915-.127-.071-.024-.311-.1-.385-.023-.289.318.066,1.867.36,2.493l.032.107a2.723,2.723,0,0,1-.917,2.544h0a.808.808,0,0,1-.426.1M47.622.76A7.116,7.116,0,0,0,46.3.9c-3.654.693-8.129,2.324-9.317,4.266a5.683,5.683,0,0,0-.341,5.171c3.07,6.117,4.749,6.161,4.94,6.142.644-.45.567-1.514.545-1.729-.159-.4-.92-2.478-.208-3.262a1.024,1.024,0,0,1,1.206-.182c.894.321,1.183.24,1.267.19.1-.06.146-.24.189-.529.073-.5.527-3.028,2.2-3.553a4.93,4.93,0,0,1,2.463.347c1.621.458,3.6,1.021,5.426.3A10.854,10.854,0,0,1,51.434,4.2C50.674,2.374,50,.76,47.622.76" transform="translate(-8.433 0)"/>
        <path id="Path_8013" data-name="Path 8013" d="M11.372,193.353H6.185c-1.088,0-2.3-1.089-2.6-3.083s-2.539-3.083-3.022-4.715,2-3.93,2-3.93l.414-.533.431-.555,4.109.967s.1.978.165,2.225a28.494,28.494,0,0,1,.017,2.853c-.121,2.177.61,4.52,2.542,4.943s1.134,1.827,1.134,1.827" transform="translate(-0.119 -42.988)" fill="#fff"/>
        <path id="Path_8014" data-name="Path 8014" d="M11.475,193.6H6.065c-1.221,0-2.636-1.17-2.975-3.406a5.117,5.117,0,0,0-1.55-2.516,5.9,5.9,0,0,1-1.461-2.148c-.535-1.806,1.83-4.065,2.1-4.318l.953-1.235,4.612,1.085.027.269c0,.011.1,1,.166,2.245a28.357,28.357,0,0,1,.018,2.894c-.111,2,.539,4.176,2.244,4.549a1.938,1.938,0,0,1,1.481.994,1.673,1.673,0,0,1-.1,1.394ZM3.435,180.832l-.7.894c-.683.641-2.272,2.437-1.931,3.587A5.289,5.289,0,0,0,2.1,187.164a5.754,5.754,0,0,1,1.741,2.916c.276,1.811,1.326,2.759,2.222,2.759H11a.759.759,0,0,0-.014-.519,1.337,1.337,0,0,0-.947-.555c-2.289-.5-2.961-3.188-2.84-5.335.042-.758.036-1.705-.018-2.814-.043-.839-.1-1.562-.138-1.935Z" transform="translate(0 -42.855)"/>
        <path id="Path_8015" data-name="Path 8015" d="M57.582,195.018H43.83a1.292,1.292,0,0,1-.293-.085c-.918-.46-.63-3.975-.52-5.061.021-.2.037-.319.037-.319s4.836-3.868,5.5-.906q.032.138.071.272v0c.84,2.771,4.593,4.03,6.759,4.381a2.361,2.361,0,0,1,2.2,1.717" transform="translate(-10.212 -44.653)" fill="#fff"/>
        <path id="Path_8016" data-name="Path 8016" d="M57.94,195.28H43.709a1.572,1.572,0,0,1-.463-.126c-.808-.4-1.053-2.234-.728-5.44l.057-.481.12-.1c.336-.269,3.328-2.618,5.057-2a1.653,1.653,0,0,1,1.054,1.313c.019.082.041.165.066.249.721,2.379,3.928,3.7,6.455,4.113a2.731,2.731,0,0,1,2.507,2.008Zm-14.647-5.645-.018.159c-.32,3.158.011,4.529.312,4.68a.9.9,0,0,0,.194.051l13.118-.007a2.267,2.267,0,0,0-1.7-.96c-2.744-.444-6.241-1.928-7.063-4.646-.029-.1-.055-.2-.078-.3a.934.934,0,0,0-.564-.764c-.971-.34-3.037.878-4.206,1.784" transform="translate(-10.091 -44.534)"/>
        <path id="Path_8017" data-name="Path 8017" d="M52.124,92.87s-.734,9.163-1.6,20.177c-1.173,14.963-2.584,33.341-2.724,36.823-.241,6.046-1.209,15.717-1.209,15.717s-2.3,2.3-6.891,1.329A158.216,158.216,0,0,1,34.438,138.5q-.027-.359-.054-.721C33.3,122.912,31.6,91.6,31.6,91.6Z" transform="translate(-7.525 -21.811)" fill="#fff"/>
        <path id="Path_8018" data-name="Path 8018" d="M41.782,167.41a11.109,11.109,0,0,1-2.285-.248l-.222-.047-.065-.217a159.985,159.985,0,0,1-5.278-28.489l-.055-.725c-1.075-14.7-2.763-45.875-2.779-46.189l-.024-.427,21.334,1.32-.031.387s-.734,9.163-1.6,20.177c-.952,12.15-2.574,33.087-2.723,36.808-.238,5.988-1.2,15.642-1.211,15.739l-.013.136-.1.1a7.168,7.168,0,0,1-4.955,1.681m-1.9-.949c3.7.7,5.771-.8,6.225-1.186.122-1.238.971-9.986,1.192-15.547.151-3.732,1.772-24.681,2.725-36.837.76-9.687,1.419-17.942,1.566-19.791L31.881,91.881c.207,3.809,1.75,31.992,2.757,45.747l.053.72a159.318,159.318,0,0,0,5.186,28.113" transform="translate(-7.399 -21.684)"/>
        <path id="Path_8019" data-name="Path 8019" d="M42.007,92.825S28.769,126.01,20.065,141.6,8.641,161.552,8.641,161.552,3.654,159.557,3.2,158.2c0,0,3.328-30.107,9.157-37.446,3.294-4.148,7.163-16.592,7.345-20.945s1.179-12.965,1.179-12.965Z" transform="translate(-0.762 -20.678)" fill="#fff"/>
        <path id="Path_8020" data-name="Path 8020" d="M8.673,161.871l-.3-.118c-.86-.344-5.176-2.133-5.66-3.587l-.027-.08L2.7,158c.136-1.234,3.407-30.3,9.238-37.642,3.281-4.131,7.084-16.449,7.262-20.723.18-4.317,1.172-12.908,1.181-12.994l.053-.445L42.4,92.421l-.156.392c-.133.332-13.348,33.387-21.964,48.825S8.87,161.557,8.842,161.6Zm-5.205-3.879c.384.793,2.968,2.133,4.9,2.933.712-1.171,3.8-6.324,11.246-19.658,8.084-14.484,20.243-44.558,21.764-48.343L21.088,87.177c-.206,1.819-.971,8.769-1.126,12.493-.182,4.361-4.07,16.941-7.427,21.165C7,127.8,3.681,156.128,3.468,157.992" transform="translate(-0.641 -20.525)"/>
        <path id="Path_8021" data-name="Path 8021" d="M13.121,86.538l-.14,2.134a4.6,4.6,0,0,1-2.536,5.736s-1.688.681-1.756-.633.147-.82.01-2.67.59-3.6,1.815-4.189l1-1.159Z" transform="translate(-2.066 -20.42)" fill="#fff"/>
        <path id="Path_8022" data-name="Path 8022" d="M9.452,94.818a1.393,1.393,0,0,1-.752-.194,1.154,1.154,0,0,1-.51-.976,5.771,5.771,0,0,1,.022-1.1,7.217,7.217,0,0,0-.011-1.56c-.148-2,.654-3.844,1.957-4.523L11.3,85.139l2.1,1.021-.152,2.317A4.983,4.983,0,0,1,10.495,94.6a3.022,3.022,0,0,1-1.043.215M11.5,86.081l-.936,1.032c-1.052.507-1.726,2.113-1.6,3.817a7.958,7.958,0,0,1,.009,1.7,5,5,0,0,0-.02.978c.015.28.123.35.159.373a1.533,1.533,0,0,0,1.076-.074,4.188,4.188,0,0,0,2.321-5.251l-.028-.075.129-1.96Z" transform="translate(-1.947 -20.273)"/>
        <path id="Path_8023" data-name="Path 8023" d="M11.919,75.637c1.465.47,1.7.364,1.7.364s7.132-12.984,7.854-14.173,15.142-14.56,15.142-14.56L32.909,33.451s-16.4,21.237-18.171,24.284C11.812,62.771,10.1,74.467,10.1,74.467a4.29,4.29,0,0,0,1.822,1.17" transform="translate(-2.404 -7.965)" fill="#ab1b2d"/>
        <path id="Path_8024" data-name="Path 8024" d="M13.4,76.129a6.37,6.37,0,0,1-1.724-.392,4.654,4.654,0,0,1-2-1.288l-.11-.131.025-.168c.07-.481,1.759-11.828,4.689-16.868,1.763-3.034,17.53-23.458,18.2-24.326l.47-.608L36.916,47.13l-.168.155c-5.78,5.361-14.565,13.639-15.075,14.478-.709,1.168-7.774,14.029-7.845,14.158l-.061.111-.115.053a.547.547,0,0,1-.249.043m-3.026-2.051a4.014,4.014,0,0,0,1.534.933h0a8.038,8.038,0,0,0,1.356.347c.93-1.692,7.076-12.874,7.755-13.991.706-1.162,12.941-12.536,15.04-14.484L32.615,34.031c-2.7,3.5-16.1,20.931-17.673,23.633-2.658,4.575-4.334,14.913-4.566,16.414" transform="translate(-2.278 -7.702)"/>
        <path id="Path_8025" data-name="Path 8025" d="M53.347,51.728c-.051,2.837-.216,6.027-.439,9.268q-.021.288-.04.577c-.142,2.007-.3,4.019-.474,5.98q-.106,1.181-.226,2.328l-.012.1c-.005.286-.04.6-.072.878-.723,7.348-1.48,13.154-1.621,13.243a.822.822,0,0,1-.564.143c-1.928-.242-7.677.2-12.384-.829A35.681,35.681,0,0,1,26.5,78.852c-.482-.285-1.578-1.038-1.489-1.6.088-.619.25-1.512.456-2.636a142.709,142.709,0,0,0,2.367-18.5q.122-2.2.355-4.337a65.762,65.762,0,0,1,1.92-10.357c1.614-5.811,3.985-10.261,6.961-12,.389-.218,2.481,1.113,4.4,2.346a8.48,8.48,0,0,0,5.459,1.293l1.6,1.768a17.853,17.853,0,0,1,4.56,9.507q.064.472.109,1a62.486,62.486,0,0,1,.15,6.391" transform="translate(-5.954 -7)" fill="#ab1b2d"/>
        <path id="Path_8026" data-name="Path 8026" d="M49.872,84.517a1.154,1.154,0,0,1-.136-.008c-.607-.076-1.608-.083-2.876-.092a47.973,47.973,0,0,1-9.546-.743,35.58,35.58,0,0,1-11.129-4.612c-.546-.323-1.8-1.163-1.671-1.989.09-.631.261-1.571.457-2.645a141.994,141.994,0,0,0,2.361-18.452c.081-1.448.2-2.913.357-4.358A65.967,65.967,0,0,1,29.622,41.2c1.747-6.291,4.215-10.519,7.136-12.229.493-.277,1.387.164,4.8,2.354a8.129,8.129,0,0,0,5.22,1.234l.189-.017,1.726,1.909a18.167,18.167,0,0,1,4.656,9.712c.043.319.078.66.11,1.022a62.6,62.6,0,0,1,.152,6.43c-.047,2.606-.2,5.732-.439,9.287l-.041.578c-.162,2.273-.316,4.231-.474,5.988-.072.788-.148,1.567-.226,2.333l-.014.11c0,.251-.037.565-.069.853-.392,3.989-1.35,13.261-1.8,13.544a1.206,1.206,0,0,1-.674.208M37.092,29.659c-2.683,1.6-5.076,5.77-6.737,11.746a65.138,65.138,0,0,0-1.908,10.3c-.155,1.432-.274,2.884-.354,4.318A142.368,142.368,0,0,1,25.733,74.5c-.207,1.127-.376,2.059-.465,2.683-.027.174.456.717,1.305,1.218a34.856,34.856,0,0,0,10.9,4.524,47.357,47.357,0,0,0,9.391.726c1.292.009,2.314.017,2.961.1a.435.435,0,0,0,.2-.028c.2-.882.882-6.166,1.556-13.018.033-.292.066-.582.071-.85l.016-.142c.076-.754.152-1.531.224-2.315.158-1.752.312-3.705.472-5.973l.04-.577c.244-3.542.391-6.654.438-9.247a62.183,62.183,0,0,0-.149-6.35c-.03-.351-.065-.679-.106-.988a17.454,17.454,0,0,0-4.472-9.309l-1.467-1.623a8.875,8.875,0,0,1-5.508-1.367,23.593,23.593,0,0,0-4.053-2.308" transform="translate(-5.835 -6.881)"/>
        <path id="Path_8027" data-name="Path 8027" d="M84.41,58.775c.114-1.633-.732-1.9-.732-1.9s-16.6-3.008-18.006-3.451S52.2,40.426,52.2,40.426s-4.624-5.215-8.41-4.064a7.114,7.114,0,0,0-5.014,6.012,7.2,7.2,0,0,0,3.344,7.393c5.664,3.473,17,10.318,19.673,11.1,5.943,1.742,21.911.139,21.911.139a5.148,5.148,0,0,0,.709-2.233" transform="translate(-9.206 -8.619)" fill="#ab1b2d"/>
        <path id="Path_8028" data-name="Path 8028" d="M70.575,61.948a36.16,36.16,0,0,1-9.011-.833C58.9,60.333,48.037,53.8,41.8,49.972a7.631,7.631,0,0,1-3.52-7.784,7.482,7.482,0,0,1,5.278-6.309c3.98-1.207,8.612,3.955,8.806,4.175,4.628,4.814,12.344,12.58,13.3,12.883,1.372.431,17.8,3.409,17.961,3.44.1.027,1.176.4,1.044,2.306A5.523,5.523,0,0,1,83.9,61.1l-.1.152-.181.018c-.418.043-6.883.68-13.046.68M44.821,36.458a3.58,3.58,0,0,0-1.042.15c-2.615.8-4.212,2.718-4.75,5.714a6.866,6.866,0,0,0,3.169,7c4.995,3.064,16.9,10.275,19.58,11.06,5.457,1.6,19.74.318,21.573.145a4.878,4.878,0,0,0,.561-1.9c.089-1.275-.456-1.511-.48-1.52-.618-.106-16.576-3-17.993-3.447S53.83,42.678,51.8,40.571c-.05-.056-3.694-4.113-6.983-4.113" transform="translate(-9.087 -8.5)"/>
      </g>
    </g>
  </g>
</svg>
