<svg id="Group_2042" data-name="Group 2042" xmlns="http://www.w3.org/2000/svg" xmlns:xlink="http://www.w3.org/1999/xlink" width="126.095" height="142.965" viewBox="0 0 126.095 142.965">
  <defs>
    <clipPath id="clip-path">
      <rect id="Rectangle_1840" data-name="Rectangle 1840" width="126.095" height="142.965" fill="none"/>
    </clipPath>
  </defs>
  <g id="Group_2041" data-name="Group 2041" clip-path="url(#clip-path)">
    <path id="Path_8870" data-name="Path 8870" d="M86.657,20.316c1.106-1.216,2.31-2.564,2.353-4.207a6.161,6.161,0,0,0-1.34-3.469A34.2,34.2,0,0,0,76.819,2.392C73.9.656,69.812-.5,67.375,1.868c-1.22,1.186-2.1,3.236-3.8,3.092C62.574,4.874,61.859,4,61.126,3.3,57.37-.253,51.452.3,46.339,1.082a6.527,6.527,0,0,0-2.748.853c-2.191,1.5-1.77,4.742-1.9,7.392a2.188,2.188,0,0,1-.433,1.4,2.381,2.381,0,0,1-1.3.573L30.1,13.412a6.752,6.752,0,0,0-3.287,1.348c-1.837,1.7-1.235,4.727-.236,7.025C31.7,33.579,43.133,41.652,48.624,53.28a15.123,15.123,0,0,0,2.588,4.407c2.242,2.254,7.562,3.855,10.643,2.9,3.018-.933,3.372-4.552,4.388-7.188A105.731,105.731,0,0,1,86.657,20.316" transform="translate(-11.471 -0.224)" fill="#fff"/>
    <path id="Path_8871" data-name="Path 8871" d="M86.657,20.316c1.106-1.216,2.31-2.564,2.353-4.207a6.161,6.161,0,0,0-1.34-3.469A34.2,34.2,0,0,0,76.819,2.392C73.9.656,69.812-.5,67.375,1.868c-1.22,1.186-2.1,3.236-3.8,3.092C62.574,4.874,61.859,4,61.126,3.3,57.37-.253,51.452.3,46.339,1.082a6.527,6.527,0,0,0-2.748.853c-2.191,1.5-1.77,4.742-1.9,7.392a2.188,2.188,0,0,1-.433,1.4,2.381,2.381,0,0,1-1.3.573L30.1,13.412a6.752,6.752,0,0,0-3.287,1.348c-1.837,1.7-1.235,4.727-.236,7.025C31.7,33.579,43.133,41.652,48.624,53.28a15.123,15.123,0,0,0,2.588,4.407c2.242,2.254,7.562,3.855,10.643,2.9,3.018-.933,3.372-4.552,4.388-7.188A105.731,105.731,0,0,1,86.657,20.316Z" transform="translate(-11.471 -0.224)" fill="none" stroke="#000" stroke-width="1"/>
    <path id="Path_8872" data-name="Path 8872" d="M57.4,6.259a34.267,34.267,0,0,0,.555,5.525,13.081,13.081,0,0,1-.177,5.514L54.54,11.2a2.5,2.5,0,0,1-.264-.631,2.488,2.488,0,0,1,0-.766l.433-4.351A5.627,5.627,0,0,1,54.952,4.1a3.677,3.677,0,0,1,1.057-1.483c.562-.5,2.591-1.948,2.443-.456a13.545,13.545,0,0,1-.727,1.857A9.5,9.5,0,0,0,57.4,6.259" transform="translate(-24.281 -0.674)" fill="#fff"/>
    <path id="Path_8873" data-name="Path 8873" d="M57.4,6.259a34.267,34.267,0,0,0,.555,5.525,13.081,13.081,0,0,1-.177,5.514L54.54,11.2a2.5,2.5,0,0,1-.264-.631,2.488,2.488,0,0,1,0-.766l.433-4.351A5.627,5.627,0,0,1,54.952,4.1a3.677,3.677,0,0,1,1.057-1.483c.562-.5,2.591-1.948,2.443-.456a13.545,13.545,0,0,1-.727,1.857A9.5,9.5,0,0,0,57.4,6.259Z" transform="translate(-24.281 -0.674)" fill="none" stroke="#000" stroke-width="1"/>
    <path id="Path_8874" data-name="Path 8874" d="M86.657,20.316c1.106-1.216,2.31-2.564,2.353-4.207a6.161,6.161,0,0,0-1.34-3.469A34.2,34.2,0,0,0,76.819,2.392C73.9.656,69.812-.5,67.375,1.868c-1.22,1.186-2.1,3.236-3.8,3.092C62.574,4.874,61.859,4,61.126,3.3,57.37-.253,51.452.3,46.339,1.082a6.527,6.527,0,0,0-2.748.853c-2.191,1.5-1.77,4.742-1.9,7.392a2.188,2.188,0,0,1-.433,1.4,2.381,2.381,0,0,1-1.3.573L30.1,13.412a6.752,6.752,0,0,0-3.287,1.348c-1.837,1.7-1.235,4.727-.236,7.025C31.7,33.579,43.133,41.652,48.624,53.28a15.123,15.123,0,0,0,2.588,4.407c2.242,2.254,7.562,3.855,10.643,2.9,3.018-.933,3.372-4.552,4.388-7.188A105.731,105.731,0,0,1,86.657,20.316" transform="translate(-11.471 -0.224)" fill="#e2a327"/>
    <path id="Path_8875" data-name="Path 8875" d="M86.657,20.316c1.106-1.216,2.31-2.564,2.353-4.207a6.161,6.161,0,0,0-1.34-3.469A34.2,34.2,0,0,0,76.819,2.392C73.9.656,69.812-.5,67.375,1.868c-1.22,1.186-2.1,3.236-3.8,3.092C62.574,4.874,61.859,4,61.126,3.3,57.37-.253,51.452.3,46.339,1.082a6.527,6.527,0,0,0-2.748.853c-2.191,1.5-1.77,4.742-1.9,7.392a2.188,2.188,0,0,1-.433,1.4,2.381,2.381,0,0,1-1.3.573L30.1,13.412a6.752,6.752,0,0,0-3.287,1.348c-1.837,1.7-1.235,4.727-.236,7.025C31.7,33.579,43.133,41.652,48.624,53.28a15.123,15.123,0,0,0,2.588,4.407c2.242,2.254,7.562,3.855,10.643,2.9,3.018-.933,3.372-4.552,4.388-7.188A105.731,105.731,0,0,1,86.657,20.316Z" transform="translate(-11.471 -0.224)" fill="none" stroke="#000" stroke-width="1"/>
    <path id="Path_8876" data-name="Path 8876" d="M41.4,93.109c-14.246.864-24.9,11.885-27.469,25.572-1.345,7.164-1.624,14.672-4.713,21.274-1.778,3.8-4.417,7.133-6.353,10.855s-3.145,8.139-1.784,12.107c.814,2.374,2.531,4.721,1.868,7.141-.339,1.236-1.222,2.715-.3,3.611a2.862,2.862,0,0,0,1.89.511A21.081,21.081,0,0,1,10.7,175.9c12.031,4.643,24.7,7.909,37.589,8.369s26.03-1.985,37.338-8.186c2.442-1.339,5.112-2.9,7.828-2.289.4.09.882.205,1.168-.088a1.107,1.107,0,0,0,.1-1.03L89.172,148.97A83.908,83.908,0,0,0,85.53,136.41c-2.783-6.842-7.359-12.921-9.448-20.006-1.344-4.556-1.683-9.567-4.4-13.465-2.558-3.673-6.834-5.749-11.08-7.165a51.137,51.137,0,0,0-19.2-2.665" transform="translate(-0.224 -41.639)" fill="#e2a327"/>
    <path id="Path_8877" data-name="Path 8877" d="M41.4,93.109c-14.246.864-24.9,11.885-27.469,25.572-1.345,7.164-1.624,14.672-4.713,21.274-1.778,3.8-4.417,7.133-6.353,10.855s-3.145,8.139-1.784,12.107c.814,2.374,2.531,4.721,1.868,7.141-.339,1.236-1.222,2.715-.3,3.611a2.862,2.862,0,0,0,1.89.511A21.081,21.081,0,0,1,10.7,175.9c12.031,4.643,24.7,7.909,37.589,8.369s26.03-1.985,37.338-8.186c2.442-1.339,5.112-2.9,7.828-2.289.4.09.882.205,1.168-.088a1.107,1.107,0,0,0,.1-1.03L89.172,148.97A83.908,83.908,0,0,0,85.53,136.41c-2.783-6.842-7.359-12.921-9.448-20.006-1.344-4.556-1.683-9.567-4.4-13.465-2.558-3.673-6.834-5.749-11.08-7.165A51.137,51.137,0,0,0,41.4,93.109Z" transform="translate(-0.224 -41.639)" fill="none" stroke="#000" stroke-width="1"/>
    <path id="Path_8878" data-name="Path 8878" d="M53.923,19.02S58.66,24.851,59.3,30.727s6.568,17.265,5.637,29.282" transform="translate(-24.137 -8.514)" fill="#fff"/>
    <path id="Path_8879" data-name="Path 8879" d="M53.923,19.02S58.66,24.851,59.3,30.727s6.568,17.265,5.637,29.282" transform="translate(-24.137 -8.514)" fill="none" stroke="#000" stroke-width="1"/>
    <path id="Path_8880" data-name="Path 8880" d="M94.521,8.224s5.991,17.23,1.85,26.459c0,0-3.863,12.324-3.863,20.384" transform="translate(-41.409 -3.681)" fill="#fff"/>
    <path id="Path_8881" data-name="Path 8881" d="M94.521,8.224s5.991,17.23,1.85,26.459c0,0-3.863,12.324-3.863,20.384" transform="translate(-41.409 -3.681)" fill="none" stroke="#000" stroke-width="1"/>
    <path id="Path_8882" data-name="Path 8882" d="M87.622,154.218l-.006,0,.015-.059-8.273-.089a12.672,12.672,0,0,0-3.3-6.843l11.091.124a1.957,1.957,0,0,0,.175-3.909l-31.079-.34a1.956,1.956,0,0,0-1.913,2,1.976,1.976,0,0,0,1.88,1.91l10.716.117a8.748,8.748,0,0,1,8.454,6.9l-19.257-.21a1.956,1.956,0,0,0-.03,3.91l19.242.209a8.737,8.737,0,0,1-8.6,6.713l-10.716-.119a1.959,1.959,0,0,0-1.416,3.33l21.214,21.677a1.957,1.957,0,0,0,2.761-.129,1.966,1.966,0,0,0,.016-2.618l-17.9-18.3,5.992.065a12.688,12.688,0,0,0,12.625-10.573l7.715.083a1.957,1.957,0,0,0,.593-3.845" transform="translate(-24.191 -64.054)"/>
    <path id="Path_8883" data-name="Path 8883" d="M154.885,12.941c-1.913-3.672-2.428-7.479.995-9.487,2.314-1.358,5.011-1.8,9.946.153,3.488,1.379,4.648.172,4.648.172a56.246,56.246,0,0,1,.287,6.943C170.552,15.4,167.51,17,167.51,17Z" transform="translate(-68.655 -1.024)" fill="#fff"/>
    <path id="Path_8884" data-name="Path 8884" d="M167.318,17.067l-12.843-4.125-.052-.1c-2.368-4.548-1.978-8.047,1.1-9.853,2.815-1.653,5.766-1.614,10.188.135,3.229,1.277,4.34.245,4.351.235l.408-.4.063.563a56.939,56.939,0,0,1,.288,6.985c-.214,4.781-3.269,6.437-3.4,6.505Zm-12.457-4.581,12.4,3.983c.514-.314,2.827-1.946,3.008-5.986a53.628,53.628,0,0,0-.243-6.457c-.632.3-2.016.6-4.518-.389-5.249-2.075-7.766-1.31-9.7-.171-3.53,2.071-2.478,6.027-.941,9.02" transform="translate(-68.438 -0.796)"/>
    <path id="Path_8885" data-name="Path 8885" d="M143.637,245.473c-2.181,1.492-5.968,1.262-6.2,3.328s.459,1.722.459,1.722a43.084,43.084,0,0,0,8.951,0,32.631,32.631,0,0,1,5.968-.689,3.368,3.368,0,0,0,2.066-.574l-.574-2.869Z" transform="translate(-61.5 -109.878)" fill="#ab1b2d"/>
    <path id="Path_8886" data-name="Path 8886" d="M142.812,250.826c-2.415,0-4.687-.211-5.1-.252a.533.533,0,0,1-.441-.08c-.344-.24-.447-.861-.325-1.954.159-1.43,1.715-1.876,3.363-2.349a10.337,10.337,0,0,0,2.953-1.177l.081-.056,10.978.945.647,3.233-.126.1a3.624,3.624,0,0,1-2.243.638,32.215,32.215,0,0,0-5.921.686,23.964,23.964,0,0,1-3.861.26m-5.158-.82.049.013a42.984,42.984,0,0,0,8.876,0,32.7,32.7,0,0,1,6.015-.693,3.445,3.445,0,0,0,1.759-.424l-.5-2.485-10.37-.892a11.116,11.116,0,0,1-3.03,1.2c-1.528.439-2.848.817-2.966,1.879-.14,1.257.09,1.438.092,1.44Z" transform="translate(-61.276 -109.649)"/>
    <path id="Path_8887" data-name="Path 8887" d="M195.906,246.775c-2.41,2.066-3.213,4.132-2.525,4.705s7,.459,8.263.115a3.533,3.533,0,0,0,2.3-3.9c-.459-1.721-8.033-.918-8.033-.918" transform="translate(-86.455 -110.377)" fill="#ab1b2d"/>
    <path id="Path_8888" data-name="Path 8888" d="M196.933,251.929c-1.806,0-3.535-.123-3.952-.469a1.013,1.013,0,0,1-.336-.812c-.008-1.127,1.115-2.821,2.859-4.316l.065-.056.085-.009c1.3-.138,7.834-.734,8.329,1.122a3.8,3.8,0,0,1-2.489,4.24,26.812,26.812,0,0,1-4.562.3m-1.135-5.121c-1.8,1.564-2.606,3.05-2.6,3.837a.49.49,0,0,0,.138.391c.544.453,6.715.414,8.013.06a3.243,3.243,0,0,0,2.1-3.564c-.273-1.02-4.608-1.038-7.652-.724" transform="translate(-86.231 -110.144)"/>
    <path id="Path_8889" data-name="Path 8889" d="M116.251,121.993c-2.678,1.186-5.738,2.563-6.312,4.017s-1.071,5.623-.459,6.2,3.9-1.224,4.743-2.372a40.672,40.672,0,0,1,3.864-4.17c.383-.267-1.836-3.672-1.836-3.672" transform="translate(-48.879 -54.606)" fill="#fff"/>
    <path id="Path_8890" data-name="Path 8890" d="M109.628,132.311a.8.8,0,0,1-.562-.185c-.8-.748-.132-5.174.392-6.5.626-1.586,3.859-3.018,6.457-4.168l.215-.1.128.2c2.365,3.628,1.959,3.913,1.764,4.049a40.194,40.194,0,0,0-3.8,4.107,8.868,8.868,0,0,1-4.443,2.587c-.052,0-.1.007-.15.007m6.294-10.252c-2.35,1.042-5.425,2.435-5.951,3.77-.62,1.569-.969,5.48-.528,5.894.019.018.1.049.283.031a8.428,8.428,0,0,0,4.048-2.364,42.058,42.058,0,0,1,3.853-4.173,15.748,15.748,0,0,0-1.706-3.157" transform="translate(-48.655 -54.324)"/>
    <path id="Path_8891" data-name="Path 8891" d="M115.763,137.407l-.055.914a1.033,1.033,0,0,0,2.062.123l.08-1.338a5.8,5.8,0,1,0-11.565-.784l-3.5,59.916,2.062.123,3.474-59.474a3.741,3.741,0,0,1,3.894-3.5,3.8,3.8,0,0,1,3.548,4.024" transform="translate(-46.008 -58.58)" fill="#fff"/>
    <path id="Path_8892" data-name="Path 8892" d="M104.871,196.428l-2.614-.156,3.517-60.191a6.094,6.094,0,0,1,2.174-4.294,6,6,0,0,1,4.612-1.373,6.126,6.126,0,0,1,5.33,6.484l-.08,1.338a1.316,1.316,0,0,1-1.385,1.229,1.309,1.309,0,0,1-1.228-1.385l.055-.914a3.587,3.587,0,0,0-.914-2.594,3.385,3.385,0,0,0-2.371-1.138,3.479,3.479,0,0,0-3.606,3.245Zm-2.03-.675,1.511.09,3.458-59.2a4,4,0,0,1,4.183-3.763,3.932,3.932,0,0,1,2.756,1.32,4.141,4.141,0,0,1,1.054,3l-.055.914a.757.757,0,1,0,1.511.09l.08-1.337a5.574,5.574,0,0,0-4.845-5.9,5.481,5.481,0,0,0-4.191,1.249,5.538,5.538,0,0,0-1.977,3.9Z" transform="translate(-45.772 -58.356)"/>
    <path id="Path_8893" data-name="Path 8893" d="M117.167,123.131l-.88-1.415s-5.355,2.41-5.7,2.869a6.549,6.549,0,0,0-1.606,2.945,23.983,23.983,0,0,0,.153,3.94,3.011,3.011,0,0,0,.191-.765,6.685,6.685,0,0,1,.65-1.377s.038-1.989,1.109-2.754,1.684-.421,1.684-.421l.1,0a5.908,5.908,0,0,1,.013,3.555c-.36,1.462-.2,2.215,1.949-.145s1.583-2.033,1.875-4.108a2.624,2.624,0,0,0,.008-.748c.186-.73.45-1.572.45-1.572" transform="translate(-48.762 -54.482)" fill="#fff"/>
    <path id="Path_8894" data-name="Path 8894" d="M108.764,132.334l-.13-1.116a23.983,23.983,0,0,1-.153-4,6.044,6.044,0,0,1,1.474-2.844c.075-.092.139-.171.187-.235.358-.479,4.536-2.384,5.807-2.956l.22-.1,1.074,1.729-.038.121c0,.009-.251.8-.432,1.506a2.98,2.98,0,0,1-.016.77c-.061.436-.085.769-.1,1.036-.075,1.09-.143,1.353-1.842,3.218-1.41,1.546-1.932,1.737-2.289,1.549-.419-.224-.312-.928-.133-1.655a5.729,5.729,0,0,0,.061-3.218l-.045-.025c-.013-.007-.493-.233-1.386.4-.948.677-.994,2.517-.994,2.535l0,.072-.036.062a6.675,6.675,0,0,0-.613,1.244,3.157,3.157,0,0,1-.209.858Zm4.067-6.757.073.185a6.02,6.02,0,0,1,.024,3.723,2.569,2.569,0,0,0-.13,1.021c.12-.033.527-.234,1.607-1.419,1.622-1.781,1.633-1.928,1.7-2.883.019-.276.043-.62.107-1.076a2.336,2.336,0,0,0,.009-.669l-.009-.055.014-.054c.143-.566.336-1.2.416-1.465l-.686-1.1a45.471,45.471,0,0,0-5.375,2.687c-.049.065-.117.15-.2.247a5.591,5.591,0,0,0-1.355,2.561,15.292,15.292,0,0,0,.026,2.471c.13-.271.292-.562.421-.784a4.078,4.078,0,0,1,1.222-2.9,2.022,2.022,0,0,1,1.895-.476Z" transform="translate(-48.538 -54.197)"/>
    <path id="Path_8895" data-name="Path 8895" d="M141.581,48.45c.014-.694-.38-1.208-.677-.581-3.711,7.842-6.753,28.1-10.959,32.823a42.119,42.119,0,0,1-9.3,7.918s2.3,4.82,2.64,4.935,8.377-1.721,12.738-4.361,4.82-3.328,4.82-3.328Z" transform="translate(-54.005 -21.3)" fill="#ab1b2d"/>
    <path id="Path_8896" data-name="Path 8896" d="M123.011,93.594a.35.35,0,0,1-.1-.01c-.125-.041-.456-.152-2.8-5.078l-.11-.231.222-.128a42.27,42.27,0,0,0,9.228-7.863c2.36-2.648,4.39-10.451,6.354-18,1.523-5.851,2.961-11.378,4.561-14.76.225-.473.531-.457.648-.429.395.093.565.652.555,1.133l-.735,37.487-.045.067c-.051.075-.617.815-4.907,3.411a43.645,43.645,0,0,1-12.868,4.4m-2.3-5.1a43.734,43.734,0,0,0,2.4,4.565c.713-.031,8.332-1.823,12.482-4.335a28.056,28.056,0,0,0,4.689-3.2l.731-37.308a1.115,1.115,0,0,0-.107-.538.555.555,0,0,0-.044.081c-1.578,3.335-3.01,8.837-4.526,14.662-1.98,7.61-4.027,15.478-6.476,18.226a43.86,43.86,0,0,1-9.145,7.842" transform="translate(-53.713 -21.077)"/>
    <path id="Path_8897" data-name="Path 8897" d="M176.526,31.581a17.628,17.628,0,0,0-10.754,5.767L163.454,40.7l15.467-3.213L177.463,32.1Z" transform="translate(-73.165 -14.136)" fill="#ab1b2d"/>
    <path id="Path_8898" data-name="Path 8898" d="M162.333,40.883l2.709-3.924a18.069,18.069,0,0,1,10.943-5.883l.091-.013,1.121.617,1.565,5.791Zm13.638-9.247a17.473,17.473,0,0,0-10.485,5.651l-1.915,2.776,14.5-3.014-1.352-5Z" transform="translate(-72.663 -13.904)"/>
    <path id="Path_8899" data-name="Path 8899" d="M153.215,115.561c-1.25,7.4-6.405,31.845-6.874,36.149s.156,33.567.156,33.567a36.3,36.3,0,0,0,7.5,2.582,14.808,14.808,0,0,0,5.312,0s.635-28.434,1.25-32.018c1.094-6.369,10.936-27.886,10.936-27.886l-10.623-17.386Z" transform="translate(-65.427 -49.493)" fill="#fff"/>
    <path id="Path_8900" data-name="Path 8900" d="M156.545,188.053a17.294,17.294,0,0,1-2.819-.235,35.954,35.954,0,0,1-7.573-2.605L146,185.14l0-.171c-.025-1.2-.62-29.33-.154-33.6.267-2.46,2.049-11.418,3.772-20.08,1.319-6.633,2.566-12.9,3.1-16.085l.02-.119,8-5.213,10.848,17.754-.061.134c-.1.214-9.84,21.557-10.915,27.818-.6,3.523-1.24,31.693-1.246,31.977l0,.214-.208.049a12.215,12.215,0,0,1-2.6.239m-10-3.267a35.18,35.18,0,0,0,7.272,2.488,15.356,15.356,0,0,0,5,.045c.065-2.859.659-28.4,1.249-31.837,1.055-6.14,9.989-25.831,10.9-27.82l-10.4-17.018-7.316,4.771c-.55,3.23-1.783,9.426-3.086,15.981-1.721,8.651-3.5,17.6-3.765,20.032-.443,4.066.1,30.936.154,33.359" transform="translate(-65.202 -49.179)"/>
    <path id="Path_8901" data-name="Path 8901" d="M169.613,32.662c11.873,2.066,15.935,7.918,17.185,9.812s.478,30.233.165,45.728,2.813,39.942,1.875,51.649-2.04,13.307-2.04,13.307-5.312-2.066-8.75-1.033l-3.437,1.033s-1.085-28.113-2.648-37.066-3.443-11.476-5.318-21.461-8.9-9.984-8.9-9.984-3.869.23-4.807-14.576a92.276,92.276,0,0,1,2.932-28.114l8.75-5.852Z" transform="translate(-68.39 -14.62)" fill="#fff"/>
    <path id="Path_8902" data-name="Path 8902" d="M174.125,153.289l-.014-.357c-.011-.281-1.1-28.2-2.643-37.029a79.707,79.707,0,0,0-2.536-10.315,96.486,96.486,0,0,1-2.781-11.143c-1.808-9.626-8.356-9.758-8.634-9.759-.092.012-1.151.012-2.288-1.869-1.463-2.418-2.4-6.78-2.794-12.965a93.372,93.372,0,0,1,2.943-28.208l.028-.1,8.833-5.909,5.089-3.5.111.02c8.105,1.409,13.949,4.751,17.368,9.931,1.07,1.621.782,19.173.33,40.22-.043,2.013-.084,3.921-.119,5.665-.146,7.257.465,16.507,1.055,25.453.679,10.274,1.319,19.978.82,26.214-.933,11.647-2.041,13.374-2.087,13.442l-.124.18-.2-.08c-.053-.02-5.266-2.02-8.571-1.026Zm5.944-1.968a20.72,20.72,0,0,1,6.368,1.254c.277-.674,1.138-3.444,1.9-12.983.5-6.2-.144-15.88-.82-26.134-.592-8.957-1.2-18.219-1.056-25.5.035-1.745.076-3.652.12-5.667.328-15.25.823-38.295-.239-39.9-3.317-5.025-9-8.279-16.891-9.673L164.547,36.1l-8.667,5.8a92.914,92.914,0,0,0-2.894,27.923c.9,14.172,4.474,14.317,4.521,14.317h0c.094,0,7.292.124,9.186,10.21a96.175,96.175,0,0,0,2.768,11.085,80.219,80.219,0,0,1,2.55,10.379c1.453,8.321,2.5,33.448,2.637,36.746l3.1-.93a8.111,8.111,0,0,1,2.323-.3" transform="translate(-68.167 -14.384)"/>
    <path id="Path_8903" data-name="Path 8903" d="M169.613,32.662l-5,3.443-3.254,1.982-5.5,3.87a95.221,95.221,0,0,0-2.932,28.42c.938,14.806,4.807,14.27,4.807,14.27a8.335,8.335,0,0,1,5.559,2.737c6.279,1.187,13.5,1.038,17.406-.326a27.053,27.053,0,0,0,6.347-3.089c.341-15.916.889-39.763-.254-41.495-1.25-1.894-5.312-7.746-17.185-9.812" transform="translate(-68.39 -14.62)" fill="#fff"/>
    <path id="Path_8904" data-name="Path 8904" d="M171.818,88.231a48.3,48.3,0,0,1-8.793-.812l-.088-.017-.061-.065a8.146,8.146,0,0,0-5.359-2.651,1.843,1.843,0,0,1-1.277-.523c-1.4-1.148-3.2-4.509-3.806-14.007a96.3,96.3,0,0,1,2.943-28.512l.026-.094,5.576-3.926,3.269-1.993,5.079-3.5.112.019c8.1,1.41,13.949,4.752,17.368,9.932,1.07,1.621.782,19.18.33,40.233L187.1,83.88l-.117.08a27.5,27.5,0,0,1-6.411,3.122,28.2,28.2,0,0,1-8.756,1.149m-8.6-1.338c6.133,1.144,13.342,1.006,17.177-.333a27.164,27.164,0,0,0,6.165-2.977l.028-1.277c.327-15.255.823-38.308-.239-39.917-3.317-5.025-9-8.279-16.891-9.673L164.548,36.1l-3.266,1.991-5.4,3.8a95.792,95.792,0,0,0-2.9,28.234c.62,9.789,2.524,12.73,3.6,13.613a1.392,1.392,0,0,0,.89.4,8.515,8.515,0,0,1,5.735,2.755" transform="translate(-68.167 -14.384)"/>
    <path id="Path_8905" data-name="Path 8905" d="M168.333,39.364c-1.718,1.119-2.661,4.479-2.661,4.479l-.567-3.1,3.541-1.836Z" transform="translate(-73.904 -17.415)" fill="#ab1b2d"/>
    <path id="Path_8906" data-name="Path 8906" d="M165.364,44.461l-.819-4.477,4.692-2.433-1,1.438c-1.611,1.049-2.537,4.29-2.546,4.323Zm-.2-4.175.339,1.855a10.147,10.147,0,0,1,1.586-2.854Z" transform="translate(-73.653 -16.809)"/>
    <path id="Path_8907" data-name="Path 8907" d="M182.859,31.383c2.6-.373,1.771-.516,4.27.2s-.911,2.553-.911,2.553-.442-2.094-1.276-2.3a6.167,6.167,0,0,0-2.161.086Z" transform="translate(-81.816 -13.909)" fill="#ab1b2d"/>
    <path id="Path_8908" data-name="Path 8908" d="M185.757,34.332l-.077-.361c-.17-.8-.614-1.974-1.07-2.084a5.982,5.982,0,0,0-2.039.087l-.388.084.164-1.142.2-.029c.517-.074.9-.139,1.2-.19a4.078,4.078,0,0,1,2.649.242l.54.157c.692.2,1.066.515,1.111.942.1.955-1.621,1.934-1.967,2.121Zm-1.8-3.061a3.407,3.407,0,0,1,.784.079c.769.186,1.209,1.456,1.393,2.139.659-.408,1.407-1.023,1.368-1.394-.019-.176-.273-.343-.714-.47l-.542-.157a3.653,3.653,0,0,0-2.4-.229l-.246.043c.118-.007.239-.012.36-.012" transform="translate(-81.549 -13.686)"/>
    <path id="Path_8909" data-name="Path 8909" d="M175.314,22.982s2.954,7.306,1.4,10.57-7.151,4.352-7.772,2.8.155-2.642-.311-4.818-.777-5.6-.777-5.6l6.995-6.84Z" transform="translate(-75.134 -8.548)" fill="#fff"/>
    <path id="Path_8910" data-name="Path 8910" d="M170.378,36.846l-.145,0c-.936-.03-1.569-.339-1.781-.869a4.867,4.867,0,0,1-.226-2.386,7.8,7.8,0,0,0-.1-2.477c-.464-2.168-.779-5.595-.782-5.629l-.012-.13,7.49-7.323.528,4.406c.246.617,2.928,7.5,1.379,10.758-1.152,2.42-4.37,3.653-6.351,3.653m-2.471-11.283c.062.645.354,3.536.76,5.433a8.384,8.384,0,0,1,.109,2.637,4.376,4.376,0,0,0,.188,2.137c.124.309.593.5,1.286.523,1.833.038,4.9-1.069,5.981-3.336,1.484-3.118-1.377-10.277-1.406-10.348l-.018-.071-.4-3.33Z" transform="translate(-74.901 -8.07)"/>
    <path id="Path_8911" data-name="Path 8911" d="M169.409,16.04c-.634,6.341-2.332,8.86-8.083,8.86-3.3,0-4.749-3.971-5.44-7.772-.932-5.129,1.825-10.415,5.13-10.415s9.015,3.109,8.393,9.326" transform="translate(-69.695 -3.005)" fill="#fff"/>
    <path id="Path_8912" data-name="Path 8912" d="M161.1,24.954c-2.825,0-4.747-2.691-5.712-8a11.27,11.27,0,0,1,2.051-8.926,4.424,4.424,0,0,1,3.35-1.813,9.518,9.518,0,0,1,6.584,3.122,8.221,8.221,0,0,1,2.084,6.508c-.6,6.041-2.062,9.109-8.358,9.109m-.31-18.187a3.9,3.9,0,0,0-2.927,1.615,10.86,10.86,0,0,0-1.931,8.474c.91,5.007,2.649,7.546,5.168,7.546,5.324,0,7.149-2.012,7.808-8.612a7.683,7.683,0,0,0-1.944-6.082,9.066,9.066,0,0,0-6.175-2.94" transform="translate(-69.47 -2.782)"/>
    <path id="Path_8913" data-name="Path 8913" d="M160.568,40.641c-3.906,9.468-3.776,18.142-1.206,32.679,1.549,8.765,3.611,11.63,3.611,11.63l-.757,6.56s-5.321-.553-7.2-2.275-5.38-2.22-4.269-19.664c1.211-19.02,2.551-24.575,4.582-26.124a26.118,26.118,0,0,1,5.235-2.806" transform="translate(-67.384 -18.192)" fill="#ab1b2d"/>
    <path id="Path_8914" data-name="Path 8914" d="M162.235,91.413l-.272-.029c-.222-.023-5.433-.583-7.354-2.345-.2-.181-.413-.348-.64-.523-1.991-1.543-4.718-3.656-3.718-19.362,1.274-20,2.684-24.8,4.689-26.326a26.037,26.037,0,0,1,5.3-2.844l.6-.236-.247.6c-4.083,9.9-3.568,19.068-1.189,32.525,1.515,8.573,3.542,11.488,3.563,11.517l.062.086Zm-2.395-50.662a23.905,23.905,0,0,0-4.564,2.516c-1.831,1.4-3.219,6.221-4.473,25.922-.982,15.413,1.612,17.422,3.505,18.89.239.185.467.362.674.553,1.55,1.422,5.669,2.031,6.766,2.17l.713-6.183c-.363-.558-2.185-3.661-3.6-11.651-2.348-13.283-2.89-22.428.975-32.218" transform="translate(-67.16 -17.792)"/>
    <path id="Path_8915" data-name="Path 8915" d="M194.159,40.972a23.942,23.942,0,0,0-14.317-9.841c2.776,6.933-.466,25.357-3.75,33.894-3.383,8.8-5.694,15.015-5.694,16.22,0,.835.024,3.947.54,5.124.058.059.1.84.162.9,6.279,1.186,13.5,1.038,17.407-.327a30.813,30.813,0,0,0,4.181-1.8c.75-5.465,1.248-30.334,1.471-44.174" transform="translate(-76.273 -13.935)" fill="#ab1b2d"/>
    <path id="Path_8916" data-name="Path 8916" d="M179.619,88.031a48.314,48.314,0,0,1-8.794-.812l-.088-.017-.061-.065c-.088-.092-.105-.21-.154-.6-.014-.116-.035-.286-.051-.353l-.009-.022a17.658,17.658,0,0,1-.563-5.235c0-1.226,2.095-6.911,5.712-16.319,3.323-8.639,6.431-27,3.751-33.692l-.2-.5.523.129a24.312,24.312,0,0,1,14.476,9.949l.053.074,0,.091c-.228,14.158-.721,38.727-1.474,44.208l-.019.141-.126.066a31.085,31.085,0,0,1-4.218,1.811,28.2,28.2,0,0,1-8.755,1.15M171.1,86.709c6.114,1.128,13.275.984,17.09-.349a30.946,30.946,0,0,0,4.018-1.713c.736-5.708,1.222-29.869,1.448-43.91a23.741,23.741,0,0,0-13.6-9.529c1.469,4.358.787,11.822.23,15.984A84.919,84.919,0,0,1,176.126,64.8c-2.746,7.14-5.676,14.862-5.676,16.12a16.6,16.6,0,0,0,.507,4.991,1.636,1.636,0,0,1,.112.552c.009.072.02.167.032.243" transform="translate(-76.05 -13.613)"/>
    <path id="Path_8917" data-name="Path 8917" d="M209.636,147.713s-1.555,2-1.383,3.569-.637.949-.887,4.168" transform="translate(-92.821 -66.119)" fill="#fff"/>
    <path id="Path_8918" data-name="Path 8918" d="M207.419,155.335l-.551-.043a6.934,6.934,0,0,1,.682-2.909,1.741,1.741,0,0,0,.206-1.207c-.183-1.667,1.373-3.684,1.439-3.769l.436.34c-.015.019-1.485,1.926-1.326,3.369a2.269,2.269,0,0,1-.259,1.51,6.458,6.458,0,0,0-.628,2.71" transform="translate(-92.598 -65.982)"/>
    <path id="Path_8919" data-name="Path 8919" d="M211.122,144.072s1.6,4.616.5,7.088a3.315,3.315,0,0,0-2.136,2.937" transform="translate(-93.768 -64.489)" fill="#fff"/>
    <path id="Path_8920" data-name="Path 8920" d="M209.535,154.023h-.552a3.559,3.559,0,0,1,2.2-3.147c.967-2.368-.531-6.741-.547-6.786l.522-.182c.067.193,1.628,4.748.487,7.292l-.048.106-.109.04a3.008,3.008,0,0,0-1.954,2.677" transform="translate(-93.545 -64.416)"/>
    <path id="Path_8921" data-name="Path 8921" d="M203.644,138.564c-1.784,3.307-2.256,5.72-2.1,6.665a4.835,4.835,0,0,0,1.295,2.486c.262,0,.214-.107.214-.842s.118-1.854.643-1.854,1.522,3.411,1.732,3.884.377,4.211,1.269,3.739,1.933-2.8,2.439-4.223c.211-.594-.364-5.279-1.818-6.286-.778-.539-.1-2.414-.1-2.414Z" transform="translate(-90.202 -62.024)" fill="#fff"/>
    <path id="Path_8922" data-name="Path 8922" d="M206.321,152.69a.539.539,0,0,1-.247-.06c-.536-.273-.745-1.453-.962-2.967a7.452,7.452,0,0,0-.161-.917c-.055-.123-.146-.392-.272-.764a13.488,13.488,0,0,0-1.237-2.949c-.15.065-.337.607-.337,1.57l0,.289c0,.374.007.561-.135.7a.483.483,0,0,1-.359.125c-.542,0-1.428-1.885-1.567-2.717-.184-1.1.4-3.645,2.129-6.842l.109-.2,4.059,1.312-.1.268c-.155.435-.489,1.754,0,2.094,1.543,1.069,2.187,5.86,1.921,6.605-.135.381-1.354,3.731-2.57,4.375a.6.6,0,0,1-.281.073m-2.849-8.216c.465,0,.853.747,1.731,3.331.117.343.206.609.254.717a5.29,5.29,0,0,1,.2,1.063c.087.6.351,2.444.668,2.554.713-.379,1.7-2.338,2.325-4.082.161-.452-.362-5.029-1.716-5.967-.755-.522-.468-1.868-.295-2.464l-3.087-1c-1.807,3.413-2.077,5.6-1.962,6.286a6.079,6.079,0,0,0,.963,2.128c0-.046,0-.1,0-.144l0-.3c0-.795.119-2.129.919-2.129" transform="translate(-89.978 -61.754)"/>
    <path id="Path_8923" data-name="Path 8923" d="M202.568,40.55c7.2,3.217,9.388,16.644,11.731,27.661s-7.03,30.468-7.03,30.468-5.15-1.932-6.03-3.692c-.4-.8,3.53-16.448,2.281-20.235s-5-9.64-5-19.8,4.047-14.406,4.047-14.406" transform="translate(-88.862 -18.151)" fill="#ab1b2d"/>
    <path id="Path_8924" data-name="Path 8924" d="M207.186,98.757l-.236-.089c-.214-.081-5.263-1.991-6.18-3.827-.167-.333.04-1.557.725-5.254.93-5.022,2.335-12.612,1.541-15.018-.277-.84-.678-1.781-1.143-2.871a40.062,40.062,0,0,1-3.871-17.011c0-10.15,3.955-14.42,4.124-14.6l.135-.141.178.08c6.723,3,9.154,14.7,11.3,25.028.2.955.394,1.9.592,2.827.982,4.618.092,11.182-2.644,19.51a102.645,102.645,0,0,1-4.407,11.137Zm-4.768-58.138c-.679.829-3.845,5.177-3.845,14.068A39.576,39.576,0,0,0,202.4,71.482c.469,1.1.875,2.052,1.159,2.914.839,2.54-.526,9.91-1.521,15.292a37.761,37.761,0,0,0-.767,4.925c.639,1.275,4.082,2.839,5.635,3.447,1.036-2.221,9.06-19.9,6.9-30.061-.2-.929-.394-1.874-.592-2.83-2.1-10.1-4.47-21.525-10.8-24.55" transform="translate(-88.638 -17.882)"/>
    <path id="Path_8925" data-name="Path 8925" d="M173.038,121.4a.663.663,0,1,1-.66-.727.7.7,0,0,1,.66.727" transform="translate(-76.865 -54.017)" fill="#fff"/>
    <path id="Path_8926" data-name="Path 8926" d="M172.154,122.183a1.006,1.006,0,1,1,.936-1,.973.973,0,0,1-.936,1m0-1.454a.457.457,0,1,0,.383.451.421.421,0,0,0-.383-.451" transform="translate(-76.641 -53.793)"/>
    <path id="Path_8927" data-name="Path 8927" d="M173.478,129.091a.663.663,0,1,1-.66-.727.7.7,0,0,1,.66.727" transform="translate(-77.062 -57.458)" fill="#fff"/>
    <path id="Path_8928" data-name="Path 8928" d="M172.595,129.87a1.006,1.006,0,1,1,.936-1,.972.972,0,0,1-.936,1m0-1.454a.457.457,0,1,0,.383.451.421.421,0,0,0-.383-.451" transform="translate(-76.838 -57.234)"/>
    <path id="Path_8929" data-name="Path 8929" d="M168.01,115.171a.663.663,0,1,1-.66-.727.7.7,0,0,1,.66.727" transform="translate(-74.614 -51.227)" fill="#fff"/>
    <path id="Path_8930" data-name="Path 8930" d="M167.127,115.95a1.006,1.006,0,1,1,.935-1,.972.972,0,0,1-.935,1m0-1.454a.457.457,0,1,0,.383.45.421.421,0,0,0-.383-.45" transform="translate(-74.39 -51.003)"/>
    <path id="Path_8931" data-name="Path 8931" d="M164.741,104.506a.663.663,0,1,1-.66-.727.7.7,0,0,1,.66.727" transform="translate(-73.151 -46.453)" fill="#fff"/>
    <path id="Path_8932" data-name="Path 8932" d="M163.858,105.285a1.006,1.006,0,1,1,.936-1,.972.972,0,0,1-.936,1m0-1.454a.457.457,0,1,0,.383.45.421.421,0,0,0-.383-.45" transform="translate(-72.927 -46.23)"/>
    <path id="Path_8933" data-name="Path 8933" d="M162.353,93.287a.663.663,0,1,1-.66-.727.7.7,0,0,1,.66.727" transform="translate(-72.082 -41.432)" fill="#fff"/>
    <path id="Path_8934" data-name="Path 8934" d="M161.47,94.065a1.006,1.006,0,1,1,.936-1,.972.972,0,0,1-.936,1m0-1.454a.457.457,0,1,0,.383.451.422.422,0,0,0-.383-.451" transform="translate(-71.858 -41.207)"/>
    <path id="Path_8935" data-name="Path 8935" d="M161.222,82.76a.663.663,0,1,1-.66-.727.7.7,0,0,1,.66.727" transform="translate(-71.576 -36.72)" fill="#fff"/>
    <path id="Path_8936" data-name="Path 8936" d="M160.339,83.539a1.006,1.006,0,1,1,.935-1,.972.972,0,0,1-.935,1m0-1.454a.457.457,0,1,0,.383.451.422.422,0,0,0-.383-.451" transform="translate(-71.352 -36.496)"/>
    <path id="Path_8937" data-name="Path 8937" d="M103.854,250.2l-1.8-.131a.784.784,0,0,1-.723-.837l.162-2.218a.784.784,0,0,1,.836-.723l1.8.131a.784.784,0,0,1,.723.837l-.162,2.218a.784.784,0,0,1-.837.723" transform="translate(-45.358 -110.243)" fill="#fff"/>
    <path id="Path_8938" data-name="Path 8938" d="M103.687,250.254l-.078,0-1.8-.131a1.061,1.061,0,0,1-.979-1.132L101,246.77a1.073,1.073,0,0,1,1.132-.978l1.8.131a1.059,1.059,0,0,1,.978,1.133l-.162,2.218a1.062,1.062,0,0,1-1.054.98m-.038-.554a.491.491,0,0,0,.367-.122.5.5,0,0,0,.174-.345l.162-2.218a.5.5,0,0,0-.122-.367.5.5,0,0,0-.345-.175l-1.8-.131a.5.5,0,0,0-.541.468l-.162,2.217a.509.509,0,0,0,.467.541Z" transform="translate(-45.133 -110.02)"/>
    <path id="Path_8939" data-name="Path 8939" d="M178,21.909s2.582-4.521,3.041-2.34-.115,5.28-1.492,5.28a1.664,1.664,0,0,1-1.664-1.218Z" transform="translate(-79.626 -8.493)" fill="#fff"/>
    <path id="Path_8940" data-name="Path 8940" d="M179.326,24.9a1.933,1.933,0,0,1-1.932-1.431l-.01-.04.122-1.827.031-.055c.42-.735,1.834-3.072,2.818-3.072a.548.548,0,0,1,.091.007c.325.05.541.322.642.806.335,1.592.155,3.979-.721,5.059a1.341,1.341,0,0,1-1.041.553m-1.385-1.522a1.383,1.383,0,0,0,1.385.97.8.8,0,0,0,.612-.349c.679-.837.958-2.942.61-4.6-.056-.263-.135-.366-.188-.374-.412-.052-1.514,1.356-2.312,2.739Z" transform="translate(-79.4 -8.27)"/>
    <path id="Path_8941" data-name="Path 8941" d="M167.975,7.493c1.29-.746,2.063-1.523,2.2-1.523a26.236,26.236,0,0,0-8.339-.689c-3.749.459-6.121,2.678-2.449,3.519a14.054,14.054,0,0,0,4.974-.038,9.368,9.368,0,0,0,2.42-.671c.85,1.437-.206,5.972.908,6.562.936.5.328,2.3-.316,3.641a3.157,3.157,0,0,1-2.285-.275,8.046,8.046,0,0,0-5.24-.842c-2.142.306-2.334,1.607-3.6.5l.038,1.875a.849.849,0,0,0,.516.287c.067,1.176.372,4.593,1.665,5.413,1.568.994,5.661.612,7,.306s2.793-2.41,3.022-3.558.88-2.678.727-3.481a5.131,5.131,0,0,1-.268-2.946c.383-1.262,1.072-2.754,1.148-2.983m-8.3,7.268a9.916,9.916,0,0,0-3.749.306,1.209,1.209,0,0,1-.909-.315,2.086,2.086,0,0,0,.833-.3,5.516,5.516,0,0,1,3.519-.956c1.654.066,3.421,1.1,4.363,1.482a11.56,11.56,0,0,1-4.057-.22" transform="translate(-69.939 -2.315)" fill="#fff"/>
    <path id="Path_8942" data-name="Path 8942" d="M161.719,25.95a7.447,7.447,0,0,1-3.636-.687c-1.318-.835-1.681-3.936-1.781-5.433a1.071,1.071,0,0,1-.475-.337l-.051-.071-.053-2.588.472.414c.609.535.836.417,1.444.1a5.565,5.565,0,0,1,1.93-.662A8.388,8.388,0,0,1,165,17.57a2.814,2.814,0,0,0,1.945.26c.787-1.685.929-2.859.376-3.152-.741-.392-.72-1.821-.7-3.476a9.87,9.87,0,0,0-.22-2.975,9.628,9.628,0,0,1-2.246.59,14.22,14.22,0,0,1-5.083.031c-1.728-.4-2.063-1.077-2.037-1.579.057-1.106,2-2.173,4.525-2.481,3.342-.413,8.4.5,8.608.8l.094.138-.155.3h-.119c-.064.042-.2.146-.313.239a14.7,14.7,0,0,1-1.8,1.248l-.276-.478a13.936,13.936,0,0,0,1.688-1.168,26.158,26.158,0,0,0-7.661-.531c-2.336.286-4,1.263-4.041,1.962-.02.4.586.777,1.62,1.014a14.013,14.013,0,0,0,4.875-.043,9.126,9.126,0,0,0,2.35-.651l.222-.094.123.208a7.8,7.8,0,0,1,.4,3.479c-.018,1.224-.041,2.745.4,2.98.9.476.83,1.86-.2,4l-.06.124-.135.028a3.384,3.384,0,0,1-2.492-.314,7.821,7.821,0,0,0-5.05-.8,5.009,5.009,0,0,0-1.752.6,1.484,1.484,0,0,1-1.6.166l.025,1.214a.66.66,0,0,0,.292.13l.112.02.145-.014a1.839,1.839,0,0,0,.721-.261,5.755,5.755,0,0,1,3.669-.994,10.227,10.227,0,0,1,3.7,1.163c.286.134.54.254.753.339l.783.314-.818.209a11.637,11.637,0,0,1-4.173-.215,6.816,6.816,0,0,0-2.885.161,6.567,6.567,0,0,1-.792.148,1.432,1.432,0,0,1-.972-.27c.149,2.033.616,4.279,1.514,4.85,1.464.928,5.5.564,6.792.27,1.2-.273,2.6-2.277,2.813-3.342.081-.405.213-.858.341-1.3a5.8,5.8,0,0,0,.385-2.08c-.036-.189-.092-.383-.151-.585a4.067,4.067,0,0,1-.11-2.492c.284-.937.738-2.007.982-2.582.087-.2.149-.351.168-.409l.525.175c-.022.065-.089.225-.185.45-.24.566-.686,1.617-.962,2.527a3.508,3.508,0,0,0,.113,2.179c.064.219.123.429.162.634a5.852,5.852,0,0,1-.4,2.339c-.125.425-.254.866-.33,1.248-.251,1.255-1.8,3.445-3.231,3.772a18.108,18.108,0,0,1-3.573.344m-1.248-6.683a6.742,6.742,0,0,1,1.135.1,17.132,17.132,0,0,0,2.983.33,9.374,9.374,0,0,0-3.347-1.044,5.206,5.206,0,0,0-3.37.919c-.063.036-.126.071-.189.1.034,0,.066,0,.1,0a6.236,6.236,0,0,0,.721-.136,8.458,8.458,0,0,1,1.966-.264" transform="translate(-69.704 -2.096)"/>
  </g>
</svg>
