<svg xmlns="http://www.w3.org/2000/svg" width="42" height="42" viewBox="0 0 42 42">
  <g id="Group_1845" data-name="Group 1845" transform="translate(-215.601 -1177)">
    <rect id="Rectangle_1743" data-name="Rectangle 1743" width="42" height="42" transform="translate(215.601 1177)" fill="#99a26f"/>
    <path id="_29579475716285958103805" data-name="29579475716285958103805" d="M18,21a1,1,0,0,1-1-1A5,5,0,0,0,7,20a1,1,0,0,1-2,0,7,7,0,0,1,14,0,1,1,0,0,1-1,1ZM12,11a4,4,0,1,1,2.827-1.173A4,4,0,0,1,12,11Zm0-6a2,2,0,1,0,1.414.586A2,2,0,0,0,12,5Z" transform="translate(224.601 1186)" fill="#fff"/>
  </g>
</svg>
