<svg xmlns="http://www.w3.org/2000/svg" xmlns:xlink="http://www.w3.org/1999/xlink" width="56" height="56" viewBox="0 0 56 56">
  <defs>
    <linearGradient id="linear-gradient" x1="0.5" x2="0.5" y2="1" gradientUnits="objectBoundingBox">
      <stop offset="0" stop-color="#aa262d"/>
      <stop offset="1" stop-color="#8d1218"/>
    </linearGradient>
    <filter id="Rectangle_146" x="0" y="0" width="56" height="56" filterUnits="userSpaceOnUse">
      <feOffset dy="3" input="SourceAlpha"/>
      <feGaussianBlur stdDeviation="3" result="blur"/>
      <feFlood flood-opacity="0.384"/>
      <feComposite operator="in" in2="blur"/>
      <feComposite in="SourceGraphic"/>
    </filter>
  </defs>
  <g id="Group_2275" data-name="Group 2275" transform="translate(-362.91 -950.978)">
    <g id="Group_1783" data-name="Group 1783" transform="translate(371.91 956.978)">
      <g transform="matrix(1, 0, 0, 1, -9, -6)" filter="url(#Rectangle_146)">
        <g id="Rectangle_146-2" data-name="Rectangle 146" transform="translate(9 6)" stroke="#fff" stroke-width="1" fill="url(#linear-gradient)">
          <rect width="38" height="38" rx="19" stroke="none"/>
          <rect x="0.5" y="0.5" width="37" height="37" rx="18.5" fill="none"/>
        </g>
      </g>
    </g>
    <g id="_9816927541582955602" data-name="9816927541582955602" transform="translate(384.287 966.615)">
      <path id="Path_995" data-name="Path 995" d="M27.787,53.684c0,.007-.524-.185-.562-.2A2.488,2.488,0,0,1,26.448,53c-.6-.541-1.151-1.151-1.739-1.715a7.863,7.863,0,0,0-1.8-1.359,7.282,7.282,0,0,0-1.548-.591,2.534,2.534,0,0,1-3.4.071,4.716,4.716,0,0,0-3.416,4.226c0,.028,0,.056,0,.084a5.02,5.02,0,0,0,.6,2.611h0c.367,1.278.6,2.046,1.033,3.405H18.3c0-.418-.066-.865-.066-1.351a6.993,6.993,0,0,0,1.905.261h.005a11.769,11.769,0,0,0,1.442-.044l.126.178.3.418c.091.143.185.282.285.415q.047.063.1.124h2.447L24.5,58.045a.229.229,0,0,1,.048-.038l.085-.03h.011a5.946,5.946,0,0,0,3.141-2.2Q27.786,54.73,27.787,53.684Zm-6.272-1.972H17.722a.408.408,0,1,1,0-.817h3.793a.408.408,0,1,1,0,.817Z" transform="translate(-14.541 -42.863)" fill="#fff"/>
      <path id="Path_996" data-name="Path 996" d="M38.725,19.691a2.124,2.124,0,1,0,2.124,2.124A2.124,2.124,0,0,0,38.725,19.691Z" transform="translate(-33.648 -17.189)" fill="#fff"/>
      <path id="Path_997" data-name="Path 997" d="M71.659,1.013a1.8,1.8,0,1,0,1.8,1.8,1.8,1.8,0,0,0-1.8-1.8Z" transform="translate(-62.451 -1.013)" fill="#fff"/>
    </g>
  </g>
</svg>
