<svg xmlns="http://www.w3.org/2000/svg" width="26.785" height="23.474" viewBox="0 0 26.785 23.474">
  <g id="Group_1685" data-name="Group 1685" transform="translate(0.1 0.1)">
    <path id="noun-salary-2279793" d="M94.092,0h-21.6A2.422,2.422,0,0,0,70,2.5V20.786a2.422,2.422,0,0,0,2.492,2.492h21.6a2.422,2.422,0,0,0,2.492-2.492V2.5A2.422,2.422,0,0,0,94.092,0Zm-22.431,2.5a.763.763,0,0,1,.831-.841h.678a2.49,2.49,0,0,1-1.509,1.509Zm0,14.266a2.49,2.49,0,0,1,1.509,1.509H72.5a.763.763,0,0,1-.841-.831Zm23.262,3.991a.763.763,0,0,1-.831.841H72.5a.763.763,0,0,1-.841-.831V19.8a2.67,2.67,0,0,0,.831.14h21.6a2.7,2.7,0,0,0,.831-.135Zm0-3.323a.763.763,0,0,1-.831.841h-.678a2.49,2.49,0,0,1,1.509-1.509Zm0-2.4a4.167,4.167,0,0,0-3.239,3.239H74.9a4.167,4.167,0,0,0-3.239-3.239V4.905A4.167,4.167,0,0,0,74.9,1.666H91.684a4.167,4.167,0,0,0,3.239,3.239Zm0-11.867a2.49,2.49,0,0,1-1.509-1.509h.668a.763.763,0,0,1,.841.831Z" transform="translate(-70 -0.004)" fill="#fff" stroke="#c4a166" stroke-width="0.2"/>
    <path id="Path_7491" data-name="Path 7491" d="M55.766,78.874h-2a3.021,3.021,0,0,0-1-1.89h3a.378.378,0,1,0,0-.756H48.123a.378.378,0,0,0,0,.756H50.77A2.273,2.273,0,0,1,53,78.874H48.123a.378.378,0,0,0,0,.756H53a2.273,2.273,0,0,1-2.234,1.89H48.123a.378.378,0,0,0-.266.646l5.293,5.293a.378.378,0,0,0,.535-.533l-4.646-4.651h1.733a3.024,3.024,0,0,0,3-2.647h2a.378.378,0,0,0,0-.756h-.006Z" transform="translate(-38.655 -71.31)" fill="#fff" stroke="#fff" stroke-width="0.2"/>
  </g>
</svg>
