<svg xmlns="http://www.w3.org/2000/svg" xmlns:xlink="http://www.w3.org/1999/xlink" width="43" height="43" viewBox="0 0 43 43">
  <defs>
    <clipPath id="clip-path">
      <rect id="Rectangle_259" data-name="Rectangle 259" width="26.137" height="30.603" fill="#fff"/>
    </clipPath>
  </defs>
  <g id="Group_2379" data-name="Group 2379" transform="translate(-377.875 -508)">
    <rect id="Rectangle_1697" data-name="Rectangle 1697" width="42" height="42" rx="21" transform="translate(378.375 508.5)" fill="#aa262d" stroke="#a2242b" stroke-width="1"/>
    <g id="Group_1777" data-name="Group 1777" transform="translate(386.307 514.698)">
      <g id="Group_106" data-name="Group 106" clip-path="url(#clip-path)">
        <path id="Path_976" data-name="Path 976" d="M14.561,5.349c.061,1.038.087,2.08.085,3.12a18.753,18.753,0,0,1-.226,3.283A24.834,24.834,0,0,0,13.8,17.84a7.353,7.353,0,0,0,.82,3.081,4.785,4.785,0,0,0,2.41,2.1A6.137,6.137,0,0,0,23.7,21.776a9.671,9.671,0,0,0,1.739-2.168,6.36,6.36,0,0,0,.728-1.45c.007-.025.02-.05.029-.074l-.135.176a4.164,4.164,0,0,0,1.936-2.367,2.917,2.917,0,0,0-.162-2.285,1.588,1.588,0,0,0-1.416-.835A1.64,1.64,0,0,0,25.035,14.2a.3.3,0,0,0,.568.156,5.656,5.656,0,0,0,.072-2.392,6.656,6.656,0,0,0-.558-1.953c-.252-.538-.573-1.04-.825-1.577a3.525,3.525,0,0,1-.359-1.776c.025-.345-.08-.414-.328-.6a7.961,7.961,0,0,0-2.289-1.191,5.475,5.475,0,0,0-4.141.231l.357.462A3.891,3.891,0,0,1,18.815,4.6c.278-.122.124-.549-.149-.548a8.492,8.492,0,0,0-2.873.512A4.454,4.454,0,0,0,13.95,5.74a.805.805,0,0,1-.81.377,2.531,2.531,0,0,1-1.787-1.643A2.234,2.234,0,0,1,12.6,1.789a9.446,9.446,0,0,1,2.837-1A9.042,9.042,0,0,1,17.98.607a15.012,15.012,0,0,1,3.439.887,4.8,4.8,0,0,0,1.391.272,11.631,11.631,0,0,1,1.612.042,5.4,5.4,0,0,1,3.435,1.743,3.244,3.244,0,0,1,.7,1.943,16.476,16.476,0,0,1-.271,2.952,40.014,40.014,0,0,1-.944,4.4c-.023.084-.046.168-.07.252a.3.3,0,0,0,.568.156c.337-1.166.6-2.359.825-3.551A29.631,29.631,0,0,0,29.1,6.516a5.08,5.08,0,0,0-.274-2.48A4.966,4.966,0,0,0,25.57,1.463a7.34,7.34,0,0,0-2-.312,6.3,6.3,0,0,1-1.425-.065C20.981.814,19.908.293,18.723.106a10.52,10.52,0,0,0-5.571.762c-1.244.509-2.557,1.464-2.517,2.955a3.214,3.214,0,0,0,1.556,2.545,2.041,2.041,0,0,0,1.24.339c.576-.058.805-.465,1.2-.821a6.2,6.2,0,0,1,3.76-1.235c.091,0,.182-.009.273-.009l-.149-.548a4.3,4.3,0,0,0-1.4,1.047.3.3,0,0,0,.357.462,5.042,5.042,0,0,1,4.17.006,7.784,7.784,0,0,1,1.316.708,4.717,4.717,0,0,1,.491.359l-.086-.208a4.12,4.12,0,0,0,.4,2.226c.315.678.745,1.3,1.008,2a6.745,6.745,0,0,1,.388,2.532,3.58,3.58,0,0,1-.128.968l.568.156c.121-.538.5-1.178,1.149-.949a1.572,1.572,0,0,1,.8,1.668,3.25,3.25,0,0,1-.981,2.05A3.955,3.955,0,0,1,26,17.6a2.662,2.662,0,0,0-.268.172.549.549,0,0,0-.137.233l-.02.048c-.024.061.028-.063,0,0s-.047.108-.071.161a10.553,10.553,0,0,1-.511.984,8.735,8.735,0,0,1-2.131,2.512,5.506,5.506,0,0,1-3.782,1.175,4.854,4.854,0,0,1-3.668-1.829,6.536,6.536,0,0,1-1.035-3.576,19.108,19.108,0,0,1,.305-3.838c.153-.93.378-1.858.469-2.8A35.98,35.98,0,0,0,15.168,5.7c-.006-.117-.012-.234-.018-.351-.022-.377-.611-.379-.589,0" transform="translate(-8.13 0)" fill="#fff"/>
        <path id="Path_977" data-name="Path 977" d="M59.882,79.326v3.406l.086-.208a11.166,11.166,0,0,1-3.826,3.015.3.3,0,0,0,.07.538c-.056-.015-.016-.008-.011,0-.025-.03.044.041.06.059a.792.792,0,0,1,.09.113A4.34,4.34,0,0,1,56.9,87.7a.3.3,0,0,0,.433.176c.767-.491,1.52-1.012,2.244-1.566a8.251,8.251,0,0,0,1.3-1.137,2.35,2.35,0,0,0,.448-1.815,5.447,5.447,0,0,0-.329-1.407c-.136-.349-.706-.2-.568.157.3.764.6,1.975.018,2.667A7.422,7.422,0,0,1,59.275,85.8c-.465.357-.944.695-1.428,1.024-.27.184-.541.365-.816.541l.432.176a4.683,4.683,0,0,0-.649-1.653.912.912,0,0,0-.446-.377l.07.538a11.8,11.8,0,0,0,3.811-2.954.672.672,0,0,0,.22-.363,2.941,2.941,0,0,0,0-.338V79.326a.3.3,0,0,0-.589,0" transform="translate(-42.811 -60.428)" fill="#fff"/>
        <path id="Path_978" data-name="Path 978" d="M40.947,96.856a5.064,5.064,0,0,0,.784,2.247l.254-.443c-.956.122-1.419,1.217-1.568,2.041l.538-.07a7.618,7.618,0,0,1-.782-2.267,11.455,11.455,0,0,1-.043-1.823.3.3,0,0,0-.589,0,12.258,12.258,0,0,0,.064,1.979,8.152,8.152,0,0,0,.841,2.408.3.3,0,0,0,.538-.07,2.383,2.383,0,0,1,.664-1.412.932.932,0,0,1,.15-.106c.027-.016.056-.03.083-.045.049-.027.04-.017.021-.011.048-.017.249-.056.081-.035.193-.024.4-.241.254-.443a4.722,4.722,0,0,1-.724-2.106.3.3,0,0,0-.362-.206.3.3,0,0,0-.206.362" transform="translate(-30.224 -73.589)" fill="#fff"/>
        <path id="Path_979" data-name="Path 979" d="M74.849,103.194a10.51,10.51,0,0,0,2.907,2.2c.831.43,1.763.609,2.568,1.09a7.032,7.032,0,0,1,1.744,1.521,6.32,6.32,0,0,1,.684.956.3.3,0,0,0,.508-.3,7.748,7.748,0,0,0-2.146-2.361,5.922,5.922,0,0,0-1.148-.663c-.432-.188-.891-.3-1.326-.479a9.641,9.641,0,0,1-2.333-1.427,9.387,9.387,0,0,1-1.04-.958c-.255-.281-.671.136-.416.416" transform="translate(-57.162 -78.503)" fill="#fff"/>
        <path id="Path_980" data-name="Path 980" d="M9.464,104.251A28.06,28.06,0,0,1,5.7,106.006a33.326,33.326,0,0,0-3.2,1.215,7.223,7.223,0,0,0-1.818,1.29,3.592,3.592,0,0,0-.636.79c-.18.333.328.631.508.3a5.192,5.192,0,0,1,2.093-1.791A27.232,27.232,0,0,1,5.8,106.593q1.365-.525,2.681-1.17c.43-.21.86-.426,1.276-.663a.3.3,0,0,0-.3-.508" transform="translate(0 -79.67)" fill="#fff"/>
        <path id="Path_981" data-name="Path 981" d="M47.135,107.671l1.128,1.424a.3.3,0,0,0,.416,0l1.365-1.17a.3.3,0,0,0,0-.416.3.3,0,0,0-.416,0l-1.365,1.17h.416l-1.128-1.424a.3.3,0,0,0-.416,0,.3.3,0,0,0,0,.416" transform="translate(-35.971 -81.932)" fill="#fff"/>
        <path id="Path_982" data-name="Path 982" d="M76.316,58.793a1.172,1.172,0,0,0-.146-.64.869.869,0,0,0-.91-.468.917.917,0,0,0-.518.661,4.285,4.285,0,0,0-.162,1.034,5.8,5.8,0,0,0,.04,1.14.3.3,0,0,0,.362.206.3.3,0,0,0,.206-.362c.012.084,0-.016,0-.033s-.005-.056-.008-.083c-.006-.069-.01-.137-.013-.206-.007-.146-.008-.293,0-.439s.012-.3.026-.444c0-.039.008-.078.012-.117,0-.019,0-.038.007-.057,0,.006-.006.042,0,.008.011-.073.023-.146.037-.219a3.356,3.356,0,0,1,.1-.368c.016-.051-.022.041.008-.018.012-.024.023-.047.036-.07s.024-.036.034-.054-.045.043.012-.011c.032-.03.03-.022-.008,0,.028-.018.074-.027-.008,0,.059-.018-.032,0-.018,0h.021c.037,0-.051-.028-.02,0a.3.3,0,0,0,.071.023l.071.041c.048.03.018.012.008,0,.014.011.027.024.039.036s.066.086.035.037c.02.03.037.061.054.092.032.059,0-.029.013.033s.025.109.039.164c-.021-.087,0-.018,0,.009s0,.037,0,.055a.422.422,0,0,1,0,.049.3.3,0,0,0,.294.294.3.3,0,0,0,.294-.294" transform="translate(-57.008 -44.083)" fill="#fff"/>
        <path id="Path_983" data-name="Path 983" d="M35.2,59.609a8.382,8.382,0,0,1-.664,1.672A3.855,3.855,0,0,1,32.4,63.411a1.436,1.436,0,0,1-.8.039c-.211-.081-.3-.339-.365-.533-.16-.446-.291-.82-.762-.995a6.567,6.567,0,0,0-1.576-.3,9.155,9.155,0,0,0-1.9-.034,2.458,2.458,0,0,0-.814.179,1.176,1.176,0,0,0-.495.689,1.314,1.314,0,0,1-.187.394c-.032.033.076,0-.012.009a.575.575,0,0,1-.171-.032,1.172,1.172,0,0,1-.8-.692c-.133-.351-.7-.2-.568.157a1.768,1.768,0,0,0,1.517,1.155.641.641,0,0,0,.6-.4c.117-.219.17-.593.368-.756-.049.041.058-.014.083-.021.055-.016.11-.03.166-.043a3.14,3.14,0,0,1,.4-.057,8.163,8.163,0,0,1,1.018-.015,9.2,9.2,0,0,1,1.9.247,2.378,2.378,0,0,1,.3.091.6.6,0,0,1,.069.031c.06.029.04.021.049.031a2.067,2.067,0,0,1,.282.656,1.38,1.38,0,0,0,.506.708,1.4,1.4,0,0,0,.884.141,3.746,3.746,0,0,0,2.676-2.012,8.858,8.858,0,0,0,.986-2.28.3.3,0,0,0-.568-.157" transform="translate(-18.299 -45.412)" fill="#fff"/>
      </g>
    </g>
  </g>
</svg>
