<svg id="Group_1726" data-name="Group 1726" xmlns="http://www.w3.org/2000/svg" xmlns:xlink="http://www.w3.org/1999/xlink" width="296.101" height="252.197" viewBox="0 0 296.101 252.197">
  <defs>
    <clipPath id="clip-path">
      <rect id="Rectangle_1650" data-name="Rectangle 1650" width="296.101" height="252.197" fill="none"/>
    </clipPath>
    <clipPath id="clip-path-6">
      <rect id="Rectangle_1648" data-name="Rectangle 1648" width="16.25" height="18.782" fill="none"/>
    </clipPath>
  </defs>
  <g id="Group_1725" data-name="Group 1725" clip-path="url(#clip-path)">
    <path id="Path_7767" data-name="Path 7767" d="M114.169,256.944l15.593,83.721h-3.693L104.5,256.944Z" transform="translate(97.955 -88.796)" fill="#fff"/>
    <g id="Group_1715" data-name="Group 1715">
      <g id="Group_1714" data-name="Group 1714" clip-path="url(#clip-path)">
        <path id="Path_7768" data-name="Path 7768" d="M129.762,340.666h-3.694L104.5,256.944h9.673Z" transform="translate(97.956 -88.796)" fill="none" stroke="#000" stroke-width="1"/>
      </g>
    </g>
    <path id="Path_7769" data-name="Path 7769" d="M220.994,256.944l-21.572,83.721h-3.694l15.593-83.721Z" transform="translate(-52.98 -88.796)" fill="#fff"/>
    <g id="Group_1717" data-name="Group 1717">
      <g id="Group_1716" data-name="Group 1716" clip-path="url(#clip-path)">
        <path id="Path_7770" data-name="Path 7770" d="M195.728,340.666h3.694l21.572-83.722h-9.673Z" transform="translate(-52.98 -88.796)" fill="none" stroke="#000" stroke-width="1"/>
      </g>
    </g>
    <path id="Path_7771" data-name="Path 7771" d="M164.145,256.944l15.593,83.721h-3.694l-21.573-83.721Z" transform="translate(15.275 -88.796)" fill="#fff"/>
    <g id="Group_1719" data-name="Group 1719">
      <g id="Group_1718" data-name="Group 1718" clip-path="url(#clip-path)">
        <path id="Path_7772" data-name="Path 7772" d="M179.737,340.666h-3.694l-21.572-83.722h9.673Z" transform="translate(15.276 -88.796)" fill="none" stroke="#000" stroke-width="1"/>
      </g>
    </g>
    <path id="Path_7773" data-name="Path 7773" d="M270.97,256.944,249.4,340.666H245.7L261.3,256.944Z" transform="translate(-135.661 -88.796)" fill="#fff"/>
    <g id="Group_1724" data-name="Group 1724">
      <g id="Group_1723" data-name="Group 1723" clip-path="url(#clip-path)">
        <path id="Path_7774" data-name="Path 7774" d="M245.7,340.666H249.4l21.572-83.722H261.3Z" transform="translate(-135.661 -88.796)" fill="none" stroke="#000" stroke-width="1"/>
        <path id="Path_7775" data-name="Path 7775" d="M102.4,200.007c14.535-2.654,41.036-7.125,59.175-8.568V108.084h39.758a5.228,5.228,0,0,1,5.119,6.289l-17.934,86.592c-.014.082-.033.164-.05.245l-.029.139h-.007c-.606,2.436-2.923,4.78-7.223,6.358-15.071,5.529-85,5.11-91.863.232-3.951-2.807,9.278-7.243,13.054-7.932" transform="translate(31.548 -37.352)" fill="#fff"/>
        <path id="Path_7776" data-name="Path 7776" d="M102.4,200.007c14.535-2.654,41.036-7.125,59.175-8.568V108.084h39.758a5.228,5.228,0,0,1,5.119,6.289l-17.934,86.592c-.014.082-.033.164-.05.245l-.029.139h-.007c-.606,2.436-2.923,4.78-7.223,6.358-15.071,5.529-85,5.11-91.863.232C85.393,205.132,98.622,200.7,102.4,200.007Z" transform="translate(31.548 -37.352)" fill="none" stroke="#000" stroke-width="1"/>
        <path id="Path_7777" data-name="Path 7777" d="M278.3,378.12h29.2s1.632-5.2-1.905-11.641c0,0-2.35,1.885-9.39.61a31.3,31.3,0,0,1-4.967,3.47c-2.04.987-13.725,3.282-12.938,7.561" transform="translate(-193.879 -126.65)" fill="#fff"/>
        <path id="Path_7778" data-name="Path 7778" d="M278.3,378.12h29.2s1.632-5.2-1.905-11.641c0,0-2.35,1.885-9.39.61a31.3,31.3,0,0,1-4.967,3.47C289.2,371.545,277.516,373.841,278.3,378.12Z" transform="translate(-193.879 -126.65)" fill="none" stroke="#000" stroke-width="1"/>
        <path id="Path_7779" data-name="Path 7779" d="M174.273,347.468a11.151,11.151,0,0,0,2.978,3.219,13.037,13.037,0,0,1,5.436,7.669s-.739,1.866-4.357,4.521c-1.361,1-6.357,7.74-8.386,8.56H156.454s-1.048-4.809,5.826-6.424c3.792-2.926,4.974-8.947,4.974-8.947l-1.993-5.36Z" transform="translate(11.067 -120.08)" fill="#fff"/>
        <path id="Path_7780" data-name="Path 7780" d="M174.273,347.468a11.151,11.151,0,0,0,2.978,3.219,13.037,13.037,0,0,1,5.436,7.669s-.739,1.866-4.357,4.521c-1.361,1-6.357,7.74-8.386,8.56H156.454s-1.048-4.809,5.826-6.424c3.792-2.926,4.974-8.947,4.974-8.947l-1.993-5.36Z" transform="translate(11.067 -120.08)" fill="none" stroke="#000" stroke-width="1"/>
        <path id="Path_7781" data-name="Path 7781" d="M251.992,204.174h0a25.824,25.824,0,0,0-1.184-6.03s-51.216,9.656-64.836,14.231c-6.768,2.273-11.933,6.45-12.573,12.558l-.031-.007c-.067.641-1.716,61.639-1.95,83.843a33.5,33.5,0,0,0,11.534,1.031c1.554-9.04,6.232-28.76,8.237-38.13,2.376-11.1,5.386-24.336,5.964-33.477,20.705-1.8,48.041-4.845,51.323-6.5,5.409-2.732,7.038-12.391,3.516-27.519" transform="translate(-69.935 -68.476)" fill="#fff"/>
        <path id="Path_7782" data-name="Path 7782" d="M251.992,204.174h0a25.824,25.824,0,0,0-1.184-6.03s-51.216,9.656-64.836,14.231c-6.768,2.273-11.933,6.45-12.573,12.558l-.031-.007c-.067.641-1.716,61.639-1.95,83.843a33.5,33.5,0,0,0,11.534,1.031c1.554-9.04,6.232-28.76,8.237-38.13,2.376-11.1,5.386-24.336,5.964-33.477,20.705-1.8,48.041-4.845,51.323-6.5C253.886,228.961,255.515,219.3,251.992,204.174Z" transform="translate(-69.935 -68.476)" fill="none" stroke="#000" stroke-width="1"/>
        <path id="Path_7783" data-name="Path 7783" d="M122.242,221.493c1.609-5.169,8.235-9.25,12.913-10.313,7.586-1.714,16.192-3.625,23.314-5.212l19.214-4.378,21.136-6.906s.185,1.478.591,5.479c0,0,7.52,24.727-4.4,31.114-8.37,4.483-24.62,5.767-40.764,6.476,4.167,8.674,6.994,19.644,9.676,28.446,2.395,7.871,7.65,24.117,10.331,31.5-1.034,1.219-4.436,3.955-11.133,5.453-9.775-19.25-27.98-50.476-34.284-62.372h0l-5.14-9.221a12.972,12.972,0,0,1-1.449-10.063" transform="translate(14.645 -67.28)" fill="#fff"/>
        <path id="Path_7784" data-name="Path 7784" d="M122.242,221.493c1.609-5.169,8.235-9.25,12.913-10.313,7.586-1.714,16.192-3.625,23.314-5.212l19.214-4.378,21.136-6.906s.185,1.478.591,5.479c0,0,7.52,24.727-4.4,31.114-8.37,4.483-24.62,5.767-40.764,6.476,4.167,8.674,6.994,19.644,9.676,28.446,2.395,7.871,7.65,24.117,10.331,31.5-1.034,1.219-4.436,3.955-11.133,5.453-9.775-19.25-27.98-50.476-34.284-62.372h0l-5.14-9.221A12.972,12.972,0,0,1,122.242,221.493Z" transform="translate(14.645 -67.28)" fill="none" stroke="#000" stroke-width="1"/>
        <path id="Path_7785" data-name="Path 7785" d="M210.929,131.351c-.531,2.016-1.138,4.173-1.843,6.33v.022a34.911,34.911,0,0,1-4.271,10.861c.857-3.946,1-12.747,1-12.747-3.75-.856-11.262-6.1-11.262-6.1V129.7l.91-4.032a20.049,20.049,0,0,1,3.252.032c.954.185,8.27,3.3,10.168,4.011a5.351,5.351,0,0,1,2.048,1.637" transform="translate(-42.145 -43.413)" fill="#fff"/>
        <path id="Path_7786" data-name="Path 7786" d="M210.929,131.351c-.531,2.016-1.138,4.173-1.843,6.33v.022a34.911,34.911,0,0,1-4.271,10.861c.857-3.946,1-12.747,1-12.747-3.75-.856-11.262-6.1-11.262-6.1V129.7l.91-4.032a20.049,20.049,0,0,1,3.252.032c.954.185,8.27,3.3,10.168,4.011A5.351,5.351,0,0,1,210.929,131.351Z" transform="translate(-42.145 -43.413)" fill="none" stroke="#000" stroke-width="1"/>
        <path id="Path_7787" data-name="Path 7787" d="M179.628,126.512c-.455,7.49-1.544,12.733-.133,24.073a53.334,53.334,0,0,1,.523,5.713c0,.791-1,1.6-1.409,1.832-4.3,2.482-21.05,2.851-29.472,2.851-7.479,0-18.719-1.192-20.128-3.078-1.3-1.734-.108-4.238.51-7.706,2.753-15.641,1.777-23.793,1.6-35.087,0-.281-.01-.563-.01-.856v-.217H131.1c-.889-.13-1.734-.293-2.471-.444-1.214-.272-2.146-.543-2.548-.672-9.083-2.851-10.438-5.767-10.438-5.767,2.569-11.175,5.669-18.676,8.433-23.63.065-.119.13-.238.206-.368s.141-.249.217-.368a21.574,21.574,0,0,1,5.994-6.233c.238-.173.466-.336.715-.51a50.387,50.387,0,0,1,15.944-6.612.169.169,0,0,1,.044-.011c2.157-.141,4.509-.185,7.067-.1a84.341,84.341,0,0,1,17.614,2.883s.043.01.076.022a23.33,23.33,0,0,1,8.888,6.233A29.07,29.07,0,0,1,185,84.044c-.293,7-1.81,19.608-2.666,30.5-.141,1.648-2.612,10.406-2.71,11.967" transform="translate(35.418 -23.942)" fill="#ab1b2d"/>
        <path id="Path_7788" data-name="Path 7788" d="M179.628,126.512c-.455,7.49-1.544,12.733-.133,24.073a53.334,53.334,0,0,1,.523,5.713c0,.791-1,1.6-1.409,1.832-4.3,2.482-21.05,2.851-29.472,2.851-7.479,0-18.719-1.192-20.128-3.078-1.3-1.734-.108-4.238.51-7.706,2.753-15.641,1.777-23.793,1.6-35.087,0-.281-.01-.563-.01-.856v-.217H131.1c-.889-.13-1.734-.293-2.471-.444-1.214-.272-2.146-.543-2.548-.672-9.083-2.851-10.438-5.767-10.438-5.767,2.569-11.175,5.669-18.676,8.433-23.63.065-.119.13-.238.206-.368s.141-.249.217-.368a21.574,21.574,0,0,1,5.994-6.233c.238-.173.466-.336.715-.51a50.387,50.387,0,0,1,15.944-6.612.169.169,0,0,1,.044-.011c2.157-.141,4.509-.185,7.067-.1a84.341,84.341,0,0,1,17.614,2.883s.043.01.076.022a23.33,23.33,0,0,1,8.888,6.233A29.07,29.07,0,0,1,185,84.044c-.293,7-1.81,19.608-2.666,30.5C182.2,116.194,179.726,124.952,179.628,126.512Z" transform="translate(35.418 -23.942)" fill="none" stroke="#000" stroke-width="1"/>
        <path id="Path_7789" data-name="Path 7789" d="M200.484,127.248c-.889-.13-1.734-.293-2.471-.444l2.1-19.294c.076,3.154.336,17.777.368,19.738" transform="translate(-33.966 -37.154)" fill="#fff"/>
        <path id="Path_7790" data-name="Path 7790" d="M200.484,127.248c-.889-.13-1.734-.293-2.471-.444l2.1-19.294C200.192,110.664,200.451,125.287,200.484,127.248Z" transform="translate(-33.966 -37.154)" fill="none" stroke="#000" stroke-width="1"/>
        <path id="Path_7791" data-name="Path 7791" d="M180.009,16.155s-1.991,13.1,3.854,14.453c3.762.873,3.307-3.726,3.307-3.726l.1-5.445Z" transform="translate(-8.754 -5.583)" fill="#fff"/>
        <path id="Path_7792" data-name="Path 7792" d="M180.009,16.155s-1.991,13.1,3.854,14.453c3.762.873,3.307-3.726,3.307-3.726l.1-5.445Z" transform="translate(-8.754 -5.583)" fill="none" stroke="#000" stroke-width="1"/>
        <path id="Path_7793" data-name="Path 7793" d="M152.395,69.6c12.162,1.442,14.969-8.043,12.953-8.986a2.353,2.353,0,0,1-1.919-1.951c-1.756-6.829.434-17.669.434-17.669s-8.661,6.85-12.726,10.059c-1.257,1.008-2.07,1.658-2.07,1.658a14.128,14.128,0,0,1,.2,4.618,3.505,3.505,0,0,1-.2.7,7.87,7.87,0,0,0-.141,1.615l-.011-.011c-.834,1.052-4.335,9.018,3.48,9.962" transform="translate(33.689 -14.168)" fill="#fff"/>
        <path id="Path_7794" data-name="Path 7794" d="M152.395,69.6c12.162,1.442,14.969-8.043,12.953-8.986a2.353,2.353,0,0,1-1.919-1.951c-1.756-6.829.434-17.669.434-17.669s-8.661,6.85-12.726,10.059c-1.257,1.008-2.07,1.658-2.07,1.658a14.128,14.128,0,0,1,.2,4.618,3.505,3.505,0,0,1-.2.7,7.87,7.87,0,0,0-.141,1.615l-.011-.011C148.081,60.692,144.58,68.659,152.395,69.6Z" transform="translate(33.689 -14.168)" fill="none" stroke="#000" stroke-width="1"/>
        <path id="Path_7795" data-name="Path 7795" d="M145.27,17.983c-.077,3.957-.059,14.585,2.1,20.691a6.557,6.557,0,0,0,6.855,4.317,17.163,17.163,0,0,0,10.9-5.534c1.936-2.057,4.11-2.318,5.116-4.957,1.634-4.286,4.163-12.25,2.713-17.394C170.976,8.085,149.468.14,145.7,14.447a14.979,14.979,0,0,0-.431,3.536" transform="translate(27.661 -2.237)" fill="#fff"/>
        <path id="Path_7796" data-name="Path 7796" d="M145.27,17.983c-.077,3.957-.059,14.585,2.1,20.691a6.557,6.557,0,0,0,6.855,4.317,17.163,17.163,0,0,0,10.9-5.534c1.936-2.057,4.11-2.318,5.116-4.957,1.634-4.286,4.163-12.25,2.713-17.394C170.976,8.085,149.468.14,145.7,14.447A14.979,14.979,0,0,0,145.27,17.983Z" transform="translate(27.661 -2.237)" fill="none" stroke="#000" stroke-width="1"/>
        <path id="Path_7797" data-name="Path 7797" d="M172.928,9.17c.8-5.245-.29-6.271-2.319-7.413C166.421-.6,148.278.31,139.684,4.905c-1.972,1.054-1.039,5.072-.2,6.547,5.322,9.372,15.685,5.356,19.774,4.483.614,2.883.046,6.727,2.148,8.986,1.2,1.288,3.5,1.588,5.9,1.469.226.584,1.37,1.183,1.389,1.974.065,2.72-.589,6.316-.49,9.568l1.173-.414c.241-.806,14.881-26.679,3.553-28.35" transform="translate(28.235 -0.173)" fill="#fff"/>
        <path id="Path_7798" data-name="Path 7798" d="M172.928,9.17c.8-5.245-.29-6.271-2.319-7.413C166.421-.6,148.278.31,139.684,4.905c-1.972,1.054-1.039,5.072-.2,6.547,5.322,9.372,15.685,5.356,19.774,4.483.614,2.883.046,6.727,2.148,8.986,1.2,1.288,3.5,1.588,5.9,1.469.226.584,1.37,1.183,1.389,1.974.065,2.72-.589,6.316-.49,9.568l1.173-.414C169.615,36.714,184.255,10.841,172.928,9.17Z" transform="translate(28.235 -0.173)" fill="none" stroke="#000" stroke-width="1"/>
        <path id="Path_7799" data-name="Path 7799" d="M184.692,32.746c-.007,1.959-1.249,3.542-2.774,3.537s-2.755-1.6-2.748-3.557,1.249-3.543,2.774-3.537,2.755,1.6,2.748,3.557" transform="translate(-5.842 -10.087)" fill="#fff"/>
        <path id="Path_7800" data-name="Path 7800" d="M184.692,32.746c-.007,1.959-1.249,3.542-2.774,3.537s-2.755-1.6-2.748-3.557,1.249-3.543,2.774-3.537S184.7,30.787,184.692,32.746Z" transform="translate(-5.842 -10.087)" fill="none" stroke="#000" stroke-width="1"/>
        <path id="Path_7801" data-name="Path 7801" d="M172.9,32.6c-.007,1.959-1.249,3.542-2.775,3.537s-2.754-1.6-2.747-3.558,1.249-3.542,2.774-3.536,2.755,1.6,2.748,3.557" transform="translate(13.673 -10.037)" fill="#fff"/>
        <path id="Path_7802" data-name="Path 7802" d="M172.9,32.6c-.007,1.959-1.249,3.542-2.775,3.537s-2.754-1.6-2.747-3.558,1.249-3.542,2.774-3.536S172.9,30.641,172.9,32.6Z" transform="translate(13.673 -10.037)" fill="none" stroke="#000" stroke-width="1"/>
        <path id="Path_7803" data-name="Path 7803" d="M175.813,34.472s.5-.565,2.2-.116" transform="translate(3.037 -11.813)" fill="#fff"/>
        <path id="Path_7804" data-name="Path 7804" d="M175.813,34.472s.5-.565,2.2-.116" transform="translate(3.037 -11.813)" fill="none" stroke="#000" stroke-width="1"/>
        <line id="Line_371" data-name="Line 371" x2="6.568" y2="0.091" transform="translate(186.554 23.031)" fill="#fff"/>
        <line id="Line_372" data-name="Line 372" x2="6.568" y2="0.091" transform="translate(186.554 23.031)" fill="none" stroke="#000" stroke-width="1"/>
        <path id="Path_7805" data-name="Path 7805" d="M151.9,41.436c4.317,2.255,6.045-8.056,1.812-9.047-3.211-.751-3.563,5.581-3.563,5.581" transform="translate(41.697 -11.172)" fill="#fff"/>
        <path id="Path_7806" data-name="Path 7806" d="M151.9,41.436c4.317,2.255,6.045-8.056,1.812-9.047-3.211-.751-3.563,5.581-3.563,5.581" transform="translate(41.697 -11.172)" fill="none" stroke="#000" stroke-width="1"/>
        <path id="Path_7807" data-name="Path 7807" d="M168.357,84.933s-7.7,43.6-7.7,53.019c0,4.026,5.762,14.169,6.778,14.169,1.152,0,7.166-10.605,7.042-14.643-.452-14.723-2.461-52.39-2.461-52.39Z" transform="translate(16.488 -29.352)" fill="#fff"/>
        <path id="Path_7808" data-name="Path 7808" d="M168.357,84.933s-7.7,43.6-7.7,53.019c0,4.026,5.762,14.169,6.778,14.169,1.152,0,7.166-10.605,7.042-14.643-.452-14.723-2.461-52.39-2.461-52.39Z" transform="translate(16.488 -29.352)" fill="none" stroke="#000" stroke-width="1"/>
        <path id="Path_7809" data-name="Path 7809" d="M230.721,137.58l3.22-14.119v-.011l.91-4.032,2.71-11.9,15.023,7.306s-.781,4.552-2.266,10.276c-.531,2.016-1.138,4.173-1.843,6.33v.022a34.9,34.9,0,0,1-4.271,10.861v.011c-.13.217-.271.444-.423.661,0,0-3.746,6.828-9.436,7.64s-43.259-4.589-43.259-4.589v-5.192Z" transform="translate(-81.534 -37.156)" fill="#fff"/>
        <path id="Path_7810" data-name="Path 7810" d="M230.721,137.58l3.22-14.119v-.011l.91-4.032,2.71-11.9,15.023,7.306s-.781,4.552-2.266,10.276c-.531,2.016-1.138,4.173-1.843,6.33v.022a34.9,34.9,0,0,1-4.271,10.861v.011c-.13.217-.271.444-.423.661,0,0-3.746,6.828-9.436,7.64s-43.259-4.589-43.259-4.589v-5.192Z" transform="translate(-81.534 -37.156)" fill="none" stroke="#000" stroke-width="1"/>
        <rect id="Rectangle_1626" data-name="Rectangle 1626" width="65.733" height="2.841" transform="translate(118.128 105.993)" fill="#fff"/>
        <rect id="Rectangle_1627" data-name="Rectangle 1627" width="65.733" height="2.841" transform="translate(118.128 105.993)" fill="none" stroke="#000" stroke-width="1"/>
        <path id="Path_7811" data-name="Path 7811" d="M103.733,144.086c1.039-.342,6.323-1.691,6.91-1.51a19.863,19.863,0,0,0,3.929,1.309,16.823,16.823,0,0,0,3.124-.225l29.661-4.275c-.56-2.148-1.088-4.44-1.563-6.677-.9-4.249-1.6-8.281-2.005-10.634-.228-1.343-.347-2.146-.347-2.146l17.625-7.262s.531,3.848,1.2,9.018c.141,1.073.281,2.2.422,3.37.293,2.244.586,4.629.867,6.97,0,0,.011.1.033.271.368,3.014.694,5.984.933,8.531a.63.63,0,0,1,.022.194c0,.044.01.088.01.13,0,0,1.567,10.411-4.124,11.224s-42.737-4.563-42.737-4.563H99.307s3.387-3.385,4.426-3.728" transform="translate(66.359 -38.936)" fill="#fff"/>
        <path id="Path_7812" data-name="Path 7812" d="M103.733,144.086c1.039-.342,6.323-1.691,6.91-1.51a19.863,19.863,0,0,0,3.929,1.309,16.823,16.823,0,0,0,3.124-.225l29.661-4.275c-.56-2.148-1.088-4.44-1.563-6.677-.9-4.249-1.6-8.281-2.005-10.634-.228-1.343-.347-2.146-.347-2.146l17.625-7.262s.531,3.848,1.2,9.018c.141,1.073.281,2.2.422,3.37.293,2.244.586,4.629.867,6.97,0,0,.011.1.033.271.368,3.014.694,5.984.933,8.531a.63.63,0,0,1,.022.194c0,.044.01.088.01.13,0,0,1.567,10.411-4.124,11.224s-42.737-4.563-42.737-4.563H99.307S102.694,144.428,103.733,144.086Z" transform="translate(66.359 -38.936)" fill="none" stroke="#000" stroke-width="1"/>
        <path id="Path_7813" data-name="Path 7813" d="M165.8,76.2l-2.916,5.871s.847,1.9,2.455,2.018c.808.06,2.27-.948,2.985-1.622Z" transform="translate(21.184 -26.333)" fill="#fff"/>
        <path id="Path_7814" data-name="Path 7814" d="M165.8,76.2l-2.916,5.871s.847,1.9,2.455,2.018c.808.06,2.27-.948,2.985-1.622Z" transform="translate(21.184 -26.333)" fill="none" stroke="#000" stroke-width="1"/>
        <path id="Path_7815" data-name="Path 7815" d="M156.235,65.938a15.865,15.865,0,0,1-9.846,6.714l2.523,6.267a11.253,11.253,0,0,0,10.795-9.462Z" transform="translate(40.595 -22.787)" fill="#fff"/>
        <path id="Path_7816" data-name="Path 7816" d="M156.235,65.938a15.865,15.865,0,0,1-9.846,6.714l2.523,6.267a11.253,11.253,0,0,0,10.795-9.462Z" transform="translate(40.595 -22.787)" fill="none" stroke="#000" stroke-width="1"/>
        <path id="Path_7817" data-name="Path 7817" d="M172.986,73.029,170.07,78.9s-5.059-1.758-2.706-9.957l1.4-1.913s.162,4.731,4.227,6" transform="translate(13.998 -23.165)" fill="#fff"/>
        <path id="Path_7818" data-name="Path 7818" d="M172.986,73.029,170.07,78.9s-5.059-1.758-2.706-9.957l1.4-1.913S168.921,71.762,172.986,73.029Z" transform="translate(13.998 -23.165)" fill="none" stroke="#000" stroke-width="1"/>
        <path id="Path_7819" data-name="Path 7819" d="M99.609,101.753c1.824,6.528,4.319,13.381,4.319,13.381,3.609.6,8.969-.721,12.976-2.171a27.308,27.308,0,0,0,8.144-4.508s-2.673-11.083-5.74-17.983c-2.753-6.194-4.921-9.123-6.1-10.365a19.518,19.518,0,0,0-8.371-5.119c-1.894-.765-3.332-1.2-3.332-1.2" transform="translate(105.868 -25.499)" fill="#ab1b2d"/>
        <path id="Path_7820" data-name="Path 7820" d="M99.609,101.753c1.824,6.528,4.319,13.381,4.319,13.381,3.609.6,8.969-.721,12.976-2.171a27.308,27.308,0,0,0,8.144-4.508s-2.673-11.083-5.74-17.983c-2.753-6.194-4.921-9.123-6.1-10.365a19.518,19.518,0,0,0-8.371-5.119c-1.894-.765-3.332-1.2-3.332-1.2" transform="translate(105.868 -25.499)" fill="none" stroke="#000" stroke-width="1"/>
        <path id="Path_7821" data-name="Path 7821" d="M.6,176.555,30.918,312.373h5L10.023,176.555Z" transform="translate(259.79 -61.015)" fill="#fff"/>
        <path id="Path_7822" data-name="Path 7822" d="M.6,176.555,30.918,312.373h5L10.023,176.555Z" transform="translate(259.79 -61.015)" fill="none" stroke="#000" stroke-width="1"/>
        <path id="Path_7823" data-name="Path 7823" d="M433.215,176.555,402.9,312.373h-5L423.8,176.555Z" transform="translate(-397.508 -61.015)" fill="#fff"/>
        <path id="Path_7824" data-name="Path 7824" d="M433.215,176.555,402.9,312.373h-5L423.8,176.555Z" transform="translate(-397.508 -61.015)" fill="none" stroke="#000" stroke-width="1"/>
        <path id="Path_7825" data-name="Path 7825" d="M11.547,173.036H293.715a3.332,3.332,0,1,0,0-6.663H11.547a3.332,3.332,0,1,0,0,6.663" transform="translate(-6.322 -57.496)" fill="#fff"/>
        <path id="Path_7826" data-name="Path 7826" d="M11.547,173.036H293.715a3.332,3.332,0,1,0,0-6.663H11.547a3.332,3.332,0,1,0,0,6.663Z" transform="translate(-6.322 -57.496)" fill="none" stroke="#000" stroke-width="1"/>
        <rect id="Rectangle_1628" data-name="Rectangle 1628" width="16.193" height="30.131" transform="translate(54.161 70.732)" fill="#fff"/>
        <rect id="Rectangle_1629" data-name="Rectangle 1629" width="16.193" height="30.131" transform="translate(54.161 70.732)" fill="none" stroke="#000" stroke-width="1"/>
        <rect id="Rectangle_1630" data-name="Rectangle 1630" width="9.081" height="39.648" transform="translate(41.701 69.229)" fill="#ab1b2d"/>
        <rect id="Rectangle_1631" data-name="Rectangle 1631" width="9.081" height="39.648" transform="translate(41.701 69.229)" fill="none" stroke="#000" stroke-width="1"/>
        <path id="Path_7827" data-name="Path 7827" d="M342.465,105.787h5.144l5.3,19.173H363.67v20.475H342.465Z" transform="translate(-291.682 -36.558)" fill="#fff"/>
        <path id="Path_7828" data-name="Path 7828" d="M342.465,105.787h5.144l5.3,19.173H363.67v20.475H342.465Z" transform="translate(-291.682 -36.558)" fill="none" stroke="#000" stroke-width="1"/>
        <path id="Path_7829" data-name="Path 7829" d="M383.139,115.581a2.825,2.825,0,1,1-2.825-2.825,2.825,2.825,0,0,1,2.825,2.825" transform="translate(-334.072 -38.967)" fill="#fff"/>
        <path id="Path_7830" data-name="Path 7830" d="M383.139,115.581a2.825,2.825,0,1,1-2.825-2.825A2.825,2.825,0,0,1,383.139,115.581Z" transform="translate(-334.072 -38.967)" fill="none" stroke="#000" stroke-width="1"/>
        <rect id="Rectangle_1632" data-name="Rectangle 1632" width="4.843" height="17.227" transform="translate(43.821 81.062)" fill="#fff"/>
        <rect id="Rectangle_1633" data-name="Rectangle 1633" width="4.843" height="17.227" transform="translate(43.821 81.062)" fill="none" stroke="#000" stroke-width="1"/>
        <rect id="Rectangle_1634" data-name="Rectangle 1634" width="4.843" height="1.768" transform="translate(43.821 99.095)" fill="#fff"/>
        <rect id="Rectangle_1635" data-name="Rectangle 1635" width="4.843" height="1.768" transform="translate(43.821 99.095)" fill="none" stroke="#000" stroke-width="1"/>
        <rect id="Rectangle_1636" data-name="Rectangle 1636" width="4.843" height="1.768" transform="translate(43.821 101.591)" fill="#fff"/>
        <rect id="Rectangle_1637" data-name="Rectangle 1637" width="4.843" height="1.768" transform="translate(43.821 101.591)" fill="none" stroke="#000" stroke-width="1"/>
        <rect id="Rectangle_1638" data-name="Rectangle 1638" width="16.193" height="30.131" transform="translate(67.186 70.732)" fill="#fff"/>
        <rect id="Rectangle_1639" data-name="Rectangle 1639" width="16.193" height="30.131" transform="translate(67.186 70.732)" fill="none" stroke="#000" stroke-width="1"/>
        <rect id="Rectangle_1640" data-name="Rectangle 1640" width="9.08" height="39.648" transform="translate(54.726 69.229)" fill="#ab1b2d"/>
        <rect id="Rectangle_1641" data-name="Rectangle 1641" width="9.08" height="39.648" transform="translate(54.726 69.229)" fill="none" stroke="#000" stroke-width="1"/>
        <path id="Path_7831" data-name="Path 7831" d="M322.563,105.787h5.144L333,124.96h10.764v20.475H322.563Z" transform="translate(-258.757 -36.558)" fill="#fff"/>
        <path id="Path_7832" data-name="Path 7832" d="M322.563,105.787h5.144L333,124.96h10.764v20.475H322.563Z" transform="translate(-258.757 -36.558)" fill="none" stroke="#000" stroke-width="1"/>
        <path id="Path_7833" data-name="Path 7833" d="M363.237,115.581a2.825,2.825,0,1,1-2.825-2.825,2.825,2.825,0,0,1,2.825,2.825" transform="translate(-301.146 -38.967)" fill="#fff"/>
        <ellipse id="Ellipse_116" data-name="Ellipse 116" cx="2.825" cy="2.825" rx="2.825" ry="2.825" transform="translate(56.441 73.789)" fill="none" stroke="#000" stroke-width="1"/>
        <rect id="Rectangle_1642" data-name="Rectangle 1642" width="4.843" height="17.227" transform="translate(56.844 81.062)" fill="#fff"/>
        <rect id="Rectangle_1643" data-name="Rectangle 1643" width="4.843" height="17.227" transform="translate(56.844 81.062)" fill="none" stroke="#000" stroke-width="1"/>
        <rect id="Rectangle_1644" data-name="Rectangle 1644" width="4.843" height="1.768" transform="translate(56.844 99.095)" fill="#fff"/>
        <rect id="Rectangle_1645" data-name="Rectangle 1645" width="4.843" height="1.768" transform="translate(56.844 99.095)" fill="none" stroke="#000" stroke-width="1"/>
        <rect id="Rectangle_1646" data-name="Rectangle 1646" width="4.843" height="1.768" transform="translate(56.844 101.591)" fill="#fff"/>
        <rect id="Rectangle_1647" data-name="Rectangle 1647" width="4.843" height="1.768" transform="translate(56.844 101.591)" fill="none" stroke="#000" stroke-width="1"/>
        <path id="Path_7834" data-name="Path 7834" d="M178.02,38.744l2.64-1.764a2.583,2.583,0,0,1,1.5-.486h84.154a4.787,4.787,0,0,1,4.677,3.764l14.488,66.157a2.606,2.606,0,0,1-1.115,2.73l.015.006-2.651,1.789-.471-1.344H198.765a4.787,4.787,0,0,1-4.677-3.764L179.6,39.675a2.58,2.58,0,0,1-.052-.511Z" transform="translate(-105.937 -12.611)" fill="#fff"/>
        <path id="Path_7835" data-name="Path 7835" d="M178.02,38.744l2.64-1.764a2.583,2.583,0,0,1,1.5-.486h84.154a4.787,4.787,0,0,1,4.677,3.764l14.488,66.157a2.606,2.606,0,0,1-1.115,2.73l.015.006-2.651,1.789-.471-1.344H198.765a4.787,4.787,0,0,1-4.677-3.764L179.6,39.675a2.58,2.58,0,0,1-.052-.511Z" transform="translate(-105.937 -12.611)" fill="none" stroke="#000" stroke-width="1"/>
        <path id="Path_7836" data-name="Path 7836" d="M284.742,94.271,288,109.137a2.62,2.62,0,0,1-2.56,3.181H201.284a4.788,4.788,0,0,1-4.677-3.764L182.118,42.4a2.621,2.621,0,0,1,2.56-3.182h84.154" transform="translate(-111.099 -13.552)" fill="#fff"/>
        <path id="Path_7837" data-name="Path 7837" d="M284.742,94.271,288,109.137a2.62,2.62,0,0,1-2.56,3.181H201.284a4.788,4.788,0,0,1-4.677-3.764L182.118,42.4a2.621,2.621,0,0,1,2.56-3.182h84.154" transform="translate(-111.099 -13.552)" fill="none" stroke="#000" stroke-width="1"/>
        <path id="Path_7838" data-name="Path 7838" d="M257.165,106.4a2.266,2.266,0,0,1,2.233-1.881H270.41l1.385-1.665.609,2.793a1.738,1.738,0,0,1,.1.931L266,144.381H250.629Z" transform="translate(-140.444 -35.544)" fill="#fff"/>
        <path id="Path_7839" data-name="Path 7839" d="M257.165,106.4a2.266,2.266,0,0,1,2.233-1.881H270.41l1.385-1.665.609,2.793a1.738,1.738,0,0,1,.1.931L266,144.381H250.629Z" transform="translate(-140.444 -35.544)" fill="none" stroke="#000" stroke-width="1"/>
        <path id="Path_7840" data-name="Path 7840" d="M266.971,140.914H251.6l6.536-37.982a2.267,2.267,0,0,1,2.234-1.882h11.374a1.76,1.76,0,0,1,1.734,2.059Z" transform="translate(-142.051 -34.921)" fill="#fff"/>
        <path id="Path_7841" data-name="Path 7841" d="M266.971,140.914H251.6l6.536-37.982a2.267,2.267,0,0,1,2.234-1.882h11.374a1.76,1.76,0,0,1,1.734,2.059Z" transform="translate(-142.051 -34.921)" fill="none" stroke="#000" stroke-width="1"/>
        <path id="Path_7842" data-name="Path 7842" d="M220.178,160.527H278.92a1.631,1.631,0,0,1,1.632,1.631v2.194H218.38v-2.028a1.8,1.8,0,0,1,1.8-1.8" transform="translate(-127.361 -55.476)" fill="#fff"/>
        <path id="Path_7843" data-name="Path 7843" d="M220.178,160.527H278.92a1.631,1.631,0,0,1,1.632,1.631v2.194H218.38v-2.028A1.8,1.8,0,0,1,220.178,160.527Z" transform="translate(-127.361 -55.476)" fill="none" stroke="#000" stroke-width="1"/>
        <g id="Group_1722" data-name="Group 1722" transform="translate(243.153 68.481)" opacity="0.4">
          <g id="Group_1721" data-name="Group 1721">
            <g id="Group_1720" data-name="Group 1720" clip-path="url(#clip-path-6)">
              <path id="Path_7844" data-name="Path 7844" d="M64.312,105.806c-.81-.972-8.4-1.806-7.687,4.7.342,3.1,4.752,3.91,6.32,4.47s-.819,1.287-.987,2.686.982,2.252,4.4,1.917,2.912,3.694,2.912,3.694h.9s1.2-1.98.42-3.491-2.8-2.021-1.959-3.253,4.337-1.6,3.385-4.323c-.7-2.013-8.038-1.092-8.058-2.588-.016-1.164,1.518-2.422.36-3.811" transform="translate(-56.25 -104.818)" fill="#fff"/>
              <path id="Path_7845" data-name="Path 7845" d="M64.312,105.806c-.81-.972-8.4-1.806-7.687,4.7.342,3.1,4.752,3.91,6.32,4.47s-.819,1.287-.987,2.686.982,2.252,4.4,1.917,2.912,3.694,2.912,3.694h.9s1.2-1.98.42-3.491-2.8-2.021-1.959-3.253,4.337-1.6,3.385-4.323c-.7-2.013-8.038-1.092-8.058-2.588C63.936,108.453,65.47,107.2,64.312,105.806Z" transform="translate(-56.25 -104.818)" fill="none" stroke="#000" stroke-width="1"/>
            </g>
          </g>
        </g>
        <path id="Path_7846" data-name="Path 7846" d="M48.432,130.769l3.3,22.658a.511.511,0,0,0,.5.441H62.692a.505.505,0,0,0,.5-.441l.29-2L66.5,130.769a.507.507,0,0,0-.5-.579H48.936a.51.51,0,0,0-.5.579" transform="translate(197.904 -44.992)" fill="#fff"/>
        <path id="Path_7847" data-name="Path 7847" d="M48.432,130.769l3.3,22.658a.511.511,0,0,0,.5.441H62.692a.505.505,0,0,0,.5-.441l.29-2L66.5,130.769a.507.507,0,0,0-.5-.579H48.936A.51.51,0,0,0,48.432,130.769Z" transform="translate(197.904 -44.992)" fill="none" stroke="#000" stroke-width="1"/>
        <path id="Path_7848" data-name="Path 7848" d="M75.332,136.954H74.021a2.8,2.8,0,0,0-2.8,2.8v6.343a5.706,5.706,0,0,0,5.707,5.707" transform="translate(172.557 -47.329)" fill="#fff"/>
        <path id="Path_7849" data-name="Path 7849" d="M75.332,136.954H74.021a2.8,2.8,0,0,0-2.8,2.8v6.343a5.706,5.706,0,0,0,5.707,5.707" transform="translate(172.557 -47.329)" fill="none" stroke="#000" stroke-width="1"/>
      </g>
    </g>
  </g>
</svg>
