<svg id="Group_1571" data-name="Group 1571" xmlns="http://www.w3.org/2000/svg" xmlns:xlink="http://www.w3.org/1999/xlink" width="195.699" height="198.106" viewBox="0 0 195.699 198.106">
  <defs>
    <clipPath id="clip-path">
      <rect id="Rectangle_1155" data-name="Rectangle 1155" width="195.699" height="198.106" fill="none"/>
    </clipPath>
  </defs>
  <g id="Group_1570" data-name="Group 1570" clip-path="url(#clip-path)">
    <path id="Path_6703" data-name="Path 6703" d="M159.2,53.9c26.416-4.2,45.666,11.037,48.31,58.8,1.967,35.548-16.568,70.631-46.189,87.031-39.357,21.79-98.03,15.017-117.354-20.39-11.532-21.127-9.95-54.092,6.092-67.336,16.081-13.275,34.023,9.375,63.331-3.235C145.977,94.754,137.9,57.291,159.2,53.9" transform="translate(-12.322 -17.986)" fill="#fff"/>
    <path id="Path_6704" data-name="Path 6704" d="M110.971,212.4A100.963,100.963,0,0,1,82.9,208.526c-18.276-5.31-31.914-15.4-39.439-29.19-5.66-10.371-8.335-23.794-7.337-36.828,1.028-13.436,5.955-24.723,13.518-30.966,7.906-6.528,16.286-4.517,25.99-2.189,10.494,2.518,22.388,5.371,37.429-1.1,17.378-7.477,23.013-21.459,27.984-33.8,4.217-10.464,7.859-19.5,17.916-21.1,11.977-1.9,21.948.275,29.636,6.479,11.24,9.069,17.665,26.787,19.1,52.663,1.982,35.8-16.655,70.917-46.377,87.372-14.873,8.235-32.717,12.528-50.34,12.529M62.124,107.87a17.968,17.968,0,0,0-12.02,4.237c-7.41,6.117-12.241,17.218-13.254,30.456-.987,12.9,1.656,26.171,7.25,36.421,7.43,13.611,20.915,23.582,39,28.837,25.217,7.327,55.05,4.034,77.856-8.593,29.481-16.322,47.967-51.16,46-86.69-1.42-25.66-7.754-43.2-18.825-52.132-7.521-6.067-17.3-8.2-29.06-6.326l-.058-.362.058.362c-9.648,1.534-13.217,10.392-17.35,20.649C136.7,87.2,131,101.33,113.347,108.926c-15.266,6.569-27.286,3.684-37.89,1.14-4.736-1.136-9.152-2.2-13.332-2.2" transform="translate(-12.133 -17.8)"/>
    <path id="Path_6705" data-name="Path 6705" d="M212.1,201.186a.366.366,0,0,1-.34-.231c-3.817-9.572-16.661-11.442-16.79-11.46a.367.367,0,1,1,.1-.727c.134.019,13.395,1.943,17.371,11.916a.367.367,0,0,1-.2.477.374.374,0,0,1-.136.026" transform="translate(-65.759 -63.771)"/>
    <path id="Path_6706" data-name="Path 6706" d="M191.287,208.369l-.038,0a.367.367,0,0,1-.328-.4,21.682,21.682,0,0,0-4.35-15.466.367.367,0,1,1,.552-.483,22.489,22.489,0,0,1,4.529,16.024.367.367,0,0,1-.365.329" transform="translate(-62.999 -64.827)"/>
    <path id="Path_6707" data-name="Path 6707" d="M104.6,261.787c-.83-.84-5.624-15.756-5.624-15.756L89.5,252.792l10.387,13.96Z" transform="translate(-30.236 -83.118)" fill="#fff"/>
    <path id="Path_6708" data-name="Path 6708" d="M99.7,266.932H99.68a.368.368,0,0,1-.272-.147L89.02,252.824a.366.366,0,0,1,.081-.517l9.474-6.761a.367.367,0,0,1,.562.186c1.832,5.7,4.956,14.977,5.538,15.611a.377.377,0,0,1,0,.509l-4.712,4.966a.367.367,0,0,1-.266.114m-9.87-14.246L99.736,266l4.216-4.443c-1.089-2-4.36-12.026-5.358-15.119Z" transform="translate(-30.05 -82.931)"/>
    <path id="Path_6709" data-name="Path 6709" d="M85.482,285.012l6.3-.038a12.4,12.4,0,0,0,10.32-5.637l6.23-9.864a5.54,5.54,0,0,0-2.088-7.851c-2.6-1.382-5.325-2.729-5.964-2.668-1.3.124-1.82,6.256-1.82,6.256l-5.613.216s-2.774,11.532-5.214,12.843a10.709,10.709,0,0,0-3.854,3.637,2.011,2.011,0,0,0,1.7,3.1" transform="translate(-28.193 -87.483)" fill="#ab1b2d"/>
    <path id="Path_6710" data-name="Path 6710" d="M85.482,285.012l6.3-.038a12.4,12.4,0,0,0,10.32-5.637l6.23-9.864a5.54,5.54,0,0,0-2.088-7.851c-2.6-1.382-5.325-2.729-5.964-2.668-1.3.124-1.82,6.256-1.82,6.256l-5.613.216s-2.774,11.532-5.214,12.843a10.709,10.709,0,0,0-3.854,3.637A2.011,2.011,0,0,0,85.482,285.012Z" transform="translate(-28.193 -87.483)" fill="none" stroke="#000" stroke-width="1"/>
    <path id="Path_6711" data-name="Path 6711" d="M87.288,286.031a.367.367,0,0,1-.054-.729l8.619-1.3a6.153,6.153,0,0,0,4.379-2.935l7.615-12.723a.367.367,0,1,1,.63.377l-7.615,12.723a6.887,6.887,0,0,1-4.9,3.283l-8.619,1.3a.394.394,0,0,1-.055,0" transform="translate(-29.365 -90.596)" fill="#fff"/>
    <path id="Path_6712" data-name="Path 6712" d="M100.9,279.655a.35.35,0,0,1-.1-.013l-4.8-1.307a.367.367,0,0,1,.193-.708l4.8,1.308a.367.367,0,0,1-.1.72" transform="translate(-32.343 -93.787)" fill="#fff"/>
    <path id="Path_6713" data-name="Path 6713" d="M97.935,283.644a.358.358,0,0,1-.087-.011l-3.219-.787a.367.367,0,1,1,.174-.712l3.219.787a.367.367,0,0,1-.087.723" transform="translate(-31.874 -95.311)" fill="#fff"/>
    <path id="Path_6714" data-name="Path 6714" d="M54.893,262.859l-11,11.053-5.831-2.142L48.2,257.63Z" transform="translate(-12.858 -87.036)" fill="#fff"/>
    <path id="Path_6715" data-name="Path 6715" d="M43.7,274.091a.368.368,0,0,1-.126-.022l-5.831-2.142a.366.366,0,0,1-.171-.558l10.14-14.14a.366.366,0,0,1,.524-.076l6.691,5.229a.367.367,0,0,1,.034.548l-11,11.053a.368.368,0,0,1-.26.108M38.452,271.4l5.158,1.894,10.543-10.593-6.065-4.74Z" transform="translate(-12.671 -86.849)"/>
    <path id="Path_6716" data-name="Path 6716" d="M34.678,278.084a31.656,31.656,0,0,1-.37,8.857,4.836,4.836,0,0,1-4.742,3.772h-27a2.064,2.064,0,0,1-1.325-3.648c4.8-4.022,13.631-10.163,24.488-11.965l3.028,4.239Z" transform="translate(-0.169 -92.938)" fill="#ab1b2d"/>
    <path id="Path_6717" data-name="Path 6717" d="M34.678,278.084a31.656,31.656,0,0,1-.37,8.857,4.836,4.836,0,0,1-4.742,3.772h-27a2.064,2.064,0,0,1-1.325-3.648c4.8-4.022,13.631-10.163,24.488-11.965l3.028,4.239Z" transform="translate(-0.169 -92.938)" fill="none" stroke="#000" stroke-width="1"/>
    <path id="Path_6718" data-name="Path 6718" d="M33.355,293.253H5.376a.367.367,0,0,1,0-.734H33.355a.367.367,0,0,1,0,.734" transform="translate(-1.692 -98.823)" fill="#fff"/>
    <path id="Path_6719" data-name="Path 6719" d="M28.2,283.914a.367.367,0,0,1-.339-.227l-1.481-3.592a.367.367,0,1,1,.678-.279l1.481,3.592a.367.367,0,0,1-.2.479.372.372,0,0,1-.14.028" transform="translate(-8.902 -94.454)" fill="#fff"/>
    <path id="Path_6720" data-name="Path 6720" d="M21.052,285.519a.366.366,0,0,1-.348-.252l-1.071-3.241a.367.367,0,1,1,.7-.23l1.071,3.241a.367.367,0,0,1-.233.464.371.371,0,0,1-.115.019" transform="translate(-6.626 -95.115)" fill="#fff"/>
    <path id="Path_6721" data-name="Path 6721" d="M116.381,148.054s-50.274-5.852-65.223,7.088,23.6,68.59,23.6,68.59l12.19-9.041L75.383,175.359l46.473-13.2Z" transform="translate(-16.119 -49.572)" fill="#ab1b2d"/>
    <path id="Path_6722" data-name="Path 6722" d="M116.381,148.054s-50.274-5.852-65.223,7.088,23.6,68.59,23.6,68.59l12.19-9.041L75.383,175.359l46.473-13.2Z" transform="translate(-16.119 -49.572)" fill="none" stroke="#000" stroke-width="1"/>
    <path id="Path_6723" data-name="Path 6723" d="M144.085,171.874c-7.3,2.318-20.37,5.314-38.632,5.065a13.63,13.63,0,0,0-12.337,7.42C87.706,194.967,76,214.068,56.926,226.448l-9.109-4.908,23.249-52.333a19.311,19.311,0,0,1,11-10.291l46.075-16.9s14.287-3.993,21.291,8.76c1.251,2.278,3.574-1.794,4.127.044,1.9,6.3-3.2,19.059-9.475,21.05" transform="translate(-16.154 -47.779)" fill="#ab1b2d"/>
    <path id="Path_6724" data-name="Path 6724" d="M144.085,171.874c-7.3,2.318-20.37,5.314-38.632,5.065a13.63,13.63,0,0,0-12.337,7.42C87.706,194.967,76,214.068,56.926,226.448l-9.109-4.908,23.249-52.333a19.311,19.311,0,0,1,11-10.291l46.075-16.9s14.287-3.993,21.291,8.76c1.251,2.278,3.574-1.794,4.127.044C155.457,157.125,150.357,169.883,144.085,171.874Z" transform="translate(-16.154 -47.779)" fill="none" stroke="#000" stroke-width="1"/>
    <path id="Path_6725" data-name="Path 6725" d="M66.873,197.83a.358.358,0,0,1-.148-.032.367.367,0,0,1-.187-.484l10.506-23.649a19.787,19.787,0,0,1,11.21-10.487l22.065-8.091a.367.367,0,0,1,.253.689l-22.065,8.091a19.044,19.044,0,0,0-10.792,10.1L67.209,197.613a.367.367,0,0,1-.336.218" transform="translate(-22.468 -52.386)" fill="#fff"/>
    <path id="Path_6726" data-name="Path 6726" d="M85.4,246.41a.367.367,0,0,1-.264-.621c2.1-2.182,4.164-4.527,6.139-6.968a.367.367,0,0,1,.57.462c-1.988,2.457-4.068,4.817-6.181,7.015a.366.366,0,0,1-.264.113" transform="translate(-28.726 -80.636)" fill="#fff"/>
    <path id="Path_6727" data-name="Path 6727" d="M94.7,237.523a.366.366,0,0,1-.285-.6c.975-1.205,1.941-2.451,2.874-3.7a.367.367,0,1,1,.588.438c-.938,1.26-1.911,2.514-2.892,3.726a.364.364,0,0,1-.285.136" transform="translate(-31.869 -78.74)" fill="#fff"/>
    <path id="Path_6728" data-name="Path 6728" d="M116.76,87.289s-4.422,40.151-34.115,42.779l34.115.485s12.631-25.6,13.144-35.562-13.144-7.7-13.144-7.7" transform="translate(-27.92 -29.414)" fill="#fff"/>
    <path id="Path_6729" data-name="Path 6729" d="M116.573,130.728h-.005l-34.115-.485a.367.367,0,0,1-.027-.732c15.164-1.342,23.537-12.794,27.892-22.164a73.546,73.546,0,0,0,5.891-20.289.367.367,0,0,1,.3-.322c.309-.051,7.6-1.213,11.39,2.175a7.02,7.02,0,0,1,2.181,5.907c-.511,9.928-12.665,34.658-13.182,35.706a.366.366,0,0,1-.328.2m-29.809-1.157,29.582.42c1.2-2.46,12.526-25.906,13-35.211a6.326,6.326,0,0,0-1.936-5.322c-3.141-2.806-9.169-2.21-10.513-2.037a74.888,74.888,0,0,1-5.92,20.235c-5.6,12.062-13.921,19.56-24.219,21.914" transform="translate(-27.733 -29.224)"/>
    <path id="Path_6730" data-name="Path 6730" d="M171.079,48.3c-5.76-1.354-8.163-1.372-29.1-.614-5.118.185-10.811,8.2-11.414,13.282,1.627,4.878,8.74,27.373-4.365,46.19a40.714,40.714,0,0,1-7.858,8.406,26.36,26.36,0,0,0,9.049,4.837c6.755,2.006,10.152-.162,15.6,0,14.4.43,19.681,16.468,28.982,14.454,2.483-.538,5.775-2.475,8.861-8.973A100.047,100.047,0,0,0,185,107.012a103.478,103.478,0,0,0-4.929-45.652c-1.02-3.2-2.2-11.467-8.995-13.063" transform="translate(-39.98 -15.939)" fill="#fff"/>
    <path id="Path_6731" data-name="Path 6731" d="M170.153,135.208c-3.823,0-7-2.835-10.6-6.053-4.388-3.917-9.362-8.358-16.763-8.579a29.609,29.609,0,0,0-5.279.425,21.753,21.753,0,0,1-10.411-.44,26.641,26.641,0,0,1-9.175-4.9.366.366,0,0,1,0-.57,40.529,40.529,0,0,0,7.788-8.329c11.971-17.188,7.008-37.8,4.318-45.865a.369.369,0,0,1-.017-.159c.591-4.986,6.333-13.409,11.765-13.6,21.283-.771,23.466-.724,29.2.623,6.061,1.425,7.786,7.876,8.816,11.731.164.613.3,1.142.444,1.577a103.046,103.046,0,0,1,4.944,45.808,100.755,100.755,0,0,1-4.188,18.935.352.352,0,0,1-.017.044c-2.529,5.326-5.6,8.412-9.115,9.174a8.036,8.036,0,0,1-1.706.186m-27.942-15.374c.2,0,.4,0,.6.009,7.668.229,12.747,4.764,17.229,8.765,3.978,3.551,7.412,6.618,11.665,5.7,3.28-.711,6.173-3.655,8.6-8.751a100.034,100.034,0,0,0,4.15-18.774,102.317,102.317,0,0,0-4.913-45.49c-.146-.459-.289-1-.456-1.618-.988-3.7-2.641-9.882-8.275-11.207s-7.813-1.372-29-.6c-5.068.183-10.44,8.117-11.052,12.878,2.73,8.223,7.683,29.031-4.439,46.437a41.154,41.154,0,0,1-7.575,8.192,25.8,25.8,0,0,0,8.569,4.489,20.868,20.868,0,0,0,10.1.417,32.62,32.62,0,0,1,4.807-.441" transform="translate(-39.792 -15.752)"/>
    <path id="Path_6732" data-name="Path 6732" d="M128.271,78.749s5.653-27.961,15.411-30.279L139.175,85Z" transform="translate(-43.334 -16.375)" fill="#fff"/>
    <path id="Path_6733" data-name="Path 6733" d="M138.988,85.174a.364.364,0,0,1-.182-.048l-10.9-6.246a.367.367,0,0,1-.177-.391c.233-1.152,5.814-28.218,15.686-30.563a.367.367,0,0,1,.17.714c-8.928,2.12-14.48,26.918-15.083,29.736l10.193,5.84.742-6.01a.367.367,0,1,1,.728.089l-.81,6.558a.364.364,0,0,1-.2.283.359.359,0,0,1-.164.039" transform="translate(-43.147 -16.188)"/>
    <path id="Path_6734" data-name="Path 6734" d="M168.787,26.624l-.7,9.67a3.085,3.085,0,0,1-2.285,2.614l-3.4.885,2.2,1.679c4.886,3.72,11.653,4.482,16.546.771l3.487-2.535-4.219-1.054c-1.212-.271-2.145-2-2.365-3.221l-1.863-12.8Z" transform="translate(-54.867 -7.648)" fill="#fff"/>
    <path id="Path_6735" data-name="Path 6735" d="M173.545,44.873a15.5,15.5,0,0,1-9.341-3.3L162,39.9a.367.367,0,0,1,.129-.647l3.4-.885a2.7,2.7,0,0,0,2.014-2.3l.693-9.652a.368.368,0,0,1,.192-.3l7.412-3.986a.367.367,0,0,1,.536.27l1.864,12.8c.192,1.063,1.024,2.68,2.082,2.916l4.229,1.056a.367.367,0,0,1,.126.652l-3.487,2.534a12.541,12.541,0,0,1-7.643,2.522m-10.5-5.1,1.6,1.222c5.11,3.891,11.581,4.2,16.1.77l2.857-2.077-3.457-.863c-1.438-.321-2.409-2.247-2.637-3.511l-1.79-12.289-6.773,3.643-.681,9.469a3.439,3.439,0,0,1-2.559,2.942Z" transform="translate(-54.68 -7.461)"/>
    <path id="Path_6736" data-name="Path 6736" d="M154.247,5.687c2.325-1.23.453,2.6,8.1-4.017,3.045-2.635,3.154,2.284,3.946,1.6C169.216.756,169.114.839,170.959.519c1.222-.213,2.856,1.473,3.341,3.068.641,2.105-.759,3.365-.281,8.215.336,3.406,1.407,5.078.426,6.046s-2.608-.218-3.772.769c-1.507,1.277.213,4.117-.9,6.13-.7,1.269-3.006,2.763-7.854,2.647a1.644,1.644,0,0,1-1.579-1.375c-.164-1-.365-2.258-.456-3.478-.434-5.814.818-7.746-.415-8.739-1.888-1.523-5.1,1.313-6.461-.024-1.415-1.389-1.944-6.407,1.239-8.091" transform="translate(-51.315 -0.169)" fill="#fff"/>
    <path id="Path_6737" data-name="Path 6737" d="M154.247,5.687c2.325-1.23.453,2.6,8.1-4.017,3.045-2.635,3.154,2.284,3.946,1.6C169.216.756,169.114.839,170.959.519c1.222-.213,2.856,1.473,3.341,3.068.641,2.105-.759,3.365-.281,8.215.336,3.406,1.407,5.078.426,6.046s-2.608-.218-3.772.769c-1.507,1.277.213,4.117-.9,6.13-.7,1.269-3.006,2.763-7.854,2.647a1.644,1.644,0,0,1-1.579-1.375c-.164-1-.365-2.258-.456-3.478-.434-5.814.818-7.746-.415-8.739-1.888-1.523-5.1,1.313-6.461-.024C151.593,12.389,151.064,7.371,154.247,5.687Z" transform="translate(-51.315 -0.169)" fill="none" stroke="#000" stroke-width="1"/>
    <path id="Path_6738" data-name="Path 6738" d="M168.667,12.944l-.1,1.589a16.393,16.393,0,0,0,.019,2.245c.109,1.4.277,3.816.27,5.174-.013,2-6.179,2.385-6.179,2.385l-.783-.871-.724.03a.806.806,0,0,1-.407-.081.778.778,0,0,1-.413-.818,28.066,28.066,0,0,0,.237-8.678,8.437,8.437,0,0,1,8.077-.974" transform="translate(-54.169 -4.166)" fill="#fff"/>
    <path id="Path_6739" data-name="Path 6739" d="M162.492,24.514a.367.367,0,0,1-.273-.122l-.667-.742-.552.023a1.176,1.176,0,0,1-.592-.123,1.146,1.146,0,0,1-.605-1.2,28,28,0,0,0,.239-8.551.365.365,0,0,1,.129-.352,8.732,8.732,0,0,1,8.441-1.031.367.367,0,0,1,.233.364l-.1,1.588a15.878,15.878,0,0,0,.019,2.2c.1,1.351.278,3.825.269,5.2-.013,2.224-5.436,2.68-6.522,2.749h-.023m-.783-1.6a.367.367,0,0,1,.273.122l.663.738c2.4-.177,5.652-.9,5.66-2.009.009-1.353-.164-3.8-.268-5.144a16.609,16.609,0,0,1-.019-2.3L168.1,13a8.024,8.024,0,0,0-7.294.884,28.656,28.656,0,0,1-.276,8.579.414.414,0,0,0,.22.434.453.453,0,0,0,.222.04l.724-.03h.015" transform="translate(-53.982 -3.976)"/>
    <path id="Path_6740" data-name="Path 6740" d="M174.55,18.924s.227-3.819,1.939-3.337,1.357,4.68-1.939,3.337" transform="translate(-58.969 -5.252)" fill="#fff"/>
    <path id="Path_6741" data-name="Path 6741" d="M46.932,155.782h65.377a3.933,3.933,0,0,0,3.933-3.933H43a3.933,3.933,0,0,0,3.933,3.933" transform="translate(-14.527 -51.3)" fill="#fff"/>
    <path id="Path_6742" data-name="Path 6742" d="M113.135,155.961h-67.4a3.289,3.289,0,0,1-3.286-3.286v-1.014a.367.367,0,0,1,.367-.367h73.242a.367.367,0,0,1,.367.367v1.014a3.289,3.289,0,0,1-3.286,3.286m-69.957-3.933v.647a2.555,2.555,0,0,0,2.552,2.552h67.4a2.555,2.555,0,0,0,2.552-2.552v-.647Z" transform="translate(-14.339 -51.113)"/>
    <path id="Path_6743" data-name="Path 6743" d="M36.484,130.955H78.393l-13.315-39.2a4.38,4.38,0,0,0-3.677-1.97H25.973a2.2,2.2,0,0,0-2.118,2.937c.209.548.434,1.089.616,1.645Z" transform="translate(-8.013 -30.334)" fill="#fff"/>
    <path id="Path_6744" data-name="Path 6744" d="M78.207,131.134H36.3a.365.365,0,0,1-.348-.252L23.937,94.3c-.128-.389-.281-.781-.429-1.161-.061-.156-.122-.312-.181-.469a2.5,2.5,0,0,1,.289-2.308,2.6,2.6,0,0,1,2.171-1.126H61.214A4.726,4.726,0,0,1,65.2,91.372a.467.467,0,0,1,.039.082l13.315,39.2a.368.368,0,0,1-.348.485M36.563,130.4H77.7L64.559,91.734a3.993,3.993,0,0,0-3.345-1.765H25.786a1.871,1.871,0,0,0-1.567.809,1.767,1.767,0,0,0-.208,1.631c.058.154.119.309.179.463.152.389.309.791.443,1.2Z" transform="translate(-7.826 -30.147)"/>
    <path id="Path_6745" data-name="Path 6745" d="M63.745,118.892a2.752,2.752,0,1,1-3.513-2.214,2.952,2.952,0,0,1,3.513,2.214" transform="translate(-19.721 -39.384)" fill="#ab1b2d"/>
    <path id="Path_6746" data-name="Path 6746" d="M63.745,118.892a2.752,2.752,0,1,1-3.513-2.214A2.952,2.952,0,0,1,63.745,118.892Z" transform="translate(-19.721 -39.384)" fill="none" stroke="#000" stroke-width="1"/>
    <path id="Path_6747" data-name="Path 6747" d="M182.794,101.426s-2.055,26.04-7.873,35.9c-6.947,11.774-42-4.084-42-4.084l-4.076-2.308a11.329,11.329,0,0,0-9.059-.923l-6.585,2.125s5.438-6.52,10.062-9.013c2.168-1.169,4.979-.064,7.354,1.44a24.277,24.277,0,0,0,13.723,3.657l13.943-.414a4.617,4.617,0,0,0,4.463-4.214l2.1-29.289Z" transform="translate(-38.244 -31.858)" fill="#fff"/>
    <path id="Path_6748" data-name="Path 6748" d="M164.111,141.871c-12.573,0-30.485-8.014-31.525-8.484l-4.106-2.323a10.988,10.988,0,0,0-8.766-.893l-6.585,2.124a.366.366,0,0,1-.394-.583c.224-.269,5.536-6.6,10.17-9.1,1.947-1.05,4.545-.56,7.724,1.453a23.816,23.816,0,0,0,13.517,3.6l13.943-.414a4.251,4.251,0,0,0,4.108-3.88l2.1-29.283a.366.366,0,0,1,.5-.315l17.944,7.125a.366.366,0,0,1,.23.369c-.084,1.067-2.128,26.237-7.923,36.056-1.969,3.337-6.052,4.548-10.939,4.548M123.073,128.91a11.715,11.715,0,0,1,5.768,1.516l4.077,2.308c.317.142,34.8,15.574,41.5,4.216,5.394-9.14,7.561-32.683,7.8-35.472l-17.226-6.84-2.065,28.79a4.986,4.986,0,0,1-4.817,4.554l-13.943.415a24.52,24.52,0,0,1-13.931-3.713c-2.021-1.28-4.872-2.566-6.983-1.428-3.435,1.851-7.383,6.024-9.093,7.936l5.328-1.719a11.671,11.671,0,0,1,3.584-.563" transform="translate(-38.057 -31.671)"/>
    <path id="Path_6749" data-name="Path 6749" d="M211.056,88.038s2.2-16.779-.225-22.688c-5.646-13.783-14.278-15.716-15.66-16.126l-7.957,34.072Z" transform="translate(-63.247 -16.629)" fill="#fff"/>
    <path id="Path_6750" data-name="Path 6750" d="M210.869,88.216a.374.374,0,0,1-.072-.007l-23.842-4.743a.366.366,0,0,1-.285-.443l1.624-6.956a.367.367,0,1,1,.714.167l-1.538,6.587,23.083,4.593c.307-2.547,1.9-16.855-.25-22.113-2.443-5.963-7.066-13.554-15.221-15.856l-.2-.058a.367.367,0,1,1,.209-.7l.193.056c6.68,1.885,12.11,7.516,15.7,16.283,2.429,5.932.339,22.186.249,22.875a.367.367,0,0,1-.364.319" transform="translate(-63.06 -16.442)"/>
  </g>
</svg>
