<svg xmlns="http://www.w3.org/2000/svg" xmlns:xlink="http://www.w3.org/1999/xlink" width="78.888" height="78.888" viewBox="0 0 78.888 78.888">
  <defs>
    <filter id="Path_2357" x="0" y="0" width="78.888" height="78.888" filterUnits="userSpaceOnUse">
      <feOffset dy="7" input="SourceAlpha"/>
      <feGaussianBlur stdDeviation="4.5" result="blur"/>
      <feFlood flood-opacity="0.161"/>
      <feComposite operator="in" in2="blur"/>
      <feComposite in="SourceGraphic"/>
    </filter>
  </defs>
  <g id="Group_2059" data-name="Group 2059" transform="translate(-965.384 -2253.874)">
    <g transform="matrix(1, 0, 0, 1, 965.38, 2253.87)" filter="url(#Path_2357)">
      <g id="Path_2357-2" data-name="Path 2357" transform="translate(13.5 6.5)" fill="#44583f">
        <path d="M 25.944091796875 51.38818359375 C 22.50894165039062 51.38818359375 19.17681121826172 50.71551132202148 16.04026222229004 49.38886260986328 C 13.01045227050781 48.10736083984375 10.28931140899658 46.27268218994141 7.952401638031006 43.93578338623047 C 5.615501880645752 41.59888076782227 3.780821800231934 38.87773132324219 2.499321699142456 35.84793090820312 C 1.172671794891357 32.71137237548828 0.5000017881393433 29.37924194335938 0.5000017881393433 25.944091796875 C 0.5000017881393433 22.50894165039062 1.172671794891357 19.17681121826172 2.499321699142456 16.04026222229004 C 3.780821800231934 13.01045227050781 5.615501880645752 10.28931140899658 7.952401638031006 7.952401638031006 C 10.28931140899658 5.615501880645752 13.01045227050781 3.780821800231934 16.04026222229004 2.499321699142456 C 19.17681121826172 1.172671794891357 22.50894165039062 0.5000017881393433 25.944091796875 0.5000017881393433 C 29.37924194335938 0.5000017881393433 32.71137237548828 1.172671794891357 35.84793090820312 2.499321699142456 C 38.87773132324219 3.780821800231934 41.59888076782227 5.615501880645752 43.93578338623047 7.952401638031006 C 46.27268218994141 10.28931140899658 48.10736083984375 13.01045227050781 49.38886260986328 16.04026222229004 C 50.71551132202148 19.17681121826172 51.38818359375 22.50894165039062 51.38818359375 25.944091796875 C 51.38818359375 29.37924194335938 50.71551132202148 32.71137237548828 49.38886260986328 35.84793090820312 C 48.10736083984375 38.87773132324219 46.27268218994141 41.59888076782227 43.93578338623047 43.93578338623047 C 41.59888076782227 46.27268218994141 38.87773132324219 48.10736083984375 35.84793090820312 49.38886260986328 C 32.71137237548828 50.71551132202148 29.37924194335938 51.38818359375 25.944091796875 51.38818359375 Z" stroke="none"/>
        <path d="M 25.944091796875 1 C 22.57622146606445 1 19.30961990356445 1.659381866455078 16.23503112792969 2.959823608398438 C 13.26482009887695 4.216110229492188 10.59710311889648 6.014812469482422 8.305950164794922 8.305950164794922 C 6.014812469482422 10.59710311889648 4.216110229492188 13.26482009887695 2.959823608398438 16.23503112792969 C 1.659381866455078 19.30961990356445 1 22.57622146606445 1 25.944091796875 C 1 29.31196212768555 1.659381866455078 32.57855987548828 2.959823608398438 35.65315246582031 C 4.216110229492188 38.62335205078125 6.014812469482422 41.29108047485352 8.305950164794922 43.58222198486328 C 10.59710311889648 45.87337112426758 13.26482009887695 47.67207336425781 16.23503112792969 48.92835998535156 C 19.30961990356445 50.22880172729492 22.57622146606445 50.88818359375 25.944091796875 50.88818359375 C 29.31196212768555 50.88818359375 32.57855987548828 50.22880172729492 35.65315246582031 48.92835998535156 C 38.62335205078125 47.67207336425781 41.29108047485352 45.87337112426758 43.58222198486328 43.58222198486328 C 45.87337112426758 41.29108047485352 47.67207336425781 38.62335205078125 48.92835998535156 35.65315246582031 C 50.22880172729492 32.57855987548828 50.88818359375 29.31196212768555 50.88818359375 25.944091796875 C 50.88818359375 22.57622146606445 50.22880172729492 19.30961990356445 48.92835998535156 16.23503112792969 C 47.67207336425781 13.26482009887695 45.87337112426758 10.59710311889648 43.58222198486328 8.305950164794922 C 41.29108047485352 6.014812469482422 38.62335205078125 4.216110229492188 35.65315246582031 2.959823608398438 C 32.57855987548828 1.659381866455078 29.31196212768555 1 25.944091796875 1 M 25.944091796875 0 C 40.27261352539062 0 51.88818359375 11.61556243896484 51.88818359375 25.944091796875 C 51.88818359375 40.27261352539062 40.27261352539062 51.88818359375 25.944091796875 51.88818359375 C 11.61556243896484 51.88818359375 0 40.27261352539062 0 25.944091796875 C 0 11.61556243896484 11.61556243896484 0 25.944091796875 0 Z" stroke="none" fill="#fff"/>
      </g>
    </g>
    <g id="Group_1713" data-name="Group 1713" transform="translate(992.042 2273.423)">
      <g id="_7715973141596026806" data-name="7715973141596026806" transform="translate(0)">
        <line id="Line_370" data-name="Line 370" x2="12.114" transform="translate(0.241 12.574)" fill="none" stroke="#fff" stroke-linecap="round" stroke-linejoin="round" stroke-width="2"/>
        <path id="Path_7765" data-name="Path 7765" d="M21.7,12.919C21.109,7.265,18.729,3,15.951,3,12.678,3,10,8.753,10,15.895s2.678,12.895,5.951,12.895" transform="translate(-3.057 -3)" fill="none" stroke="#fff" stroke-linecap="round" stroke-linejoin="round" stroke-width="2"/>
        <path id="Path_7766" data-name="Path 7766" d="M28.69,16.887c0-.3.1-.694.1-.992A12.895,12.895,0,1,0,15.895,28.789a10.239,10.239,0,0,0,2.976-.4" transform="translate(-3 -3)" fill="none" stroke="#fff" stroke-linecap="round" stroke-linejoin="round" stroke-width="2"/>
      </g>
      <g id="Page-1" transform="translate(15.233 25.789) rotate(-90)">
        <g id="Dribbble-Light-Preview">
          <g id="icons">
            <path id="mouse___window-_5_" data-name="mouse_↑_window-[#5]" d="M.454,4.445,12.541,0,8.095,12.087,5.182,9.175,1.816,12.541,0,10.725,3.366,7.359Z" fill="#fff" fill-rule="evenodd"/>
          </g>
        </g>
      </g>
    </g>
  </g>
</svg>
