<svg xmlns="http://www.w3.org/2000/svg" width="42" height="42" viewBox="0 0 42 42">
  <g id="Group_1869" data-name="Group 1869" transform="translate(-215.601 -1177)">
    <rect id="Rectangle_1743" data-name="Rectangle 1743" width="42" height="42" transform="translate(215.601 1177)" fill="#99a26f"/>
    <g id="_18144611595156101" data-name="18144611595156101" transform="translate(226.101 1186.654)">
      <path id="Path_7265" data-name="Path 7265" d="M15.692,18.542H5.308A3.161,3.161,0,0,1,2.15,15.385V7.308A3.161,3.161,0,0,1,5.308,4.15H15.692A3.161,3.161,0,0,1,18.85,7.308v8.077A3.161,3.161,0,0,1,15.692,18.542ZM5.308,5.85A1.459,1.459,0,0,0,3.85,7.308v8.077a1.459,1.459,0,0,0,1.458,1.458H15.692a1.459,1.459,0,0,0,1.458-1.458V7.308A1.459,1.459,0,0,0,15.692,5.85Z" fill="#fff"/>
      <path id="Path_7266" data-name="Path 7266" d="M10.5,15.465a.849.849,0,0,1-.445-.126l-7.5-4.615a.85.85,0,1,1,.891-1.448L10.5,13.617l7.055-4.341a.85.85,0,1,1,.891,1.448l-7.5,4.615A.849.849,0,0,1,10.5,15.465Z" transform="translate(0 -2.115)" fill="#fff"/>
    </g>
  </g>
</svg>
