<svg xmlns="http://www.w3.org/2000/svg" xmlns:xlink="http://www.w3.org/1999/xlink" width="159.264" height="93.463" viewBox="0 0 159.264 93.463">
  <defs>
    <clipPath id="clip-path">
      <rect id="Rectangle_2026" data-name="Rectangle 2026" width="159.264" height="93.463" fill="none"/>
    </clipPath>
  </defs>
  <g id="Group_2261" data-name="Group 2261" transform="translate(0 0)">
    <g id="Group_2260" data-name="Group 2260" transform="translate(0 0)" clip-path="url(#clip-path)">
      <path id="Path_9404" data-name="Path 9404" d="M3.717,0H107.88A3.717,3.717,0,0,1,111.6,3.717V62.753a3.716,3.716,0,0,1-3.716,3.716H3.716A3.716,3.716,0,0,1,0,62.753V3.717A3.717,3.717,0,0,1,3.717,0Z" transform="translate(26.685 26.257)" fill="#f7a600"/>
      <path id="Rectangle_2025" data-name="Rectangle 2025" d="M3.181,0H108.416A3.181,3.181,0,0,1,111.6,3.181V63.289a3.18,3.18,0,0,1-3.18,3.18H3.18A3.18,3.18,0,0,1,0,63.289V3.181A3.181,3.181,0,0,1,3.181,0Z" transform="translate(26.685 26.257)" fill="none" stroke="#2647a3" stroke-linecap="round" stroke-linejoin="round" stroke-width="1"/>
      <path id="Path_9391" data-name="Path 9391" d="M129.662,20.956S83.43,52.8,80.818,54.537s-5.17,3.044-6.956,3.044h0c-1.786,0-4.347-1.306-6.957-3.044S18.065,20.956,18.065,20.956" transform="translate(8.62 9.999)" fill="none" stroke="#2647a3" stroke-linecap="round" stroke-linejoin="round" stroke-width="1"/>
      <path id="Path_9392" data-name="Path 9392" d="M65.539,40.272C79.25,49.69,107.01,68.81,107.01,68.81" transform="translate(31.272 19.215)" fill="none" stroke="#2647a3" stroke-linecap="round" stroke-linejoin="round" stroke-width="1"/>
      <path id="Path_9393" data-name="Path 9393" d="M18.065,68.81S45.821,49.693,59.533,40.275" transform="translate(8.62 19.217)" fill="none" stroke="#2647a3" stroke-linecap="round" stroke-linejoin="round" stroke-width="1"/>
      <path id="Path_9394" data-name="Path 9394" d="M122.325,25.278A23.228,23.228,0,1,1,99.1,2.05a23.228,23.228,0,0,1,23.228,23.228" transform="translate(36.2 0.978)" fill="#c7222a"/>
      <path id="Path_9395" data-name="Path 9395" d="M122.325,25.278A23.228,23.228,0,1,1,99.1,2.05,23.228,23.228,0,0,1,122.325,25.278Z" transform="translate(36.2 0.978)" fill="none" stroke="#2647a3" stroke-linecap="round" stroke-linejoin="round" stroke-width="1"/>
      <path id="Path_9396" data-name="Path 9396" d="M92.648,29.925a.612.612,0,0,1-.183-.451l.05-4.742a.217.217,0,0,0-.1-.208.178.178,0,0,0-.216.055l-4.424,2.582a.836.836,0,0,1-.316.1.633.633,0,0,1-.578-.369l-1.476-2.739a.857.857,0,0,1-.1-.368.544.544,0,0,1,.366-.529L90.1,20.89c.174-.1.174-.21,0-.312l-4.427-2.267a.55.55,0,0,1-.341-.369.639.639,0,0,1,.078-.529l1.476-2.736a.755.755,0,0,1,.391-.341.576.576,0,0,1,.5.077l4.424,2.53a.241.241,0,0,0,.216,0,.218.218,0,0,0,.1-.211l-.05-4.635a.628.628,0,0,1,.631-.632h3a.633.633,0,0,1,.631.632l-.052,4.635a.212.212,0,0,0,.1.211.235.235,0,0,0,.213,0l4.424-2.53a.851.851,0,0,1,.31-.1.65.65,0,0,1,.585.369l1.473,2.736a.858.858,0,0,1,.1.369.516.516,0,0,1-.368.477l-4.474,2.319c-.176.1-.176.208,0,.312l4.474,2.369a.558.558,0,0,1,.343.369.645.645,0,0,1-.078.527l-1.473,2.739a.754.754,0,0,1-.4.344.594.594,0,0,1-.5-.077L97,24.58a.175.175,0,0,0-.213-.055.211.211,0,0,0-.1.208l.052,4.742a.609.609,0,0,1-.186.451.6.6,0,0,1-.445.185h-3a.6.6,0,0,1-.448-.185" transform="translate(40.701 5.47)" fill="#fff"/>
      <path id="Path_9397" data-name="Path 9397" d="M92.648,29.925a.612.612,0,0,1-.183-.451l.05-4.742a.217.217,0,0,0-.1-.208.178.178,0,0,0-.216.055l-4.424,2.582a.836.836,0,0,1-.316.1.633.633,0,0,1-.578-.369l-1.476-2.739a.857.857,0,0,1-.1-.368.544.544,0,0,1,.366-.529L90.1,20.89c.174-.1.174-.21,0-.312l-4.427-2.267a.55.55,0,0,1-.341-.369.639.639,0,0,1,.078-.529l1.476-2.736a.755.755,0,0,1,.391-.341.576.576,0,0,1,.5.077l4.424,2.53a.241.241,0,0,0,.216,0,.218.218,0,0,0,.1-.211l-.05-4.635a.628.628,0,0,1,.631-.632h3a.633.633,0,0,1,.631.632l-.052,4.635a.212.212,0,0,0,.1.211.235.235,0,0,0,.213,0l4.424-2.53a.851.851,0,0,1,.31-.1.65.65,0,0,1,.585.369l1.473,2.736a.858.858,0,0,1,.1.369.516.516,0,0,1-.368.477l-4.474,2.319c-.176.1-.176.208,0,.312l4.474,2.369a.558.558,0,0,1,.343.369.645.645,0,0,1-.078.527l-1.473,2.739a.754.754,0,0,1-.4.344.594.594,0,0,1-.5-.077L97,24.58a.175.175,0,0,0-.213-.055.211.211,0,0,0-.1.208l.052,4.742a.609.609,0,0,1-.186.451.6.6,0,0,1-.445.185h-3A.6.6,0,0,1,92.648,29.925Z" transform="translate(40.701 5.47)" fill="none" stroke="#2647a3" stroke-linecap="round" stroke-linejoin="round" stroke-width="1"/>
      <path id="Path_9398" data-name="Path 9398" d="M16.52,20.361l-10.953-6a5.3,5.3,0,0,1,5.087-9.3,5.4,5.4,0,0,1,1.8,1.62L19.6,16.935a2.364,2.364,0,0,1-3.077,3.425" transform="translate(1.341 2.106)" fill="#f7a600"/>
      <path id="Path_9399" data-name="Path 9399" d="M16.52,20.361l-10.953-6a5.3,5.3,0,0,1,5.087-9.3,5.4,5.4,0,0,1,1.8,1.62L19.6,16.935a2.364,2.364,0,0,1-3.077,3.425Z" transform="translate(1.341 2.106)" fill="none" stroke="#213d8c" stroke-linecap="round" stroke-linejoin="round" stroke-width="1"/>
      <path id="Path_9400" data-name="Path 9400" d="M19.28,24.652,7.308,28.2A5.3,5.3,0,0,1,4.293,18.034,5.368,5.368,0,0,1,6.714,17.9l12.3,2.155a2.365,2.365,0,0,1,.263,4.6" transform="translate(0.239 8.502)" fill="#ffd373"/>
      <path id="Path_9401" data-name="Path 9401" d="M19.28,24.652,7.308,28.2A5.3,5.3,0,0,1,4.293,18.034,5.368,5.368,0,0,1,6.714,17.9l12.3,2.155a2.365,2.365,0,0,1,.263,4.6Z" transform="translate(0.239 8.502)" fill="#f7a600" stroke="#213d8c" stroke-linecap="round" stroke-linejoin="round" stroke-width="1"/>
      <path id="Path_9402" data-name="Path 9402" d="M19.061,18.8,17.681,6.388a5.3,5.3,0,1,1,10.244,1.23L23.634,19.35a2.366,2.366,0,0,1-4.573-.552" transform="translate(8.421 0.238)" fill="#f7a600"/>
      <path id="Path_9403" data-name="Path 9403" d="M19.061,18.8,17.681,6.388a5.3,5.3,0,1,1,10.244,1.23L23.634,19.35a2.366,2.366,0,0,1-4.573-.552Z" transform="translate(8.421 0.238)" fill="none" stroke="#213d8c" stroke-linecap="round" stroke-linejoin="round" stroke-width="1"/>
    </g>
  </g>
</svg>
