<svg id="Group_2411" data-name="Group 2411" xmlns="http://www.w3.org/2000/svg" xmlns:xlink="http://www.w3.org/1999/xlink" width="20.3" height="36.221" viewBox="0 0 20.3 36.221">
  <defs>
    <clipPath id="clip-path">
      <rect id="Rectangle_2124" data-name="Rectangle 2124" width="20.3" height="36.221" rx="1" fill="#c7222a"/>
    </clipPath>
  </defs>
  <g id="Group_2410" data-name="Group 2410" clip-path="url(#clip-path)">
    <path id="Path_10013" data-name="Path 10013" d="M17.9,0H2.4A2.4,2.4,0,0,0,0,2.4V33.818a2.4,2.4,0,0,0,2.4,2.4H17.9a2.4,2.4,0,0,0,2.4-2.4V2.4A2.4,2.4,0,0,0,17.9,0" fill="#fffffa"/>
    <path id="Path_10014" data-name="Path 10014" d="M11.426,44.658V16.209a.042.042,0,0,1,.042-.042H27.708a.042.042,0,0,1,.042.042V44.658a.042.042,0,0,1-.042.042H11.468a.042.042,0,0,1-.042-.042" transform="translate(-9.438 -13.354)" fill="#c7222a"/>
    <path id="Path_10015" data-name="Path 10015" d="M51.965,186.608a1.7,1.7,0,1,0-1.7,1.7,1.7,1.7,0,0,0,1.7-1.7" transform="translate(-40.114 -152.738)" fill="#c7222a"/>
    <path id="Path_10016" data-name="Path 10016" d="M48.127,6.709H43.314a.252.252,0,0,0-.251.251v.05a.252.252,0,0,0,.251.252h4.813a.252.252,0,0,0,.251-.252V6.96a.252.252,0,0,0-.251-.251" transform="translate(-35.571 -5.542)" fill="#fffffa"/>
    <path id="Path_10017" data-name="Path 10017" d="M43.4,68.057c-.611-1.032-1.248-1.486-2.22-.94l-.251.149c-1.582-.025-2.468-2.063-2.769-2.421-.169-.436-1.528-2.193-.789-3.592l.251-.148c.947-.589.855-1.366.244-2.4-.543-.918-.817-1.77-1.618-1.3l-.5.3a3.455,3.455,0,0,0-1.339,1.386h0a4.562,4.562,0,0,0,.128,4.423l1.523,2.573,1.523,2.573a4.56,4.56,0,0,0,3.816,2.24h0a3.455,3.455,0,0,0,1.86-.507l.5-.3c.8-.474.185-1.124-.358-2.042" transform="translate(-28 -47.31)" fill="#fef9ee"/>
  </g>
</svg>
