<svg xmlns="http://www.w3.org/2000/svg" width="42" height="42" viewBox="0 0 42 42">
  <g id="Group_1867" data-name="Group 1867" transform="translate(-215.601 -1177)">
    <rect id="Rectangle_1743" data-name="Rectangle 1743" width="42" height="42" transform="translate(215.601 1177)" fill="#99a26f"/>
    <path id="Call_-_Outline" data-name="Call - Outline" d="M15.564,18.874h-.206l-.03,0A18.4,18.4,0,0,1,4.906,14.157l-.018-.017-.652-.653A18.4,18.4,0,0,1-.5,3.043,2.08,2.08,0,0,1,.829.873L4.1-.4A1.5,1.5,0,0,1,5.968.291l2.3,4.226A1.5,1.5,0,0,1,8.012,6.3L8.007,6.3,6.126,8.15a21.166,21.166,0,0,0,1.891,2.328,19.335,19.335,0,0,0,2.23,1.8l1.823-1.914a1.51,1.51,0,0,1,1.788-.267l4.229,2.3a1.517,1.517,0,0,1,.687,1.859L17.5,17.538a2.09,2.09,0,0,1-1.938,1.336ZM6.175,12.8a16.438,16.438,0,0,0,9.356,4.23l.027,0a.229.229,0,0,0,.213-.147l0-.006,1.173-2.991L13.2,11.848l-1.882,1.916a1.5,1.5,0,0,1-1.912.2,21.146,21.146,0,0,1-2.713-2.166l-.024-.024A23.009,23.009,0,0,1,4.419,8.962a1.5,1.5,0,0,1,.188-1.919L6.522,5.168,4.481,1.428,1.49,2.6a.228.228,0,0,0-.146.238A16.553,16.553,0,0,0,5.572,12.2Z" transform="translate(227.421 1188.811)" fill="#fff"/>
  </g>
</svg>
