<svg xmlns="http://www.w3.org/2000/svg" width="75" height="75" viewBox="0 0 75 75">
  <g id="Group_2270" data-name="Group 2270" transform="translate(-503 -924.25)">
    <circle id="Ellipse_136" data-name="Ellipse 136" cx="37.5" cy="37.5" r="37.5" transform="translate(503 924.25)" fill="#f7a600"/>
    <g id="_10976361251617453686" data-name="10976361251617453686" transform="translate(523.068 944.317)">
      <path id="Path_9024" data-name="Path 9024" d="M0,0H34.864V34.864H0Z" fill="none"/>
      <path id="Path_9025" data-name="Path 9025" d="M27.448,21.035a11.623,11.623,0,0,0-16.481-14.6L9.527,3.912A14.529,14.529,0,0,1,29.979,22.5l1.949,1.124-6.05,3.216-.24-6.848,1.81,1.044ZM6.022,12.02A11.623,11.623,0,0,0,22.5,26.619l1.441,2.523A14.529,14.529,0,0,1,3.491,10.557L1.54,9.434,7.59,6.218l.24,6.848L6.02,12.021Zm12.769,8.616-4.113-4.108L10.57,20.636,8.516,18.582l6.164-6.162,4.11,4.108,4.11-4.108,2.054,2.054-6.164,6.162Z" transform="translate(0.697 0.905)" fill="#fff"/>
    </g>
  </g>
</svg>
