<svg xmlns="http://www.w3.org/2000/svg" width="21.846" height="17.736" viewBox="0 0 21.846 17.736">
  <g id="Group_2119" data-name="Group 2119" transform="translate(0)">
    <path id="Path_9030" data-name="Path 9030" d="M22.216,50.206a7.776,7.776,0,0,1-7.492-5.792l2.328.776.351-1.051-3.326-1.109a.553.553,0,0,0-.567.134L11.294,45.38l.784.784,1.553-1.553A8.855,8.855,0,0,0,31,43.628l-1.1-.147A7.776,7.776,0,0,1,22.216,50.206Z" transform="translate(-11.294 -33.578)" fill="#f7a600"/>
    <path id="Path_9031" data-name="Path 9031" d="M32.524,32.7a8.855,8.855,0,0,0-17.367.983l1.1.147A7.746,7.746,0,0,1,31.43,32.9L29.1,32.125l-.351,1.051,3.326,1.109a.553.553,0,0,0,.568-.134l2.217-2.217-.784-.784Z" transform="translate(-13.016 -26)" fill="#f7a600"/>
    <path id="Path_9032" data-name="Path 9032" d="M28.58,42.653l3.627-3.627-.733-.733-3.261,3.261-1.188-1.188-.733.733,1.555,1.555a.518.518,0,0,0,.733,0Z" transform="translate(-18.328 -31.681)" fill="#f7a600"/>
  </g>
</svg>
