<svg xmlns="http://www.w3.org/2000/svg" xmlns:xlink="http://www.w3.org/1999/xlink" width="93.148" height="93.148" viewBox="0 0 93.148 93.148">
  <defs>
    <filter id="Ellipse_61" x="0" y="0" width="93.148" height="93.148" filterUnits="userSpaceOnUse">
      <feOffset dy="7" input="SourceAlpha"/>
      <feGaussianBlur stdDeviation="4.5" result="blur"/>
      <feFlood flood-opacity="0.161"/>
      <feComposite operator="in" in2="blur"/>
      <feComposite in="SourceGraphic"/>
    </filter>
  </defs>
  <g id="Group_1462" data-name="Group 1462" transform="translate(13.5 6.5)">
    <g transform="matrix(1, 0, 0, 1, -13.5, -6.5)" filter="url(#Ellipse_61)">
      <g id="Ellipse_61-2" data-name="Ellipse 61" transform="translate(13.5 6.5)" fill="#c91429" stroke="#fff" stroke-width="1">
        <circle cx="33.074" cy="33.074" r="33.074" stroke="none"/>
        <circle cx="33.074" cy="33.074" r="32.574" fill="none"/>
      </g>
    </g>
    <g id="noun-ashok-chakra-india-5101726_1_" data-name="noun-ashok-chakra-india-5101726 (1)" transform="translate(11.204 11.204)">
      <path id="Path_6915" data-name="Path 6915" d="M147.869,56a21.869,21.869,0,1,0,21.869,21.869A21.87,21.87,0,0,0,147.869,56Zm12.389,36.447a.955.955,0,0,0-1.513,1.163,19.071,19.071,0,0,1-2.679,1.552.954.954,0,0,0-1.763.731,18.982,18.982,0,0,1-2.992.8.954.954,0,0,0-1.892.246c-.511.04-1.026.067-1.548.067s-1.037-.027-1.548-.067a.954.954,0,0,0-1.892-.246,18.959,18.959,0,0,1-2.992-.8.954.954,0,0,0-1.763-.731,19.078,19.078,0,0,1-2.68-1.552.955.955,0,0,0-1.513-1.163,19.23,19.23,0,0,1-2.189-2.189.955.955,0,0,0-1.163-1.513,19.072,19.072,0,0,1-1.552-2.68.954.954,0,0,0-.731-1.763,18.979,18.979,0,0,1-.8-2.992.954.954,0,0,0-.246-1.892c-.04-.511-.067-1.026-.067-1.548s.027-1.037.067-1.548a.954.954,0,0,0,.246-1.892,18.958,18.958,0,0,1,.8-2.992.954.954,0,0,0,.731-1.763,19.078,19.078,0,0,1,1.552-2.68.955.955,0,0,0,1.163-1.513,19.232,19.232,0,0,1,2.189-2.189.955.955,0,0,0,1.513-1.163,19.072,19.072,0,0,1,2.68-1.552.954.954,0,0,0,1.763-.731,18.98,18.98,0,0,1,2.992-.8.954.954,0,0,0,1.892-.246c.511-.04,1.026-.067,1.548-.067s1.037.027,1.548.067a.954.954,0,0,0,1.892.246,18.959,18.959,0,0,1,2.992.8.954.954,0,0,0,1.763.731,19.079,19.079,0,0,1,2.679,1.552.955.955,0,0,0,1.513,1.163,19.231,19.231,0,0,1,2.189,2.189.955.955,0,0,0,1.163,1.513,19.076,19.076,0,0,1,1.552,2.679.954.954,0,0,0,.731,1.763,18.982,18.982,0,0,1,.8,2.992.954.954,0,0,0,.246,1.892c.04.511.067,1.026.067,1.548s-.027,1.037-.067,1.548a.954.954,0,0,0-.246,1.892,18.962,18.962,0,0,1-.8,2.992.954.954,0,0,0-.731,1.763,19.083,19.083,0,0,1-1.552,2.68.955.955,0,0,0-1.163,1.513A19.265,19.265,0,0,1,160.258,92.447Z" transform="translate(-126 -56)" fill="#fff"/>
      <path id="Path_6916" data-name="Path 6916" d="M343.3,99.2l-.333-4.1.685-11.254.689,11.254-.423,4.08Z" transform="translate(-321.781 -81.132)" fill="#fff"/>
      <path id="Path_6917" data-name="Path 6917" d="M343.3,318.93l-.333,4.1.685,11.254.689-11.254-.423-4.08Z" transform="translate(-321.781 -293.26)" fill="#fff"/>
      <path id="Path_6918" data-name="Path 6918" d="M388.93,273.3l4.1-.333,11.254.685-11.254.689-4.08-.423Z" transform="translate(-363.26 -251.781)" fill="#fff"/>
      <path id="Path_6919" data-name="Path 6919" d="M169.2,273.3l-4.1-.333-11.254.685,11.254.689,4.08-.423Z" transform="translate(-151.132 -251.781)" fill="#fff"/>
      <path id="Path_6920" data-name="Path 6920" d="M376.137,304.97l3.131,2.662,7.473,8.441L378.3,308.6l-2.586-3.184Z" transform="translate(-351.331 -280.663)" fill="#fff"/>
      <path id="Path_6921" data-name="Path 6921" d="M222.41,151.914l-2.662-3.131-8.441-7.473,7.471,8.444,3.184,2.586Z" transform="translate(-202.978 -132.98)" fill="#fff"/>
      <path id="Path_6922" data-name="Path 6922" d="M367.862,311.8l2.35,3.37,5.08,10.066-6.266-9.373-1.691-3.737Z" transform="translate(-343.773 -286.826)" fill="#fff"/>
      <path id="Path_6923" data-name="Path 6923" d="M259.2,123.661l-1.777-3.705-6.262-9.376,5.076,10.068,2.421,3.311Z" transform="translate(-238.94 -105.251)" fill="#fff"/>
      <path id="Path_6924" data-name="Path 6924" d="M357.575,316.84l1.331,3.888,2.107,11.075-3.438-10.738-.595-4.059Z" transform="translate(-334.429 -291.374)" fill="#fff"/>
      <path id="Path_6925" data-name="Path 6925" d="M305.827,104.694l-.686-4.051L301.707,89.9l2.1,11.076,1.414,3.85Z" transform="translate(-284.552 -86.594)" fill="#fff"/>
      <path id="Path_6926" data-name="Path 6926" d="M221.914,304.97l-3.131,2.662-7.473,8.441,8.444-7.471,2.586-3.184Z" transform="translate(-202.98 -280.663)" fill="#fff"/>
      <path id="Path_6927" data-name="Path 6927" d="M374.97,151.914l2.662-3.131,8.441-7.473-7.471,8.444-3.184,2.586Z" transform="translate(-350.663 -132.98)" fill="#fff"/>
      <path id="Path_6928" data-name="Path 6928" d="M258.6,311.8l-2.35,3.37-5.08,10.066,6.266-9.373,1.691-3.737Z" transform="translate(-238.945 -286.826)" fill="#fff"/>
      <path id="Path_6929" data-name="Path 6929" d="M366.5,123.661l1.777-3.705,6.262-9.376-5.076,10.068-2.421,3.311Z" transform="translate(-343.02 -105.251)" fill="#fff"/>
      <path id="Path_6930" data-name="Path 6930" d="M305.153,316.84l-1.331,3.888L301.715,331.8l3.438-10.738.595-4.059Z" transform="translate(-284.56 -291.374)" fill="#fff"/>
      <path id="Path_6931" data-name="Path 6931" d="M356.09,104.694l.686-4.051L360.21,89.9l-2.1,11.076-1.414,3.85Z" transform="translate(-333.626 -86.594)" fill="#fff"/>
      <path id="Path_6932" data-name="Path 6932" d="M174.479,285.9l-4.055.666-10.755,3.381,11.086-2.049,3.857-1.4Z" transform="translate(-156.382 -263.454)" fill="#fff"/>
      <path id="Path_6933" data-name="Path 6933" d="M386.9,236.007l3.894-1.311,11.085-2.053-10.754,3.385-4.061.575Z" transform="translate(-361.428 -215.397)" fill="#fff"/>
      <path id="Path_6934" data-name="Path 6934" d="M191.27,295.54l-3.752,1.676-9.541,6.007,10.2-4.8,3.376-2.331Z" transform="translate(-172.902 -272.153)" fill="#fff"/>
      <path id="Path_6935" data-name="Path 6935" d="M382.41,192.838l3.432-2.259,10.2-4.806-9.539,6.011-3.781,1.589Z" transform="translate(-357.376 -173.103)" fill="#fff"/>
      <path id="Path_6936" data-name="Path 6936" d="M387.406,285.9l4.055.666,10.755,3.381L391.13,287.9l-3.857-1.4Z" transform="translate(-361.765 -263.454)" fill="#fff"/>
      <path id="Path_6937" data-name="Path 6937" d="M174.652,236.007l-3.894-1.311-11.085-2.053,10.753,3.385,4.062.575Z" transform="translate(-156.385 -215.397)" fill="#fff"/>
      <path id="Path_6938" data-name="Path 6938" d="M383.252,295.54,387,297.216l9.541,6.007-10.2-4.8-3.376-2.331Z" transform="translate(-357.881 -272.153)" fill="#fff"/>
      <path id="Path_6939" data-name="Path 6939" d="M191.609,192.838l-3.432-2.259-10.2-4.806,9.539,6.011,3.781,1.589Z" transform="translate(-172.903 -173.103)" fill="#fff"/>
      <path id="Path_6940" data-name="Path 6940" d="M314.872,240.606a4.262,4.262,0,1,1-4.262-4.262,4.262,4.262,0,0,1,4.262,4.262" transform="translate(-288.74 -218.737)" fill="#fff"/>
    </g>
  </g>
</svg>
