<svg xmlns="http://www.w3.org/2000/svg" width="35.91" height="32.66" viewBox="0 0 35.91 32.66">
  <g id="Group_2065" data-name="Group 2065" transform="translate(-186.244 -846.088)">
    <g id="Layer_18" data-name="Layer 18" transform="translate(183.519 840.686)">
      <path id="Path_7352" data-name="Path 7352" d="M17.457,22.11a1.721,1.721,0,1,0,1.715,1.721,1.721,1.721,0,0,0-1.715-1.721Zm0,2.221a.5.5,0,1,1,.494-.5.5.5,0,0,1-.494.5Z" transform="translate(-4.97 -6.408)" fill="#c91429" stroke="#c9142a" stroke-width="0.5"/>
      <path id="Path_7353" data-name="Path 7353" d="M35.778,21.29H31.61a.61.61,0,0,0,0,1.22h4.168a.61.61,0,0,0,0-1.22Z" transform="translate(-10.922 -6.089)" fill="#c91429" stroke="#c9142a" stroke-width="0.5"/>
      <path id="Path_7354" data-name="Path 7354" d="M38.385,18.515a.61.61,0,0,0-1.22,0,2.441,2.441,0,0,1-1.831,2.362C34.9,14.127,28.5,8.751,20.688,8.751a16.153,16.153,0,0,0-5.59.982L9.7,5.779a.62.62,0,0,0-.952.665l1.6,6.054a12.382,12.382,0,0,0-3.8,5.669H3.6a.61.61,0,0,0-.61.738l1.22,5.6a.61.61,0,0,0,.61.482H6.573a13.163,13.163,0,0,0,6.389,7.457V37.2a.61.61,0,0,0,.61.61h2.7a.61.61,0,0,0,.58-.421l1.056-3.246a16.385,16.385,0,0,0,5.565,0l1.056,3.246a.61.61,0,0,0,.61.421h2.7a.61.61,0,0,0,.61-.61V32.44a12.6,12.6,0,0,0,6.9-10.313,3.661,3.661,0,0,0,3.039-3.613ZM27.529,31.537a.641.641,0,0,0-.336.543v4.51H25.57l-1.086-3.332c0-.061,0-.079-.049-.085a.61.61,0,0,0-.7-.323,15.354,15.354,0,0,1-6.151,0,.61.61,0,0,0-.659.336.189.189,0,0,0-.043.073l-1.08,3.332H14.183V32.111a.641.641,0,0,0-.336-.543,11.887,11.887,0,0,1-6.231-7.323.61.61,0,0,0-.61-.452H5.316l-.958-4.418H7.031a.61.61,0,0,0,.61-.452,11.192,11.192,0,0,1,3.808-5.73.653.653,0,0,0,.207-.61L10.4,7.793l4.229,3.112a.665.665,0,0,0,.58.073A15.134,15.134,0,0,1,20.7,9.971c7.4,0,13.425,5.2,13.425,11.594A11.453,11.453,0,0,1,27.529,31.537Z" fill="#c91429" stroke="#c9142a" stroke-width="0.5"/>
    </g>
  </g>
</svg>
