<svg xmlns="http://www.w3.org/2000/svg" xmlns:xlink="http://www.w3.org/1999/xlink" width="79" height="79" viewBox="0 0 79 79">
  <defs>
    <filter id="Path_904" x="0" y="0" width="79" height="79" filterUnits="userSpaceOnUse">
      <feOffset dy="7" input="SourceAlpha"/>
      <feGaussianBlur stdDeviation="4.5" result="blur"/>
      <feFlood flood-opacity="0.161"/>
      <feComposite operator="in" in2="blur"/>
      <feComposite in="SourceGraphic"/>
    </filter>
  </defs>
  <g id="Group_2058" data-name="Group 2058" transform="translate(-585.384 -2253.873)">
    <g id="Group_1356" data-name="Group 1356" transform="translate(598.884 2260.373)">
      <g transform="matrix(1, 0, 0, 1, -13.5, -6.5)" filter="url(#Path_904)">
        <g id="Path_904-2" data-name="Path 904" transform="translate(13.5 6.5)" fill="#c4a166">
          <path d="M 25.9998779296875 51.49975967407227 C 22.55719757080078 51.49975967407227 19.21775817871094 50.82561874389648 16.07432746887207 49.49605941772461 C 13.03787803649902 48.21174621582031 10.31076812744141 46.37303924560547 7.968738079071045 44.0310173034668 C 5.626718044281006 41.68898773193359 3.788007974624634 38.96187973022461 2.503697872161865 35.9254264831543 C 1.174137949943542 32.78199768066406 0.4999979436397552 29.44255828857422 0.4999979436397552 25.9998779296875 C 0.4999979436397552 22.55719757080078 1.174137949943542 19.21775817871094 2.503697872161865 16.07432746887207 C 3.788007974624634 13.03787803649902 5.626718044281006 10.31076812744141 7.968738079071045 7.968738079071045 C 10.31076812744141 5.626718044281006 13.03787803649902 3.788007974624634 16.07432746887207 2.503697872161865 C 19.21775817871094 1.174137949943542 22.55719757080078 0.4999979436397552 25.9998779296875 0.4999979436397552 C 29.44255828857422 0.4999979436397552 32.78199768066406 1.174137949943542 35.9254264831543 2.503697872161865 C 38.96187973022461 3.788007974624634 41.68898773193359 5.626718044281006 44.0310173034668 7.968738079071045 C 46.37303924560547 10.31076812744141 48.21174621582031 13.03787803649902 49.49605941772461 16.07432746887207 C 50.82561874389648 19.21775817871094 51.49975967407227 22.55719757080078 51.49975967407227 25.9998779296875 C 51.49975967407227 29.44255828857422 50.82561874389648 32.78199768066406 49.49605941772461 35.9254264831543 C 48.21174621582031 38.96187973022461 46.37303924560547 41.68898773193359 44.0310173034668 44.0310173034668 C 41.68898773193359 46.37303924560547 38.96187973022461 48.21174621582031 35.9254264831543 49.49605941772461 C 32.78199768066406 50.82561874389648 29.44255828857422 51.49975967407227 25.9998779296875 51.49975967407227 Z" stroke="none"/>
          <path d="M 25.9998779296875 0.9999961853027344 C 22.62447738647461 0.9999961853027344 19.35056686401367 1.660846710205078 16.26909637451172 2.964199066162109 C 13.29225921630859 4.223297119140625 10.61855697631836 6.026027679443359 8.322288513183594 8.322288513183594 C 6.026027679443359 10.61855697631836 4.223297119140625 13.29225921630859 2.964199066162109 16.26909637451172 C 1.660846710205078 19.35056686401367 0.9999961853027344 22.62447738647461 0.9999961853027344 25.9998779296875 C 0.9999961853027344 29.37527847290039 1.660846710205078 32.64918518066406 2.964199066162109 35.73064804077148 C 4.223297119140625 38.70749664306641 6.026027679443359 41.38118743896484 8.322288513183594 43.67745971679688 C 10.61855697631836 45.97372817993164 13.29225921630859 47.77644729614258 16.26909637451172 49.03555679321289 C 19.35056686401367 50.33890914916992 22.62447738647461 50.99975967407227 25.9998779296875 50.99975967407227 C 29.37527847290039 50.99975967407227 32.64918518066406 50.33890914916992 35.73064804077148 49.03555679321289 C 38.70749664306641 47.77644729614258 41.38118743896484 45.97372817993164 43.67745971679688 43.67745971679688 C 45.97372817993164 41.38118743896484 47.77644729614258 38.70749664306641 49.03555679321289 35.73064804077148 C 50.33890914916992 32.64918518066406 50.99975967407227 29.37527847290039 50.99975967407227 25.9998779296875 C 50.99975967407227 22.62447738647461 50.33890914916992 19.35056686401367 49.03555679321289 16.26909637451172 C 47.77644729614258 13.29225921630859 45.97372817993164 10.61855697631836 43.67745971679688 8.322288513183594 C 41.38118743896484 6.026027679443359 38.70749664306641 4.223297119140625 35.73064804077148 2.964199066162109 C 32.64918518066406 1.660846710205078 29.37527847290039 0.9999961853027344 25.9998779296875 0.9999961853027344 M 25.9998779296875 -3.814697265625e-06 C 40.35920715332031 -3.814697265625e-06 51.99975967407227 11.64053726196289 51.99975967407227 25.9998779296875 C 51.99975967407227 40.35920715332031 40.35920715332031 51.99975967407227 25.9998779296875 51.99975967407227 C 11.64053726196289 51.99975967407227 -3.814697265625e-06 40.35920715332031 -3.814697265625e-06 25.9998779296875 C -3.814697265625e-06 11.64053726196289 11.64053726196289 -3.814697265625e-06 25.9998779296875 -3.814697265625e-06 Z" stroke="none" fill="#fff"/>
        </g>
      </g>
      <g id="Group_1685" data-name="Group 1685" transform="translate(12.708 14.915)">
        <path id="noun-salary-2279793" d="M94.092,0h-21.6A2.422,2.422,0,0,0,70,2.5V20.786a2.422,2.422,0,0,0,2.492,2.492h21.6a2.422,2.422,0,0,0,2.492-2.492V2.5A2.422,2.422,0,0,0,94.092,0Zm-22.431,2.5a.763.763,0,0,1,.831-.841h.678a2.49,2.49,0,0,1-1.509,1.509Zm0,14.266a2.49,2.49,0,0,1,1.509,1.509H72.5a.763.763,0,0,1-.841-.831Zm23.262,3.991a.763.763,0,0,1-.831.841H72.5a.763.763,0,0,1-.841-.831V19.8a2.67,2.67,0,0,0,.831.14h21.6a2.7,2.7,0,0,0,.831-.135Zm0-3.323a.763.763,0,0,1-.831.841h-.678a2.49,2.49,0,0,1,1.509-1.509Zm0-2.4a4.167,4.167,0,0,0-3.239,3.239H74.9a4.167,4.167,0,0,0-3.239-3.239V4.905A4.167,4.167,0,0,0,74.9,1.666H91.684a4.167,4.167,0,0,0,3.239,3.239Zm0-11.867a2.49,2.49,0,0,1-1.509-1.509h.668a.763.763,0,0,1,.841.831Z" transform="translate(-70 -0.004)" fill="#fff" stroke="#c4a166" stroke-width="0.2"/>
        <path id="Path_7491" data-name="Path 7491" d="M55.766,78.874h-2a3.021,3.021,0,0,0-1-1.89h3a.378.378,0,1,0,0-.756H48.123a.378.378,0,0,0,0,.756H50.77A2.273,2.273,0,0,1,53,78.874H48.123a.378.378,0,0,0,0,.756H53a2.273,2.273,0,0,1-2.234,1.89H48.123a.378.378,0,0,0-.266.646l5.293,5.293a.378.378,0,0,0,.535-.533l-4.646-4.651h1.733a3.024,3.024,0,0,0,3-2.647h2a.378.378,0,0,0,0-.756h-.006Z" transform="translate(-38.655 -71.31)" fill="#fff" stroke="#fff" stroke-width="0.2"/>
      </g>
    </g>
  </g>
</svg>
