<svg xmlns="http://www.w3.org/2000/svg" xmlns:xlink="http://www.w3.org/1999/xlink" width="84.411" height="127.517" viewBox="0 0 84.411 127.517">
  <defs>
    <clipPath id="clip-path">
      <rect id="Rectangle_1685" data-name="Rectangle 1685" width="84.411" height="127.517" fill="none" stroke="#fffaef" stroke-width="1.5"/>
    </clipPath>
  </defs>
  <g id="Group_1770" data-name="Group 1770" transform="translate(-1155 -1156)">
    <path id="Path_7862" data-name="Path 7862" d="M2170.033,1050.99v78.921l37.846,11.6v-80.281Z" transform="translate(-1012.698 139.463)" fill="#ab1b2d" stroke="#fffaef" stroke-width="1.5"/>
    <g id="Group_1769" data-name="Group 1769" transform="translate(1155 1156)">
      <g id="Group_1768" data-name="Group 1768" clip-path="url(#clip-path)">
        <path id="Path_7858" data-name="Path 7858" d="M17.414,119.024c.3.1.6.208.9.3q11.014,3.291,22.029,6.579c2.06.616,2.338,1,2.338,3.181q0,32.325,0,64.649c0,.374.028.75-.006,1.12-.061.667.137.969.885.958,2.74-.038,5.481-.033,8.221,0,.659.008.91-.21.84-.855a8.1,8.1,0,0,1-.005-.871q0-8.346.006-16.691a2.182,2.182,0,0,1,1.724-2.407,2.049,2.049,0,0,1,2.341,1.231,3.1,3.1,0,0,1,.168,1.469q.006,9.778,0,19.557c0,2.124-.688,2.791-2.865,2.793-3.446,0-6.893.021-10.339-.014-.755-.008-1,.207-.988.978.044,2.657.029,5.315.012,7.972-.013,2.091-1.147,2.935-3.163,2.333q-18.693-5.584-37.379-11.191C.355,199.577,0,199.092,0,197.279q0-39.985,0-79.97c0-2.078.664-2.732,2.767-2.732q25.66,0,51.321,0c2.154,0,2.77.636,2.771,2.846q0,10.09,0,20.179a7.822,7.822,0,0,1-.024,1,2.092,2.092,0,0,1-4.034.517,3.821,3.821,0,0,1-.181-1.595c0-5.854-.024-11.709.021-17.563.007-.934-.235-1.167-1.166-1.164-11.086.034-22.173.022-33.259.022h-.741ZM4.241,121q0,36.982-.024,73.965a1.518,1.518,0,0,0,1.306,1.777q15.847,4.676,31.656,9.479c1,.3,1.292.252,1.29-.922q-.052-37.169-.008-74.338a1.313,1.313,0,0,0-1.123-1.543c-10.763-3.173-21.51-6.4-32.261-9.613-.232-.069-.467-.125-.836-.222Z" transform="translate(0 -83.975)" fill="#ab1b2d" stroke="#fffaef" stroke-width="1.5"/>
        <path id="Path_7859" data-name="Path 7859" d="M202.651,241.171q-3.216,3.205-6.434,6.408a2.6,2.6,0,0,0-.988,1.926,1.98,1.98,0,0,0,1.036,1.853,1.937,1.937,0,0,0,2.121-.024,7.817,7.817,0,0,0,1.141-.954q4.943-4.917,9.868-9.852c1.308-1.309,1.3-2.429-.011-3.741q-4.888-4.884-9.78-9.765a9.075,9.075,0,0,0-.82-.762,2.168,2.168,0,0,0-3.025.1,2.2,2.2,0,0,0,.133,3.041c2.086,2.139,4.217,4.234,6.328,6.349.144.144.267.309.438.51-.422.362-.892.2-1.309.2q-13.073.017-26.146.009c-.291,0-.582-.011-.871,0a2.318,2.318,0,0,0-2.471,2.129c-.042,1.169.809,2.032,2.235,2.223a9.346,9.346,0,0,0,1.243.031q12.949,0,25.9,0h1.321l.093.312" transform="translate(-125.962 -165.421)" fill="#ab1b2d" stroke="#fffaef" stroke-width="1.5"/>
      </g>
    </g>
  </g>
</svg>
