<svg id="Group_2063" data-name="Group 2063" xmlns="http://www.w3.org/2000/svg" width="55.085" height="55.085" viewBox="0 0 55.085 55.085">
  <circle id="Ellipse_119" data-name="Ellipse 119" cx="27.542" cy="27.542" r="27.542" transform="translate(0)" fill="#f7a600"/>
  <path id="_156211118016344783204478" data-name="156211118016344783204478" d="M31.74,18.831a6.85,6.85,0,0,0-2.124-1.443,4.684,4.684,0,1,0-6.146-7.007,5.764,5.764,0,0,0-11.191,0,4.684,4.684,0,1,0-6.144,7.008A6.864,6.864,0,0,0,2,23.678v3.247a3.612,3.612,0,0,0,3.608,3.608h5.07a3.591,3.591,0,0,0,2.867,1.443H22.2a3.591,3.591,0,0,0,2.867-1.443h5.07a3.612,3.612,0,0,0,3.608-3.608V23.678a6.808,6.808,0,0,0-2.008-4.847Zm-4.847-8.5a3.251,3.251,0,1,1-2.295.952,3.247,3.247,0,0,1,2.295-.952Zm-3.863,7.687a7.924,7.924,0,0,0-2.157-1.322A5.816,5.816,0,0,0,22.5,15.208a4.7,4.7,0,0,0,1.674,2.184,6.925,6.925,0,0,0-1.146.625ZM17.874,7.443a4.334,4.334,0,1,1-3.06,1.269,4.329,4.329,0,0,1,3.06-1.269ZM12.718,18.017a6.925,6.925,0,0,0-1.146-.625,4.7,4.7,0,0,0,1.674-2.184,5.816,5.816,0,0,0,1.629,1.487,7.924,7.924,0,0,0-2.157,1.322Zm-7.11-4.44a3.251,3.251,0,1,1,.952,2.295A3.247,3.247,0,0,1,5.608,13.576Zm0,15.513a2.165,2.165,0,0,1-2.165-2.165V23.678a5.4,5.4,0,0,1,8.247-4.6,7.892,7.892,0,0,0-1.753,4.964v4.329a3.611,3.611,0,0,0,.072.722Zm18.76-.722A2.165,2.165,0,0,1,22.2,30.533H13.545a2.165,2.165,0,0,1-2.165-2.165V24.039a6.494,6.494,0,1,1,12.988,0Zm7.937-1.443a2.165,2.165,0,0,1-2.165,2.165h-4.4a3.611,3.611,0,0,0,.072-.722V24.039a7.892,7.892,0,0,0-1.753-4.964,5.407,5.407,0,0,1,8.247,4.6Z" transform="translate(9.668 8.555)" fill="#fff" stroke="#fff" stroke-width="0.5"/>
</svg>
