<svg id="Group_1638" data-name="Group 1638" xmlns="http://www.w3.org/2000/svg" xmlns:xlink="http://www.w3.org/1999/xlink" width="121.411" height="205.638" viewBox="0 0 121.411 205.638">
  <defs>
    <clipPath id="clip-path">
      <rect id="Rectangle_1260" data-name="Rectangle 1260" width="121.411" height="205.638" fill="none"/>
    </clipPath>
  </defs>
  <g id="Group_1637" data-name="Group 1637" clip-path="url(#clip-path)">
    <path id="Path_7100" data-name="Path 7100" d="M82.375,220.21s1.631,3.6.406,6.9-7.885,3.5-8.726,2.283.624-6.535.624-6.535Z" transform="translate(-22.201 -40.044)" fill="#fff"/>
    <path id="Path_7101" data-name="Path 7101" d="M76.586,230.194a10.465,10.465,0,0,0,1.3-.083c2.553-.321,4.421-1.437,5-2.985a10.229,10.229,0,0,0-.41-7.012.151.151,0,0,0-.191-.082l-7.7,2.643a.154.154,0,0,0-.1.1c-.061.22-1.475,5.4-.6,6.664.329.475,1.384.752,2.7.752m5.659-9.825a9.97,9.97,0,0,1,.347,6.649c-.534,1.439-2.308,2.481-4.744,2.787-1.9.238-3.4-.094-3.71-.538-.645-.932.214-4.808.626-6.328Z" transform="translate(-22.157 -40.009)"/>
    <path id="Path_7102" data-name="Path 7102" d="M78.308,222.205c-.4,0-1.39-1.124-2.129-2.036.038-1.745.092-3.2.092-3.2s-.582-1.059-.865-1.743a11.922,11.922,0,0,1,0-3.22l-.126-1.527,6.2-1.164s1.681,4.983,2.63,7.846c-2.158,1-5.8,5.047-5.8,5.047" transform="translate(-24.289 -38.062)" fill="#fff"/>
    <path id="Path_7103" data-name="Path 7103" d="M78.274,222.326a.153.153,0,0,0,.115-.052c.036-.04,3.647-4.033,5.751-5.011a.154.154,0,0,0,.082-.188c-.949-2.863-2.63-7.846-2.63-7.846a.152.152,0,0,0-.174-.1l-6.2,1.164a.154.154,0,0,0-.125.164l.126,1.527a11.514,11.514,0,0,0,.011,3.267c.257.62.745,1.524.853,1.721-.009.251-.056,1.59-.091,3.161a.155.155,0,0,0,.034.1c1.69,2.087,2.1,2.092,2.247,2.094Zm5.612-5.282c-2.043,1.028-5.186,4.431-5.668,4.961-.162-.058-.652-.367-1.918-1.923.038-1.718.091-3.143.091-3.143a.143.143,0,0,0-.019-.079c-.006-.011-.581-1.06-.857-1.729a11.153,11.153,0,0,1,.01-3.144l-.114-1.418,5.932-1.114c.263.781,1.68,4.984,2.544,7.589" transform="translate(-24.254 -38.028)"/>
    <path id="Path_7104" data-name="Path 7104" d="M74.482,225.649c.252-.758,4.157-4.331,5.475-5.439.062.191.116.358.16.493.591,1.842.088,5.82-1.194,7.178-1.087,1.151-3.722.353-4.5.083a6.838,6.838,0,0,1,.062-2.315" transform="translate(-19.783 -40.044)" fill="#fff"/>
    <path id="Path_7105" data-name="Path 7105" d="M77.089,228.6A2.564,2.564,0,0,0,79,227.953c1.326-1.4,1.833-5.449,1.229-7.332l-.16-.493a.153.153,0,0,0-.1-.1.154.154,0,0,0-.142.03c-1.193,1-5.245,4.68-5.522,5.508a6.827,6.827,0,0,0-.07,2.379.153.153,0,0,0,.1.13,9.152,9.152,0,0,0,2.754.527m2.759-8.159.088.273c.574,1.788.07,5.724-1.159,7.026-.983,1.041-3.39.362-4.247.074a6.1,6.1,0,0,1,.065-2.153c.217-.649,3.692-3.885,5.253-5.221" transform="translate(-19.751 -40.009)"/>
    <path id="Path_7106" data-name="Path 7106" d="M84.536,228.912c-.628.25-1.824.61-2.037-.169a25.009,25.009,0,0,1-.124-3.8,13.178,13.178,0,0,0,2.161,1.565Z" transform="translate(-30.516 -40.905)" fill="#fff"/>
    <path id="Path_7107" data-name="Path 7107" d="M83.224,229.336a3.884,3.884,0,0,0,1.335-.315.154.154,0,0,0,.1-.143v-2.4a.153.153,0,0,0-.079-.134,13.125,13.125,0,0,1-2.132-1.544.154.154,0,0,0-.259.11,23.047,23.047,0,0,0,.13,3.84.731.731,0,0,0,.387.483,1.168,1.168,0,0,0,.52.1m1.124-.564a2.178,2.178,0,0,1-1.506.183.428.428,0,0,1-.228-.288,19.246,19.246,0,0,1-.122-3.415,13.749,13.749,0,0,0,1.856,1.312Z" transform="translate(-30.482 -40.87)"/>
    <path id="Path_7108" data-name="Path 7108" d="M77.009,223.949s3.643-4.045,5.8-5.047c.135.407.254.769.353,1.07-1.318,1.108-5.223,4.682-5.475,5.439a6.838,6.838,0,0,0-.062,2.315c-.141-.048-.229-.083-.229-.083s-.156.078-.388.17v-2.4a13.155,13.155,0,0,1-2.161-1.566c.007-.646.018-1.307.032-1.932.739.912,1.726,2.031,2.129,2.036" transform="translate(-22.989 -39.806)" fill="#fff"/>
    <path id="Path_7109" data-name="Path 7109" d="M76.975,227.933a.154.154,0,0,0,.057-.011c.151-.061.27-.115.338-.146l.171.061a.154.154,0,0,0,.2-.161,6.294,6.294,0,0,1,.056-2.25c.224-.674,3.97-4.145,5.428-5.37a.154.154,0,0,0,.047-.166l-.353-1.071a.155.155,0,0,0-.211-.091c-2.038.947-5.3,4.48-5.793,5.02-.164-.059-.662-.373-1.953-1.967a.155.155,0,0,0-.274.093c-.014.626-.025,1.289-.032,1.935a.158.158,0,0,0,.049.115,12.958,12.958,0,0,0,2.112,1.541v2.314a.157.157,0,0,0,.067.128.158.158,0,0,0,.087.026m.388-.478a.158.158,0,0,0-.069.016s-.063.031-.164.076v-2.171a.155.155,0,0,0-.079-.134,13.305,13.305,0,0,1-2.082-1.5c0-.483.013-.972.022-1.447,1.469,1.765,1.838,1.769,1.982,1.771h0a.152.152,0,0,0,.115-.051c.035-.039,3.474-3.842,5.6-4.934.1.3.188.567.265.8-1.283,1.091-5.172,4.63-5.442,5.441a6.213,6.213,0,0,0-.092,2.136.172.172,0,0,0-.053-.009" transform="translate(-22.955 -39.771)"/>
    <path id="Path_7110" data-name="Path 7110" d="M84.557,211.131A38.831,38.831,0,0,1,77.78,213.1l-.034-2.62,6.2-1.164Z" transform="translate(-26.754 -38.062)"/>
    <path id="Path_7111" data-name="Path 7111" d="M77.746,213.215l.018,0a38.28,38.28,0,0,0,6.815-1.973.156.156,0,0,0,.091-.193l-.613-1.82a.155.155,0,0,0-.174-.1l-6.2,1.164a.154.154,0,0,0-.126.154l.034,2.62a.153.153,0,0,0,.154.152M84.33,211a38.844,38.844,0,0,1-6.432,1.882l-.03-2.318,5.94-1.115Z" transform="translate(-26.721 -38.027)"/>
    <path id="Path_7112" data-name="Path 7112" d="M115.932,227.013a24.755,24.755,0,0,1,5.208,0s.854.914.369,1.69-2.936,1.163-4.233,2.231-2.072,3.2-4.012,3.977-6.583,1.261-7.7.388.042-2.522.042-2.522" transform="translate(-86.211 -41.253)" fill="#fff"/>
    <path id="Path_7113" data-name="Path 7113" d="M107.975,235.878a16.669,16.669,0,0,0,5.306-.857,6.678,6.678,0,0,0,2.745-2.5,8.57,8.57,0,0,1,1.308-1.5,8.979,8.979,0,0,1,2.35-1.189,4.227,4.227,0,0,0,1.916-1.079c.542-.867-.349-1.837-.388-1.878a.151.151,0,0,0-.1-.047,24.48,24.48,0,0,0-5.256,0,.154.154,0,0,0,.065.3,23.917,23.917,0,0,1,5.1,0c.149.178.677.881.315,1.46a4.305,4.305,0,0,1-1.767.956,9.2,9.2,0,0,0-2.434,1.237,8.88,8.88,0,0,0-1.359,1.558,6.43,6.43,0,0,1-2.612,2.4c-1.866.746-6.475,1.248-7.553.41-.992-.772.062-2.3.073-2.313a.154.154,0,0,0-.251-.178c-.432.612-.99,1.971-.011,2.734a4.72,4.72,0,0,0,2.551.491" transform="translate(-86.171 -41.218)"/>
    <path id="Path_7114" data-name="Path 7114" d="M106.448,228.843l-1.222-1.332c.18-.112.361-.221.542-.317,1.649-.873,2.134-4.365,2.913-6.111s0-5.192,0-5.192L108.1,214l9.021-.776a17.835,17.835,0,0,0-.1,3.687c.194,1.455,1.357,4.365,1.163,6.4s-1.746,2.328-3.007,2.716a4.022,4.022,0,0,0-1.226.683,9.571,9.571,0,0,0-7.5,2.13" transform="translate(-82.888 -38.773)" fill="#fff"/>
    <path id="Path_7115" data-name="Path 7115" d="M106.413,228.961a.154.154,0,0,0,.1-.034,9.458,9.458,0,0,1,7.385-2.1.154.154,0,0,0,.117-.03,3.864,3.864,0,0,1,1.177-.659l.3-.09c1.17-.346,2.627-.777,2.816-2.759a14.314,14.314,0,0,0-.726-4.558,16.76,16.76,0,0,1-.439-1.879,17.816,17.816,0,0,1,.1-3.646.154.154,0,0,0-.041-.127.141.141,0,0,0-.125-.047l-9.022.776a.151.151,0,0,0-.114.068.153.153,0,0,0-.02.132l.585,1.889c0,.022.755,3.4.007,5.083a17.919,17.919,0,0,0-.659,1.917c-.506,1.658-1.081,3.537-2.184,4.121-.185.1-.37.209-.552.323a.155.155,0,0,0-.032.235l1.222,1.331a.153.153,0,0,0,.114.05m6.151-2.537a9.854,9.854,0,0,0-6.134,2.174l-1-1.089c.124-.075.25-.148.376-.214,1.217-.644,1.811-2.588,2.335-4.3a17.437,17.437,0,0,1,.646-1.882c.79-1.772.041-5.145.01-5.288l-.533-1.719,8.643-.743a11.043,11.043,0,0,0,.373,5.455,14.147,14.147,0,0,1,.716,4.448c-.169,1.775-1.4,2.139-2.6,2.493l-.3.09a4.023,4.023,0,0,0-1.223.67,9.259,9.259,0,0,0-1.312-.092" transform="translate(-82.853 -38.739)"/>
    <path id="Path_7116" data-name="Path 7116" d="M119.338,230.849a11.505,11.505,0,0,0-.976,1.2c-.679.97-2.328,3.1-3.977,3.1-.951,0-1.9.032-2.737.04a11.694,11.694,0,0,1,7.69-4.343" transform="translate(-89.272 -41.978)" fill="#fff"/>
    <path id="Path_7117" data-name="Path 7117" d="M111.614,235.311h0c.328,0,.673-.01,1.028-.017.552-.011,1.129-.023,1.707-.023,1.64,0,3.275-1.987,4.1-3.17a11.256,11.256,0,0,1,.962-1.182.154.154,0,0,0,.024-.176.158.158,0,0,0-.157-.082,11.821,11.821,0,0,0-7.794,4.4.154.154,0,0,0,.124.245m7.286-4.277c-.255.3-.5.6-.7.889-.794,1.136-2.351,3.039-3.851,3.039-.581,0-1.159.011-1.713.023l-.709.014a11.46,11.46,0,0,1,6.972-3.965" transform="translate(-89.238 -41.944)"/>
    <path id="Path_7118" data-name="Path 7118" d="M121.8,233.608a7.367,7.367,0,0,1,2.082-2.18,6.5,6.5,0,0,1,.043,3.866c-.277-.006-.538-.016-.767-.037a1.41,1.41,0,0,1-1.358-1.649" transform="translate(-102.415 -42.083)" fill="#fff"/>
    <path id="Path_7119" data-name="Path 7119" d="M123.892,235.414a.155.155,0,0,0,.149-.113,6.594,6.594,0,0,0-.047-3.96.153.153,0,0,0-.238-.069,7.4,7.4,0,0,0-2.135,2.252,1.32,1.32,0,0,0,.2,1.1,1.687,1.687,0,0,0,1.294.753c.2.019.452.03.777.038Zm-.119-3.765a6.475,6.475,0,0,1,0,3.454c-.259-.007-.464-.018-.635-.034a1.381,1.381,0,0,1-1.064-.614,1.009,1.009,0,0,1-.161-.833,6.888,6.888,0,0,1,1.86-1.973" transform="translate(-102.378 -42.049)"/>
    <path id="Path_7120" data-name="Path 7120" d="M115.437,216.429l-8.019,1.249L106.557,214l9.021-.776Z" transform="translate(-81.348 -38.773)"/>
    <path id="Path_7121" data-name="Path 7121" d="M107.383,217.8l.023,0,8.02-1.249a.154.154,0,0,0,.13-.146l.142-3.2a.157.157,0,0,0-.047-.118.146.146,0,0,0-.12-.042l-9.022.776a.153.153,0,0,0-.111.063.155.155,0,0,0-.025.125l.861,3.678a.155.155,0,0,0,.151.119m7.871-1.536-7.754,1.208-.787-3.365,8.669-.746Z" transform="translate(-81.312 -38.739)"/>
    <path id="Path_7122" data-name="Path 7122" d="M110.426,231.093c.279-.214.569-.42.867-.607l1.222,1.331a9.572,9.572,0,0,1,7.5-2.129,8.338,8.338,0,0,0-1,.931,11.692,11.692,0,0,0-7.69,4.343c-.3,0-.592,0-.862,0a6.494,6.494,0,0,0-.043-3.866" transform="translate(-88.954 -41.749)" fill="#fff"/>
    <path id="Path_7123" data-name="Path 7123" d="M110.947,235.084l.35,0a.156.156,0,0,0,.123-.063,11.5,11.5,0,0,1,7.588-4.281.157.157,0,0,0,.092-.048,8.107,8.107,0,0,1,.979-.913.154.154,0,0,0-.07-.275,9.741,9.741,0,0,0-7.511,2.072l-1.124-1.226a.154.154,0,0,0-.2-.027c-.282.177-.571.379-.88.616a.154.154,0,0,0-.05.175,6.408,6.408,0,0,1,.038,3.772.154.154,0,0,0,.146.195q.247,0,.515,0m.271-.309c-.2,0-.4,0-.584,0a6.546,6.546,0,0,0-.059-3.66c.228-.173.447-.326.658-.463l1.134,1.236a.153.153,0,0,0,.211.016,9.48,9.48,0,0,1,7.035-2.143,9.222,9.222,0,0,0-.7.679,11.827,11.827,0,0,0-7.693,4.335" transform="translate(-88.921 -41.715)"/>
    <path id="Path_7124" data-name="Path 7124" d="M74.652,143.583c.22.022,3.584,19.822,3.682,23.605s3.492,24.154,4.656,27.259c0,0,.291,8.051,1.067,8.439s11.447-.485,13.968-2.231-1.746-17.17-2.425-19.11-1.455-8.924-1.163-10.477,1.552-7.276,1.552-7.276,4.365,15.327,5.723,17.752,3.783,7.081,4.462,9.7,3.492,6.014,3.492,6.014.194,2.425,1.552,2.522,8-1.552,8.268-2.522a17.123,17.123,0,0,0,0-3.783s2.015-1.746,1.433-3.1-4.947-8.731-4.947-10.864-2.91-10.477-2.91-10.477l-1.94-5.141s1.358-1.067.582-2.328a8.44,8.44,0,0,1-.582-4.85c.194-1.261,1.358-14.745,1.358-14.745H76.1Z" transform="translate(-60.69 -25.816)" fill="#b12b30"/>
    <path id="Path_7125" data-name="Path 7125" d="M85.108,203.093c3.012,0,10.792-.835,12.972-2.345,2.682-1.856-1.868-17.861-2.367-19.287-.663-1.892-1.442-8.888-1.158-10.4.232-1.235,1.091-5.167,1.42-6.675.824,2.869,4.353,15.027,5.569,17.2a53.459,53.459,0,0,1,4.447,9.664c.65,2.505,3.17,5.642,3.494,6.037.037.366.313,2.516,1.689,2.614,1.169.1,8.105-1.474,8.427-2.634a16.11,16.11,0,0,0,.012-3.761c.344-.315,1.981-1.9,1.414-3.228-.155-.364-.574-1.144-1.1-2.131-1.433-2.67-3.831-7.139-3.831-8.672,0-2.135-2.8-10.185-2.918-10.526l-1.9-5.046a1.949,1.949,0,0,0,.532-2.454,8.265,8.265,0,0,1-.561-4.746c.193-1.252,1.312-14.2,1.36-14.755a.158.158,0,0,0-.04-.117.153.153,0,0,0-.114-.05H76.069a.155.155,0,0,0-.114.051l-1.451,1.616a.151.151,0,0,0-.006.2c.371.907,3.553,19.829,3.647,23.513.092,3.579,3.464,24.047,4.658,27.285.07,1.938.358,8.15,1.15,8.547a3.744,3.744,0,0,0,1.154.1m10.847-39.487h0a.155.155,0,0,0-.146.121c-.011.057-1.265,5.743-1.553,7.28-.3,1.579.48,8.583,1.17,10.556.829,2.369,4.857,17.288,2.483,18.932-2.46,1.7-13.032,2.608-13.813,2.22-.434-.217-.84-4.394-.981-8.308a.164.164,0,0,0-.01-.048c-1.181-3.147-4.555-23.631-4.646-27.208-.042-1.611-.713-6.558-1.8-13.234-1.246-7.678-1.692-9.747-1.885-10.309l1.365-1.52h36.141c-.136,1.555-1.164,13.4-1.343,14.566-.2,1.279-.2,3.652.6,4.955.695,1.127-.5,2.086-.547,2.126a.154.154,0,0,0-.049.175l1.941,5.141c.028.079,2.9,8.339,2.9,10.422,0,1.611,2.326,5.948,3.867,8.818.526.981.942,1.756,1.094,2.108.53,1.24-1.374,2.91-1.393,2.927a.155.155,0,0,0-.052.131,17.03,17.03,0,0,1,0,3.728c-.216.785-6.526,2.522-8.109,2.409-1.212-.087-1.407-2.358-1.409-2.381a.15.15,0,0,0-.034-.086c-.028-.034-2.8-3.4-3.462-5.955-.8-3.093-3.87-8.654-4.477-9.738-1.333-2.381-5.665-17.565-5.709-17.718a.154.154,0,0,0-.148-.112" transform="translate(-60.658 -25.782)"/>
    <path id="Path_7126" data-name="Path 7126" d="M112.688,165.282a.134.134,0,0,0,.059-.012.154.154,0,0,0,.084-.2c-.247-.592-6.047-14.5-7.514-15.726a.154.154,0,1,0-.2.237c1.41,1.174,7.366,15.462,7.426,15.606a.155.155,0,0,0,.142.095" transform="translate(-77.39 -27.15)"/>
    <path id="Path_7127" data-name="Path 7127" d="M74.364,107.557l4.268,16.491L81.787,105.3Z" transform="translate(-21.217 -19.148)" fill="#fff"/>
    <path id="Path_7128" data-name="Path 7128" d="M78.6,124.168H78.6a.153.153,0,0,0,.145-.128L81.9,105.294a.155.155,0,0,0-.2-.173l-7.423,2.255a.155.155,0,0,0-.1.187l4.268,16.491a.155.155,0,0,0,.149.115m2.962-18.68-2.994,17.788-4.051-15.648Z" transform="translate(-21.182 -19.114)"/>
    <path id="Path_7129" data-name="Path 7129" d="M82.824,46.318s-4.365,1.455-6.4,3.2S72.41,74.06,72.41,74.06l3.236,13.291S74.773,99.863,73.9,101.9s-1.067,7.179-.776,8.827.97,3.978.97,3.978-1.358,9.8-.388,10.67,6.208.68,9.118.874a152.662,152.662,0,0,0,17.655,0c4.656-.486,13.386-.874,13.386-.874s.679-7.081.97-8.342c0,0,3.008-6.985,3.1-9.7s-1.552-9.991-1.552-9.991,3.061,0,4.441-1.455,3.029-11.5,3.029-11.5-2.672-23.228-3.373-27.2a14.388,14.388,0,0,0-7.3-9.8,40.737,40.737,0,0,0-8.724-2.531Z" transform="translate(-61.689 -8.156)" fill="#fff"/>
    <path id="Path_7130" data-name="Path 7130" d="M93.013,126.635c2.792,0,5.543-.069,7.448-.267,4.6-.479,13.29-.869,13.378-.873a.154.154,0,0,0,.146-.139c.007-.07.682-7.086.966-8.322.115-.26,3.012-7.016,3.109-9.73.089-2.5-1.254-8.675-1.515-9.847.705-.026,3.138-.209,4.362-1.5,1.4-1.473,3-11.169,3.069-11.581a.184.184,0,0,0,0-.043c-.026-.232-2.68-23.277-3.375-27.214a14.436,14.436,0,0,0-7.383-9.91,41.192,41.192,0,0,0-8.763-2.544L82.78,46.129a.2.2,0,0,0-.038.008c-.18.06-4.417,1.484-6.454,3.23C74.226,51.134,72.3,73.08,72.223,74.014a.165.165,0,0,0,0,.049l3.231,13.266c-.044.616-.9,12.528-1.732,14.476-.9,2.094-1.078,7.263-.787,8.915.271,1.534.883,3.677.965,3.962-.16,1.154-1.325,9.881-.334,10.774.745.671,3.63.742,6.42.81,1.025.025,1.993.049,2.792.1,1.573.1,5.951.267,10.233.267m20.678-1.442c-1.12.052-8.968.421-13.262.868a153.16,153.16,0,0,1-17.628,0c-.806-.054-1.776-.078-2.8-.1-2.477-.061-5.561-.137-6.221-.731s-.083-6.778.438-10.535a.144.144,0,0,0,0-.065c-.007-.023-.68-2.339-.966-3.962-.279-1.58-.095-6.73.766-8.739.874-2.038,1.723-14.089,1.758-14.6a.156.156,0,0,0,0-.047l-3.23-13.265c.682-7.87,2.384-23.065,3.957-24.413,1.923-1.649,6.021-3.06,6.332-3.165l21.619-1.463a41.16,41.16,0,0,1,8.647,2.517,14.316,14.316,0,0,1,7.212,9.685c.683,3.875,3.274,26.351,3.369,27.174-.086.516-1.683,10.025-2.985,11.4-1.317,1.389-4.3,1.407-4.329,1.407a.155.155,0,0,0-.151.187c.017.073,1.644,7.287,1.549,9.952s-3.062,9.576-3.092,9.645c-.279,1.2-.871,7.247-.969,8.255" transform="translate(-61.654 -8.122)"/>
    <path id="Path_7131" data-name="Path 7131" d="M128.809,79.421a.154.154,0,0,0,.152-.132C129.049,78.7,131.1,64.8,131,63.445s-1.588-11.79-1.652-12.234a.154.154,0,1,0-.3.043c.015.109,1.553,10.875,1.649,12.213s-2.014,15.633-2.036,15.777a.154.154,0,0,0,.13.175l.022,0" transform="translate(-114.852 -9.288)"/>
    <path id="Path_7132" data-name="Path 7132" d="M88.806,101.083a13.137,13.137,0,0,0,2.731-.39.154.154,0,0,0-.075-.3c-1.3.326-3.494.637-3.8.075a10.456,10.456,0,0,1-.563-3.133.158.158,0,0,0-.019-.067c-.043-.08-4.33-8.065-3.476-13.191.426-2.557-.268-6.794-.937-10.891-.724-4.424-1.407-8.6-.72-10.52a.154.154,0,0,0-.092-.2.157.157,0,0,0-.2.093c-.715,1.992-.025,6.209.7,10.674.667,4.073,1.356,8.284.938,10.791-.853,5.118,3.153,12.725,3.492,13.357a10.182,10.182,0,0,0,.6,3.234c.195.35.763.465,1.419.465" transform="translate(-36.8 -11.358)"/>
    <path id="Path_7133" data-name="Path 7133" d="M75.946,104.945a23.8,23.8,0,0,0,8.873-2.192.154.154,0,1,0-.118-.285c-7.187,2.985-10.292,2.01-10.322,2a.154.154,0,1,0-.1.292,5.709,5.709,0,0,0,1.665.184" transform="translate(-24.19 -18.631)"/>
    <path id="Path_7134" data-name="Path 7134" d="M103.272,133.481c5.4,0,12.257-.227,20.962-.8a.153.153,0,0,0,.143-.164.142.142,0,0,0-.164-.143c-32.3,2.135-38.978-.5-40.354-1.738-.291-.263-.3-.434-.3-.436a.157.157,0,0,0-.153-.151h0a.151.151,0,0,0-.154.142.875.875,0,0,0,.334.608c.96.945,4.762,2.685,19.689,2.685" transform="translate(-71.076 -23.648)"/>
    <path id="Path_7135" data-name="Path 7135" d="M106.6,36.49a12.809,12.809,0,0,0,8.343-6.693,10.711,10.711,0,0,0-.776-10.283,7.964,7.964,0,0,0-4.462-8.439c-5.626-3.007-12.708-2.328-15.52-.97a4.269,4.269,0,0,0-2.425,4.268,8.162,8.162,0,0,0-3.4,4.56c-.97,3.2,1.649,8.107,1.649,8.107Z" transform="translate(-66.651 -1.628)" fill="#fff"/>
    <path id="Path_7136" data-name="Path 7136" d="M106.583,36.611a.129.129,0,0,0,.031,0,13.069,13.069,0,0,0,8.451-6.778,10.934,10.934,0,0,0-.753-10.382,8.179,8.179,0,0,0-4.551-8.542C104.287,7.98,97.148,8.462,94.1,9.933a4.435,4.435,0,0,0-2.52,4.323,8.325,8.325,0,0,0-3.381,4.6c-.978,3.225,1.553,8.022,1.66,8.224a.151.151,0,0,0,.061.061l16.587,9.451a.155.155,0,0,0,.077.02M100.536,9.069a19.573,19.573,0,0,1,9.078,2.109A7.861,7.861,0,0,1,114,19.449a.152.152,0,0,0,.025.121,10.64,10.64,0,0,1,.762,10.127,12.738,12.738,0,0,1-8.179,6.6l-16.5-9.4c-.242-.467-2.514-5-1.618-7.952a8.091,8.091,0,0,1,3.323-4.47.156.156,0,0,0,.077-.155,4.08,4.08,0,0,1,2.34-4.109,15.462,15.462,0,0,1,6.3-1.142" transform="translate(-66.629 -1.594)"/>
    <path id="Path_7137" data-name="Path 7137" d="M110.473,16.409s-6.693,1.067-9.8.776c0,0-2.716,7.137-3.492,10.5-1.112,4.821.16,8.106,1.746,9.284a2.883,2.883,0,0,0,3.007.484l-.484,1.164s-5.53,2.231-6.014,2.522S93.5,53.27,101.548,53.368s10.283-1.358,12.514-4.754,4.365-7.566,3.686-8.439-3.2-1.067-3.492-2.328a23.845,23.845,0,0,1,0-4.656s4.428-.97,3.62-4.268-4.687.485-4.687.485-1.358-.291-1.164-2.425.485-8.149-1.552-10.574" transform="translate(-74.302 -2.984)" fill="#fff"/>
    <path id="Path_7138" data-name="Path 7138" d="M102.256,53.492c7.489,0,9.68-1.456,11.9-4.827,1.644-2.5,4.53-7.525,3.679-8.618a3.922,3.922,0,0,0-1.592-.918c-.846-.343-1.721-.7-1.873-1.35a22.464,22.464,0,0,1,0-4.5,5.8,5.8,0,0,0,3.3-2.106,2.927,2.927,0,0,0,.33-2.323,1.724,1.724,0,0,0-1.116-1.411c-1.371-.392-3.368,1.389-3.764,1.759-.264-.095-1.123-.538-.969-2.238.169-1.861.556-8.134-1.588-10.686a.159.159,0,0,0-.142-.053c-.067.011-6.707,1.061-9.759.775a.159.159,0,0,0-.158.1c-.027.071-2.729,7.185-3.5,10.524-1.1,4.78.112,8.187,1.8,9.443a3.167,3.167,0,0,0,2.82.632l-.323.775c-.631.255-5.508,2.228-5.976,2.509-.38.227-.879,4.03-.011,7.239.642,2.378,2.239,5.221,6.2,5.269.254,0,.5,0,.749,0m14.185-25.8a1.271,1.271,0,0,1,.346.046,1.444,1.444,0,0,1,.9,1.188,2.621,2.621,0,0,1-.291,2.085,5.743,5.743,0,0,1-3.212,2,.154.154,0,0,0-.12.137,23.5,23.5,0,0,0,0,4.7c.187.81,1.137,1.195,2.057,1.567a3.77,3.77,0,0,1,1.464.821c.528.677-1.095,4.306-3.693,8.26-2.221,3.381-4.431,4.777-12.383,4.684a5.59,5.59,0,0,1-5.335-3.46,14.145,14.145,0,0,1-.681-8.491c.358-.211,4.066-1.727,5.975-2.5a.159.159,0,0,0,.084-.083l.484-1.164a.154.154,0,0,0-.214-.2,2.72,2.72,0,0,1-2.842-.472c-1.612-1.2-2.758-4.482-1.689-9.127.713-3.093,3.1-9.464,3.445-10.375,2.932.239,8.841-.651,9.631-.774,2.058,2.572,1.58,9.1,1.462,10.394-.2,2.243,1.271,2.586,1.285,2.589a.159.159,0,0,0,.141-.04c.02-.02,1.856-1.793,3.183-1.793" transform="translate(-74.263 -2.95)"/>
    <path id="Path_7139" data-name="Path 7139" d="M115.212,34.764h0Z" transform="translate(-88.06 -6.322)" fill="#fff"/>
    <path id="Path_7140" data-name="Path 7140" d="M110.954,42.029l3.4-.485-3.881,1.649Z" transform="translate(-83.32 -7.554)"/>
    <path id="Path_7141" data-name="Path 7141" d="M110.435,43.313a.15.15,0,0,0,.06-.012l3.881-1.649a.154.154,0,0,0,.088-.182.16.16,0,0,0-.17-.111l-3.4.484a.154.154,0,0,0-.12.093l-.485,1.164a.154.154,0,0,0,.142.214m2.735-1.484-2.448,1.041.306-.735Z" transform="translate(-83.286 -7.52)"/>
    <path id="Path_7142" data-name="Path 7142" d="M99.12,32.138s-.582-1.94-2.522.582" transform="translate(-56.741 -5.714)"/>
    <path id="Path_7143" data-name="Path 7143" d="M96.563,32.84a.151.151,0,0,0,.122-.061c.856-1.112,1.392-1.28,1.689-1.225.4.074.563.588.565.593a.152.152,0,0,0,.191.1.154.154,0,0,0,.1-.192,1.187,1.187,0,0,0-.8-.808c-.559-.1-1.225.349-1.988,1.341a.154.154,0,0,0,.122.248" transform="translate(-56.706 -5.68)"/>
    <path id="Path_7144" data-name="Path 7144" d="M145.14,84.477s-2.425-4.462-4.56-4.656-3.977-.1-4.656.582a4.459,4.459,0,0,0-.873,2.135c-2.361-.254-3.07-.038-3.395.194-.679.485-.195,2.231.679,2.328,0,0,.582,2.426,1.94,2.522a2.2,2.2,0,0,0,2.425,2.328s-.417,1.358,1.537,1.163a7.176,7.176,0,0,0,3.41-1.358s2.522,3.978,3.492,3.978Z" transform="translate(-131.183 -14.499)" fill="#fff"/>
    <path id="Path_7145" data-name="Path 7145" d="M145.105,93.812a.155.155,0,0,0,.155-.155V84.442a.151.151,0,0,0-.019-.073c-.1-.186-2.49-4.538-4.681-4.736-2.527-.23-4.135-.019-4.78.627a4.279,4.279,0,0,0-.893,2.074c-2.341-.238-3.025,0-3.356.237A1.323,1.323,0,0,0,131.217,84a1.542,1.542,0,0,0,.961,1.162c.124.457.7,2.3,1.911,2.524a2.643,2.643,0,0,0,.691,1.713,2.347,2.347,0,0,0,1.7.636,1.027,1.027,0,0,0,.2.763,1.674,1.674,0,0,0,1.532.4,7.281,7.281,0,0,0,3.354-1.289c.507.787,2.582,3.909,3.532,3.909m-.154-9.33v8.987c-.737-.3-2.319-2.468-3.208-3.871a.155.155,0,0,0-.1-.07.149.149,0,0,0-.121.032,7.076,7.076,0,0,1-3.329,1.325,1.437,1.437,0,0,1-1.262-.283.812.812,0,0,1-.112-.682.155.155,0,0,0-.026-.139.181.181,0,0,0-.128-.06A2.135,2.135,0,0,1,135,89.178a2.417,2.417,0,0,1-.6-1.625.154.154,0,0,0-.143-.16c-1.23-.088-1.8-2.382-1.8-2.4a.153.153,0,0,0-.133-.117c-.394-.044-.687-.51-.8-.952a1.07,1.07,0,0,1,.2-1.1c.271-.194.906-.421,3.29-.167a.155.155,0,0,0,.169-.133A4.32,4.32,0,0,1,136,80.477c.569-.569,2.135-.754,4.533-.538,1.933.176,4.191,4.133,4.419,4.542" transform="translate(-131.148 -14.464)"/>
    <path id="Path_7146" data-name="Path 7146" d="M140,85.18a4.282,4.282,0,0,0,2.008-.548.154.154,0,0,0-.159-.264,3.764,3.764,0,0,1-2.538.42,2.894,2.894,0,0,1-1.77-1.449.159.159,0,0,0-.1-.072.154.154,0,0,0-.119.022c-.777.519-2.144,1.2-2.5.826a1.223,1.223,0,0,1-.445-.961.156.156,0,0,0-.123-.179.154.154,0,0,0-.18.12,1.492,1.492,0,0,0,.525,1.232c.581.61,2.245-.367,2.763-.7a3.131,3.131,0,0,0,1.878,1.455,3.074,3.074,0,0,0,.763.093" transform="translate(-130.351 -15.088)"/>
    <path id="Path_7147" data-name="Path 7147" d="M141.75,86.052h.006l4.256-.146a.154.154,0,0,0,.149-.154V84.5a.154.154,0,0,0-.308,0v1.1l-4.108.14a.154.154,0,0,0,.006.308" transform="translate(-140.597 -15.338)"/>
    <path id="Path_7148" data-name="Path 7148" d="M137.35,88.64a.147.147,0,0,0,.042-.006l3.1-.869,2.818-.886a.154.154,0,0,0,.091-.217l-.945-1.87a.152.152,0,0,0-.189-.076l-2.657.956a.154.154,0,1,0,.1.29l2.528-.91.8,1.586-2.64.83-3.1.867a.154.154,0,0,0,.042.3" transform="translate(-134.258 -15.403)"/>
    <path id="Path_7149" data-name="Path 7149" d="M136.6,91.383a.155.155,0,0,0,.077-.02c.655-.377,3.937-2.283,4.14-2.792.223-.557-.524-1.428-.61-1.525a.154.154,0,0,0-.231.2c.276.313.67.918.554,1.207a23.37,23.37,0,0,1-4.007,2.639.154.154,0,0,0,.077.288" transform="translate(-131.084 -15.819)"/>
    <path id="Path_7150" data-name="Path 7150" d="M136.273,92.075a.144.144,0,0,0,.058-.011,6.137,6.137,0,0,0,2.116-1.4,1.726,1.726,0,0,0-.024-1.927.154.154,0,0,0-.257.17,1.421,1.421,0,0,1,.038,1.566,5.955,5.955,0,0,1-1.99,1.31.154.154,0,0,0,.058.3" transform="translate(-128.702 -16.123)"/>
    <path id="Path_7151" data-name="Path 7151" d="M132.725,91.177a.142.142,0,0,0,.052-.009,4.166,4.166,0,0,0,2.431-4.091.154.154,0,0,0-.308,0,3.8,3.8,0,0,1-2.225,3.8.154.154,0,0,0,.052.3" transform="translate(-122.26 -15.806)"/>
    <path id="Path_7152" data-name="Path 7152" d="M80.576,87.182s-3.672,9.223-4.35,11.454c-.817,2.682-.7,2.354-3.3,19.4,0,0-3.3,10.768-3.3,11.544s2.716,4.947,3.008,5.529.1,1.455,1.067,1.649a5.894,5.894,0,0,0,1.982,0l1.909-21.437S82.21,90.57,80.576,87.182" transform="translate(-16.482 -15.853)" fill="#fff"/>
    <path id="Path_7153" data-name="Path 7153" d="M74.62,136.965a6.129,6.129,0,0,0,1.064-.09.153.153,0,0,0,.124-.137L77.716,115.3c.187-1,4.6-24.825,2.967-28.22a.159.159,0,0,0-.144-.087.154.154,0,0,0-.138.1c-.037.092-3.682,9.255-4.355,11.466-.7,2.306-.7,2.306-2.338,13.08-.272,1.8-.59,3.889-.965,6.342-.13.419-3.3,10.777-3.3,11.567,0,.565,1.122,2.451,2.372,4.5.322.529.577.947.652,1.1a2.31,2.31,0,0,1,.16.529c.109.489.232,1.044,1.015,1.2a5,5,0,0,0,.979.09m.892-.374a5.7,5.7,0,0,1-1.81-.018c-.586-.117-.668-.492-.774-.966a2.543,2.543,0,0,0-.186-.6c-.081-.162-.325-.564-.664-1.119-.812-1.334-2.327-3.817-2.327-4.341,0-.618,2.377-8.51,3.292-11.5.379-2.476.7-4.57.97-6.364,1.633-10.751,1.633-10.751,2.328-13.037.591-1.942,3.5-9.3,4.2-11.063,1.185,4.436-3.081,27.435-3.125,27.674Z" transform="translate(-16.45 -15.819)"/>
    <path id="Path_7154" data-name="Path 7154" d="M61.212,244.6a37.106,37.106,0,0,1,6.112-2.037c1.455-.194,3.588-.291,4.656-1.164s0-3.492,0-3.492S64.7,237.65,63.443,237a34.6,34.6,0,0,0-5.437-1.467,2.527,2.527,0,0,0-1.881,0c-.83.433-7.426,4.464-7.814,4.437s0,.974,0,.974A27.438,27.438,0,0,0,45.3,244.6c-.29.776,1.5,4.268,5.166,3.589s7.62-2.38,10.743-3.589" transform="translate(11.917 -42.795)" fill="#fff"/>
    <path id="Path_7155" data-name="Path 7155" d="M49.5,248.4a5.323,5.323,0,0,0,.961-.091,52.54,52.54,0,0,0,9.29-3.017c.511-.2,1.006-.4,1.481-.58l.5-.2a32.864,32.864,0,0,1,5.573-1.833c.235-.032.488-.061.751-.091,1.36-.155,3.053-.347,3.982-1.107,1.142-.935.09-3.558.045-3.669a.154.154,0,0,0-.137-.1c-.072,0-7.255-.266-8.471-.889A33.981,33.981,0,0,0,58,235.35a2.622,2.622,0,0,0-1.982.014c-.272.142-1.134.653-2.225,1.3-1.94,1.149-5.185,3.071-5.522,3.121a.277.277,0,0,0-.249.115c-.161.218-.024.7.074.978a24.948,24.948,0,0,0-2.974,3.637,2.917,2.917,0,0,0,.869,2.208A4.53,4.53,0,0,0,49.5,248.4m11.621-3.975c-.476.184-.972.38-1.482.582a52.246,52.246,0,0,1-9.234,3,4.249,4.249,0,0,1-4.177-1.481,2.726,2.726,0,0,1-.816-1.9,25.348,25.348,0,0,1,2.975-3.6.155.155,0,0,0,.032-.162,1.564,1.564,0,0,1-.148-.775c.224.01,1.509-.683,5.68-3.154,1.043-.619,1.945-1.152,2.21-1.291a2.382,2.382,0,0,1,1.752.007,35.114,35.114,0,0,1,5.425,1.462c1.21.619,7.576.883,8.5.919.172.461.871,2.518.01,3.222s-2.5.89-3.822,1.04c-.265.03-.52.06-.757.091a32.956,32.956,0,0,0-5.644,1.852Z" transform="translate(11.951 -42.761)"/>
    <path id="Path_7156" data-name="Path 7156" d="M54.165,225.849c.291-.168.5-.289.587-.344.776-.484.97-3.2.97-4.268s-2.522-14.744-2.91-17.266-6.306-13-6.887-15.229a35.949,35.949,0,0,1-.57-6.67h13.86l-.1,4.439a20.638,20.638,0,0,1,2.425,5.238c.388,2.037,5.039,29.684,5.039,29.684s2.527,5.82,1.848,7.275-5.529,1.649-6.887,2.037a13.313,13.313,0,0,0-1.3.516c-.988-1.783-3.123-4.926-6.081-5.411" transform="translate(15.759 -33.108)" fill="#fff"/>
    <path id="Path_7157" data-name="Path 7157" d="M60.218,231.38a.148.148,0,0,0,.061-.013,13.332,13.332,0,0,1,1.277-.51,16.308,16.308,0,0,1,1.716-.3c2-.29,4.739-.687,5.267-1.82.7-1.5-1.743-7.162-1.847-7.4-.036-.241-4.645-27.635-5.028-29.651a20.146,20.146,0,0,0-2.422-5.253l.1-4.393a.155.155,0,0,0-.155-.158H45.326a.154.154,0,0,0-.154.154,35.467,35.467,0,0,0,.575,6.711,56.578,56.578,0,0,0,2.94,6.36c1.748,3.5,3.729,7.462,3.944,8.854.138.9.546,3.2,1.016,5.868.844,4.768,1.892,10.7,1.892,11.376,0,1.486-.279,3.75-.9,4.138-.088.054-.293.173-.583.34a.155.155,0,0,0,.052.286c2.886.473,4.98,3.544,5.972,5.334a.153.153,0,0,0,.135.079m-1.19-49.19-.094,4.282a.159.159,0,0,0,.025.086,20.642,20.642,0,0,1,2.4,5.185c.383,2.013,4.992,29.4,5.038,29.68.706,1.638,2.393,6.043,1.861,7.185-.458.982-3.211,1.382-5.032,1.645a16.341,16.341,0,0,0-1.757.308,11.848,11.848,0,0,0-1.187.469c-1-1.767-2.98-4.607-5.72-5.284.111-.065.193-.114.241-.143,1.031-.644,1.042-4.362,1.042-4.4,0-.7-1.007-6.4-1.9-11.429-.47-2.665-.877-4.965-1.015-5.861-.222-1.439-2.128-5.255-3.972-8.946a56.6,56.6,0,0,1-2.918-6.3,34.414,34.414,0,0,1-.565-6.477Z" transform="translate(15.787 -33.074)"/>
    <path id="Path_7158" data-name="Path 7158" d="M67.878,243.008c.178-.142.747-.493,1.538-.961a8.174,8.174,0,0,1,6.292,4.33c-.808.168-2.918.612-4.608,1-2.134.485-3.223-1.94-3.223-1.94s-1.337-.1-1.337-.776.485-.97,1.337-1.649" transform="translate(-8.738 -44.014)" fill="#fff"/>
    <path id="Path_7159" data-name="Path 7159" d="M70.513,247.557a2.679,2.679,0,0,0,.587-.067c1.685-.383,3.782-.824,4.605-1a.16.16,0,0,0,.11-.088.156.156,0,0,0-.008-.14,8.315,8.315,0,0,0-6.414-4.406.142.142,0,0,0-.09.02c-.875.518-1.384.836-1.556.974l-.281.222c-.694.544-1.113.872-1.113,1.548,0,.705,1.068.883,1.389.92a3.471,3.471,0,0,0,2.77,2.013m4.919-1.32c-.932.195-2.841.6-4.4.952-1.986.452-3.038-1.83-3.048-1.853a.157.157,0,0,0-.13-.09c-.012,0-1.194-.1-1.194-.622s.332-.786,1-1.306l.284-.223c.154-.124.651-.435,1.478-.924a7.948,7.948,0,0,1,6.013,4.065" transform="translate(-8.704 -43.98)"/>
    <path id="Path_7160" data-name="Path 7160" d="M70.572,184.277s-9.824,1.105-13.812-1.241v-.966H70.62Z" transform="translate(4.352 -33.108)"/>
    <path id="Path_7161" data-name="Path 7161" d="M65.37,184.665a50.881,50.881,0,0,0,5.185-.268.154.154,0,0,0,.137-.15l.048-2.207a.155.155,0,0,0-.154-.158H56.727a.155.155,0,0,0-.155.154V183a.156.156,0,0,0,.076.133c2.09,1.23,5.7,1.529,8.722,1.529m5.017-.56c-1.18.119-9.815.9-13.507-1.191v-.722H70.429Z" transform="translate(4.386 -33.074)"/>
    <path id="Path_7162" data-name="Path 7162" d="M15.888,219.041a3.1,3.1,0,0,1,1.719,2.808c-.194,1.843-2.328,5.723-2.813,7.469s-2.038,7.664-4.269,8.537a17.647,17.647,0,0,1-7.275.992c-1.842-.216-2.4-.25-2.944-.864s.986-3.7.986-3.7a5.255,5.255,0,0,1,.213-1.907c.29-.636,3.273-6.166,4.3-6.941s7.142-1.456,7.142-1.456Z" transform="translate(103.636 -39.831)" fill="#fff"/>
    <path id="Path_7163" data-name="Path 7163" d="M4.424,239.029a18.3,18.3,0,0,0,6.118-1.065c2.216-.867,3.729-6.351,4.3-8.416l.061-.222a26.116,26.116,0,0,1,1.154-2.87,20.288,20.288,0,0,0,1.665-4.624c.2-1.927-1.784-2.952-1.8-2.963a.155.155,0,0,0-.2.059l-2.9,4.877c-.742.085-6.14.723-7.142,1.476-1.081.814-4.124,6.5-4.352,7A5.156,5.156,0,0,0,1.1,234.22c-.3.606-1.52,3.188-.945,3.831.558.624,1.111.689,2.756.88l.286.033a10.674,10.674,0,0,0,1.231.064M15.9,219.215a2.866,2.866,0,0,1,1.511,2.583,20.19,20.19,0,0,1-1.64,4.532,25.823,25.823,0,0,0-1.168,2.913l-.062.223c-.5,1.83-2.042,7.4-4.115,8.212a17.5,17.5,0,0,1-7.2.983l-.286-.034c-1.6-.186-2.081-.241-2.562-.778-.33-.371.391-2.284,1.009-3.526a.15.15,0,0,0,.016-.078,5.149,5.149,0,0,1,.2-1.833c.308-.674,3.273-6.142,4.257-6.883.789-.594,4.967-1.191,7.066-1.425a.149.149,0,0,0,.115-.074Z" transform="translate(103.677 -39.797)"/>
    <path id="Path_7164" data-name="Path 7164" d="M14.687,173.387l.873,3.3s1.746,3.1,3.589,5.723,8.342,22.505,9.021,23.863,2.231,2.522,3.493,3.687a3.621,3.621,0,0,1,1.358,3.588c-.121.484-.961,2.789-1.957,5.389a12.12,12.12,0,0,0-9.526-.893,12.725,12.725,0,0,0,1.1-3.914c-.194-1.746-5.723-12.222-7.469-15.424S5.471,185.124,4.4,183.67a36.25,36.25,0,0,1-2.617-5.134L1.4,176.782Z" transform="translate(87.156 -31.529)" fill="#fff"/>
    <path id="Path_7165" data-name="Path 7165" d="M31.029,219.056a.149.149,0,0,0,.143-.1c1.036-2.7,1.842-4.928,1.963-5.407a3.707,3.707,0,0,0-1.4-3.74c-.266-.245-.544-.491-.826-.738a10.984,10.984,0,0,1-2.634-2.9c-.212-.425-1.038-2.794-2.085-5.793-2.262-6.486-5.682-16.29-6.948-18.089-1.748-2.483-3.429-5.442-3.571-5.693l-.868-3.28a.157.157,0,0,0-.187-.11L1.324,176.6a.153.153,0,0,0-.112.182l.389,1.753a35.521,35.521,0,0,0,2.644,5.191c.184.251.573.767,1.1,1.466C7.8,188.459,13.561,196.105,15,198.745c2.26,4.143,7.273,13.765,7.452,15.367a12.53,12.53,0,0,1-1.094,3.842.154.154,0,0,0,.033.162.157.157,0,0,0,.161.038,11.886,11.886,0,0,1,9.4.884.153.153,0,0,0,.073.018M14.541,173.541l.835,3.151a.168.168,0,0,0,.015.036c.017.03,1.771,3.14,3.6,5.735,1.242,1.765,4.653,11.543,6.91,18.015,1.091,3.127,1.878,5.386,2.1,5.829a11.156,11.156,0,0,0,2.7,3c.28.245.556.489.821.733a3.477,3.477,0,0,1,1.313,3.44c-.113.452-.9,2.63-1.89,5.209a12.2,12.2,0,0,0-9.184-.924,11.088,11.088,0,0,0,1-3.683c-.2-1.828-5.957-12.676-7.487-15.481-1.451-2.659-7.219-10.319-9.682-13.59-.525-.7-.913-1.213-1.1-1.463a36.344,36.344,0,0,1-2.6-5.1l-.349-1.581Zm.983,3.111h0Z" transform="translate(87.191 -31.495)"/>
    <path id="Path_7166" data-name="Path 7166" d="M36.624,177.039s-11.087,3.236-13.41,2.684l-.362-.833,13.773-3.555Z" transform="translate(66.092 -31.883)"/>
    <path id="Path_7167" data-name="Path 7167" d="M23.875,179.9c3.287,0,12.339-2.63,12.757-2.751a.154.154,0,0,0,.111-.148v-1.7a.155.155,0,0,0-.06-.122.159.159,0,0,0-.133-.028l-13.773,3.556a.154.154,0,0,0-.1.21l.363.833a.153.153,0,0,0,.106.088,3.255,3.255,0,0,0,.731.066m12.56-3.015c-1.152.331-10.867,3.093-13.146,2.665l-.259-.595,13.406-3.46Z" transform="translate(66.127 -31.849)"/>
    <path id="Path_7168" data-name="Path 7168" d="M18.9,238.531a3.486,3.486,0,0,1-.3.523c-.776.97-3.977,2.134-5.529,2.134a6.9,6.9,0,0,1-2.619-.485s-2.328-.1-2.522-.97a2.467,2.467,0,0,1,.952-2.113,22.113,22.113,0,0,1,10.019.911" transform="translate(96.043 -43.164)" fill="#fff"/>
    <path id="Path_7169" data-name="Path 7169" d="M13.041,241.308c1.574,0,4.82-1.154,5.649-2.193a3.5,3.5,0,0,0,.318-.549.154.154,0,0,0-.091-.216,22.224,22.224,0,0,0-10.094-.916.155.155,0,0,0-.083.044,2.606,2.606,0,0,0-.992,2.254c.207.93,2.28,1.072,2.637,1.089a7.1,7.1,0,0,0,2.655.487m5.609-2.72a2.276,2.276,0,0,1-.2.335c-.77.963-3.929,2.076-5.409,2.076a6.814,6.814,0,0,1-2.555-.471.155.155,0,0,0-.058-.014c-.854-.035-2.255-.3-2.378-.85a2.305,2.305,0,0,1,.878-1.936,21.852,21.852,0,0,1,9.722.86" transform="translate(96.078 -43.13)"/>
    <path id="Path_7170" data-name="Path 7170" d="M19.615,124.424s-.485,41.809,0,43.361,6.985,1.94,10.283,2.037,7.857-.194,8.342-.582S39.6,151.294,39.6,151.294s5.433,15.52,6.791,15.909,17.752-3.3,19.206-5.239-5.329-26.482-5.138-28.131-.586-14.992-.586-14.992l-.193-8.483s-11.156-1.164-12.61-.776-27.452,14.841-27.452,14.841" transform="translate(39.74 -19.912)" fill="#fff"/>
    <path id="Path_7171" data-name="Path 7171" d="M31.139,169.959c2.9,0,6.669-.235,7.168-.633.472-.377,1.131-12.446,1.375-17.277,1.181,3.327,5.368,14.907,6.634,15.268,1.355.378,17.9-3.326,19.373-5.294.907-1.211-.985-9.726-3.361-19.894a78.584,78.584,0,0,1-1.748-8.313c.191-1.643-.554-14.472-.585-15.018l-.192-8.478a.155.155,0,0,0-.138-.15c-.457-.047-11.2-1.163-12.666-.772S20.571,123.665,19.51,124.255a.155.155,0,0,0-.079.133c-.02,1.707-.479,41.85.007,43.408.479,1.533,5.934,2.013,10.426,2.145.393.011.825.017,1.276.017m8.429-18.853-.022,0a.154.154,0,0,0-.132.145c-.342,6.873-.976,17.3-1.317,17.85-.383.3-4.609.637-8.225.531-6.028-.177-9.819-.9-10.141-1.928-.377-1.207-.161-28.747.007-43.223,1.577-.876,25.958-14.416,27.34-14.784,1.326-.356,11.147.636,12.42.767l.19,8.348c.008.138.775,13.353.587,14.97-.068.583.588,3.432,1.753,8.417,1.716,7.345,4.31,18.445,3.414,19.639-1.447,1.931-17.716,5.562-19.042,5.183-.934-.267-4.6-9.84-6.686-15.812a.156.156,0,0,0-.146-.1" transform="translate(39.77 -19.878)"/>
    <path id="Path_7172" data-name="Path 7172" d="M61.285,156.671a.158.158,0,0,0,.043-.006.156.156,0,0,0,.1-.191l-4.366-14.842a.151.151,0,0,0-.069-.088l-5.53-3.3a.154.154,0,0,0-.157.265l5.478,3.267,4.348,14.784a.153.153,0,0,0,.148.11" transform="translate(18.054 -25.135)"/>
    <path id="Path_7173" data-name="Path 7173" d="M23.134,37.648a10.52,10.52,0,0,0-2.813,1.632c-1.262,1.067-1.649,4.753-1.649,4.753s-3.977,1.94-5.723,4.85-4.924,19.5-4.742,20.662,3.287,2.231,3.287,2.231-.388,8.342-.776,10.477-1.261,6.4-1.552,8.439a108.427,108.427,0,0,1-2.231,11.543c-.873,2.813-1.456,6.887-.485,8.148s4.365,3.008,7.372,3.2A29.021,29.021,0,0,0,23.91,111.84c1.552-.776,10.476-14.939,12.028-15.23s10.283.194,10.38,1.358,0,7.179.679,7.469,3.1-6.6,3.686-8.633-2.716-11.35-2.716-11.35,3.493-9.506,3.977-10.573c0,0,10.768-3.977,11.641-5.433s-8.633-22.7-11.446-25.609-9.7-5.432-9.7-5.432S38.645,32.3,37.728,32.3s-10.752,2.135-10.752,2.135Z" transform="translate(52.906 -5.873)" fill="#ab1b2d"/>
    <path id="Path_7174" data-name="Path 7174" d="M23.134,37.648a10.52,10.52,0,0,0-2.813,1.632c-1.262,1.067-1.649,4.753-1.649,4.753s-3.977,1.94-5.723,4.85-4.924,19.5-4.742,20.662,3.287,2.231,3.287,2.231-.388,8.342-.776,10.477-1.261,6.4-1.552,8.439a108.427,108.427,0,0,1-2.231,11.543c-.873,2.813-1.456,6.887-.485,8.148s4.365,3.008,7.372,3.2A29.021,29.021,0,0,0,23.91,111.84c1.552-.776,10.476-14.939,12.028-15.23s10.283.194,10.38,1.358,0,7.179.679,7.469,3.1-6.6,3.686-8.633-2.716-11.35-2.716-11.35,3.493-9.506,3.977-10.573c0,0,10.768-3.977,11.641-5.433s-8.633-22.7-11.446-25.609-9.7-5.432-9.7-5.432S38.645,32.3,37.728,32.3s-10.752,2.135-10.752,2.135Z" transform="translate(52.906 -5.873)" fill="none" stroke="#000" stroke-width="1"/>
    <path id="Path_7175" data-name="Path 7175" d="M66.211,75.67a.154.154,0,0,0,.152-.13L69.176,57.5a.16.16,0,0,0,0-.044l-.583-4.461a.156.156,0,0,0-.173-.133.154.154,0,0,0-.133.173l.579,4.44-2.81,18.022a.155.155,0,0,0,.129.176l.024,0" transform="translate(-1.812 -9.612)"/>
    <path id="Path_7176" data-name="Path 7176" d="M37.842,51.623c.785,0,8.9-9.023,11.367-11.789a.154.154,0,1,0-.23-.205c-3.965,4.442-10.5,11.543-11.147,11.687-.509,0-3.114-2.413-4.634-3.933a.155.155,0,0,0-.182-.026l-1.261.679a.154.154,0,1,0,.146.271l1.161-.625c.826.824,4.009,3.942,4.78,3.942" transform="translate(46.249 -7.197)"/>
    <path id="Path_7177" data-name="Path 7177" d="M58.121,51.182a.4.4,0,0,0,.168-.038c.533-.241.818-1.772.912-2.387l.889.323a.154.154,0,1,0,.106-.29L59.128,48.4a.154.154,0,0,0-.133.012.157.157,0,0,0-.074.112c-.117.88-.43,2.187-.76,2.336a.107.107,0,0,1-.117-.019c-.485-.324-.9-2.78-1.047-4.252a.154.154,0,0,0-.307.03c.04.4.417,3.967,1.183,4.478a.438.438,0,0,0,.247.081" transform="translate(14.734 -8.447)"/>
    <path id="Path_7178" data-name="Path 7178" d="M28.26,81.285a.149.149,0,0,0,.062-.013l2.425-1.067a.154.154,0,0,0,.079-.2.156.156,0,0,0-.2-.079l-2.279,1L20.351,60.9a.154.154,0,1,0-.286.115l8.051,20.177a.155.155,0,0,0,.143.1" transform="translate(74.165 -11.056)"/>
    <path id="Path_7179" data-name="Path 7179" d="M54.474,61.669a.154.154,0,0,0,.151-.128l1.634-9.554,1.851-.608a.154.154,0,1,0-.1-.292l-1.941.637a.156.156,0,0,0-.1.12l-1.649,9.646a.154.154,0,0,0,.126.178l.026,0" transform="translate(18.753 -9.288)"/>
    <path id="Path_7180" data-name="Path 7180" d="M39.872,5.608s-2.522,4.656-2.231,8.439,2.91,13.872,2.91,13.872,2.231,3.3,3.007,3.3.97,1.084.97,1.084l.776,3.863s-1.941,1.94-1.941,3.007,1.941,3.3,1.941,3.3-.389-2.134,3.2-3.492,6.208-2.037,8.051-5.335a13.6,13.6,0,0,0,1.649-6.693s-.57-5.432.006-7.081a17.551,17.551,0,0,0,.867-6.306c-.195-1.746-7.47-10.67-7.47-10.67Z" transform="translate(31.511 -0.526)" fill="#fff"/>
    <path id="Path_7181" data-name="Path 7181" d="M45.273,42.59a.143.143,0,0,0,.065-.016.153.153,0,0,0,.085-.165c-.014-.083-.308-2.03,3.1-3.321.356-.135.7-.263,1.04-.388,3.019-1.115,5.4-2,7.091-5.017a13.884,13.884,0,0,0,1.668-6.777c-.007-.061-.56-5.424,0-7.021a17.805,17.805,0,0,0,.875-6.373C59,11.741,52,3.127,51.7,2.761a.156.156,0,0,0-.155-.053L39.805,5.424a.159.159,0,0,0-.1.077c-.1.191-2.54,4.74-2.249,8.524.289,3.754,2.888,13.8,2.914,13.9a.167.167,0,0,0,.022.047c.38.562,2.318,3.366,3.134,3.366.637,0,.817.947.818.957l.761,3.786c-.333.343-1.928,2.034-1.928,3.057,0,1.112,1.9,3.306,1.978,3.4a.153.153,0,0,0,.117.053m6.246-39.56c2.522,3.1,7.227,9.181,7.375,10.515a17.443,17.443,0,0,1-.859,6.238c-.58,1.662-.038,6.926-.014,7.148a13.563,13.563,0,0,1-1.631,6.6c-1.632,2.921-3.854,3.742-6.929,4.879-.338.125-.686.253-1.042.388-2.7,1.024-3.223,2.48-3.3,3.21-.621-.767-1.631-2.162-1.631-2.872,0-.822,1.368-2.371,1.895-2.9a.156.156,0,0,0,.043-.14l-.776-3.863c-.008-.046-.227-1.208-1.122-1.208-.476,0-1.955-1.868-2.864-3.208-.147-.569-2.62-10.185-2.9-13.82-.266-3.464,1.89-7.735,2.181-8.293Z" transform="translate(31.543 -0.492)"/>
    <path id="Path_7182" data-name="Path 7182" d="M45.887,22.674c2.124.318,2.522-1.358,2.91-3.686s-1.261-9.216-.485-9.895,2-3.589-.94-4.462S37.738,6.474,35.8,5.116s2.037-2.91,2.037-2.91A14.893,14.893,0,0,1,48.215.46c6.014,1.164,8.245,5.529,9.118,9.991S55.3,19.376,55,21.8a39.683,39.683,0,0,1-.873,4.656,11.668,11.668,0,0,1-1.067-4.365c.1-1.843.1-2.814.1-2.814a5.1,5.1,0,0,0,1.164-4.365c-.582-2.522-2.716-1.456-2.813.388s1.067,7.081-1.552,11.156a12.586,12.586,0,0,1-10.768,5.335c-3.1-.194-2.716-4.365-2.716-4.365a5.233,5.233,0,0,0,3.2,1.261c1.649-.1,4.074-.582,4.268-1.164a8.059,8.059,0,0,0-.1-2.328s-4.171-.485-5.82-2.135c0,0-2.328,2.231-2.764,2.037a1.929,1.929,0,0,1-.437-2.328c.485-.97,2.522-1.747,2.522-1.747a6.888,6.888,0,0,1,1.552-.1c.291.1,5.045,1.455,6.985,1.746" transform="translate(35.586 -0.034)" fill="#fff"/>
    <path id="Path_7183" data-name="Path 7183" d="M39.684,31.928c2.954,0,7.776-1.382,10.373-5.421,2.077-3.232,1.8-7.227,1.64-9.613a15.637,15.637,0,0,1-.063-1.617,1.718,1.718,0,0,1,1.294-1.725c.565-.056,1,.448,1.214,1.364a4.984,4.984,0,0,1-1.126,4.225.153.153,0,0,0-.042.106c0,.01,0,.988-.1,2.8a11.656,11.656,0,0,0,1.081,4.439.158.158,0,0,0,.153.088.154.154,0,0,0,.136-.115,40.088,40.088,0,0,0,.877-4.677,14.723,14.723,0,0,1,.9-2.954c.9-2.41,2.017-5.41,1.423-8.443C56.312,4.565,53.289,1.257,48.21.275A15.182,15.182,0,0,0,37.717,2.044c-.074.025-2.5.983-2.633,2.126a1.116,1.116,0,0,0,.592,1.039c1.072.749,3.4.339,5.871-.1,2.156-.38,4.387-.773,5.747-.367A2.176,2.176,0,0,1,49,6.325a3.138,3.138,0,0,1-.824,2.618c-.449.394-.258,2.09.092,4.828a23.51,23.51,0,0,1,.342,5.158c-.4,2.409-.782,3.848-2.735,3.559-1.9-.286-6.638-1.633-6.958-1.74a6.278,6.278,0,0,0-1.624.091c-.117.041-2.13.817-2.637,1.829a2.276,2.276,0,0,0-.079,1.757,1.331,1.331,0,0,0,.591.781c.442.2,1.916-1.1,2.827-1.964,1.586,1.452,5,1.968,5.687,2.058a7.1,7.1,0,0,1,.084,2.142c-.137.412-2.222.947-4.131,1.059a5.133,5.133,0,0,1-3.091-1.223.156.156,0,0,0-.159-.027.153.153,0,0,0-.1.128,5.5,5.5,0,0,0,.922,3.609,2.667,2.667,0,0,0,1.937.925c.17.01.349.016.534.016M53,13.239c-.034,0-.068,0-.1,0a2.038,2.038,0,0,0-1.575,2.016,15.587,15.587,0,0,0,.064,1.655c.161,2.349.43,6.279-1.592,9.425-2.688,4.182-7.829,5.439-10.628,5.265a2.369,2.369,0,0,1-1.723-.817,4.915,4.915,0,0,1-.862-3.085,5.065,5.065,0,0,0,3.07,1.106c1.272-.075,4.149-.5,4.4-1.269a7.985,7.985,0,0,0-.091-2.4.155.155,0,0,0-.134-.128c-.041,0-4.137-.5-5.73-2.09a.154.154,0,0,0-.215,0,9.215,9.215,0,0,1-2.6,2.006,1.084,1.084,0,0,1-.421-.6,1.963,1.963,0,0,1,.064-1.514c.452-.906,2.419-1.663,2.439-1.671a6.385,6.385,0,0,1,1.449-.095c.322.108,5.094,1.465,7.01,1.752,2.387.362,2.742-1.762,3.085-3.813a23.527,23.527,0,0,0-.341-5.247c-.254-1.993-.543-4.252-.195-4.556A3.432,3.432,0,0,0,49.3,6.259a2.457,2.457,0,0,0-1.919-1.81c-1.433-.425-3.7-.026-5.889.36-2.3.4-4.674.823-5.64.147-.344-.241-.5-.486-.464-.749.1-.8,1.814-1.635,2.468-1.892A14.9,14.9,0,0,1,48.152.578c4.942.956,7.885,4.185,9,9.869.577,2.949-.524,5.9-1.41,8.277a14.926,14.926,0,0,0-.92,3.024,39.788,39.788,0,0,1-.759,4.188,10.461,10.461,0,0,1-.874-3.871c.083-1.572.095-2.522.1-2.761a5.2,5.2,0,0,0,1.161-4.46c-.235-1.015-.768-1.606-1.44-1.606" transform="translate(35.619 0)"/>
    <path id="Path_7184" data-name="Path 7184" d="M36.634,79.07S40.3,91.049,40.109,92.214s-22.893,16.006-22.893,16.006-1.746,7.566-4.172,7.76-7.566,0-8.148-.388a6.116,6.116,0,0,1-1.262-1.816s6.112-8.272,8.15-10.212,17.17-15.424,17.17-15.424l-1.872-4.96Z" transform="translate(78.322 -14.378)" fill="#fff"/>
    <path id="Path_7185" data-name="Path 7185" d="M10.59,116.174c.932,0,1.8-.025,2.435-.075,2.418-.194,4.111-7.045,4.295-7.819,3.917-2.562,22.715-14.909,22.909-16.075.2-1.186-3.328-12.724-3.479-13.214a.158.158,0,0,0-.083-.095.149.149,0,0,0-.125,0L26.989,83a.154.154,0,0,0-.083.2l1.834,4.861c-1.186,1.056-15.155,13.509-17.095,15.356-2.024,1.928-7.917,9.895-8.168,10.234a.153.153,0,0,0-.015.157,6.106,6.106,0,0,0,1.316,1.878c.479.319,3.373.489,5.811.489M36.505,79.245c1.051,3.44,3.571,12,3.42,12.909-.27.893-13.8,10-22.826,15.9a.154.154,0,0,0-.065.094c-.017.075-1.748,7.458-4.034,7.642-2.506.2-7.547-.028-8.051-.363a5.472,5.472,0,0,1-1.168-1.671c.618-.834,6.175-8.308,8.077-10.118,2.012-1.916,17.014-15.286,17.166-15.42a.156.156,0,0,0,.042-.17l-1.82-4.822Z" transform="translate(78.353 -14.344)"/>
  </g>
</svg>
