<svg id="Group_1573" data-name="Group 1573" xmlns="http://www.w3.org/2000/svg" xmlns:xlink="http://www.w3.org/1999/xlink" width="212.404" height="215.017" viewBox="0 0 212.404 215.017">
  <defs>
    <clipPath id="clip-path">
      <rect id="Rectangle_1157" data-name="Rectangle 1157" width="212.404" height="215.017" fill="none"/>
    </clipPath>
  </defs>
  <g id="Group_1572" data-name="Group 1572" clip-path="url(#clip-path)">
    <path id="Path_6751" data-name="Path 6751" d="M151.589,82.773a12.594,12.594,0,0,0-9.5-4.26C130.2,78,129.644,87.72,130.027,89.538c.1.476.205.913.316,1.325a4.442,4.442,0,0,0-3.68.563c-3.273,1.8-3.016,12.336,5.545,7.8a2.2,2.2,0,0,0,.951-1.456c.029.066.057.13.086.2.778,1.8,11.776,5.93,17.7-2.628,2.106-3.042,4.64-7.985.642-12.57" transform="translate(-54.626 -34.379)" fill="#fff"/>
    <path id="Path_6752" data-name="Path 6752" d="M151.589,82.773a12.594,12.594,0,0,0-9.5-4.26C130.2,78,129.644,87.72,130.027,89.538c.1.476.205.913.316,1.325a4.442,4.442,0,0,0-3.68.563c-3.273,1.8-3.016,12.336,5.545,7.8a2.2,2.2,0,0,0,.951-1.456c.029.066.057.13.086.2.778,1.8,11.776,5.93,17.7-2.628C153.053,92.3,155.587,87.358,151.589,82.773Z" transform="translate(-54.626 -34.379)" fill="none" stroke="#000" stroke-width="1"/>
    <path id="Path_6753" data-name="Path 6753" d="M132.928,105.813s-5.112,9.141-5.729,9.43c-8.98,4.226-9.182,8.524-10.1,8.253s12.3,5.017,12.3,5.017l8.557.795,2.092-5.526s-4.35-3.451-4.7-4.992,4.4-8.162,4.4-8.162Z" transform="translate(-51.266 -46.344)" fill="#fff"/>
    <path id="Path_6754" data-name="Path 6754" d="M137.911,129.286l-8.836-.821-.042-.017s-3.094-1.237-6.184-2.484c-1.8-.724-3.224-1.3-4.248-1.724-.579-.238-1.062-.438-1.4-.581-.641-.273-.794-.338-.694-.624a.317.317,0,0,1,.425-.187,3.533,3.533,0,0,0,.528-.712c.957-1.463,2.949-4.507,9.341-7.517.523-.416,3.71-5.921,5.605-9.309l.168-.3,7.355,5.193-.182.253c-1.8,2.516-4.576,6.889-4.346,7.913.264,1.177,3.4,3.877,4.586,4.818l.177.141Zm-8.689-1.429,8.277.769,1.929-5.1c-.9-.728-4.3-3.554-4.629-5.026-.337-1.5,3.171-6.608,4.266-8.155l-6.285-4.438c-1.634,2.915-5.084,8.97-5.7,9.26-6.244,2.938-8.173,5.886-9.1,7.3a6.93,6.93,0,0,1-.457.649c1.821.769,7.64,3.111,11.7,4.734m-2.4-13.246h0Z" transform="translate(-51.016 -45.992)"/>
    <path id="Path_6755" data-name="Path 6755" d="M144.85,98.52s-.025-.036-.066-.09c-.072.075-.121.106-.142.076-.346-.511-1.819-1.631-2.61-.224s.192,3.945.817,5.285l1.345,3.819a7.613,7.613,0,0,0,2.9,2.7c2.854,1.573,5.208,1.654,7.922-1.931,2.384-3.147,4.248-8.867,4.656-10.179-1.856-.5-10.582-2.6-14.824.547" transform="translate(-62.078 -42.407)" fill="#fff"/>
    <path id="Path_6756" data-name="Path 6756" d="M144.85,98.52s-.025-.036-.066-.09c-.072.075-.121.106-.142.076-.346-.511-1.819-1.631-2.61-.224s.192,3.945.817,5.285l1.345,3.819a7.613,7.613,0,0,0,2.9,2.7c2.854,1.573,5.208,1.654,7.922-1.931,2.384-3.147,4.248-8.867,4.656-10.179C157.818,97.476,149.093,95.371,144.85,98.52Z" transform="translate(-62.078 -42.407)" fill="none" stroke="#000" stroke-width="1"/>
    <path id="Path_6757" data-name="Path 6757" d="M174.012,98.869l-.319-.227c-.011.036-.024.079-.039.126.228.062.359.1.359.1" transform="translate(-76.057 -43.204)" fill="#1d2a49"/>
    <path id="Path_6758" data-name="Path 6758" d="M110.762,124.054c-2.421-1.249-18.427,16.073-22.009,23.216-7.329,14.616,12.91,11.231,12.91,11.231l-2.742-17.424,1.383,25.412,21.484,1.424,5.054-23.31s.59,13.955,8.358,13.955h11.25l.679-6.358-11-1.271s-1.857-14.581-6.556-19.448c-2.218-2.3-4.043-3.649-5-3.883-2.881-.7-1.512,2.8-13.808-3.544" transform="translate(-38.172 -54.305)" fill="#ab262e"/>
    <path id="Path_6759" data-name="Path 6759" d="M147.347,180.076c-2.5-.215-13.23,1.235-13.23,1.235l.9-5.794s11.7,1.991,12.586,1.737a28.077,28.077,0,0,1,6.009-.772c2.6-.1,6.8,1.223,6.764,1.929-.021.381-5.288-.315-6.184.044-2.531,1.016-5.064,1.775-6.849,1.621" transform="translate(-58.741 -76.873)" fill="#fff"/>
    <path id="Path_6760" data-name="Path 6760" d="M133.459,181.394l1.017-6.514.309.053c4.468.76,11.8,1.906,12.451,1.744a28.651,28.651,0,0,1,6.08-.783c2.242-.088,6.2,1.047,6.853,1.708a.712.712,0,0,1,.232.547c-.026.482-.679.493-2.257.52-.877.015-3.737-.36-4.121-.206-.406.163-.807.329-1.2.492a13.3,13.3,0,0,1-5.789,1.15c-2.441-.209-13.055,1.22-13.162,1.234Zm1.532-5.8-.792,5.076c2.019-.268,10.63-1.376,12.888-1.182a12.875,12.875,0,0,0,5.5-1.1c.4-.164.8-.332,1.207-.5.491-.2,3.317.178,4.341.161.526-.009,1.207-.02,1.553-.068a15.769,15.769,0,0,0-6.346-1.47,28.008,28.008,0,0,0-5.935.761c-.867.25-9.9-1.251-12.415-1.677" transform="translate(-58.453 -76.594)"/>
    <path id="Path_6761" data-name="Path 6761" d="M225.209,143.426l-5.336,21.6H188.712l6.309-21.6Z" transform="translate(-82.652 -62.818)" fill="#fff"/>
    <path id="Path_6762" data-name="Path 6762" d="M219.791,165.1H187.946l6.5-22.249h30.843Zm-30.984-.646h30.478l5.176-20.957H194.927Z" transform="translate(-82.317 -62.566)"/>
    <rect id="Rectangle_1156" data-name="Rectangle 1156" width="40.473" height="2.042" transform="translate(96.72 102.211)" fill="#fff"/>
    <path id="Path_6763" data-name="Path 6763" d="M212.636,183.975H171.543v-2.661h41.093Zm-40.473-.619h39.854v-1.423H172.162Z" transform="translate(-75.133 -79.412)"/>
    <path id="Path_6764" data-name="Path 6764" d="M216.6,161.554a2.529,2.529,0,1,0,2.728-2.819,2.8,2.8,0,0,0-2.728,2.819" transform="translate(-94.862 -69.52)" fill="#ab262e"/>
    <path id="Path_6765" data-name="Path 6765" d="M218.746,164.872c-.067,0-.135,0-.2-.009a3.112,3.112,0,0,1-2.49-3.577,3.709,3.709,0,0,1,.993-2.269,2.476,2.476,0,0,1,3.969.34,3.861,3.861,0,0,1-.4,4.675,2.593,2.593,0,0,1-1.866.84m.167-6.076a1.986,1.986,0,0,0-1.424.651,3.092,3.092,0,0,0-.821,1.892,2.5,2.5,0,0,0,1.927,2.907,1.958,1.958,0,0,0,1.573-.645,3.242,3.242,0,0,0,.334-3.9,1.955,1.955,0,0,0-1.439-.9c-.05,0-.1-.006-.149-.006" transform="translate(-94.62 -69.278)"/>
    <path id="Path_6766" data-name="Path 6766" d="M124.721,123.529l4-1.987,6.546,4.355-2.845,2.264Z" transform="translate(-54.625 -53.233)" fill="#c3494c"/>
    <path id="Path_6767" data-name="Path 6767" d="M151.343,129.947l-1.887-3.041-5.975,1.34,1.551,2.938Z" transform="translate(-62.842 -55.583)" fill="#c3494c"/>
    <path id="Path_6768" data-name="Path 6768" d="M143.124,127.537l-2.24-3.608-6.06,1.359-6.584-4.38-4.664,2.318,8.367,5.034,2.5-1.991c-.283,4.659-2.047,32.427-4.307,39.727a.279.279,0,0,0,.533.165c2.222-7.179,3.959-33.831,4.307-39.47l1.17,2.215Zm-11.23-.03-7.031-4.23,3.333-1.656,6.043,4.02Zm8.7-2.878,1.535,2.473-5.645,1.107-1.255-2.377Z" transform="translate(-54.124 -52.955)"/>
    <path id="Path_6769" data-name="Path 6769" d="M99.305,167.226l19.971,3.577-2.326,6.877s-13.831.4-16.792,0c-5.512-.745-11.406-5.6-11.406-5.6Z" transform="translate(-38.872 -73.242)" fill="#ab262e"/>
    <path id="Path_6770" data-name="Path 6770" d="M126.258,171.33a.3.3,0,0,1-.093-.015.289.289,0,0,1-.18-.366l2.094-6.191-18.355-2.91,5.231-8.811a.289.289,0,0,1,.5.295l-4.8,8.08,18.191,2.884-2.314,6.839a.288.288,0,0,1-.273.2" transform="translate(-48.057 -66.965)"/>
    <path id="Path_6771" data-name="Path 6771" d="M180.194,295.951H51.633L38.326,185.5H193.989Z" transform="translate(-16.786 -81.243)" fill="#fff"/>
    <path id="Path_6772" data-name="Path 6772" d="M180.816,296.02H51.708L38.326,184.945H194.689l-.044.348ZM52.257,295.4H180.27l13.718-109.837H39.024Z" transform="translate(-16.786 -81.002)"/>
    <path id="Path_6773" data-name="Path 6773" d="M268.935,358.427l.011,5.9h8.173l.682-5.6Z" transform="translate(-117.788 -156.984)" fill="#fff"/>
    <path id="Path_6774" data-name="Path 6774" d="M277.153,364.391h-8.8l-.012-6.582,9.578.327Zm-8.135-.672h7.541l.6-4.938-8.152-.278Z" transform="translate(-117.527 -156.714)" fill="#1d2a49"/>
    <path id="Path_6775" data-name="Path 6775" d="M258.633,368.29s-11.812,3.749-12.219,6.839h21.18V368.29Z" transform="translate(-107.925 -161.304)" fill="#ab1b2d"/>
    <path id="Path_6776" data-name="Path 6776" d="M258.633,368.29s-11.812,3.749-12.219,6.839h21.18V368.29Z" transform="translate(-107.925 -161.304)" fill="none" stroke="#000" stroke-width="1"/>
    <path id="Path_6777" data-name="Path 6777" d="M327.553,358.556l.223,5.968h8.173l.387-6.1Z" transform="translate(-143.462 -156.984)" fill="#fff"/>
    <path id="Path_6778" data-name="Path 6778" d="M335.992,364.593h-8.811l-.248-6.634,9.489-.139Zm-8.164-.672h7.534l.345-5.42-8.077.119Z" transform="translate(-143.19 -156.718)" fill="#1d2a49"/>
    <path id="Path_6779" data-name="Path 6779" d="M317.63,368.64s-11.812,3.749-12.219,6.839h21.18V368.64Z" transform="translate(-133.764 -161.457)" fill="#ab1b2d"/>
    <path id="Path_6780" data-name="Path 6780" d="M317.63,368.64s-11.812,3.749-12.219,6.839h21.18V368.64Z" transform="translate(-133.764 -161.457)" fill="none" stroke="#000" stroke-width="1"/>
    <path id="Path_6781" data-name="Path 6781" d="M297.558,279.339h13.008l1.109-104.258-37.495,6.475-8.924,97.783h12.521l13.109-64.967-1.5-14.245Z" transform="translate(-116.177 -76.682)" fill="#fff"/>
    <path id="Path_6782" data-name="Path 6782" d="M297.558,279.339h13.008l1.109-104.258-37.495,6.475-8.924,97.783h12.521l13.109-64.967-1.5-14.245Z" transform="translate(-116.177 -76.682)" fill="none" stroke="#000" stroke-width="1"/>
    <path id="Path_6783" data-name="Path 6783" d="M301.526,77.261s.882,9.259.141,10.283-5.282,2.128-5.282,2.128l7.434,21.857,15.307-1.479.993-15.67s-6.987-5.692-7.408-6.861c-.583-1.618-.585-10.259-.585-10.259Z" transform="translate(-129.811 -33.839)" fill="#fff"/>
    <path id="Path_6784" data-name="Path 6784" d="M303.313,111.616,295.7,89.228l.315-.077c1.715-.417,4.619-1.333,5.112-2.014.439-.606.227-5.646-.2-10.08a.3.3,0,0,1,.591-.056c.149,1.565.853,9.423.086,10.484-.69.953-4.029,1.879-5.138,2.164l7.255,21.33,14.821-1.433.967-15.265c-1.121-.916-6.963-5.732-7.382-6.893-.593-1.647-.6-10.005-.6-10.36a.3.3,0,1,1,.594,0c0,2.971.12,8.918.567,10.158.287.795,4.64,4.55,7.317,6.731l.118.1-1.018,16.074Z" transform="translate(-129.511 -33.607)"/>
    <path id="Path_6785" data-name="Path 6785" d="M305.362,44.483c-1.914.227-6.571.719-6.529,4.148A88.762,88.762,0,0,0,300.026,60.2,2.128,2.128,0,0,0,302.153,62l11.807-.143a2.129,2.129,0,0,0,2.091-1.915c.37-3.63,1.086-11.315.643-12.467-1.51-3.92-8.3-3.347-11.333-2.987" transform="translate(-130.883 -19.37)" fill="#fff"/>
    <path id="Path_6786" data-name="Path 6786" d="M305.362,44.483c-1.914.227-6.571.719-6.529,4.148A88.762,88.762,0,0,0,300.026,60.2,2.128,2.128,0,0,0,302.153,62l11.807-.143a2.129,2.129,0,0,0,2.091-1.915c.37-3.63,1.086-11.315.643-12.467C315.184,43.551,308.392,44.123,305.362,44.483Z" transform="translate(-130.883 -19.37)" fill="none" stroke="#000" stroke-width="1"/>
    <path id="Path_6787" data-name="Path 6787" d="M313.644,66.933c.629-.67.853-3.294.89-6.284a.249.249,0,0,1,.118-.209,3.48,3.48,0,0,0,1.829-2.956c-.043-1.284-.969-1-1.693-.581a.2.2,0,0,1-.293-.174c-.1-3.6-.338-6.762-.338-6.762l-14.03.17s.066,3.214.244,6.817c.008.162.7,8.753,1.048,9.527a2.4,2.4,0,0,0,1.021,1.05s.909.725,6.009.664Z" transform="translate(-131.45 -21.885)" fill="#fff"/>
    <path id="Path_6788" data-name="Path 6788" d="M307.606,68.262c-4.3,0-5.382-.587-5.568-.715a2.678,2.678,0,0,1-1.13-1.178c-.379-.846-1.07-9.553-1.073-9.635-.177-3.566-.245-6.794-.245-6.826l-.006-.3,14.611-.177.021.279c0,.031.232,3.112.334,6.616a1.558,1.558,0,0,1,1.469-.2,1.211,1.211,0,0,1,.522,1.113,3.775,3.775,0,0,1-1.947,3.2c-.069,5.5-.747,6.22-.97,6.458a.3.3,0,1,1-.434-.408c.278-.3.753-1.48.809-6.083a.543.543,0,0,1,.261-.46,3.211,3.211,0,0,0,1.687-2.691c-.006-.188-.043-.516-.214-.611s-.565,0-1.032.277a.485.485,0,0,1-.484,0,.5.5,0,0,1-.257-.428c-.083-2.945-.258-5.62-.317-6.469l-13.448.163c.021.881.093,3.58.238,6.508.033.593.723,8.752,1.022,9.42a2.107,2.107,0,0,0,.9.915l.034.024s1.013.656,5.819.6a.3.3,0,1,1,.007.6q-.314,0-.607,0" transform="translate(-131.212 -21.649)"/>
    <path id="Path_6789" data-name="Path 6789" d="M274.532,193.706s-3.29-5.291-3.792-7.126c-.306-1.121.48-6.456.48-6.456l2.012-36.7,7.825,2.616s-5.647,32.692-5.64,34.092,3.472,5.312,3.3,6.282-3.69-2.395-3.69-2.395a19.97,19.97,0,0,0-.353,3.782c.267,1.727.827,5.905.541,6.8-.217.682-1.76-3.333-2.55-6.622a11.377,11.377,0,0,1-.074-3.09Z" transform="translate(-118.548 -62.818)" fill="#fff"/>
    <path id="Path_6790" data-name="Path 6790" d="M274.79,194.655h-.017c-.216-.007-.456-.016-1-1.225-.312-.5-3.325-5.392-3.822-7.21-.319-1.165.371-5.975.466-6.621l2.043-37.27,8.756,2.926-.066.383c-2.267,13.125-5.639,33.015-5.634,34.012,0,.586.954,2.018,1.717,3.168,1.08,1.627,1.685,2.577,1.574,3.2a.636.636,0,0,1-.433.514c-.546.178-1.686-.52-3.391-2.077a13.727,13.727,0,0,0-.218,2.8c.151.973.883,5.886.525,7.011a.528.528,0,0,1-.5.392m-.33-1.7c-.058-1.343-.292-3.662-.585-5.561a19.172,19.172,0,0,1,.354-3.93l.147-.833.611.584a19.072,19.072,0,0,0,2.838,2.31,19.975,19.975,0,0,0-1.342-2.2c-1.125-1.7-1.864-2.867-1.868-3.663-.007-1.356,4.917-29.941,5.581-33.788l-6.894-2.3-1.981,36.127,0,.02a32.007,32.007,0,0,0-.491,6.271c.182.666,3.115,5.73,3.633,6.97" transform="translate(-118.198 -62.337)"/>
    <path id="Path_6791" data-name="Path 6791" d="M277.573,105.778l2.066,12.9c-.431,2.839-2.817,32.44-2.817,32.44h39.586l-3.152-26.24.66-4.162,9.122-2.07c.691-1.639-2.9-17.234-4.843-18.924-2.522-2.2-9.634-7.233-11.956-7.564-.563-.08-.266-4.176-1.651-4.233-2.695-.109-9.992.169-12.07,0-1.012-.081-.826,3.851-.826,3.851s-1.463.868-2.584,1.429c-6.26,3.13-9.7,9.309-11.535,12.575" transform="translate(-121.243 -38.497)" fill="#ab262e"/>
    <path id="Path_6792" data-name="Path 6792" d="M338.9,226.775v-2.387a2.912,2.912,0,0,0-2.909-2.909h-3.9a2.912,2.912,0,0,0-2.91,2.909v2.387h-12.1V252.27H351V226.775Zm-8.485,0v-2.387a1.673,1.673,0,0,1,1.671-1.671h3.9a1.673,1.673,0,0,1,1.671,1.671v2.387Z" transform="translate(-138.877 -97.004)" fill="#fff"/>
    <path id="Path_6793" data-name="Path 6793" d="M338.9,226.775v-2.387a2.912,2.912,0,0,0-2.909-2.909h-3.9a2.912,2.912,0,0,0-2.91,2.909v2.387h-12.1V252.27H351V226.775Zm-8.485,0v-2.387a1.673,1.673,0,0,1,1.671-1.671h3.9a1.673,1.673,0,0,1,1.671,1.671v2.387Z" transform="translate(-138.877 -97.004)" fill="none" stroke="#000" stroke-width="1"/>
    <path id="Path_6794" data-name="Path 6794" d="M338.292,161.447c.686,7.007,2.417,21.593,1.8,22.237-.861.905-4.936,3.083-5.493,3.893-.337.491,2.856.114,2.993.126l-.19,1.081s.359.712.908.676c.471-.031.9-.606,1.33-.566a5.761,5.761,0,0,0,1.039.418c.364.034.855-.551,1.171-.671.232-.088.786.4,1.14.314.568-.142.617-.848,1.018-.957.377-.1.687.5,1.34.288s-.418-3.948-.139-4.615c.975-2.339,2.844-43.832.782-40.248-.649,1.127-8.559-.764-9.228.7,0,0,1.329,15.31,1.526,17.328" transform="translate(-146.539 -62.72)" fill="#fff"/>
    <path id="Path_6795" data-name="Path 6795" d="M337.978,189.542c-.733,0-1.153-.791-1.2-.883l-.056-.111.128-.728c-2.245.186-2.691.079-2.879-.242a.466.466,0,0,1,.03-.507,13.283,13.283,0,0,1,2.955-2.151,20.823,20.823,0,0,0,2.545-1.758c.326-.99-.656-10.292-1.307-16.465-.215-2.037-.418-3.962-.569-5.507-.2-2-1.513-17.179-1.526-17.332l-.009-.1.042-.09c.432-.944,2.324-.881,5.392-.663,1.341.1,3.586.255,3.854-.069.306-.531.672-.4.777-.352.3.149.761.375.841,6.671.055,4.336-.092,9.663-.225,13.368-.334,9.3-.989,19.658-1.5,20.9a8.278,8.278,0,0,0,.164,1.834c.263,1.775.38,2.789-.256,2.994a1.349,1.349,0,0,1-1.163-.184.925.925,0,0,0-.2-.1,1.155,1.155,0,0,0-.181.247,1.137,1.137,0,0,1-1.743.509c-.071-.034-.173-.083-.233-.1a3.31,3.31,0,0,0-.285.207,1.542,1.542,0,0,1-1.009.464,3.674,3.674,0,0,1-1.011-.382l-.069-.033a1.526,1.526,0,0,0-.393.211,1.782,1.782,0,0,1-.836.354l-.068,0m-.471-1.123c.11.166.3.377.49.372a1.288,1.288,0,0,0,.476-.234,1.449,1.449,0,0,1,.913-.331.786.786,0,0,1,.285.108,3.6,3.6,0,0,0,.754.31,1.791,1.791,0,0,0,.477-.307,2.175,2.175,0,0,1,.526-.34,1,1,0,0,1,.778.149,1.28,1.28,0,0,0,.407.15c.153-.038.243-.17.378-.383a1.135,1.135,0,0,1,.629-.571.972.972,0,0,1,.759.169.7.7,0,0,0,.488.143,9.482,9.482,0,0,0-.18-2.189,5.464,5.464,0,0,1-.115-2.232c.408-.978,1.063-10.21,1.43-20.161.435-11.769.261-18.108-.125-19.573-.558.5-2.024.425-4.407.256-1.58-.112-4.181-.3-4.612.163.128,1.47,1.329,15.3,1.515,17.2.151,1.542.354,3.465.569,5.5,1.375,13.031,1.608,16.533,1.134,17.031a18.759,18.759,0,0,1-2.717,1.905c-.846.536-1.85,1.172-2.389,1.606.352.007.951-.015,1.953-.1a2.7,2.7,0,0,1,.415-.025l.407.037Z" transform="translate(-146.246 -62.427)"/>
    <path id="Path_6796" data-name="Path 6796" d="M331.465,126.4l6.684,47.4H348.4l-1.339-39.287Z" transform="translate(-145.175 -55.36)" fill="#ab262e"/>
    <path id="Path_6797" data-name="Path 6797" d="M348.9,175.4H338.326l-5.7-45.793a.376.376,0,0,1,.745-.093l5.614,45.135H348.9a.376.376,0,0,1,0,.751" transform="translate(-145.684 -56.579)"/>
    <path id="Path_6798" data-name="Path 6798" d="M313.722,45.611c-2.373,2.742-12.841,5.438-17.81-3.7s9.126-1.938,13.747-.646c1.978.553,6.1,2,4.063,4.345" transform="translate(-129.146 -16.359)" fill="#fff"/>
    <path id="Path_6799" data-name="Path 6799" d="M313.722,45.611c-2.373,2.742-12.841,5.438-17.81-3.7s9.126-1.938,13.747-.646C311.637,41.819,315.754,43.264,313.722,45.611Z" transform="translate(-129.146 -16.359)" fill="none" stroke="#000" stroke-width="1"/>
    <path id="Path_6800" data-name="Path 6800" d="M281.42,103.678c-1.989,1.969-8.28,6.6-9.47,22.382l-1.281,34.693h6.706l3.682-43.812Z" transform="translate(-118.548 -45.409)" fill="#ab262e"/>
    <path id="Path_6801" data-name="Path 6801" d="M283.511,169.195a.347.347,0,0,1-.067-.006.375.375,0,0,1-.3-.437c.206-1.136.518-26.7.654-40.059a.375.375,0,1,1,.751.007c-.016,1.58-.4,38.7-.666,40.186a.376.376,0,0,1-.369.309" transform="translate(-124.008 -56.202)"/>
    <path id="Path_6802" data-name="Path 6802" d="M334.5,244.321l-16.247-12.213a.309.309,0,0,1,.372-.495L334.5,243.547l15.711-11.809a.309.309,0,1,1,.371.495Z" transform="translate(-139.334 -101.415)"/>
    <path id="Path_6803" data-name="Path 6803" d="M346.413,254.992h-.58a1.164,1.164,0,0,1-1.165-1.164v-2.761a1.164,1.164,0,0,1,1.165-1.164h.58a1.164,1.164,0,0,1,1.164,1.164v2.761a1.164,1.164,0,0,1-1.164,1.164" transform="translate(-150.958 -109.453)"/>
    <path id="Path_6804" data-name="Path 6804" d="M18.342,316.359H52.8l-4.127,36.829-26.409.079Z" transform="translate(-8.034 -138.559)" fill="#fff"/>
    <path id="Path_6805" data-name="Path 6805" d="M18.342,316.359H52.8l-4.127,36.829-26.409.079Z" transform="translate(-8.034 -138.559)" fill="none" stroke="#000" stroke-width="1"/>
    <path id="Path_6806" data-name="Path 6806" d="M1.283,210.875s7.428,20.56,7.428,28.918,1.493,16.215,7.682,18.725a9.932,9.932,0,0,0,11.706-2.8c1.292-1.857,3.853-13.636-8.8-27.4C14.335,222.9,1.283,210.875,1.283,210.875" transform="translate(-0.562 -92.359)" fill="#fff"/>
    <path id="Path_6807" data-name="Path 6807" d="M28.673,245.585c-.682-4.285-2.92-10.944-9.7-18.329C14.049,221.9,1.062,209.921.931,209.8L0,208.943l.43,1.191c.074.205,7.41,20.6,7.41,28.813,0,10.644,2.576,16.863,7.875,19.012a11.171,11.171,0,0,0,4.222.864,9.949,9.949,0,0,0,3.491-.633A60.7,60.7,0,0,1,26.1,269.343a.272.272,0,0,0,.27.242l.03,0a.272.272,0,0,0,.241-.3,61.422,61.422,0,0,0-2.713-11.3,9.624,9.624,0,0,0,3.859-2.938c.751-1.08,1.655-4.6.882-9.462m-1.39,9.108a8.912,8.912,0,0,1-3.541,2.706c-4.6-14.04-12.8-30.7-12.907-30.917a.272.272,0,0,0-.488.242c.108.219,8.317,16.888,12.892,30.88a9.785,9.785,0,0,1-7.291-.219c-5.04-2.044-7.489-8.074-7.489-18.438,0-7.257-5.438-23.306-7.026-27.837,3.065,2.843,12.943,12.063,17.08,16.566,12.8,13.928,9.845,25.473,8.77,27.018" transform="translate(0 -91.513)"/>
    <path id="Path_6808" data-name="Path 6808" d="M34.7,168.289s-6.329,27.27-2.861,43.83,6.989,22.787,11.416,18.32,3-33.3-.127-42.394A197.438,197.438,0,0,0,34.7,168.289" transform="translate(-13.488 -73.707)" fill="#fff"/>
    <path id="Path_6809" data-name="Path 6809" d="M46.1,210.262c-.2-9.3-1.374-18.549-2.914-23.027a199.217,199.217,0,0,0-8.443-19.793l-.383-.772-.2.84c-.064.273-6.305,27.526-2.863,43.963,2.65,12.661,5.283,18.971,8.282,19.857a2.672,2.672,0,0,0,.761.111,2.807,2.807,0,0,0,.726-.1c.94,9.089,1.558,16.717,1.338,19.432a.271.271,0,0,0,.249.293h.022a.273.273,0,0,0,.271-.25c.227-2.789-.4-10.508-1.344-19.67a5.686,5.686,0,0,0,1.634-1.2c2.9-2.93,2.966-14.743,2.86-19.686M41.535,230.5c-1.924-18.453-5.093-42.352-5.293-43.855a.272.272,0,0,0-.54.072c.049.372,3.333,25.131,5.3,44.008a2.118,2.118,0,0,1-1.246.015c-2.72-.8-5.289-7.146-7.852-19.39-3.07-14.66,1.642-38.068,2.669-42.835A193.22,193.22,0,0,1,42.6,187.436c1.5,4.354,2.681,13.746,2.88,22.839.221,10.13-.781,17.321-2.68,19.237a5.409,5.409,0,0,1-1.262.984" transform="translate(-13.254 -72.999)"/>
    <path id="Path_6810" data-name="Path 6810" d="M58.34,29.052A14.526,14.526,0,1,1,72.866,14.527,14.542,14.542,0,0,1,58.34,29.052M58.34.62A13.907,13.907,0,1,0,72.247,14.527,13.922,13.922,0,0,0,58.34.62" transform="translate(-19.19 0)"/>
    <path id="Path_6811" data-name="Path 6811" d="M62.888,21.075,54.33,17.12a.334.334,0,0,1,.281-.607l8.223,3.8,9.534-6.176a.334.334,0,1,1,.364.561Z" transform="translate(-23.71 -6.168)"/>
    <path id="Path_6812" data-name="Path 6812" d="M144.42,29.052a14.526,14.526,0,1,1,14.526-14.525A14.542,14.542,0,0,1,144.42,29.052m0-28.433a13.907,13.907,0,1,0,13.907,13.907A13.922,13.922,0,0,0,144.42.62" transform="translate(-56.891 0)"/>
    <path id="Path_6813" data-name="Path 6813" d="M159.864,30.58a.335.335,0,0,1-.3-.181l-5.379-10.423,3.367-5.728a.334.334,0,0,1,.577.339L154.952,20l5.209,10.095a.335.335,0,0,1-.3.488" transform="translate(-67.531 -6.168)"/>
    <path id="Path_6814" data-name="Path 6814" d="M235.157,29.052a14.526,14.526,0,1,1,14.526-14.525,14.542,14.542,0,0,1-14.526,14.525m0-28.433a13.907,13.907,0,1,0,13.907,13.907A13.923,13.923,0,0,0,235.157.62" transform="translate(-96.632 0)"/>
    <path id="Path_6815" data-name="Path 6815" d="M255.2,24.344a.335.335,0,0,1-.15-.036l-9.172-4.629V11.63a.335.335,0,0,1,.669,0v7.637l8.8,4.443a.335.335,0,0,1-.151.633" transform="translate(-107.692 -4.947)"/>
  </g>
</svg>
