<svg xmlns="http://www.w3.org/2000/svg" xmlns:xlink="http://www.w3.org/1999/xlink" width="77.533" height="78.176" viewBox="0 0 77.533 78.176">
  <defs>
    <filter id="Ellipse_64" x="0" y="0" width="77.533" height="78.176" filterUnits="userSpaceOnUse">
      <feOffset dy="7" input="SourceAlpha"/>
      <feGaussianBlur stdDeviation="4.5" result="blur"/>
      <feFlood flood-opacity="0.161"/>
      <feComposite operator="in" in2="blur"/>
      <feComposite in="SourceGraphic"/>
    </filter>
  </defs>
  <g id="Group_2051" data-name="Group 2051" transform="translate(13.5 6.5)">
    <g transform="matrix(1, 0, 0, 1, -13.5, -6.5)" filter="url(#Ellipse_64)">
      <g id="Ellipse_64-2" data-name="Ellipse 64" transform="translate(13.5 6.5)" fill="#8d1118" stroke="#fff" stroke-width="1">
        <ellipse cx="25.266" cy="25.588" rx="25.266" ry="25.588" stroke="none"/>
        <ellipse cx="25.266" cy="25.588" rx="24.766" ry="25.088" fill="none"/>
      </g>
    </g>
    <path id="_7872171751655473166_1_" data-name="7872171751655473166 (1)" d="M20.222,5,5,20.222M9.349,7.175A2.175,2.175,0,1,1,7.175,5,2.175,2.175,0,0,1,9.349,7.175ZM20.222,18.048a2.175,2.175,0,1,1-2.175-2.175A2.175,2.175,0,0,1,20.222,18.048Z" transform="translate(12.655 13.357)" fill="none" stroke="#fff" stroke-linecap="round" stroke-linejoin="round" stroke-width="2"/>
  </g>
</svg>
