<svg xmlns="http://www.w3.org/2000/svg" width="75" height="75" viewBox="0 0 75 75">
  <g id="Group_2269" data-name="Group 2269" transform="translate(-138 -924.25)">
    <circle id="Ellipse_135" data-name="Ellipse 135" cx="37.5" cy="37.5" r="37.5" transform="translate(138 924.25)" fill="#c91429"/>
    <g id="Group_2111" data-name="Group 2111" transform="translate(162.551 949.587)">
      <path id="noun-salary-2279793" d="M93.47,0H72.428A2.36,2.36,0,0,0,70,2.432V20.249a2.36,2.36,0,0,0,2.428,2.428H93.47A2.36,2.36,0,0,0,95.9,20.249V2.432A2.36,2.36,0,0,0,93.47,0ZM71.619,2.442a.744.744,0,0,1,.809-.819h.66a2.425,2.425,0,0,1-1.47,1.47Zm0,13.9a2.425,2.425,0,0,1,1.47,1.47h-.651A.743.743,0,0,1,71.619,17ZM94.28,20.227a.743.743,0,0,1-.809.819H72.438a.743.743,0,0,1-.819-.809v-.946a2.6,2.6,0,0,0,.809.137H93.47a2.633,2.633,0,0,0,.809-.131Zm0-3.237a.743.743,0,0,1-.809.819h-.66a2.425,2.425,0,0,1,1.47-1.47Zm0-2.337a4.06,4.06,0,0,0-3.156,3.156H74.774a4.06,4.06,0,0,0-3.156-3.156V4.778a4.06,4.06,0,0,0,3.156-3.156h16.35A4.059,4.059,0,0,0,94.28,4.778Zm0-11.561a2.425,2.425,0,0,1-1.47-1.47h.651a.744.744,0,0,1,.819.809Z" transform="translate(-70 1.996)" fill="#fff"/>
      <path id="Path_7491" data-name="Path 7491" d="M55.559,78.805H53.61a2.943,2.943,0,0,0-.974-1.841h2.923a.368.368,0,1,0,0-.737H48.113a.368.368,0,0,0,0,.737h2.578a2.215,2.215,0,0,1,2.176,1.841H48.113a.368.368,0,0,0,0,.737h4.756a2.215,2.215,0,0,1-2.176,1.841H48.113a.368.368,0,0,0-.26.63l5.156,5.156a.368.368,0,0,0,.521-.519L49,82.12h1.688a2.946,2.946,0,0,0,2.923-2.578h1.949a.368.368,0,0,0,0-.737h-.006Z" transform="translate(-38.89 -69.437)" fill="#fff" stroke="#fff" stroke-width="0.2"/>
    </g>
  </g>
</svg>
