<svg id="Group_1645" data-name="Group 1645" xmlns="http://www.w3.org/2000/svg" xmlns:xlink="http://www.w3.org/1999/xlink" width="135.735" height="168.637" viewBox="0 0 135.735 168.637">
  <defs>
    <clipPath id="clip-path">
      <rect id="Rectangle_1267" data-name="Rectangle 1267" width="135.735" height="168.637" fill="none"/>
    </clipPath>
  </defs>
  <g id="Group_1644" data-name="Group 1644" clip-path="url(#clip-path)">
    <path id="Path_7233" data-name="Path 7233" d="M133.7,111.218a19.135,19.135,0,1,1-19.135-19.089A19.112,19.112,0,0,1,133.7,111.218" transform="translate(-45.716 -44.135)" fill="#e2a327"/>
    <path id="Path_7234" data-name="Path 7234" d="M114.358,130.325a19.314,19.314,0,1,1,19.36-19.314,19.359,19.359,0,0,1-19.36,19.314m0-38.178a18.864,18.864,0,1,0,18.91,18.864,18.909,18.909,0,0,0-18.91-18.864" transform="translate(-45.509 -43.928)"/>
    <path id="Path_7235" data-name="Path 7235" d="M133.454,114.041A16.058,16.058,0,1,1,117.4,98.021a16.039,16.039,0,0,1,16.058,16.02" transform="translate(-48.546 -46.957)" fill="#e2a327"/>
    <path id="Path_7236" data-name="Path 7236" d="M157.87,141.632a.225.225,0,0,1-.189-.347,15.71,15.71,0,0,0,1.88-4.09.225.225,0,1,1,.431.128,16.158,16.158,0,0,1-1.934,4.207.226.226,0,0,1-.189.1" transform="translate(-75.521 -65.647)"/>
    <path id="Path_7237" data-name="Path 7237" d="M134.493,107.071a.225.225,0,0,1-.2-.127,15.735,15.735,0,0,0-14.252-8.906,15.914,15.914,0,0,0-12.777,6.465.225.225,0,0,1-.363-.266,16.366,16.366,0,0,1,13.14-6.649,16.183,16.183,0,0,1,14.657,9.158.225.225,0,0,1-.2.323" transform="translate(-51.19 -46.751)"/>
    <path id="Path_7238" data-name="Path 7238" d="M117.188,137.61a16.242,16.242,0,0,1-14.209-24.184.225.225,0,0,1,.392.22,15.793,15.793,0,0,0,13.817,23.514.225.225,0,1,1,0,.45" transform="translate(-48.339 -54.282)"/>
    <path id="Path_7239" data-name="Path 7239" d="M133.518,118.273H130.5a4.562,4.562,0,0,0-1.514-2.852h4.532a.571.571,0,0,0,.039-1.141H121.984a.571.571,0,0,0,0,1.141h3.993a3.422,3.422,0,0,1,3.371,2.852h-7.364a.571.571,0,0,0,0,1.141h7.364a3.423,3.423,0,0,1-3.371,2.852h-3.993a.571.571,0,0,0-.4.976l7.986,7.985a.571.571,0,0,0,.807-.8l-7.013-7.016h2.615a4.564,4.564,0,0,0,4.524-3.992h3.017a.571.571,0,0,0,.039-1.141h-.04Z" transform="translate(-58.164 -54.746)"/>
    <path id="Path_7240" data-name="Path 7240" d="M133.518,118.273H130.5a4.562,4.562,0,0,0-1.514-2.852h4.532a.571.571,0,0,0,.039-1.141H121.984a.571.571,0,0,0,0,1.141h3.993a3.422,3.422,0,0,1,3.371,2.852h-7.364a.571.571,0,0,0,0,1.141h7.364a3.423,3.423,0,0,1-3.371,2.852h-3.993a.571.571,0,0,0-.4.976l7.986,7.985a.571.571,0,0,0,.807-.8l-7.013-7.016h2.615a4.564,4.564,0,0,0,4.524-3.992h3.017a.571.571,0,0,0,.039-1.141h-.04Z" transform="translate(-58.164 -54.746)" fill="none" stroke="#000" stroke-width="0.3"/>
    <path id="Path_7263" data-name="Path 7263" d="M59.844,85.926l41.1-2.106-3.116,13.2-41.545,4.049Z" transform="translate(-11.045 -16.45)" fill="#fff"/>
    <path id="Path_7241" data-name="Path 7241" d="M122.627,234.284l-116.313.037c-4.5-1.4-5.53-2.76-5.53-6.491L.763,147.867a7.11,7.11,0,0,1,6.562-7.108H124.218c3.624-.194,6.846,3.376,6.846,7.108l.131,79.307a6.88,6.88,0,0,1-6.284,7.11" transform="translate(-0.085 -67.431)" fill="#ab1b2d"/>
    <path id="Path_7242" data-name="Path 7242" d="M8.688,225.19a6.316,6.316,0,0,1-4.383-1.739,6.671,6.671,0,0,1-2.058-4.9V138.817a7.347,7.347,0,0,1,6.775-7.333l113.312-6.055a6.33,6.33,0,0,1,4.742,1.73,6.67,6.67,0,0,1,2.058,4.9v79.733a7.347,7.347,0,0,1-6.775,7.333L9.048,225.181q-.181.009-.359.009m114.005-99.322c-.111,0-.222,0-.334.009L9.048,131.933a6.891,6.891,0,0,0-6.35,6.883V218.55a6.225,6.225,0,0,0,1.917,4.575,5.883,5.883,0,0,0,4.408,1.607l113.312-6.055.013.225-.013-.225a6.89,6.89,0,0,0,6.35-6.883V132.059a6.225,6.225,0,0,0-1.917-4.575,5.872,5.872,0,0,0-4.074-1.616" transform="translate(-1.077 -60.083)"/>
    <path id="Path_7243" data-name="Path 7243" d="M201.936,40.5a13.637,13.637,0,1,1-15.078-12,13.611,13.611,0,0,1,15.078,12" transform="translate(-83.713 -13.614)" fill="#e2a327"/>
    <path id="Path_7244" data-name="Path 7244" d="M188.167,55.645A13.869,13.869,0,0,1,174.4,43.364a13.837,13.837,0,0,1,12.224-15.29,13.871,13.871,0,0,1,15.326,12.195,13.837,13.837,0,0,1-12.223,15.289,14.013,14.013,0,0,1-1.562.088m.02-27.209a13.614,13.614,0,0,0-1.511.085,13.409,13.409,0,1,0,1.511-.085" transform="translate(-83.506 -13.407)"/>
    <path id="Path_7245" data-name="Path 7245" d="M201.773,42.757A11.444,11.444,0,1,1,189.12,32.69a11.423,11.423,0,0,1,12.653,10.067" transform="translate(-85.73 -15.625)" fill="#e2a327"/>
    <path id="Path_7246" data-name="Path 7246" d="M220.4,61.445a.225.225,0,0,1-.2-.325,11.128,11.128,0,0,0,1-3.028.225.225,0,0,1,.443.078,11.582,11.582,0,0,1-1.039,3.15.225.225,0,0,1-.2.125" transform="translate(-105.478 -27.74)"/>
    <path id="Path_7247" data-name="Path 7247" d="M181.65,38.381a.23.23,0,0,1-.112-.03.225.225,0,0,1-.083-.307,11.687,11.687,0,0,1,20-.437.225.225,0,1,1-.38.241,11.155,11.155,0,0,0-10.743-5.143,11.268,11.268,0,0,0-8.483,5.563.225.225,0,0,1-.2.113" transform="translate(-86.913 -15.418)"/>
    <path id="Path_7248" data-name="Path 7248" d="M190.187,61.9a11.642,11.642,0,0,1-10.748-16.16.225.225,0,0,1,.414.176,11.195,11.195,0,0,0,11.6,15.463.225.225,0,1,1,.05.447,11.8,11.8,0,0,1-1.314.074" transform="translate(-85.524 -21.844)"/>
    <path id="Path_7249" data-name="Path 7249" d="M198.52,43.215l-2.571.645a4.009,4.009,0,0,0-1.9-2.108l3.863-.968a.5.5,0,0,0-.211-.981l-.033.008-9.831,2.465a.5.5,0,0,0,.244.973l3.4-.853a3.007,3.007,0,0,1,3.483,1.71L188.69,45.68a.5.5,0,0,0,.244.972l6.276-1.574a3.008,3.008,0,0,1-2.264,3.152l-3.4.853a.5.5,0,0,0-.134.918l8.513,5.1a.5.5,0,0,0,.516-.858l-7.478-4.481,2.229-.559a4.01,4.01,0,0,0,3-4.37l2.572-.645a.5.5,0,0,0-.21-.98l-.033.008Z" transform="translate(-89.81 -19.062)"/>
    <path id="Path_7250" data-name="Path 7250" d="M198.52,43.215l-2.571.645a4.009,4.009,0,0,0-1.9-2.108l3.863-.968a.5.5,0,0,0-.211-.981l-.033.008-9.831,2.465a.5.5,0,0,0,.244.973l3.4-.853a3.007,3.007,0,0,1,3.483,1.71L188.69,45.68a.5.5,0,0,0,.244.972l6.276-1.574a3.008,3.008,0,0,1-2.264,3.152l-3.4.853a.5.5,0,0,0-.134.918l8.513,5.1a.5.5,0,0,0,.516-.858l-7.478-4.481,2.229-.559a4.01,4.01,0,0,0,3-4.37l2.572-.645a.5.5,0,0,0-.21-.98l-.033.008Z" transform="translate(-89.81 -19.062)" fill="none" stroke="#000" stroke-width="0.3"/>
    <path id="Path_7251" data-name="Path 7251" d="M124.493,234.458H7.487a6.98,6.98,0,0,1-6.972-6.972V147.733a6.98,6.98,0,0,1,6.972-6.973H124.493a6.98,6.98,0,0,1,6.972,6.973v79.752a6.98,6.98,0,0,1-6.972,6.972M7.487,141.21a6.53,6.53,0,0,0-6.523,6.523v79.752a6.53,6.53,0,0,0,6.523,6.522H124.493a6.53,6.53,0,0,0,6.523-6.522V147.733a6.53,6.53,0,0,0-6.523-6.523Z" transform="translate(-0.247 -67.432)"/>
    <path id="Path_7252" data-name="Path 7252" d="M127.039,234.336h-2.7a.225.225,0,1,1,0-.45h2.7a4.826,4.826,0,0,0,.85-.076.225.225,0,0,1,.08.443,5.281,5.281,0,0,1-.93.083m-5.4,0h-2.7a.225.225,0,1,1,0-.45h2.7a.225.225,0,1,1,0,.45m-5.4,0h-2.7a.225.225,0,1,1,0-.45h2.7a.225.225,0,1,1,0,.45m-5.4,0h-2.7a.225.225,0,1,1,0-.45h2.7a.225.225,0,1,1,0,.45m-5.4,0h-2.7a.225.225,0,1,1,0-.45h2.7a.225.225,0,1,1,0,.45m-5.4,0h-2.7a.225.225,0,0,1,0-.45h2.7a.225.225,0,1,1,0,.45m-5.4,0h-2.7a.225.225,0,1,1,0-.45h2.7a.225.225,0,1,1,0,.45m-5.4,0h-2.7a.225.225,0,1,1,0-.45h2.7a.225.225,0,1,1,0,.45m-5.4,0h-2.7a.225.225,0,1,1,0-.45h2.7a.225.225,0,1,1,0,.45m-5.4,0h-2.7a.225.225,0,1,1,0-.45h2.7a.225.225,0,1,1,0,.45m-5.4,0h-2.7a.225.225,0,0,1,0-.45h2.7a.225.225,0,1,1,0,.45m-5.4,0h-2.7a.225.225,0,0,1,0-.45h2.7a.225.225,0,1,1,0,.45m-5.4,0h-2.7a.225.225,0,0,1,0-.45h2.7a.225.225,0,1,1,0,.45m-5.4,0h-2.7a.225.225,0,0,1,0-.45h2.7a.225.225,0,1,1,0,.45m-5.4,0h-2.7a.225.225,0,0,1,0-.45h2.7a.225.225,0,1,1,0,.45m-5.4,0h-2.7a.225.225,0,0,1,0-.45h2.7a.225.225,0,1,1,0,.45m-5.4,0h-2.7a.225.225,0,0,1,0-.45h2.7a.225.225,0,1,1,0,.45m-5.4,0h-2.7a.225.225,0,1,1,0-.45h2.7a.225.225,0,1,1,0,.45m-5.4,0h-2.7a.225.225,0,1,1,0-.45h2.7a.225.225,0,0,1,0,.45m-5.4,0h-2.7a.225.225,0,1,1,0-.45h2.7a.225.225,0,0,1,0,.45m-5.4,0h-2.7a.225.225,0,1,1,0-.45h2.7a.225.225,0,0,1,0,.45m-5.4-.008h-.013a5.2,5.2,0,0,1-2.638-.9.225.225,0,1,1,.253-.371,4.749,4.749,0,0,0,2.41.818.225.225,0,0,1-.013.45m116.648-1.23a.225.225,0,0,1-.148-.394,4.763,4.763,0,0,0,1.4-2.128.225.225,0,1,1,.428.137,5.219,5.219,0,0,1-1.528,2.329.224.224,0,0,1-.148.056M9.435,231.437a.226.226,0,0,1-.2-.131,5.167,5.167,0,0,1-.477-2.183v-.543a.225.225,0,1,1,.45,0v.543a4.723,4.723,0,0,0,.436,1.995.225.225,0,0,1-.2.319m122.593-3.242a.225.225,0,0,1-.225-.225v-2.7a.225.225,0,0,1,.45,0v2.7a.225.225,0,0,1-.225.225m-123.05-2.09a.225.225,0,0,1-.225-.225v-2.7a.225.225,0,1,1,.45,0v2.7a.225.225,0,0,1-.225.225m123.05-3.309a.225.225,0,0,1-.225-.225v-2.7a.225.225,0,0,1,.45,0v2.7a.225.225,0,0,1-.225.225m-123.05-2.09a.225.225,0,0,1-.225-.225v-2.7a.225.225,0,1,1,.45,0v2.7a.225.225,0,0,1-.225.225m123.05-3.309a.225.225,0,0,1-.225-.225v-2.7a.225.225,0,0,1,.45,0v2.7a.225.225,0,0,1-.225.225M8.978,215.309a.225.225,0,0,1-.225-.225v-2.7a.225.225,0,1,1,.45,0v2.7a.225.225,0,0,1-.225.225M132.028,212a.225.225,0,0,1-.225-.225v-2.7a.225.225,0,0,1,.45,0v2.7a.225.225,0,0,1-.225.225M8.978,209.912a.225.225,0,0,1-.225-.225v-2.7a.225.225,0,1,1,.45,0v2.7a.225.225,0,0,1-.225.225m123.05-3.309a.225.225,0,0,1-.225-.225v-2.7a.225.225,0,1,1,.45,0v2.7a.225.225,0,0,1-.225.225M8.978,204.514a.225.225,0,0,1-.225-.225v-2.7a.225.225,0,1,1,.45,0v2.7a.225.225,0,0,1-.225.225m123.05-3.309a.225.225,0,0,1-.225-.225v-2.7a.225.225,0,1,1,.45,0v2.7a.225.225,0,0,1-.225.225M8.978,199.116a.225.225,0,0,1-.225-.225v-2.7a.225.225,0,1,1,.45,0v2.7a.225.225,0,0,1-.225.225m123.05-3.309a.225.225,0,0,1-.225-.225v-2.7a.225.225,0,1,1,.45,0v2.7a.225.225,0,0,1-.225.225M8.978,193.718a.225.225,0,0,1-.225-.225v-2.7a.225.225,0,1,1,.45,0v2.7a.225.225,0,0,1-.225.225m123.05-3.309a.225.225,0,0,1-.225-.225v-2.7a.225.225,0,1,1,.45,0v2.7a.225.225,0,0,1-.225.225M8.978,188.32a.225.225,0,0,1-.225-.225v-2.7a.225.225,0,1,1,.45,0v2.7a.225.225,0,0,1-.225.225m123.05-3.309a.225.225,0,0,1-.225-.225v-2.7a.225.225,0,1,1,.45,0v2.7a.225.225,0,0,1-.225.225M8.978,182.922a.225.225,0,0,1-.225-.225V180a.225.225,0,1,1,.45,0v2.7a.225.225,0,0,1-.225.225m123.05-3.309a.225.225,0,0,1-.225-.225v-2.7a.225.225,0,1,1,.45,0v2.7a.225.225,0,0,1-.225.225M8.978,177.524a.225.225,0,0,1-.225-.225v-2.7a.225.225,0,1,1,.45,0v2.7a.225.225,0,0,1-.225.225m123.05-3.309a.225.225,0,0,1-.225-.225v-2.7a.225.225,0,0,1,.45,0v2.7a.225.225,0,0,1-.225.225M8.978,172.126a.225.225,0,0,1-.225-.225v-2.7a.225.225,0,1,1,.45,0v2.7a.225.225,0,0,1-.225.225m123.05-3.309a.225.225,0,0,1-.225-.225v-2.7a.225.225,0,0,1,.45,0v2.7a.225.225,0,0,1-.225.225M8.978,166.728a.225.225,0,0,1-.225-.225v-2.7a.225.225,0,1,1,.45,0v2.7a.225.225,0,0,1-.225.225m123.05-3.309a.225.225,0,0,1-.225-.225v-2.7a.225.225,0,1,1,.45,0v2.7a.225.225,0,0,1-.225.225M8.978,161.33a.225.225,0,0,1-.225-.225v-2.7a.225.225,0,1,1,.45,0v2.7a.225.225,0,0,1-.225.225m123.05-3.309a.225.225,0,0,1-.225-.225v-2.7a.225.225,0,0,1,.45,0v2.7a.225.225,0,0,1-.225.225M8.978,155.931a.225.225,0,0,1-.225-.225v-2.7a.225.225,0,1,1,.45,0v2.7a.225.225,0,0,1-.225.225m123.05-3.309a.225.225,0,0,1-.225-.225v-.1a4.756,4.756,0,0,0-.632-2.374.225.225,0,1,1,.39-.224,5.211,5.211,0,0,1,.693,2.6v.1a.225.225,0,0,1-.225.225M9.369,150.587a.231.231,0,0,1-.088-.018.225.225,0,0,1-.119-.295,5.234,5.234,0,0,1,1.73-2.183.225.225,0,0,1,.266.364,4.77,4.77,0,0,0-1.582,2,.224.224,0,0,1-.207.137m120.1-2.418a.217.217,0,0,1-.109-.029,4.768,4.768,0,0,0-2.319-.6h-.163a.225.225,0,0,1,0-.45h.163a5.213,5.213,0,0,1,2.538.658.225.225,0,0,1-.109.421m-115.948-.61a.225.225,0,0,1-.02-.449c.154-.014.311-.02.467-.02h2.252a.225.225,0,1,1,0,.45H13.966c-.143,0-.286.006-.427.019h-.02m110.658-.02h-2.7a.225.225,0,0,1,0-.45h2.7a.225.225,0,1,1,0,.45m-5.4,0h-2.7a.225.225,0,0,1,0-.45h2.7a.225.225,0,1,1,0,.45m-5.4,0h-2.7a.225.225,0,0,1,0-.45h2.7a.225.225,0,1,1,0,.45m-5.4,0h-2.7a.225.225,0,0,1,0-.45h2.7a.225.225,0,1,1,0,.45m-5.4,0h-2.7a.225.225,0,0,1,0-.45h2.7a.225.225,0,1,1,0,.45m-5.4,0h-2.7a.225.225,0,1,1,0-.45h2.7a.225.225,0,0,1,0,.45m-5.4,0h-2.7a.225.225,0,1,1,0-.45h2.7a.225.225,0,0,1,0,.45m-5.4,0h-2.7a.225.225,0,1,1,0-.45h2.7a.225.225,0,0,1,0,.45m-5.4,0h-2.7a.225.225,0,1,1,0-.45h2.7a.225.225,0,0,1,0,.45m-5.4,0H72.9a.225.225,0,1,1,0-.45h2.7a.225.225,0,0,1,0,.45m-5.4,0H67.5a.225.225,0,1,1,0-.45h2.7a.225.225,0,0,1,0,.45m-5.4,0H62.1a.225.225,0,1,1,0-.45h2.7a.225.225,0,0,1,0,.45m-5.4,0H56.7a.225.225,0,1,1,0-.45h2.7a.225.225,0,0,1,0,.45m-5.4,0H51.3a.225.225,0,1,1,0-.45H54a.225.225,0,1,1,0,.45m-5.4,0h-2.7a.225.225,0,1,1,0-.45h2.7a.225.225,0,1,1,0,.45m-5.4,0h-2.7a.225.225,0,1,1,0-.45h2.7a.225.225,0,1,1,0,.45m-5.4,0h-2.7a.225.225,0,1,1,0-.45h2.7a.225.225,0,1,1,0,.45m-5.4,0h-2.7a.225.225,0,1,1,0-.45h2.7a.225.225,0,1,1,0,.45m-5.4,0h-2.7a.225.225,0,1,1,0-.45h2.7a.225.225,0,1,1,0,.45m-5.4,0h-2.7a.225.225,0,1,1,0-.45h2.7a.225.225,0,1,1,0,.45" transform="translate(-4.193 -70.464)"/>
    <path id="Path_7253" data-name="Path 7253" d="M226.019,231.412H200a3.583,3.583,0,0,1-3.583-3.583V216.976A3.583,3.583,0,0,1,200,213.393h26.023a3.583,3.583,0,0,1,3.583,3.583v10.853a3.583,3.583,0,0,1-3.583,3.583" transform="translate(-94.093 -102.227)" fill="#fff"/>
    <path id="Path_7254" data-name="Path 7254" d="M225.346,231.431H200.255a4.279,4.279,0,0,1-4.274-4.274v-9.92a4.278,4.278,0,0,1,4.274-4.274h25.091a4.278,4.278,0,0,1,4.274,4.274v9.92a4.279,4.279,0,0,1-4.274,4.274m-25.091-18.019a3.828,3.828,0,0,0-3.824,3.824v9.92a3.828,3.828,0,0,0,3.824,3.824h25.091a3.829,3.829,0,0,0,3.824-3.824v-9.92a3.829,3.829,0,0,0-3.824-3.824Z" transform="translate(-93.886 -102.021)"/>
    <path id="Path_7255" data-name="Path 7255" d="M210.572,227.377a3.612,3.612,0,1,1-3.612-3.6,3.608,3.608,0,0,1,3.612,3.6" transform="translate(-97.415 -107.2)"/>
    <path id="Path_7256" data-name="Path 7256" d="M98.911,17.539A14.637,14.637,0,1,1,87,.649,14.634,14.634,0,0,1,98.911,17.539" transform="translate(-33.462 -0.206)" fill="#e2a327"/>
    <path id="Path_7257" data-name="Path 7257" d="M84.289,29.657a14.951,14.951,0,0,1-2.557-.221,14.864,14.864,0,1,1,2.557.221M84.275.449A14.425,14.425,0,0,0,70.083,12.362,14.381,14.381,0,0,0,81.81,28.993a14.412,14.412,0,0,0,16.671-11.7A14.381,14.381,0,0,0,86.754.664a14.521,14.521,0,0,0-2.48-.215" transform="translate(-33.254 0)"/>
    <path id="Path_7258" data-name="Path 7258" d="M115.085,41.783a.225.225,0,0,1-.165-.378,11.958,11.958,0,0,0,1.946-2.824.225.225,0,0,1,.4.2,12.432,12.432,0,0,1-2.019,2.93.224.224,0,0,1-.165.072" transform="translate(-55.024 -18.423)"/>
    <path id="Path_7259" data-name="Path 7259" d="M101.722,13.842a.225.225,0,0,1-.216-.163,11.972,11.972,0,0,0-9.527-8.54A12.133,12.133,0,0,0,81.544,8.326.225.225,0,1,1,81.233,8a12.524,12.524,0,0,1,20.7,5.554.225.225,0,0,1-.154.278.212.212,0,0,1-.062.009" transform="translate(-38.882 -2.162)"/>
    <path id="Path_7260" data-name="Path 7260" d="M84.341,33.443a.245.245,0,0,1-.039,0,12.472,12.472,0,0,1-7.559-20.171.225.225,0,0,1,.349.284A12.027,12.027,0,0,0,84.379,33a.225.225,0,0,1-.038.446" transform="translate(-35.419 -6.317)"/>
    <path id="Path_7261" data-name="Path 7261" d="M99.457,21.306l-2.2-1.476a4.008,4.008,0,0,0,.29-2.822l3.308,2.217a.5.5,0,1,0,.587-.814l-.029-.019-8.418-5.643a.5.5,0,0,0-.558.832l2.915,1.954a3.008,3.008,0,0,1,1.065,3.731l-5.376-3.6a.5.5,0,0,0-.558.832l5.375,3.6A3.008,3.008,0,0,1,92,20.531l-2.914-1.954a.5.5,0,0,0-.771.515l1.922,9.736a.5.5,0,0,0,.983-.192l-1.687-8.553,1.909,1.279a4.01,4.01,0,0,0,5.255-.7l2.2,1.476a.5.5,0,0,0,.587-.814l-.029-.019Z" transform="translate(-42.302 -6.071)"/>
    <path id="Path_7262" data-name="Path 7262" d="M99.457,21.306l-2.2-1.476a4.008,4.008,0,0,0,.29-2.822l3.308,2.217a.5.5,0,1,0,.587-.814l-.029-.019-8.418-5.643a.5.5,0,0,0-.558.832l2.915,1.954a3.008,3.008,0,0,1,1.065,3.731l-5.376-3.6a.5.5,0,0,0-.558.832l5.375,3.6A3.008,3.008,0,0,1,92,20.531l-2.914-1.954a.5.5,0,0,0-.771.515l1.922,9.736a.5.5,0,0,0,.983-.192l-1.687-8.553,1.909,1.279a4.01,4.01,0,0,0,5.255-.7l2.2,1.476a.5.5,0,0,0,.587-.814l-.029-.019Z" transform="translate(-42.302 -6.071)" fill="none" stroke="#000" stroke-width="0.3"/>
  </g>
</svg>
