<svg xmlns="http://www.w3.org/2000/svg" xmlns:xlink="http://www.w3.org/1999/xlink" width="43" height="43" viewBox="0 0 43 43">
  <defs>
    <clipPath id="clip-path">
      <rect id="Rectangle_260" data-name="Rectangle 260" width="26.184" height="31.261" fill="none"/>
    </clipPath>
  </defs>
  <g id="Group_2377" data-name="Group 2377" transform="translate(-607.875 -508)">
    <rect id="Rectangle_1698" data-name="Rectangle 1698" width="42" height="42" rx="21" transform="translate(608.375 508.5)" fill="none" stroke="#c91429" stroke-width="1"/>
    <g id="Group_1776" data-name="Group 1776" transform="translate(617.182 514.04)">
      <g id="Group_108" data-name="Group 108" clip-path="url(#clip-path)">
        <path id="Path_984" data-name="Path 984" d="M12.172,30.161a4.414,4.414,0,0,0-1.131.9,3.994,3.994,0,0,0-1.013,2.417c-.1.979-.084,1.966-.177,2.946a13.565,13.565,0,0,1-.281,1.753,5.991,5.991,0,0,0-.241,1.393,7.22,7.22,0,0,0,2.441,4.718,7.5,7.5,0,0,0,2.058,1.5,3.312,3.312,0,0,0,2.306.143,9.083,9.083,0,0,0,3.516-2.009c.273-.242-.128-.641-.4-.4a9.294,9.294,0,0,1-2.631,1.65,3.425,3.425,0,0,1-2.124.269,5.138,5.138,0,0,1-1.911-1.168,7.476,7.476,0,0,1-2.66-4.284,2.891,2.891,0,0,1,.043-1.069c.136-.559.27-1.113.352-1.683.139-.964.167-1.933.214-2.9a4.384,4.384,0,0,1,.737-2.671,3.949,3.949,0,0,1,1.187-1.014c.321-.172.036-.661-.286-.489" transform="translate(-7.216 -23.301)"/>
        <path id="Path_985" data-name="Path 985" d="M16.865,33.871A6.718,6.718,0,0,0,19.8,38.564a7.028,7.028,0,0,0,2.741,1.012c.215.034.479-.192.32-.416a1.856,1.856,0,0,1-.452-1.139l-.528.143a8.953,8.953,0,0,0,3,2.575c.385.2.765.291,1,.682a3.044,3.044,0,0,1,.354,1.12,4.7,4.7,0,0,1,.009,1.265,9.458,9.458,0,0,1-.342,1.22,4.72,4.72,0,0,0,.245,3.442.285.285,0,0,0,.528-.143,5.093,5.093,0,0,1,.26-1.5,13.866,13.866,0,0,0,.779-1.965,12.492,12.492,0,0,0,.1-2.041,9.273,9.273,0,0,1,.088-1.917.94.94,0,0,1,1.127-.824,1.1,1.1,0,0,1,.7.438,1.474,1.474,0,0,1,.179.726,3.419,3.419,0,0,1-.26,1.779,2.527,2.527,0,0,1-.655.834c-.154.129-.336.215-.492.341a4.109,4.109,0,0,0-.456.453A2.419,2.419,0,0,0,27.45,45.7a4.781,4.781,0,0,0-.03,1.241q.03.9.051,1.8l.14-.244a18.473,18.473,0,0,0-1.654,1.452,9.246,9.246,0,0,0-2.213,2.983.285.285,0,0,0,.13.32.281.281,0,0,1,.033.023c-.054-.045.027.021.052.045a2.034,2.034,0,0,1,.275.307,2.835,2.835,0,0,1,.48,1.495.287.287,0,0,0,.483.2c.857-.751,1.684-1.542,2.468-2.368A12.115,12.115,0,0,0,29.118,51.2a3.584,3.584,0,0,0,.465-2.072,2.482,2.482,0,0,0-.352-1.327,1.676,1.676,0,0,0-1.25-.7c-.361-.045-.357.522,0,.566.888.111,1.06.972,1.034,1.731a3.752,3.752,0,0,1-.137,1.039,2.7,2.7,0,0,1-.354.632,19.9,19.9,0,0,1-2.881,3.087c-.278.26-.558.517-.844.768l.483.2a2.989,2.989,0,0,0-1.122-2.359l.13.32A8.086,8.086,0,0,1,26.1,50.607a19.478,19.478,0,0,1,1.69-1.535l.148-.118c.024-.019.024-.034-.043.034.039-.039.07-.048.1-.1a.353.353,0,0,0,.038-.182c.013-.37-.019-.747-.03-1.116-.014-.488-.07-.991-.045-1.479a2.086,2.086,0,0,1,.817-1.394c.209-.186.462-.318.672-.506a3.023,3.023,0,0,0,.529-.623,3.235,3.235,0,0,0,.462-1.283A2.788,2.788,0,0,0,30,39.973a1.6,1.6,0,0,0-2.329.068,3.949,3.949,0,0,0-.423,2.42c0,.556.013,1.112-.019,1.667a3.312,3.312,0,0,1-.273,1.328,6.838,6.838,0,0,0-.717,1.819,5.428,5.428,0,0,0-.126,1.052l.528-.143a4.2,4.2,0,0,1-.153-3.128,7.747,7.747,0,0,0,.319-1.181,5.148,5.148,0,0,0,.005-1.3,2.667,2.667,0,0,0-.968-2.015c-.209-.122-.451-.2-.668-.311a7.6,7.6,0,0,1-.662-.392A8.724,8.724,0,0,1,23.421,39a9.876,9.876,0,0,1-.793-.813c-.071-.082-.139-.165-.207-.249a.459.459,0,0,1-.047-.061.286.286,0,0,0-.528.143,2.3,2.3,0,0,0,.529,1.425l.32-.416a6.193,6.193,0,0,1-3.89-2.108,6.531,6.531,0,0,1-1.265-2.534c-.035-.138-.067-.277-.092-.417-.012-.068-.029-.206-.017-.1-.041-.358-.608-.362-.566,0" transform="translate(-13.043 -25.99)"/>
        <path id="Path_986" data-name="Path 986" d="M36.559,95.571V96.6c0,.284.048.475.026.761a6.161,6.161,0,0,1-.253,1.037,2.664,2.664,0,0,0-.046.972,4.179,4.179,0,0,0,.345,1.238l.044-.343a3.742,3.742,0,0,0-1.324,2.579l.527-.143a6.745,6.745,0,0,1-.737-2.662,3.8,3.8,0,0,1,.5-2.217,1.638,1.638,0,0,1,.655-.677.854.854,0,0,1,.174-.057c-.012,0-.02,0,.034,0,.364.015.364-.551,0-.566a1.559,1.559,0,0,0-1.149.717,4.1,4.1,0,0,0-.788,2.489,7.223,7.223,0,0,0,.824,3.26.286.286,0,0,0,.528-.143,3.2,3.2,0,0,1,1.158-2.178.29.29,0,0,0,.045-.343c-.021-.046.01.03-.024-.058s-.068-.184-.1-.277a3.434,3.434,0,0,1-.165-.817c-.042-.669.305-1.268.325-1.936a2.756,2.756,0,0,0-.036-.477c-.012-.081,0,.1,0,.018s0-.131,0-.2V95.571a.283.283,0,0,0-.566,0" transform="translate(-26.736 -73.712)"/>
        <path id="Path_987" data-name="Path 987" d="M10.572,26.109a8.619,8.619,0,0,1-.374-3.7,5.228,5.228,0,0,1,1.169-2.82,6.162,6.162,0,0,1,2.227-1.566,10.084,10.084,0,0,1,5.837-.62,6.127,6.127,0,0,1,2.4.978,7.114,7.114,0,0,1,1.936,2.184,7.232,7.232,0,0,1,.474,6.975c-.171.322.318.608.489.286a7.6,7.6,0,0,0-.038-6.714,7.228,7.228,0,0,0-4.322-4.058,10.5,10.5,0,0,0-6.18.141,7.761,7.761,0,0,0-2.71,1.478A5.439,5.439,0,0,0,9.82,21.389a8.7,8.7,0,0,0,.206,4.87c.117.343.664.2.546-.151" transform="translate(-7.399 -12.886)"/>
        <path id="Path_988" data-name="Path 988" d="M67.676,63.178a.992.992,0,0,0-.568-.432.945.945,0,0,0-1,.585,3.619,3.619,0,0,0-.2,1.973c.02.19.044.381.08.569a.286.286,0,0,0,.348.2.289.289,0,0,0,.2-.348c-.005-.029-.01-.058-.015-.087s-.011-.068-.016-.1-.005-.039-.008-.058c-.007-.048,0,.014,0,.02l-.006-.05a6.807,6.807,0,0,1-.054-.78c0-.147,0-.293.016-.439,0-.034.007-.068.011-.1.006-.049-.006.037,0-.011l.007-.042c.012-.073.027-.146.046-.218a1.914,1.914,0,0,1,.061-.189c.012-.031,0,0,0,.009.007-.015.014-.03.021-.045.016-.033.034-.065.053-.1a.774.774,0,0,1,.133-.158.253.253,0,0,1,.147-.082c.044-.012-.043.009,0,0,.015,0,.071.007.008,0a.512.512,0,0,1,.088.025c-.056-.021.011.01.031.022s.023.016.035.024c-.028-.018-.026-.024,0,0s.066.07.1.1-.042-.059-.012-.015l.011.017c.2.3.689.02.489-.286" transform="translate(-50.945 -48.519)"/>
        <path id="Path_989" data-name="Path 989" d="M56.3,4.524A4.917,4.917,0,0,1,59.694.678a5.709,5.709,0,0,1,4.63,1.115,5.862,5.862,0,0,1,2.121,3.255,3.044,3.044,0,0,1-.1,1.731,14.833,14.833,0,0,1-1.162,2.267,5.911,5.911,0,0,0-.84,2.1,2.8,2.8,0,0,0,.57,1.812c.923,1.465,2.15,2.717,3.025,4.216a5.483,5.483,0,0,1,.643,4.092,5.578,5.578,0,0,1-3.077,3.676A4.075,4.075,0,0,0,63.391,27a2.711,2.711,0,0,0-.179,1.114l.528-.143c.063.146-.028-.078-.041-.113-.052-.143-.1-.288-.138-.434a5.887,5.887,0,0,1-.221-1.361,3.818,3.818,0,0,1,.285-1.686,9.729,9.729,0,0,0,.569-1.415,1.625,1.625,0,0,0-.491-1.892,2.739,2.739,0,0,0-1.256-.342,3.741,3.741,0,0,1-1.356-.388,2.282,2.282,0,0,1-1.21-2.532c.064-.356-.481-.509-.546-.15a2.869,2.869,0,0,0,.738,2.643,4.307,4.307,0,0,0,2.608,1.016,1.255,1.255,0,0,1,.943.458,1.307,1.307,0,0,1,.041.974,9.24,9.24,0,0,1-.564,1.427,4.285,4.285,0,0,0-.33,1.681,6.152,6.152,0,0,0,.482,2.4c.112.263.539.123.528-.143a2.97,2.97,0,0,1,1.937-2.646,6.245,6.245,0,0,0,3.211-3.389,5.945,5.945,0,0,0-.041-4.279,23.2,23.2,0,0,0-3.03-4.466,4.256,4.256,0,0,1-.955-1.794,3.876,3.876,0,0,1,.718-2.107c.735-1.331,1.685-2.68,1.425-4.273A6.478,6.478,0,0,0,60.426.008a4.678,4.678,0,0,0-3.5,1.885,6.676,6.676,0,0,0-1.136,2.339c-.012.047-.024.094-.034.142-.074.356.472.508.546.151" transform="translate(-43.12 0)"/>
        <path id="Path_990" data-name="Path 990" d="M.535,118.048a15.346,15.346,0,0,1,1.08-1.492,4.129,4.129,0,0,1,.848-.851,5.55,5.55,0,0,1,.551-.295c1.331-.672,2.683-1.3,4.031-1.942l1.21-.571c.33-.155.043-.643-.285-.489q-1.574.739-3.142,1.49c-.671.322-1.343.644-2.008.977-.19.1-.384.186-.566.294a3.7,3.7,0,0,0-.865.782,15.3,15.3,0,0,0-1.342,1.811c-.2.308.293.592.489.286" transform="translate(0 -86.923)"/>
        <path id="Path_991" data-name="Path 991" d="M69.357,108.713a5.492,5.492,0,0,0,1.782,2.427,17.862,17.862,0,0,1,2.743,2.252A3.582,3.582,0,0,1,74.9,114.81a.283.283,0,0,0,.546-.151,3.409,3.409,0,0,0-.814-1.3,13.66,13.66,0,0,0-1.468-1.391c-.456-.381-.926-.747-1.41-1.093-.18-.129-.378-.242-.547-.385a3.6,3.6,0,0,1-.639-.751,8.251,8.251,0,0,1-.721-1.315c-.145-.333-.633-.045-.489.286" transform="translate(-53.627 -83.753)"/>
        <path id="Path_992" data-name="Path 992" d="M39.608,124.1a7.2,7.2,0,0,1,1.337-2.67,2.086,2.086,0,0,1,.8-.579c.341-.121.194-.668-.151-.546a3.25,3.25,0,0,0-1.577,1.419,8.333,8.333,0,0,0-.819,1.76,3.74,3.74,0,0,0-.14.465c-.071.356.474.508.546.151" transform="translate(-30.209 -93.038)"/>
        <path id="Path_993" data-name="Path 993" d="M41.577,119.287c.073.192.141.386.2.582.052.16.1.322.144.485.019.073.036.146.051.22.006.032.008.066.016.1-.025-.088-.005-.042,0-.013s0,.03,0,.045a.283.283,0,0,0,.566,0,3.779,3.779,0,0,0-.226-.969c-.065-.2-.135-.4-.21-.6a.29.29,0,0,0-.348-.2.287.287,0,0,0-.2.348" transform="translate(-32.148 -91.989)"/>
      </g>
    </g>
  </g>
</svg>
