<svg xmlns="http://www.w3.org/2000/svg" xmlns:xlink="http://www.w3.org/1999/xlink" width="46.666" height="46.666" viewBox="0 0 46.666 46.666">
  <defs>
    <linearGradient id="linear-gradient" x1="0.5" x2="0.5" y2="1" gradientUnits="objectBoundingBox">
      <stop offset="0" stop-color="#aa262d"/>
      <stop offset="1" stop-color="#8d1218"/>
    </linearGradient>
    <filter id="Rectangle_220" x="0" y="0" width="46.666" height="46.666" filterUnits="userSpaceOnUse">
      <feOffset dy="3" input="SourceAlpha"/>
      <feGaussianBlur stdDeviation="1.5" result="blur"/>
      <feFlood flood-opacity="0.224"/>
      <feComposite operator="in" in2="blur"/>
      <feComposite in="SourceGraphic"/>
    </filter>
  </defs>
  <g id="Group_2208" data-name="Group 2208" transform="translate(-272.885 -566.667)">
    <g transform="matrix(1, 0, 0, 1, 272.88, 566.67)" filter="url(#Rectangle_220)">
      <rect id="Rectangle_220-2" data-name="Rectangle 220" width="37.666" height="37.666" rx="18.833" transform="translate(4.5 1.5)" fill="url(#linear-gradient)"/>
    </g>
    <g id="Icons" transform="translate(285.457 576.238)">
      <g id="Rounded">
        <g id="Social">
          <g id="_-Round-_-Social-_-cake" data-name="-Round-/-Social-/-cake">
            <g id="Group_100" data-name="Group 100">
              <path id="Path" d="M0,0H21.523V21.523H0Z" fill="none" fill-rule="evenodd"/>
              <path id="_-Icon-Color" data-name="🔹-Icon-Color" d="M11.681,5.325a1.778,1.778,0,0,0,1.166-1.471A1.75,1.75,0,0,0,12.6,2.715L11.448.724a.454.454,0,0,0-.78,0L9.52,2.715a1.865,1.865,0,0,0-.242.924A1.8,1.8,0,0,0,11.681,5.325Zm3.453,9-.9-.9-.969.96a3.178,3.178,0,0,1-4.385,0l-.96-.96-.978.96a3.08,3.08,0,0,1-2.188.906A3.116,3.116,0,0,1,3,14.751v3.237a1.8,1.8,0,0,0,1.794,1.794H17.349a1.8,1.8,0,0,0,1.794-1.794V14.751a3.111,3.111,0,0,1-2.457.466A3.153,3.153,0,0,1,15.134,14.329Zm1.318-6.206H11.968v-.9a.9.9,0,1,0-1.794,0v.9H5.69A2.687,2.687,0,0,0,3,10.814v1.309a1.812,1.812,0,0,0,1.175,1.74A1.772,1.772,0,0,0,6,13.45l1.919-1.91,1.91,1.91a1.765,1.765,0,0,0,2.484,0l1.919-1.91,1.91,1.91a1.754,1.754,0,0,0,1.48.493A1.833,1.833,0,0,0,19.134,12.1V10.823A2.676,2.676,0,0,0,16.452,8.123Z" transform="translate(-0.31 -0.052)" fill="#fff" fill-rule="evenodd"/>
            </g>
          </g>
        </g>
      </g>
    </g>
  </g>
</svg>
