<svg id="Group_2298" data-name="Group 2298" xmlns="http://www.w3.org/2000/svg" xmlns:xlink="http://www.w3.org/1999/xlink" width="222.988" height="205.056" viewBox="0 0 222.988 205.056">
  <defs>
    <clipPath id="clip-path">
      <rect id="Rectangle_2047" data-name="Rectangle 2047" width="222.988" height="205.056" fill="none"/>
    </clipPath>
  </defs>
  <g id="Group_2297" data-name="Group 2297" clip-path="url(#clip-path)">
    <path id="Path_9533" data-name="Path 9533" d="M70.039,51.025l-.007,1.309s.357,4.094-4.684,4.692-9.175.52-9.039-2.639a66.658,66.658,0,0,0,1.3-8.267,14.243,14.243,0,0,0-.179-2.452l9.768-.2,2.877.471Z" transform="translate(-23.994 -18.526)" fill="#fff"/>
    <path id="Path_9534" data-name="Path 9534" d="M70.039,51.025l-.007,1.309s.357,4.094-4.684,4.692-9.175.52-9.039-2.639a66.658,66.658,0,0,0,1.3-8.267,14.243,14.243,0,0,0-.179-2.452l9.768-.2,2.877.471Z" transform="translate(-23.994 -18.526)" fill="none" stroke="#000" stroke-width="1"/>
    <path id="Path_9535" data-name="Path 9535" d="M55.777,29.667c1.133,6.1,9,5.9,12.405,5.516.957-.106,1.56-.228,1.56-.228,1.079-.289,1.681-1.988,1.961-4.216.555-4.407-.146-10.876-.891-12.53-1.12-2.489-3.231-5.182-11.156-3.239s-5.333,6.882-3.879,14.7" transform="translate(-23.089 -6.096)" fill="#fff"/>
    <path id="Path_9536" data-name="Path 9536" d="M55.777,29.667c1.133,6.1,9,5.9,12.405,5.516.957-.106,1.56-.228,1.56-.228,1.079-.289,1.681-1.988,1.961-4.216.555-4.407-.146-10.876-.891-12.53-1.12-2.489-3.231-5.182-11.156-3.239S54.323,21.852,55.777,29.667Z" transform="translate(-23.089 -6.096)" fill="none" stroke="#000" stroke-width="1"/>
    <path id="Path_9537" data-name="Path 9537" d="M45.74,350.706H56.893a26.974,26.974,0,0,0-.889-4,11.331,11.331,0,0,0-.632-1.607c-1.085-2.165-7.974-.788-7.974-.788a5.3,5.3,0,0,0-1.14,2.643,22.243,22.243,0,0,0-.518,3.755" transform="translate(-19.492 -146.541)" fill="#fff"/>
    <path id="Path_9538" data-name="Path 9538" d="M45.74,350.706H56.893a26.974,26.974,0,0,0-.889-4,11.331,11.331,0,0,0-.632-1.607c-1.085-2.165-7.974-.788-7.974-.788a5.3,5.3,0,0,0-1.14,2.643A22.243,22.243,0,0,0,45.74,350.706Z" transform="translate(-19.492 -146.541)" fill="none" stroke="#000" stroke-width="1"/>
    <path id="Path_9539" data-name="Path 9539" d="M104.465,343.815c.03,1.517.222,2.953.772,3.52H127.3c-.281-.8-1.075-2-3.339-2.367-2.574-.416-6.586-1.655-8.927-4.131a6.639,6.639,0,0,1-1.729-3.13c-1.037-4.621-8.581,1.416-8.581,1.416a37.355,37.355,0,0,0-.256,4.692" transform="translate(-44.515 -143.17)" fill="#fff"/>
    <path id="Path_9540" data-name="Path 9540" d="M104.465,343.815c.03,1.517.222,2.953.772,3.52H127.3c-.281-.8-1.075-2-3.339-2.367-2.574-.416-6.586-1.655-8.927-4.131a6.639,6.639,0,0,1-1.729-3.13c-1.037-4.621-8.581,1.416-8.581,1.416A37.355,37.355,0,0,0,104.465,343.815Z" transform="translate(-44.515 -143.17)" fill="none" stroke="#000" stroke-width="1"/>
    <path id="Path_9541" data-name="Path 9541" d="M70.666,220.817a34.831,34.831,0,0,1,.554,4.075c.7,13.679,11.514,44.956,13.449,45.686,2.993,1.129,7.706-1.271,10.171-2.057a2.115,2.115,0,0,0,1.484-2.4C90.968,241.5,89,206.051,88.284,185.063a95.248,95.248,0,0,0-2.177-17.874s-26.373-7.037-26.53,1.864c-.139,7.877,8.736,38.769,11.088,51.763" transform="translate(-25.388 -70.121)" fill="#fff"/>
    <path id="Path_9542" data-name="Path 9542" d="M70.666,220.817a34.831,34.831,0,0,1,.554,4.075c.7,13.679,11.514,44.956,13.449,45.686,2.993,1.129,7.706-1.271,10.171-2.057a2.115,2.115,0,0,0,1.484-2.4C90.968,241.5,89,206.051,88.284,185.063a95.248,95.248,0,0,0-2.177-17.874s-26.373-7.037-26.53,1.864C59.439,176.931,68.314,207.822,70.666,220.817Z" transform="translate(-25.388 -70.121)" fill="none" stroke="#000" stroke-width="1"/>
    <path id="Path_9543" data-name="Path 9543" d="M63.859,193.972,53.215,271.117s-6.123,1.476-10.885.295c0,0-4.082-53.743-3.742-66.736s-2.93-34.766.746-37.167,27.823,2.558,27.823,2.558" transform="translate(-16.011 -71.103)" fill="#fff"/>
    <path id="Path_9544" data-name="Path 9544" d="M63.859,193.972,53.215,271.117s-6.123,1.476-10.885.295c0,0-4.082-53.743-3.742-66.736s-2.93-34.766.746-37.167,27.823,2.558,27.823,2.558" transform="translate(-16.011 -71.103)" fill="none" stroke="#000" stroke-width="1"/>
    <path id="Path_9545" data-name="Path 9545" d="M70.681,9.025a26.23,26.23,0,0,1-7.6-2.057c-3.34-1.452-7.554.147-8.921.868a2.02,2.02,0,0,1,.333-.823,1.835,1.835,0,0,0-.7,1.044c-.063.046-.092.079-.075.09a2.353,2.353,0,0,0-1.144.074s.313-.045.425.157a.181.181,0,0,0,.05.055c-5.21,2.518-5.691,10.751-4.015,12.656,2.017,2.292,4.436,7.454,4.436,7.454a4.426,4.426,0,0,0,.515-3.237c-.367-2.017,1.376-2.017,3.576-2.934s.367-3.484,2.292-5.043,8.985-.642,8.894-1.833c2.621-.955,1.942-6.2,1.942-6.47" transform="translate(-20.525 -2.718)" fill="#fff"/>
    <path id="Path_9546" data-name="Path 9546" d="M70.681,9.025a26.23,26.23,0,0,1-7.6-2.057c-3.34-1.452-7.554.147-8.921.868a2.02,2.02,0,0,1,.333-.823,1.835,1.835,0,0,0-.7,1.044c-.063.046-.092.079-.075.09a2.353,2.353,0,0,0-1.144.074s.313-.045.425.157a.181.181,0,0,0,.05.055c-5.21,2.518-5.691,10.751-4.015,12.656,2.017,2.292,4.436,7.454,4.436,7.454a4.426,4.426,0,0,0,.515-3.237c-.367-2.017,1.376-2.017,3.576-2.934s.367-3.484,2.292-5.043,8.985-.642,8.894-1.833C71.36,14.541,70.681,9.294,70.681,9.025Z" transform="translate(-20.525 -2.718)" fill="none" stroke="#000" stroke-width="1"/>
    <path id="Path_9547" data-name="Path 9547" d="M54.239,65.551l3.21,68.875s26.791.438,26.027-5.625S73.818,67.66,73.818,67.66Z" transform="translate(-23.114 -27.934)" fill="#fff"/>
    <path id="Path_9548" data-name="Path 9548" d="M54.239,65.551l3.21,68.875s26.791.438,26.027-5.625S73.818,67.66,73.818,67.66Z" transform="translate(-23.114 -27.934)" fill="none" stroke="#000" stroke-width="1"/>
    <path id="Path_9549" data-name="Path 9549" d="M33.748,102.689c1.594,4.781-1.411,20.826-2.483,26.262-.235,1.15-.392,1.829-.392,1.829,3.711,6.036,17.3,5.958,17.3,5.958,2.613-11.551,4.237-32.448,4.237-32.448l-10.691-43.2L28.6,73.213s.993,7.4,2.221,14.921c.967,5.958,2.064,12.021,2.927,14.555" transform="translate(-12.188 -26.032)" fill="#ab1b2d"/>
    <path id="Path_9550" data-name="Path 9550" d="M33.748,102.689c1.594,4.781-1.411,20.826-2.483,26.262-.235,1.15-.392,1.829-.392,1.829,3.711,6.036,17.3,5.958,17.3,5.958,2.613-11.551,4.237-32.448,4.237-32.448l-10.691-43.2L28.6,73.213s.993,7.4,2.221,14.921C31.788,94.092,32.886,100.154,33.748,102.689Z" transform="translate(-12.188 -26.032)" fill="none" stroke="#000" stroke-width="1"/>
    <path id="Path_9551" data-name="Path 9551" d="M94.2,64.735s0,.011.006.029c.634.615,18.518,17.979,21.983,24.78,3.528,6.9-16.123,20.644-16.123,20.644a4.573,4.573,0,0,1-2.142.3c.926,7.628,1.967,14.667,1.35,17.671-1.114,5.43-6.136,7.254-6.136,6.836,0-.133-1.295-19.8-2.835-29.959-3.42-22.548-7.5-43.71-7.5-43.71a37.7,37.7,0,0,1,11.393,3.4m10.649,27.788a.158.158,0,0,0,.026-.1c0-.993-3.79-3.189-7.892-5.775l-.078-.079L96.9,86.56c.073,2.113.065,4.187-.061,6.117a78.2,78.2,0,0,0,.461,12.216c1.953-3.05,7.17-11.246,7.552-12.37" transform="translate(-35.289 -26.136)" fill="#ab1b2d"/>
    <path id="Path_9552" data-name="Path 9552" d="M94.2,64.735s0,.011.006.029c.634.615,18.518,17.979,21.983,24.78,3.528,6.9-16.123,20.644-16.123,20.644a4.573,4.573,0,0,1-2.142.3c.926,7.628,1.967,14.667,1.35,17.671-1.114,5.43-6.136,7.254-6.136,6.836,0-.133-1.295-19.8-2.835-29.959-3.42-22.548-7.5-43.71-7.5-43.71A37.7,37.7,0,0,1,94.2,64.735Zm10.649,27.788a.158.158,0,0,0,.026-.1c0-.993-3.79-3.189-7.892-5.775l-.078-.079L96.9,86.56c.073,2.113.065,4.187-.061,6.117a78.2,78.2,0,0,0,.461,12.216C99.254,101.844,104.471,93.647,104.852,92.524Z" transform="translate(-35.289 -26.136)" fill="none" stroke="#000" stroke-width="1"/>
    <path id="Path_9553" data-name="Path 9553" d="M52.916,59.782c-.033-.658,3.08-1.565,3.08-1.565s3.564,4.941,9.435,5.026c0,0-1.673,3.256-3.645,4.1,0,0-8.676-3.657-8.87-7.56" transform="translate(-22.55 -24.809)" fill="#fff"/>
    <path id="Path_9554" data-name="Path 9554" d="M52.916,59.782c-.033-.658,3.08-1.565,3.08-1.565s3.564,4.941,9.435,5.026c0,0-1.673,3.256-3.645,4.1C61.786,67.342,53.11,63.686,52.916,59.782Z" transform="translate(-22.55 -24.809)" fill="none" stroke="#000" stroke-width="1"/>
    <path id="Path_9555" data-name="Path 9555" d="M82.641,114.2a6.5,6.5,0,0,1-2.07,4.2L78.7,120.123a1.094,1.094,0,0,1-1.6-.129l-2.314-2.939a3.905,3.905,0,0,1-.817-2.784c.217-2.224.62-6.508.943-10.644.262-3.351.473-6.606.489-8.586.051-6.322-1.2-26.484-1.2-26.484l1.516.079A81.2,81.2,0,0,1,81.45,87.112a70.46,70.46,0,0,1,1.048,8.3s.79,11.516.143,18.787" transform="translate(-31.514 -29.216)" fill="#fff"/>
    <path id="Path_9556" data-name="Path 9556" d="M82.641,114.2a6.5,6.5,0,0,1-2.07,4.2L78.7,120.123a1.094,1.094,0,0,1-1.6-.129l-2.314-2.939a3.905,3.905,0,0,1-.817-2.784c.217-2.224.62-6.508.943-10.644.262-3.351.473-6.606.489-8.586.051-6.322-1.2-26.484-1.2-26.484l1.516.079A81.2,81.2,0,0,1,81.45,87.112a70.46,70.46,0,0,1,1.048,8.3S83.288,106.928,82.641,114.2Z" transform="translate(-31.514 -29.216)" fill="none" stroke="#000" stroke-width="1"/>
    <path id="Path_9557" data-name="Path 9557" d="M74.725,63.9s3.11-1.844,3.121-3.843c0,0,2.009-.251,2.887.722,0,0,.737,3.426-.241,5.415,0,0-4.478-.682-5.766-2.3" transform="translate(-31.844 -25.58)" fill="#fff"/>
    <path id="Path_9558" data-name="Path 9558" d="M74.725,63.9s3.11-1.844,3.121-3.843c0,0,2.009-.251,2.887.722,0,0,.737,3.426-.241,5.415C80.491,66.194,76.013,65.512,74.725,63.9Z" transform="translate(-31.844 -25.58)" fill="none" stroke="#000" stroke-width="1"/>
    <path id="Path_9559" data-name="Path 9559" d="M70.915,65.507,75.132,64.5a.639.639,0,0,1,.536.735,5.373,5.373,0,0,1-1.707,2.855c-.519.16-4.043-1.189-3.046-2.579" transform="translate(-30.144 -27.485)" fill="#fff"/>
    <path id="Path_9560" data-name="Path 9560" d="M70.915,65.507,75.132,64.5a.639.639,0,0,1,.536.735,5.373,5.373,0,0,1-1.707,2.855C73.441,68.246,69.917,66.9,70.915,65.507Z" transform="translate(-30.144 -27.485)" fill="none" stroke="#000" stroke-width="1"/>
    <path id="Path_9561" data-name="Path 9561" d="M109.409,141.133a2.9,2.9,0,0,0-3.28-2.9,1.8,1.8,0,0,0-1.218.673c-1.195,1.59-2.331,6.216-.215,6.432a4.645,4.645,0,0,0,2.821-1.164c.866-.658,1.891-1.688,1.891-2.776Z" transform="translate(-44.112 -58.893)" fill="#fff"/>
    <path id="Path_9562" data-name="Path 9562" d="M109.409,141.133a2.9,2.9,0,0,0-3.28-2.9,1.8,1.8,0,0,0-1.218.673c-1.195,1.59-2.331,6.216-.215,6.432a4.645,4.645,0,0,0,2.821-1.164c.866-.658,1.891-1.688,1.891-2.776Z" transform="translate(-44.112 -58.893)" fill="none" stroke="#000" stroke-width="1"/>
    <path id="Path_9563" data-name="Path 9563" d="M32.7,151.941s2.761,1.381,4.438.69,3.649-1.209,5.523.924,2.268,3.612,1.874,4.4-4.763.494-5.488,0-1.871-1.707-2.6-1.5c-2.007.584-3.7-.947-4.642-2.166-.571-.736.969-1.092.895-2.354" transform="translate(-13.498 -64.749)" fill="#fff"/>
    <path id="Path_9564" data-name="Path 9564" d="M32.7,151.941s2.761,1.381,4.438.69,3.649-1.209,5.523.924,2.268,3.612,1.874,4.4-4.763.494-5.488,0-1.871-1.707-2.6-1.5c-2.007.584-3.7-.947-4.642-2.166C31.231,153.559,32.771,153.2,32.7,151.941Z" transform="translate(-13.498 -64.749)" fill="none" stroke="#000" stroke-width="1"/>
    <path id="Path_9565" data-name="Path 9565" d="M29.743,61.088s-11,1.218-13.593,6.008S.069,91.3.51,99.364s18.4,17.113,18.4,17.113,3.977-1.681,4.038-3.489S10.531,100.372,11.288,98.355c.51-1.362,6.938-9.075,11.467-15.561" transform="translate(-0.213 -26.032)" fill="#ab1b2d"/>
    <path id="Path_9566" data-name="Path 9566" d="M29.743,61.088s-11,1.218-13.593,6.008S.069,91.3.51,99.364s18.4,17.113,18.4,17.113,3.977-1.681,4.038-3.489S10.531,100.372,11.288,98.355c.51-1.362,6.938-9.075,11.467-15.561" transform="translate(-0.213 -26.032)" fill="none" stroke="#000" stroke-width="1"/>
    <path id="Path_9567" data-name="Path 9567" d="M58.689,97.487a82.033,82.033,0,0,0-8.326-18.1s2.7-2.371,2.55-3.245a9.231,9.231,0,0,0-3.943-.194s.215-15.075,1.425-16.668a8.827,8.827,0,0,1,3.4-2.43S62.15,91.821,60.821,105" transform="translate(-20.868 -24.225)" fill="#ab1b2d"/>
    <path id="Path_9568" data-name="Path 9568" d="M58.689,97.487a82.033,82.033,0,0,0-8.326-18.1s2.7-2.371,2.55-3.245a9.231,9.231,0,0,0-3.943-.194s.215-15.075,1.425-16.668a8.827,8.827,0,0,1,3.4-2.43S62.15,91.821,60.821,105" transform="translate(-20.868 -24.225)" fill="none" stroke="#000" stroke-width="1"/>
    <path id="Path_9569" data-name="Path 9569" d="M80.224,58.914c-.113.053,8.275,34.174,8.981,45.1,0,0-.837-19.489-.755-25.107,0,0-3.468-1.836-3.468-2.48s3.7-2.386,3.7-2.386-2.342-12-3.621-13.325-4.836-1.8-4.836-1.8" transform="translate(-34.187 -25.106)" fill="#ab1b2d"/>
    <path id="Path_9570" data-name="Path 9570" d="M80.224,58.914c-.113.053,8.275,34.174,8.981,45.1,0,0-.837-19.489-.755-25.107,0,0-3.468-1.836-3.468-2.48s3.7-2.386,3.7-2.386-2.342-12-3.621-13.325S80.224,58.914,80.224,58.914Z" transform="translate(-34.187 -25.106)" fill="none" stroke="#000" stroke-width="1"/>
    <path id="Path_9571" data-name="Path 9571" d="M159.329,220.093h122.5a6.1,6.1,0,0,0,6.1-6.1l-.007-170.707c-.088-4.572-2.291-7.171-6.094-7.171h-122.5a6.186,6.186,0,0,0-6.094,5.213l0,172.665a6.1,6.1,0,0,0,6.1,6.1" transform="translate(-65.297 -15.389)" fill="#fff"/>
    <path id="Path_9572" data-name="Path 9572" d="M281.57,220.183h-122.5a6.453,6.453,0,0,1-6.454-6.454l0-172.664a.317.317,0,0,1,0-.057,6.509,6.509,0,0,1,6.442-5.509h122.5c4,0,6.354,2.74,6.447,7.518l.007,170.713a6.455,6.455,0,0,1-6.454,6.454M153.324,41.093l0,172.636a5.749,5.749,0,0,0,5.749,5.749h122.5a5.748,5.748,0,0,0,5.749-5.749l-.007-170.706c-.084-4.4-2.124-6.82-5.741-6.82h-122.5a5.808,5.808,0,0,0-5.741,4.889" transform="translate(-65.036 -15.128)"/>
    <path id="Path_9573" data-name="Path 9573" d="M223.538,45.307H277.38a4.234,4.234,0,0,0,4.234-4.234V31.007a4.234,4.234,0,0,0-4.234-4.234H223.538a4.235,4.235,0,0,0-4.234,4.234V41.072a4.235,4.235,0,0,0,4.234,4.234" transform="translate(-93.455 -11.409)" fill="#ab1b2d"/>
    <path id="Path_9574" data-name="Path 9574" d="M277.686,45.4H222.709a4.024,4.024,0,0,1-4.019-4.019v-11.2a4.024,4.024,0,0,1,4.019-4.019h54.977a4.024,4.024,0,0,1,4.019,4.019v11.2a4.024,4.024,0,0,1-4.019,4.019M222.709,26.865a3.318,3.318,0,0,0-3.315,3.315v11.2a3.318,3.318,0,0,0,3.315,3.315h54.977A3.318,3.318,0,0,0,281,41.379v-11.2a3.318,3.318,0,0,0-3.314-3.315Z" transform="translate(-93.193 -11.148)"/>
    <path id="Path_9575" data-name="Path 9575" d="M265.635.615A10.648,10.648,0,0,0,254.99,11.283V27.272a2.6,2.6,0,0,0,2.6,2.6h16.085a2.6,2.6,0,0,0,2.6-2.6V11.283A10.648,10.648,0,0,0,265.635.615m.6,14.612a4.335,4.335,0,1,1,3.735-3.735,4.337,4.337,0,0,1-3.735,3.735" transform="translate(-108.662 -0.262)" fill="#fff"/>
    <path id="Path_9576" data-name="Path 9576" d="M273.416,29.965H257.331a2.958,2.958,0,0,1-2.955-2.955V11.02a11,11,0,1,1,21.995,0V27.01a2.958,2.958,0,0,1-2.955,2.955M265.373.7A10.316,10.316,0,0,0,255.081,11.02V27.01a2.253,2.253,0,0,0,2.25,2.25h16.085a2.253,2.253,0,0,0,2.25-2.25V11.02A10.316,10.316,0,0,0,265.373.7m.033,14.647a4.687,4.687,0,0,1-4.649-5.294,4.688,4.688,0,1,1,5.255,5.256,4.916,4.916,0,0,1-.606.038m0-8.667a4.227,4.227,0,0,0-.516.032,4.012,4.012,0,1,0,.516-.032" transform="translate(-108.401)"/>
    <path id="Path_9577" data-name="Path 9577" d="M345.959,82.262H337.43a3.573,3.573,0,0,1-3.569-3.569V70.164a3.573,3.573,0,0,1,3.569-3.569h8.529a3.573,3.573,0,0,1,3.569,3.569v8.529a3.573,3.573,0,0,1-3.569,3.569M337.43,67.3a2.868,2.868,0,0,0-2.865,2.865v8.529a2.868,2.868,0,0,0,2.865,2.865h8.529a2.868,2.868,0,0,0,2.865-2.865V70.164a2.868,2.868,0,0,0-2.865-2.865Z" transform="translate(-142.273 -28.379)"/>
    <path id="Path_9578" data-name="Path 9578" d="M343.579,81.477a.911.911,0,0,1-.166-.015.9.9,0,0,1-.689-.6l-1.79-4.667a.352.352,0,0,1,.658-.252l1.8,4.683a.2.2,0,0,0,.156.148.191.191,0,0,0,.176-.055l4.944-7.893a.353.353,0,0,1,.6.375L344.3,81.112c-.008.013-.017.025-.026.037a.9.9,0,0,1-.7.328" transform="translate(-145.277 -30.962)" fill="#ab1b2d"/>
    <path id="Path_9579" data-name="Path 9579" d="M345.959,121.521H337.43a3.573,3.573,0,0,1-3.569-3.569v-8.529a3.573,3.573,0,0,1,3.569-3.569h8.529a3.573,3.573,0,0,1,3.569,3.569v8.529a3.573,3.573,0,0,1-3.569,3.569m-8.529-14.963a2.868,2.868,0,0,0-2.865,2.865v8.529a2.868,2.868,0,0,0,2.865,2.864h8.529a2.868,2.868,0,0,0,2.865-2.864v-8.529a2.868,2.868,0,0,0-2.865-2.865Z" transform="translate(-142.273 -45.109)"/>
    <path id="Path_9580" data-name="Path 9580" d="M343.579,120.735a.911.911,0,0,1-.166-.016.9.9,0,0,1-.689-.6l-1.79-4.667a.352.352,0,0,1,.658-.252l1.8,4.683a.2.2,0,0,0,.156.147.192.192,0,0,0,.176-.055l4.944-7.893a.353.353,0,0,1,.6.375L344.3,120.37c-.008.013-.017.025-.026.037a.9.9,0,0,1-.7.328" transform="translate(-145.277 -47.691)" fill="#ab1b2d"/>
    <path id="Path_9581" data-name="Path 9581" d="M237.491,81.789H178.973a2.533,2.533,0,1,1,0-5.066h58.518a2.533,2.533,0,1,1,0,5.066m-58.518-4.361a1.828,1.828,0,1,0,0,3.657h58.518a1.828,1.828,0,0,0,0-3.657Z" transform="translate(-75.189 -32.695)"/>
    <path id="Path_9582" data-name="Path 9582" d="M201,121.046h-22.03a2.533,2.533,0,1,1,0-5.065H201a2.533,2.533,0,1,1,0,5.065m-22.03-4.361a1.828,1.828,0,1,0,0,3.656H201a1.828,1.828,0,1,0,0-3.656Z" transform="translate(-75.189 -49.425)"/>
    <path id="Path_9583" data-name="Path 9583" d="M274.989,121.046H238.516a2.533,2.533,0,1,1,0-5.065h36.473a2.533,2.533,0,1,1,0,5.065m-36.473-4.361a1.828,1.828,0,1,0,0,3.656h36.473a1.828,1.828,0,1,0,0-3.656Z" transform="translate(-100.563 -49.425)"/>
    <path id="Path_9584" data-name="Path 9584" d="M218.328,160.305H178.973a2.533,2.533,0,0,1,0-5.066h39.355a2.533,2.533,0,1,1,0,5.066m-39.355-4.361a1.828,1.828,0,0,0,0,3.657h39.355a1.828,1.828,0,0,0,0-3.657Z" transform="translate(-75.189 -66.154)"/>
    <path id="Path_9585" data-name="Path 9585" d="M227.115,199.611H178.973a2.533,2.533,0,0,1,0-5.066h48.142a2.533,2.533,0,1,1,0,5.066m-48.142-4.361a1.828,1.828,0,0,0,0,3.657h48.142a1.828,1.828,0,0,0,0-3.657Z" transform="translate(-75.189 -82.904)"/>
    <path id="Path_9586" data-name="Path 9586" d="M242.921,238.971H227.687a2.533,2.533,0,1,1,0-5.065h15.234a2.533,2.533,0,1,1,0,5.065m-15.234-4.361a1.828,1.828,0,1,0,0,3.656h15.234a1.828,1.828,0,1,0,0-3.656Z" transform="translate(-95.948 -99.677)"/>
  </g>
</svg>
