<svg xmlns="http://www.w3.org/2000/svg" xmlns:xlink="http://www.w3.org/1999/xlink" width="77.533" height="78.176" viewBox="0 0 77.533 78.176">
  <defs>
    <filter id="Ellipse_55" x="0" y="0" width="77.533" height="78.176" filterUnits="userSpaceOnUse">
      <feOffset dy="7" input="SourceAlpha"/>
      <feGaussianBlur stdDeviation="4.5" result="blur"/>
      <feFlood flood-opacity="0.161"/>
      <feComposite operator="in" in2="blur"/>
      <feComposite in="SourceGraphic"/>
    </filter>
  </defs>
  <g id="Group_1522" data-name="Group 1522" transform="translate(13.5 6.5)">
    <g transform="matrix(1, 0, 0, 1, -13.5, -6.5)" filter="url(#Ellipse_55)">
      <g id="Ellipse_55-2" data-name="Ellipse 55" transform="translate(13.5 6.5)" fill="#8d1118" stroke="#fff" stroke-width="1">
        <ellipse cx="25.266" cy="25.588" rx="25.266" ry="25.588" stroke="none"/>
        <ellipse cx="25.266" cy="25.588" rx="24.766" ry="25.088" fill="none"/>
      </g>
    </g>
    <path id="_19662153031641180047" data-name="19662153031641180047" d="M36.649,68.94H24.707l3.254-3.254a.988.988,0,0,0-1.4-1.4L21.623,69.23a.988.988,0,0,0,0,1.4l4.941,4.941a.988.988,0,1,0,1.4-1.4l-3.254-3.254H36.649a4.447,4.447,0,1,1,0,8.893H26.274a.988.988,0,0,0,0,1.976H36.649a6.423,6.423,0,1,0,0-12.846Z" transform="translate(-6.936 -47.305)" fill="#fefefe"/>
  </g>
</svg>
