<svg xmlns="http://www.w3.org/2000/svg" width="48.722" height="46.286" viewBox="0 0 48.722 46.286">
  <g id="insta" transform="translate(-1154.067 -950.5)">
    <ellipse id="Ellipse_132" data-name="Ellipse 132" cx="24.361" cy="23.143" rx="24.361" ry="23.143" transform="translate(1154.067 950.5)" fill="#58595b"/>
    <g id="_16304616191553750378" data-name="16304616191553750378" transform="translate(1166.854 962.942)">
      <path id="Path_470" data-name="Path 470" d="M15.667,6.185c3.09,0,3.453.014,4.674.069a6.313,6.313,0,0,1,2.149.4,3.59,3.59,0,0,1,1.332.863,3.534,3.534,0,0,1,.863,1.332,6.431,6.431,0,0,1,.4,2.149c.055,1.221.069,1.584.069,4.674s-.014,3.453-.069,4.674a6.313,6.313,0,0,1-.4,2.149,3.59,3.59,0,0,1-.863,1.332,3.534,3.534,0,0,1-1.332.863,6.431,6.431,0,0,1-2.149.4c-1.221.055-1.584.069-4.674.069s-3.453-.014-4.674-.069a6.313,6.313,0,0,1-2.149-.4,3.59,3.59,0,0,1-1.332-.863,3.534,3.534,0,0,1-.863-1.332,6.431,6.431,0,0,1-.4-2.149c-.055-1.221-.069-1.584-.069-4.674s.014-3.453.069-4.674a6.313,6.313,0,0,1,.4-2.149,3.59,3.59,0,0,1,.863-1.332,3.534,3.534,0,0,1,1.332-.863,6.431,6.431,0,0,1,2.149-.4c1.221-.06,1.584-.069,4.674-.069m0-2.085c-3.141,0-3.536.014-4.771.069a8.479,8.479,0,0,0-2.806.537A5.638,5.638,0,0,0,6.042,6.042,5.738,5.738,0,0,0,4.706,8.09a8.484,8.484,0,0,0-.537,2.81c-.055,1.231-.069,1.626-.069,4.766s.014,3.536.069,4.771a8.534,8.534,0,0,0,.537,2.81A5.638,5.638,0,0,0,6.042,25.3,5.738,5.738,0,0,0,8.09,26.632a8.484,8.484,0,0,0,2.81.537c1.235.055,1.626.069,4.771.069s3.536-.014,4.771-.069a8.534,8.534,0,0,0,2.81-.537A5.638,5.638,0,0,0,25.3,25.3a5.738,5.738,0,0,0,1.336-2.048,8.484,8.484,0,0,0,.537-2.81c.055-1.235.069-1.626.069-4.771s-.014-3.536-.069-4.771a8.534,8.534,0,0,0-.537-2.81A5.638,5.638,0,0,0,25.3,6.038,5.738,5.738,0,0,0,23.252,4.7a8.484,8.484,0,0,0-2.81-.537C19.2,4.114,18.808,4.1,15.667,4.1Z" transform="translate(-4.1 -4.1)" fill="#fff"/>
      <path id="Path_471" data-name="Path 471" d="M132.542,126.6a5.942,5.942,0,1,0,5.942,5.942A5.943,5.943,0,0,0,132.542,126.6Zm0,9.8a3.857,3.857,0,1,1,3.857-3.857A3.857,3.857,0,0,1,132.542,136.4Z" transform="translate(-120.975 -120.975)" fill="#fff"/>
      <circle id="Ellipse_34" data-name="Ellipse 34" cx="1.387" cy="1.387" r="1.387" transform="translate(16.356 4.004)" fill="#fff"/>
    </g>
  </g>
</svg>
