<svg xmlns="http://www.w3.org/2000/svg" width="51.125" height="54.197" viewBox="0 0 51.125 54.197">
  <g id="_12684649916313443234150" data-name="12684649916313443234150" transform="translate(-5.12 -3.5)">
    <path id="Path_6567" data-name="Path 6567" d="M31.926,10.88a1.426,1.426,0,0,0,1.426-1.426V4.926a1.426,1.426,0,1,0-2.853,0V9.453a1.426,1.426,0,0,0,1.426,1.426Z" transform="translate(-1.244)" fill="#0a0909"/>
    <path id="Path_6568" data-name="Path 6568" d="M46.506,16.988a1.436,1.436,0,0,0,1.008-.418l3.2-3.2a1.417,1.417,0,0,0,0-2.016,1.436,1.436,0,0,0-2.016,0l-3.2,3.2a1.417,1.417,0,0,0,0,2.016,1.436,1.436,0,0,0,1.008.418Z" transform="translate(-1.958 -0.364)" fill="#0a0909"/>
    <path id="Path_6569" data-name="Path 6569" d="M57.073,28.88H52.546a1.426,1.426,0,0,0,0,2.853h4.527a1.426,1.426,0,1,0,0-2.853Z" transform="translate(-2.255 -1.244)" fill="#0a0909"/>
    <path id="Path_6570" data-name="Path 6570" d="M47.509,43.872a1.426,1.426,0,1,0-2.016,2l3.2,3.2a1.454,1.454,0,0,0,1.008.418A1.426,1.426,0,0,0,50.7,47.068Z" transform="translate(-1.953 -1.953)" fill="#0a0909"/>
    <path id="Path_6571" data-name="Path 6571" d="M16.174,43.876l-3.2,3.2a1.426,1.426,0,0,0,1.008,2.435,1.455,1.455,0,0,0,1.008-.418l3.2-3.214a1.426,1.426,0,1,0-2.016-2.016Z" transform="translate(-0.365 -1.956)" fill="#0a0909"/>
    <path id="Path_6572" data-name="Path 6572" d="M11.073,28.88H6.546a1.426,1.426,0,0,0,0,2.853h4.527a1.426,1.426,0,1,0,0-2.853Z" transform="translate(0 -1.244)" fill="#0a0909"/>
    <path id="Path_6573" data-name="Path 6573" d="M16.174,16.57a1.426,1.426,0,1,0,2.016-2.016l-3.2-3.2a1.436,1.436,0,0,0-2.016,0,1.417,1.417,0,0,0,0,2.016Z" transform="translate(-0.365 -0.364)" fill="#0a0909"/>
    <path id="Path_6574" data-name="Path 6574" d="M46.843,28.257a15.71,15.71,0,1,0-25.914,13.2,10.233,10.233,0,0,1,3.6,7.722v.666a1.426,1.426,0,0,0,1.426,1.426h.723V53.7a4.508,4.508,0,1,0,9.015,0V51.281h.723a1.427,1.427,0,0,0,1.426-1.426v-.675a10.461,10.461,0,0,1,3.69-7.808,15.606,15.606,0,0,0,5.307-13.114Zm-14,25.448a1.655,1.655,0,1,1-3.309,0V51.281h3.309Zm6.819-14.474a13.371,13.371,0,0,0-4.669,9.2H27.386A13.124,13.124,0,0,0,22.812,39.3a12.857,12.857,0,1,1,16.871-.067Z" transform="translate(-0.508 -0.507)" fill="#0a0909"/>
  </g>
</svg>
