<svg xmlns="http://www.w3.org/2000/svg" width="46.286" height="46.286" viewBox="0 0 46.286 46.286">
  <g id="linkedin" transform="translate(-1085.857 -950.5)">
    <circle id="Ellipse_131" data-name="Ellipse 131" cx="23.143" cy="23.143" r="23.143" transform="translate(1085.857 950.5)" fill="#58595b"/>
    <g id="Page-1" transform="translate(1099.294 963.854)">
      <g id="Dribbble-Light-Preview">
        <g id="icons">
          <path id="linkedin-_161_" data-name="linkedin-[#161]" d="M143.407,7338.408h-3.881v-6.793c0-1.861-.822-2.9-2.3-2.9-1.6,0-2.556,1.084-2.556,2.9v6.793h-3.881v-12.615h3.881v1.42a4.678,4.678,0,0,1,3.962-2.139c2.745,0,4.771,1.676,4.771,5.143v8.191Zm-17.038-14.633a2.388,2.388,0,1,1,2.369-2.389,2.378,2.378,0,0,1-2.369,2.389ZM124,7338.408h4.852v-12.615H124Z" transform="translate(-124 -7319)" fill="#fff" fill-rule="evenodd"/>
        </g>
      </g>
    </g>
  </g>
</svg>
