<svg xmlns="http://www.w3.org/2000/svg" xmlns:xlink="http://www.w3.org/1999/xlink" width="80.922" height="80.922" viewBox="0 0 80.922 80.922">
  <defs>
    <filter id="Rectangle_1607" x="0" y="0" width="80.922" height="80.922" filterUnits="userSpaceOnUse">
      <feOffset input="SourceAlpha"/>
      <feGaussianBlur stdDeviation="2" result="blur"/>
      <feFlood flood-opacity="0.11"/>
      <feComposite operator="in" in2="blur"/>
      <feComposite in="SourceGraphic"/>
    </filter>
  </defs>
  <g id="markets" transform="translate(-655.137 -2487.863)">
    <g transform="matrix(1, 0, 0, 1, 655.14, 2487.86)" filter="url(#Rectangle_1607)">
      <g id="Rectangle_1607-2" data-name="Rectangle 1607" transform="translate(6 6)" fill="#c71429" stroke="#fff" stroke-width="2">
        <rect width="68.922" height="68.922" rx="18" stroke="none"/>
        <rect x="1" y="1" width="66.922" height="66.922" rx="17" fill="none"/>
      </g>
    </g>
    <g id="_17168401881547642714" data-name="17168401881547642714" transform="translate(675.021 2514.796)">
      <g id="outline_47_" transform="translate(0 0)">
        <g id="Group_1602" data-name="Group 1602">
          <path id="Path_6986" data-name="Path 6986" d="M4.168,14.779l3.7-3.724a.921.921,0,0,0,0-1.3.905.905,0,0,0-1.287,0l-4.28,4.3a.9.9,0,0,0-.218.4.919.919,0,0,0,.191,1.007l4.28,4.3a.905.905,0,0,0,1.287,0,.919.919,0,0,0,0-1.3Zm6.147.879h3.98a6.152,6.152,0,0,1,6.152,6.152V30.6a.879.879,0,0,0,1.758,0V21.81a7.909,7.909,0,0,0-7.91-7.91h-3.98l2.829-2.845a.921.921,0,0,0,0-1.3.905.905,0,0,0-1.287,0l-4.28,4.3a.9.9,0,0,0-.218.4.919.919,0,0,0,.191,1.007l4.28,4.3a.905.905,0,0,0,1.287,0,.921.921,0,0,0,0-1.3Zm26.83-6.152H18.691a.879.879,0,0,0,0,1.758c.067.014,17.642.1,17.575,0V33.235H16.052v-7.91a.879.879,0,1,0-1.758,0v8.788a.879.879,0,0,0,.879.879H37.145a.879.879,0,0,0,.879-.879V10.385A.879.879,0,0,0,37.145,9.506Z" transform="translate(-2.012 -9.492)" fill="#fff"/>
        </g>
      </g>
    </g>
  </g>
</svg>
