<svg xmlns="http://www.w3.org/2000/svg" width="68.155" height="68.155" viewBox="0 0 68.155 68.155">
  <g id="market" transform="translate(-661.137 -2493.863)">
    <g id="Rectangle_1607" data-name="Rectangle 1607" transform="translate(661.137 2493.863)" fill="#8d1218" stroke="#fff" stroke-width="2">
      <rect width="68.155" height="68.155" rx="17" stroke="none"/>
      <rect x="1" y="1" width="66.155" height="66.155" rx="16" fill="none"/>
    </g>
    <g id="Group_2309" data-name="Group 2309" transform="translate(677.029 2510.839)">
      <path id="noun-salary-2279793" d="M105.406,0H73.663A3.56,3.56,0,0,0,70,3.667V30.544a3.56,3.56,0,0,0,3.663,3.663h31.743a3.56,3.56,0,0,0,3.663-3.663V3.667A3.56,3.56,0,0,0,105.406,0ZM72.442,3.681a1.122,1.122,0,0,1,1.221-1.236h1a3.659,3.659,0,0,1-2.217,2.217Zm0,20.965a3.659,3.659,0,0,1,2.217,2.217h-.982a1.121,1.121,0,0,1-1.236-1.221Zm34.185,5.865a1.121,1.121,0,0,1-1.221,1.236H73.677a1.121,1.121,0,0,1-1.236-1.221V29.1a3.924,3.924,0,0,0,1.221.206h31.743a3.972,3.972,0,0,0,1.221-.2Zm0-4.884a1.121,1.121,0,0,1-1.221,1.236h-1a3.659,3.659,0,0,1,2.217-2.217Zm0-3.525a6.124,6.124,0,0,0-4.76,4.76H77.2a6.124,6.124,0,0,0-4.76-4.76V7.206a6.124,6.124,0,0,0,4.76-4.76h24.665a6.123,6.123,0,0,0,4.76,4.76Zm0-17.44a3.659,3.659,0,0,1-2.217-2.217h.982a1.122,1.122,0,0,1,1.236,1.221Z" transform="translate(-70 -0.004)" fill="#fff" stroke="#8d1218" stroke-width="1.5"/>
      <path id="Path_7491" data-name="Path 7491" d="M59.533,80.117h-2.94a4.44,4.44,0,0,0-1.47-2.778h4.409a.556.556,0,0,0,0-1.112H48.3a.556.556,0,0,0,0,1.112h3.89a3.341,3.341,0,0,1,3.283,2.778H48.3a.556.556,0,0,0,0,1.112h7.174a3.341,3.341,0,0,1-3.283,2.778H48.3a.556.556,0,0,0-.391.95l7.778,7.778a.556.556,0,0,0,.786-.783l-6.828-6.835h2.547a4.445,4.445,0,0,0,4.409-3.89h2.94a.556.556,0,0,0,0-1.112h-.009Z" transform="translate(-34.386 -69)" fill="#fbfffa"/>
    </g>
  </g>
</svg>
