<svg id="_16432336021579838418" data-name="16432336021579838418" xmlns="http://www.w3.org/2000/svg" width="43.998" height="48.971" viewBox="0 0 43.998 48.971">
  <g id="Group_1684" data-name="Group 1684" transform="translate(0 0)">
    <g id="Group_1683" data-name="Group 1683" transform="translate(0)">
      <path id="Path_7495" data-name="Path 7495" d="M67.008,28.824a17.87,17.87,0,0,0-5.6-6.04q.051-.047.1-.1a2.865,2.865,0,0,0,.638-3.086,2.868,2.868,0,0,0,1.384-4.682,2.865,2.865,0,0,0,0-3.825A2.869,2.869,0,0,0,61.39,6.313H59.24l1.169-5.144A.956.956,0,0,0,59.477,0H51.825a.957.957,0,0,0-.933,1.169l.341,1.5L48.989,3.792A10.7,10.7,0,0,0,46.2,5.8a8.216,8.216,0,0,1-4.9,2.368v-.9a.956.956,0,0,0-.956-.956H26.956A.956.956,0,0,0,26,7.269v15.3a.956.956,0,0,0,.956.956H40.347a.956.956,0,0,0,.956-.956v-.956h.352a14.539,14.539,0,0,1,4.6.747,22.674,22.674,0,0,0,3.083.793,18.367,18.367,0,0,0-5.048,5.669A20.089,20.089,0,0,0,41.3,38.45a9.206,9.206,0,0,0,4,7.773c2.517,1.8,6.1,2.748,10.349,2.748s7.832-.95,10.349-2.748a9.206,9.206,0,0,0,4-7.773A20.089,20.089,0,0,0,67.008,28.824ZM39.391,21.616H27.913V8.226H39.391Zm18.888-19.7-1,4.4H54.023l-1-4.4ZM46.864,20.548a16.449,16.449,0,0,0-5.208-.845H41.3V10.094a10.115,10.115,0,0,0,6.251-2.94A8.8,8.8,0,0,1,49.844,5.5L51.67,4.59l.391,1.723h-.236a.956.956,0,1,0,0,1.913H61.39a.956.956,0,0,1,0,1.913H57.564a.956.956,0,0,0,0,1.913H61.39a.956.956,0,1,1,0,1.913H57.564a.956.956,0,0,0,0,1.913H61.39a.956.956,0,1,1,0,1.913H57.564a.956.956,0,0,0,0,1.913h1.913a.956.956,0,1,1,0,1.913H53.443c-.3,0-.612-.007-.927-.021A20.751,20.751,0,0,1,46.864,20.548ZM64.888,44.667c-2.191,1.565-5.385,2.392-9.237,2.392s-7.046-.827-9.237-2.392a7.363,7.363,0,0,1-3.2-6.216A18.121,18.121,0,0,1,45.938,29.8a14.179,14.179,0,0,1,6.746-6.287c.257.009.512.014.759.014h5.213A14.216,14.216,0,0,1,65.364,29.8a18.121,18.121,0,0,1,2.721,8.648A7.363,7.363,0,0,1,64.888,44.667Z" transform="translate(-26 0)" fill="#c91429"/>
      <path id="Path_7496" data-name="Path 7496" d="M56.868,79.237H54.593a3.436,3.436,0,0,0-1.137-2.15h3.412a.43.43,0,1,0,0-.86H48.175a.43.43,0,1,0,0,.86h3.01a2.586,2.586,0,0,1,2.541,2.15H48.175a.43.43,0,0,0,0,.86h5.552a2.586,2.586,0,0,1-2.541,2.15h-3.01a.43.43,0,0,0-.3.735L53.892,89A.43.43,0,0,0,54.5,88.4l-5.284-5.289h1.971A3.44,3.44,0,0,0,54.6,80.1h2.275a.43.43,0,0,0,0-.86h-.007Z" transform="translate(-22.622 -46.676)" fill="#c91429" stroke="#c91429" stroke-width="0.8"/>
    </g>
  </g>
</svg>
