<svg id="_1952839001536669570" data-name="1952839001536669570" xmlns="http://www.w3.org/2000/svg" width="28.535" height="31.852" viewBox="0 0 28.535 31.852">
  <path id="Path_6672" data-name="Path 6672" d="M39.236,7.889H11.81a.554.554,0,0,0-.554.554V35.87a.554.554,0,0,0,.554.554h2.675v2.762a.554.554,0,1,0,1.108,0V36.424H35.571v2.762a.554.554,0,1,0,1.108,0V36.424h2.558a.554.554,0,0,0,.554-.554V8.443A.554.554,0,0,0,39.236,7.889Zm-.554,27.427H12.364V9H38.682Z" transform="translate(-11.256 -7.889)" fill="#fff"/>
  <path id="Path_6673" data-name="Path 6673" d="M20.552,38.708H41.52a.554.554,0,0,0,.554-.554V17.187a.554.554,0,0,0-.554-.554H20.552a.554.554,0,0,0-.554.554V38.154A.554.554,0,0,0,20.552,38.708Zm.554-20.967h19.86V37.6H21.106Z" transform="translate(-16.769 -13.403)" fill="#fff"/>
  <path id="Path_6674" data-name="Path 6674" d="M47.784,30.883a2.959,2.959,0,0,0-2.959-2.957h0a2.957,2.957,0,0,0-.554,5.863v5.9s0,.007,0,.011,0,.007,0,.011v1.391a.554.554,0,1,0,1.108,0v-.848H47.23a.554.554,0,0,0,0-1.108H45.379v-1.4H47.23a.554.554,0,0,0,0-1.108H45.379V33.789A2.963,2.963,0,0,0,47.784,30.883Zm-4.812,0a1.853,1.853,0,0,1,1.853-1.849h0a1.85,1.85,0,0,1,0,3.7h0A1.854,1.854,0,0,1,42.972,30.883Z" transform="translate(-30.557 -20.524)" fill="#fff"/>
</svg>
