<svg xmlns="http://www.w3.org/2000/svg" width="33.072" height="31.728" viewBox="0 0 33.072 31.728">
  <g id="_3153719091554897559" data-name="3153719091554897559" transform="translate(0.65 0.65)">
    <path id="Path_6682" data-name="Path 6682" d="M74.132,83.972h-1.3v-.031l-.079-1.507a19.836,19.836,0,0,1,.128-4.088l.091-.651a3.9,3.9,0,0,1,1.441-2.559l4.72-3.757a.694.694,0,0,1,.926.036l.033.033.028.037a3.5,3.5,0,0,1,.292,3.794l-.065.118-.145.236-2.9,2.31-.81-1.016,2.719-2.168.017-.028.04-.073A2.2,2.2,0,0,0,79.4,72.83l-4.173,3.322a2.6,2.6,0,0,0-.962,1.712v.007l-.091.652a18.527,18.527,0,0,0-.118,3.823v.013l.081,1.565Z" transform="translate(-55.017 -57.116)" fill="#fff"/>
    <path id="Path_6683" data-name="Path 6683" d="M95.929,66.835l-1.3-.062.069-1.446a.863.863,0,0,1,.173-.478c.021-.028,2.229-2.978,3.34-4.72.847-1.327,1.646-2.692,2.375-4.058q.776-3.444,1.549-6.883a2.931,2.931,0,0,0-.875.408,3.438,3.438,0,0,0-1.109,1.629l-.012.033a2.945,2.945,0,0,0-.16.617l-.008.058L98.36,56.748l-.309.283-.077.064c-.047.039-.091.076-.134.114l-.018.015-.644.534c-.289.239-.561.464-.787.654l-.053.046-.846-.987.061-.052c.23-.194.506-.422.8-.663l.631-.524c.058-.052.114-.1.164-.139l.056-.046.032-.029L98.7,51.628a4.247,4.247,0,0,1,.215-.814,4.735,4.735,0,0,1,1.543-2.243l.029-.022c.487-.348,2.04-1.161,2.765-.351l.02.023.018.024a1.1,1.1,0,0,1,.2.843l-.006.028q-.823,3.661-1.649,7.327l-.019.085-.041.077c-.756,1.422-1.587,2.843-2.468,4.223-1.014,1.59-2.905,4.141-3.317,4.694Z" transform="translate(-71.087 -39.993)" fill="#fff"/>
    <path id="Path_6685" data-name="Path 6685" d="M36.809,83.975h-1.3v-.083l.084-1.532a18.688,18.688,0,0,0-.119-3.826l-.091-.664a2.611,2.611,0,0,0-.964-1.718l-4.174-3.321a2.192,2.192,0,0,0,.125,1.826l.056.1,2.72,2.171-.811,1.016-2.891-2.307-.168-.268-.048-.088a3.493,3.493,0,0,1,.3-3.8l.024-.031.028-.028a.687.687,0,0,1,.933-.046l4.722,3.757A3.9,3.9,0,0,1,36.672,77.7l.09.66a19.993,19.993,0,0,1,.128,4.089Z" transform="translate(-22.848 -57.117)" fill="#fff"/>
    <path id="Path_6686" data-name="Path 6686" d="M12.969,66.872h-1.3v-.031L11.6,65.547c-.412-.553-2.3-3.1-3.318-4.7-.887-1.39-1.717-2.811-2.466-4.224l-.041-.077L4.1,49.111a1.1,1.1,0,0,1,.2-.843l.034-.042c.71-.81,2.28,0,2.774.352l.033.025a4.751,4.751,0,0,1,1.542,2.245,4.544,4.544,0,0,1,.214.806l1.47,4.387.028.026.211.174,1.489,1.241-.823,1.006-.063-.052L9.521,57.031l-.283-.265-1.609-4.8L7.62,51.91a3.239,3.239,0,0,0-.162-.625l-.01-.028A3.455,3.455,0,0,0,6.34,49.629a3.047,3.047,0,0,0-.882-.408L7.007,56.1c.722,1.357,1.52,2.721,2.372,4.057,1.112,1.743,3.319,4.692,3.341,4.721a.86.86,0,0,1,.172.474Z" transform="translate(-4.734 -40.014)" fill="#fff"/>
    <path id="Ellipse_101" data-name="Ellipse 101" d="M7.375-.65A8.025,8.025,0,1,1-.65,7.375,8.034,8.034,0,0,1,7.375-.65Zm0,14.749A6.725,6.725,0,1,0,.65,7.375,6.732,6.732,0,0,0,7.375,14.1Z" transform="translate(8.386 0)" fill="#fff"/>
    <path id="Path_6693" data-name="Path 6693" d="M34.808,121.253a.65.65,0,0,1-.65-.65V117.63H26.43v2.97a.65.65,0,1,1-1.3,0v-3.428a.843.843,0,0,1,.842-.842h8.644a.843.843,0,0,1,.842.842V120.6A.65.65,0,0,1,34.808,121.253Z" transform="translate(-20.157 -90.175)" fill="#fff"/>
    <path id="Path_6695" data-name="Path 6695" d="M68.82,121.253a.65.65,0,0,1-.65-.65v-3.431a.843.843,0,0,1,.842-.842h8.641a.843.843,0,0,1,.842.842V120.6a.65.65,0,0,1-1.3,0v-2.97H69.47V120.6A.65.65,0,0,1,68.82,121.253Z" transform="translate(-51.697 -90.175)" fill="#fff"/>
    <g id="Layer_26" data-name="Layer 26" transform="translate(12.782 3.753)">
      <path id="Path_2347" data-name="Path 2347" d="M15.466,3.876H14.048a2.144,2.144,0,0,0-.712-1.34h2.13a.268.268,0,1,0,0-.536h-5.42a.268.268,0,1,0,0,.536h1.876a1.608,1.608,0,0,1,1.584,1.34h-3.46a.268.268,0,1,0,0,.536h3.46a1.608,1.608,0,0,1-1.584,1.34H10.047a.268.268,0,0,0-.189.458L13.61,9.964a.268.268,0,0,0,.379-.378l-3.3-3.3h1.229a2.144,2.144,0,0,0,2.126-1.876h1.418a.268.268,0,1,0,0-.536Z" transform="translate(-9.778 -2)" fill="#fff"/>
      <path id="Path_2347_-_Outline" data-name="Path 2347 - Outline" d="M10.047,1.9h5.42a.368.368,0,1,1,0,.736H13.581a2.242,2.242,0,0,1,.554,1.14h1.332a.368.368,0,1,1,0,.736H14.135a2.249,2.249,0,0,1-2.212,1.876h-.988l3.128,3.13a.368.368,0,0,1-.521.519L9.787,6.282a.368.368,0,0,1,.259-.629h1.877a1.5,1.5,0,0,0,1.461-1.14H10.047a.368.368,0,1,1,0-.736h3.337a1.5,1.5,0,0,0-1.461-1.14H10.047a.368.368,0,0,1,0-.736Zm5.42.536a.168.168,0,0,0,0-.336h-5.42a.168.168,0,0,0,0,.336h1.876A1.7,1.7,0,0,1,13.606,3.86l.02.117H10.047a.168.168,0,1,0,0,.336h3.579l-.02.117a1.7,1.7,0,0,1-1.683,1.424H10.047a.168.168,0,0,0-.119.287l3.753,3.753a.168.168,0,0,0,.228-.009.168.168,0,0,0,.008-.23L10.453,6.189h1.47A2.048,2.048,0,0,0,13.949,4.4l.011-.088h1.506a.168.168,0,1,0,0-.336H13.96l-.011-.087a2.043,2.043,0,0,0-.678-1.278l-.2-.175Z" transform="translate(-9.778 -2)" fill="#fff"/>
    </g>
  </g>
</svg>
