<svg xmlns="http://www.w3.org/2000/svg" width="27.347" height="30.928" viewBox="0 0 27.347 30.928">
  <g id="Group_1568" data-name="Group 1568" transform="translate(-995.326 -670.58)">
    <path id="_169585954816291291743835" data-name="169585954816291291743835" d="M27.79,30.428H12.307A2.611,2.611,0,0,1,9.7,27.82V20.536a.507.507,0,0,1,1.014,0V27.82a1.6,1.6,0,0,0,1.594,1.594H27.79a1.6,1.6,0,0,0,1.594-1.594V2.608A1.6,1.6,0,0,0,27.79,1.014H12.307a1.6,1.6,0,0,0-1.594,1.594V9.882a.507.507,0,0,1-1.014,0V2.608A2.611,2.611,0,0,1,12.307,0H27.79A2.611,2.611,0,0,1,30.4,2.608V27.82a2.611,2.611,0,0,1-2.608,2.608Z" transform="translate(992.025 670.83)" fill="#fff"/>
    <path id="_169585954816291291743835_-_Outline" data-name="169585954816291291743835 - Outline" d="M27.79,30.678H12.307A2.861,2.861,0,0,1,9.449,27.82V20.536a.757.757,0,1,1,1.514,0V27.82a1.346,1.346,0,0,0,1.344,1.344H27.79a1.346,1.346,0,0,0,1.344-1.344V2.608A1.346,1.346,0,0,0,27.79,1.264H12.307a1.346,1.346,0,0,0-1.344,1.344V9.882a.757.757,0,0,1-1.514,0V2.608A2.861,2.861,0,0,1,12.307-.25H27.79a2.861,2.861,0,0,1,2.858,2.858V27.82a2.861,2.861,0,0,1-2.858,2.858Zm-17.584-10.4a.257.257,0,0,0-.257.257V27.82a2.361,2.361,0,0,0,2.359,2.358H27.79a2.361,2.361,0,0,0,2.358-2.358V2.608A2.361,2.361,0,0,0,27.79.25H12.307A2.361,2.361,0,0,0,9.949,2.608V9.882a.257.257,0,1,0,.514,0V2.608A1.846,1.846,0,0,1,12.307.764H27.79a1.846,1.846,0,0,1,1.844,1.844V27.82a1.846,1.846,0,0,1-1.844,1.844H12.307a1.846,1.846,0,0,1-1.844-1.843V20.536a.255.255,0,0,0-.075-.182A.259.259,0,0,0,10.206,20.279Z" transform="translate(992.025 670.83)" fill="#fff"/>
    <path id="_169585954816291291743835-2" data-name="169585954816291291743835" d="M17.324,15.213a.507.507,0,0,0-.507-.507H2.6a.507.507,0,0,0,0,1.014H16.817a.507.507,0,0,0,.507-.507Zm-.149,4.7,2.857-2.858a2.608,2.608,0,0,0,0-3.689l-2.857-2.857a.507.507,0,1,0-.717.717l2.857,2.857a1.6,1.6,0,0,1,0,2.254L16.458,19.2a.507.507,0,0,0,.717.717Z" transform="translate(993.488 670.83)" fill="#fff"/>
    <path id="_169585954816291291743835_-_Outline-2" data-name="169585954816291291743835 - Outline" d="M16.817,10.112a.757.757,0,0,1,.535.222l2.857,2.857a2.858,2.858,0,0,1,0,4.042l-2.857,2.858a.757.757,0,0,1-1.071-1.071l2.857-2.858a1.346,1.346,0,0,0,0-1.9L16.281,11.4a.757.757,0,0,1,.535-1.292Zm0,9.7A.257.257,0,0,0,17,19.738l2.857-2.857a2.358,2.358,0,0,0,0-3.335L17,10.688a.257.257,0,1,0-.364.364l2.857,2.857a1.846,1.846,0,0,1,0,2.608l-2.858,2.858a.257.257,0,0,0,.182.439ZM2.6,14.455H16.817a.757.757,0,0,1,0,1.514H2.6a.757.757,0,1,1,0-1.514ZM16.817,15.47a.257.257,0,0,0,.257-.257A.259.259,0,0,0,17,15.031a.255.255,0,0,0-.182-.075H2.6a.255.255,0,0,0-.182.075.259.259,0,0,0-.075.182.257.257,0,0,0,.257.257Z" transform="translate(993.488 670.83)" fill="#fff"/>
  </g>
</svg>
