<svg xmlns="http://www.w3.org/2000/svg" width="33.319" height="31.852" viewBox="0 0 33.319 31.852">
  <g id="Layer_67" data-name="Layer 67" transform="translate(0)">
    <path id="Path_6670" data-name="Path 6670" d="M36.294,11.26a6.966,6.966,0,0,0-13.93-.149,14.5,14.5,0,0,0-3.87-.528,14.229,14.229,0,0,0-4.881.85L8.944,7.987a.581.581,0,0,0-.9.62l1.39,5.248a10.91,10.91,0,0,0-3.3,4.938H3.564a.574.574,0,0,0-.574.7l1.068,4.892a.574.574,0,0,0,.574.454h1.5a11.513,11.513,0,0,0,5.57,6.506V35.48a.574.574,0,0,0,.574.574h2.36a.574.574,0,0,0,.546-.4l.913-2.8a14.471,14.471,0,0,0,4.806,0l.907,2.819a.574.574,0,0,0,.545.4h2.36a.574.574,0,0,0,.574-.574V31.363a11.18,11.18,0,0,0,6.029-9.021A3.239,3.239,0,0,0,34,19.149a.574.574,0,0,0-1.148,0,2.084,2.084,0,0,1-1.539,2.01,9.928,9.928,0,0,0-.7-3.055A6.971,6.971,0,0,0,36.294,11.26ZM29.323,5.437a5.822,5.822,0,1,1-3.514,10.456c-.115-.1-.241-.207-.362-.3A5.811,5.811,0,0,1,29.323,5.437Zm.861,16.382A9.915,9.915,0,0,1,24.442,30.5a.574.574,0,0,0-.3.431v3.979H22.771l-.936-2.871a.115.115,0,0,0-.04-.069.574.574,0,0,0-.626-.31,13.54,13.54,0,0,1-5.352,0,.574.574,0,0,0-.666.385l-.936,2.871H12.849v-3.9a.138.138,0,0,0,0-.075.574.574,0,0,0-.3-.436,10.376,10.376,0,0,1-5.432-6.379.574.574,0,0,0-.574-.425H5.091l-.815-3.75h2.3a.574.574,0,0,0,.574-.425,9.8,9.8,0,0,1,3.307-5.007.6.6,0,0,0,.189-.574L9.581,9.916l3.6,2.653a.574.574,0,0,0,.281.1.423.423,0,0,0,.264-.029,13.086,13.086,0,0,1,4.766-.907,13.356,13.356,0,0,1,3.951.574,6.971,6.971,0,0,0,.534,1.8,11.364,11.364,0,0,0-3.279-.827.577.577,0,1,0-.115,1.148A9.9,9.9,0,0,1,24.66,16.41c.144.126.293.253.448.373a6.89,6.89,0,0,1,2.354,4.2.574.574,0,0,0,.574.5h.075a.574.574,0,0,0,.494-.643,7.465,7.465,0,0,0-1.011-2.871,6.936,6.936,0,0,0,1.723.23H29.4a8.791,8.791,0,0,1,.781,3.618Z" transform="translate(-2.975 -4.219)" fill="#fff"/>
    <g id="Layer_26" data-name="Layer 26" transform="translate(24.302 4.017)">
      <path id="Path_2347" data-name="Path 2347" d="M14.643,3.6H13.43a1.834,1.834,0,0,0-.609-1.146h1.821a.229.229,0,0,0,0-.458H10.008a.229.229,0,1,0,0,.458h1.6A1.375,1.375,0,0,1,12.967,3.6H10.008a.229.229,0,1,0,0,.458h2.959a1.375,1.375,0,0,1-1.355,1.146h-1.6a.229.229,0,0,0-.162.392L13.055,8.81a.229.229,0,0,0,.324-.323L10.561,5.668h1.051a1.834,1.834,0,0,0,1.818-1.6h1.213a.229.229,0,0,0,0-.458Z" transform="translate(-9.778 -2)" fill="#fff"/>
      <path id="Path_2347_-_Outline" data-name="Path 2347 - Outline" d="M10.008,1.85h4.635a.379.379,0,1,1,0,.758H13.169a1.981,1.981,0,0,1,.388.846h1.085a.379.379,0,0,1,0,.758H13.558a1.988,1.988,0,0,1-1.945,1.6h-.689l2.568,2.569a.379.379,0,0,1-.537.535l-.005,0L9.74,5.707a.379.379,0,0,1,.267-.648h1.6a1.222,1.222,0,0,0,1.164-.846H10.008a.379.379,0,0,1,0-.758h2.769a1.222,1.222,0,0,0-1.164-.846h-1.6a.379.379,0,0,1,0-.758Zm4.635.458a.079.079,0,0,0,0-.158H10.008a.079.079,0,1,0,0,.158h1.6a1.521,1.521,0,0,1,1.5,1.271l.03.175H10.008a.079.079,0,0,0,0,.158h3.137l-.03.175a1.521,1.521,0,0,1-1.5,1.271h-1.6a.079.079,0,0,0-.056.135L13.158,8.7a.081.081,0,0,0,.107,0,.079.079,0,0,0,0-.107L10.2,5.518h1.413a1.687,1.687,0,0,0,1.669-1.473l.017-.131h1.345a.079.079,0,0,0,0-.158H13.3l-.017-.131a1.683,1.683,0,0,0-.559-1.052l-.3-.263Z" transform="translate(-9.778 -2)" fill="#fff"/>
    </g>
  </g>
</svg>
