<svg xmlns="http://www.w3.org/2000/svg" xmlns:xlink="http://www.w3.org/1999/xlink" width="44" height="44" viewBox="0 0 44 44">
  <defs>
    <filter id="Path_7092" x="6.243" y="6.341" width="31.515" height="32.077" filterUnits="userSpaceOnUse">
      <feOffset dy="7" input="SourceAlpha"/>
      <feGaussianBlur stdDeviation="4.5" result="blur"/>
      <feFlood flood-opacity="0.161"/>
      <feComposite operator="in" in2="blur"/>
      <feComposite in="SourceGraphic"/>
    </filter>
  </defs>
  <g id="Group_1980" data-name="Group 1980" transform="translate(-727 -1513)">
    <g id="Ellipse_125" data-name="Ellipse 125" transform="translate(727 1513)" fill="#f7a600" stroke="#f7a600" stroke-width="2">
      <circle cx="22" cy="22" r="22" stroke="none"/>
      <circle cx="22" cy="22" r="21" fill="none"/>
    </g>
    <g id="noun-hero-195465" transform="translate(739.585 1525.841)">
      <path id="Path_7088" data-name="Path 7088" d="M101.877,349.039H99.912a1.13,1.13,0,0,1-1.126-1.033l-.421-4.883a1.129,1.129,0,0,1,1.125-1.227H102.3a1.129,1.129,0,0,1,1.125,1.227L103,348.007a1.128,1.128,0,0,1-1.125,1.032Z" transform="translate(-98.347 -330.722)" fill="#fff"/>
      <path id="Path_7089" data-name="Path 7089" d="M98.966,223.414v0l-.015.01-.016.007v0a2.007,2.007,0,0,0-.693,2.676,3.79,3.79,0,0,0,1.6,1.14,1.124,1.124,0,0,0,1.109-.066v0l.015-.009.016-.007v0a1.123,1.123,0,0,0,.666-.889,3.788,3.788,0,0,0-.069-1.965,2.006,2.006,0,0,0-2.615-.9Z" transform="translate(-97.989 -216.491)" fill="#fff"/>
      <path id="Path_7090" data-name="Path 7090" d="M466.428,348.018l-.421-4.883a1.129,1.129,0,0,1,1.125-1.227h2.808a1.129,1.129,0,0,1,1.125,1.227l-.421,4.883a1.129,1.129,0,0,1-1.126,1.033h-1.965A1.129,1.129,0,0,1,466.428,348.018Z" transform="translate(-452.254 -330.733)" fill="#fff"/>
      <path id="Path_7091" data-name="Path 7091" d="M504.335,223.414v0l.015.01.016.007,0,0a2.007,2.007,0,0,1,.693,2.676,3.794,3.794,0,0,1-1.6,1.14,1.124,1.124,0,0,1-1.109-.066v0l-.015-.009-.016-.007v0a1.123,1.123,0,0,1-.666-.889,3.789,3.789,0,0,1,.069-1.965,2.007,2.007,0,0,1,2.615-.9Z" transform="translate(-486.483 -216.491)" fill="#fff"/>
      <g transform="matrix(1, 0, 0, 1, -12.59, -12.84)" filter="url(#Path_7092)">
        <path id="Path_7092-2" data-name="Path 7092" d="M291.849,42.778v0l-.021,0-.021,0v0a2.39,2.39,0,0,0-2.237,2.415,4.51,4.51,0,0,0,1.037,2.1,1.337,1.337,0,0,0,1.2.556v0h.042v0a1.338,1.338,0,0,0,1.2-.556,4.511,4.511,0,0,0,1.036-2.1,2.389,2.389,0,0,0-2.237-2.415Z" transform="translate(-269.83 -29.93)" fill="#fff"/>
      </g>
      <path id="Path_7093" data-name="Path 7093" d="M141.227,85.183a1.224,1.224,0,0,0-1.731,0l-4.1,3.858h-4.454l-4.1-3.858a1.224,1.224,0,1,0-1.731,1.731l3.838,4.077.7,8.835a1.883,1.883,0,0,0,1.877,1.733h3.275a1.883,1.883,0,0,0,1.877-1.733l.7-8.835,3.838-4.077a1.224,1.224,0,0,0,0-1.731Z" transform="translate(-123.756 -83.253)" fill="#fff"/>
    </g>
  </g>
</svg>
