<svg id="Group_1973" data-name="Group 1973" xmlns="http://www.w3.org/2000/svg" xmlns:xlink="http://www.w3.org/1999/xlink" width="255.711" height="240.581" viewBox="0 0 255.711 240.581">
  <defs>
    <clipPath id="clip-path">
      <rect id="Rectangle_1794" data-name="Rectangle 1794" width="255.711" height="240.581" fill="none"/>
    </clipPath>
  </defs>
  <g id="Group_1972" data-name="Group 1972" clip-path="url(#clip-path)">
    <path id="Path_8222" data-name="Path 8222" d="M249.286,79.028l-51.065,62.238a2.144,2.144,0,0,0,1.658,3.5h9.816l-38.247,73.274-25.473-49.91-2.462-5.965a19.53,19.53,0,0,0-6.872-8.659c-11.7-8.086-23.568,2.609-23.568,2.609-9.572,8.614-41.28,56.04-53.389,74.372-3.536-5.154-7.311-11.491-11.47-18.942C32.95,184.2,25.288,181.586,25.288,181.586,9.155,183.205.831,193.611.831,193.611c7.3,2.563,32.114,27.719,43.994,44.235,4.228,5.877,10.515,17.028,17.755,17.028h6.575a17.93,17.93,0,0,0,15.36-8.68l.984-1.634,41.312-62.067,29.184,64.828a12.4,12.4,0,0,0,11.311,7.313h17.438a6.367,6.367,0,0,0,5.568-3.278l.081-.146a7.627,7.627,0,0,0,.539-.972L238.47,147.286l6.844.783a6.081,6.081,0,0,0,6.762-5.684l3.589-60.861a3.6,3.6,0,0,0-6.379-2.5" transform="translate(-0.288 -26.955)" fill="#fff"/>
    <path id="Path_8223" data-name="Path 8223" d="M249.286,79.028l-51.065,62.238a2.144,2.144,0,0,0,1.658,3.5h9.816l-38.247,73.274-25.473-49.91-2.462-5.965a19.53,19.53,0,0,0-6.872-8.659c-11.7-8.086-23.568,2.609-23.568,2.609-9.572,8.614-41.28,56.04-53.389,74.372-3.536-5.154-7.311-11.491-11.47-18.942C32.95,184.2,25.288,181.586,25.288,181.586,9.155,183.205.831,193.611.831,193.611c7.3,2.563,32.114,27.719,43.994,44.235,4.228,5.877,10.515,17.028,17.755,17.028h6.575a17.93,17.93,0,0,0,15.36-8.68l.984-1.634,41.312-62.067,29.184,64.828a12.4,12.4,0,0,0,11.311,7.313h17.438a6.367,6.367,0,0,0,5.568-3.278l.081-.146a7.627,7.627,0,0,0,.539-.972L238.47,147.286l6.844.783a6.081,6.081,0,0,0,6.762-5.684l3.589-60.861A3.6,3.6,0,0,0,249.286,79.028Z" transform="translate(-0.288 -26.955)" fill="none" stroke="#000" stroke-width="1"/>
    <path id="Path_8224" data-name="Path 8224" d="M109.442,352.981c-4.308.372-11.784.977-17.677,1.236-3.543.156-5.583-.191-6.757-.661,0,.133.005.257.01.374a1.219,1.219,0,0,0,1.159,1.151,207.153,207.153,0,0,0,23.146.023.868.868,0,0,0,.707-1.3,7.113,7.113,0,0,0-.588-.82" transform="translate(-29.49 -122.45)" fill="#ab1b2d"/>
    <path id="Path_8225" data-name="Path 8225" d="M109.442,352.981c-4.308.372-11.784.977-17.677,1.236-3.543.156-5.583-.191-6.757-.661,0,.133.005.257.01.374a1.219,1.219,0,0,0,1.159,1.151,207.153,207.153,0,0,0,23.146.023.868.868,0,0,0,.707-1.3A7.113,7.113,0,0,0,109.442,352.981Z" transform="translate(-29.49 -122.45)" fill="none" stroke="#000" stroke-width="1"/>
    <path id="Path_8226" data-name="Path 8226" d="M91.764,349.6c5.894-.259,13.37-.864,17.677-1.236-4.235-5.2-17.677-8.7-17.677-8.7h-3.8a15.922,15.922,0,0,0-2.96,9.273c1.174.471,3.214.818,6.757.662" transform="translate(-29.489 -117.83)" fill="#ab1b2d"/>
    <path id="Path_8227" data-name="Path 8227" d="M91.764,349.6c5.894-.259,13.37-.864,17.677-1.236-4.235-5.2-17.677-8.7-17.677-8.7h-3.8a15.922,15.922,0,0,0-2.96,9.273C86.181,349.406,88.221,349.753,91.764,349.6Z" transform="translate(-29.489 -117.83)" fill="none" stroke="#000" stroke-width="1"/>
    <path id="Path_8228" data-name="Path 8228" d="M88.562,330.173l.355,7.031a1.605,1.605,0,0,0,1.371,1.51,6.248,6.248,0,0,0,2.852-.236,1.9,1.9,0,0,0,1.277-1.46l1.228-6.844Z" transform="translate(-30.722 -114.538)" fill="#fff"/>
    <path id="Path_8229" data-name="Path 8229" d="M88.562,330.173l.355,7.031a1.605,1.605,0,0,0,1.371,1.51,6.248,6.248,0,0,0,2.852-.236,1.9,1.9,0,0,0,1.277-1.46l1.228-6.844Z" transform="translate(-30.722 -114.538)" fill="none" stroke="#000" stroke-width="1"/>
    <path id="Path_8230" data-name="Path 8230" d="M19.426,363.842a3.707,3.707,0,0,1-3.068-2.932c0,.012,0,.024-.007.036a3.344,3.344,0,0,0,1.636,3.578,8.519,8.519,0,0,0,4.53.916,4.189,4.189,0,0,0,3.4-2.025l.01-.018c-1.407.9-3.383,1.006-6.5.444" transform="translate(-5.651 -125.201)" fill="#ab1b2d"/>
    <path id="Path_8231" data-name="Path 8231" d="M19.426,363.842a3.707,3.707,0,0,1-3.068-2.932c0,.012,0,.024-.007.036a3.344,3.344,0,0,0,1.636,3.578,8.519,8.519,0,0,0,4.53.916,4.189,4.189,0,0,0,3.4-2.025l.01-.018C24.517,364.3,22.542,364.4,19.426,363.842Z" transform="translate(-5.651 -125.201)" fill="none" stroke="#000" stroke-width="1"/>
    <path id="Path_8232" data-name="Path 8232" d="M28.271,333.488H25.14c-4.769-.126-7.764,12.874-8.744,17.909a3.707,3.707,0,0,0,3.068,2.932c3.115.562,5.091.455,6.5-.445,2.576-4.382,3.854-10.8,4.468-14.544.7-4.26-2.158-5.851-2.158-5.851" transform="translate(-5.688 -115.688)" fill="#ab1b2d"/>
    <path id="Path_8233" data-name="Path 8233" d="M28.271,333.488H25.14c-4.769-.126-7.764,12.874-8.744,17.909a3.707,3.707,0,0,0,3.068,2.932c3.115.562,5.091.455,6.5-.445,2.576-4.382,3.854-10.8,4.468-14.544C31.128,335.079,28.271,333.488,28.271,333.488Z" transform="translate(-5.688 -115.688)" fill="none" stroke="#000" stroke-width="1"/>
    <path id="Path_8234" data-name="Path 8234" d="M29.448,323.5l-1.739,6.915a1.878,1.878,0,0,0,.976,2.127,6.66,6.66,0,0,0,3.6.871,1.567,1.567,0,0,0,1.279-1.046l2.552-7.275Z" transform="translate(-9.593 -112.222)" fill="#fff"/>
    <path id="Path_8235" data-name="Path 8235" d="M29.448,323.5l-1.739,6.915a1.878,1.878,0,0,0,.976,2.127,6.66,6.66,0,0,0,3.6.871,1.567,1.567,0,0,0,1.279-1.046l2.552-7.275Z" transform="translate(-9.593 -112.222)" fill="none" stroke="#000" stroke-width="1"/>
    <path id="Path_8236" data-name="Path 8236" d="M90.839,183.009S75.3,280.126,75.558,280.66a12.924,12.924,0,0,1-8.969.248s1.4-51.916,4.7-71.822c0,0-26.516,46.4-34.936,69.524a21.049,21.049,0,0,1-8.027-2.916s28.55-83.523,36.167-94.647Z" transform="translate(-9.825 -62.806)" fill="#fff"/>
    <path id="Path_8237" data-name="Path 8237" d="M90.839,183.009S75.3,280.126,75.558,280.66a12.924,12.924,0,0,1-8.969.248s1.4-51.916,4.7-71.822c0,0-26.516,46.4-34.936,69.524a21.049,21.049,0,0,1-8.027-2.916s28.55-83.523,36.167-94.647Z" transform="translate(-9.825 -62.806)" fill="none" stroke="#000" stroke-width="1"/>
    <path id="Path_8238" data-name="Path 8238" d="M212.82,38.439s-10.484,2.312-16.86,5.256a5.825,5.825,0,0,0-2.852,2.868C191.2,50.74,185.5,61.216,174.43,66.215c1.594,2.115,4.159,6.515,5.277,13.909,6.646-4.947,12.383-13.208,15.138-26.755a5.405,5.405,0,0,0,4.714-.131c1.383-.671,2.979-1.624,4.177-2.373a5.475,5.475,0,0,0,2.428-3.261,18.9,18.9,0,0,0,.187-5.05l5.389-1.669a1.917,1.917,0,0,0,1.08-2.446" transform="translate(-60.51 -13.335)" fill="#fff"/>
    <path id="Path_8239" data-name="Path 8239" d="M212.82,38.439s-10.484,2.312-16.86,5.256a5.825,5.825,0,0,0-2.852,2.868C191.2,50.74,185.5,61.216,174.43,66.215c1.594,2.115,4.159,6.515,5.277,13.909,6.646-4.947,12.383-13.208,15.138-26.755a5.405,5.405,0,0,0,4.714-.131c1.383-.671,2.979-1.624,4.177-2.373a5.475,5.475,0,0,0,2.428-3.261,18.9,18.9,0,0,0,.187-5.05l5.389-1.669A1.917,1.917,0,0,0,212.82,38.439Z" transform="translate(-60.51 -13.335)" fill="none" stroke="#000" stroke-width="1"/>
    <path id="Path_8240" data-name="Path 8240" d="M134.136,94.5c-1.117-7.394-3.683-11.794-5.277-13.909-6.874,3.105-15.816,4.1-27.2.153A12.1,12.1,0,0,0,98.4,80.1c-6.062-.355-26.036-1-42.565,4.457a12.843,12.843,0,0,0-7.748,7.053c-4.471,10.261-11.71,33.629,8.386,45.426a49.838,49.838,0,0,1,4.85-9.178c-3.236-5.459-4.195-12.914,1.548-22.623,4.188,11.308,6.152,27.806,6.563,35.107a15.7,15.7,0,0,1-1.23,7.023l-.1.242a.831.831,0,0,0,.584,1.135c11.313,2.541,23.079,1.851,26.595,1.56a1.451,1.451,0,0,0,1.293-1.108c5.5-23.18,5.513-38.992,4.167-48.987,5.146,1.15,20.882,3.6,33.395-5.709" transform="translate(-14.939 -27.708)" fill="#ab1b2d"/>
    <path id="Path_8241" data-name="Path 8241" d="M134.136,94.5c-1.117-7.394-3.683-11.794-5.277-13.909-6.874,3.105-15.816,4.1-27.2.153A12.1,12.1,0,0,0,98.4,80.1c-6.062-.355-26.036-1-42.565,4.457a12.843,12.843,0,0,0-7.748,7.053c-4.471,10.261-11.71,33.629,8.386,45.426a49.838,49.838,0,0,1,4.85-9.178c-3.236-5.459-4.195-12.914,1.548-22.623,4.188,11.308,6.152,27.806,6.563,35.107a15.7,15.7,0,0,1-1.23,7.023l-.1.242a.831.831,0,0,0,.584,1.135c11.313,2.541,23.079,1.851,26.595,1.56a1.451,1.451,0,0,0,1.293-1.108c5.5-23.18,5.513-38.992,4.167-48.987C105.887,101.357,121.623,103.812,134.136,94.5Z" transform="translate(-14.939 -27.708)" fill="none" stroke="#000" stroke-width="1"/>
    <path id="Path_8242" data-name="Path 8242" d="M87.494,59.545s-1.144,12.1-2.152,15.68a1.224,1.224,0,0,0,.576,1.4c1.71.977,5.813,2.571,11.423-.179a2.546,2.546,0,0,0,1.413-2.4L98.26,62.355Z" transform="translate(-29.59 -20.656)" fill="#fff"/>
    <path id="Path_8243" data-name="Path 8243" d="M87.494,59.545s-1.144,12.1-2.152,15.68a1.224,1.224,0,0,0,.576,1.4c1.71.977,5.813,2.571,11.423-.179a2.546,2.546,0,0,0,1.413-2.4L98.26,62.355Z" transform="translate(-29.59 -20.656)" fill="none" stroke="#000" stroke-width="1"/>
    <path id="Path_8244" data-name="Path 8244" d="M97.727,35.841s3.661,8.409,3.906,12.822,1.2,7.277-3.906,8.166S88.325,55.177,86,50.78c0,0-3.649-6.775-2.831-9.549s14.561-5.39,14.561-5.39" transform="translate(-28.809 -12.433)" fill="#fff"/>
    <path id="Path_8245" data-name="Path 8245" d="M97.727,35.841s3.661,8.409,3.906,12.822,1.2,7.277-3.906,8.166S88.325,55.177,86,50.78c0,0-3.649-6.775-2.831-9.549S97.727,35.841,97.727,35.841Z" transform="translate(-28.809 -12.433)" fill="none" stroke="#000" stroke-width="1"/>
    <path id="Path_8246" data-name="Path 8246" d="M84.25,42.743l.291-.128a.7.7,0,0,0,.342-.962c-.72-1.39-2.123-4.577-.31-5.32,2.335-.958,11.587-2.845,13.583-6.127A6.109,6.109,0,0,0,95.82,21.82a.353.353,0,0,0-.46.15l-.213.4a.347.347,0,0,1-.64-.066.345.345,0,0,0-.624-.089c-.613.982-2.27,2.575-6.7,3.392-6.3,1.162-10.458,3.71-10.562,8.06a.347.347,0,0,1-.537.286c-.464-.283-1.209-.416-2.2.42C72.153,35.829,72.86,39.6,76.651,42.7a.345.345,0,0,1-.016.555c-.687.447-1.712,1.512.942,2.93a8.935,8.935,0,0,0,5.585,1.217.345.345,0,0,0,.28-.417L82.6,43.165a.347.347,0,0,1,.339-.421Z" transform="translate(-25.32 -7.558)" fill="#fff"/>
    <path id="Path_8247" data-name="Path 8247" d="M84.25,42.743l.291-.128a.7.7,0,0,0,.342-.962c-.72-1.39-2.123-4.577-.31-5.32,2.335-.958,11.587-2.845,13.583-6.127A6.109,6.109,0,0,0,95.82,21.82a.353.353,0,0,0-.46.15l-.213.4a.347.347,0,0,1-.64-.066.345.345,0,0,0-.624-.089c-.613.982-2.27,2.575-6.7,3.392-6.3,1.162-10.458,3.71-10.562,8.06a.347.347,0,0,1-.537.286c-.464-.283-1.209-.416-2.2.42C72.153,35.829,72.86,39.6,76.651,42.7a.345.345,0,0,1-.016.555c-.687.447-1.712,1.512.942,2.93a8.935,8.935,0,0,0,5.585,1.217.345.345,0,0,0,.28-.417L82.6,43.165a.347.347,0,0,1,.339-.421Z" transform="translate(-25.32 -7.558)" fill="none" stroke="#000" stroke-width="1"/>
    <path id="Path_8248" data-name="Path 8248" d="M88.032,52.916s-1.4-5.372-3.8-3.866,1.25,6.019,3.186,6.22Z" transform="translate(-28.943 -16.923)" fill="#fff"/>
    <path id="Path_8249" data-name="Path 8249" d="M88.032,52.916s-1.4-5.372-3.8-3.866,1.25,6.019,3.186,6.22Z" transform="translate(-28.943 -16.923)" fill="none" stroke="#000" stroke-width="1"/>
    <path id="Path_8250" data-name="Path 8250" d="M209.157,54.849a.459.459,0,0,1-.355-.748c.4-.488,3.915-4.789,5.27-5.555.493-.279.787-.567.85-.832a.678.678,0,0,0-.061-.432l-4.134.828-2.342,2.01a.459.459,0,0,1-.6-.7l2.433-2.088a.462.462,0,0,1,.208-.1L215,46.317a.457.457,0,0,1,.471.194,1.745,1.745,0,0,1,.339,1.413,2.362,2.362,0,0,1-1.291,1.42c-1.02.576-3.962,4.047-5.009,5.335a.458.458,0,0,1-.357.169" transform="translate(-72.026 -16.064)" fill="#fff"/>
    <path id="Path_8251" data-name="Path 8251" d="M209.157,54.849a.459.459,0,0,1-.355-.748c.4-.488,3.915-4.789,5.27-5.555.493-.279.787-.567.85-.832a.678.678,0,0,0-.061-.432l-4.134.828-2.342,2.01a.459.459,0,0,1-.6-.7l2.433-2.088a.462.462,0,0,1,.208-.1L215,46.317a.457.457,0,0,1,.471.194,1.745,1.745,0,0,1,.339,1.413,2.362,2.362,0,0,1-1.291,1.42c-1.02.576-3.962,4.047-5.009,5.335A.458.458,0,0,1,209.157,54.849Z" transform="translate(-72.026 -16.064)" fill="none" stroke="#000" stroke-width="1"/>
    <path id="Path_8252" data-name="Path 8252" d="M80.974,168.338l16.18.2-5.663-5.331a4.227,4.227,0,0,0-5.181-.486,12.233,12.233,0,0,0-2.876,2.564S73.34,161.6,68.447,153.344a49.839,49.839,0,0,0-4.849,9.178,50.491,50.491,0,0,0,17.376,5.816" transform="translate(-22.062 -53.195)" fill="#fff"/>
    <path id="Path_8253" data-name="Path 8253" d="M80.974,168.338l16.18.2-5.663-5.331a4.227,4.227,0,0,0-5.181-.486,12.233,12.233,0,0,0-2.876,2.564S73.34,161.6,68.447,153.344a49.839,49.839,0,0,0-4.849,9.178A50.491,50.491,0,0,0,80.974,168.338Z" transform="translate(-22.062 -53.195)" fill="none" stroke="#000" stroke-width="1"/>
    <path id="Path_8254" data-name="Path 8254" d="M91.945,177.543c.031,0,.063,0,.095,0l41.071-.044a1.819,1.819,0,1,0,0-3.638l-41.072.044a1.819,1.819,0,0,0-.09,3.636" transform="translate(-31.29 -60.313)" fill="#fff"/>
    <path id="Path_8255" data-name="Path 8255" d="M91.945,177.543c.031,0,.063,0,.095,0l41.071-.044a1.819,1.819,0,1,0,0-3.638l-41.072.044a1.819,1.819,0,0,0-.09,3.636Z" transform="translate(-31.29 -60.313)" fill="none" stroke="#000" stroke-width="1"/>
    <path id="Path_8256" data-name="Path 8256" d="M182.738,123h-34.2a6.524,6.524,0,0,0-5.9,3.7l-15.813,33.176h42.507a3.962,3.962,0,0,0,3.685-2.479l12.263-30.7a2.705,2.705,0,0,0-2.541-3.7" transform="translate(-43.996 -42.67)" fill="#fff"/>
    <path id="Path_8257" data-name="Path 8257" d="M182.738,123h-34.2a6.524,6.524,0,0,0-5.9,3.7l-15.813,33.176h42.507a3.962,3.962,0,0,0,3.685-2.479l12.263-30.7A2.705,2.705,0,0,0,182.738,123Z" transform="translate(-43.996 -42.67)" fill="none" stroke="#000" stroke-width="1"/>
    <path id="Path_8258" data-name="Path 8258" d="M175.364,147.248c-.741,2.279-.194,4.491,1.223,4.943s3.166-1.03,3.907-3.309.194-4.491-1.223-4.943-3.166,1.03-3.907,3.309" transform="translate(-60.72 -49.905)" fill="#fff"/>
    <path id="Path_8259" data-name="Path 8259" d="M175.364,147.248c-.741,2.279-.194,4.491,1.223,4.943s3.166-1.03,3.907-3.309.194-4.491-1.223-4.943S176.106,144.969,175.364,147.248Z" transform="translate(-60.72 -49.905)" fill="none" stroke="#000" stroke-width="1"/>
    <path id="Path_8260" data-name="Path 8260" d="M283.57,56.484a15.221,15.221,0,1,1-13.279-16.917A15.193,15.193,0,0,1,283.57,56.484" transform="translate(-87.85 -13.687)" fill="#e2a327"/>
    <path id="Path_8261" data-name="Path 8261" d="M264.749,69.524A15.481,15.481,0,0,1,252.97,52.635a15.445,15.445,0,0,1,17.218-13.451,15.482,15.482,0,0,1,13.5,17.2,15.444,15.444,0,0,1-17.218,13.451,15.681,15.681,0,0,1-1.718-.308M271.79,39.98a15.178,15.178,0,0,0-1.663-.3,14.969,14.969,0,1,0,1.663.3" transform="translate(-87.717 -13.553)"/>
    <path id="Path_8262" data-name="Path 8262" d="M282.441,57.485a12.773,12.773,0,1,1-11.144-14.2,12.75,12.75,0,0,1,11.144,14.2" transform="translate(-89.15 -14.984)" fill="#e2a327"/>
    <path id="Path_8263" data-name="Path 8263" d="M291.4,73.66a.242.242,0,0,1-.1-.052.251.251,0,0,1-.032-.353,12.414,12.414,0,0,0,1.866-3.031.251.251,0,1,1,.46.2,12.94,12.94,0,0,1-1.94,3.153.252.252,0,0,1-.251.084" transform="translate(-101.021 -24.308)"/>
    <path id="Path_8264" data-name="Path 8264" d="M262.076,47.332a.251.251,0,0,1-.125-.416A13.044,13.044,0,0,1,283.779,51.6a.251.251,0,1,1-.475.163,12.451,12.451,0,0,0-10.34-8.356,12.577,12.577,0,0,0-10.647,3.853.25.25,0,0,1-.241.072" transform="translate(-90.848 -14.852)"/>
    <path id="Path_8265" data-name="Path 8265" d="M266.615,71.217a13,13,0,0,1-7.5-20.321.251.251,0,0,1,.4.3,12.5,12.5,0,0,0,8.607,19.784.251.251,0,0,1-.061.5,13.421,13.421,0,0,1-1.447-.259" transform="translate(-89.017 -17.62)"/>
    <path id="Path_8266" data-name="Path 8266" d="M278.625,55.146l-2.959.037a4.472,4.472,0,0,0-1.52-2.779l4.445-.056a.56.56,0,1,0,.023-1.119h-.038l-11.312.142a.56.56,0,0,0,.014,1.119l3.917-.049a3.358,3.358,0,0,1,3.341,2.756l-7.223.09a.56.56,0,0,0,.014,1.119l7.222-.09a3.358,3.358,0,0,1-3.271,2.839l-3.915.049a.559.559,0,0,0-.383.961l7.93,7.734a.56.56,0,0,0,.781-.8l-6.964-6.795,2.565-.032a4.476,4.476,0,0,0,4.388-3.97l2.959-.037a.56.56,0,1,0,.024-1.119h-.039Z" transform="translate(-92.53 -17.772)"/>
    <path id="Path_8267" data-name="Path 8267" d="M275.03,68.09a.707.707,0,0,1-.3-.156l-7.937-7.739a.716.716,0,0,1,.489-1.228l3.917-.048a3.194,3.194,0,0,0,3.085-2.527l-7.033.088a.715.715,0,0,1-.022-1.429l7.038-.088a3.2,3.2,0,0,0-3.148-2.448l-3.917.049a.722.722,0,0,1-.7-.682.715.715,0,0,1,.682-.747l11.359-.142a.715.715,0,0,1-.03,1.43l-4.054.05a4.628,4.628,0,0,1,1.265,2.473l3.024-.039-.005.022h0a.715.715,0,0,1,.327,1.211.7.7,0,0,1-.51.2l-2.819.036a4.638,4.638,0,0,1-4.523,3.971l-2.19.027,6.7,6.534a.719.719,0,0,1,.016.957.706.706,0,0,1-.489.244.724.724,0,0,1-.216-.017m-.38-12.013-.029.181a3.5,3.5,0,0,1-3.421,2.97l-3.917.048a.405.405,0,0,0-.276.7l7.93,7.734a.4.4,0,0,0,.287.091.4.4,0,0,0,.272-.675l-7.225-7.05,2.939-.037a4.328,4.328,0,0,0,4.236-3.833l.014-.135,3.1-.039a.406.406,0,0,0,.293-.112.4.4,0,0,0,.124-.283.4.4,0,0,0-.395-.413l-.215.018,0-.017-2.917.037-.019-.135a4.318,4.318,0,0,0-1.467-2.682l-.312-.268,4.855-.059a.405.405,0,1,0,.022-.81l-11.344.142a.405.405,0,0,0,.016.809l3.911-.05a3.5,3.5,0,0,1,3.5,2.884l.033.181-7.407.092a.405.405,0,0,0,.016.809Z" transform="translate(-92.448 -17.689)"/>
    <path id="Path_8268" data-name="Path 8268" d="M334.523,18.538A16.2,16.2,0,1,1,320.388.532a16.171,16.171,0,0,1,14.135,18.007" transform="translate(-104.847 -0.142)" fill="#e2a327"/>
    <path id="Path_8269" data-name="Path 8269" d="M314.489,32.418A16.479,16.479,0,0,1,301.95,14.442,16.44,16.44,0,0,1,320.279.123a16.48,16.48,0,0,1,14.367,18.3,16.439,16.439,0,0,1-18.328,14.318,16.6,16.6,0,0,1-1.829-.327M321.984.971a15.978,15.978,0,0,0-13.516,2.942,15.764,15.764,0,0,0-5.987,10.594,15.946,15.946,0,0,0,25.648,14.45,15.765,15.765,0,0,0,5.987-10.593A15.944,15.944,0,0,0,321.984.971" transform="translate(-104.706 0)"/>
    <path id="Path_8270" data-name="Path 8270" d="M333.32,19.6A13.6,13.6,0,1,1,321.458,4.492,13.572,13.572,0,0,1,333.32,19.6" transform="translate(-106.231 -1.523)" fill="#e2a327"/>
    <path id="Path_8271" data-name="Path 8271" d="M342.86,36.821a.267.267,0,0,1-.143-.431,13.226,13.226,0,0,0,1.985-3.226.267.267,0,1,1,.49.212,13.735,13.735,0,0,1-2.066,3.356.267.267,0,0,1-.267.089" transform="translate(-118.868 -11.448)"/>
    <path id="Path_8272" data-name="Path 8272" d="M311.643,8.8a.267.267,0,0,1-.133-.443,13.885,13.885,0,0,1,23.235,4.985.267.267,0,0,1-.506.174,13.255,13.255,0,0,0-11.007-8.895,13.389,13.389,0,0,0-11.333,4.1.266.266,0,0,1-.257.077" transform="translate(-108.039 -1.383)"/>
    <path id="Path_8273" data-name="Path 8273" d="M316.475,34.22a13.832,13.832,0,0,1-7.987-21.631.267.267,0,1,1,.43.316,13.3,13.3,0,0,0,9.162,21.059.267.267,0,0,1-.065.531,14.1,14.1,0,0,1-1.54-.276" transform="translate(-106.089 -4.329)"/>
    <path id="Path_8274" data-name="Path 8274" d="M329.259,17.114l-3.149.039a4.765,4.765,0,0,0-1.618-2.958l4.731-.059a.6.6,0,0,0,.025-1.192h-.04l-12.04.15a.6.6,0,0,0,.015,1.191l4.169-.052a3.574,3.574,0,0,1,3.556,2.934l-7.688.1a.6.6,0,0,0,.014,1.191l7.688-.1a3.574,3.574,0,0,1-3.482,3.021l-4.168.052a.6.6,0,0,0-.407,1.024l8.441,8.232a.6.6,0,0,0,.832-.85l-7.413-7.233,2.731-.034a4.764,4.764,0,0,0,4.67-4.226l3.151-.039a.6.6,0,0,0,.025-1.192h-.041Z" transform="translate(-109.829 -4.491)"/>
    <path id="Path_8275" data-name="Path 8275" d="M325.432,30.892a.753.753,0,0,1-.322-.166l-8.449-8.238a.762.762,0,0,1,.521-1.308l4.169-.052a3.4,3.4,0,0,0,3.284-2.689l-7.486.094a.761.761,0,0,1-.024-1.521l7.492-.094a3.4,3.4,0,0,0-3.351-2.607l-4.169.052a.769.769,0,0,1-.749-.726.761.761,0,0,1,.726-.8l12.092-.151a.761.761,0,0,1-.033,1.522l-4.316.053a4.933,4.933,0,0,1,1.347,2.632l3.218-.041-.005.024h0a.762.762,0,0,1,.37.214.76.76,0,0,1-.565,1.287l-3,.038a4.936,4.936,0,0,1-4.814,4.227l-2.331.029,7.127,6.954a.766.766,0,0,1,.018,1.019.765.765,0,0,1-.75.241m-.4-12.787L325,18.3a3.729,3.729,0,0,1-3.642,3.162l-4.169.051a.432.432,0,0,0-.294.741l8.441,8.232a.418.418,0,0,0,.3.1.43.43,0,0,0,.289-.719l-7.691-7.5,3.129-.039a4.608,4.608,0,0,0,4.508-4.08l.016-.144,3.3-.041a.431.431,0,1,0,.025-.861l-.229.02,0-.018-3.105.039-.02-.144a4.6,4.6,0,0,0-1.562-2.855l-.332-.285,5.169-.064a.431.431,0,1,0,.023-.862l-12.075.152a.429.429,0,0,0-.4.45.43.43,0,0,0,.42.411l4.163-.052a3.73,3.73,0,0,1,3.721,3.07l.034.193-7.883.1a.431.431,0,0,0,.017.861Z" transform="translate(-109.742 -4.403)"/>
    <path id="Path_8276" data-name="Path 8276" d="M296.4,120.338a11.654,11.654,0,1,1-10.167-12.952A11.633,11.633,0,0,1,296.4,120.338" transform="translate(-94.766 -37.222)" fill="#e2a327"/>
    <path id="Path_8277" data-name="Path 8277" d="M281.989,130.322a11.853,11.853,0,0,1-9.019-12.931,11.825,11.825,0,0,1,13.183-10.3,11.854,11.854,0,0,1,10.335,13.166,11.826,11.826,0,0,1-13.183,10.3,12.035,12.035,0,0,1-1.316-.236m5.391-22.62a11.582,11.582,0,0,0-1.274-.228,11.459,11.459,0,1,0,1.274.228" transform="translate(-94.664 -37.12)"/>
    <path id="Path_8278" data-name="Path 8278" d="M295.534,121.1A9.78,9.78,0,1,1,287,110.235a9.762,9.762,0,0,1,8.533,10.869" transform="translate(-95.761 -38.216)" fill="#e2a327"/>
    <path id="Path_8279" data-name="Path 8279" d="M302.4,133.489a.189.189,0,0,1-.078-.039.193.193,0,0,1-.025-.271,9.47,9.47,0,0,0,1.428-2.32.192.192,0,0,1,.353.152,9.9,9.9,0,0,1-1.486,2.414.192.192,0,0,1-.192.064" transform="translate(-104.851 -45.355)"/>
    <path id="Path_8280" data-name="Path 8280" d="M279.941,113.33a.187.187,0,0,1-.087-.047.192.192,0,0,1-.008-.272,9.988,9.988,0,0,1,16.713,3.586.192.192,0,1,1-.363.125,9.534,9.534,0,0,0-7.917-6.4,9.631,9.631,0,0,0-8.152,2.95.192.192,0,0,1-.185.056" transform="translate(-97.061 -38.114)"/>
    <path id="Path_8281" data-name="Path 8281" d="M283.417,131.618a9.95,9.95,0,0,1-5.745-15.559.192.192,0,1,1,.31.228,9.567,9.567,0,0,0,6.59,15.148.192.192,0,1,1-.046.382,10.22,10.22,0,0,1-1.108-.2" transform="translate(-95.659 -40.234)"/>
    <path id="Path_8282" data-name="Path 8282" d="M292.613,119.314l-2.266.028a3.425,3.425,0,0,0-1.164-2.128l3.4-.042a.429.429,0,1,0,.018-.857h-.029l-8.661.108a.429.429,0,0,0,.01.857l3-.037a2.571,2.571,0,0,1,2.558,2.11l-5.53.069a.428.428,0,0,0,.011.856l5.529-.069a2.57,2.57,0,0,1-2.5,2.173l-3,.038a.429.429,0,0,0-.293.736l6.072,5.922a.429.429,0,0,0,.6-.612l-5.333-5.2,1.965-.025a3.427,3.427,0,0,0,3.36-3.04l2.266-.029a.429.429,0,1,0,.018-.857h-.029Z" transform="translate(-98.349 -40.35)"/>
    <path id="Path_8283" data-name="Path 8283" d="M289.86,129.224a.539.539,0,0,1-.232-.119l-6.077-5.926a.548.548,0,0,1,.374-.94l3-.037a2.445,2.445,0,0,0,2.362-1.934l-5.385.068a.548.548,0,0,1-.018-1.095l5.389-.067a2.449,2.449,0,0,0-2.411-1.875l-3,.038a.553.553,0,0,1-.538-.522.547.547,0,0,1,.522-.572l8.7-.109a.548.548,0,0,1-.023,1.1l-3.1.038a3.547,3.547,0,0,1,.969,1.893l2.315-.029,0,.017h0a.547.547,0,0,1-.14,1.08l-2.159.028a3.55,3.55,0,0,1-3.462,3.04l-1.677.022,5.127,5a.551.551,0,0,1,.013.733.542.542,0,0,1-.375.186.515.515,0,0,1-.165-.013m-.291-9.2-.022.138a2.682,2.682,0,0,1-2.62,2.274l-3,.037a.31.31,0,0,0-.306.313.308.308,0,0,0,.094.219l6.072,5.921a.3.3,0,0,0,.219.071.309.309,0,0,0,.208-.517l-5.532-5.4,2.251-.028a3.314,3.314,0,0,0,3.243-2.935l.011-.1,2.372-.029a.309.309,0,0,0,.224-.086.31.31,0,0,0-.206-.534l-.165.014,0-.013-2.234.028-.014-.1a3.308,3.308,0,0,0-1.124-2.054l-.238-.205,3.717-.046a.31.31,0,1,0,.017-.62l-8.686.11a.307.307,0,0,0-.291.323.31.31,0,0,0,.3.3l2.994-.038a2.682,2.682,0,0,1,2.676,2.208l.025.138-5.671.071a.31.31,0,0,0,.012.62Z" transform="translate(-98.286 -40.287)"/>
    <path id="Path_8284" data-name="Path 8284" d="M336.978,80.263a17.666,17.666,0,1,1-15.412-19.634,17.635,17.635,0,0,1,15.412,19.634" transform="translate(-104.687 -20.987)" fill="#e2a327"/>
    <path id="Path_8285" data-name="Path 8285" d="M315.134,95.4a17.967,17.967,0,0,1-13.672-19.6,17.926,17.926,0,0,1,19.985-15.612,17.97,17.97,0,0,1,15.667,19.959A17.958,17.958,0,0,1,315.134,95.4m8.172-34.289a17.577,17.577,0,0,0-1.931-.345,17.371,17.371,0,1,0,1.931.345" transform="translate(-104.533 -20.831)"/>
    <path id="Path_8286" data-name="Path 8286" d="M335.668,81.425a14.825,14.825,0,1,1-12.934-16.477,14.8,14.8,0,0,1,12.934,16.477" transform="translate(-106.196 -22.492)" fill="#e2a327"/>
    <path id="Path_8287" data-name="Path 8287" d="M346.069,100.2a.288.288,0,0,1-.119-.059.291.291,0,0,1-.037-.411,14.4,14.4,0,0,0,2.165-3.518.291.291,0,0,1,.535.231,15.01,15.01,0,0,1-2.252,3.66.292.292,0,0,1-.291.1" transform="translate(-119.975 -33.314)"/>
    <path id="Path_8288" data-name="Path 8288" d="M312.031,69.64a.292.292,0,0,1-.145-.483,15.186,15.186,0,0,1,12.853-4.651,15.034,15.034,0,0,1,12.482,10.088.291.291,0,0,1-.551.189,14.451,14.451,0,0,0-12-9.7,14.6,14.6,0,0,0-12.357,4.472.293.293,0,0,1-.28.084" transform="translate(-108.167 -22.339)"/>
    <path id="Path_8289" data-name="Path 8289" d="M317.3,97.362a15.082,15.082,0,0,1-8.709-23.585.291.291,0,1,1,.47.345,14.5,14.5,0,0,0,9.989,22.962.291.291,0,0,1-.071.579,15.334,15.334,0,0,1-1.679-.3" transform="translate(-106.041 -25.552)"/>
    <path id="Path_8290" data-name="Path 8290" d="M331.239,78.711l-3.434.043a5.2,5.2,0,0,0-1.764-3.226l5.158-.064a.65.65,0,0,0,.028-1.3h-.044l-13.128.164a.65.65,0,0,0,.016,1.3l4.546-.056a3.9,3.9,0,0,1,3.878,3.2l-8.383.1a.65.65,0,0,0,.016,1.3l8.383-.1a3.9,3.9,0,0,1-3.8,3.295l-4.545.057a.65.65,0,0,0-.444,1.116l9.2,8.976a.649.649,0,0,0,.907-.927L319.751,84.7l2.977-.037a5.2,5.2,0,0,0,5.093-4.608l3.435-.042a.65.65,0,0,0,.028-1.3h-.045Z" transform="translate(-110.119 -25.728)"/>
    <path id="Path_8291" data-name="Path 8291" d="M327.066,93.734a.822.822,0,0,1-.351-.181L317.5,84.57a.831.831,0,0,1,.568-1.426l4.546-.056a3.7,3.7,0,0,0,3.581-2.932l-8.162.1a.83.83,0,0,1-.027-1.659l8.169-.1a3.711,3.711,0,0,0-3.653-2.842l-4.546.057a.838.838,0,0,1-.816-.792.83.83,0,0,1,.792-.867l13.184-.165a.83.83,0,0,1-.035,1.66l-4.7.058a5.373,5.373,0,0,1,1.468,2.87l3.51-.044-.006.025h0a.83.83,0,0,1-.213,1.637l-3.273.041a5.383,5.383,0,0,1-5.249,4.61l-2.542.032,7.772,7.583a.834.834,0,0,1,.019,1.11.822.822,0,0,1-.568.283.839.839,0,0,1-.25-.02m-.441-13.943-.033.21a4.065,4.065,0,0,1-3.971,3.447l-4.546.056a.469.469,0,0,0-.463.475.47.47,0,0,0,.142.333l9.2,8.976a.458.458,0,0,0,.332.106.469.469,0,0,0,.315-.784l-8.386-8.183,3.411-.042a5.023,5.023,0,0,0,4.916-4.449l.017-.157,3.6-.044a.473.473,0,0,0,.34-.13.467.467,0,0,0,.144-.329.468.468,0,0,0-.458-.48l-.25.022,0-.02-3.386.042-.022-.157a5.013,5.013,0,0,0-1.7-3.113l-.362-.311,5.635-.07a.47.47,0,1,0,.026-.94l-13.167.166a.467.467,0,0,0-.44.49.471.471,0,0,0,.458.449l4.54-.057a4.066,4.066,0,0,1,4.056,3.347l.039.21-8.6.107a.47.47,0,0,0,.019.939Z" transform="translate(-110.024 -25.632)"/>
  </g>
</svg>
