<svg xmlns="http://www.w3.org/2000/svg" xmlns:xlink="http://www.w3.org/1999/xlink" width="81.408" height="81.408" viewBox="0 0 81.408 81.408">
  <defs>
    <linearGradient id="linear-gradient" x1="0.5" x2="0.5" y2="1" gradientUnits="objectBoundingBox">
      <stop offset="0" stop-color="#99a26f"/>
      <stop offset="1" stop-color="#44583f"/>
    </linearGradient>
  </defs>
  <g id="noun-ashok-chakra-india-5101726_1_" data-name="noun-ashok-chakra-india-5101726 (1)" transform="translate(-126 -56)">
    <path id="Path_6915" data-name="Path 6915" d="M166.7,56a40.7,40.7,0,1,0,40.7,40.7A40.7,40.7,0,0,0,166.7,56Zm23.058,67.836A1.777,1.777,0,0,0,186.946,126a35.5,35.5,0,0,1-4.987,2.889,1.776,1.776,0,0,0-3.281,1.36,35.325,35.325,0,0,1-5.569,1.484,1.776,1.776,0,0,0-3.521.458c-.951.075-1.91.125-2.882.125s-1.931-.05-2.882-.125a1.776,1.776,0,0,0-3.521-.458,35.281,35.281,0,0,1-5.569-1.484,1.776,1.776,0,0,0-3.281-1.36A35.512,35.512,0,0,1,146.464,126a1.777,1.777,0,0,0-2.816-2.165,35.8,35.8,0,0,1-4.074-4.074,1.777,1.777,0,0,0-2.165-2.816,35.5,35.5,0,0,1-2.889-4.987,1.776,1.776,0,0,0-1.36-3.281,35.323,35.323,0,0,1-1.484-5.569,1.776,1.776,0,0,0-.458-3.521c-.075-.951-.125-1.91-.125-2.882s.05-1.931.125-2.882a1.776,1.776,0,0,0,.458-3.521,35.279,35.279,0,0,1,1.484-5.569,1.776,1.776,0,0,0,1.36-3.281,35.512,35.512,0,0,1,2.889-4.987,1.777,1.777,0,0,0,2.165-2.816,35.8,35.8,0,0,1,4.074-4.074,1.777,1.777,0,0,0,2.816-2.165,35.5,35.5,0,0,1,4.987-2.889,1.776,1.776,0,0,0,3.281-1.36,35.326,35.326,0,0,1,5.569-1.484,1.776,1.776,0,0,0,3.521-.458c.951-.075,1.91-.125,2.882-.125s1.931.05,2.882.125a1.776,1.776,0,0,0,3.521.458,35.283,35.283,0,0,1,5.569,1.484,1.776,1.776,0,0,0,3.281,1.36,35.51,35.51,0,0,1,4.987,2.889,1.777,1.777,0,0,0,2.816,2.165,35.8,35.8,0,0,1,4.074,4.074A1.777,1.777,0,0,0,196,76.463a35.5,35.5,0,0,1,2.889,4.987,1.776,1.776,0,0,0,1.36,3.281,35.326,35.326,0,0,1,1.484,5.569,1.776,1.776,0,0,0,.458,3.521c.075.951.125,1.91.125,2.882s-.05,1.931-.125,2.882a1.776,1.776,0,0,0-.458,3.521,35.284,35.284,0,0,1-1.484,5.569,1.776,1.776,0,0,0-1.36,3.281A35.511,35.511,0,0,1,196,116.945a1.777,1.777,0,0,0-2.165,2.816A35.856,35.856,0,0,1,189.762,123.836Z" transform="translate(0 0)" fill="url(#linear-gradient)"/>
    <path id="Path_6916" data-name="Path 6916" d="M343.583,112.42l-.619-7.623,1.274-20.946,1.283,20.946-.787,7.594Z" transform="translate(-177.538 -22.79)" fill="url(#linear-gradient)"/>
    <path id="Path_6917" data-name="Path 6917" d="M343.583,318.93l-.619,7.623,1.274,20.946,1.283-20.946-.787-7.594Z" transform="translate(-177.538 -215.152)" fill="url(#linear-gradient)"/>
    <path id="Path_6918" data-name="Path 6918" d="M388.93,273.583l7.623-.619,20.946,1.274-20.946,1.283-7.594-.787Z" transform="translate(-215.152 -177.538)" fill="url(#linear-gradient)"/>
    <path id="Path_6919" data-name="Path 6919" d="M182.42,273.583l-7.623-.619-20.946,1.274,20.946,1.283,7.594-.787Z" transform="translate(-22.79 -177.538)" fill="url(#linear-gradient)"/>
    <path id="Path_6920" data-name="Path 6920" d="M376.5,304.97l5.828,4.954,13.91,15.711-15.717-13.9-4.813-5.926Z" transform="translate(-204.335 -203.729)" fill="url(#linear-gradient)"/>
    <path id="Path_6921" data-name="Path 6921" d="M231.972,161.047l-4.954-5.828-15.711-13.91,13.9,15.717,5.926,4.813Z" transform="translate(-69.806 -69.807)" fill="url(#linear-gradient)"/>
    <path id="Path_6922" data-name="Path 6922" d="M368.315,311.8l4.375,6.273,9.455,18.735-11.662-17.446-3.148-6.955Z" transform="translate(-197.481 -209.317)" fill="url(#linear-gradient)"/>
    <path id="Path_6923" data-name="Path 6923" d="M266.122,134.926l-3.308-6.9L251.16,110.58l9.448,18.738,4.506,6.162Z" transform="translate(-102.417 -44.662)" fill="url(#linear-gradient)"/>
    <path id="Path_6924" data-name="Path 6924" d="M358.087,316.84l2.477,7.237,3.922,20.614-6.4-19.985-1.107-7.554Z" transform="translate(-189.008 -213.442)" fill="url(#linear-gradient)"/>
    <path id="Path_6925" data-name="Path 6925" d="M309.376,117.431l-1.277-7.54L301.707,89.9l3.915,20.615,2.631,7.166Z" transform="translate(-143.778 -27.743)" fill="url(#linear-gradient)"/>
    <path id="Path_6926" data-name="Path 6926" d="M231.047,304.97l-5.828,4.954-13.91,15.711,15.717-13.9,4.813-5.926Z" transform="translate(-69.807 -203.729)" fill="url(#linear-gradient)"/>
    <path id="Path_6927" data-name="Path 6927" d="M374.97,161.047l4.954-5.828,15.711-13.91-13.9,15.717-5.926,4.813Z" transform="translate(-203.729 -69.807)" fill="url(#linear-gradient)"/>
    <path id="Path_6928" data-name="Path 6928" d="M264.994,311.8l-4.375,6.273-9.455,18.735,11.662-17.446,3.148-6.955Z" transform="translate(-102.421 -209.317)" fill="url(#linear-gradient)"/>
    <path id="Path_6929" data-name="Path 6929" d="M366.5,134.926l3.308-6.9,11.655-17.45-9.448,18.738-4.506,6.162Z" transform="translate(-196.798 -44.662)" fill="url(#linear-gradient)"/>
    <path id="Path_6930" data-name="Path 6930" d="M308.114,316.84l-2.477,7.237-3.922,20.614,6.4-19.985,1.107-7.554Z" transform="translate(-143.785 -213.442)" fill="url(#linear-gradient)"/>
    <path id="Path_6931" data-name="Path 6931" d="M356.09,117.431l1.277-7.54L363.759,89.9l-3.915,20.615-2.631,7.166Z" transform="translate(-188.279 -27.743)" fill="url(#linear-gradient)"/>
    <path id="Path_6932" data-name="Path 6932" d="M187.233,285.9l-7.547,1.24-20.018,6.293L180.3,289.62l7.179-2.6Z" transform="translate(-27.551 -188.124)" fill="url(#linear-gradient)"/>
    <path id="Path_6933" data-name="Path 6933" d="M386.9,238.9l7.248-2.44,20.632-3.822-20.016,6.3-7.558,1.07Z" transform="translate(-213.491 -144.544)" fill="url(#linear-gradient)"/>
    <path id="Path_6934" data-name="Path 6934" d="M202.718,295.54l-6.983,3.12-17.758,11.18,18.986-8.939,6.283-4.338Z" transform="translate(-42.532 -196.012)" fill="url(#linear-gradient)"/>
    <path id="Path_6935" data-name="Path 6935" d="M382.41,198.923l6.388-4.2,18.982-8.946L390.025,196.96l-7.037,2.958Z" transform="translate(-209.817 -106.191)" fill="url(#linear-gradient)"/>
    <path id="Path_6936" data-name="Path 6936" d="M387.521,285.9l7.547,1.24,20.018,6.293-20.634-3.813-7.179-2.6Z" transform="translate(-213.796 -188.124)" fill="url(#linear-gradient)"/>
    <path id="Path_6937" data-name="Path 6937" d="M187.553,238.9l-7.248-2.44-20.632-3.822,20.014,6.3,7.56,1.07Z" transform="translate(-27.554 -144.544)" fill="url(#linear-gradient)"/>
    <path id="Path_6938" data-name="Path 6938" d="M383.5,295.54l6.983,3.12,17.758,11.18L389.252,300.9l-6.283-4.338Z" transform="translate(-210.274 -196.012)" fill="url(#linear-gradient)"/>
    <path id="Path_6939" data-name="Path 6939" d="M203.347,198.923l-6.388-4.2-18.982-8.946,17.754,11.187,7.037,2.958Z" transform="translate(-42.533 -106.191)" fill="url(#linear-gradient)"/>
    <path id="Path_6940" data-name="Path 6940" d="M322.214,244.277a7.933,7.933,0,1,1-7.933-7.933,7.932,7.932,0,0,1,7.933,7.933" transform="translate(-147.576 -147.573)" fill="url(#linear-gradient)"/>
  </g>
</svg>
