<svg id="noun-claim-4777275" xmlns="http://www.w3.org/2000/svg" width="42.57" height="42.565" viewBox="0 0 42.57 42.565">
  <path id="Path_7488" data-name="Path 7488" d="M73.5,30.882v.166c0,.033,0,.033.033.066,0,.033,0,.033.033.066,0,.033.033.033.033.066s.033.033.033.066.033.033.033.066l.033.033h.033v.033l2.921,2.523L78.646,41.9a.64.64,0,0,0,.631.5.3.3,0,0,0,.166-.033l12.215-2.954h8.564a1.842,1.842,0,0,0,1.826-1.826v-.7l3.153-.763a.676.676,0,0,0,.5-.8l-.4-1.527h-.066l-1.294.033.3,1.162-2.191.531V33.7l-1.328.033V37.52a.51.51,0,0,1-.5.5H83.791V32.01a1.842,1.842,0,0,0-1.826-1.826H74.829V3.963a.51.51,0,0,1,.5-.5h24.894a.51.51,0,0,1,.5.5v7.568a3.575,3.575,0,0,1,1.328-.033V4a1.842,1.842,0,0,0-1.826-1.826H97.366L96.9.345a.676.676,0,0,0-.8-.5L86.612,2.171H75.327A1.842,1.842,0,0,0,73.5,4V5.357l-3.153.763a.676.676,0,0,0-.5.8L73.5,21.389Zm9.227,8.331.033.033c.033,0,.033.033.066.033a.033.033,0,0,1,.033.033.116.116,0,0,1,.066.033h3.054l-6.273,1.527-1.361-5.444,4.315,3.751c.066,0,.066.033.066.033Zm-.763-7.7a.51.51,0,0,1,.5.5v5.211l-6.539-5.676Zm13.808-30.2L96,2.171H92.254ZM71.31,7.249,73.5,6.718v9.227Z" transform="translate(-69.838 0.165)" fill="#c91429"/>
  <path id="Path_7489" data-name="Path 7489" d="M166.25,123.164a.666.666,0,0,0,.664.664h19.915a.664.664,0,1,0,0-1.328H166.914A.666.666,0,0,0,166.25,123.164Z" transform="translate(-158.935 -113.194)" fill="#c91429"/>
  <path id="Path_7490" data-name="Path 7490" d="M338.077,185.574c-2.191,1.129-5.709,2.954-6.373,3.253l-7.269.266c-.83.033-1.062-.066-1.294-.432a1.163,1.163,0,0,1,.232-1.261.561.561,0,0,1,.332-.1l4.083-.166a.646.646,0,0,0,.631-.7.638.638,0,0,0-.664-.631h-.033l-2.689.133,1.892-4.448,5.012,1.56.066.033a2.067,2.067,0,0,0,1.66-.033l4.016-2.224a.661.661,0,1,0-.631-1.162L333,181.89c-.1.066-.4-.033-.631-.1l-3.618-1.129v-.1l-.033.1-1.294-.4,1.925-4.547.929-2.158a1.95,1.95,0,0,0-1-2.556l-.4-.166a1.923,1.923,0,0,0-2.523,1v.033l-.929,2.124-3.153,7.435-6.373,5.444a2,2,0,0,0-.332,2.788,1.88,1.88,0,0,0,1.328.7h.2a1.942,1.942,0,0,0,1.328-.5l.83-.73-.266,4.083a.646.646,0,0,0,.631.7.66.66,0,0,0,.531-.232l3.02-3.319c.033-.033.033-.066.066-.1a3.426,3.426,0,0,0,1,.133h.332l7.369-.232c.066,0,.1,0,.133-.033.1-.033.266-.066,6.672-3.386a.665.665,0,0,0,.3-.9.732.732,0,0,0-.963-.266Zm-10.489-13.21a.647.647,0,0,1,.332-.332.565.565,0,0,1,.465,0l.4.166a.624.624,0,0,1,.332.8l-.664,1.527-1.494-.631Zm-10.057,16.5a.612.612,0,0,1-.531.166.627.627,0,0,1-.431-.232.686.686,0,0,1,.166-.929l4.381-3.718-1,2.357Zm4.415.365c0,.033.033.033.033.066.033.066.066.1.1.166v.033c0,.033-.033.033-.033.066l-1.129,1.261-.465-.266.1-1.693c0-.033.033-.033.033-.066l5.809-13.675,1.494.631-4.315,10.223a1.851,1.851,0,0,0-.929.332,2.523,2.523,0,0,0-.7,2.921Z" transform="translate(-296.541 -157.714)" fill="#c91429"/>
</svg>
