<svg xmlns="http://www.w3.org/2000/svg" width="42.686" height="51.122" viewBox="0 0 42.686 51.122">
  <g id="_13408513121667365737" data-name="13408513121667365737" transform="translate(0.251 0.25)">
    <path id="Path_7487" data-name="Path 7487" d="M44.076,39.021H42.1l-.422-5.136a7.415,7.415,0,0,0-.991-3.073,7.244,7.244,0,0,0-4.218-3.256L30.366,25.8V24.489a8.45,8.45,0,0,0,2.908-4.527,4.226,4.226,0,0,0,3.42-4.143A3.151,3.151,0,0,0,35.428,13.3l.655-1.627A8.648,8.648,0,0,0,35.2,3.607,8.015,8.015,0,0,0,28.488,0h-9.3a1.055,1.055,0,0,0-.992.7,9.557,9.557,0,0,0-.379,1.638,7.481,7.481,0,0,0-3.9,3.886,6.474,6.474,0,0,0,.379,5.4l.738,1.486a3.156,3.156,0,0,0-1.539,2.708,4.218,4.218,0,0,0,3.417,4.131,8.45,8.45,0,0,0,2.911,4.54V25.8l-6.1,1.753a7.258,7.258,0,0,0-4.229,3.269,7.858,7.858,0,0,0-.4.812H7.164A3.164,3.164,0,0,0,4.006,35L4.8,47.655a3.164,3.164,0,0,0,3.158,2.967H28.52a3.164,3.164,0,0,0,3.158-2.965l.078-1.253h3.883a4.218,4.218,0,0,0,4.218,4.218h2.109A4.218,4.218,0,0,0,46.185,46.4V41.13A2.109,2.109,0,0,0,44.076,39.021ZM20,2.109h8.492A5.933,5.933,0,0,1,33.445,4.79a6.544,6.544,0,0,1,.674,6.1l-.59,1.473V11.6a4.218,4.218,0,0,0-4.218-4.218H20.945A6.507,6.507,0,0,1,20,2.109Zm-4.119,4.9a5.021,5.021,0,0,1,1.866-2.221,7.543,7.543,0,0,0,1.022,3.18A4.206,4.206,0,0,0,16.655,11.6v.03l-.472-.949A4.36,4.36,0,0,1,15.877,7.008Zm2.96,11.825a1.144,1.144,0,0,0-1.127-.9A2.109,2.109,0,0,1,15.6,15.819a1.055,1.055,0,0,1,1.055-1.055H17.71a1.055,1.055,0,0,0,1.055-1.055V11.6a2.109,2.109,0,0,1,2.109-2.109h8.437A2.109,2.109,0,0,1,31.42,11.6V13.71a1.055,1.055,0,0,0,1.055,1.055h1.055a1.055,1.055,0,0,1,1.055,1.055,2.13,2.13,0,0,1-2.193,2.109,1.055,1.055,0,0,0-1.044.9,6.319,6.319,0,0,1-12.51,0Zm6.255,7.532a8.314,8.314,0,0,0,3.164-.633V27.42a3.164,3.164,0,0,1-6.328,0V25.733a8.314,8.314,0,0,0,3.164.633ZM14.3,29.583l5.576-1.6a5.247,5.247,0,0,0,2.085,3.657H11.5a5.122,5.122,0,0,1,2.8-2.055ZM28.52,48.512H7.955A1.055,1.055,0,0,1,6.9,47.524L6.109,34.869a1.055,1.055,0,0,1,1.055-1.121H29.311a1.055,1.055,0,0,1,1.055,1.121l-.791,12.655A1.055,1.055,0,0,1,28.52,48.512Zm3.367-4.218L32.468,35a3.164,3.164,0,0,0-3.158-3.362H28.224a5.247,5.247,0,0,0,2.085-3.657l5.576,1.6a5.139,5.139,0,0,1,2.989,2.305,5.285,5.285,0,0,1,.7,2.179l.411,4.957h-2.24a2.109,2.109,0,0,0-2.109,2.109V44.3ZM44.076,46.4a2.109,2.109,0,0,1-2.109,2.109H39.857A2.109,2.109,0,0,1,37.748,46.4V41.13h6.328Z" transform="translate(-4 0)" fill="#c91429" stroke="#fff" stroke-width="0.5"/>
  </g>
</svg>
