<svg xmlns="http://www.w3.org/2000/svg" width="44" height="44" viewBox="0 0 44 44">
  <g id="Group_1982" data-name="Group 1982" transform="translate(-191 -1674)">
    <g id="Ellipse_123" data-name="Ellipse 123" transform="translate(191 1674)" fill="#44583f" stroke="#44583f" stroke-width="2">
      <circle cx="22" cy="22" r="22" stroke="none"/>
      <circle cx="22" cy="22" r="21" fill="none"/>
    </g>
    <g id="_20723432281659626066" data-name="20723432281659626066" transform="translate(202.669 1687.544)">
      <path id="Path_7094" data-name="Path 7094" d="M6.226,22.678V19.861a6.079,6.079,0,0,1,2.526-4.944,4.667,4.667,0,0,1-.86-4.559,3.049,3.049,0,0,0-3.2,5.176A4.467,4.467,0,0,0,2,19.626v2.113a2.351,2.351,0,0,0,2.348,2.348h2.2A3.265,3.265,0,0,1,6.226,22.678Z" transform="translate(-2 -8.114)" fill="#fff"/>
      <path id="Path_7095" data-name="Path 7095" d="M35.682,15.533a3.049,3.049,0,0,0-3.2-5.176,4.667,4.667,0,0,1-.86,4.559,6.079,6.079,0,0,1,2.526,4.944v2.818a3.265,3.265,0,0,1-.322,1.409h2.2a2.351,2.351,0,0,0,2.348-2.348V19.626A4.467,4.467,0,0,0,35.682,15.533Z" transform="translate(-17.71 -8.114)" fill="#fff"/>
      <path id="Path_7096" data-name="Path 7096" d="M20.118,12.954a3.757,3.757,0,1,0-3.9,0A5.171,5.171,0,0,0,13,17.733v2.818A2.351,2.351,0,0,0,15.348,22.9h5.635a2.351,2.351,0,0,0,2.348-2.348V17.733A5.171,5.171,0,0,0,20.118,12.954Z" transform="translate(-7.834 -5.987)" fill="#fff"/>
    </g>
  </g>
</svg>
