<svg xmlns="http://www.w3.org/2000/svg" xmlns:xlink="http://www.w3.org/1999/xlink" width="80.922" height="80.922" viewBox="0 0 80.922 80.922">
  <defs>
    <filter id="Rectangle_1607" x="0" y="0" width="80.922" height="80.922" filterUnits="userSpaceOnUse">
      <feOffset input="SourceAlpha"/>
      <feGaussianBlur stdDeviation="2" result="blur"/>
      <feFlood flood-opacity="0.11"/>
      <feComposite operator="in" in2="blur"/>
      <feComposite in="SourceGraphic"/>
    </filter>
  </defs>
  <g id="portability" transform="translate(-655.137 -2487.863)">
    <g transform="matrix(1, 0, 0, 1, 655.14, 2487.86)" filter="url(#Rectangle_1607)">
      <g id="Rectangle_1607-2" data-name="Rectangle 1607" transform="translate(6 6)" fill="#c81429" stroke="#fff" stroke-width="2">
        <rect width="68.922" height="68.922" rx="18" stroke="none"/>
        <rect x="1" y="1" width="66.922" height="66.922" rx="17" fill="none"/>
      </g>
    </g>
    <g id="_15887309171543238915" data-name="15887309171543238915" transform="translate(678.492 2514.332)">
      <path id="Path_2349" data-name="Path 2349" d="M26.33,4v9.33H17" transform="translate(7.881 -2.448)" fill="none" stroke="#fff" stroke-linecap="round" stroke-linejoin="round" stroke-width="2"/>
      <path id="Path_2350" data-name="Path 2350" d="M1,23.33V14h9.33" transform="translate(-1 3.102)" fill="none" stroke="#fff" stroke-linecap="round" stroke-linejoin="round" stroke-width="2"/>
      <path id="Path_2351" data-name="Path 2351" d="M4.9,12.329A14,14,0,0,1,28,7.1l7.215,6.78M1,20.1l7.215,6.78a14,14,0,0,0,23.092-5.225" transform="translate(-1 -3.002)" fill="none" stroke="#fff" stroke-linecap="round" stroke-linejoin="round" stroke-width="2"/>
    </g>
  </g>
</svg>
