<svg xmlns="http://www.w3.org/2000/svg" width="20.233" height="32.066" viewBox="0 0 20.233 32.066">
  <g id="Group_2080" data-name="Group 2080" transform="translate(0.294 2.316)">
    <path id="Path_9001" data-name="Path 9001" d="M19.675,4.541a1.433,1.433,0,0,0,.48-.858,1.259,1.259,0,0,0-.273-.707A6.973,6.973,0,0,0,17.669.886C17.073.532,16.24.3,15.743.779c-.248.242-.428.66-.774.631-.2-.018-.351-.2-.5-.338C13.7.347,12.5.459,11.454.619a1.33,1.33,0,0,0-.56.174c-.447.3-.361.967-.387,1.507a.445.445,0,0,1-.088.286.486.486,0,0,1-.265.117l-2.01.43a1.372,1.372,0,0,0-.67.275c-.375.347-.252.964-.048,1.432,1.045,2.405,3.376,4.051,4.5,6.422a3.083,3.083,0,0,0,.528.9,2.624,2.624,0,0,0,2.17.592c.615-.19.687-.928.894-1.466a21.562,21.562,0,0,1,4.163-6.746" transform="translate(-4.191 -2.29)" fill="#fff" stroke="#c91429" stroke-width="1"/>
    <path id="Path_9002" data-name="Path 9002" d="M19.675,4.541a1.433,1.433,0,0,0,.48-.858,1.259,1.259,0,0,0-.273-.707A6.973,6.973,0,0,0,17.669.886C17.073.532,16.24.3,15.743.779c-.248.242-.428.66-.774.631-.2-.018-.351-.2-.5-.338C13.7.347,12.5.459,11.454.619a1.33,1.33,0,0,0-.56.174c-.447.3-.361.967-.387,1.507a.445.445,0,0,1-.088.286.486.486,0,0,1-.265.117l-2.01.43a1.372,1.372,0,0,0-.67.275c-.375.347-.252.964-.048,1.432,1.045,2.405,3.376,4.051,4.5,6.422a3.083,3.083,0,0,0,.528.9,2.624,2.624,0,0,0,2.17.592c.615-.19.687-.928.894-1.466a21.562,21.562,0,0,1,4.163-6.746Z" transform="translate(-4.191 -2.29)" fill="none" stroke="#c91429" stroke-miterlimit="10" stroke-width="1"/>
    <path id="Path_9006" data-name="Path 9006" d="M19.675,4.541a1.433,1.433,0,0,0,.48-.858,1.259,1.259,0,0,0-.273-.707A6.973,6.973,0,0,0,17.669.886C17.073.532,16.24.3,15.743.779c-.248.242-.428.66-.774.631-.2-.018-.351-.2-.5-.338C13.7.347,12.5.459,11.454.619a1.33,1.33,0,0,0-.56.174c-.447.3-.361.967-.387,1.507a.445.445,0,0,1-.088.286.486.486,0,0,1-.265.117l-2.01.43a1.372,1.372,0,0,0-.67.275c-.375.347-.252.964-.048,1.432,1.045,2.405,3.376,4.051,4.5,6.422a3.083,3.083,0,0,0,.528.9,2.624,2.624,0,0,0,2.17.592c.615-.19.687-.928.894-1.466a21.562,21.562,0,0,1,4.163-6.746Z" transform="translate(-4.191 -2.29)" fill="none" stroke="#c91429" stroke-miterlimit="10" stroke-width="1"/>
    <path id="Path_9008" data-name="Path 9008" d="M8.84,25.3a6.183,6.183,0,0,0-5.6,5.214,17.773,17.773,0,0,1-.961,4.338c-.362.775-.9,1.455-1.3,2.213a3.216,3.216,0,0,0-.364,2.469c.166.484.516.962.381,1.456-.07.252-.25.554-.063.736a.584.584,0,0,0,.385.1,4.294,4.294,0,0,1,1.258.352,23.77,23.77,0,0,0,7.665,1.707,14.774,14.774,0,0,0,7.614-1.669,2.388,2.388,0,0,1,1.6-.467c.082.018.18.042.238-.018a.225.225,0,0,0,.021-.21q-.566-2.417-1.133-4.835a17.053,17.053,0,0,0-.743-2.561c-.568-1.4-1.5-2.635-1.927-4.079a9.106,9.106,0,0,0-.9-2.746,4.318,4.318,0,0,0-2.26-1.461A10.427,10.427,0,0,0,8.84,25.3Z" transform="translate(-0.29 -14.654)" fill="none" stroke="#c91429" stroke-miterlimit="10" stroke-width="1"/>
    <path id="Path_9009" data-name="Path 9009" d="M14.811,5.461a5.486,5.486,0,0,1,1.1,2.387c.131,1.2,1.339,3.521,1.149,5.971" transform="translate(-8.584 -5.165)" fill="#fff" stroke="#c91429" stroke-width="1"/>
    <path id="Path_9010" data-name="Path 9010" d="M14.811,5.461a5.486,5.486,0,0,1,1.1,2.387c.131,1.2,1.339,3.521,1.149,5.971" transform="translate(-8.584 -5.165)" fill="none" stroke="#c91429" stroke-miterlimit="10" stroke-width="1"/>
    <path id="Path_9011" data-name="Path 9011" d="M25.557,2.569s1.221,3.513.378,5.4a17.956,17.956,0,0,0-.788,4.156" transform="translate(-14.574 -3.489)" fill="#fff" stroke="#c91429" stroke-width="1"/>
    <path id="Path_9012" data-name="Path 9012" d="M25.557,2.569s1.221,3.513.378,5.4a17.956,17.956,0,0,0-.788,4.156" transform="translate(-14.574 -3.489)" fill="none" stroke="#c91429" stroke-miterlimit="10" stroke-width="1"/>
    <path id="Path_9013" data-name="Path 9013" d="M21.69,40.967h0l0-.012-1.687-.018a2.585,2.585,0,0,0-.673-1.4l2.261.025a.4.4,0,0,0,.036-.8L15.292,38.7a.4.4,0,0,0-.39.407.4.4,0,0,0,.383.39l2.185.024a1.784,1.784,0,0,1,1.724,1.407l-3.927-.043a.4.4,0,0,0-.006.8l3.923.042a1.781,1.781,0,0,1-1.754,1.369l-2.185-.024a.4.4,0,0,0-.289.679l4.325,4.42a.4.4,0,0,0,.563-.026.4.4,0,0,0,0-.534L16.2,43.877l1.222.013A2.587,2.587,0,0,0,20,41.735l1.573.017a.4.4,0,0,0,.312-.668.4.4,0,0,0-.191-.116" transform="translate(-8.602 -22.428)" fill="#c91429"/>
  </g>
</svg>
