<svg xmlns="http://www.w3.org/2000/svg" width="15.245" height="15.287" viewBox="0 0 15.245 15.287">
  <g id="_2292958011594444098" data-name="2292958011594444098" transform="translate(-7.8 -7.9)">
    <g id="Group_1588" data-name="Group 1588" transform="translate(7.8 7.9)">
      <path id="Path_6941" data-name="Path 6941" d="M22.208,23.768H8.219A.4.4,0,0,1,7.8,23.35V9.319A.4.4,0,0,1,8.219,8.9H18.438a.419.419,0,0,1,0,.838h-9.8V22.889H21.789V13a.419.419,0,1,1,.838,0V23.35A.45.45,0,0,1,22.208,23.768Z" transform="translate(-7.8 -8.481)" fill="#0c0c0c"/>
      <path id="Path_6942" data-name="Path 6942" d="M37.875,11.251a1.675,1.675,0,1,1,1.675-1.675A1.68,1.68,0,0,1,37.875,11.251Zm0-2.513a.838.838,0,1,0,.838.838A.84.84,0,0,0,37.875,8.738Z" transform="translate(-24.305 -7.9)" fill="#0c0c0c"/>
      <path id="Path_6943" data-name="Path 6943" d="M23.026,18.838H13.519a.419.419,0,0,1,0-.838h9.466a.4.4,0,0,1,.419.419A.387.387,0,0,1,23.026,18.838Z" transform="translate(-10.88 -13.77)" fill="#0c0c0c"/>
    </g>
  </g>
</svg>
