<svg xmlns="http://www.w3.org/2000/svg" xmlns:xlink="http://www.w3.org/1999/xlink" width="77.533" height="77.533" viewBox="0 0 77.533 77.533">
  <defs>
    <filter id="Ellipse_86" x="0" y="0" width="77.533" height="77.533" filterUnits="userSpaceOnUse">
      <feOffset dy="7" input="SourceAlpha"/>
      <feGaussianBlur stdDeviation="4.5" result="blur"/>
      <feFlood flood-opacity="0.161"/>
      <feComposite operator="in" in2="blur"/>
      <feComposite in="SourceGraphic"/>
    </filter>
  </defs>
  <g id="Group_1526" data-name="Group 1526" transform="translate(13.5 6.5)">
    <g transform="matrix(1, 0, 0, 1, -13.5, -6.5)" filter="url(#Ellipse_86)">
      <g id="Ellipse_86-2" data-name="Ellipse 86" transform="translate(13.5 6.5)" fill="#44583f" stroke="#fff" stroke-width="1">
        <ellipse cx="25.266" cy="25.266" rx="25.266" ry="25.266" stroke="none"/>
        <ellipse cx="25.266" cy="25.266" rx="24.766" ry="24.766" fill="none"/>
      </g>
    </g>
    <g id="_10295549801535797982" data-name="10295549801535797982" transform="translate(8.951 10)">
      <path id="Path_6458" data-name="Path 6458" d="M39.594,54.006a1.961,1.961,0,0,0-2.294-.7,1.931,1.931,0,0,0-.336-.922,1.957,1.957,0,0,0-2.711-.49l-.323.211a1.939,1.939,0,0,0-.329-.871,1.963,1.963,0,0,0-2.726-.479c-.01.007-.017.015-.026.023s-.008,0-.012.007c-2.568,2.149-5.7,4.372-6.506,4.372a15.91,15.91,0,0,1-3.854-1.826c-1.852-1.037-3.6-2.017-4.6-2.094-1.884-.137-7.634,3.2-8.285,3.583a.555.555,0,1,0,.562.958c2.342-1.375,6.477-3.526,7.638-3.433A17.1,17.1,0,0,1,19.933,54.3c2.094,1.173,3.449,1.9,4.285,1.956a.548.548,0,0,0,.113.011h3.811a1.262,1.262,0,0,1,0,2.524l-.016,0H28.1a34.316,34.316,0,0,1-5.3.006,8.843,8.843,0,0,1-3.3-1.89.555.555,0,0,0-.741.827,9.766,9.766,0,0,0,3.856,2.159,15.028,15.028,0,0,0,2.233.127c1.586,0,3.223-.114,3.327-.121h0a2.372,2.372,0,0,0-.04-4.743h-1.3a50.29,50.29,0,0,0,4.68-3.5.849.849,0,0,1,1.172.211.849.849,0,0,1-.208,1.18c-.01.007-.017.015-.026.023a.527.527,0,0,0-.054.046c-.01.01-.018.022-.027.032a.582.582,0,0,0-.041.052c-.008.013-.014.026-.021.039a.507.507,0,0,0-.028.056c-.006.015-.009.03-.014.045s-.012.037-.016.057,0,.032-.005.049,0,.038,0,.057,0,.034,0,.052,0,.036.006.054a.488.488,0,0,0,.016.055c0,.016.009.033.016.049a.522.522,0,0,0,.028.054c.007.013.012.026.02.039l0,.006s0,.006,0,.008.013.014.019.021a.54.54,0,0,0,.061.068c.011.01.023.019.034.028a.628.628,0,0,0,.066.045.389.389,0,0,0,.039.021.531.531,0,0,0,.078.029c.012,0,.024.008.036.011a.568.568,0,0,0,.117.014h0l.015,0a.548.548,0,0,0,.126-.019l.038-.011a.561.561,0,0,0,.125-.059l1.769-1.157a.849.849,0,0,1,1.18.208.845.845,0,0,1-.208,1.178l-.568.4a.555.555,0,0,0,.638.91l.559-.392,1.03-.675a.846.846,0,1,1,.97,1.386h0c-6.028,4.232-12.866,8.618-13.872,8.63-.748,0-2.4-.985-3.859-1.855a14.472,14.472,0,0,0-4.3-2.054c-2.192-.291-5.567,2.249-5.944,2.54a.555.555,0,1,0,.677.88c.925-.711,3.648-2.516,5.12-2.319a14.881,14.881,0,0,1,3.876,1.907c1.735,1.034,3.374,2.011,4.428,2.011,1.837,0,12.411-7.357,14.512-8.832a.552.552,0,0,0,.086-.074A1.957,1.957,0,0,0,39.594,54.006Z" transform="translate(-7.313 -35.726)" fill="#fff"/>
      <path id="Path_6459" data-name="Path 6459" d="M33.9,20.088a4.039,4.039,0,1,0-4.039-4.039A4.044,4.044,0,0,0,33.9,20.088Zm0-6.967a2.928,2.928,0,1,1-2.928,2.928A2.932,2.932,0,0,1,33.9,13.121Z" transform="translate(-21.24 -12.01)" fill="#fff"/>
      <path id="Path_6460" data-name="Path 6460" d="M61.538,20.665a3.1,3.1,0,1,0-3.1-3.1A3.107,3.107,0,0,0,61.538,20.665Zm0-5.1a1.993,1.993,0,1,1-1.993,1.993A1.995,1.995,0,0,1,61.538,15.569Z" transform="translate(-38.894 -13.522)" fill="#fff"/>
      <path id="Path_6461" data-name="Path 6461" d="M42.535,38.662a4.039,4.039,0,1,0,4.038-4.039A4.043,4.043,0,0,0,42.535,38.662Zm4.039-2.928a2.928,2.928,0,1,1-2.928,2.928A2.931,2.931,0,0,1,46.574,35.734Z" transform="translate(-29.072 -25.979)" fill="#fff"/>
    </g>
  </g>
</svg>
