<svg xmlns="http://www.w3.org/2000/svg" width="16.829" height="19.786" viewBox="0 0 16.829 19.786">
  <g id="_10825081681595501192" data-name="10825081681595501192" transform="translate(-5.5 -3.5)">
    <path id="Path_6946" data-name="Path 6946" d="M10,12.5V8.669A4.7,4.7,0,0,1,14.749,4h0A4.7,4.7,0,0,1,19.5,8.669V12.5" transform="translate(-0.834)" fill="none" stroke="#000" stroke-linecap="round" stroke-linejoin="round" stroke-width="1"/>
    <path id="Path_6947" data-name="Path 6947" d="M18.663,25.289h-9.5A3.175,3.175,0,0,1,6,22.123V18.166A3.175,3.175,0,0,1,9.166,15h9.5a3.175,3.175,0,0,1,3.166,3.166v3.957A3.175,3.175,0,0,1,18.663,25.289Z" transform="translate(0 -2.503)" fill="none" stroke="#000" stroke-linecap="round" stroke-linejoin="round" stroke-width="1"/>
    <path id="Path_6948" data-name="Path 6948" d="M14,20.583l1.583,1.583L18.749,19" transform="translate(-1.669 -3.337)" fill="none" stroke="#000" stroke-linecap="round" stroke-linejoin="round" stroke-width="1"/>
  </g>
</svg>
