<svg xmlns="http://www.w3.org/2000/svg" width="17.812" height="15.816" viewBox="0 0 17.812 15.816">
  <g id="_19794497111646045134" data-name="19794497111646045134" transform="translate(-3.85 -7.042)">
    <path id="Path_6949" data-name="Path 6949" d="M19.635,8.444h-2.01a1.251,1.251,0,1,0-2.5,0s-4.737,0-4.735,0a1.251,1.251,0,1,0-2.5,0H5.876A1.878,1.878,0,0,0,4,10.32V20.831a1.878,1.878,0,0,0,1.876,1.876H19.635a1.878,1.878,0,0,0,1.876-1.876V10.32A1.878,1.878,0,0,0,19.635,8.444ZM5.876,9.069h2.01a1.251,1.251,0,0,0,1.251,1.25.313.313,0,1,0,0-.625.625.625,0,0,1-.624-.624V8.442a.625.625,0,0,1,1.251,0H9.3a.313.313,0,1,0,0,.625h5.821a1.251,1.251,0,0,0,1.25,1.251.313.313,0,1,0,0-.625.625.625,0,0,1-.624-.624V8.442a.625.625,0,1,1,1.251,0h-.46a.313.313,0,1,0,0,.625h3.1a1.252,1.252,0,0,1,1.251,1.251v1.741H4.625V10.32A1.252,1.252,0,0,1,5.876,9.069ZM19.635,22.082H5.876a1.252,1.252,0,0,1-1.251-1.251V12.687H20.886v8.144A1.252,1.252,0,0,1,19.635,22.082Z" stroke="#000" stroke-width="0.3"/>
  </g>
</svg>
