<svg xmlns="http://www.w3.org/2000/svg" width="17.761" height="17.761" viewBox="0 0 17.761 17.761">
  <g id="_82659065416276572793767" data-name="82659065416276572793767" transform="translate(-5.75 -5.75)">
    <path id="Path_6951" data-name="Path 6951" d="M14.63,5.75a8.894,8.894,0,1,0,6.275,2.6,8.88,8.88,0,0,0-6.275-2.6Zm0,16.915A8.041,8.041,0,1,1,20.31,20.31a8.035,8.035,0,0,1-5.679,2.355Z"/>
    <g id="Layer_26" data-name="Layer 26" transform="translate(11.685 11.394)">
      <path id="Path_2347" data-name="Path 2347" d="M15.4,3.856H14a2.121,2.121,0,0,0-.7-1.326H15.4a.265.265,0,1,0,0-.53h-5.36a.265.265,0,1,0,0,.53H11.9a1.591,1.591,0,0,1,1.567,1.326H10.044a.265.265,0,1,0,0,.53h3.423A1.591,1.591,0,0,1,11.9,5.711H10.044a.265.265,0,0,0-.187.453l3.711,3.711a.265.265,0,0,0,.375-.374L10.684,6.242H11.9A2.121,2.121,0,0,0,14,4.386h1.4a.265.265,0,1,0,0-.53Z" transform="translate(-9.778 -2)" stroke="#000" stroke-width="0.3"/>
    </g>
  </g>
</svg>
