<svg xmlns="http://www.w3.org/2000/svg" width="20.189" height="17.761" viewBox="0 0 20.189 17.761">
  <g id="Group_1589" data-name="Group 1589" transform="translate(-164.751 -1843.181)">
    <g id="Group_1590" data-name="Group 1590">
      <g id="_82659065416276572793767" data-name="82659065416276572793767" transform="translate(159.427 1837.667)">
        <g id="Layer_26" data-name="Layer 26" transform="translate(11.685 11.394)">
          <path id="Path_2347" data-name="Path 2347" d="M14.853,3.674H13.588a1.913,1.913,0,0,0-.635-1.2h1.9a.239.239,0,0,0,0-.478H10.018a.239.239,0,0,0,0,.478h1.674a1.435,1.435,0,0,1,1.413,1.2H10.018a.239.239,0,1,0,0,.478H13.1a1.435,1.435,0,0,1-1.413,1.2H10.018a.239.239,0,0,0-.169.409L13.2,9.1a.239.239,0,0,0,.338-.337L10.6,5.826h1.1a1.913,1.913,0,0,0,1.9-1.674h1.265a.239.239,0,1,0,0-.478Z" transform="translate(-9.778 -2)" stroke="#000" stroke-width="0.3"/>
        </g>
      </g>
      <path id="Path_6960" data-name="Path 6960" d="M14.63,5.75a8.894,8.894,0,1,0,6.275,2.6,8.88,8.88,0,0,0-6.275-2.6Zm0,16.915A8.041,8.041,0,1,1,20.31,20.31a8.035,8.035,0,0,1-5.679,2.355Z" transform="translate(159.001 1837.431)"/>
      <path id="Path_6961" data-name="Path 6961" d="M0,2.493,2.406,0,4.567,2.493" transform="translate(184.316 1853.308) rotate(180)" fill="none" stroke="#f6f7f2" stroke-linecap="round" stroke-width="0.8"/>
      <path id="Path_6962" data-name="Path 6962" d="M0,2.525,2.436,0,4.625,2.525" transform="translate(184.375 1852.233) rotate(180)" fill="none" stroke="#000" stroke-linecap="round" stroke-width="0.8"/>
    </g>
  </g>
</svg>
