<svg xmlns="http://www.w3.org/2000/svg" width="16.617" height="20.853" viewBox="0 0 16.617 20.853">
  <g id="_7119424481582885797" data-name="7119424481582885797" transform="translate(-15.12 -2.326)">
    <path id="Path_6959" data-name="Path 6959" d="M28.293,8.562,26.8,7.429l.947-4a.692.692,0,0,0-.673-.851H19.785a.692.692,0,0,0-.673.851l.947,4L18.564,8.562a8.079,8.079,0,0,0-3.185,6.77,7.775,7.775,0,0,0,3.629,6.33,8.2,8.2,0,0,0,4.173,1.264q.123,0,.248,0t.247,0a8.2,8.2,0,0,0,4.173-1.264,7.775,7.775,0,0,0,3.629-6.329,8.079,8.079,0,0,0-3.185-6.771Zm1.8,6.713a6.409,6.409,0,0,1-2.989,5.219,6.725,6.725,0,0,1-3.47,1.049c-.139,0-.279,0-.418,0a6.725,6.725,0,0,1-3.469-1.049,6.409,6.409,0,0,1-2.989-5.219A6.7,6.7,0,0,1,19.4,9.665l1.233-.935a.687.687,0,0,0,.3.07h1.413a.692.692,0,1,0,0-1.384h-.866L20.66,3.96H26.2l-.818,3.456h-.622a.692.692,0,0,0,0,1.384h1.169a.687.687,0,0,0,.3-.07l1.233.935A6.7,6.7,0,0,1,30.1,15.276Z" stroke="#f6f7f2" stroke-width="0.5"/>
    <g id="Layer_26" data-name="Layer 26" transform="translate(20.548 11.846)">
      <path id="Path_2347" data-name="Path 2347" d="M15.28,3.815H13.908a2.074,2.074,0,0,0-.688-1.3h2.06a.259.259,0,1,0,0-.518H10.038a.259.259,0,0,0,0,.518h1.815a1.555,1.555,0,0,1,1.532,1.3H10.038a.259.259,0,0,0,0,.518h3.347a1.555,1.555,0,0,1-1.532,1.3H10.038a.259.259,0,0,0-.183.443L13.484,9.7a.259.259,0,0,0,.367-.366L10.664,6.148h1.189a2.074,2.074,0,0,0,2.056-1.815H15.28a.259.259,0,1,0,0-.518Z" transform="translate(-9.778 -2)" stroke="#000" stroke-width="0.3"/>
    </g>
  </g>
</svg>
