<svg xmlns="http://www.w3.org/2000/svg" width="17.598" height="17.598" viewBox="0 0 17.598 17.598">
  <path id="_10900188291655473166_1_" data-name="10900188291655473166 (1)" d="M7.809,7.809h.008m4.971,4.98H12.8m.822-5.809L6.98,13.619M8.224,7.809a.415.415,0,1,1-.415-.415A.415.415,0,0,1,8.224,7.809Zm4.98,4.98a.415.415,0,1,1-.415-.415A.415.415,0,0,1,13.2,12.789ZM18.6,10.3A8.3,8.3,0,1,1,10.3,2,8.3,8.3,0,0,1,18.6,10.3Z" transform="translate(-1.5 -1.5)" fill="none" stroke="#000" stroke-linecap="round" stroke-linejoin="round" stroke-width="1"/>
</svg>
