<svg xmlns="http://www.w3.org/2000/svg" xmlns:xlink="http://www.w3.org/1999/xlink" width="645.702" height="31.459" viewBox="0 0 645.702 31.459">
  <defs>
    <clipPath id="clip-path">
      <rect width="645.702" height="31.459" fill="none"/>
    </clipPath>
    <clipPath id="clip-path-2">
      <rect id="Rectangle_1819" data-name="Rectangle 1819" width="19.649" height="29.459" fill="none"/>
    </clipPath>
  </defs>
  <g id="Repeat_Grid_6" data-name="Repeat Grid 6" clip-path="url(#clip-path)">
    <g id="Group_2017" data-name="Group 2017" transform="translate(0 0)">
      <g id="Group_2016" data-name="Group 2016" transform="translate(0 0)" clip-path="url(#clip-path-2)">
        <path id="Path_8695" data-name="Path 8695" d="M19.675,4.541a1.433,1.433,0,0,0,.48-.858,1.259,1.259,0,0,0-.273-.707A6.973,6.973,0,0,0,17.669.886C17.073.532,16.24.3,15.743.779c-.248.242-.428.66-.774.631-.2-.018-.351-.2-.5-.338C13.7.347,12.5.459,11.454.619a1.33,1.33,0,0,0-.56.174c-.447.3-.361.967-.387,1.507a.445.445,0,0,1-.088.286.486.486,0,0,1-.265.117l-2.01.43a1.372,1.372,0,0,0-.67.275c-.375.347-.252.964-.048,1.432,1.045,2.405,3.376,4.051,4.5,6.422a3.083,3.083,0,0,0,.528.9,2.624,2.624,0,0,0,2.17.592c.615-.19.687-.928.894-1.466a21.562,21.562,0,0,1,4.163-6.746" transform="translate(-4.19 -0.29)" fill="#fff"/>
        <path id="Path_8696" data-name="Path 8696" d="M19.675,4.541a1.433,1.433,0,0,0,.48-.858,1.259,1.259,0,0,0-.273-.707A6.973,6.973,0,0,0,17.669.886C17.073.532,16.24.3,15.743.779c-.248.242-.428.66-.774.631-.2-.018-.351-.2-.5-.338C13.7.347,12.5.459,11.454.619a1.33,1.33,0,0,0-.56.174c-.447.3-.361.967-.387,1.507a.445.445,0,0,1-.088.286.486.486,0,0,1-.265.117l-2.01.43a1.372,1.372,0,0,0-.67.275c-.375.347-.252.964-.048,1.432,1.045,2.405,3.376,4.051,4.5,6.422a3.083,3.083,0,0,0,.528.9,2.624,2.624,0,0,0,2.17.592c.615-.19.687-.928.894-1.466a21.562,21.562,0,0,1,4.163-6.746Z" transform="translate(-4.19 -0.29)" fill="none" stroke="#000" stroke-width="1"/>
        <path id="Path_8697" data-name="Path 8697" d="M15.541,1.738a7.02,7.02,0,0,0,.113,1.126,2.673,2.673,0,0,1-.036,1.125l-.661-1.244a.515.515,0,0,1-.054-.129.5.5,0,0,1,0-.156q.044-.443.088-.887a1.145,1.145,0,0,1,.05-.275.749.749,0,0,1,.216-.3c.114-.1.528-.4.5-.093a2.743,2.743,0,0,1-.148.379,1.925,1.925,0,0,0-.066.457" transform="translate(-8.633 -0.446)" fill="#fff"/>
        <path id="Path_8698" data-name="Path 8698" d="M15.541,1.738a7.02,7.02,0,0,0,.113,1.126,2.673,2.673,0,0,1-.036,1.125l-.661-1.244a.515.515,0,0,1-.054-.129.5.5,0,0,1,0-.156q.044-.443.088-.887a1.145,1.145,0,0,1,.05-.275.749.749,0,0,1,.216-.3c.114-.1.528-.4.5-.093a2.743,2.743,0,0,1-.148.379A1.925,1.925,0,0,0,15.541,1.738Z" transform="translate(-8.633 -0.446)" fill="none" stroke="#000" stroke-width="1"/>
        <path id="Path_8699" data-name="Path 8699" d="M19.675,4.541a1.433,1.433,0,0,0,.48-.858,1.259,1.259,0,0,0-.273-.707A6.973,6.973,0,0,0,17.669.886C17.073.532,16.24.3,15.743.779c-.248.242-.428.66-.774.631-.2-.018-.351-.2-.5-.338C13.7.347,12.5.459,11.454.619a1.33,1.33,0,0,0-.56.174c-.447.3-.361.967-.387,1.507a.445.445,0,0,1-.088.286.486.486,0,0,1-.265.117l-2.01.43a1.372,1.372,0,0,0-.67.275c-.375.347-.252.964-.048,1.432,1.045,2.405,3.376,4.051,4.5,6.422a3.083,3.083,0,0,0,.528.9,2.624,2.624,0,0,0,2.17.592c.615-.19.687-.928.894-1.466a21.562,21.562,0,0,1,4.163-6.746" transform="translate(-4.19 -0.29)" fill="#e2a327"/>
        <path id="Path_8700" data-name="Path 8700" d="M19.675,4.541a1.433,1.433,0,0,0,.48-.858,1.259,1.259,0,0,0-.273-.707A6.973,6.973,0,0,0,17.669.886C17.073.532,16.24.3,15.743.779c-.248.242-.428.66-.774.631-.2-.018-.351-.2-.5-.338C13.7.347,12.5.459,11.454.619a1.33,1.33,0,0,0-.56.174c-.447.3-.361.967-.387,1.507a.445.445,0,0,1-.088.286.486.486,0,0,1-.265.117l-2.01.43a1.372,1.372,0,0,0-.67.275c-.375.347-.252.964-.048,1.432,1.045,2.405,3.376,4.051,4.5,6.422a3.083,3.083,0,0,0,.528.9,2.624,2.624,0,0,0,2.17.592c.615-.19.687-.928.894-1.466a21.562,21.562,0,0,1,4.163-6.746Z" transform="translate(-4.19 -0.29)" fill="none" stroke="#000" stroke-width="1"/>
        <path id="Path_8701" data-name="Path 8701" d="M8.84,25.3a6.183,6.183,0,0,0-5.6,5.214,17.773,17.773,0,0,1-.961,4.338c-.362.775-.9,1.455-1.3,2.213a3.216,3.216,0,0,0-.364,2.469c.166.484.516.962.381,1.456-.07.252-.25.554-.063.736a.584.584,0,0,0,.385.1,4.294,4.294,0,0,1,1.258.352,23.77,23.77,0,0,0,7.665,1.707,14.774,14.774,0,0,0,7.614-1.669,2.388,2.388,0,0,1,1.6-.467c.082.018.18.042.238-.018a.225.225,0,0,0,.021-.21q-.566-2.417-1.133-4.835a17.053,17.053,0,0,0-.743-2.561c-.568-1.4-1.5-2.635-1.927-4.079a9.106,9.106,0,0,0-.9-2.746,4.318,4.318,0,0,0-2.26-1.461A10.427,10.427,0,0,0,8.84,25.3" transform="translate(-0.29 -14.654)" fill="#e2a327"/>
        <path id="Path_8702" data-name="Path 8702" d="M8.84,25.3a6.183,6.183,0,0,0-5.6,5.214,17.773,17.773,0,0,1-.961,4.338c-.362.775-.9,1.455-1.3,2.213a3.216,3.216,0,0,0-.364,2.469c.166.484.516.962.381,1.456-.07.252-.25.554-.063.736a.584.584,0,0,0,.385.1,4.294,4.294,0,0,1,1.258.352,23.77,23.77,0,0,0,7.665,1.707,14.774,14.774,0,0,0,7.614-1.669,2.388,2.388,0,0,1,1.6-.467c.082.018.18.042.238-.018a.225.225,0,0,0,.021-.21q-.566-2.417-1.133-4.835a17.053,17.053,0,0,0-.743-2.561c-.568-1.4-1.5-2.635-1.927-4.079a9.106,9.106,0,0,0-.9-2.746,4.318,4.318,0,0,0-2.26-1.461A10.427,10.427,0,0,0,8.84,25.3Z" transform="translate(-0.29 -14.654)" fill="none" stroke="#000" stroke-width="1"/>
        <path id="Path_8703" data-name="Path 8703" d="M14.811,5.461a5.486,5.486,0,0,1,1.1,2.387c.131,1.2,1.339,3.521,1.149,5.971" transform="translate(-8.583 -3.165)" fill="#fff"/>
        <path id="Path_8704" data-name="Path 8704" d="M14.811,5.461a5.486,5.486,0,0,1,1.1,2.387c.131,1.2,1.339,3.521,1.149,5.971" transform="translate(-8.583 -3.165)" fill="none" stroke="#000" stroke-width="1"/>
        <path id="Path_8705" data-name="Path 8705" d="M25.557,2.569s1.221,3.513.378,5.4a17.956,17.956,0,0,0-.788,4.156" transform="translate(-14.573 -1.489)" fill="#fff"/>
        <path id="Path_8706" data-name="Path 8706" d="M25.557,2.569s1.221,3.513.378,5.4a17.956,17.956,0,0,0-.788,4.156" transform="translate(-14.573 -1.489)" fill="none" stroke="#000" stroke-width="1"/>
        <path id="Path_8707" data-name="Path 8707" d="M21.69,40.967h0l0-.012-1.687-.018a2.585,2.585,0,0,0-.673-1.4l2.261.025a.4.4,0,0,0,.036-.8L15.292,38.7a.4.4,0,0,0-.39.407.4.4,0,0,0,.383.39l2.185.024a1.784,1.784,0,0,1,1.724,1.407l-3.927-.043a.4.4,0,0,0-.006.8l3.923.042a1.781,1.781,0,0,1-1.754,1.369l-2.185-.024a.4.4,0,0,0-.289.679l4.325,4.42a.4.4,0,0,0,.563-.026.4.4,0,0,0,0-.534L16.2,43.877l1.222.013A2.587,2.587,0,0,0,20,41.735l1.573.017a.4.4,0,0,0,.312-.668.4.4,0,0,0-.191-.116" transform="translate(-8.602 -22.428)"/>
      </g>
    </g>
    <g id="Group_2017-2" data-name="Group 2017" transform="translate(52 0)">
      <g id="Group_2016-2" data-name="Group 2016" transform="translate(0 0)" clip-path="url(#clip-path-2)">
        <path id="Path_8695-2" data-name="Path 8695" d="M19.675,4.541a1.433,1.433,0,0,0,.48-.858,1.259,1.259,0,0,0-.273-.707A6.973,6.973,0,0,0,17.669.886C17.073.532,16.24.3,15.743.779c-.248.242-.428.66-.774.631-.2-.018-.351-.2-.5-.338C13.7.347,12.5.459,11.454.619a1.33,1.33,0,0,0-.56.174c-.447.3-.361.967-.387,1.507a.445.445,0,0,1-.088.286.486.486,0,0,1-.265.117l-2.01.43a1.372,1.372,0,0,0-.67.275c-.375.347-.252.964-.048,1.432,1.045,2.405,3.376,4.051,4.5,6.422a3.083,3.083,0,0,0,.528.9,2.624,2.624,0,0,0,2.17.592c.615-.19.687-.928.894-1.466a21.562,21.562,0,0,1,4.163-6.746" transform="translate(-4.19 -0.29)" fill="#fff"/>
        <path id="Path_8696-2" data-name="Path 8696" d="M19.675,4.541a1.433,1.433,0,0,0,.48-.858,1.259,1.259,0,0,0-.273-.707A6.973,6.973,0,0,0,17.669.886C17.073.532,16.24.3,15.743.779c-.248.242-.428.66-.774.631-.2-.018-.351-.2-.5-.338C13.7.347,12.5.459,11.454.619a1.33,1.33,0,0,0-.56.174c-.447.3-.361.967-.387,1.507a.445.445,0,0,1-.088.286.486.486,0,0,1-.265.117l-2.01.43a1.372,1.372,0,0,0-.67.275c-.375.347-.252.964-.048,1.432,1.045,2.405,3.376,4.051,4.5,6.422a3.083,3.083,0,0,0,.528.9,2.624,2.624,0,0,0,2.17.592c.615-.19.687-.928.894-1.466a21.562,21.562,0,0,1,4.163-6.746Z" transform="translate(-4.19 -0.29)" fill="none" stroke="#000" stroke-width="1"/>
        <path id="Path_8697-2" data-name="Path 8697" d="M15.541,1.738a7.02,7.02,0,0,0,.113,1.126,2.673,2.673,0,0,1-.036,1.125l-.661-1.244a.515.515,0,0,1-.054-.129.5.5,0,0,1,0-.156q.044-.443.088-.887a1.145,1.145,0,0,1,.05-.275.749.749,0,0,1,.216-.3c.114-.1.528-.4.5-.093a2.743,2.743,0,0,1-.148.379,1.925,1.925,0,0,0-.066.457" transform="translate(-8.633 -0.446)" fill="#fff"/>
        <path id="Path_8698-2" data-name="Path 8698" d="M15.541,1.738a7.02,7.02,0,0,0,.113,1.126,2.673,2.673,0,0,1-.036,1.125l-.661-1.244a.515.515,0,0,1-.054-.129.5.5,0,0,1,0-.156q.044-.443.088-.887a1.145,1.145,0,0,1,.05-.275.749.749,0,0,1,.216-.3c.114-.1.528-.4.5-.093a2.743,2.743,0,0,1-.148.379A1.925,1.925,0,0,0,15.541,1.738Z" transform="translate(-8.633 -0.446)" fill="none" stroke="#000" stroke-width="1"/>
        <path id="Path_8699-2" data-name="Path 8699" d="M19.675,4.541a1.433,1.433,0,0,0,.48-.858,1.259,1.259,0,0,0-.273-.707A6.973,6.973,0,0,0,17.669.886C17.073.532,16.24.3,15.743.779c-.248.242-.428.66-.774.631-.2-.018-.351-.2-.5-.338C13.7.347,12.5.459,11.454.619a1.33,1.33,0,0,0-.56.174c-.447.3-.361.967-.387,1.507a.445.445,0,0,1-.088.286.486.486,0,0,1-.265.117l-2.01.43a1.372,1.372,0,0,0-.67.275c-.375.347-.252.964-.048,1.432,1.045,2.405,3.376,4.051,4.5,6.422a3.083,3.083,0,0,0,.528.9,2.624,2.624,0,0,0,2.17.592c.615-.19.687-.928.894-1.466a21.562,21.562,0,0,1,4.163-6.746" transform="translate(-4.19 -0.29)" fill="#e2a327"/>
        <path id="Path_8700-2" data-name="Path 8700" d="M19.675,4.541a1.433,1.433,0,0,0,.48-.858,1.259,1.259,0,0,0-.273-.707A6.973,6.973,0,0,0,17.669.886C17.073.532,16.24.3,15.743.779c-.248.242-.428.66-.774.631-.2-.018-.351-.2-.5-.338C13.7.347,12.5.459,11.454.619a1.33,1.33,0,0,0-.56.174c-.447.3-.361.967-.387,1.507a.445.445,0,0,1-.088.286.486.486,0,0,1-.265.117l-2.01.43a1.372,1.372,0,0,0-.67.275c-.375.347-.252.964-.048,1.432,1.045,2.405,3.376,4.051,4.5,6.422a3.083,3.083,0,0,0,.528.9,2.624,2.624,0,0,0,2.17.592c.615-.19.687-.928.894-1.466a21.562,21.562,0,0,1,4.163-6.746Z" transform="translate(-4.19 -0.29)" fill="none" stroke="#000" stroke-width="1"/>
        <path id="Path_8701-2" data-name="Path 8701" d="M8.84,25.3a6.183,6.183,0,0,0-5.6,5.214,17.773,17.773,0,0,1-.961,4.338c-.362.775-.9,1.455-1.3,2.213a3.216,3.216,0,0,0-.364,2.469c.166.484.516.962.381,1.456-.07.252-.25.554-.063.736a.584.584,0,0,0,.385.1,4.294,4.294,0,0,1,1.258.352,23.77,23.77,0,0,0,7.665,1.707,14.774,14.774,0,0,0,7.614-1.669,2.388,2.388,0,0,1,1.6-.467c.082.018.18.042.238-.018a.225.225,0,0,0,.021-.21q-.566-2.417-1.133-4.835a17.053,17.053,0,0,0-.743-2.561c-.568-1.4-1.5-2.635-1.927-4.079a9.106,9.106,0,0,0-.9-2.746,4.318,4.318,0,0,0-2.26-1.461A10.427,10.427,0,0,0,8.84,25.3" transform="translate(-0.29 -14.654)" fill="#e2a327"/>
        <path id="Path_8702-2" data-name="Path 8702" d="M8.84,25.3a6.183,6.183,0,0,0-5.6,5.214,17.773,17.773,0,0,1-.961,4.338c-.362.775-.9,1.455-1.3,2.213a3.216,3.216,0,0,0-.364,2.469c.166.484.516.962.381,1.456-.07.252-.25.554-.063.736a.584.584,0,0,0,.385.1,4.294,4.294,0,0,1,1.258.352,23.77,23.77,0,0,0,7.665,1.707,14.774,14.774,0,0,0,7.614-1.669,2.388,2.388,0,0,1,1.6-.467c.082.018.18.042.238-.018a.225.225,0,0,0,.021-.21q-.566-2.417-1.133-4.835a17.053,17.053,0,0,0-.743-2.561c-.568-1.4-1.5-2.635-1.927-4.079a9.106,9.106,0,0,0-.9-2.746,4.318,4.318,0,0,0-2.26-1.461A10.427,10.427,0,0,0,8.84,25.3Z" transform="translate(-0.29 -14.654)" fill="none" stroke="#000" stroke-width="1"/>
        <path id="Path_8703-2" data-name="Path 8703" d="M14.811,5.461a5.486,5.486,0,0,1,1.1,2.387c.131,1.2,1.339,3.521,1.149,5.971" transform="translate(-8.583 -3.165)" fill="#fff"/>
        <path id="Path_8704-2" data-name="Path 8704" d="M14.811,5.461a5.486,5.486,0,0,1,1.1,2.387c.131,1.2,1.339,3.521,1.149,5.971" transform="translate(-8.583 -3.165)" fill="none" stroke="#000" stroke-width="1"/>
        <path id="Path_8705-2" data-name="Path 8705" d="M25.557,2.569s1.221,3.513.378,5.4a17.956,17.956,0,0,0-.788,4.156" transform="translate(-14.573 -1.489)" fill="#fff"/>
        <path id="Path_8706-2" data-name="Path 8706" d="M25.557,2.569s1.221,3.513.378,5.4a17.956,17.956,0,0,0-.788,4.156" transform="translate(-14.573 -1.489)" fill="none" stroke="#000" stroke-width="1"/>
        <path id="Path_8707-2" data-name="Path 8707" d="M21.69,40.967h0l0-.012-1.687-.018a2.585,2.585,0,0,0-.673-1.4l2.261.025a.4.4,0,0,0,.036-.8L15.292,38.7a.4.4,0,0,0-.39.407.4.4,0,0,0,.383.39l2.185.024a1.784,1.784,0,0,1,1.724,1.407l-3.927-.043a.4.4,0,0,0-.006.8l3.923.042a1.781,1.781,0,0,1-1.754,1.369l-2.185-.024a.4.4,0,0,0-.289.679l4.325,4.42a.4.4,0,0,0,.563-.026.4.4,0,0,0,0-.534L16.2,43.877l1.222.013A2.587,2.587,0,0,0,20,41.735l1.573.017a.4.4,0,0,0,.312-.668.4.4,0,0,0-.191-.116" transform="translate(-8.602 -22.428)"/>
      </g>
    </g>
    <g id="Group_2017-3" data-name="Group 2017" transform="translate(104 0)">
      <g id="Group_2016-3" data-name="Group 2016" transform="translate(0 0)" clip-path="url(#clip-path-2)">
        <path id="Path_8695-3" data-name="Path 8695" d="M19.675,4.541a1.433,1.433,0,0,0,.48-.858,1.259,1.259,0,0,0-.273-.707A6.973,6.973,0,0,0,17.669.886C17.073.532,16.24.3,15.743.779c-.248.242-.428.66-.774.631-.2-.018-.351-.2-.5-.338C13.7.347,12.5.459,11.454.619a1.33,1.33,0,0,0-.56.174c-.447.3-.361.967-.387,1.507a.445.445,0,0,1-.088.286.486.486,0,0,1-.265.117l-2.01.43a1.372,1.372,0,0,0-.67.275c-.375.347-.252.964-.048,1.432,1.045,2.405,3.376,4.051,4.5,6.422a3.083,3.083,0,0,0,.528.9,2.624,2.624,0,0,0,2.17.592c.615-.19.687-.928.894-1.466a21.562,21.562,0,0,1,4.163-6.746" transform="translate(-4.19 -0.29)" fill="#fff"/>
        <path id="Path_8696-3" data-name="Path 8696" d="M19.675,4.541a1.433,1.433,0,0,0,.48-.858,1.259,1.259,0,0,0-.273-.707A6.973,6.973,0,0,0,17.669.886C17.073.532,16.24.3,15.743.779c-.248.242-.428.66-.774.631-.2-.018-.351-.2-.5-.338C13.7.347,12.5.459,11.454.619a1.33,1.33,0,0,0-.56.174c-.447.3-.361.967-.387,1.507a.445.445,0,0,1-.088.286.486.486,0,0,1-.265.117l-2.01.43a1.372,1.372,0,0,0-.67.275c-.375.347-.252.964-.048,1.432,1.045,2.405,3.376,4.051,4.5,6.422a3.083,3.083,0,0,0,.528.9,2.624,2.624,0,0,0,2.17.592c.615-.19.687-.928.894-1.466a21.562,21.562,0,0,1,4.163-6.746Z" transform="translate(-4.19 -0.29)" fill="none" stroke="#000" stroke-width="1"/>
        <path id="Path_8697-3" data-name="Path 8697" d="M15.541,1.738a7.02,7.02,0,0,0,.113,1.126,2.673,2.673,0,0,1-.036,1.125l-.661-1.244a.515.515,0,0,1-.054-.129.5.5,0,0,1,0-.156q.044-.443.088-.887a1.145,1.145,0,0,1,.05-.275.749.749,0,0,1,.216-.3c.114-.1.528-.4.5-.093a2.743,2.743,0,0,1-.148.379,1.925,1.925,0,0,0-.066.457" transform="translate(-8.633 -0.446)" fill="#fff"/>
        <path id="Path_8698-3" data-name="Path 8698" d="M15.541,1.738a7.02,7.02,0,0,0,.113,1.126,2.673,2.673,0,0,1-.036,1.125l-.661-1.244a.515.515,0,0,1-.054-.129.5.5,0,0,1,0-.156q.044-.443.088-.887a1.145,1.145,0,0,1,.05-.275.749.749,0,0,1,.216-.3c.114-.1.528-.4.5-.093a2.743,2.743,0,0,1-.148.379A1.925,1.925,0,0,0,15.541,1.738Z" transform="translate(-8.633 -0.446)" fill="none" stroke="#000" stroke-width="1"/>
        <path id="Path_8699-3" data-name="Path 8699" d="M19.675,4.541a1.433,1.433,0,0,0,.48-.858,1.259,1.259,0,0,0-.273-.707A6.973,6.973,0,0,0,17.669.886C17.073.532,16.24.3,15.743.779c-.248.242-.428.66-.774.631-.2-.018-.351-.2-.5-.338C13.7.347,12.5.459,11.454.619a1.33,1.33,0,0,0-.56.174c-.447.3-.361.967-.387,1.507a.445.445,0,0,1-.088.286.486.486,0,0,1-.265.117l-2.01.43a1.372,1.372,0,0,0-.67.275c-.375.347-.252.964-.048,1.432,1.045,2.405,3.376,4.051,4.5,6.422a3.083,3.083,0,0,0,.528.9,2.624,2.624,0,0,0,2.17.592c.615-.19.687-.928.894-1.466a21.562,21.562,0,0,1,4.163-6.746" transform="translate(-4.19 -0.29)" fill="#e2a327"/>
        <path id="Path_8700-3" data-name="Path 8700" d="M19.675,4.541a1.433,1.433,0,0,0,.48-.858,1.259,1.259,0,0,0-.273-.707A6.973,6.973,0,0,0,17.669.886C17.073.532,16.24.3,15.743.779c-.248.242-.428.66-.774.631-.2-.018-.351-.2-.5-.338C13.7.347,12.5.459,11.454.619a1.33,1.33,0,0,0-.56.174c-.447.3-.361.967-.387,1.507a.445.445,0,0,1-.088.286.486.486,0,0,1-.265.117l-2.01.43a1.372,1.372,0,0,0-.67.275c-.375.347-.252.964-.048,1.432,1.045,2.405,3.376,4.051,4.5,6.422a3.083,3.083,0,0,0,.528.9,2.624,2.624,0,0,0,2.17.592c.615-.19.687-.928.894-1.466a21.562,21.562,0,0,1,4.163-6.746Z" transform="translate(-4.19 -0.29)" fill="none" stroke="#000" stroke-width="1"/>
        <path id="Path_8701-3" data-name="Path 8701" d="M8.84,25.3a6.183,6.183,0,0,0-5.6,5.214,17.773,17.773,0,0,1-.961,4.338c-.362.775-.9,1.455-1.3,2.213a3.216,3.216,0,0,0-.364,2.469c.166.484.516.962.381,1.456-.07.252-.25.554-.063.736a.584.584,0,0,0,.385.1,4.294,4.294,0,0,1,1.258.352,23.77,23.77,0,0,0,7.665,1.707,14.774,14.774,0,0,0,7.614-1.669,2.388,2.388,0,0,1,1.6-.467c.082.018.18.042.238-.018a.225.225,0,0,0,.021-.21q-.566-2.417-1.133-4.835a17.053,17.053,0,0,0-.743-2.561c-.568-1.4-1.5-2.635-1.927-4.079a9.106,9.106,0,0,0-.9-2.746,4.318,4.318,0,0,0-2.26-1.461A10.427,10.427,0,0,0,8.84,25.3" transform="translate(-0.29 -14.654)" fill="#e2a327"/>
        <path id="Path_8702-3" data-name="Path 8702" d="M8.84,25.3a6.183,6.183,0,0,0-5.6,5.214,17.773,17.773,0,0,1-.961,4.338c-.362.775-.9,1.455-1.3,2.213a3.216,3.216,0,0,0-.364,2.469c.166.484.516.962.381,1.456-.07.252-.25.554-.063.736a.584.584,0,0,0,.385.1,4.294,4.294,0,0,1,1.258.352,23.77,23.77,0,0,0,7.665,1.707,14.774,14.774,0,0,0,7.614-1.669,2.388,2.388,0,0,1,1.6-.467c.082.018.18.042.238-.018a.225.225,0,0,0,.021-.21q-.566-2.417-1.133-4.835a17.053,17.053,0,0,0-.743-2.561c-.568-1.4-1.5-2.635-1.927-4.079a9.106,9.106,0,0,0-.9-2.746,4.318,4.318,0,0,0-2.26-1.461A10.427,10.427,0,0,0,8.84,25.3Z" transform="translate(-0.29 -14.654)" fill="none" stroke="#000" stroke-width="1"/>
        <path id="Path_8703-3" data-name="Path 8703" d="M14.811,5.461a5.486,5.486,0,0,1,1.1,2.387c.131,1.2,1.339,3.521,1.149,5.971" transform="translate(-8.583 -3.165)" fill="#fff"/>
        <path id="Path_8704-3" data-name="Path 8704" d="M14.811,5.461a5.486,5.486,0,0,1,1.1,2.387c.131,1.2,1.339,3.521,1.149,5.971" transform="translate(-8.583 -3.165)" fill="none" stroke="#000" stroke-width="1"/>
        <path id="Path_8705-3" data-name="Path 8705" d="M25.557,2.569s1.221,3.513.378,5.4a17.956,17.956,0,0,0-.788,4.156" transform="translate(-14.573 -1.489)" fill="#fff"/>
        <path id="Path_8706-3" data-name="Path 8706" d="M25.557,2.569s1.221,3.513.378,5.4a17.956,17.956,0,0,0-.788,4.156" transform="translate(-14.573 -1.489)" fill="none" stroke="#000" stroke-width="1"/>
        <path id="Path_8707-3" data-name="Path 8707" d="M21.69,40.967h0l0-.012-1.687-.018a2.585,2.585,0,0,0-.673-1.4l2.261.025a.4.4,0,0,0,.036-.8L15.292,38.7a.4.4,0,0,0-.39.407.4.4,0,0,0,.383.39l2.185.024a1.784,1.784,0,0,1,1.724,1.407l-3.927-.043a.4.4,0,0,0-.006.8l3.923.042a1.781,1.781,0,0,1-1.754,1.369l-2.185-.024a.4.4,0,0,0-.289.679l4.325,4.42a.4.4,0,0,0,.563-.026.4.4,0,0,0,0-.534L16.2,43.877l1.222.013A2.587,2.587,0,0,0,20,41.735l1.573.017a.4.4,0,0,0,.312-.668.4.4,0,0,0-.191-.116" transform="translate(-8.602 -22.428)"/>
      </g>
    </g>
    <g id="Group_2017-4" data-name="Group 2017" transform="translate(156 0)">
      <g id="Group_2016-4" data-name="Group 2016" transform="translate(0 0)" clip-path="url(#clip-path-2)">
        <path id="Path_8695-4" data-name="Path 8695" d="M19.675,4.541a1.433,1.433,0,0,0,.48-.858,1.259,1.259,0,0,0-.273-.707A6.973,6.973,0,0,0,17.669.886C17.073.532,16.24.3,15.743.779c-.248.242-.428.66-.774.631-.2-.018-.351-.2-.5-.338C13.7.347,12.5.459,11.454.619a1.33,1.33,0,0,0-.56.174c-.447.3-.361.967-.387,1.507a.445.445,0,0,1-.088.286.486.486,0,0,1-.265.117l-2.01.43a1.372,1.372,0,0,0-.67.275c-.375.347-.252.964-.048,1.432,1.045,2.405,3.376,4.051,4.5,6.422a3.083,3.083,0,0,0,.528.9,2.624,2.624,0,0,0,2.17.592c.615-.19.687-.928.894-1.466a21.562,21.562,0,0,1,4.163-6.746" transform="translate(-4.19 -0.29)" fill="#fff"/>
        <path id="Path_8696-4" data-name="Path 8696" d="M19.675,4.541a1.433,1.433,0,0,0,.48-.858,1.259,1.259,0,0,0-.273-.707A6.973,6.973,0,0,0,17.669.886C17.073.532,16.24.3,15.743.779c-.248.242-.428.66-.774.631-.2-.018-.351-.2-.5-.338C13.7.347,12.5.459,11.454.619a1.33,1.33,0,0,0-.56.174c-.447.3-.361.967-.387,1.507a.445.445,0,0,1-.088.286.486.486,0,0,1-.265.117l-2.01.43a1.372,1.372,0,0,0-.67.275c-.375.347-.252.964-.048,1.432,1.045,2.405,3.376,4.051,4.5,6.422a3.083,3.083,0,0,0,.528.9,2.624,2.624,0,0,0,2.17.592c.615-.19.687-.928.894-1.466a21.562,21.562,0,0,1,4.163-6.746Z" transform="translate(-4.19 -0.29)" fill="none" stroke="#000" stroke-width="1"/>
        <path id="Path_8697-4" data-name="Path 8697" d="M15.541,1.738a7.02,7.02,0,0,0,.113,1.126,2.673,2.673,0,0,1-.036,1.125l-.661-1.244a.515.515,0,0,1-.054-.129.5.5,0,0,1,0-.156q.044-.443.088-.887a1.145,1.145,0,0,1,.05-.275.749.749,0,0,1,.216-.3c.114-.1.528-.4.5-.093a2.743,2.743,0,0,1-.148.379,1.925,1.925,0,0,0-.066.457" transform="translate(-8.633 -0.446)" fill="#fff"/>
        <path id="Path_8698-4" data-name="Path 8698" d="M15.541,1.738a7.02,7.02,0,0,0,.113,1.126,2.673,2.673,0,0,1-.036,1.125l-.661-1.244a.515.515,0,0,1-.054-.129.5.5,0,0,1,0-.156q.044-.443.088-.887a1.145,1.145,0,0,1,.05-.275.749.749,0,0,1,.216-.3c.114-.1.528-.4.5-.093a2.743,2.743,0,0,1-.148.379A1.925,1.925,0,0,0,15.541,1.738Z" transform="translate(-8.633 -0.446)" fill="none" stroke="#000" stroke-width="1"/>
        <path id="Path_8699-4" data-name="Path 8699" d="M19.675,4.541a1.433,1.433,0,0,0,.48-.858,1.259,1.259,0,0,0-.273-.707A6.973,6.973,0,0,0,17.669.886C17.073.532,16.24.3,15.743.779c-.248.242-.428.66-.774.631-.2-.018-.351-.2-.5-.338C13.7.347,12.5.459,11.454.619a1.33,1.33,0,0,0-.56.174c-.447.3-.361.967-.387,1.507a.445.445,0,0,1-.088.286.486.486,0,0,1-.265.117l-2.01.43a1.372,1.372,0,0,0-.67.275c-.375.347-.252.964-.048,1.432,1.045,2.405,3.376,4.051,4.5,6.422a3.083,3.083,0,0,0,.528.9,2.624,2.624,0,0,0,2.17.592c.615-.19.687-.928.894-1.466a21.562,21.562,0,0,1,4.163-6.746" transform="translate(-4.19 -0.29)" fill="#e2a327"/>
        <path id="Path_8700-4" data-name="Path 8700" d="M19.675,4.541a1.433,1.433,0,0,0,.48-.858,1.259,1.259,0,0,0-.273-.707A6.973,6.973,0,0,0,17.669.886C17.073.532,16.24.3,15.743.779c-.248.242-.428.66-.774.631-.2-.018-.351-.2-.5-.338C13.7.347,12.5.459,11.454.619a1.33,1.33,0,0,0-.56.174c-.447.3-.361.967-.387,1.507a.445.445,0,0,1-.088.286.486.486,0,0,1-.265.117l-2.01.43a1.372,1.372,0,0,0-.67.275c-.375.347-.252.964-.048,1.432,1.045,2.405,3.376,4.051,4.5,6.422a3.083,3.083,0,0,0,.528.9,2.624,2.624,0,0,0,2.17.592c.615-.19.687-.928.894-1.466a21.562,21.562,0,0,1,4.163-6.746Z" transform="translate(-4.19 -0.29)" fill="none" stroke="#000" stroke-width="1"/>
        <path id="Path_8701-4" data-name="Path 8701" d="M8.84,25.3a6.183,6.183,0,0,0-5.6,5.214,17.773,17.773,0,0,1-.961,4.338c-.362.775-.9,1.455-1.3,2.213a3.216,3.216,0,0,0-.364,2.469c.166.484.516.962.381,1.456-.07.252-.25.554-.063.736a.584.584,0,0,0,.385.1,4.294,4.294,0,0,1,1.258.352,23.77,23.77,0,0,0,7.665,1.707,14.774,14.774,0,0,0,7.614-1.669,2.388,2.388,0,0,1,1.6-.467c.082.018.18.042.238-.018a.225.225,0,0,0,.021-.21q-.566-2.417-1.133-4.835a17.053,17.053,0,0,0-.743-2.561c-.568-1.4-1.5-2.635-1.927-4.079a9.106,9.106,0,0,0-.9-2.746,4.318,4.318,0,0,0-2.26-1.461A10.427,10.427,0,0,0,8.84,25.3" transform="translate(-0.29 -14.654)" fill="#e2a327"/>
        <path id="Path_8702-4" data-name="Path 8702" d="M8.84,25.3a6.183,6.183,0,0,0-5.6,5.214,17.773,17.773,0,0,1-.961,4.338c-.362.775-.9,1.455-1.3,2.213a3.216,3.216,0,0,0-.364,2.469c.166.484.516.962.381,1.456-.07.252-.25.554-.063.736a.584.584,0,0,0,.385.1,4.294,4.294,0,0,1,1.258.352,23.77,23.77,0,0,0,7.665,1.707,14.774,14.774,0,0,0,7.614-1.669,2.388,2.388,0,0,1,1.6-.467c.082.018.18.042.238-.018a.225.225,0,0,0,.021-.21q-.566-2.417-1.133-4.835a17.053,17.053,0,0,0-.743-2.561c-.568-1.4-1.5-2.635-1.927-4.079a9.106,9.106,0,0,0-.9-2.746,4.318,4.318,0,0,0-2.26-1.461A10.427,10.427,0,0,0,8.84,25.3Z" transform="translate(-0.29 -14.654)" fill="none" stroke="#000" stroke-width="1"/>
        <path id="Path_8703-4" data-name="Path 8703" d="M14.811,5.461a5.486,5.486,0,0,1,1.1,2.387c.131,1.2,1.339,3.521,1.149,5.971" transform="translate(-8.583 -3.165)" fill="#fff"/>
        <path id="Path_8704-4" data-name="Path 8704" d="M14.811,5.461a5.486,5.486,0,0,1,1.1,2.387c.131,1.2,1.339,3.521,1.149,5.971" transform="translate(-8.583 -3.165)" fill="none" stroke="#000" stroke-width="1"/>
        <path id="Path_8705-4" data-name="Path 8705" d="M25.557,2.569s1.221,3.513.378,5.4a17.956,17.956,0,0,0-.788,4.156" transform="translate(-14.573 -1.489)" fill="#fff"/>
        <path id="Path_8706-4" data-name="Path 8706" d="M25.557,2.569s1.221,3.513.378,5.4a17.956,17.956,0,0,0-.788,4.156" transform="translate(-14.573 -1.489)" fill="none" stroke="#000" stroke-width="1"/>
        <path id="Path_8707-4" data-name="Path 8707" d="M21.69,40.967h0l0-.012-1.687-.018a2.585,2.585,0,0,0-.673-1.4l2.261.025a.4.4,0,0,0,.036-.8L15.292,38.7a.4.4,0,0,0-.39.407.4.4,0,0,0,.383.39l2.185.024a1.784,1.784,0,0,1,1.724,1.407l-3.927-.043a.4.4,0,0,0-.006.8l3.923.042a1.781,1.781,0,0,1-1.754,1.369l-2.185-.024a.4.4,0,0,0-.289.679l4.325,4.42a.4.4,0,0,0,.563-.026.4.4,0,0,0,0-.534L16.2,43.877l1.222.013A2.587,2.587,0,0,0,20,41.735l1.573.017a.4.4,0,0,0,.312-.668.4.4,0,0,0-.191-.116" transform="translate(-8.602 -22.428)"/>
      </g>
    </g>
    <g id="Group_2017-5" data-name="Group 2017" transform="translate(208 0)">
      <g id="Group_2016-5" data-name="Group 2016" transform="translate(0 0)" clip-path="url(#clip-path-2)">
        <path id="Path_8695-5" data-name="Path 8695" d="M19.675,4.541a1.433,1.433,0,0,0,.48-.858,1.259,1.259,0,0,0-.273-.707A6.973,6.973,0,0,0,17.669.886C17.073.532,16.24.3,15.743.779c-.248.242-.428.66-.774.631-.2-.018-.351-.2-.5-.338C13.7.347,12.5.459,11.454.619a1.33,1.33,0,0,0-.56.174c-.447.3-.361.967-.387,1.507a.445.445,0,0,1-.088.286.486.486,0,0,1-.265.117l-2.01.43a1.372,1.372,0,0,0-.67.275c-.375.347-.252.964-.048,1.432,1.045,2.405,3.376,4.051,4.5,6.422a3.083,3.083,0,0,0,.528.9,2.624,2.624,0,0,0,2.17.592c.615-.19.687-.928.894-1.466a21.562,21.562,0,0,1,4.163-6.746" transform="translate(-4.19 -0.29)" fill="#fff"/>
        <path id="Path_8696-5" data-name="Path 8696" d="M19.675,4.541a1.433,1.433,0,0,0,.48-.858,1.259,1.259,0,0,0-.273-.707A6.973,6.973,0,0,0,17.669.886C17.073.532,16.24.3,15.743.779c-.248.242-.428.66-.774.631-.2-.018-.351-.2-.5-.338C13.7.347,12.5.459,11.454.619a1.33,1.33,0,0,0-.56.174c-.447.3-.361.967-.387,1.507a.445.445,0,0,1-.088.286.486.486,0,0,1-.265.117l-2.01.43a1.372,1.372,0,0,0-.67.275c-.375.347-.252.964-.048,1.432,1.045,2.405,3.376,4.051,4.5,6.422a3.083,3.083,0,0,0,.528.9,2.624,2.624,0,0,0,2.17.592c.615-.19.687-.928.894-1.466a21.562,21.562,0,0,1,4.163-6.746Z" transform="translate(-4.19 -0.29)" fill="none" stroke="#000" stroke-width="1"/>
        <path id="Path_8697-5" data-name="Path 8697" d="M15.541,1.738a7.02,7.02,0,0,0,.113,1.126,2.673,2.673,0,0,1-.036,1.125l-.661-1.244a.515.515,0,0,1-.054-.129.5.5,0,0,1,0-.156q.044-.443.088-.887a1.145,1.145,0,0,1,.05-.275.749.749,0,0,1,.216-.3c.114-.1.528-.4.5-.093a2.743,2.743,0,0,1-.148.379,1.925,1.925,0,0,0-.066.457" transform="translate(-8.633 -0.446)" fill="#fff"/>
        <path id="Path_8698-5" data-name="Path 8698" d="M15.541,1.738a7.02,7.02,0,0,0,.113,1.126,2.673,2.673,0,0,1-.036,1.125l-.661-1.244a.515.515,0,0,1-.054-.129.5.5,0,0,1,0-.156q.044-.443.088-.887a1.145,1.145,0,0,1,.05-.275.749.749,0,0,1,.216-.3c.114-.1.528-.4.5-.093a2.743,2.743,0,0,1-.148.379A1.925,1.925,0,0,0,15.541,1.738Z" transform="translate(-8.633 -0.446)" fill="none" stroke="#000" stroke-width="1"/>
        <path id="Path_8699-5" data-name="Path 8699" d="M19.675,4.541a1.433,1.433,0,0,0,.48-.858,1.259,1.259,0,0,0-.273-.707A6.973,6.973,0,0,0,17.669.886C17.073.532,16.24.3,15.743.779c-.248.242-.428.66-.774.631-.2-.018-.351-.2-.5-.338C13.7.347,12.5.459,11.454.619a1.33,1.33,0,0,0-.56.174c-.447.3-.361.967-.387,1.507a.445.445,0,0,1-.088.286.486.486,0,0,1-.265.117l-2.01.43a1.372,1.372,0,0,0-.67.275c-.375.347-.252.964-.048,1.432,1.045,2.405,3.376,4.051,4.5,6.422a3.083,3.083,0,0,0,.528.9,2.624,2.624,0,0,0,2.17.592c.615-.19.687-.928.894-1.466a21.562,21.562,0,0,1,4.163-6.746" transform="translate(-4.19 -0.29)" fill="#e2a327"/>
        <path id="Path_8700-5" data-name="Path 8700" d="M19.675,4.541a1.433,1.433,0,0,0,.48-.858,1.259,1.259,0,0,0-.273-.707A6.973,6.973,0,0,0,17.669.886C17.073.532,16.24.3,15.743.779c-.248.242-.428.66-.774.631-.2-.018-.351-.2-.5-.338C13.7.347,12.5.459,11.454.619a1.33,1.33,0,0,0-.56.174c-.447.3-.361.967-.387,1.507a.445.445,0,0,1-.088.286.486.486,0,0,1-.265.117l-2.01.43a1.372,1.372,0,0,0-.67.275c-.375.347-.252.964-.048,1.432,1.045,2.405,3.376,4.051,4.5,6.422a3.083,3.083,0,0,0,.528.9,2.624,2.624,0,0,0,2.17.592c.615-.19.687-.928.894-1.466a21.562,21.562,0,0,1,4.163-6.746Z" transform="translate(-4.19 -0.29)" fill="none" stroke="#000" stroke-width="1"/>
        <path id="Path_8701-5" data-name="Path 8701" d="M8.84,25.3a6.183,6.183,0,0,0-5.6,5.214,17.773,17.773,0,0,1-.961,4.338c-.362.775-.9,1.455-1.3,2.213a3.216,3.216,0,0,0-.364,2.469c.166.484.516.962.381,1.456-.07.252-.25.554-.063.736a.584.584,0,0,0,.385.1,4.294,4.294,0,0,1,1.258.352,23.77,23.77,0,0,0,7.665,1.707,14.774,14.774,0,0,0,7.614-1.669,2.388,2.388,0,0,1,1.6-.467c.082.018.18.042.238-.018a.225.225,0,0,0,.021-.21q-.566-2.417-1.133-4.835a17.053,17.053,0,0,0-.743-2.561c-.568-1.4-1.5-2.635-1.927-4.079a9.106,9.106,0,0,0-.9-2.746,4.318,4.318,0,0,0-2.26-1.461A10.427,10.427,0,0,0,8.84,25.3" transform="translate(-0.29 -14.654)" fill="#e2a327"/>
        <path id="Path_8702-5" data-name="Path 8702" d="M8.84,25.3a6.183,6.183,0,0,0-5.6,5.214,17.773,17.773,0,0,1-.961,4.338c-.362.775-.9,1.455-1.3,2.213a3.216,3.216,0,0,0-.364,2.469c.166.484.516.962.381,1.456-.07.252-.25.554-.063.736a.584.584,0,0,0,.385.1,4.294,4.294,0,0,1,1.258.352,23.77,23.77,0,0,0,7.665,1.707,14.774,14.774,0,0,0,7.614-1.669,2.388,2.388,0,0,1,1.6-.467c.082.018.18.042.238-.018a.225.225,0,0,0,.021-.21q-.566-2.417-1.133-4.835a17.053,17.053,0,0,0-.743-2.561c-.568-1.4-1.5-2.635-1.927-4.079a9.106,9.106,0,0,0-.9-2.746,4.318,4.318,0,0,0-2.26-1.461A10.427,10.427,0,0,0,8.84,25.3Z" transform="translate(-0.29 -14.654)" fill="none" stroke="#000" stroke-width="1"/>
        <path id="Path_8703-5" data-name="Path 8703" d="M14.811,5.461a5.486,5.486,0,0,1,1.1,2.387c.131,1.2,1.339,3.521,1.149,5.971" transform="translate(-8.583 -3.165)" fill="#fff"/>
        <path id="Path_8704-5" data-name="Path 8704" d="M14.811,5.461a5.486,5.486,0,0,1,1.1,2.387c.131,1.2,1.339,3.521,1.149,5.971" transform="translate(-8.583 -3.165)" fill="none" stroke="#000" stroke-width="1"/>
        <path id="Path_8705-5" data-name="Path 8705" d="M25.557,2.569s1.221,3.513.378,5.4a17.956,17.956,0,0,0-.788,4.156" transform="translate(-14.573 -1.489)" fill="#fff"/>
        <path id="Path_8706-5" data-name="Path 8706" d="M25.557,2.569s1.221,3.513.378,5.4a17.956,17.956,0,0,0-.788,4.156" transform="translate(-14.573 -1.489)" fill="none" stroke="#000" stroke-width="1"/>
        <path id="Path_8707-5" data-name="Path 8707" d="M21.69,40.967h0l0-.012-1.687-.018a2.585,2.585,0,0,0-.673-1.4l2.261.025a.4.4,0,0,0,.036-.8L15.292,38.7a.4.4,0,0,0-.39.407.4.4,0,0,0,.383.39l2.185.024a1.784,1.784,0,0,1,1.724,1.407l-3.927-.043a.4.4,0,0,0-.006.8l3.923.042a1.781,1.781,0,0,1-1.754,1.369l-2.185-.024a.4.4,0,0,0-.289.679l4.325,4.42a.4.4,0,0,0,.563-.026.4.4,0,0,0,0-.534L16.2,43.877l1.222.013A2.587,2.587,0,0,0,20,41.735l1.573.017a.4.4,0,0,0,.312-.668.4.4,0,0,0-.191-.116" transform="translate(-8.602 -22.428)"/>
      </g>
    </g>
    <g id="Group_2017-6" data-name="Group 2017" transform="translate(260 0)">
      <g id="Group_2016-6" data-name="Group 2016" transform="translate(0 0)" clip-path="url(#clip-path-2)">
        <path id="Path_8695-6" data-name="Path 8695" d="M19.675,4.541a1.433,1.433,0,0,0,.48-.858,1.259,1.259,0,0,0-.273-.707A6.973,6.973,0,0,0,17.669.886C17.073.532,16.24.3,15.743.779c-.248.242-.428.66-.774.631-.2-.018-.351-.2-.5-.338C13.7.347,12.5.459,11.454.619a1.33,1.33,0,0,0-.56.174c-.447.3-.361.967-.387,1.507a.445.445,0,0,1-.088.286.486.486,0,0,1-.265.117l-2.01.43a1.372,1.372,0,0,0-.67.275c-.375.347-.252.964-.048,1.432,1.045,2.405,3.376,4.051,4.5,6.422a3.083,3.083,0,0,0,.528.9,2.624,2.624,0,0,0,2.17.592c.615-.19.687-.928.894-1.466a21.562,21.562,0,0,1,4.163-6.746" transform="translate(-4.19 -0.29)" fill="#fff"/>
        <path id="Path_8696-6" data-name="Path 8696" d="M19.675,4.541a1.433,1.433,0,0,0,.48-.858,1.259,1.259,0,0,0-.273-.707A6.973,6.973,0,0,0,17.669.886C17.073.532,16.24.3,15.743.779c-.248.242-.428.66-.774.631-.2-.018-.351-.2-.5-.338C13.7.347,12.5.459,11.454.619a1.33,1.33,0,0,0-.56.174c-.447.3-.361.967-.387,1.507a.445.445,0,0,1-.088.286.486.486,0,0,1-.265.117l-2.01.43a1.372,1.372,0,0,0-.67.275c-.375.347-.252.964-.048,1.432,1.045,2.405,3.376,4.051,4.5,6.422a3.083,3.083,0,0,0,.528.9,2.624,2.624,0,0,0,2.17.592c.615-.19.687-.928.894-1.466a21.562,21.562,0,0,1,4.163-6.746Z" transform="translate(-4.19 -0.29)" fill="none" stroke="#000" stroke-width="1"/>
        <path id="Path_8697-6" data-name="Path 8697" d="M15.541,1.738a7.02,7.02,0,0,0,.113,1.126,2.673,2.673,0,0,1-.036,1.125l-.661-1.244a.515.515,0,0,1-.054-.129.5.5,0,0,1,0-.156q.044-.443.088-.887a1.145,1.145,0,0,1,.05-.275.749.749,0,0,1,.216-.3c.114-.1.528-.4.5-.093a2.743,2.743,0,0,1-.148.379,1.925,1.925,0,0,0-.066.457" transform="translate(-8.633 -0.446)" fill="#fff"/>
        <path id="Path_8698-6" data-name="Path 8698" d="M15.541,1.738a7.02,7.02,0,0,0,.113,1.126,2.673,2.673,0,0,1-.036,1.125l-.661-1.244a.515.515,0,0,1-.054-.129.5.5,0,0,1,0-.156q.044-.443.088-.887a1.145,1.145,0,0,1,.05-.275.749.749,0,0,1,.216-.3c.114-.1.528-.4.5-.093a2.743,2.743,0,0,1-.148.379A1.925,1.925,0,0,0,15.541,1.738Z" transform="translate(-8.633 -0.446)" fill="none" stroke="#000" stroke-width="1"/>
        <path id="Path_8699-6" data-name="Path 8699" d="M19.675,4.541a1.433,1.433,0,0,0,.48-.858,1.259,1.259,0,0,0-.273-.707A6.973,6.973,0,0,0,17.669.886C17.073.532,16.24.3,15.743.779c-.248.242-.428.66-.774.631-.2-.018-.351-.2-.5-.338C13.7.347,12.5.459,11.454.619a1.33,1.33,0,0,0-.56.174c-.447.3-.361.967-.387,1.507a.445.445,0,0,1-.088.286.486.486,0,0,1-.265.117l-2.01.43a1.372,1.372,0,0,0-.67.275c-.375.347-.252.964-.048,1.432,1.045,2.405,3.376,4.051,4.5,6.422a3.083,3.083,0,0,0,.528.9,2.624,2.624,0,0,0,2.17.592c.615-.19.687-.928.894-1.466a21.562,21.562,0,0,1,4.163-6.746" transform="translate(-4.19 -0.29)" fill="#e2a327"/>
        <path id="Path_8700-6" data-name="Path 8700" d="M19.675,4.541a1.433,1.433,0,0,0,.48-.858,1.259,1.259,0,0,0-.273-.707A6.973,6.973,0,0,0,17.669.886C17.073.532,16.24.3,15.743.779c-.248.242-.428.66-.774.631-.2-.018-.351-.2-.5-.338C13.7.347,12.5.459,11.454.619a1.33,1.33,0,0,0-.56.174c-.447.3-.361.967-.387,1.507a.445.445,0,0,1-.088.286.486.486,0,0,1-.265.117l-2.01.43a1.372,1.372,0,0,0-.67.275c-.375.347-.252.964-.048,1.432,1.045,2.405,3.376,4.051,4.5,6.422a3.083,3.083,0,0,0,.528.9,2.624,2.624,0,0,0,2.17.592c.615-.19.687-.928.894-1.466a21.562,21.562,0,0,1,4.163-6.746Z" transform="translate(-4.19 -0.29)" fill="none" stroke="#000" stroke-width="1"/>
        <path id="Path_8701-6" data-name="Path 8701" d="M8.84,25.3a6.183,6.183,0,0,0-5.6,5.214,17.773,17.773,0,0,1-.961,4.338c-.362.775-.9,1.455-1.3,2.213a3.216,3.216,0,0,0-.364,2.469c.166.484.516.962.381,1.456-.07.252-.25.554-.063.736a.584.584,0,0,0,.385.1,4.294,4.294,0,0,1,1.258.352,23.77,23.77,0,0,0,7.665,1.707,14.774,14.774,0,0,0,7.614-1.669,2.388,2.388,0,0,1,1.6-.467c.082.018.18.042.238-.018a.225.225,0,0,0,.021-.21q-.566-2.417-1.133-4.835a17.053,17.053,0,0,0-.743-2.561c-.568-1.4-1.5-2.635-1.927-4.079a9.106,9.106,0,0,0-.9-2.746,4.318,4.318,0,0,0-2.26-1.461A10.427,10.427,0,0,0,8.84,25.3" transform="translate(-0.29 -14.654)" fill="#e2a327"/>
        <path id="Path_8702-6" data-name="Path 8702" d="M8.84,25.3a6.183,6.183,0,0,0-5.6,5.214,17.773,17.773,0,0,1-.961,4.338c-.362.775-.9,1.455-1.3,2.213a3.216,3.216,0,0,0-.364,2.469c.166.484.516.962.381,1.456-.07.252-.25.554-.063.736a.584.584,0,0,0,.385.1,4.294,4.294,0,0,1,1.258.352,23.77,23.77,0,0,0,7.665,1.707,14.774,14.774,0,0,0,7.614-1.669,2.388,2.388,0,0,1,1.6-.467c.082.018.18.042.238-.018a.225.225,0,0,0,.021-.21q-.566-2.417-1.133-4.835a17.053,17.053,0,0,0-.743-2.561c-.568-1.4-1.5-2.635-1.927-4.079a9.106,9.106,0,0,0-.9-2.746,4.318,4.318,0,0,0-2.26-1.461A10.427,10.427,0,0,0,8.84,25.3Z" transform="translate(-0.29 -14.654)" fill="none" stroke="#000" stroke-width="1"/>
        <path id="Path_8703-6" data-name="Path 8703" d="M14.811,5.461a5.486,5.486,0,0,1,1.1,2.387c.131,1.2,1.339,3.521,1.149,5.971" transform="translate(-8.583 -3.165)" fill="#fff"/>
        <path id="Path_8704-6" data-name="Path 8704" d="M14.811,5.461a5.486,5.486,0,0,1,1.1,2.387c.131,1.2,1.339,3.521,1.149,5.971" transform="translate(-8.583 -3.165)" fill="none" stroke="#000" stroke-width="1"/>
        <path id="Path_8705-6" data-name="Path 8705" d="M25.557,2.569s1.221,3.513.378,5.4a17.956,17.956,0,0,0-.788,4.156" transform="translate(-14.573 -1.489)" fill="#fff"/>
        <path id="Path_8706-6" data-name="Path 8706" d="M25.557,2.569s1.221,3.513.378,5.4a17.956,17.956,0,0,0-.788,4.156" transform="translate(-14.573 -1.489)" fill="none" stroke="#000" stroke-width="1"/>
        <path id="Path_8707-6" data-name="Path 8707" d="M21.69,40.967h0l0-.012-1.687-.018a2.585,2.585,0,0,0-.673-1.4l2.261.025a.4.4,0,0,0,.036-.8L15.292,38.7a.4.4,0,0,0-.39.407.4.4,0,0,0,.383.39l2.185.024a1.784,1.784,0,0,1,1.724,1.407l-3.927-.043a.4.4,0,0,0-.006.8l3.923.042a1.781,1.781,0,0,1-1.754,1.369l-2.185-.024a.4.4,0,0,0-.289.679l4.325,4.42a.4.4,0,0,0,.563-.026.4.4,0,0,0,0-.534L16.2,43.877l1.222.013A2.587,2.587,0,0,0,20,41.735l1.573.017a.4.4,0,0,0,.312-.668.4.4,0,0,0-.191-.116" transform="translate(-8.602 -22.428)"/>
      </g>
    </g>
    <g id="Group_2017-7" data-name="Group 2017" transform="translate(312 0)">
      <g id="Group_2016-7" data-name="Group 2016" transform="translate(0 0)" clip-path="url(#clip-path-2)">
        <path id="Path_8695-7" data-name="Path 8695" d="M19.675,4.541a1.433,1.433,0,0,0,.48-.858,1.259,1.259,0,0,0-.273-.707A6.973,6.973,0,0,0,17.669.886C17.073.532,16.24.3,15.743.779c-.248.242-.428.66-.774.631-.2-.018-.351-.2-.5-.338C13.7.347,12.5.459,11.454.619a1.33,1.33,0,0,0-.56.174c-.447.3-.361.967-.387,1.507a.445.445,0,0,1-.088.286.486.486,0,0,1-.265.117l-2.01.43a1.372,1.372,0,0,0-.67.275c-.375.347-.252.964-.048,1.432,1.045,2.405,3.376,4.051,4.5,6.422a3.083,3.083,0,0,0,.528.9,2.624,2.624,0,0,0,2.17.592c.615-.19.687-.928.894-1.466a21.562,21.562,0,0,1,4.163-6.746" transform="translate(-4.19 -0.29)" fill="#fff"/>
        <path id="Path_8696-7" data-name="Path 8696" d="M19.675,4.541a1.433,1.433,0,0,0,.48-.858,1.259,1.259,0,0,0-.273-.707A6.973,6.973,0,0,0,17.669.886C17.073.532,16.24.3,15.743.779c-.248.242-.428.66-.774.631-.2-.018-.351-.2-.5-.338C13.7.347,12.5.459,11.454.619a1.33,1.33,0,0,0-.56.174c-.447.3-.361.967-.387,1.507a.445.445,0,0,1-.088.286.486.486,0,0,1-.265.117l-2.01.43a1.372,1.372,0,0,0-.67.275c-.375.347-.252.964-.048,1.432,1.045,2.405,3.376,4.051,4.5,6.422a3.083,3.083,0,0,0,.528.9,2.624,2.624,0,0,0,2.17.592c.615-.19.687-.928.894-1.466a21.562,21.562,0,0,1,4.163-6.746Z" transform="translate(-4.19 -0.29)" fill="none" stroke="#000" stroke-width="1"/>
        <path id="Path_8697-7" data-name="Path 8697" d="M15.541,1.738a7.02,7.02,0,0,0,.113,1.126,2.673,2.673,0,0,1-.036,1.125l-.661-1.244a.515.515,0,0,1-.054-.129.5.5,0,0,1,0-.156q.044-.443.088-.887a1.145,1.145,0,0,1,.05-.275.749.749,0,0,1,.216-.3c.114-.1.528-.4.5-.093a2.743,2.743,0,0,1-.148.379,1.925,1.925,0,0,0-.066.457" transform="translate(-8.633 -0.446)" fill="#fff"/>
        <path id="Path_8698-7" data-name="Path 8698" d="M15.541,1.738a7.02,7.02,0,0,0,.113,1.126,2.673,2.673,0,0,1-.036,1.125l-.661-1.244a.515.515,0,0,1-.054-.129.5.5,0,0,1,0-.156q.044-.443.088-.887a1.145,1.145,0,0,1,.05-.275.749.749,0,0,1,.216-.3c.114-.1.528-.4.5-.093a2.743,2.743,0,0,1-.148.379A1.925,1.925,0,0,0,15.541,1.738Z" transform="translate(-8.633 -0.446)" fill="none" stroke="#000" stroke-width="1"/>
        <path id="Path_8699-7" data-name="Path 8699" d="M19.675,4.541a1.433,1.433,0,0,0,.48-.858,1.259,1.259,0,0,0-.273-.707A6.973,6.973,0,0,0,17.669.886C17.073.532,16.24.3,15.743.779c-.248.242-.428.66-.774.631-.2-.018-.351-.2-.5-.338C13.7.347,12.5.459,11.454.619a1.33,1.33,0,0,0-.56.174c-.447.3-.361.967-.387,1.507a.445.445,0,0,1-.088.286.486.486,0,0,1-.265.117l-2.01.43a1.372,1.372,0,0,0-.67.275c-.375.347-.252.964-.048,1.432,1.045,2.405,3.376,4.051,4.5,6.422a3.083,3.083,0,0,0,.528.9,2.624,2.624,0,0,0,2.17.592c.615-.19.687-.928.894-1.466a21.562,21.562,0,0,1,4.163-6.746" transform="translate(-4.19 -0.29)" fill="#e2a327"/>
        <path id="Path_8700-7" data-name="Path 8700" d="M19.675,4.541a1.433,1.433,0,0,0,.48-.858,1.259,1.259,0,0,0-.273-.707A6.973,6.973,0,0,0,17.669.886C17.073.532,16.24.3,15.743.779c-.248.242-.428.66-.774.631-.2-.018-.351-.2-.5-.338C13.7.347,12.5.459,11.454.619a1.33,1.33,0,0,0-.56.174c-.447.3-.361.967-.387,1.507a.445.445,0,0,1-.088.286.486.486,0,0,1-.265.117l-2.01.43a1.372,1.372,0,0,0-.67.275c-.375.347-.252.964-.048,1.432,1.045,2.405,3.376,4.051,4.5,6.422a3.083,3.083,0,0,0,.528.9,2.624,2.624,0,0,0,2.17.592c.615-.19.687-.928.894-1.466a21.562,21.562,0,0,1,4.163-6.746Z" transform="translate(-4.19 -0.29)" fill="none" stroke="#000" stroke-width="1"/>
        <path id="Path_8701-7" data-name="Path 8701" d="M8.84,25.3a6.183,6.183,0,0,0-5.6,5.214,17.773,17.773,0,0,1-.961,4.338c-.362.775-.9,1.455-1.3,2.213a3.216,3.216,0,0,0-.364,2.469c.166.484.516.962.381,1.456-.07.252-.25.554-.063.736a.584.584,0,0,0,.385.1,4.294,4.294,0,0,1,1.258.352,23.77,23.77,0,0,0,7.665,1.707,14.774,14.774,0,0,0,7.614-1.669,2.388,2.388,0,0,1,1.6-.467c.082.018.18.042.238-.018a.225.225,0,0,0,.021-.21q-.566-2.417-1.133-4.835a17.053,17.053,0,0,0-.743-2.561c-.568-1.4-1.5-2.635-1.927-4.079a9.106,9.106,0,0,0-.9-2.746,4.318,4.318,0,0,0-2.26-1.461A10.427,10.427,0,0,0,8.84,25.3" transform="translate(-0.29 -14.654)" fill="#e2a327"/>
        <path id="Path_8702-7" data-name="Path 8702" d="M8.84,25.3a6.183,6.183,0,0,0-5.6,5.214,17.773,17.773,0,0,1-.961,4.338c-.362.775-.9,1.455-1.3,2.213a3.216,3.216,0,0,0-.364,2.469c.166.484.516.962.381,1.456-.07.252-.25.554-.063.736a.584.584,0,0,0,.385.1,4.294,4.294,0,0,1,1.258.352,23.77,23.77,0,0,0,7.665,1.707,14.774,14.774,0,0,0,7.614-1.669,2.388,2.388,0,0,1,1.6-.467c.082.018.18.042.238-.018a.225.225,0,0,0,.021-.21q-.566-2.417-1.133-4.835a17.053,17.053,0,0,0-.743-2.561c-.568-1.4-1.5-2.635-1.927-4.079a9.106,9.106,0,0,0-.9-2.746,4.318,4.318,0,0,0-2.26-1.461A10.427,10.427,0,0,0,8.84,25.3Z" transform="translate(-0.29 -14.654)" fill="none" stroke="#000" stroke-width="1"/>
        <path id="Path_8703-7" data-name="Path 8703" d="M14.811,5.461a5.486,5.486,0,0,1,1.1,2.387c.131,1.2,1.339,3.521,1.149,5.971" transform="translate(-8.583 -3.165)" fill="#fff"/>
        <path id="Path_8704-7" data-name="Path 8704" d="M14.811,5.461a5.486,5.486,0,0,1,1.1,2.387c.131,1.2,1.339,3.521,1.149,5.971" transform="translate(-8.583 -3.165)" fill="none" stroke="#000" stroke-width="1"/>
        <path id="Path_8705-7" data-name="Path 8705" d="M25.557,2.569s1.221,3.513.378,5.4a17.956,17.956,0,0,0-.788,4.156" transform="translate(-14.573 -1.489)" fill="#fff"/>
        <path id="Path_8706-7" data-name="Path 8706" d="M25.557,2.569s1.221,3.513.378,5.4a17.956,17.956,0,0,0-.788,4.156" transform="translate(-14.573 -1.489)" fill="none" stroke="#000" stroke-width="1"/>
        <path id="Path_8707-7" data-name="Path 8707" d="M21.69,40.967h0l0-.012-1.687-.018a2.585,2.585,0,0,0-.673-1.4l2.261.025a.4.4,0,0,0,.036-.8L15.292,38.7a.4.4,0,0,0-.39.407.4.4,0,0,0,.383.39l2.185.024a1.784,1.784,0,0,1,1.724,1.407l-3.927-.043a.4.4,0,0,0-.006.8l3.923.042a1.781,1.781,0,0,1-1.754,1.369l-2.185-.024a.4.4,0,0,0-.289.679l4.325,4.42a.4.4,0,0,0,.563-.026.4.4,0,0,0,0-.534L16.2,43.877l1.222.013A2.587,2.587,0,0,0,20,41.735l1.573.017a.4.4,0,0,0,.312-.668.4.4,0,0,0-.191-.116" transform="translate(-8.602 -22.428)"/>
      </g>
    </g>
    <g id="Group_2017-8" data-name="Group 2017" transform="translate(364 0)">
      <g id="Group_2016-8" data-name="Group 2016" transform="translate(0 0)" clip-path="url(#clip-path-2)">
        <path id="Path_8695-8" data-name="Path 8695" d="M19.675,4.541a1.433,1.433,0,0,0,.48-.858,1.259,1.259,0,0,0-.273-.707A6.973,6.973,0,0,0,17.669.886C17.073.532,16.24.3,15.743.779c-.248.242-.428.66-.774.631-.2-.018-.351-.2-.5-.338C13.7.347,12.5.459,11.454.619a1.33,1.33,0,0,0-.56.174c-.447.3-.361.967-.387,1.507a.445.445,0,0,1-.088.286.486.486,0,0,1-.265.117l-2.01.43a1.372,1.372,0,0,0-.67.275c-.375.347-.252.964-.048,1.432,1.045,2.405,3.376,4.051,4.5,6.422a3.083,3.083,0,0,0,.528.9,2.624,2.624,0,0,0,2.17.592c.615-.19.687-.928.894-1.466a21.562,21.562,0,0,1,4.163-6.746" transform="translate(-4.19 -0.29)" fill="#fff"/>
        <path id="Path_8696-8" data-name="Path 8696" d="M19.675,4.541a1.433,1.433,0,0,0,.48-.858,1.259,1.259,0,0,0-.273-.707A6.973,6.973,0,0,0,17.669.886C17.073.532,16.24.3,15.743.779c-.248.242-.428.66-.774.631-.2-.018-.351-.2-.5-.338C13.7.347,12.5.459,11.454.619a1.33,1.33,0,0,0-.56.174c-.447.3-.361.967-.387,1.507a.445.445,0,0,1-.088.286.486.486,0,0,1-.265.117l-2.01.43a1.372,1.372,0,0,0-.67.275c-.375.347-.252.964-.048,1.432,1.045,2.405,3.376,4.051,4.5,6.422a3.083,3.083,0,0,0,.528.9,2.624,2.624,0,0,0,2.17.592c.615-.19.687-.928.894-1.466a21.562,21.562,0,0,1,4.163-6.746Z" transform="translate(-4.19 -0.29)" fill="none" stroke="#000" stroke-width="1"/>
        <path id="Path_8697-8" data-name="Path 8697" d="M15.541,1.738a7.02,7.02,0,0,0,.113,1.126,2.673,2.673,0,0,1-.036,1.125l-.661-1.244a.515.515,0,0,1-.054-.129.5.5,0,0,1,0-.156q.044-.443.088-.887a1.145,1.145,0,0,1,.05-.275.749.749,0,0,1,.216-.3c.114-.1.528-.4.5-.093a2.743,2.743,0,0,1-.148.379,1.925,1.925,0,0,0-.066.457" transform="translate(-8.633 -0.446)" fill="#fff"/>
        <path id="Path_8698-8" data-name="Path 8698" d="M15.541,1.738a7.02,7.02,0,0,0,.113,1.126,2.673,2.673,0,0,1-.036,1.125l-.661-1.244a.515.515,0,0,1-.054-.129.5.5,0,0,1,0-.156q.044-.443.088-.887a1.145,1.145,0,0,1,.05-.275.749.749,0,0,1,.216-.3c.114-.1.528-.4.5-.093a2.743,2.743,0,0,1-.148.379A1.925,1.925,0,0,0,15.541,1.738Z" transform="translate(-8.633 -0.446)" fill="none" stroke="#000" stroke-width="1"/>
        <path id="Path_8699-8" data-name="Path 8699" d="M19.675,4.541a1.433,1.433,0,0,0,.48-.858,1.259,1.259,0,0,0-.273-.707A6.973,6.973,0,0,0,17.669.886C17.073.532,16.24.3,15.743.779c-.248.242-.428.66-.774.631-.2-.018-.351-.2-.5-.338C13.7.347,12.5.459,11.454.619a1.33,1.33,0,0,0-.56.174c-.447.3-.361.967-.387,1.507a.445.445,0,0,1-.088.286.486.486,0,0,1-.265.117l-2.01.43a1.372,1.372,0,0,0-.67.275c-.375.347-.252.964-.048,1.432,1.045,2.405,3.376,4.051,4.5,6.422a3.083,3.083,0,0,0,.528.9,2.624,2.624,0,0,0,2.17.592c.615-.19.687-.928.894-1.466a21.562,21.562,0,0,1,4.163-6.746" transform="translate(-4.19 -0.29)" fill="#e2a327"/>
        <path id="Path_8700-8" data-name="Path 8700" d="M19.675,4.541a1.433,1.433,0,0,0,.48-.858,1.259,1.259,0,0,0-.273-.707A6.973,6.973,0,0,0,17.669.886C17.073.532,16.24.3,15.743.779c-.248.242-.428.66-.774.631-.2-.018-.351-.2-.5-.338C13.7.347,12.5.459,11.454.619a1.33,1.33,0,0,0-.56.174c-.447.3-.361.967-.387,1.507a.445.445,0,0,1-.088.286.486.486,0,0,1-.265.117l-2.01.43a1.372,1.372,0,0,0-.67.275c-.375.347-.252.964-.048,1.432,1.045,2.405,3.376,4.051,4.5,6.422a3.083,3.083,0,0,0,.528.9,2.624,2.624,0,0,0,2.17.592c.615-.19.687-.928.894-1.466a21.562,21.562,0,0,1,4.163-6.746Z" transform="translate(-4.19 -0.29)" fill="none" stroke="#000" stroke-width="1"/>
        <path id="Path_8701-8" data-name="Path 8701" d="M8.84,25.3a6.183,6.183,0,0,0-5.6,5.214,17.773,17.773,0,0,1-.961,4.338c-.362.775-.9,1.455-1.3,2.213a3.216,3.216,0,0,0-.364,2.469c.166.484.516.962.381,1.456-.07.252-.25.554-.063.736a.584.584,0,0,0,.385.1,4.294,4.294,0,0,1,1.258.352,23.77,23.77,0,0,0,7.665,1.707,14.774,14.774,0,0,0,7.614-1.669,2.388,2.388,0,0,1,1.6-.467c.082.018.18.042.238-.018a.225.225,0,0,0,.021-.21q-.566-2.417-1.133-4.835a17.053,17.053,0,0,0-.743-2.561c-.568-1.4-1.5-2.635-1.927-4.079a9.106,9.106,0,0,0-.9-2.746,4.318,4.318,0,0,0-2.26-1.461A10.427,10.427,0,0,0,8.84,25.3" transform="translate(-0.29 -14.654)" fill="#e2a327"/>
        <path id="Path_8702-8" data-name="Path 8702" d="M8.84,25.3a6.183,6.183,0,0,0-5.6,5.214,17.773,17.773,0,0,1-.961,4.338c-.362.775-.9,1.455-1.3,2.213a3.216,3.216,0,0,0-.364,2.469c.166.484.516.962.381,1.456-.07.252-.25.554-.063.736a.584.584,0,0,0,.385.1,4.294,4.294,0,0,1,1.258.352,23.77,23.77,0,0,0,7.665,1.707,14.774,14.774,0,0,0,7.614-1.669,2.388,2.388,0,0,1,1.6-.467c.082.018.18.042.238-.018a.225.225,0,0,0,.021-.21q-.566-2.417-1.133-4.835a17.053,17.053,0,0,0-.743-2.561c-.568-1.4-1.5-2.635-1.927-4.079a9.106,9.106,0,0,0-.9-2.746,4.318,4.318,0,0,0-2.26-1.461A10.427,10.427,0,0,0,8.84,25.3Z" transform="translate(-0.29 -14.654)" fill="none" stroke="#000" stroke-width="1"/>
        <path id="Path_8703-8" data-name="Path 8703" d="M14.811,5.461a5.486,5.486,0,0,1,1.1,2.387c.131,1.2,1.339,3.521,1.149,5.971" transform="translate(-8.583 -3.165)" fill="#fff"/>
        <path id="Path_8704-8" data-name="Path 8704" d="M14.811,5.461a5.486,5.486,0,0,1,1.1,2.387c.131,1.2,1.339,3.521,1.149,5.971" transform="translate(-8.583 -3.165)" fill="none" stroke="#000" stroke-width="1"/>
        <path id="Path_8705-8" data-name="Path 8705" d="M25.557,2.569s1.221,3.513.378,5.4a17.956,17.956,0,0,0-.788,4.156" transform="translate(-14.573 -1.489)" fill="#fff"/>
        <path id="Path_8706-8" data-name="Path 8706" d="M25.557,2.569s1.221,3.513.378,5.4a17.956,17.956,0,0,0-.788,4.156" transform="translate(-14.573 -1.489)" fill="none" stroke="#000" stroke-width="1"/>
        <path id="Path_8707-8" data-name="Path 8707" d="M21.69,40.967h0l0-.012-1.687-.018a2.585,2.585,0,0,0-.673-1.4l2.261.025a.4.4,0,0,0,.036-.8L15.292,38.7a.4.4,0,0,0-.39.407.4.4,0,0,0,.383.39l2.185.024a1.784,1.784,0,0,1,1.724,1.407l-3.927-.043a.4.4,0,0,0-.006.8l3.923.042a1.781,1.781,0,0,1-1.754,1.369l-2.185-.024a.4.4,0,0,0-.289.679l4.325,4.42a.4.4,0,0,0,.563-.026.4.4,0,0,0,0-.534L16.2,43.877l1.222.013A2.587,2.587,0,0,0,20,41.735l1.573.017a.4.4,0,0,0,.312-.668.4.4,0,0,0-.191-.116" transform="translate(-8.602 -22.428)"/>
      </g>
    </g>
    <g id="Group_2017-9" data-name="Group 2017" transform="translate(416 0)">
      <g id="Group_2016-9" data-name="Group 2016" transform="translate(0 0)" clip-path="url(#clip-path-2)">
        <path id="Path_8695-9" data-name="Path 8695" d="M19.675,4.541a1.433,1.433,0,0,0,.48-.858,1.259,1.259,0,0,0-.273-.707A6.973,6.973,0,0,0,17.669.886C17.073.532,16.24.3,15.743.779c-.248.242-.428.66-.774.631-.2-.018-.351-.2-.5-.338C13.7.347,12.5.459,11.454.619a1.33,1.33,0,0,0-.56.174c-.447.3-.361.967-.387,1.507a.445.445,0,0,1-.088.286.486.486,0,0,1-.265.117l-2.01.43a1.372,1.372,0,0,0-.67.275c-.375.347-.252.964-.048,1.432,1.045,2.405,3.376,4.051,4.5,6.422a3.083,3.083,0,0,0,.528.9,2.624,2.624,0,0,0,2.17.592c.615-.19.687-.928.894-1.466a21.562,21.562,0,0,1,4.163-6.746" transform="translate(-4.19 -0.29)" fill="#fff"/>
        <path id="Path_8696-9" data-name="Path 8696" d="M19.675,4.541a1.433,1.433,0,0,0,.48-.858,1.259,1.259,0,0,0-.273-.707A6.973,6.973,0,0,0,17.669.886C17.073.532,16.24.3,15.743.779c-.248.242-.428.66-.774.631-.2-.018-.351-.2-.5-.338C13.7.347,12.5.459,11.454.619a1.33,1.33,0,0,0-.56.174c-.447.3-.361.967-.387,1.507a.445.445,0,0,1-.088.286.486.486,0,0,1-.265.117l-2.01.43a1.372,1.372,0,0,0-.67.275c-.375.347-.252.964-.048,1.432,1.045,2.405,3.376,4.051,4.5,6.422a3.083,3.083,0,0,0,.528.9,2.624,2.624,0,0,0,2.17.592c.615-.19.687-.928.894-1.466a21.562,21.562,0,0,1,4.163-6.746Z" transform="translate(-4.19 -0.29)" fill="none" stroke="#000" stroke-width="1"/>
        <path id="Path_8697-9" data-name="Path 8697" d="M15.541,1.738a7.02,7.02,0,0,0,.113,1.126,2.673,2.673,0,0,1-.036,1.125l-.661-1.244a.515.515,0,0,1-.054-.129.5.5,0,0,1,0-.156q.044-.443.088-.887a1.145,1.145,0,0,1,.05-.275.749.749,0,0,1,.216-.3c.114-.1.528-.4.5-.093a2.743,2.743,0,0,1-.148.379,1.925,1.925,0,0,0-.066.457" transform="translate(-8.633 -0.446)" fill="#fff"/>
        <path id="Path_8698-9" data-name="Path 8698" d="M15.541,1.738a7.02,7.02,0,0,0,.113,1.126,2.673,2.673,0,0,1-.036,1.125l-.661-1.244a.515.515,0,0,1-.054-.129.5.5,0,0,1,0-.156q.044-.443.088-.887a1.145,1.145,0,0,1,.05-.275.749.749,0,0,1,.216-.3c.114-.1.528-.4.5-.093a2.743,2.743,0,0,1-.148.379A1.925,1.925,0,0,0,15.541,1.738Z" transform="translate(-8.633 -0.446)" fill="none" stroke="#000" stroke-width="1"/>
        <path id="Path_8699-9" data-name="Path 8699" d="M19.675,4.541a1.433,1.433,0,0,0,.48-.858,1.259,1.259,0,0,0-.273-.707A6.973,6.973,0,0,0,17.669.886C17.073.532,16.24.3,15.743.779c-.248.242-.428.66-.774.631-.2-.018-.351-.2-.5-.338C13.7.347,12.5.459,11.454.619a1.33,1.33,0,0,0-.56.174c-.447.3-.361.967-.387,1.507a.445.445,0,0,1-.088.286.486.486,0,0,1-.265.117l-2.01.43a1.372,1.372,0,0,0-.67.275c-.375.347-.252.964-.048,1.432,1.045,2.405,3.376,4.051,4.5,6.422a3.083,3.083,0,0,0,.528.9,2.624,2.624,0,0,0,2.17.592c.615-.19.687-.928.894-1.466a21.562,21.562,0,0,1,4.163-6.746" transform="translate(-4.19 -0.29)" fill="#e2a327"/>
        <path id="Path_8700-9" data-name="Path 8700" d="M19.675,4.541a1.433,1.433,0,0,0,.48-.858,1.259,1.259,0,0,0-.273-.707A6.973,6.973,0,0,0,17.669.886C17.073.532,16.24.3,15.743.779c-.248.242-.428.66-.774.631-.2-.018-.351-.2-.5-.338C13.7.347,12.5.459,11.454.619a1.33,1.33,0,0,0-.56.174c-.447.3-.361.967-.387,1.507a.445.445,0,0,1-.088.286.486.486,0,0,1-.265.117l-2.01.43a1.372,1.372,0,0,0-.67.275c-.375.347-.252.964-.048,1.432,1.045,2.405,3.376,4.051,4.5,6.422a3.083,3.083,0,0,0,.528.9,2.624,2.624,0,0,0,2.17.592c.615-.19.687-.928.894-1.466a21.562,21.562,0,0,1,4.163-6.746Z" transform="translate(-4.19 -0.29)" fill="none" stroke="#000" stroke-width="1"/>
        <path id="Path_8701-9" data-name="Path 8701" d="M8.84,25.3a6.183,6.183,0,0,0-5.6,5.214,17.773,17.773,0,0,1-.961,4.338c-.362.775-.9,1.455-1.3,2.213a3.216,3.216,0,0,0-.364,2.469c.166.484.516.962.381,1.456-.07.252-.25.554-.063.736a.584.584,0,0,0,.385.1,4.294,4.294,0,0,1,1.258.352,23.77,23.77,0,0,0,7.665,1.707,14.774,14.774,0,0,0,7.614-1.669,2.388,2.388,0,0,1,1.6-.467c.082.018.18.042.238-.018a.225.225,0,0,0,.021-.21q-.566-2.417-1.133-4.835a17.053,17.053,0,0,0-.743-2.561c-.568-1.4-1.5-2.635-1.927-4.079a9.106,9.106,0,0,0-.9-2.746,4.318,4.318,0,0,0-2.26-1.461A10.427,10.427,0,0,0,8.84,25.3" transform="translate(-0.29 -14.654)" fill="#e2a327"/>
        <path id="Path_8702-9" data-name="Path 8702" d="M8.84,25.3a6.183,6.183,0,0,0-5.6,5.214,17.773,17.773,0,0,1-.961,4.338c-.362.775-.9,1.455-1.3,2.213a3.216,3.216,0,0,0-.364,2.469c.166.484.516.962.381,1.456-.07.252-.25.554-.063.736a.584.584,0,0,0,.385.1,4.294,4.294,0,0,1,1.258.352,23.77,23.77,0,0,0,7.665,1.707,14.774,14.774,0,0,0,7.614-1.669,2.388,2.388,0,0,1,1.6-.467c.082.018.18.042.238-.018a.225.225,0,0,0,.021-.21q-.566-2.417-1.133-4.835a17.053,17.053,0,0,0-.743-2.561c-.568-1.4-1.5-2.635-1.927-4.079a9.106,9.106,0,0,0-.9-2.746,4.318,4.318,0,0,0-2.26-1.461A10.427,10.427,0,0,0,8.84,25.3Z" transform="translate(-0.29 -14.654)" fill="none" stroke="#000" stroke-width="1"/>
        <path id="Path_8703-9" data-name="Path 8703" d="M14.811,5.461a5.486,5.486,0,0,1,1.1,2.387c.131,1.2,1.339,3.521,1.149,5.971" transform="translate(-8.583 -3.165)" fill="#fff"/>
        <path id="Path_8704-9" data-name="Path 8704" d="M14.811,5.461a5.486,5.486,0,0,1,1.1,2.387c.131,1.2,1.339,3.521,1.149,5.971" transform="translate(-8.583 -3.165)" fill="none" stroke="#000" stroke-width="1"/>
        <path id="Path_8705-9" data-name="Path 8705" d="M25.557,2.569s1.221,3.513.378,5.4a17.956,17.956,0,0,0-.788,4.156" transform="translate(-14.573 -1.489)" fill="#fff"/>
        <path id="Path_8706-9" data-name="Path 8706" d="M25.557,2.569s1.221,3.513.378,5.4a17.956,17.956,0,0,0-.788,4.156" transform="translate(-14.573 -1.489)" fill="none" stroke="#000" stroke-width="1"/>
        <path id="Path_8707-9" data-name="Path 8707" d="M21.69,40.967h0l0-.012-1.687-.018a2.585,2.585,0,0,0-.673-1.4l2.261.025a.4.4,0,0,0,.036-.8L15.292,38.7a.4.4,0,0,0-.39.407.4.4,0,0,0,.383.39l2.185.024a1.784,1.784,0,0,1,1.724,1.407l-3.927-.043a.4.4,0,0,0-.006.8l3.923.042a1.781,1.781,0,0,1-1.754,1.369l-2.185-.024a.4.4,0,0,0-.289.679l4.325,4.42a.4.4,0,0,0,.563-.026.4.4,0,0,0,0-.534L16.2,43.877l1.222.013A2.587,2.587,0,0,0,20,41.735l1.573.017a.4.4,0,0,0,.312-.668.4.4,0,0,0-.191-.116" transform="translate(-8.602 -22.428)"/>
      </g>
    </g>
    <g id="Group_2017-10" data-name="Group 2017" transform="translate(468 0)">
      <g id="Group_2016-10" data-name="Group 2016" transform="translate(0 0)" clip-path="url(#clip-path-2)">
        <path id="Path_8695-10" data-name="Path 8695" d="M19.675,4.541a1.433,1.433,0,0,0,.48-.858,1.259,1.259,0,0,0-.273-.707A6.973,6.973,0,0,0,17.669.886C17.073.532,16.24.3,15.743.779c-.248.242-.428.66-.774.631-.2-.018-.351-.2-.5-.338C13.7.347,12.5.459,11.454.619a1.33,1.33,0,0,0-.56.174c-.447.3-.361.967-.387,1.507a.445.445,0,0,1-.088.286.486.486,0,0,1-.265.117l-2.01.43a1.372,1.372,0,0,0-.67.275c-.375.347-.252.964-.048,1.432,1.045,2.405,3.376,4.051,4.5,6.422a3.083,3.083,0,0,0,.528.9,2.624,2.624,0,0,0,2.17.592c.615-.19.687-.928.894-1.466a21.562,21.562,0,0,1,4.163-6.746" transform="translate(-4.19 -0.29)" fill="#fff"/>
        <path id="Path_8696-10" data-name="Path 8696" d="M19.675,4.541a1.433,1.433,0,0,0,.48-.858,1.259,1.259,0,0,0-.273-.707A6.973,6.973,0,0,0,17.669.886C17.073.532,16.24.3,15.743.779c-.248.242-.428.66-.774.631-.2-.018-.351-.2-.5-.338C13.7.347,12.5.459,11.454.619a1.33,1.33,0,0,0-.56.174c-.447.3-.361.967-.387,1.507a.445.445,0,0,1-.088.286.486.486,0,0,1-.265.117l-2.01.43a1.372,1.372,0,0,0-.67.275c-.375.347-.252.964-.048,1.432,1.045,2.405,3.376,4.051,4.5,6.422a3.083,3.083,0,0,0,.528.9,2.624,2.624,0,0,0,2.17.592c.615-.19.687-.928.894-1.466a21.562,21.562,0,0,1,4.163-6.746Z" transform="translate(-4.19 -0.29)" fill="none" stroke="#000" stroke-width="1"/>
        <path id="Path_8697-10" data-name="Path 8697" d="M15.541,1.738a7.02,7.02,0,0,0,.113,1.126,2.673,2.673,0,0,1-.036,1.125l-.661-1.244a.515.515,0,0,1-.054-.129.5.5,0,0,1,0-.156q.044-.443.088-.887a1.145,1.145,0,0,1,.05-.275.749.749,0,0,1,.216-.3c.114-.1.528-.4.5-.093a2.743,2.743,0,0,1-.148.379,1.925,1.925,0,0,0-.066.457" transform="translate(-8.633 -0.446)" fill="#fff"/>
        <path id="Path_8698-10" data-name="Path 8698" d="M15.541,1.738a7.02,7.02,0,0,0,.113,1.126,2.673,2.673,0,0,1-.036,1.125l-.661-1.244a.515.515,0,0,1-.054-.129.5.5,0,0,1,0-.156q.044-.443.088-.887a1.145,1.145,0,0,1,.05-.275.749.749,0,0,1,.216-.3c.114-.1.528-.4.5-.093a2.743,2.743,0,0,1-.148.379A1.925,1.925,0,0,0,15.541,1.738Z" transform="translate(-8.633 -0.446)" fill="none" stroke="#000" stroke-width="1"/>
        <path id="Path_8699-10" data-name="Path 8699" d="M19.675,4.541a1.433,1.433,0,0,0,.48-.858,1.259,1.259,0,0,0-.273-.707A6.973,6.973,0,0,0,17.669.886C17.073.532,16.24.3,15.743.779c-.248.242-.428.66-.774.631-.2-.018-.351-.2-.5-.338C13.7.347,12.5.459,11.454.619a1.33,1.33,0,0,0-.56.174c-.447.3-.361.967-.387,1.507a.445.445,0,0,1-.088.286.486.486,0,0,1-.265.117l-2.01.43a1.372,1.372,0,0,0-.67.275c-.375.347-.252.964-.048,1.432,1.045,2.405,3.376,4.051,4.5,6.422a3.083,3.083,0,0,0,.528.9,2.624,2.624,0,0,0,2.17.592c.615-.19.687-.928.894-1.466a21.562,21.562,0,0,1,4.163-6.746" transform="translate(-4.19 -0.29)" fill="#e2a327"/>
        <path id="Path_8700-10" data-name="Path 8700" d="M19.675,4.541a1.433,1.433,0,0,0,.48-.858,1.259,1.259,0,0,0-.273-.707A6.973,6.973,0,0,0,17.669.886C17.073.532,16.24.3,15.743.779c-.248.242-.428.66-.774.631-.2-.018-.351-.2-.5-.338C13.7.347,12.5.459,11.454.619a1.33,1.33,0,0,0-.56.174c-.447.3-.361.967-.387,1.507a.445.445,0,0,1-.088.286.486.486,0,0,1-.265.117l-2.01.43a1.372,1.372,0,0,0-.67.275c-.375.347-.252.964-.048,1.432,1.045,2.405,3.376,4.051,4.5,6.422a3.083,3.083,0,0,0,.528.9,2.624,2.624,0,0,0,2.17.592c.615-.19.687-.928.894-1.466a21.562,21.562,0,0,1,4.163-6.746Z" transform="translate(-4.19 -0.29)" fill="none" stroke="#000" stroke-width="1"/>
        <path id="Path_8701-10" data-name="Path 8701" d="M8.84,25.3a6.183,6.183,0,0,0-5.6,5.214,17.773,17.773,0,0,1-.961,4.338c-.362.775-.9,1.455-1.3,2.213a3.216,3.216,0,0,0-.364,2.469c.166.484.516.962.381,1.456-.07.252-.25.554-.063.736a.584.584,0,0,0,.385.1,4.294,4.294,0,0,1,1.258.352,23.77,23.77,0,0,0,7.665,1.707,14.774,14.774,0,0,0,7.614-1.669,2.388,2.388,0,0,1,1.6-.467c.082.018.18.042.238-.018a.225.225,0,0,0,.021-.21q-.566-2.417-1.133-4.835a17.053,17.053,0,0,0-.743-2.561c-.568-1.4-1.5-2.635-1.927-4.079a9.106,9.106,0,0,0-.9-2.746,4.318,4.318,0,0,0-2.26-1.461A10.427,10.427,0,0,0,8.84,25.3" transform="translate(-0.29 -14.654)" fill="#e2a327"/>
        <path id="Path_8702-10" data-name="Path 8702" d="M8.84,25.3a6.183,6.183,0,0,0-5.6,5.214,17.773,17.773,0,0,1-.961,4.338c-.362.775-.9,1.455-1.3,2.213a3.216,3.216,0,0,0-.364,2.469c.166.484.516.962.381,1.456-.07.252-.25.554-.063.736a.584.584,0,0,0,.385.1,4.294,4.294,0,0,1,1.258.352,23.77,23.77,0,0,0,7.665,1.707,14.774,14.774,0,0,0,7.614-1.669,2.388,2.388,0,0,1,1.6-.467c.082.018.18.042.238-.018a.225.225,0,0,0,.021-.21q-.566-2.417-1.133-4.835a17.053,17.053,0,0,0-.743-2.561c-.568-1.4-1.5-2.635-1.927-4.079a9.106,9.106,0,0,0-.9-2.746,4.318,4.318,0,0,0-2.26-1.461A10.427,10.427,0,0,0,8.84,25.3Z" transform="translate(-0.29 -14.654)" fill="none" stroke="#000" stroke-width="1"/>
        <path id="Path_8703-10" data-name="Path 8703" d="M14.811,5.461a5.486,5.486,0,0,1,1.1,2.387c.131,1.2,1.339,3.521,1.149,5.971" transform="translate(-8.583 -3.165)" fill="#fff"/>
        <path id="Path_8704-10" data-name="Path 8704" d="M14.811,5.461a5.486,5.486,0,0,1,1.1,2.387c.131,1.2,1.339,3.521,1.149,5.971" transform="translate(-8.583 -3.165)" fill="none" stroke="#000" stroke-width="1"/>
        <path id="Path_8705-10" data-name="Path 8705" d="M25.557,2.569s1.221,3.513.378,5.4a17.956,17.956,0,0,0-.788,4.156" transform="translate(-14.573 -1.489)" fill="#fff"/>
        <path id="Path_8706-10" data-name="Path 8706" d="M25.557,2.569s1.221,3.513.378,5.4a17.956,17.956,0,0,0-.788,4.156" transform="translate(-14.573 -1.489)" fill="none" stroke="#000" stroke-width="1"/>
        <path id="Path_8707-10" data-name="Path 8707" d="M21.69,40.967h0l0-.012-1.687-.018a2.585,2.585,0,0,0-.673-1.4l2.261.025a.4.4,0,0,0,.036-.8L15.292,38.7a.4.4,0,0,0-.39.407.4.4,0,0,0,.383.39l2.185.024a1.784,1.784,0,0,1,1.724,1.407l-3.927-.043a.4.4,0,0,0-.006.8l3.923.042a1.781,1.781,0,0,1-1.754,1.369l-2.185-.024a.4.4,0,0,0-.289.679l4.325,4.42a.4.4,0,0,0,.563-.026.4.4,0,0,0,0-.534L16.2,43.877l1.222.013A2.587,2.587,0,0,0,20,41.735l1.573.017a.4.4,0,0,0,.312-.668.4.4,0,0,0-.191-.116" transform="translate(-8.602 -22.428)"/>
      </g>
    </g>
    <g id="Group_2017-11" data-name="Group 2017" transform="translate(520 0)">
      <g id="Group_2016-11" data-name="Group 2016" transform="translate(0 0)" clip-path="url(#clip-path-2)">
        <path id="Path_8695-11" data-name="Path 8695" d="M19.675,4.541a1.433,1.433,0,0,0,.48-.858,1.259,1.259,0,0,0-.273-.707A6.973,6.973,0,0,0,17.669.886C17.073.532,16.24.3,15.743.779c-.248.242-.428.66-.774.631-.2-.018-.351-.2-.5-.338C13.7.347,12.5.459,11.454.619a1.33,1.33,0,0,0-.56.174c-.447.3-.361.967-.387,1.507a.445.445,0,0,1-.088.286.486.486,0,0,1-.265.117l-2.01.43a1.372,1.372,0,0,0-.67.275c-.375.347-.252.964-.048,1.432,1.045,2.405,3.376,4.051,4.5,6.422a3.083,3.083,0,0,0,.528.9,2.624,2.624,0,0,0,2.17.592c.615-.19.687-.928.894-1.466a21.562,21.562,0,0,1,4.163-6.746" transform="translate(-4.19 -0.29)" fill="#fff"/>
        <path id="Path_8696-11" data-name="Path 8696" d="M19.675,4.541a1.433,1.433,0,0,0,.48-.858,1.259,1.259,0,0,0-.273-.707A6.973,6.973,0,0,0,17.669.886C17.073.532,16.24.3,15.743.779c-.248.242-.428.66-.774.631-.2-.018-.351-.2-.5-.338C13.7.347,12.5.459,11.454.619a1.33,1.33,0,0,0-.56.174c-.447.3-.361.967-.387,1.507a.445.445,0,0,1-.088.286.486.486,0,0,1-.265.117l-2.01.43a1.372,1.372,0,0,0-.67.275c-.375.347-.252.964-.048,1.432,1.045,2.405,3.376,4.051,4.5,6.422a3.083,3.083,0,0,0,.528.9,2.624,2.624,0,0,0,2.17.592c.615-.19.687-.928.894-1.466a21.562,21.562,0,0,1,4.163-6.746Z" transform="translate(-4.19 -0.29)" fill="none" stroke="#000" stroke-width="1"/>
        <path id="Path_8697-11" data-name="Path 8697" d="M15.541,1.738a7.02,7.02,0,0,0,.113,1.126,2.673,2.673,0,0,1-.036,1.125l-.661-1.244a.515.515,0,0,1-.054-.129.5.5,0,0,1,0-.156q.044-.443.088-.887a1.145,1.145,0,0,1,.05-.275.749.749,0,0,1,.216-.3c.114-.1.528-.4.5-.093a2.743,2.743,0,0,1-.148.379,1.925,1.925,0,0,0-.066.457" transform="translate(-8.633 -0.446)" fill="#fff"/>
        <path id="Path_8698-11" data-name="Path 8698" d="M15.541,1.738a7.02,7.02,0,0,0,.113,1.126,2.673,2.673,0,0,1-.036,1.125l-.661-1.244a.515.515,0,0,1-.054-.129.5.5,0,0,1,0-.156q.044-.443.088-.887a1.145,1.145,0,0,1,.05-.275.749.749,0,0,1,.216-.3c.114-.1.528-.4.5-.093a2.743,2.743,0,0,1-.148.379A1.925,1.925,0,0,0,15.541,1.738Z" transform="translate(-8.633 -0.446)" fill="none" stroke="#000" stroke-width="1"/>
        <path id="Path_8699-11" data-name="Path 8699" d="M19.675,4.541a1.433,1.433,0,0,0,.48-.858,1.259,1.259,0,0,0-.273-.707A6.973,6.973,0,0,0,17.669.886C17.073.532,16.24.3,15.743.779c-.248.242-.428.66-.774.631-.2-.018-.351-.2-.5-.338C13.7.347,12.5.459,11.454.619a1.33,1.33,0,0,0-.56.174c-.447.3-.361.967-.387,1.507a.445.445,0,0,1-.088.286.486.486,0,0,1-.265.117l-2.01.43a1.372,1.372,0,0,0-.67.275c-.375.347-.252.964-.048,1.432,1.045,2.405,3.376,4.051,4.5,6.422a3.083,3.083,0,0,0,.528.9,2.624,2.624,0,0,0,2.17.592c.615-.19.687-.928.894-1.466a21.562,21.562,0,0,1,4.163-6.746" transform="translate(-4.19 -0.29)" fill="#e2a327"/>
        <path id="Path_8700-11" data-name="Path 8700" d="M19.675,4.541a1.433,1.433,0,0,0,.48-.858,1.259,1.259,0,0,0-.273-.707A6.973,6.973,0,0,0,17.669.886C17.073.532,16.24.3,15.743.779c-.248.242-.428.66-.774.631-.2-.018-.351-.2-.5-.338C13.7.347,12.5.459,11.454.619a1.33,1.33,0,0,0-.56.174c-.447.3-.361.967-.387,1.507a.445.445,0,0,1-.088.286.486.486,0,0,1-.265.117l-2.01.43a1.372,1.372,0,0,0-.67.275c-.375.347-.252.964-.048,1.432,1.045,2.405,3.376,4.051,4.5,6.422a3.083,3.083,0,0,0,.528.9,2.624,2.624,0,0,0,2.17.592c.615-.19.687-.928.894-1.466a21.562,21.562,0,0,1,4.163-6.746Z" transform="translate(-4.19 -0.29)" fill="none" stroke="#000" stroke-width="1"/>
        <path id="Path_8701-11" data-name="Path 8701" d="M8.84,25.3a6.183,6.183,0,0,0-5.6,5.214,17.773,17.773,0,0,1-.961,4.338c-.362.775-.9,1.455-1.3,2.213a3.216,3.216,0,0,0-.364,2.469c.166.484.516.962.381,1.456-.07.252-.25.554-.063.736a.584.584,0,0,0,.385.1,4.294,4.294,0,0,1,1.258.352,23.77,23.77,0,0,0,7.665,1.707,14.774,14.774,0,0,0,7.614-1.669,2.388,2.388,0,0,1,1.6-.467c.082.018.18.042.238-.018a.225.225,0,0,0,.021-.21q-.566-2.417-1.133-4.835a17.053,17.053,0,0,0-.743-2.561c-.568-1.4-1.5-2.635-1.927-4.079a9.106,9.106,0,0,0-.9-2.746,4.318,4.318,0,0,0-2.26-1.461A10.427,10.427,0,0,0,8.84,25.3" transform="translate(-0.29 -14.654)" fill="#e2a327"/>
        <path id="Path_8702-11" data-name="Path 8702" d="M8.84,25.3a6.183,6.183,0,0,0-5.6,5.214,17.773,17.773,0,0,1-.961,4.338c-.362.775-.9,1.455-1.3,2.213a3.216,3.216,0,0,0-.364,2.469c.166.484.516.962.381,1.456-.07.252-.25.554-.063.736a.584.584,0,0,0,.385.1,4.294,4.294,0,0,1,1.258.352,23.77,23.77,0,0,0,7.665,1.707,14.774,14.774,0,0,0,7.614-1.669,2.388,2.388,0,0,1,1.6-.467c.082.018.18.042.238-.018a.225.225,0,0,0,.021-.21q-.566-2.417-1.133-4.835a17.053,17.053,0,0,0-.743-2.561c-.568-1.4-1.5-2.635-1.927-4.079a9.106,9.106,0,0,0-.9-2.746,4.318,4.318,0,0,0-2.26-1.461A10.427,10.427,0,0,0,8.84,25.3Z" transform="translate(-0.29 -14.654)" fill="none" stroke="#000" stroke-width="1"/>
        <path id="Path_8703-11" data-name="Path 8703" d="M14.811,5.461a5.486,5.486,0,0,1,1.1,2.387c.131,1.2,1.339,3.521,1.149,5.971" transform="translate(-8.583 -3.165)" fill="#fff"/>
        <path id="Path_8704-11" data-name="Path 8704" d="M14.811,5.461a5.486,5.486,0,0,1,1.1,2.387c.131,1.2,1.339,3.521,1.149,5.971" transform="translate(-8.583 -3.165)" fill="none" stroke="#000" stroke-width="1"/>
        <path id="Path_8705-11" data-name="Path 8705" d="M25.557,2.569s1.221,3.513.378,5.4a17.956,17.956,0,0,0-.788,4.156" transform="translate(-14.573 -1.489)" fill="#fff"/>
        <path id="Path_8706-11" data-name="Path 8706" d="M25.557,2.569s1.221,3.513.378,5.4a17.956,17.956,0,0,0-.788,4.156" transform="translate(-14.573 -1.489)" fill="none" stroke="#000" stroke-width="1"/>
        <path id="Path_8707-11" data-name="Path 8707" d="M21.69,40.967h0l0-.012-1.687-.018a2.585,2.585,0,0,0-.673-1.4l2.261.025a.4.4,0,0,0,.036-.8L15.292,38.7a.4.4,0,0,0-.39.407.4.4,0,0,0,.383.39l2.185.024a1.784,1.784,0,0,1,1.724,1.407l-3.927-.043a.4.4,0,0,0-.006.8l3.923.042a1.781,1.781,0,0,1-1.754,1.369l-2.185-.024a.4.4,0,0,0-.289.679l4.325,4.42a.4.4,0,0,0,.563-.026.4.4,0,0,0,0-.534L16.2,43.877l1.222.013A2.587,2.587,0,0,0,20,41.735l1.573.017a.4.4,0,0,0,.312-.668.4.4,0,0,0-.191-.116" transform="translate(-8.602 -22.428)"/>
      </g>
    </g>
    <g id="Group_2017-12" data-name="Group 2017" transform="translate(572 0)">
      <g id="Group_2016-12" data-name="Group 2016" transform="translate(0 0)" clip-path="url(#clip-path-2)">
        <path id="Path_8695-12" data-name="Path 8695" d="M19.675,4.541a1.433,1.433,0,0,0,.48-.858,1.259,1.259,0,0,0-.273-.707A6.973,6.973,0,0,0,17.669.886C17.073.532,16.24.3,15.743.779c-.248.242-.428.66-.774.631-.2-.018-.351-.2-.5-.338C13.7.347,12.5.459,11.454.619a1.33,1.33,0,0,0-.56.174c-.447.3-.361.967-.387,1.507a.445.445,0,0,1-.088.286.486.486,0,0,1-.265.117l-2.01.43a1.372,1.372,0,0,0-.67.275c-.375.347-.252.964-.048,1.432,1.045,2.405,3.376,4.051,4.5,6.422a3.083,3.083,0,0,0,.528.9,2.624,2.624,0,0,0,2.17.592c.615-.19.687-.928.894-1.466a21.562,21.562,0,0,1,4.163-6.746" transform="translate(-4.19 -0.29)" fill="#fff"/>
        <path id="Path_8696-12" data-name="Path 8696" d="M19.675,4.541a1.433,1.433,0,0,0,.48-.858,1.259,1.259,0,0,0-.273-.707A6.973,6.973,0,0,0,17.669.886C17.073.532,16.24.3,15.743.779c-.248.242-.428.66-.774.631-.2-.018-.351-.2-.5-.338C13.7.347,12.5.459,11.454.619a1.33,1.33,0,0,0-.56.174c-.447.3-.361.967-.387,1.507a.445.445,0,0,1-.088.286.486.486,0,0,1-.265.117l-2.01.43a1.372,1.372,0,0,0-.67.275c-.375.347-.252.964-.048,1.432,1.045,2.405,3.376,4.051,4.5,6.422a3.083,3.083,0,0,0,.528.9,2.624,2.624,0,0,0,2.17.592c.615-.19.687-.928.894-1.466a21.562,21.562,0,0,1,4.163-6.746Z" transform="translate(-4.19 -0.29)" fill="none" stroke="#000" stroke-width="1"/>
        <path id="Path_8697-12" data-name="Path 8697" d="M15.541,1.738a7.02,7.02,0,0,0,.113,1.126,2.673,2.673,0,0,1-.036,1.125l-.661-1.244a.515.515,0,0,1-.054-.129.5.5,0,0,1,0-.156q.044-.443.088-.887a1.145,1.145,0,0,1,.05-.275.749.749,0,0,1,.216-.3c.114-.1.528-.4.5-.093a2.743,2.743,0,0,1-.148.379,1.925,1.925,0,0,0-.066.457" transform="translate(-8.633 -0.446)" fill="#fff"/>
        <path id="Path_8698-12" data-name="Path 8698" d="M15.541,1.738a7.02,7.02,0,0,0,.113,1.126,2.673,2.673,0,0,1-.036,1.125l-.661-1.244a.515.515,0,0,1-.054-.129.5.5,0,0,1,0-.156q.044-.443.088-.887a1.145,1.145,0,0,1,.05-.275.749.749,0,0,1,.216-.3c.114-.1.528-.4.5-.093a2.743,2.743,0,0,1-.148.379A1.925,1.925,0,0,0,15.541,1.738Z" transform="translate(-8.633 -0.446)" fill="none" stroke="#000" stroke-width="1"/>
        <path id="Path_8699-12" data-name="Path 8699" d="M19.675,4.541a1.433,1.433,0,0,0,.48-.858,1.259,1.259,0,0,0-.273-.707A6.973,6.973,0,0,0,17.669.886C17.073.532,16.24.3,15.743.779c-.248.242-.428.66-.774.631-.2-.018-.351-.2-.5-.338C13.7.347,12.5.459,11.454.619a1.33,1.33,0,0,0-.56.174c-.447.3-.361.967-.387,1.507a.445.445,0,0,1-.088.286.486.486,0,0,1-.265.117l-2.01.43a1.372,1.372,0,0,0-.67.275c-.375.347-.252.964-.048,1.432,1.045,2.405,3.376,4.051,4.5,6.422a3.083,3.083,0,0,0,.528.9,2.624,2.624,0,0,0,2.17.592c.615-.19.687-.928.894-1.466a21.562,21.562,0,0,1,4.163-6.746" transform="translate(-4.19 -0.29)" fill="#e2a327"/>
        <path id="Path_8700-12" data-name="Path 8700" d="M19.675,4.541a1.433,1.433,0,0,0,.48-.858,1.259,1.259,0,0,0-.273-.707A6.973,6.973,0,0,0,17.669.886C17.073.532,16.24.3,15.743.779c-.248.242-.428.66-.774.631-.2-.018-.351-.2-.5-.338C13.7.347,12.5.459,11.454.619a1.33,1.33,0,0,0-.56.174c-.447.3-.361.967-.387,1.507a.445.445,0,0,1-.088.286.486.486,0,0,1-.265.117l-2.01.43a1.372,1.372,0,0,0-.67.275c-.375.347-.252.964-.048,1.432,1.045,2.405,3.376,4.051,4.5,6.422a3.083,3.083,0,0,0,.528.9,2.624,2.624,0,0,0,2.17.592c.615-.19.687-.928.894-1.466a21.562,21.562,0,0,1,4.163-6.746Z" transform="translate(-4.19 -0.29)" fill="none" stroke="#000" stroke-width="1"/>
        <path id="Path_8701-12" data-name="Path 8701" d="M8.84,25.3a6.183,6.183,0,0,0-5.6,5.214,17.773,17.773,0,0,1-.961,4.338c-.362.775-.9,1.455-1.3,2.213a3.216,3.216,0,0,0-.364,2.469c.166.484.516.962.381,1.456-.07.252-.25.554-.063.736a.584.584,0,0,0,.385.1,4.294,4.294,0,0,1,1.258.352,23.77,23.77,0,0,0,7.665,1.707,14.774,14.774,0,0,0,7.614-1.669,2.388,2.388,0,0,1,1.6-.467c.082.018.18.042.238-.018a.225.225,0,0,0,.021-.21q-.566-2.417-1.133-4.835a17.053,17.053,0,0,0-.743-2.561c-.568-1.4-1.5-2.635-1.927-4.079a9.106,9.106,0,0,0-.9-2.746,4.318,4.318,0,0,0-2.26-1.461A10.427,10.427,0,0,0,8.84,25.3" transform="translate(-0.29 -14.654)" fill="#e2a327"/>
        <path id="Path_8702-12" data-name="Path 8702" d="M8.84,25.3a6.183,6.183,0,0,0-5.6,5.214,17.773,17.773,0,0,1-.961,4.338c-.362.775-.9,1.455-1.3,2.213a3.216,3.216,0,0,0-.364,2.469c.166.484.516.962.381,1.456-.07.252-.25.554-.063.736a.584.584,0,0,0,.385.1,4.294,4.294,0,0,1,1.258.352,23.77,23.77,0,0,0,7.665,1.707,14.774,14.774,0,0,0,7.614-1.669,2.388,2.388,0,0,1,1.6-.467c.082.018.18.042.238-.018a.225.225,0,0,0,.021-.21q-.566-2.417-1.133-4.835a17.053,17.053,0,0,0-.743-2.561c-.568-1.4-1.5-2.635-1.927-4.079a9.106,9.106,0,0,0-.9-2.746,4.318,4.318,0,0,0-2.26-1.461A10.427,10.427,0,0,0,8.84,25.3Z" transform="translate(-0.29 -14.654)" fill="none" stroke="#000" stroke-width="1"/>
        <path id="Path_8703-12" data-name="Path 8703" d="M14.811,5.461a5.486,5.486,0,0,1,1.1,2.387c.131,1.2,1.339,3.521,1.149,5.971" transform="translate(-8.583 -3.165)" fill="#fff"/>
        <path id="Path_8704-12" data-name="Path 8704" d="M14.811,5.461a5.486,5.486,0,0,1,1.1,2.387c.131,1.2,1.339,3.521,1.149,5.971" transform="translate(-8.583 -3.165)" fill="none" stroke="#000" stroke-width="1"/>
        <path id="Path_8705-12" data-name="Path 8705" d="M25.557,2.569s1.221,3.513.378,5.4a17.956,17.956,0,0,0-.788,4.156" transform="translate(-14.573 -1.489)" fill="#fff"/>
        <path id="Path_8706-12" data-name="Path 8706" d="M25.557,2.569s1.221,3.513.378,5.4a17.956,17.956,0,0,0-.788,4.156" transform="translate(-14.573 -1.489)" fill="none" stroke="#000" stroke-width="1"/>
        <path id="Path_8707-12" data-name="Path 8707" d="M21.69,40.967h0l0-.012-1.687-.018a2.585,2.585,0,0,0-.673-1.4l2.261.025a.4.4,0,0,0,.036-.8L15.292,38.7a.4.4,0,0,0-.39.407.4.4,0,0,0,.383.39l2.185.024a1.784,1.784,0,0,1,1.724,1.407l-3.927-.043a.4.4,0,0,0-.006.8l3.923.042a1.781,1.781,0,0,1-1.754,1.369l-2.185-.024a.4.4,0,0,0-.289.679l4.325,4.42a.4.4,0,0,0,.563-.026.4.4,0,0,0,0-.534L16.2,43.877l1.222.013A2.587,2.587,0,0,0,20,41.735l1.573.017a.4.4,0,0,0,.312-.668.4.4,0,0,0-.191-.116" transform="translate(-8.602 -22.428)"/>
      </g>
    </g>
    <g id="Group_2017-13" data-name="Group 2017" transform="translate(624 0)">
      <g id="Group_2016-13" data-name="Group 2016" transform="translate(0 0)" clip-path="url(#clip-path-2)">
        <path id="Path_8695-13" data-name="Path 8695" d="M19.675,4.541a1.433,1.433,0,0,0,.48-.858,1.259,1.259,0,0,0-.273-.707A6.973,6.973,0,0,0,17.669.886C17.073.532,16.24.3,15.743.779c-.248.242-.428.66-.774.631-.2-.018-.351-.2-.5-.338C13.7.347,12.5.459,11.454.619a1.33,1.33,0,0,0-.56.174c-.447.3-.361.967-.387,1.507a.445.445,0,0,1-.088.286.486.486,0,0,1-.265.117l-2.01.43a1.372,1.372,0,0,0-.67.275c-.375.347-.252.964-.048,1.432,1.045,2.405,3.376,4.051,4.5,6.422a3.083,3.083,0,0,0,.528.9,2.624,2.624,0,0,0,2.17.592c.615-.19.687-.928.894-1.466a21.562,21.562,0,0,1,4.163-6.746" transform="translate(-4.19 -0.29)" fill="#fff"/>
        <path id="Path_8696-13" data-name="Path 8696" d="M19.675,4.541a1.433,1.433,0,0,0,.48-.858,1.259,1.259,0,0,0-.273-.707A6.973,6.973,0,0,0,17.669.886C17.073.532,16.24.3,15.743.779c-.248.242-.428.66-.774.631-.2-.018-.351-.2-.5-.338C13.7.347,12.5.459,11.454.619a1.33,1.33,0,0,0-.56.174c-.447.3-.361.967-.387,1.507a.445.445,0,0,1-.088.286.486.486,0,0,1-.265.117l-2.01.43a1.372,1.372,0,0,0-.67.275c-.375.347-.252.964-.048,1.432,1.045,2.405,3.376,4.051,4.5,6.422a3.083,3.083,0,0,0,.528.9,2.624,2.624,0,0,0,2.17.592c.615-.19.687-.928.894-1.466a21.562,21.562,0,0,1,4.163-6.746Z" transform="translate(-4.19 -0.29)" fill="none" stroke="#000" stroke-width="1"/>
        <path id="Path_8697-13" data-name="Path 8697" d="M15.541,1.738a7.02,7.02,0,0,0,.113,1.126,2.673,2.673,0,0,1-.036,1.125l-.661-1.244a.515.515,0,0,1-.054-.129.5.5,0,0,1,0-.156q.044-.443.088-.887a1.145,1.145,0,0,1,.05-.275.749.749,0,0,1,.216-.3c.114-.1.528-.4.5-.093a2.743,2.743,0,0,1-.148.379,1.925,1.925,0,0,0-.066.457" transform="translate(-8.633 -0.446)" fill="#fff"/>
        <path id="Path_8698-13" data-name="Path 8698" d="M15.541,1.738a7.02,7.02,0,0,0,.113,1.126,2.673,2.673,0,0,1-.036,1.125l-.661-1.244a.515.515,0,0,1-.054-.129.5.5,0,0,1,0-.156q.044-.443.088-.887a1.145,1.145,0,0,1,.05-.275.749.749,0,0,1,.216-.3c.114-.1.528-.4.5-.093a2.743,2.743,0,0,1-.148.379A1.925,1.925,0,0,0,15.541,1.738Z" transform="translate(-8.633 -0.446)" fill="none" stroke="#000" stroke-width="1"/>
        <path id="Path_8699-13" data-name="Path 8699" d="M19.675,4.541a1.433,1.433,0,0,0,.48-.858,1.259,1.259,0,0,0-.273-.707A6.973,6.973,0,0,0,17.669.886C17.073.532,16.24.3,15.743.779c-.248.242-.428.66-.774.631-.2-.018-.351-.2-.5-.338C13.7.347,12.5.459,11.454.619a1.33,1.33,0,0,0-.56.174c-.447.3-.361.967-.387,1.507a.445.445,0,0,1-.088.286.486.486,0,0,1-.265.117l-2.01.43a1.372,1.372,0,0,0-.67.275c-.375.347-.252.964-.048,1.432,1.045,2.405,3.376,4.051,4.5,6.422a3.083,3.083,0,0,0,.528.9,2.624,2.624,0,0,0,2.17.592c.615-.19.687-.928.894-1.466a21.562,21.562,0,0,1,4.163-6.746" transform="translate(-4.19 -0.29)" fill="#e2a327"/>
        <path id="Path_8700-13" data-name="Path 8700" d="M19.675,4.541a1.433,1.433,0,0,0,.48-.858,1.259,1.259,0,0,0-.273-.707A6.973,6.973,0,0,0,17.669.886C17.073.532,16.24.3,15.743.779c-.248.242-.428.66-.774.631-.2-.018-.351-.2-.5-.338C13.7.347,12.5.459,11.454.619a1.33,1.33,0,0,0-.56.174c-.447.3-.361.967-.387,1.507a.445.445,0,0,1-.088.286.486.486,0,0,1-.265.117l-2.01.43a1.372,1.372,0,0,0-.67.275c-.375.347-.252.964-.048,1.432,1.045,2.405,3.376,4.051,4.5,6.422a3.083,3.083,0,0,0,.528.9,2.624,2.624,0,0,0,2.17.592c.615-.19.687-.928.894-1.466a21.562,21.562,0,0,1,4.163-6.746Z" transform="translate(-4.19 -0.29)" fill="none" stroke="#000" stroke-width="1"/>
        <path id="Path_8701-13" data-name="Path 8701" d="M8.84,25.3a6.183,6.183,0,0,0-5.6,5.214,17.773,17.773,0,0,1-.961,4.338c-.362.775-.9,1.455-1.3,2.213a3.216,3.216,0,0,0-.364,2.469c.166.484.516.962.381,1.456-.07.252-.25.554-.063.736a.584.584,0,0,0,.385.1,4.294,4.294,0,0,1,1.258.352,23.77,23.77,0,0,0,7.665,1.707,14.774,14.774,0,0,0,7.614-1.669,2.388,2.388,0,0,1,1.6-.467c.082.018.18.042.238-.018a.225.225,0,0,0,.021-.21q-.566-2.417-1.133-4.835a17.053,17.053,0,0,0-.743-2.561c-.568-1.4-1.5-2.635-1.927-4.079a9.106,9.106,0,0,0-.9-2.746,4.318,4.318,0,0,0-2.26-1.461A10.427,10.427,0,0,0,8.84,25.3" transform="translate(-0.29 -14.654)" fill="#e2a327"/>
        <path id="Path_8702-13" data-name="Path 8702" d="M8.84,25.3a6.183,6.183,0,0,0-5.6,5.214,17.773,17.773,0,0,1-.961,4.338c-.362.775-.9,1.455-1.3,2.213a3.216,3.216,0,0,0-.364,2.469c.166.484.516.962.381,1.456-.07.252-.25.554-.063.736a.584.584,0,0,0,.385.1,4.294,4.294,0,0,1,1.258.352,23.77,23.77,0,0,0,7.665,1.707,14.774,14.774,0,0,0,7.614-1.669,2.388,2.388,0,0,1,1.6-.467c.082.018.18.042.238-.018a.225.225,0,0,0,.021-.21q-.566-2.417-1.133-4.835a17.053,17.053,0,0,0-.743-2.561c-.568-1.4-1.5-2.635-1.927-4.079a9.106,9.106,0,0,0-.9-2.746,4.318,4.318,0,0,0-2.26-1.461A10.427,10.427,0,0,0,8.84,25.3Z" transform="translate(-0.29 -14.654)" fill="none" stroke="#000" stroke-width="1"/>
        <path id="Path_8703-13" data-name="Path 8703" d="M14.811,5.461a5.486,5.486,0,0,1,1.1,2.387c.131,1.2,1.339,3.521,1.149,5.971" transform="translate(-8.583 -3.165)" fill="#fff"/>
        <path id="Path_8704-13" data-name="Path 8704" d="M14.811,5.461a5.486,5.486,0,0,1,1.1,2.387c.131,1.2,1.339,3.521,1.149,5.971" transform="translate(-8.583 -3.165)" fill="none" stroke="#000" stroke-width="1"/>
        <path id="Path_8705-13" data-name="Path 8705" d="M25.557,2.569s1.221,3.513.378,5.4a17.956,17.956,0,0,0-.788,4.156" transform="translate(-14.573 -1.489)" fill="#fff"/>
        <path id="Path_8706-13" data-name="Path 8706" d="M25.557,2.569s1.221,3.513.378,5.4a17.956,17.956,0,0,0-.788,4.156" transform="translate(-14.573 -1.489)" fill="none" stroke="#000" stroke-width="1"/>
        <path id="Path_8707-13" data-name="Path 8707" d="M21.69,40.967h0l0-.012-1.687-.018a2.585,2.585,0,0,0-.673-1.4l2.261.025a.4.4,0,0,0,.036-.8L15.292,38.7a.4.4,0,0,0-.39.407.4.4,0,0,0,.383.39l2.185.024a1.784,1.784,0,0,1,1.724,1.407l-3.927-.043a.4.4,0,0,0-.006.8l3.923.042a1.781,1.781,0,0,1-1.754,1.369l-2.185-.024a.4.4,0,0,0-.289.679l4.325,4.42a.4.4,0,0,0,.563-.026.4.4,0,0,0,0-.534L16.2,43.877l1.222.013A2.587,2.587,0,0,0,20,41.735l1.573.017a.4.4,0,0,0,.312-.668.4.4,0,0,0-.191-.116" transform="translate(-8.602 -22.428)"/>
      </g>
    </g>
  </g>
</svg>
