<svg xmlns="http://www.w3.org/2000/svg" width="28.111" height="32.411" viewBox="0 0 28.111 32.411">
  <g id="Rocking_Chair" data-name="Rocking Chair" transform="translate(-4.807 -1.844)">
    <path id="Path_6894" data-name="Path 6894" d="M32.658,30.127l-.43-1.386a1.426,1.426,0,0,0-.713-.856,1.363,1.363,0,0,0-1.062-.077c-.554.188-1.113.357-1.675.517L27.7,18.052h.649a1.459,1.459,0,0,0,1.459-1.459V15.134a1.459,1.459,0,0,0-1.459-1.459H12.673A37.775,37.775,0,0,0,9.7,2.829a1.458,1.458,0,0,0-2.13-.581l-1.03.687A1.444,1.444,0,0,0,5.987,4.66,52.6,52.6,0,0,1,8.633,28.237q-.685-.2-1.362-.43a1.354,1.354,0,0,0-1.062.077,1.425,1.425,0,0,0-.713.857l-.43,1.386a1.478,1.478,0,0,0,.9,1.839,40.009,40.009,0,0,0,12.9,2.139,40.009,40.009,0,0,0,12.9-2.139A1.478,1.478,0,0,0,32.658,30.127ZM27.351,28.7q-.408.1-.819.185L24.823,18.052h1.408ZM13.361,23.16H24.152l.231,1.459H13.365C13.368,24.152,13.367,23.67,13.361,23.16Zm9.986-5.108.576,3.648H21.051V18.052ZM19.592,21.7H18.133V18.052h1.459Zm-2.919,0H13.329c-.034-1.156-.094-2.38-.19-3.648h3.534Zm-3.328,4.378H24.613l.487,3.084a36.505,36.505,0,0,1-11.909.1C13.251,28.549,13.317,27.453,13.345,26.078Zm15-10.945v1.459H13.015c-.046-.484-.095-.97-.152-1.459Zm-21-10.986,1.032-.689C12.528,12.082,11.954,25.64,11.729,29c-.561-.112-1.121-.236-1.678-.375A54.115,54.115,0,0,0,7.352,4.148ZM6.458,30.559l.42-1.343a37.808,37.808,0,0,0,23.97,0l.438,1.37a38.245,38.245,0,0,1-24.827-.027Z" transform="translate(0 0)" fill="#c91429" stroke="#fff" stroke-width="0.3"/>
  </g>
</svg>
