<svg xmlns="http://www.w3.org/2000/svg" width="20" height="19" viewBox="0 0 20 19">
  <g id="Group_1729" data-name="Group 1729" transform="translate(-1165.563 -3996.519)">
    <ellipse id="Ellipse_5" data-name="Ellipse 5" cx="10" cy="9.5" rx="10" ry="9.5" transform="translate(1165.563 3996.519)" fill="#58595b"/>
    <g id="Page-1" transform="translate(1170.627 4002.07)">
      <g id="Dribbble-Light-Preview">
        <g id="icons">
          <path id="twitter-_154_" data-name="twitter-[#154]" d="M7.1,7368.9a5.676,5.676,0,0,0,5.762-5.673c0-.087,0-.173-.006-.258a4.084,4.084,0,0,0,1.01-1.032,4.08,4.08,0,0,1-1.163.313,2.006,2.006,0,0,0,.89-1.1,4.1,4.1,0,0,1-1.286.484,2.05,2.05,0,0,0-2.865-.086,1.976,1.976,0,0,0-.586,1.9,5.783,5.783,0,0,1-4.174-2.083,1.976,1.976,0,0,0,.627,2.661,2.025,2.025,0,0,1-.919-.249v.026a2,2,0,0,0,1.625,1.954,2.05,2.05,0,0,1-.914.034A2.023,2.023,0,0,0,7,7367.174a4.108,4.108,0,0,1-2.515.855A4.2,4.2,0,0,1,4,7368a5.8,5.8,0,0,0,3.1.894" transform="translate(-4 -7361)" fill="#fff" fill-rule="evenodd"/>
        </g>
      </g>
    </g>
  </g>
</svg>
