<svg xmlns="http://www.w3.org/2000/svg" width="19" height="19" viewBox="0 0 19 19">
  <g id="Group_1730" data-name="Group 1730" transform="translate(-1194.563 -3996.519)">
    <circle id="Ellipse_6" data-name="Ellipse 6" cx="9.5" cy="9.5" r="9.5" transform="translate(1194.563 3996.519)" fill="#58595b"/>
    <g id="Page-1" transform="translate(1200.079 4002)">
      <g id="Dribbble-Light-Preview">
        <g id="icons">
          <path id="linkedin-_161_" data-name="linkedin-[#161]" d="M131.967,7326.967h-1.593v-2.788c0-.765-.337-1.191-.942-1.191-.658,0-1.049.444-1.049,1.191v2.788h-1.593v-5.178h1.593v.583a1.92,1.92,0,0,1,1.626-.877,1.872,1.872,0,0,1,1.959,2.11v3.363Zm-6.994-6.007a.98.98,0,1,1,.972-.98.976.976,0,0,1-.972.98Zm-.973,6.007h1.992v-5.178H124Z" transform="translate(-124 -7319)" fill="#fff" fill-rule="evenodd"/>
        </g>
      </g>
    </g>
  </g>
</svg>
