<svg xmlns="http://www.w3.org/2000/svg" width="20" height="19" viewBox="0 0 20 19">
  <g id="Group_1731" data-name="Group 1731" transform="translate(-1222.563 -3996.519)">
    <ellipse id="Ellipse_7" data-name="Ellipse 7" cx="10" cy="9.5" rx="10" ry="9.5" transform="translate(1222.563 3996.519)" fill="#58595b"/>
    <g id="_16304616191553750378" data-name="16304616191553750378" transform="translate(1223.712 3997.526)">
      <path id="Path_470" data-name="Path 470" d="M8.848,4.956c1.269,0,1.417.006,1.919.028a2.591,2.591,0,0,1,.882.164A1.474,1.474,0,0,1,12.2,5.5a1.451,1.451,0,0,1,.354.547,2.64,2.64,0,0,1,.164.882c.023.5.028.65.028,1.919s-.006,1.417-.028,1.919a2.591,2.591,0,0,1-.164.882,1.474,1.474,0,0,1-.354.547,1.451,1.451,0,0,1-.547.354,2.64,2.64,0,0,1-.882.164c-.5.023-.65.028-1.919.028s-1.417-.006-1.919-.028a2.591,2.591,0,0,1-.882-.164A1.474,1.474,0,0,1,5.5,12.2a1.451,1.451,0,0,1-.354-.547,2.64,2.64,0,0,1-.164-.882c-.023-.5-.028-.65-.028-1.919s.006-1.417.028-1.919a2.591,2.591,0,0,1,.164-.882A1.474,1.474,0,0,1,5.5,5.5a1.451,1.451,0,0,1,.547-.354,2.64,2.64,0,0,1,.882-.164c.5-.025.65-.028,1.919-.028m0-.856c-1.289,0-1.451.006-1.958.028a3.48,3.48,0,0,0-1.152.221A2.314,2.314,0,0,0,4.9,4.9a2.355,2.355,0,0,0-.549.841,3.483,3.483,0,0,0-.221,1.154C4.106,7.4,4.1,7.559,4.1,8.848s.006,1.451.028,1.958a3.5,3.5,0,0,0,.221,1.154A2.314,2.314,0,0,0,4.9,12.8a2.355,2.355,0,0,0,.841.549,3.483,3.483,0,0,0,1.154.221c.507.023.667.028,1.958.028s1.451-.006,1.958-.028a3.5,3.5,0,0,0,1.154-.221A2.314,2.314,0,0,0,12.8,12.8a2.355,2.355,0,0,0,.549-.841,3.483,3.483,0,0,0,.221-1.154c.023-.507.028-.667.028-1.958S13.594,7.4,13.572,6.89a3.5,3.5,0,0,0-.221-1.154A2.314,2.314,0,0,0,12.8,4.9a2.355,2.355,0,0,0-.841-.549,3.483,3.483,0,0,0-1.154-.221c-.509-.021-.671-.026-1.96-.026Z" fill="#fff"/>
      <path id="Path_471" data-name="Path 471" d="M129.039,126.6a2.439,2.439,0,1,0,2.439,2.439A2.439,2.439,0,0,0,129.039,126.6Zm0,4.022a1.583,1.583,0,1,1,1.583-1.583A1.583,1.583,0,0,1,129.039,130.622Z" transform="translate(-120.191 -120.191)" fill="#fff"/>
      <circle id="Ellipse_34" data-name="Ellipse 34" cx="0.569" cy="0.569" r="0.569" transform="translate(10.814 5.744)" fill="#fff"/>
    </g>
  </g>
</svg>
