<svg xmlns="http://www.w3.org/2000/svg" width="19" height="19" viewBox="0 0 19 19">
  <g id="Group_1732" data-name="Group 1732" transform="translate(-1251.563 -3996.519)">
    <circle id="Ellipse_8" data-name="Ellipse 8" cx="9.5" cy="9.5" r="9.5" transform="translate(1251.563 3996.519)" fill="#58595b"/>
    <g id="Page-1" transform="translate(1256.148 4002.936)">
      <g id="Dribbble-Light-Preview">
        <g id="icons">
          <path id="youtube-_168_" data-name="youtube-[#168]" d="M247.926,7286.71v-2.757c.979.46,1.737.905,2.634,1.385-.74.411-1.655.871-2.634,1.373m5.456-4.129a1.277,1.277,0,0,0-.763-.453,53.754,53.754,0,0,0-7.42,0,1.31,1.31,0,0,0-.653.331c-.792.735-.544,4.677-.353,5.316a1.4,1.4,0,0,0,.315.606,1.266,1.266,0,0,0,.664.346,46.753,46.753,0,0,0,7.431.023,1.29,1.29,0,0,0,.683-.349c.732-.732.682-4.9.1-5.819" transform="translate(-244 -7282)" fill="#fff" fill-rule="evenodd"/>
        </g>
      </g>
    </g>
  </g>
</svg>
