<svg xmlns="http://www.w3.org/2000/svg" xmlns:xlink="http://www.w3.org/1999/xlink" width="77.533" height="78.176" viewBox="0 0 77.533 78.176">
  <defs>
    <filter id="Ellipse_56" x="0" y="0" width="77.533" height="78.176" filterUnits="userSpaceOnUse">
      <feOffset dy="7" input="SourceAlpha"/>
      <feGaussianBlur stdDeviation="4.5" result="blur"/>
      <feFlood flood-opacity="0.161"/>
      <feComposite operator="in" in2="blur"/>
      <feComposite in="SourceGraphic"/>
    </filter>
  </defs>
  <g id="Group_1523" data-name="Group 1523" transform="translate(13.5 6.5)">
    <g transform="matrix(1, 0, 0, 1, -13.5, -6.5)" filter="url(#Ellipse_56)">
      <g id="Ellipse_56-2" data-name="Ellipse 56" transform="translate(13.5 6.5)" fill="#f7a600" stroke="#fff" stroke-width="1">
        <ellipse cx="25.266" cy="25.588" rx="25.266" ry="25.588" stroke="none"/>
        <ellipse cx="25.266" cy="25.588" rx="24.766" ry="25.088" fill="none"/>
      </g>
    </g>
    <g id="_17119393221639586935" data-name="17119393221639586935" transform="translate(12.672 12.09)">
      <path id="Path_6455" data-name="Path 6455" d="M54.19,54.136a2.248,2.248,0,0,0,.059-2.23L43.922,32.464a2.266,2.266,0,0,0-4,0L29.592,51.906a2.266,2.266,0,0,0,2,3.329H52.248a2.249,2.249,0,0,0,1.942-1.1Zm-23.245-.778a.748.748,0,0,1-.02-.745L41.253,33.174a.755.755,0,0,1,1.335,0L52.916,52.613a.755.755,0,0,1-.668,1.11H31.593a.744.744,0,0,1-.647-.366Z" transform="translate(-29.328 -31.26)" fill="#fff"/>
      <path id="Path_6456" data-name="Path 6456" d="M46.207,42H43.641a.641.641,0,0,0-.627.781L44.3,48.553a.641.641,0,0,0,1.253,0l1.283-5.772A.641.641,0,0,0,46.207,42Z" transform="translate(-32.329 -33.663)" fill="#fff"/>
      <path id="Path_6457" data-name="Path 6457" d="M45.1,54a1.6,1.6,0,1,0,1.6,1.6A1.6,1.6,0,0,0,45.1,54Zm0,1.924Z" transform="translate(-32.509 -37.967)" fill="#fff"/>
    </g>
  </g>
</svg>
