<svg xmlns="http://www.w3.org/2000/svg" width="21.36" height="21.404" viewBox="0 0 21.36 21.404">
  <g id="Page-1" transform="translate(0.574 -0.501)">
    <g id="Dribbble-Light-Preview" transform="translate(0 1)">
      <g id="icons">
        <path id="call-_192_" data-name="call-[#192]" d="M67.019,7178.663c-.629,1.912-3.095,2.866-4.856,2.707a15.48,15.48,0,0,1-7.01-2.9,23.084,23.084,0,0,1-7.25-8.652c-1.127-2.395-1.379-5.341.3-7.525A2.88,2.88,0,0,1,50.5,7161c1.4-.068,1.593.731,2.073,1.976.357.932.834,1.881,1.1,2.846.5,1.8-1.245,1.876-1.465,3.347-.137.928.988,2.173,1.5,2.835a13.723,13.723,0,0,0,3.544,3.266c.773.488,2.022,1.367,2.908.882,1.364-.748,1.235-3.047,3.143-2.27a30.715,30.715,0,0,1,2.888,1.491c1.458.783,1.39,1.6.834,3.285h0" transform="translate(-47 -7161.001)" fill="none" stroke="#fff" stroke-width="1" fill-rule="evenodd"/>
      </g>
    </g>
  </g>
</svg>
