<svg xmlns="http://www.w3.org/2000/svg" width="21.689" height="29.212" viewBox="0 0 21.689 29.212">
  <g id="_9088447631595156046" data-name="9088447631595156046" transform="translate(-4.5 -0.5)">
    <path id="Path_6446" data-name="Path 6446" d="M23.808,29.712H6.881A2.384,2.384,0,0,1,4.5,27.331V2.881A2.384,2.384,0,0,1,6.881.5H23.808a2.384,2.384,0,0,1,2.381,2.381V27.331A2.384,2.384,0,0,1,23.808,29.712ZM6.881,1.5A1.382,1.382,0,0,0,5.5,2.881V27.331a1.382,1.382,0,0,0,1.381,1.381H23.808a1.382,1.382,0,0,0,1.381-1.381V2.881A1.382,1.382,0,0,0,23.808,1.5Z" transform="translate(0)" fill="#fff"/>
    <path id="Rectangle_1015" data-name="Rectangle 1015" d="M0-.5H13a.5.5,0,0,1,.5.5V3a.5.5,0,0,1-.5.5H0A.5.5,0,0,1-.5,3V0A.5.5,0,0,1,0-.5ZM12.5.5H.5v2h12Z" transform="translate(8.689 5.212)" fill="#fff"/>
    <path id="Ellipse_71" data-name="Ellipse 71" d="M1-.5A1.5,1.5,0,1,1-.5,1,1.5,1.5,0,0,1,1-.5Zm0,2A.5.5,0,1,0,.5,1,.5.5,0,0,0,1,1.5Z" transform="translate(14.689 12.212)" fill="#fff"/>
    <path id="Ellipse_72" data-name="Ellipse 72" d="M1-.5A1.5,1.5,0,1,1-.5,1,1.5,1.5,0,0,1,1-.5Zm0,2A.5.5,0,1,0,.5,1,.5.5,0,0,0,1,1.5Z" transform="translate(19.689 12.212)" fill="#fff"/>
    <path id="Ellipse_73" data-name="Ellipse 73" d="M1-.5A1.5,1.5,0,1,1-.5,1,1.5,1.5,0,0,1,1-.5Zm0,2A.5.5,0,1,0,.5,1,.5.5,0,0,0,1,1.5Z" transform="translate(8.689 12.212)" fill="#fff"/>
    <path id="Ellipse_74" data-name="Ellipse 74" d="M1-.5A1.5,1.5,0,1,1-.5,1,1.5,1.5,0,0,1,1-.5Zm0,2A.5.5,0,1,0,.5,1,.5.5,0,0,0,1,1.5Z" transform="translate(14.689 18.212)" fill="#fff"/>
    <path id="Ellipse_75" data-name="Ellipse 75" d="M1-.5A1.5,1.5,0,1,1-.5,1,1.5,1.5,0,0,1,1-.5Zm0,2A.5.5,0,1,0,.5,1,.5.5,0,0,0,1,1.5Z" transform="translate(19.689 18.212)" fill="#fff"/>
    <path id="Ellipse_76" data-name="Ellipse 76" d="M1-.5A1.5,1.5,0,1,1-.5,1,1.5,1.5,0,0,1,1-.5Zm0,2A.5.5,0,1,0,.5,1,.5.5,0,0,0,1,1.5Z" transform="translate(8.689 18.212)" fill="#fff"/>
    <path id="Ellipse_77" data-name="Ellipse 77" d="M1-.5A1.5,1.5,0,1,1-.5,1,1.5,1.5,0,0,1,1-.5Zm0,2A.5.5,0,1,0,.5,1,.5.5,0,0,0,1,1.5Z" transform="translate(14.689 23.212)" fill="#fff"/>
    <path id="Ellipse_78" data-name="Ellipse 78" d="M1-.5A1.5,1.5,0,1,1-.5,1,1.5,1.5,0,0,1,1-.5Zm0,2A.5.5,0,1,0,.5,1,.5.5,0,0,0,1,1.5Z" transform="translate(19.689 23.212)" fill="#fff"/>
    <path id="Ellipse_79" data-name="Ellipse 79" d="M1-.5A1.5,1.5,0,1,1-.5,1,1.5,1.5,0,0,1,1-.5Zm0,2A.5.5,0,1,0,.5,1,.5.5,0,0,0,1,1.5Z" transform="translate(8.689 23.212)" fill="#fff"/>
  </g>
</svg>
