<svg xmlns="http://www.w3.org/2000/svg" xmlns:xlink="http://www.w3.org/1999/xlink" width="74.116" height="74.116" viewBox="0 0 74.116 74.116">
  <defs>
    <filter id="Path_2359" x="0" y="0" width="74.116" height="74.116" filterUnits="userSpaceOnUse">
      <feOffset dy="7" input="SourceAlpha"/>
      <feGaussianBlur stdDeviation="4.5" result="blur"/>
      <feFlood flood-opacity="0.161"/>
      <feComposite operator="in" in2="blur"/>
      <feComposite in="SourceGraphic"/>
    </filter>
  </defs>
  <g id="Group_1543" data-name="Group 1543" transform="translate(-203.5 -2451.576)">
    <g transform="matrix(1, 0, 0, 1, 203.5, 2451.58)" filter="url(#Path_2359)">
      <g id="Path_2359-2" data-name="Path 2359" transform="translate(13.5 6.5)" fill="#99a26f">
        <path d="M 23.5579833984375 46.61596298217773 C 20.44495391845703 46.61596298217773 17.42531394958496 46.00638198852539 14.58293342590332 44.80415344238281 C 11.8372631072998 43.6428337097168 9.371293067932129 41.98020172119141 7.253533363342285 39.86243438720703 C 5.135763168334961 37.74467468261719 3.473133325576782 35.27870178222656 2.311813354492188 32.53303527832031 C 1.109583377838135 29.69065284729004 0.5000033974647522 26.67101287841797 0.5000033974647522 23.5579833984375 C 0.5000033974647522 20.44495391845703 1.109583377838135 17.42531394958496 2.311813354492188 14.58293342590332 C 3.473133325576782 11.8372631072998 5.135763168334961 9.371293067932129 7.253533363342285 7.253533363342285 C 9.371293067932129 5.135763168334961 11.8372631072998 3.473133325576782 14.58293342590332 2.311813354492188 C 17.42531394958496 1.109583377838135 20.44495391845703 0.5000033974647522 23.5579833984375 0.5000033974647522 C 26.67101287841797 0.5000033974647522 29.69065284729004 1.109583377838135 32.53303527832031 2.311813354492188 C 35.27870178222656 3.473133325576782 37.74467468261719 5.135763168334961 39.86243438720703 7.253533363342285 C 41.98020172119141 9.371293067932129 43.6428337097168 11.8372631072998 44.80415344238281 14.58293342590332 C 46.00638198852539 17.42531394958496 46.61596298217773 20.44495391845703 46.61596298217773 23.5579833984375 C 46.61596298217773 26.67101287841797 46.00638198852539 29.69065284729004 44.80415344238281 32.53303527832031 C 43.6428337097168 35.27870178222656 41.98020172119141 37.74467468261719 39.86243438720703 39.86243438720703 C 37.74467468261719 41.98020172119141 35.27870178222656 43.6428337097168 32.53303527832031 44.80415344238281 C 29.69065284729004 46.00638198852539 26.67101287841797 46.61596298217773 23.5579833984375 46.61596298217773 Z" stroke="none"/>
        <path d="M 23.5579833984375 1.000003814697266 C 20.51223373413086 1.000003814697266 17.5581226348877 1.596294403076172 14.77770233154297 2.772312164306641 C 12.09164428710938 3.908424377441406 9.679092407226562 5.535072326660156 7.607082366943359 7.607082366943359 C 5.535072326660156 9.679092407226562 3.908424377441406 12.09164428710938 2.772312164306641 14.77770233154297 C 1.596294403076172 17.5581226348877 1.000003814697266 20.51223373413086 1.000003814697266 23.5579833984375 C 1.000003814697266 26.60373306274414 1.596294403076172 29.5578441619873 2.772312164306641 32.33826446533203 C 3.908424377441406 35.02432250976562 5.535072326660156 37.43687438964844 7.607082366943359 39.50888442993164 C 9.679092407226562 41.58089447021484 12.09164428710938 43.20754241943359 14.77770233154297 44.34365463256836 C 17.5581226348877 45.51967239379883 20.51223373413086 46.11596298217773 23.5579833984375 46.11596298217773 C 26.60373306274414 46.11596298217773 29.5578441619873 45.51967239379883 32.33826446533203 44.34365463256836 C 35.02432250976562 43.20754241943359 37.43687438964844 41.58089447021484 39.50888442993164 39.50888442993164 C 41.58089447021484 37.43687438964844 43.20754241943359 35.02432250976562 44.34365463256836 32.33826446533203 C 45.51967239379883 29.5578441619873 46.11596298217773 26.60373306274414 46.11596298217773 23.5579833984375 C 46.11596298217773 20.51223373413086 45.51967239379883 17.5581226348877 44.34365463256836 14.77770233154297 C 43.20754241943359 12.09164428710938 41.58089447021484 9.679092407226562 39.50888442993164 7.607082366943359 C 37.43687438964844 5.535072326660156 35.02432250976562 3.908424377441406 32.33826446533203 2.772312164306641 C 29.5578441619873 1.596294403076172 26.60373306274414 1.000003814697266 23.5579833984375 1.000003814697266 M 23.5579833984375 3.814697265625e-06 C 36.56869506835938 3.814697265625e-06 47.11596298217773 10.54727172851562 47.11596298217773 23.5579833984375 C 47.11596298217773 36.56869506835938 36.56869506835938 47.11596298217773 23.5579833984375 47.11596298217773 C 10.54727172851562 47.11596298217773 3.814697265625e-06 36.56869506835938 3.814697265625e-06 23.5579833984375 C 3.814697265625e-06 10.54727172851562 10.54727172851562 3.814697265625e-06 23.5579833984375 3.814697265625e-06 Z" stroke="none" fill="#fff"/>
      </g>
    </g>
    <g id="Layer_41" data-name="Layer 41" transform="translate(224.892 2464.796)">
      <path id="Path_2360" data-name="Path 2360" d="M25.992,38.6a.811.811,0,0,0-.811.811V42.18a2.465,2.465,0,0,1-2.461,2.461H8.612A2.465,2.465,0,0,1,6.152,42.18V39.411a.811.811,0,1,0-1.622,0V42.18a4.087,4.087,0,0,0,4.082,4.082H22.721A4.087,4.087,0,0,0,26.8,42.18V39.411A.811.811,0,0,0,25.992,38.6Z" transform="translate(0 -19.086)" fill="#fff"/>
      <path id="Path_2361" data-name="Path 2361" d="M23.447,21.881a.811.811,0,0,0,.126.1l.061.032.081.041.081.024.069.02a.811.811,0,0,0,.316,0l.069-.02.081-.024.081-.041.061-.032a.811.811,0,0,0,.126-.1l4.614-4.614a.811.811,0,0,0-1.135-1.147l-3.243,3.243V7.311a.811.811,0,1,0-1.622,0V19.351l-3.243-3.243a.811.811,0,1,0-1.147,1.147Z" transform="translate(-8.356)" fill="#fff"/>
    </g>
  </g>
</svg>
