<svg id="Group_1554" data-name="Group 1554" xmlns="http://www.w3.org/2000/svg" xmlns:xlink="http://www.w3.org/1999/xlink" width="159.508" height="259.018" viewBox="0 0 159.508 259.018">
  <defs>
    <clipPath id="clip-path">
      <rect id="Rectangle_1096" data-name="Rectangle 1096" width="159.508" height="259.018" fill="none"/>
    </clipPath>
  </defs>
  <g id="Group_1553" data-name="Group 1553" clip-path="url(#clip-path)">
    <path id="Path_6614" data-name="Path 6614" d="M150.516,29.708s3.919-6.964,0-8.38-5.691-.111-5.878,1.476,1.492,7.837,1.492,7.837Z" transform="translate(-109.532 -3.989)" fill="#fff"/>
    <path id="Path_6615" data-name="Path 6615" d="M150.516,29.708s3.919-6.964,0-8.38-5.691-.111-5.878,1.476,1.492,7.837,1.492,7.837Z" transform="translate(-109.532 -3.989)" fill="none" stroke="#000" stroke-width="1"/>
    <path id="Path_6616" data-name="Path 6616" d="M86.69,75.966a126.634,126.634,0,0,0,19.641,2.017,109.607,109.607,0,0,0,15.1-.679q1.78-.2,3.422-.455c11.567-1.754,17.954-4.864,17.954-4.864S132.237,49.861,123.7,50.709c-10.017,1-26.989,9.987-28.677,7.466-1.9-2.84-3.489-27.2-3.489-27.2-4.441-3.042-7.093.164-7.093.164S75.767,74,86.69,75.966" transform="translate(-48.846 -5.711)" fill="#fff"/>
    <path id="Path_6617" data-name="Path 6617" d="M86.69,75.966a126.634,126.634,0,0,0,19.641,2.017,109.607,109.607,0,0,0,15.1-.679q1.78-.2,3.422-.455c11.567-1.754,17.954-4.864,17.954-4.864S132.237,49.861,123.7,50.709c-10.017,1-26.989,9.987-28.677,7.466-1.9-2.84-3.489-27.2-3.489-27.2-4.441-3.042-7.093.164-7.093.164S75.767,74,86.69,75.966Z" transform="translate(-48.846 -5.711)" fill="#ab1b2d" stroke="#000" stroke-width="1"/>
    <path id="Path_6618" data-name="Path 6618" d="M104.883,307.4s.76,8.8-1.1,9.71l-23.793-.048s0-2.746,3.822-3.356,10.535-2.848,11.671-7.831,9.4,1.525,9.4,1.525" transform="translate(-10.121 -58.525)" fill="#fff"/>
    <path id="Path_6619" data-name="Path 6619" d="M104.883,307.4s.76,8.8-1.1,9.71l-23.793-.048s0-2.746,3.822-3.356,10.535-2.848,11.671-7.831S104.883,307.4,104.883,307.4Z" transform="translate(-10.121 -58.525)" fill="none" stroke="#000" stroke-width="1"/>
    <path id="Path_6620" data-name="Path 6620" d="M64.425,169.825c.117,5.751.393,11.683.935,17.014,2.569,25.3,3.472,55.862,3.842,61.755.64,10.229,2.661,26.572,2.661,26.572s4.008,3.8,11.821,1.989a265.97,265.97,0,0,0,7.92-48.322q.034-.61.065-1.224c.168-3.277.343-7.023.522-11.063,1.19-27.061,2.483-67.26,2.483-67.26l-29.856-7.011s-.686,13.214-.393,27.55" transform="translate(12.871 -27.39)" fill="#fff"/>
    <path id="Path_6621" data-name="Path 6621" d="M64.425,169.825c.117,5.751.393,11.683.935,17.014,2.569,25.3,3.472,55.862,3.842,61.755.64,10.229,2.661,26.572,2.661,26.572s4.008,3.8,11.821,1.989a265.97,265.97,0,0,0,7.92-48.322q.034-.61.065-1.224c.168-3.277.343-7.023.522-11.063,1.19-27.061,2.483-67.26,2.483-67.26l-29.856-7.011S64.132,155.489,64.425,169.825Z" transform="translate(12.871 -27.39)" fill="none" stroke="#000" stroke-width="1"/>
    <path id="Path_6622" data-name="Path 6622" d="M4.433,145.076s4.858,5.713,5.3,7.3,1.215,7.292.8,9.007S6.88,156.6,5.7,155.9s.883,2.584.48,3.131-2.721-1.913-3.626-2.745-.816-5.314-1.9-7.963,3.775-3.25,3.775-3.25" transform="translate(148.459 -27.929)" fill="#fff"/>
    <path id="Path_6623" data-name="Path 6623" d="M4.433,145.076s4.858,5.713,5.3,7.3,1.215,7.292.8,9.007S6.88,156.6,5.7,155.9s.883,2.584.48,3.131-2.721-1.913-3.626-2.745-.816-5.314-1.9-7.963S4.433,145.076,4.433,145.076Z" transform="translate(148.459 -27.929)" fill="none" stroke="#000" stroke-width="1"/>
    <path id="Path_6624" data-name="Path 6624" d="M17.77,295.4s4.234,3.865,3.408,6.61-4.648,4.577-5.164,7.933-2.582,5.186-4.442,5.186H2.71s-1.369-2.361,1.936-3.073S9.2,307.4,8.991,303.74A64.478,64.478,0,0,1,9.3,295.2l7.023-1.627Z" transform="translate(136.262 -56.517)" fill="#fff"/>
    <path id="Path_6625" data-name="Path 6625" d="M17.77,295.4s4.234,3.865,3.408,6.61-4.648,4.577-5.164,7.933-2.582,5.186-4.442,5.186H2.71s-1.369-2.361,1.936-3.073S9.2,307.4,8.991,303.74A64.478,64.478,0,0,1,9.3,295.2l7.023-1.627Z" transform="translate(136.262 -56.517)" fill="none" stroke="#000" stroke-width="1"/>
    <path id="Path_6626" data-name="Path 6626" d="M6.782,149.55s27.949,59.8,42.822,86.038,19.52,33.56,19.52,33.56,8.521-3.356,9.3-5.644c0,0-5.688-50.654-15.647-63-5.628-6.977-12.239-27.916-12.549-35.238s-6.839-24.8-6.839-24.8Z" transform="translate(75.612 -27.041)" fill="#fff"/>
    <path id="Path_6627" data-name="Path 6627" d="M6.782,149.55s27.949,59.8,42.822,86.038,19.52,33.56,19.52,33.56,8.521-3.356,9.3-5.644c0,0-5.688-50.654-15.647-63-5.628-6.977-12.239-27.916-12.549-35.238s-6.839-24.8-6.839-24.8Z" transform="translate(75.612 -27.041)" fill="none" stroke="#000" stroke-width="1"/>
    <path id="Path_6628" data-name="Path 6628" d="M51.266,134.528a48.437,48.437,0,0,0,26.845,6.741c6.9-.3,20.6-2.259,22.807-7.749.518-1.289.138-2.925-.64-5.436-2.02-6.526-6.729-18.952-5.307-46.506a45.16,45.16,0,0,0-.186-7.231C93.3,60.774,85.526,52.736,78.008,50.11,59.674,43.7,53.562,52.58,53.562,52.58S45.458,59,44.236,72.4c-2.441,26.8,7.029,62.128,7.029,62.128" transform="translate(22.957 -9.2)" fill="#fff"/>
    <path id="Path_6629" data-name="Path 6629" d="M51.266,134.528a48.437,48.437,0,0,0,26.845,6.741c6.9-.3,20.6-2.259,22.807-7.749.518-1.289.138-2.925-.64-5.436-2.02-6.526-6.729-18.952-5.307-46.506a45.16,45.16,0,0,0-.186-7.231C93.3,60.774,85.526,52.736,78.008,50.11,59.674,43.7,53.562,52.58,53.562,52.58S45.458,59,44.236,72.4C41.8,99.2,51.266,134.528,51.266,134.528Z" transform="translate(22.957 -9.2)" fill="#ab1b2d" stroke="#000" stroke-width="1"/>
    <path id="Path_6630" data-name="Path 6630" d="M99.461,44.709s-8.412,5.117-17.537,3.67c0,0-1.8-.459-.917-2.577a27.207,27.207,0,0,1-.81-2.825,42.565,42.565,0,0,1-1.044-4.609l5.178-5.442,4.9-5.2c1.354,12.43,10.226,16.985,10.226,16.985" transform="translate(-3.868 -5.337)" fill="#fff"/>
    <path id="Path_6631" data-name="Path 6631" d="M99.461,44.709s-8.412,5.117-17.537,3.67c0,0-1.8-.459-.917-2.577a27.207,27.207,0,0,1-.81-2.825,42.565,42.565,0,0,1-1.044-4.609l5.178-5.442,4.9-5.2C90.589,40.154,99.461,44.709,99.461,44.709Z" transform="translate(-3.868 -5.337)" fill="none" stroke="#000" stroke-width="1"/>
    <path id="Path_6632" data-name="Path 6632" d="M92.28,34.32s16.058,2.007,17.185-7.861,3.959-16.254-6.246-17.953S90.589,10.354,89.4,13.558,88.132,33.543,92.28,34.32" transform="translate(-22.805 -1.553)" fill="#fff"/>
    <path id="Path_6633" data-name="Path 6633" d="M92.28,34.32s16.058,2.007,17.185-7.861,3.959-16.254-6.246-17.953S90.589,10.354,89.4,13.558,88.132,33.543,92.28,34.32Z" transform="translate(-22.805 -1.553)" fill="none" stroke="#000" stroke-width="1"/>
    <path id="Path_6634" data-name="Path 6634" d="M113.892,5.446c.139-.171.468-.318,1.21-.387a3.014,3.014,0,0,0-1.4-.339c-.194-1.028-.813-2.838-2.61-3.215a2.233,2.233,0,0,1,1.142,1.569c-2.141-2.04-6.617-3.413-18.81-1.986-16.071,1.882-10.369,12-8.236,13.153s7.258-2.42,11.159-2.259,4.851,5.752,6.2,6.473.778-.623,2.532-1.5,2.036,2.077,1.593,4.019,2.105,4.385,2.105,4.385l2.377-2.762c2.376-2.762,4.285-14.154,3.067-16.52-.107-.209-.214-.422-.324-.634" transform="translate(-22.162 -0.096)" fill="#fff"/>
    <path id="Path_6635" data-name="Path 6635" d="M113.892,5.446c.139-.171.468-.318,1.21-.387a3.014,3.014,0,0,0-1.4-.339c-.194-1.028-.813-2.838-2.61-3.215a2.233,2.233,0,0,1,1.142,1.569c-2.141-2.04-6.617-3.413-18.81-1.986-16.071,1.882-10.369,12-8.236,13.153s7.258-2.42,11.159-2.259,4.851,5.752,6.2,6.473.778-.623,2.532-1.5,2.036,2.077,1.593,4.019,2.105,4.385,2.105,4.385l2.377-2.762c2.376-2.762,4.285-14.154,3.067-16.52C114.108,5.871,114,5.658,113.892,5.446Z" transform="translate(-22.162 -0.096)" fill="none" stroke="#000" stroke-width="1"/>
    <path id="Path_6636" data-name="Path 6636" d="M110.68,24.708l27.261.243.187-4.1L110.95,18.744Z" transform="translate(-67.991 -3.608)" fill="#fff"/>
    <path id="Path_6637" data-name="Path 6637" d="M110.68,24.708l27.261.243.187-4.1L110.95,18.744Z" transform="translate(-67.991 -3.608)" fill="none" stroke="#000" stroke-width="1"/>
    <path id="Path_6638" data-name="Path 6638" d="M132.979,24.755l29.681.429L163,17.728l-29.6-2.293Z" transform="translate(-110.868 -2.971)" fill="#fff"/>
    <path id="Path_6639" data-name="Path 6639" d="M132.979,24.755l29.681.429L163,17.728l-29.6-2.293Z" transform="translate(-110.868 -2.971)" fill="none" stroke="#000" stroke-width="1"/>
    <path id="Path_6640" data-name="Path 6640" d="M163.378,24.769l25.029.031.457-10.066-24.927-2.268Z" transform="translate(-161.281 -2.4)" fill="#fff"/>
    <path id="Path_6641" data-name="Path 6641" d="M163.378,24.769l25.029.031.457-10.066-24.927-2.268Z" transform="translate(-161.281 -2.4)" fill="none" stroke="#000" stroke-width="1"/>
    <path id="Path_6642" data-name="Path 6642" d="M194.179,26.057h0a1.4,1.4,0,0,1-1.335-1.462l.588-12.93a1.4,1.4,0,1,1,2.8.127l-.587,12.93a1.4,1.4,0,0,1-1.462,1.335" transform="translate(-192.439 -1.989)" fill="#fff"/>
    <path id="Path_6643" data-name="Path 6643" d="M194.179,26.057h0a1.4,1.4,0,0,1-1.335-1.462l.588-12.93a1.4,1.4,0,1,1,2.8.127l-.587,12.93A1.4,1.4,0,0,1,194.179,26.057Z" transform="translate(-192.439 -1.989)" fill="none" stroke="#000" stroke-width="1"/>
    <path id="Path_6644" data-name="Path 6644" d="M110.194,26.121h0a1.244,1.244,0,0,0,1.3-1.186l.153-3.355a1.244,1.244,0,0,0-2.485-.113l-.153,3.355a1.244,1.244,0,0,0,1.186,1.3" transform="translate(-40.16 -3.904)" fill="#fff"/>
    <path id="Path_6645" data-name="Path 6645" d="M110.194,26.121h0a1.244,1.244,0,0,0,1.3-1.186l.153-3.355a1.244,1.244,0,0,0-2.485-.113l-.153,3.355A1.244,1.244,0,0,0,110.194,26.121Z" transform="translate(-40.16 -3.904)" fill="none" stroke="#000" stroke-width="1"/>
    <path id="Path_6646" data-name="Path 6646" d="M5.78,48.758s15.471,2.659,23.541,12.51S50.37,85.009,53.439,89.874s11.589,37.966,11.589,37.966-.563,1.064-2.913,1.684a5.539,5.539,0,0,1-3.88-.326S46.947,109.879,42.7,100.229c-.987-2.243-10.975-8.2-21.593-12.727" transform="translate(89.813 -9.387)" fill="#fff"/>
    <path id="Path_6647" data-name="Path 6647" d="M5.78,48.758s15.471,2.659,23.541,12.51S50.37,85.009,53.439,89.874s11.589,37.966,11.589,37.966-.563,1.064-2.913,1.684a5.539,5.539,0,0,1-3.88-.326S46.947,109.879,42.7,100.229c-.987-2.243-10.975-8.2-21.593-12.727" transform="translate(89.813 -9.387)" fill="#ab1b2d" stroke="#000" stroke-width="1"/>
    <path id="Path_6648" data-name="Path 6648" d="M151.607,17.028s-3.328,2.036-5.318,1.174-1.815-1.65-1.815-1.65,6.013-1.668,7.133.476" transform="translate(-108.756 -3.068)" fill="#fff"/>
    <path id="Path_6649" data-name="Path 6649" d="M151.607,17.028s-3.328,2.036-5.318,1.174-1.815-1.65-1.815-1.65S150.487,14.884,151.607,17.028Z" transform="translate(-108.756 -3.068)" fill="none" stroke="#000" stroke-width="1"/>
    <path id="Path_6650" data-name="Path 6650" d="M26.3,61.942s6.789,42.866,54.963,55.347l5.247,10.354-9.218,1.56S22.449,113.314,23.187,61.184Z" transform="translate(54.28 -11.779)" fill="#fff"/>
    <path id="Path_6651" data-name="Path 6651" d="M26.3,61.942s6.789,42.866,54.963,55.347l5.247,10.354-9.218,1.56S22.449,113.314,23.187,61.184Z" transform="translate(54.28 -11.779)" fill="none" stroke="#000" stroke-width="1"/>
    <path id="Path_6652" data-name="Path 6652" d="M97.855,53.649l2.224.218v3.219L96.8,60.491l-3.115-.757V55.267l2.239-1.617Z" transform="translate(-16.222 -10.328)" fill="#fff"/>
    <path id="Path_6653" data-name="Path 6653" d="M97.855,53.649l2.224.218v3.219L96.8,60.491l-3.115-.757V55.267l2.239-1.617Z" transform="translate(-16.222 -10.328)" fill="none" stroke="#000" stroke-width="1"/>
    <path id="Path_6654" data-name="Path 6654" d="M85.6,43.092s2.153.486,7.073,4.575c0,0-4.893,10.387-15.219,11.632a34.531,34.531,0,0,0-.58-7.682s8.183-2.93,8.726-8.525" transform="translate(4.756 -8.296)" fill="#fff"/>
    <path id="Path_6655" data-name="Path 6655" d="M85.6,43.092s2.153.486,7.073,4.575c0,0-4.893,10.387-15.219,11.632a34.531,34.531,0,0,0-.58-7.682S85.06,48.687,85.6,43.092Z" transform="translate(4.756 -8.296)" fill="none" stroke="#000" stroke-width="1"/>
    <path id="Path_6656" data-name="Path 6656" d="M103.323,52.968s-5.039,2.674-5.412,6.842c0,0-1.926-3.051-1.367-5.164a17.214,17.214,0,0,1,2.285-4.534s-.171,2.545,4.494,2.856" transform="translate(-21.69 -9.647)" fill="#fff"/>
    <path id="Path_6657" data-name="Path 6657" d="M103.323,52.968s-5.039,2.674-5.412,6.842c0,0-1.926-3.051-1.367-5.164a17.214,17.214,0,0,1,2.285-4.534S98.658,52.657,103.323,52.968Z" transform="translate(-21.69 -9.647)" fill="none" stroke="#000" stroke-width="1"/>
  </g>
</svg>
