<svg xmlns="http://www.w3.org/2000/svg" width="55.811" height="53.252" viewBox="0 0 55.811 53.252">
  <g id="tax" transform="translate(-377.483 -3003.043)">
    <g id="Rectangle_1741" data-name="Rectangle 1741" transform="translate(377.483 3003.043)" fill="#fff" stroke="#585858" stroke-width="2">
      <rect width="55.811" height="53.252" rx="18" stroke="none"/>
      <rect x="1" y="1" width="53.811" height="51.252" rx="17" fill="none"/>
    </g>
    <g id="Group_1840" data-name="Group 1840" transform="translate(389.636 3016.32)">
      <g id="Group_1590" data-name="Group 1590" transform="translate(0 0)">
        <g id="_82659065416276572793767" data-name="82659065416276572793767" transform="translate(10.212 8.838)">
          <g id="Layer_26" data-name="Layer 26" transform="translate(0 0)">
            <path id="Path_2347" data-name="Path 2347" d="M17.925,4.516H15.894a2.824,2.824,0,0,0-1.019-1.8h3.05a.372.372,0,0,0,.384-.359A.372.372,0,0,0,17.925,2H10.163a.372.372,0,0,0-.384.359.372.372,0,0,0,.384.359H12.85a2.265,2.265,0,0,1,2.269,1.8H10.163a.36.36,0,1,0,0,.719h4.956a2.265,2.265,0,0,1-2.269,1.8H10.163a.385.385,0,0,0-.355.222.343.343,0,0,0,.085.392l5.375,5.032a.4.4,0,0,0,.529-.011.343.343,0,0,0,.014-.5L11.09,7.751h1.76a3.009,3.009,0,0,0,3.044-2.516h2.031a.36.36,0,1,0,0-.719Z" transform="translate(-9.778 -2)" fill="#585858" stroke="#585859" stroke-width="0.8"/>
          </g>
        </g>
        <g id="Path_6960" data-name="Path 6960" transform="translate(-5.75 -5.75)" fill="#585858">
          <path d="M 20.00730514526367 32.19598770141602 C 20.00719261169434 32.19598770141602 20.00717163085938 32.19598770141602 20.00705909729004 32.19598770141602 C 19.09061813354492 32.19597625732422 18.17024803161621 32.11109924316406 17.27149772644043 31.94372749328613 C 14.54351806640625 31.43572807312012 12.06251811981201 30.19440841674805 10.09670829772949 28.35396766662598 C 8.133567810058594 26.5159969329834 6.809788227081299 24.19783782958984 6.268497943878174 21.65008735656738 C 5.727518081665039 19.10382843017578 6.00255823135376 16.48997688293457 7.063888072967529 14.09110736846924 C 8.126338005065918 11.68968772888184 9.908907890319824 9.656538009643555 12.21890830993652 8.211477279663086 C 14.53163814544678 6.764717578887939 17.22476768493652 5.999997615814209 20.00714874267578 5.999997615814209 C 21.85671806335449 6.002627849578857 23.660888671875 6.340597629547119 25.36919784545898 7.004497528076172 C 27.07648849487305 7.668007850646973 28.60466766357422 8.624688148498535 29.91128730773926 9.847957611083984 C 31.2166690826416 11.07012748718262 32.23725891113281 12.49884796142578 32.94469833374023 14.09442806243896 C 33.65161895751953 15.68884754180908 34.01148986816406 17.37242698669434 34.01429748535156 19.09840774536133 C 34.01429748535156 21.69455718994141 33.19952774047852 24.20865821838379 31.65805816650391 26.36849784851074 C 30.11457824707031 28.53117752075195 27.94115829467773 30.2007884979248 25.37276840209961 31.19681739807129 C 23.66316223144531 31.85980796813965 21.85789680480957 32.19598770141602 20.00730514526367 32.19598770141602 Z M 20.00704765319824 6.771237850189209 C 19.1487979888916 6.771237850189209 18.2867488861084 6.850727558135986 17.44484901428223 7.00751781463623 C 14.88716793060303 7.483837604522705 12.56004810333252 8.648617744445801 10.715087890625 10.37592792510986 C 8.867467880249023 12.10572814941406 7.621238231658936 14.28909778594971 7.111148357391357 16.68997764587402 C 6.600738048553467 19.09234809875488 6.86007833480835 21.55810737609863 7.861128330230713 23.82069778442383 C 8.861038208007812 26.08076858520508 10.53708839416504 27.99325752258301 12.70807838439941 29.35138702392578 C 14.8763484954834 30.70779800415039 17.40032768249512 31.42474746704102 20.00714874267578 31.42474746704102 C 21.74048805236816 31.42338752746582 23.43113899230957 31.10747718811035 25.03230857849121 30.48579788208008 C 26.63450813293457 29.86372756958008 28.06902885437012 28.96582794189453 29.29601860046387 27.81704711914062 C 30.52424812316895 26.66716766357422 31.48455810546875 25.32211685180664 32.1502571105957 23.81924819946289 C 32.81647872924805 22.31520843505859 33.1550178527832 20.72682762145996 33.15647888183594 19.09821701049805 C 33.15647888183594 16.64898681640625 32.38865661621094 14.27866744995117 30.93603897094727 12.24327754974365 C 29.48539733886719 10.2106876373291 27.44446754455566 8.642228126525879 25.03387832641602 7.707457542419434 C 23.43198776245117 7.086227893829346 21.74071884155273 6.771237850189209 20.00704765319824 6.771237850189209 Z" stroke="none"/>
          <path d="M 20.00643730163574 6.249996185302734 L 20.00653266906738 6.249996185302734 C 17.27128028869629 6.250091552734375 14.62428855895996 7.001644134521484 12.35148811340332 8.423418045043945 C 10.08402824401855 9.841876983642578 8.334657669067383 11.83670806884766 7.292518615722656 14.19225692749023 C 6.252597808837891 16.54272842407227 5.983058929443359 19.1036376953125 6.513027191162109 21.59813690185547 C 7.043647766113281 24.09560775756836 8.341947555541992 26.36863708496094 10.26756858825684 28.17146682739258 C 12.1984977722168 29.97926712036133 14.6362476348877 31.19869804382324 17.31726837158203 31.69794845581055 C 18.2010383605957 31.8625373840332 19.10600852966309 31.94598770141602 20.00703811645508 31.94598770141602 C 21.82679748535156 31.94598770141602 23.6016788482666 31.61550712585449 25.28237915039062 30.96373748779297 C 27.80517768859863 29.98537826538086 29.93948745727539 28.34614753723145 31.45456695556641 26.2232666015625 C 32.96560668945312 24.10605812072754 33.76429748535156 21.64218711853027 33.76429748535156 19.09880828857422 C 33.76154708862305 17.40781784057617 33.40889739990234 15.75818824768066 32.71614837646484 14.19575691223145 C 32.02237701416016 12.6309986114502 31.02119827270508 11.22958755493164 29.74042892456055 10.03045845031738 C 28.45720672607422 8.829097747802734 26.95604705810547 7.88941764831543 25.27863693237305 7.237518310546875 C 23.59920883178711 6.584836959838867 21.82537841796875 6.252586364746094 20.00643730163574 6.249996185302734 M 20.00753784179688 31.67474746704102 L 20.00714874267578 31.67474746704102 C 17.35339736938477 31.67474746704102 14.78357887268066 30.94463729858398 12.57548904418945 29.5633373260498 C 10.36196899414062 28.1785888671875 8.652708053588867 26.22779846191406 7.632499694824219 23.92184829711914 C 6.610038757324219 21.61088752746582 6.345188140869141 19.09217834472656 6.866607666015625 16.63802719116211 C 7.387378692626953 14.18685722351074 8.659078598022461 11.9583568572998 10.54422760009766 10.19342803955078 C 12.42405891418457 8.433467864990234 14.7944278717041 7.246807098388672 17.39907836914062 6.761737823486328 C 18.25603866577148 6.602157592773438 19.13348770141602 6.521238327026367 20.00704765319824 6.521238327026367 C 21.77176856994629 6.521238327026367 23.49344825744629 6.841917037963867 25.12425804138184 7.474367141723633 C 27.58042907714844 8.426807403564453 29.66047859191895 10.02564811706543 31.13952827453613 12.09804725646973 C 32.62257766723633 14.17605781555176 33.40647888183594 16.59659767150879 33.40647888183594 19.09844779968262 C 33.40497970581055 20.76207733154297 33.05922698974609 22.38444709777832 32.37883758544922 23.92049789428711 C 31.69945907592773 25.4542179107666 30.7197380065918 26.82660675048828 29.46688842773438 27.99954795837402 C 28.21646881103516 29.17024803161621 26.75490951538086 30.08515739440918 25.12279891967773 30.71883773803711 C 23.49271774291992 31.35173797607422 21.77169799804688 31.67335891723633 20.00753784179688 31.67474746704102 M 20.00714874267578 5.749996185302734 C 23.78662872314453 5.755378723144531 27.40962791442871 7.163408279418945 30.08214950561523 9.665458679199219 C 32.75461959838867 12.16756820678711 34.25853729248047 15.55952835083008 34.26429748535156 19.09799766540527 C 34.26429748535156 21.73799705505371 33.42815780639648 24.31865692138672 31.86154747009277 26.51372909545898 C 30.29494857788086 28.70879745483398 28.06827926635742 30.41962814331055 25.46315765380859 31.42990875244141 C 22.85798645019531 32.44018936157227 19.99134635925293 32.70455551147461 17.22572898864746 32.18949890136719 C 14.46011734008789 31.67449760437012 11.91973876953125 30.40320777893066 9.925848007202148 28.53646850585938 C 7.931928634643555 26.6696891784668 6.574069976806641 24.29129791259766 6.023948669433594 21.70204734802246 C 5.473838806152344 19.1127872467041 5.756179809570312 16.42895698547363 6.835269927978516 13.98995780944824 C 7.914358139038086 11.55090713500977 9.741727828979492 9.466238021850586 12.08631896972656 7.999526977539062 C 14.43089866638184 6.532848358154297 17.18738746643066 5.749996185302734 20.00714874267578 5.749996185302734 Z M 20.00714874267578 31.17474746704102 C 23.42739868164062 31.17204666137695 26.70670700073242 29.89882659912109 29.12515830993652 27.63454818725586 C 31.54365921020508 25.37032699584961 32.90359878540039 22.30013847351074 32.90647888183594 19.09799766540527 C 32.90647888183594 16.70943832397461 32.14994812011719 14.37452697753906 30.73254776000977 12.38850784301758 C 29.31513786315918 10.4024772644043 27.30056762695312 8.854557037353516 24.94348907470703 7.940547943115234 C 22.58646774291992 7.026468276977539 19.99287033081055 6.78730583190918 17.4906177520752 7.253288269042969 C 14.98841857910156 7.719278335571289 12.68994903564453 8.869468688964844 10.88594818115234 10.55842781066895 C 9.081937789916992 12.24739837646484 7.853408813476562 14.3992977142334 7.355690002441406 16.7419376373291 C 6.857959747314453 19.08461761474609 7.113407135009766 21.51283836364746 8.089748382568359 23.71954727172852 C 9.066078186035156 25.92631912231445 10.71941757202148 27.81242752075195 12.84066772460938 29.13944816589355 C 14.96196746826172 30.46645736694336 17.45590782165527 31.17474746704102 20.00714874267578 31.17474746704102 Z" stroke="none" fill="#585859"/>
        </g>
        <path id="Path_6961" data-name="Path 6961" d="M0,3.748,3.862,0l3.47,3.748" transform="translate(31.412 16.054) rotate(180)" fill="none" stroke="#f6f7f2" stroke-linecap="round" stroke-linejoin="round" stroke-width="1.8"/>
        <path id="Path_6962" data-name="Path 6962" d="M0,3.8,3.911,0,7.425,3.8" transform="translate(31.505 14.438) rotate(180)" fill="none" stroke="#585859" stroke-linecap="round" stroke-linejoin="round" stroke-width="1.8"/>
      </g>
    </g>
  </g>
</svg>
