<svg xmlns="http://www.w3.org/2000/svg" width="48.722" height="46.286" viewBox="0 0 48.722 46.286">
  <g id="twitter" transform="translate(-1015.21 -950.5)">
    <ellipse id="Ellipse_130" data-name="Ellipse 130" cx="24.361" cy="23.143" rx="24.361" ry="23.143" transform="translate(1015.21 950.5)" fill="#58595b"/>
    <g id="Page-1" transform="translate(1027.547 964.024)">
      <g id="Dribbble-Light-Preview" transform="translate(0)">
        <g id="icons">
          <path id="twitter-_154_" data-name="twitter-[#154]" d="M11.562,7380.236a13.828,13.828,0,0,0,14.037-13.82c0-.211,0-.42-.014-.629a9.93,9.93,0,0,0,2.461-2.514,9.947,9.947,0,0,1-2.833.764,4.88,4.88,0,0,0,2.169-2.686,10.032,10.032,0,0,1-3.133,1.18,4.992,4.992,0,0,0-6.98-.211,4.814,4.814,0,0,0-1.427,4.641,14.092,14.092,0,0,1-10.168-5.074,4.815,4.815,0,0,0,1.528,6.482,4.936,4.936,0,0,1-2.24-.607v.063a4.882,4.882,0,0,0,3.958,4.762,5.014,5.014,0,0,1-2.227.082,4.93,4.93,0,0,0,4.608,3.373,10,10,0,0,1-6.127,2.084,10.285,10.285,0,0,1-1.175-.07,14.123,14.123,0,0,0,7.562,2.178" transform="translate(-4 -7361)" fill="#fff" fill-rule="evenodd"/>
        </g>
      </g>
    </g>
  </g>
</svg>
