<svg xmlns="http://www.w3.org/2000/svg" width="17.289" height="17.277" viewBox="0 0 17.289 17.277">
  <path id="Call_-_Outline" data-name="Call - Outline" d="M13.826,16.78h-.184l-.027,0a16.414,16.414,0,0,1-9.3-4.2L4.3,12.557l-.581-.582A16.415,16.415,0,0,1-.5,2.66,1.855,1.855,0,0,1,.684.725L3.6-.407A1.339,1.339,0,0,1,5.267.206l2.05,3.769a1.34,1.34,0,0,1-.227,1.587l-.005.005L5.409,7.215A18.878,18.878,0,0,0,7.1,9.291a17.245,17.245,0,0,0,1.989,1.6L10.71,9.189a1.346,1.346,0,0,1,1.6-.238L16.077,11a1.353,1.353,0,0,1,.613,1.658l-1.134,2.927a1.864,1.864,0,0,1-1.729,1.192ZM5.452,11.359A14.661,14.661,0,0,0,13.8,15.132h.024A.2.2,0,0,0,14.01,15l0-.005,1.046-2.668-3.344-1.816-1.679,1.709A1.333,1.333,0,0,1,8.33,12.4,18.86,18.86,0,0,1,5.91,10.464l-.022-.022a20.522,20.522,0,0,1-2-2.5,1.338,1.338,0,0,1,.168-1.712L5.762,4.555,3.941,1.22,1.274,2.266a.2.2,0,0,0-.13.213,14.763,14.763,0,0,0,3.771,8.35Z" transform="translate(0.512 0.497)" fill="#c7222a"/>
</svg>
