<svg xmlns="http://www.w3.org/2000/svg" width="39.548" height="42.515" viewBox="0 0 39.548 42.515">
  <path id="_134954835116345278834481" data-name="134954835116345278834481" d="M42.433,40.365l-.556-2.785a8.54,8.54,0,0,0-5.868-6.493l-6.357-1.956a8.658,8.658,0,0,0,2.53-4.4l.409-1.847a3.8,3.8,0,0,0,2.487-6.546l.537-2.141a8.614,8.614,0,0,0-.439-5.437l-.342-.8A6.717,6.717,0,0,0,29.055,3.9a8.262,8.262,0,0,0-7.378-1.933l-4.66,1.08A8.589,8.589,0,0,0,11.076,8l-.323.751a8.612,8.612,0,0,0-.438,5.439l.537,2.139a3.8,3.8,0,0,0,2.487,6.548l.408,1.854a8.642,8.642,0,0,0,2.53,4.4L9.92,31.089a8.54,8.54,0,0,0-5.868,6.493L3.5,40.365a2.849,2.849,0,0,0,2.791,3.407H39.642a2.849,2.849,0,0,0,2.791-3.407Zm-18.739-3.7a.95.95,0,0,1-1.461,0l-.855-1.028a9.562,9.562,0,0,1-2.059-4.42l1.125.7a4.682,4.682,0,0,0,5.033,0l1.131-.7a9.563,9.563,0,0,1-2.059,4.42Zm-7.829-1.419A7.642,7.642,0,0,1,17.17,32.5l.369-.491a11.456,11.456,0,0,0,2.312,4.763l-3.171-.352a.95.95,0,0,1-.817-1.175Zm14.055.773a.934.934,0,0,1-.675.4l-3.171.352a11.456,11.456,0,0,0,2.312-4.763l.369.491a7.642,7.642,0,0,1,1.306,2.744.939.939,0,0,1-.139.777ZM12.5,9.5l.322-.749A6.682,6.682,0,0,1,17.444,4.9L22.1,3.816a6.363,6.363,0,0,1,5.888,1.692.95.95,0,0,0,.671.278,4.819,4.819,0,0,1,4.426,2.919l.342.8a6.7,6.7,0,0,1,.341,4.229L33.354,15.4a3.759,3.759,0,0,0-.893-.116.961.961,0,0,0-.671.278l-.713.713-.222-.907a8.641,8.641,0,0,0-1.182-2.649L28.5,10.962a.95.95,0,0,0-1.317-.265,13.181,13.181,0,0,1-5.825,2.126l-2.531.275a4.79,4.79,0,0,0-3.787,2.746,4.42,4.42,0,0,0-.175.449l-.729-.729a.988.988,0,0,0-.671-.282,3.764,3.764,0,0,0-.893.116l-.417-1.665A6.692,6.692,0,0,1,12.5,9.5Zm3.1,14.815-.59-2.669a.95.95,0,0,0-1.148-.72,1.708,1.708,0,0,1-.4.05,1.9,1.9,0,0,1-1.9-1.9,1.876,1.876,0,0,1,.862-1.593,1.908,1.908,0,0,1,.694-.256L14.7,18.8a.95.95,0,0,0,1.592-.438l.314-1.235a3.016,3.016,0,0,1,.169-.5,2.877,2.877,0,0,1,2.27-1.647l2.528-.275a15.1,15.1,0,0,0,5.859-1.934l.665,1a6.686,6.686,0,0,1,.919,2.059l.629,2.533a.95.95,0,0,0,1.593.441L32.8,17.233a1.908,1.908,0,0,1,.694.256,1.876,1.876,0,0,1,.862,1.593,1.9,1.9,0,0,1-1.9,1.9,1.708,1.708,0,0,1-.4-.05.95.95,0,0,0-1.148.72l-.589,2.664a6.629,6.629,0,0,1-2.965,4.2l-2.893,1.8a2.807,2.807,0,0,1-3.018,0l-2.884-1.794a6.624,6.624,0,0,1-2.967-4.2ZM5.555,41.526a.95.95,0,0,1-.2-.788l.556-2.784A6.648,6.648,0,0,1,10.478,32.9L15.7,31.294l-.051.068a9.534,9.534,0,0,0-1.63,3.419A2.849,2.849,0,0,0,16.469,38.3l5.546.625v2.944H6.288a.943.943,0,0,1-.733-.348Zm34.82,0a.943.943,0,0,1-.733.348H23.914V38.929l5.542-.615a2.849,2.849,0,0,0,2.449-3.522,9.532,9.532,0,0,0-1.629-3.429l-.051-.068L35.449,32.9a6.648,6.648,0,0,1,4.565,5.051l.556,2.784a.95.95,0,0,1-.2.788Z" transform="translate(-3.191 -1.508)" fill="#c91429" stroke="#fff" stroke-width="0.5"/>
</svg>
