<svg xmlns="http://www.w3.org/2000/svg" width="18.175" height="18.175" viewBox="0 0 18.175 18.175">
  <path id="XMLID_1489_" d="M12.031,5.038a3.353,3.353,0,0,1,.79,2.706,2.735,2.735,0,0,1-2.845,2.568h-.1v.474a.79.79,0,0,1-1.58,0v-.632c0-.652.277-1.422,1.679-1.422a1.16,1.16,0,0,0,1.264-1.185,1.834,1.834,0,0,0-.415-1.462,2.355,2.355,0,0,0-1.817-.632c-1.778,0-1.837,1.166-1.837,1.284a.79.79,0,0,1-1.58,0c0-.79.612-2.865,3.418-2.865A3.837,3.837,0,0,1,12.031,5.038Zm-3,7.211a.927.927,0,0,0-.691.3,1.006,1.006,0,0,0-.3.691.927.927,0,0,0,.3.691,1.006,1.006,0,0,0,.691.3.927.927,0,0,0,.691-.3,1.006,1.006,0,0,0,.3-.691.927.927,0,0,0-.3-.691A.97.97,0,0,0,9.028,12.248Zm9.147-3.161A9.087,9.087,0,1,1,9.087,0,9.089,9.089,0,0,1,18.175,9.087Zm-1.58,0a7.507,7.507,0,1,0-7.507,7.507A7.5,7.5,0,0,0,16.594,9.087Z" fill="#44583f"/>
</svg>
