<svg xmlns="http://www.w3.org/2000/svg" xmlns:xlink="http://www.w3.org/1999/xlink" width="106" height="106" viewBox="0 0 106 106">
  <defs>
    <filter id="Ellipse_60" x="0" y="0" width="106" height="106" filterUnits="userSpaceOnUse">
      <feOffset dy="7" input="SourceAlpha"/>
      <feGaussianBlur stdDeviation="4.5" result="blur"/>
      <feFlood flood-opacity="0.161"/>
      <feComposite operator="in" in2="blur"/>
      <feComposite in="SourceGraphic"/>
    </filter>
  </defs>
  <g id="Group_1481" data-name="Group 1481" transform="translate(-1009.562 -3170.5)">
    <g transform="matrix(1, 0, 0, 1, 1009.56, 3170.5)" filter="url(#Ellipse_60)">
      <g id="Ellipse_60-2" data-name="Ellipse 60" transform="translate(13.5 6.5)" fill="#44583f" stroke="#fff" stroke-width="1">
        <circle cx="39.5" cy="39.5" r="39.5" stroke="none"/>
        <circle cx="39.5" cy="39.5" r="39" fill="none"/>
      </g>
    </g>
    <path id="handshake-emoji" d="M43.506,69.363l-3.987-3.987A4.714,4.714,0,0,0,36.2,64H17.193a4.727,4.727,0,0,0-3.317,1.365l-3.99,4H0V90.79H5.363a2.681,2.681,0,0,0,2.681-2.657h.762l7.09,6.4a7.374,7.374,0,0,0,8.849.319,5.143,5.143,0,0,0,7.532-.678,4.7,4.7,0,0,0,5.363-1.408l2.2-2.706a4.6,4.6,0,0,0,.906-1.928h4.843a2.681,2.681,0,0,0,2.681,2.657h5.363V69.363ZM4.022,88.1a1.341,1.341,0,1,1,1.341-1.341A1.341,1.341,0,0,1,4.022,88.1ZM36.7,87.519l-2.188,2.7a.676.676,0,0,1-.947.1l-2-1.625L29.05,91.75a1.121,1.121,0,0,1-1.507.2L24.46,89.313l-1.306,1.609a3.338,3.338,0,0,1-4.633.552l-8.154-7.363H8.044V73.385h3.51l5.17-5.162.477-.193h4.751l-3.242,2.958a6,6,0,0,0-.367,8.489,6.071,6.071,0,0,0,8.505.37l.686-.627L36.6,86.578a.684.684,0,0,1,.1.947Zm8.884-3.408h-5.8a4.7,4.7,0,0,0-.646-.646l-8.6-7,1.048-.955a1.341,1.341,0,0,0,.083-1.893l-.914-.981a1.341,1.341,0,0,0-1.893-.083L24.232,76.8a2.145,2.145,0,0,1-2.9,0,1.987,1.987,0,0,1,.1-2.84l5.5-5.036a3.333,3.333,0,0,1,2.263-.88l7.007-.019a.627.627,0,0,1,.461.193l5.17,5.17h3.754Zm4.022,4a1.335,1.335,0,1,0,0-.011Z" transform="translate(1035.748 3135.967)" fill="#fff" stroke="rgba(0,0,0,0)" stroke-width="1"/>
  </g>
</svg>
