<svg xmlns="http://www.w3.org/2000/svg" xmlns:xlink="http://www.w3.org/1999/xlink" width="106" height="106" viewBox="0 0 106 106">
  <defs>
    <filter id="Path_6451" x="0" y="0" width="106" height="106" filterUnits="userSpaceOnUse">
      <feOffset dy="7" input="SourceAlpha"/>
      <feGaussianBlur stdDeviation="4.5" result="blur"/>
      <feFlood flood-opacity="0.161"/>
      <feComposite operator="in" in2="blur"/>
      <feComposite in="SourceGraphic"/>
    </filter>
  </defs>
  <g id="Group_1505" data-name="Group 1505" transform="translate(-1074.5 -3167.639)">
    <g id="Group_1499" data-name="Group 1499" transform="translate(64.938 -2.861)">
      <g transform="matrix(1, 0, 0, 1, 1009.56, 3170.5)" filter="url(#Path_6451)">
        <g id="Path_6451-2" data-name="Path 6451" transform="translate(13.5 6.5)" fill="#c4a166">
          <path d="M 39.5 78.5 C 34.23480987548828 78.5 29.12738990783691 77.46891784667969 24.31958961486816 75.43538665771484 C 19.67555999755859 73.47113037109375 15.50469017028809 70.65901947021484 11.92282962799072 67.07717132568359 C 8.34097957611084 63.49531173706055 5.528870105743408 59.32444000244141 3.564610004425049 54.6804084777832 C 1.531080007553101 49.87260818481445 0.5 44.76519012451172 0.5 39.5 C 0.5 34.23480987548828 1.531080007553101 29.12738990783691 3.564610004425049 24.31958961486816 C 5.528870105743408 19.67555999755859 8.34097957611084 15.50469017028809 11.92282962799072 11.92282962799072 C 15.50469017028809 8.34097957611084 19.67555999755859 5.528870105743408 24.31958961486816 3.564610004425049 C 29.12738990783691 1.531080007553101 34.23480987548828 0.5 39.5 0.5 C 44.76519012451172 0.5 49.87260818481445 1.531080007553101 54.6804084777832 3.564610004425049 C 59.32444000244141 5.528870105743408 63.49531173706055 8.34097957611084 67.07717132568359 11.92282962799072 C 70.65901947021484 15.50469017028809 73.47113037109375 19.67555999755859 75.43538665771484 24.31958961486816 C 77.46891784667969 29.12738990783691 78.5 34.23480987548828 78.5 39.5 C 78.5 44.76519012451172 77.46891784667969 49.87260818481445 75.43538665771484 54.6804084777832 C 73.47113037109375 59.32444000244141 70.65901947021484 63.49531173706055 67.07717132568359 67.07717132568359 C 63.49531173706055 70.65901947021484 59.32444000244141 73.47113037109375 54.6804084777832 75.43538665771484 C 49.87260818481445 77.46891784667969 44.76519012451172 78.5 39.5 78.5 Z" stroke="none"/>
          <path d="M 39.5 1 C 34.30208969116211 1 29.26020050048828 2.017791748046875 24.51436614990234 4.025108337402344 C 19.929931640625 5.964164733886719 15.8124885559082 8.740287780761719 12.27639007568359 12.27639007568359 C 8.740287780761719 15.8124885559082 5.964164733886719 19.929931640625 4.025108337402344 24.51436614990234 C 2.017791748046875 29.26020050048828 1 34.30208969116211 1 39.5 C 1 44.69791030883789 2.017791748046875 49.73979949951172 4.025108337402344 54.48563385009766 C 5.964164733886719 59.070068359375 8.740287780761719 63.1875114440918 12.27639007568359 66.72360992431641 C 15.8124885559082 70.25971221923828 19.929931640625 73.03583526611328 24.51436614990234 74.97489166259766 C 29.26020050048828 76.98220825195312 34.30208969116211 78 39.5 78 C 44.69791030883789 78 49.73979949951172 76.98220825195312 54.48563385009766 74.97489166259766 C 59.070068359375 73.03583526611328 63.1875114440918 70.25971221923828 66.72360992431641 66.72360992431641 C 70.25971221923828 63.1875114440918 73.03583526611328 59.070068359375 74.97489166259766 54.48563385009766 C 76.98220825195312 49.73979949951172 78 44.69791030883789 78 39.5 C 78 34.30208969116211 76.98220825195312 29.26020050048828 74.97489166259766 24.51436614990234 C 73.03583526611328 19.929931640625 70.25971221923828 15.8124885559082 66.72360992431641 12.27639007568359 C 63.1875114440918 8.740287780761719 59.070068359375 5.964164733886719 54.48563385009766 4.025108337402344 C 49.73979949951172 2.017791748046875 44.69791030883789 1 39.5 1 M 39.5 0 C 61.31524658203125 0 79 17.68475723266602 79 39.5 C 79 61.31524658203125 61.31524658203125 79 39.5 79 C 17.68475723266602 79 0 61.31524658203125 0 39.5 C 0 17.68475723266602 17.68475723266602 0 39.5 0 Z" stroke="none" fill="#fff"/>
        </g>
      </g>
    </g>
    <path id="_16703042791594941222" data-name="16703042791594941222" d="M20.423,2A16.471,16.471,0,0,0,4,18.423v4.106a6.776,6.776,0,0,0,6.843,6.843A1.293,1.293,0,0,0,12.211,28V17.054a1.293,1.293,0,0,0-1.369-1.369,6.623,6.623,0,0,0-3.969,1.369,13.61,13.61,0,0,1,27.1,0A6.623,6.623,0,0,0,30,15.685a1.293,1.293,0,0,0-1.369,1.369V28A1.293,1.293,0,0,0,30,29.371a5.011,5.011,0,0,0,2.463-.547,13.963,13.963,0,0,1-6.706,6.158,3.526,3.526,0,0,0-3.421-3.011,3.33,3.33,0,0,0-3.285,3.284,3.477,3.477,0,0,0,3.421,3.421h.547A16.354,16.354,0,0,0,36.845,22.528V18.423A16.471,16.471,0,0,0,20.423,2Z" transform="translate(1107.078 3193.3)" fill="#fff"/>
  </g>
</svg>
