<svg xmlns="http://www.w3.org/2000/svg" width="46.286" height="46.286" viewBox="0 0 46.286 46.286">
  <g id="YOutube" transform="translate(-1224.714 -950.5)">
    <circle id="Ellipse_133" data-name="Ellipse 133" cx="23.143" cy="23.143" r="23.143" transform="translate(1224.714 950.5)" fill="#58595b"/>
    <g id="Page-1" transform="translate(1235.886 966.133)">
      <g id="Dribbble-Light-Preview">
        <g id="icons">
          <path id="youtube-_168_" data-name="youtube-[#168]" d="M253.563,7293.475v-6.717c2.385,1.121,4.232,2.205,6.417,3.373-1.8,1-4.032,2.121-6.417,3.344m13.291-10.059a3.11,3.11,0,0,0-1.859-1.105c-2.194-.416-15.882-.416-18.075,0a3.189,3.189,0,0,0-1.59.807c-1.929,1.791-1.325,11.395-.86,12.949a3.409,3.409,0,0,0,.767,1.479,3.1,3.1,0,0,0,1.617.842c1.807.373,11.114.582,18.1.055a3.126,3.126,0,0,0,1.663-.85c1.784-1.785,1.662-11.928.234-14.176" transform="translate(-244 -7281.999)" fill="#fff" fill-rule="evenodd"/>
        </g>
      </g>
    </g>
  </g>
</svg>
